<?xml version="1.0" encoding="utf-8"?>
<!-- Generator: Adobe Illustrator 15.0.2, SVG Export Plug-In . SVG Version: 6.00 Build 0)  -->
<!DOCTYPE svg PUBLIC "-//W3C//DTD SVG 1.1//EN" "http://www.w3.org/Graphics/SVG/1.1/DTD/svg11.dtd" [
	<!ENTITY ns_extend "http://ns.adobe.com/Extensibility/1.0/">
	<!ENTITY ns_ai "http://ns.adobe.com/AdobeIllustrator/10.0/">
	<!ENTITY ns_graphs "http://ns.adobe.com/Graphs/1.0/">
	<!ENTITY ns_vars "http://ns.adobe.com/Variables/1.0/">
	<!ENTITY ns_imrep "http://ns.adobe.com/ImageReplacement/1.0/">
	<!ENTITY ns_sfw "http://ns.adobe.com/SaveForWeb/1.0/">
	<!ENTITY ns_custom "http://ns.adobe.com/GenericCustomNamespace/1.0/">
	<!ENTITY ns_adobe_xpath "http://ns.adobe.com/XPath/1.0/">
]>
<svg version="1.1" id="Layer_1" xmlns:x="&ns_extend;" xmlns:i="&ns_ai;" xmlns:graph="&ns_graphs;"
	 xmlns="http://www.w3.org/2000/svg" xmlns:xlink="http://www.w3.org/1999/xlink" x="0px" y="0px" width="33.584px"
	 height="182.231px" viewBox="0 0 33.584 182.231" style="enable-background:new 0 0 33.584 182.231;" xml:space="preserve">
<style type="text/css">
<![CDATA[
	.st0{fill:#F2921A;}
	.st1{fill:#C8D3D9;}
	.st2{fill-rule:evenodd;clip-rule:evenodd;fill:#F2921A;}
	.st3{fill-rule:evenodd;clip-rule:evenodd;fill:#C8D3D9;}
]]>
</style>
<metadata>
	<sfw  xmlns="&ns_sfw;">
		<slices></slices>
		<sliceSourceBounds  height="174.181" width="26.39" y="-108.853" x="760.347" bottomLeftOrigin="true"></sliceSourceBounds>
	</sfw>
</metadata>
<g id="Arrow_26">
</g>
<g>
	<g>
		<path class="st1" d="M5.507,25.774c1.344,2.743,2.977,3.595,3.73,3.262c0.214-0.095,0.654-0.448,0.77-0.613
			c0.119-0.168,0.103-0.387-0.021-0.549c-0.382-0.488-0.737-1-1.067-1.523c-0.108-0.172-0.305-0.234-0.495-0.164
			c-0.223,0.083-0.406,0.281-0.64,0.404c-0.187,0.098-0.712-0.067-1.323-1.283c-0.587-1.23-0.395-1.745-0.201-1.832
			c0.239-0.11,0.509-0.132,0.711-0.259c0.172-0.107,0.243-0.299,0.173-0.491c-0.21-0.581-0.396-1.176-0.55-1.776
			c-0.051-0.198-0.213-0.346-0.419-0.355c-0.201-0.008-0.749,0.123-0.955,0.233C4.492,21.22,4.165,23.033,5.507,25.774z"/>
		<g>
			<path class="st3" d="M8.491,21.333h3.556c0.215,0,0.387,0.172,0.387,0.386s-0.172,0.387-0.387,0.387H8.491
				c-0.214,0-0.387-0.173-0.387-0.387S8.277,21.333,8.491,21.333z"/>
			<path class="st3" d="M8.491,24.422h3.556c0.215,0,0.387,0.173,0.387,0.387c0,0.213-0.172,0.386-0.387,0.386H8.491
				c-0.214,0-0.387-0.173-0.387-0.386C8.104,24.595,8.277,24.422,8.491,24.422z"/>
			<path class="st3" d="M8.491,22.877h3.556c0.215,0,0.387,0.173,0.387,0.386c0,0.213-0.172,0.386-0.387,0.386H8.491
				c-0.214,0-0.387-0.173-0.387-0.386C8.104,23.051,8.277,22.877,8.491,22.877z"/>
		</g>
	</g>
</g>
<g>
	<path class="st1" d="M10.039,106.88c-0.225,0.237-0.507,0.416-0.822,0.524c1.569,0.4,2.752,2.105,2.752,4.144v0.024
		c-0.014,0.003-0.037,0.006-0.07,0.006H5.092c-0.018,0-0.032-0.002-0.041-0.003v-0.027c0-2.057,1.205-3.773,2.797-4.153
		c-0.313-0.113-0.59-0.299-0.812-0.539c-1.607,0.709-2.758,2.534-2.763,4.679c-0.005,0.094,0.001,0.355,0.194,0.57
		c0.104,0.114,0.297,0.252,0.625,0.252h6.807c0.354,0,0.556-0.145,0.663-0.266c0.187-0.212,0.192-0.462,0.186-0.56
		C12.742,109.413,11.617,107.605,10.039,106.88z"/>
	<path class="st1" d="M8.547,107.915c-1.352,0-2.452-1.102-2.452-2.454s1.101-2.453,2.452-2.453c1.354,0,2.454,1.101,2.454,2.453
		S9.9,107.915,8.547,107.915z M8.547,103.787c-0.923,0-1.675,0.75-1.675,1.674s0.752,1.675,1.675,1.675
		c0.924,0,1.676-0.751,1.676-1.675S9.471,103.787,8.547,103.787z"/>
</g>
<path class="st1" d="M11.066,62.693c-0.164,0-0.322-0.051-0.456-0.147l-2.1-1.525l-2.098,1.524
	c-0.272,0.195-0.646,0.193-0.914,0.001c-0.275-0.2-0.389-0.55-0.283-0.872l0.801-2.466l-2.098-1.523
	c-0.274-0.2-0.389-0.55-0.283-0.871c0.105-0.322,0.402-0.538,0.74-0.538H6.97l0.801-2.466c0.105-0.322,0.403-0.538,0.74-0.538
	c0.338,0,0.636,0.216,0.74,0.538l0.802,2.466h2.594c0.338,0,0.635,0.217,0.739,0.538c0.104,0.322-0.009,0.672-0.282,0.87
	l-2.098,1.524l0.801,2.467c0.104,0.323-0.01,0.673-0.283,0.871C11.389,62.643,11.23,62.693,11.066,62.693z M8.511,60.059
	l2.556,1.856l0,0c0,0,0,0,0.002-0.001l-0.979-3.003l2.557-1.856H9.487L8.511,54.05l-0.976,3.005H4.376l2.556,1.856l-0.976,3.004
	L8.511,60.059z"/>
<g>
	<g>
		<path class="st1" d="M8.511,3.922c-3.139,0-4.663,1.123-4.696,1.968c-0.01,0.241,0.118,0.807,0.218,0.988
			c0.102,0.186,0.311,0.27,0.514,0.227c0.625-0.13,1.259-0.229,1.891-0.296c0.207-0.021,0.354-0.175,0.375-0.383
			c0.026-0.243-0.075-0.502-0.084-0.772C6.722,5.436,7.111,5.027,8.509,5.012c1.401,0.016,1.789,0.424,1.782,0.642
			c-0.006,0.27-0.107,0.529-0.083,0.773c0.021,0.208,0.166,0.359,0.375,0.382c0.632,0.069,1.266,0.166,1.891,0.296
			c0.205,0.043,0.412-0.041,0.516-0.227c0.098-0.182,0.226-0.747,0.218-0.987C13.172,5.043,11.647,3.922,8.511,3.922"/>
		<path class="st1" d="M7.222,8.109c0,0.365-0.297,0.661-0.662,0.661H6.117c-0.365,0-0.661-0.296-0.661-0.661s0.296-0.66,0.661-0.66
			H6.56C6.925,7.449,7.222,7.745,7.222,8.109"/>
		<path class="st1" d="M9.392,8.109c0,0.365-0.296,0.661-0.661,0.661H8.289c-0.365,0-0.66-0.296-0.66-0.661s0.295-0.66,0.66-0.66
			H8.73C9.096,7.449,9.392,7.745,9.392,8.109"/>
		<path class="st1" d="M11.563,8.109c0,0.365-0.296,0.661-0.661,0.661H10.46c-0.363,0-0.66-0.296-0.66-0.661s0.297-0.66,0.66-0.66
			h0.442C11.268,7.449,11.563,7.745,11.563,8.109"/>
		<path class="st1" d="M7.222,10.045c0,0.365-0.297,0.661-0.662,0.661H6.117c-0.365,0-0.661-0.295-0.661-0.661
			c0-0.365,0.296-0.661,0.661-0.661H6.56C6.925,9.385,7.222,9.681,7.222,10.045"/>
		<path class="st1" d="M9.392,10.045c0,0.365-0.296,0.661-0.661,0.661H8.289c-0.365,0-0.66-0.295-0.66-0.661
			c0-0.365,0.295-0.661,0.66-0.661H8.73C9.096,9.385,9.392,9.681,9.392,10.045"/>
		<path class="st1" d="M11.563,10.045c0,0.365-0.296,0.661-0.661,0.661H10.46c-0.363,0-0.66-0.295-0.66-0.661
			c0-0.365,0.297-0.661,0.66-0.661h0.442C11.268,9.385,11.563,9.681,11.563,10.045"/>
		<path class="st1" d="M7.222,11.983c0,0.365-0.297,0.661-0.662,0.661H6.117c-0.365,0-0.661-0.296-0.661-0.661
			c0-0.365,0.296-0.66,0.661-0.66H6.56C6.925,11.323,7.222,11.619,7.222,11.983"/>
		<path class="st1" d="M9.392,11.983c0,0.365-0.296,0.661-0.661,0.661H8.289c-0.365,0-0.66-0.296-0.66-0.661
			c0-0.365,0.295-0.66,0.66-0.66H8.73C9.096,11.323,9.392,11.619,9.392,11.983"/>
		<path class="st1" d="M11.563,11.983c0,0.365-0.296,0.661-0.661,0.661H10.46c-0.363,0-0.66-0.296-0.66-0.661
			c0-0.365,0.297-0.66,0.66-0.66h0.442C11.268,11.323,11.563,11.619,11.563,11.983"/>
	</g>
</g>
<g>
	<g>
		<path class="st1" d="M11.422,42.895c0-0.818-0.444-1.514-1.059-1.759c0.217-0.149,0.358-0.398,0.358-0.681
			c0-0.457-0.37-0.828-0.826-0.828c-0.457,0-0.829,0.372-0.829,0.828c0,0.277,0.138,0.522,0.349,0.673
			c-0.624,0.237-1.078,0.939-1.078,1.767c0,0-0.018,0.169,0.172,0.169h2.729C11.443,43.064,11.422,42.895,11.422,42.895"/>
		<rect x="6.395" y="37.638" class="st1" width="0.687" height="7.557"/>
		<path class="st1" d="M12.345,45.538H5.49c-0.521,0-0.946-0.425-0.946-0.948v-6.348c0-0.522,0.425-0.948,0.946-0.948h6.854
			c0.522,0,0.947,0.425,0.947,0.948v6.348C13.292,45.112,12.867,45.538,12.345,45.538z M5.49,37.981
			c-0.145,0-0.262,0.117-0.262,0.261v6.348c0,0.144,0.117,0.261,0.262,0.261h6.854c0.146,0,0.262-0.117,0.262-0.261v-6.348
			c0-0.144-0.116-0.261-0.262-0.261H5.49z"/>
		<path class="st1" d="M3.728,39.167c0,0.167,0.134,0.303,0.301,0.303h1.562c0.168,0,0.303-0.135,0.303-0.303
			c0-0.167-0.135-0.302-0.303-0.302H4.028C3.861,38.866,3.728,39.001,3.728,39.167"/>
		<path class="st1" d="M3.728,40.342c0,0.167,0.134,0.303,0.301,0.303h1.562c0.168,0,0.303-0.136,0.303-0.303
			S5.759,40.04,5.591,40.04H4.028C3.861,40.04,3.728,40.175,3.728,40.342"/>
		<path class="st1" d="M3.728,41.517c0,0.167,0.134,0.303,0.301,0.303h1.562c0.168,0,0.303-0.136,0.303-0.303
			c0-0.167-0.135-0.302-0.303-0.302H4.028C3.861,41.215,3.728,41.35,3.728,41.517"/>
		<path class="st1" d="M3.728,42.691c0,0.167,0.134,0.303,0.301,0.303h1.562c0.168,0,0.303-0.136,0.303-0.303
			c0-0.167-0.135-0.302-0.303-0.302H4.028C3.861,42.389,3.728,42.525,3.728,42.691"/>
		<path class="st1" d="M3.728,43.866c0,0.167,0.134,0.302,0.301,0.302h1.562c0.168,0,0.303-0.135,0.303-0.302
			s-0.135-0.302-0.303-0.302H4.028C3.861,43.564,3.728,43.699,3.728,43.866"/>
		<path class="st1" d="M3.728,38.997c0,0.167,0.134,0.302,0.301,0.302h1.562c0.168,0,0.303-0.135,0.303-0.302
			c0-0.167-0.135-0.303-0.303-0.303H4.028C3.861,38.694,3.728,38.829,3.728,38.997"/>
		<path class="st1" d="M3.728,40.171c0,0.167,0.134,0.302,0.301,0.302h1.562c0.168,0,0.303-0.135,0.303-0.302
			s-0.135-0.303-0.303-0.303H4.028C3.861,39.868,3.728,40.004,3.728,40.171"/>
		<path class="st1" d="M3.728,41.345c0,0.167,0.134,0.302,0.301,0.302h1.562c0.168,0,0.303-0.135,0.303-0.302
			c0-0.167-0.135-0.302-0.303-0.302H4.028C3.861,41.043,3.728,41.178,3.728,41.345"/>
		<path class="st1" d="M3.728,42.52c0,0.167,0.134,0.303,0.301,0.303h1.562c0.168,0,0.303-0.136,0.303-0.303
			s-0.135-0.302-0.303-0.302H4.028C3.861,42.218,3.728,42.353,3.728,42.52"/>
		<path class="st1" d="M3.728,43.694c0,0.167,0.134,0.302,0.301,0.302h1.562c0.168,0,0.303-0.135,0.303-0.302
			s-0.135-0.302-0.303-0.302H4.028C3.861,43.392,3.728,43.527,3.728,43.694"/>
	</g>
</g>
<g>
	<g>
		<path class="st1" d="M11.846,71.177h-6.67c-0.646,0-1.172,0.525-1.172,1.171v4.402c0,0.646,0.525,1.171,1.172,1.171h6.67
			c0.646,0,1.172-0.525,1.172-1.171v-4.402C13.018,71.702,12.492,71.177,11.846,71.177 M11.846,71.846
			c0.022,0,0.04,0.003,0.061,0.005l-0.601,0.559c0,0-2.629,2.209-2.669,2.243c-0.03,0.027-0.094,0.064-0.171,0.075
			c-0.078-0.01-0.14-0.047-0.172-0.075c-0.04-0.034-2.669-2.243-2.669-2.243L5.04,71.867c0.043-0.012,0.089-0.021,0.136-0.021
			H11.846z M11.846,77.251h-6.67c-0.279,0-0.502-0.225-0.502-0.501v-4.298l2.106,1.997l-1.114,1.527
			c-0.012,0.011-0.021,0.025-0.027,0.04c-0.033,0.042-0.054,0.095-0.054,0.153c0,0.136,0.109,0.246,0.245,0.246
			c0.069,0,0.131-0.029,0.177-0.074c0.003-0.004,0.008-0.005,0.013-0.01l1.34-1.335l0.834,0.791
			c0.007,0.006,0.016,0.011,0.022,0.017c0.008,0.006,0.015,0.013,0.023,0.018c0.012,0.007,0.021,0.014,0.033,0.019
			c0.008,0.004,0.017,0.008,0.025,0.012c0.014,0.006,0.026,0.009,0.042,0.013c0.007,0.001,0.013,0.004,0.02,0.006
			c0.021,0.004,0.042,0.006,0.064,0.006l0,0c0.013,0,0.028-0.002,0.042-0.004c0.015,0.002,0.028,0.004,0.042,0.004l0,0
			c0.021,0,0.043-0.002,0.065-0.006c0.006-0.001,0.012-0.004,0.02-0.006c0.014-0.004,0.027-0.007,0.042-0.013
			c0.009-0.004,0.016-0.008,0.023-0.012c0.012-0.005,0.023-0.012,0.034-0.019c0.008-0.005,0.017-0.012,0.024-0.018
			c0.007-0.006,0.014-0.011,0.021-0.017l0.836-0.791l1.34,1.335c0.003,0.004,0.008,0.005,0.013,0.01
			c0.044,0.045,0.107,0.074,0.177,0.074c0.136,0,0.245-0.11,0.245-0.246c0-0.058-0.022-0.111-0.056-0.153
			c-0.007-0.015-0.014-0.028-0.025-0.04l-1.116-1.527l2.197-2.082v4.383C12.348,77.027,12.123,77.251,11.846,77.251"/>
	</g>
</g>
<g>
	<g>
		<path class="st1" d="M9.552,87.807c-0.001,0.576-0.47,1.041-1.046,1.04s-1.041-0.471-1.04-1.045
			c0.002-0.576,0.47-1.042,1.047-1.041C9.088,86.763,9.554,87.23,9.552,87.807"/>
		<path class="st1" d="M10.125,90.082c-0.429-0.431-1-0.669-1.614-0.672c-1.253,0-2.275,1.019-2.279,2.272
			c-0.004,1.256,1.016,2.281,2.272,2.285h0.007c1.252,0,2.273-1.02,2.277-2.271C10.789,91.086,10.555,90.514,10.125,90.082
			 M8.507,92.901c-0.671-0.001-1.212-0.546-1.21-1.216c0.002-0.67,0.547-1.211,1.217-1.21c0.671,0.002,1.212,0.547,1.209,1.217
			C9.722,92.361,9.177,92.903,8.507,92.901"/>
		<path class="st1" d="M12.477,92.773c-0.501-0.287-1.139-0.114-1.425,0.386c-0.286,0.499-0.113,1.136,0.386,1.423
			c0.5,0.287,1.138,0.114,1.424-0.386C13.148,93.697,12.975,93.06,12.477,92.773"/>
		<path class="st1" d="M4.544,92.773c0.5-0.287,1.139-0.114,1.425,0.386c0.286,0.499,0.113,1.136-0.386,1.423
			c-0.5,0.287-1.138,0.114-1.425-0.386C3.872,93.697,4.045,93.06,4.544,92.773"/>
	</g>
</g>
<g>
	<path class="st1" d="M6.946,140.282h2.623c0.14,0,0.254-0.107,0.254-0.24c0-0.131-0.114-0.239-0.254-0.239H6.946
		c-0.14,0-0.255,0.108-0.255,0.239C6.691,140.175,6.807,140.282,6.946,140.282"/>
	<path class="st1" d="M6.946,139.079h2.623c0.14,0,0.254-0.107,0.254-0.241c0-0.131-0.114-0.238-0.254-0.238H6.946
		c-0.14,0-0.255,0.107-0.255,0.238C6.691,138.972,6.807,139.079,6.946,139.079"/>
	<path class="st1" d="M8.14,143.693l0.013-0.011H6.457c-0.247,0-0.449-0.202-0.449-0.449v-6.015h4.566v3.716
		c0.122,0.033,0.185,0.048,0.356,0.077l0.47-0.416v-3.377h0.466c0.237,0,0.432-0.183,0.432-0.409c0-0.225-0.194-0.408-0.432-0.408
		H4.712c-0.239,0-0.436,0.184-0.436,0.408c0,0.227,0.196,0.409,0.436,0.409h0.463v5.984c0,0.704,0.576,1.281,1.281,1.281h1.896
		C8.272,144.255,8.182,143.852,8.14,143.693z"/>
	<path class="st1" d="M12.531,144.28c0.036-0.063,0.071-0.129,0.102-0.198c0.03-0.068,0.057-0.138,0.079-0.208l-0.386-0.368
		c0.024-0.146,0.028-0.292,0.012-0.436l0.406-0.347c-0.039-0.143-0.091-0.283-0.159-0.414l-0.533,0.013
		c-0.083-0.118-0.184-0.226-0.3-0.317l0.042-0.532c-0.063-0.036-0.129-0.071-0.197-0.101c-0.068-0.031-0.138-0.058-0.207-0.081
		l-0.369,0.387c-0.146-0.023-0.292-0.028-0.436-0.012l-0.348-0.405c-0.143,0.038-0.282,0.091-0.414,0.158l0.013,0.533
		c-0.118,0.084-0.225,0.184-0.317,0.3l-0.531-0.042c-0.036,0.063-0.072,0.129-0.103,0.197s-0.057,0.139-0.079,0.208l0.386,0.369
		c-0.023,0.146-0.027,0.292-0.012,0.436l-0.405,0.346c0.038,0.144,0.091,0.282,0.159,0.414l0.533-0.012
		c0.084,0.118,0.184,0.225,0.299,0.316l-0.042,0.532c0.064,0.037,0.13,0.071,0.198,0.102c0.068,0.031,0.138,0.058,0.207,0.08
		l0.369-0.386c0.146,0.023,0.292,0.027,0.436,0.012l0.347,0.404c0.144-0.037,0.282-0.09,0.414-0.157l-0.013-0.534
		c0.118-0.082,0.225-0.184,0.317-0.299L12.531,144.28z M10.305,144.261c-0.561-0.25-0.813-0.908-0.562-1.471
		c0.251-0.561,0.909-0.812,1.47-0.562c0.562,0.251,0.813,0.909,0.562,1.47C11.524,144.261,10.866,144.513,10.305,144.261"/>
</g>
<g>
	<path class="st1" d="M5.628,121.494c-0.191,0-0.348-0.155-0.348-0.346v-1.289c0-0.191,0.156-0.345,0.348-0.345
		c0.189,0,0.344,0.154,0.344,0.345v1.289C5.972,121.339,5.817,121.494,5.628,121.494z"/>
	<path class="st1" d="M11.704,122.894H7.845c-0.287,0-0.518-0.231-0.518-0.518c0-0.287,0.23-0.519,0.518-0.519h3.859
		c0.287,0,0.52,0.232,0.52,0.519C12.224,122.663,11.991,122.894,11.704,122.894z"/>
	<path class="st1" d="M12.474,123.777H7.571c-0.096,0-0.174-0.077-0.174-0.173c0-0.095,0.078-0.172,0.174-0.172h4.902
		c0.096,0,0.174,0.078,0.174,0.172C12.647,123.7,12.569,123.777,12.474,123.777z"/>
	<path class="st1" d="M10.79,124.674H7.571c-0.096,0-0.174-0.078-0.174-0.173c0-0.096,0.078-0.173,0.174-0.173h3.219
		c0.096,0,0.172,0.077,0.172,0.173C10.962,124.596,10.886,124.674,10.79,124.674z"/>
	<path class="st1" d="M11.157,126.639H7.845c-0.287,0-0.518-0.231-0.518-0.518c0-0.287,0.23-0.519,0.518-0.519h3.312
		c0.287,0,0.518,0.231,0.518,0.519C11.675,126.408,11.444,126.639,11.157,126.639z"/>
	<path class="st1" d="M12.474,127.521H7.571c-0.096,0-0.174-0.078-0.174-0.173c0-0.096,0.078-0.172,0.174-0.172h4.902
		c0.096,0,0.174,0.077,0.174,0.172C12.647,127.444,12.569,127.521,12.474,127.521z"/>
	<path class="st1" d="M5.628,128.983c-0.191,0-0.348-0.154-0.348-0.346v-1.289c0-0.191,0.156-0.345,0.348-0.345
		c0.189,0,0.344,0.154,0.344,0.345v1.289C5.972,128.829,5.817,128.983,5.628,128.983z"/>
	<path class="st1" d="M5.628,123.629c-0.693,0-1.254-0.562-1.254-1.252s0.561-1.253,1.254-1.253c0.689,0,1.252,0.562,1.252,1.253
		S6.317,123.629,5.628,123.629z M5.628,121.814c-0.311,0-0.562,0.251-0.562,0.562c0,0.309,0.252,0.562,0.562,0.562
		c0.309,0,0.561-0.252,0.561-0.562C6.188,122.066,5.937,121.814,5.628,121.814z"/>
	<path class="st1" d="M5.628,125.239c-0.191,0-0.348-0.154-0.348-0.346v-1.29c0-0.191,0.156-0.345,0.348-0.345
		c0.189,0,0.344,0.154,0.344,0.345v1.29C5.972,125.084,5.817,125.239,5.628,125.239z"/>
	<path class="st1" d="M5.628,127.374c-0.693,0-1.254-0.562-1.254-1.252c0-0.692,0.561-1.253,1.254-1.253
		c0.689,0,1.252,0.562,1.252,1.253C6.88,126.812,6.317,127.374,5.628,127.374z M5.628,125.56c-0.311,0-0.562,0.251-0.562,0.562
		c0,0.309,0.252,0.562,0.562,0.562c0.309,0,0.561-0.252,0.561-0.562C6.188,125.811,5.937,125.56,5.628,125.56z"/>
</g>
<g>
	<path class="st1" d="M11.441,173.866c-0.415,0-0.752,0.308-0.752,0.833v2.571c0,0.526,0.337,0.833,0.752,0.833
		c0.416,0,0.752-0.307,0.752-0.833v-2.571C12.193,174.174,11.857,173.866,11.441,173.866"/>
	<path class="st1" d="M5.581,173.866c-0.416,0-0.753,0.308-0.753,0.833v2.571c0,0.526,0.337,0.833,0.753,0.833
		c0.415,0,0.752-0.307,0.752-0.833v-2.571C6.333,174.174,5.996,173.866,5.581,173.866"/>
	<path class="st1" d="M8.511,169.209c-2.566,0-4.651,2.087-4.651,4.652c0,0.05,0.004,2.344,0.004,2.345
		c0,0.195,0.157,0.353,0.354,0.353c0.194,0,0.354-0.157,0.354-0.353c0-0.001-0.002-2.294-0.002-2.345
		c0-2.173,1.768-3.942,3.942-3.942c2.174,0,3.94,1.769,3.94,3.942c0,0.04,0,2.344,0,2.345c0,0.195,0.159,0.353,0.354,0.353
		c0.196,0,0.354-0.157,0.354-0.353c0-0.001,0.002-2.305,0.002-2.345C13.161,171.297,11.075,169.209,8.511,169.209"/>
</g>
<path class="st1" d="M11.705,160.846c0.122-0.115,0.242-0.235,0.355-0.365s0.218-0.267,0.314-0.404l-0.602-1.068
	c0.152-0.304,0.26-0.623,0.321-0.949l1.121-0.488c0.015-0.34-0.007-0.681-0.068-1.017l-1.178-0.331
	c-0.105-0.315-0.253-0.616-0.447-0.898l0.451-1.138c-0.114-0.124-0.234-0.245-0.364-0.357c-0.131-0.114-0.266-0.217-0.404-0.315
	l-1.066,0.602c-0.306-0.152-0.625-0.258-0.952-0.32L8.7,152.675c-0.342-0.016-0.681,0.01-1.017,0.069l-0.334,1.176
	c-0.313,0.104-0.612,0.257-0.895,0.447l-1.14-0.449c-0.123,0.115-0.243,0.235-0.357,0.364c-0.113,0.13-0.216,0.265-0.313,0.404
	l0.602,1.068c-0.153,0.302-0.26,0.622-0.321,0.949l-1.121,0.486c-0.015,0.341,0.01,0.683,0.067,1.019l1.18,0.331
	c0.104,0.315,0.253,0.617,0.444,0.896l-0.449,1.141c0.115,0.124,0.236,0.244,0.365,0.356c0.13,0.113,0.266,0.218,0.403,0.314
	l1.068-0.601c0.306,0.153,0.623,0.259,0.949,0.32l0.486,1.122c0.341,0.013,0.683-0.01,1.02-0.068l0.329-1.179
	c0.314-0.105,0.618-0.254,0.897-0.446L11.705,160.846z M6.829,159.309c-1.063-0.928-1.174-2.543-0.246-3.608
	c0.928-1.063,2.543-1.171,3.607-0.244c1.062,0.929,1.172,2.542,0.244,3.605C9.506,160.126,7.894,160.236,6.829,159.309"/>
<g>
	<g>
		<path class="st0" d="M22.069,25.774c1.344,2.743,2.977,3.595,3.73,3.262c0.214-0.095,0.654-0.448,0.77-0.613
			c0.119-0.168,0.103-0.387-0.021-0.549c-0.382-0.488-0.737-1-1.067-1.523c-0.108-0.172-0.305-0.234-0.495-0.164
			c-0.223,0.083-0.406,0.281-0.64,0.404c-0.187,0.098-0.712-0.067-1.323-1.283c-0.587-1.23-0.395-1.745-0.201-1.832
			c0.239-0.11,0.509-0.132,0.711-0.259c0.172-0.107,0.243-0.299,0.173-0.491c-0.21-0.581-0.396-1.176-0.55-1.776
			c-0.051-0.198-0.213-0.346-0.419-0.355c-0.201-0.008-0.749,0.123-0.955,0.233C21.055,21.22,20.728,23.033,22.069,25.774z"/>
		<g>
			<path class="st2" d="M25.054,21.333h3.556c0.215,0,0.387,0.172,0.387,0.386s-0.172,0.387-0.387,0.387h-3.556
				c-0.214,0-0.387-0.173-0.387-0.387S24.84,21.333,25.054,21.333z"/>
			<path class="st2" d="M25.054,24.422h3.556c0.215,0,0.387,0.173,0.387,0.387c0,0.213-0.172,0.386-0.387,0.386h-3.556
				c-0.214,0-0.387-0.173-0.387-0.386C24.667,24.595,24.84,24.422,25.054,24.422z"/>
			<path class="st2" d="M25.054,22.877h3.556c0.215,0,0.387,0.173,0.387,0.386c0,0.213-0.172,0.386-0.387,0.386h-3.556
				c-0.214,0-0.387-0.173-0.387-0.386C24.667,23.051,24.84,22.877,25.054,22.877z"/>
		</g>
	</g>
</g>
<g>
	<path class="st0" d="M26.602,106.88c-0.225,0.237-0.507,0.416-0.822,0.524c1.569,0.4,2.752,2.105,2.752,4.144v0.024
		c-0.014,0.003-0.037,0.006-0.07,0.006h-6.807c-0.018,0-0.032-0.002-0.041-0.003v-0.027c0-2.057,1.205-3.773,2.797-4.153
		c-0.313-0.113-0.59-0.299-0.812-0.539c-1.607,0.709-2.758,2.534-2.763,4.679c-0.005,0.094,0.001,0.355,0.194,0.57
		c0.104,0.114,0.297,0.252,0.625,0.252h6.807c0.354,0,0.556-0.145,0.663-0.266c0.187-0.212,0.192-0.462,0.186-0.56
		C29.305,109.413,28.18,107.605,26.602,106.88z"/>
	<path class="st0" d="M25.109,107.915c-1.352,0-2.452-1.102-2.452-2.454s1.101-2.453,2.452-2.453c1.354,0,2.454,1.101,2.454,2.453
		S26.463,107.915,25.109,107.915z M25.109,103.787c-0.923,0-1.675,0.75-1.675,1.674s0.752,1.675,1.675,1.675
		c0.924,0,1.676-0.751,1.676-1.675S26.033,103.787,25.109,103.787z"/>
</g>
<path class="st0" d="M27.629,62.693c-0.164,0-0.322-0.051-0.456-0.147l-2.1-1.525l-2.098,1.524
	c-0.272,0.195-0.646,0.193-0.914,0.001c-0.275-0.2-0.389-0.55-0.283-0.872l0.801-2.466l-2.098-1.523
	c-0.274-0.2-0.389-0.55-0.283-0.871c0.105-0.322,0.402-0.538,0.74-0.538h2.594l0.801-2.466c0.105-0.322,0.403-0.538,0.74-0.538
	c0.338,0,0.636,0.216,0.74,0.538l0.802,2.466h2.594c0.338,0,0.635,0.217,0.739,0.538c0.104,0.322-0.009,0.672-0.282,0.87
	l-2.098,1.524l0.801,2.467c0.104,0.323-0.01,0.673-0.283,0.871C27.951,62.643,27.793,62.693,27.629,62.693z M25.073,60.059
	l2.556,1.856l0,0c0,0,0,0,0.002-0.001l-0.979-3.003l2.557-1.856H26.05l-0.977-3.005l-0.976,3.005h-3.159l2.556,1.856l-0.976,3.004
	L25.073,60.059z"/>
<g>
	<g>
		<path class="st0" d="M25.073,3.922c-3.139,0-4.663,1.123-4.696,1.968c-0.01,0.241,0.118,0.807,0.218,0.988
			c0.102,0.186,0.311,0.27,0.514,0.227c0.625-0.13,1.259-0.229,1.891-0.296c0.207-0.021,0.354-0.175,0.375-0.383
			c0.026-0.243-0.075-0.502-0.084-0.772c-0.006-0.218,0.384-0.626,1.781-0.642c1.401,0.016,1.789,0.424,1.782,0.642
			c-0.006,0.27-0.107,0.529-0.083,0.773c0.021,0.208,0.166,0.359,0.375,0.382c0.632,0.069,1.266,0.166,1.891,0.296
			c0.205,0.043,0.412-0.041,0.516-0.227c0.098-0.182,0.226-0.747,0.218-0.987C29.734,5.043,28.21,3.922,25.073,3.922"/>
		<path class="st0" d="M23.784,8.109c0,0.365-0.297,0.661-0.662,0.661H22.68c-0.365,0-0.661-0.296-0.661-0.661
			s0.296-0.66,0.661-0.66h0.442C23.487,7.449,23.784,7.745,23.784,8.109"/>
		<path class="st0" d="M25.954,8.109c0,0.365-0.296,0.661-0.661,0.661h-0.441c-0.365,0-0.66-0.296-0.66-0.661s0.295-0.66,0.66-0.66
			h0.441C25.658,7.449,25.954,7.745,25.954,8.109"/>
		<path class="st0" d="M28.126,8.109c0,0.365-0.296,0.661-0.661,0.661h-0.442c-0.363,0-0.66-0.296-0.66-0.661s0.297-0.66,0.66-0.66
			h0.442C27.83,7.449,28.126,7.745,28.126,8.109"/>
		<path class="st0" d="M23.784,10.045c0,0.365-0.297,0.661-0.662,0.661H22.68c-0.365,0-0.661-0.295-0.661-0.661
			c0-0.365,0.296-0.661,0.661-0.661h0.442C23.487,9.385,23.784,9.681,23.784,10.045"/>
		<path class="st0" d="M25.954,10.045c0,0.365-0.296,0.661-0.661,0.661h-0.441c-0.365,0-0.66-0.295-0.66-0.661
			c0-0.365,0.295-0.661,0.66-0.661h0.441C25.658,9.385,25.954,9.681,25.954,10.045"/>
		<path class="st0" d="M28.126,10.045c0,0.365-0.296,0.661-0.661,0.661h-0.442c-0.363,0-0.66-0.295-0.66-0.661
			c0-0.365,0.297-0.661,0.66-0.661h0.442C27.83,9.385,28.126,9.681,28.126,10.045"/>
		<path class="st0" d="M23.784,11.983c0,0.365-0.297,0.661-0.662,0.661H22.68c-0.365,0-0.661-0.296-0.661-0.661
			c0-0.365,0.296-0.66,0.661-0.66h0.442C23.487,11.323,23.784,11.619,23.784,11.983"/>
		<path class="st0" d="M25.954,11.983c0,0.365-0.296,0.661-0.661,0.661h-0.441c-0.365,0-0.66-0.296-0.66-0.661
			c0-0.365,0.295-0.66,0.66-0.66h0.441C25.658,11.323,25.954,11.619,25.954,11.983"/>
		<path class="st0" d="M28.126,11.983c0,0.365-0.296,0.661-0.661,0.661h-0.442c-0.363,0-0.66-0.296-0.66-0.661
			c0-0.365,0.297-0.66,0.66-0.66h0.442C27.83,11.323,28.126,11.619,28.126,11.983"/>
	</g>
</g>
<g>
	<g>
		<path class="st0" d="M27.984,42.895c0-0.818-0.444-1.514-1.059-1.759c0.217-0.149,0.358-0.398,0.358-0.681
			c0-0.457-0.37-0.828-0.826-0.828c-0.457,0-0.829,0.372-0.829,0.828c0,0.277,0.138,0.522,0.349,0.673
			c-0.624,0.237-1.078,0.939-1.078,1.767c0,0-0.018,0.169,0.172,0.169h2.729C28.006,43.064,27.984,42.895,27.984,42.895"/>
		<rect x="22.957" y="37.638" class="st0" width="0.687" height="7.557"/>
		<path class="st0" d="M28.907,45.538h-6.854c-0.521,0-0.946-0.425-0.946-0.948v-6.348c0-0.522,0.425-0.948,0.946-0.948h6.854
			c0.522,0,0.947,0.425,0.947,0.948v6.348C29.854,45.112,29.43,45.538,28.907,45.538z M22.053,37.981
			c-0.145,0-0.262,0.117-0.262,0.261v6.348c0,0.144,0.117,0.261,0.262,0.261h6.854c0.146,0,0.262-0.117,0.262-0.261v-6.348
			c0-0.144-0.116-0.261-0.262-0.261H22.053z"/>
		<path class="st0" d="M20.29,39.167c0,0.167,0.134,0.303,0.301,0.303h1.562c0.168,0,0.303-0.135,0.303-0.303
			c0-0.167-0.135-0.302-0.303-0.302h-1.562C20.424,38.866,20.29,39.001,20.29,39.167"/>
		<path class="st0" d="M20.29,40.342c0,0.167,0.134,0.303,0.301,0.303h1.562c0.168,0,0.303-0.136,0.303-0.303
			s-0.135-0.302-0.303-0.302h-1.562C20.424,40.04,20.29,40.175,20.29,40.342"/>
		<path class="st0" d="M20.29,41.517c0,0.167,0.134,0.303,0.301,0.303h1.562c0.168,0,0.303-0.136,0.303-0.303
			c0-0.167-0.135-0.302-0.303-0.302h-1.562C20.424,41.215,20.29,41.35,20.29,41.517"/>
		<path class="st0" d="M20.29,42.691c0,0.167,0.134,0.303,0.301,0.303h1.562c0.168,0,0.303-0.136,0.303-0.303
			c0-0.167-0.135-0.302-0.303-0.302h-1.562C20.424,42.389,20.29,42.525,20.29,42.691"/>
		<path class="st0" d="M20.29,43.866c0,0.167,0.134,0.302,0.301,0.302h1.562c0.168,0,0.303-0.135,0.303-0.302
			s-0.135-0.302-0.303-0.302h-1.562C20.424,43.564,20.29,43.699,20.29,43.866"/>
		<path class="st0" d="M20.29,38.997c0,0.167,0.134,0.302,0.301,0.302h1.562c0.168,0,0.303-0.135,0.303-0.302
			c0-0.167-0.135-0.303-0.303-0.303h-1.562C20.424,38.694,20.29,38.829,20.29,38.997"/>
		<path class="st0" d="M20.29,40.171c0,0.167,0.134,0.302,0.301,0.302h1.562c0.168,0,0.303-0.135,0.303-0.302
			s-0.135-0.303-0.303-0.303h-1.562C20.424,39.868,20.29,40.004,20.29,40.171"/>
		<path class="st0" d="M20.29,41.345c0,0.167,0.134,0.302,0.301,0.302h1.562c0.168,0,0.303-0.135,0.303-0.302
			c0-0.167-0.135-0.302-0.303-0.302h-1.562C20.424,41.043,20.29,41.178,20.29,41.345"/>
		<path class="st0" d="M20.29,42.52c0,0.167,0.134,0.303,0.301,0.303h1.562c0.168,0,0.303-0.136,0.303-0.303
			s-0.135-0.302-0.303-0.302h-1.562C20.424,42.218,20.29,42.353,20.29,42.52"/>
		<path class="st0" d="M20.29,43.694c0,0.167,0.134,0.302,0.301,0.302h1.562c0.168,0,0.303-0.135,0.303-0.302
			s-0.135-0.302-0.303-0.302h-1.562C20.424,43.392,20.29,43.527,20.29,43.694"/>
	</g>
</g>
<g>
	<g>
		<path class="st0" d="M28.408,71.177h-6.67c-0.646,0-1.172,0.525-1.172,1.171v4.402c0,0.646,0.525,1.171,1.172,1.171h6.67
			c0.646,0,1.172-0.525,1.172-1.171v-4.402C29.58,71.702,29.055,71.177,28.408,71.177 M28.408,71.846
			c0.022,0,0.04,0.003,0.061,0.005l-0.601,0.559c0,0-2.629,2.209-2.669,2.243c-0.03,0.027-0.094,0.064-0.171,0.075
			c-0.078-0.01-0.14-0.047-0.172-0.075c-0.04-0.034-2.669-2.243-2.669-2.243l-0.585-0.543c0.043-0.012,0.089-0.021,0.136-0.021
			H28.408z M28.408,77.251h-6.67c-0.279,0-0.502-0.225-0.502-0.501v-4.298l2.106,1.997l-1.114,1.527
			c-0.012,0.011-0.021,0.025-0.027,0.04c-0.033,0.042-0.054,0.095-0.054,0.153c0,0.136,0.109,0.246,0.245,0.246
			c0.069,0,0.131-0.029,0.177-0.074c0.003-0.004,0.008-0.005,0.013-0.01l1.34-1.335l0.834,0.791
			c0.007,0.006,0.016,0.011,0.022,0.017c0.008,0.006,0.015,0.013,0.023,0.018c0.012,0.007,0.021,0.014,0.033,0.019
			c0.008,0.004,0.017,0.008,0.025,0.012c0.014,0.006,0.026,0.009,0.042,0.013c0.007,0.001,0.013,0.004,0.02,0.006
			c0.021,0.004,0.042,0.006,0.064,0.006l0,0c0.013,0,0.028-0.002,0.042-0.004c0.015,0.002,0.028,0.004,0.042,0.004l0,0
			c0.021,0,0.043-0.002,0.065-0.006c0.006-0.001,0.012-0.004,0.02-0.006c0.014-0.004,0.027-0.007,0.042-0.013
			c0.009-0.004,0.016-0.008,0.023-0.012c0.012-0.005,0.023-0.012,0.034-0.019c0.008-0.005,0.017-0.012,0.024-0.018
			c0.007-0.006,0.014-0.011,0.021-0.017l0.836-0.791l1.34,1.335c0.003,0.004,0.008,0.005,0.013,0.01
			c0.044,0.045,0.107,0.074,0.177,0.074c0.136,0,0.245-0.11,0.245-0.246c0-0.058-0.022-0.111-0.056-0.153
			c-0.007-0.015-0.014-0.028-0.025-0.04l-1.116-1.527l2.197-2.082v4.383C28.91,77.027,28.686,77.251,28.408,77.251"/>
	</g>
</g>
<g>
	<g>
		<path class="st0" d="M26.114,87.807c-0.001,0.576-0.47,1.041-1.046,1.04s-1.041-0.471-1.04-1.045
			c0.002-0.576,0.47-1.042,1.047-1.041C25.65,86.763,26.116,87.23,26.114,87.807"/>
		<path class="st0" d="M26.688,90.082c-0.429-0.431-1-0.669-1.614-0.672c-1.253,0-2.275,1.019-2.279,2.272
			c-0.004,1.256,1.016,2.281,2.272,2.285h0.007c1.252,0,2.273-1.02,2.277-2.271C27.352,91.086,27.117,90.514,26.688,90.082
			 M25.069,92.901c-0.671-0.001-1.212-0.546-1.21-1.216c0.002-0.67,0.547-1.211,1.217-1.21c0.671,0.002,1.212,0.547,1.209,1.217
			C26.284,92.361,25.739,92.903,25.069,92.901"/>
		<path class="st0" d="M29.039,92.773c-0.501-0.287-1.139-0.114-1.425,0.386c-0.286,0.499-0.113,1.136,0.386,1.423
			c0.5,0.287,1.138,0.114,1.424-0.386C29.711,93.697,29.537,93.06,29.039,92.773"/>
		<path class="st0" d="M21.106,92.773c0.5-0.287,1.139-0.114,1.425,0.386c0.286,0.499,0.113,1.136-0.386,1.423
			c-0.5,0.287-1.138,0.114-1.425-0.386C20.435,93.697,20.607,93.06,21.106,92.773"/>
	</g>
</g>
<g>
	<path class="st0" d="M23.509,140.282h2.623c0.14,0,0.254-0.107,0.254-0.24c0-0.131-0.114-0.239-0.254-0.239h-2.623
		c-0.14,0-0.255,0.108-0.255,0.239C23.254,140.175,23.369,140.282,23.509,140.282"/>
	<path class="st0" d="M23.509,139.079h2.623c0.14,0,0.254-0.107,0.254-0.241c0-0.131-0.114-0.238-0.254-0.238h-2.623
		c-0.14,0-0.255,0.107-0.255,0.238C23.254,138.972,23.369,139.079,23.509,139.079"/>
	<path class="st0" d="M24.702,143.693l0.013-0.011H23.02c-0.247,0-0.449-0.202-0.449-0.449v-6.015h4.566v3.716
		c0.122,0.033,0.185,0.048,0.356,0.077l0.47-0.416v-3.377h0.466c0.237,0,0.432-0.183,0.432-0.409c0-0.225-0.194-0.408-0.432-0.408
		h-7.154c-0.239,0-0.436,0.184-0.436,0.408c0,0.227,0.196,0.409,0.436,0.409h0.463v5.984c0,0.704,0.576,1.281,1.281,1.281h1.896
		C24.835,144.255,24.744,143.852,24.702,143.693z"/>
	<path class="st0" d="M29.094,144.28c0.036-0.063,0.071-0.129,0.102-0.198c0.03-0.068,0.057-0.138,0.079-0.208l-0.386-0.368
		c0.024-0.146,0.028-0.292,0.012-0.436l0.406-0.347c-0.039-0.143-0.091-0.283-0.159-0.414l-0.533,0.013
		c-0.083-0.118-0.184-0.226-0.3-0.317l0.042-0.532c-0.063-0.036-0.129-0.071-0.197-0.101c-0.068-0.031-0.138-0.058-0.207-0.081
		l-0.369,0.387c-0.146-0.023-0.292-0.028-0.436-0.012l-0.348-0.405c-0.143,0.038-0.282,0.091-0.414,0.158l0.013,0.533
		c-0.118,0.084-0.225,0.184-0.317,0.3l-0.531-0.042c-0.036,0.063-0.072,0.129-0.103,0.197s-0.057,0.139-0.079,0.208l0.386,0.369
		c-0.023,0.146-0.027,0.292-0.012,0.436l-0.405,0.346c0.038,0.144,0.091,0.282,0.159,0.414l0.533-0.012
		c0.084,0.118,0.184,0.225,0.299,0.316l-0.042,0.532c0.064,0.037,0.13,0.071,0.198,0.102c0.068,0.031,0.138,0.058,0.207,0.08
		l0.369-0.386c0.146,0.023,0.292,0.027,0.436,0.012l0.347,0.404c0.144-0.037,0.282-0.09,0.414-0.157l-0.013-0.534
		c0.118-0.082,0.225-0.184,0.317-0.299L29.094,144.28z M26.867,144.261c-0.561-0.25-0.813-0.908-0.562-1.471
		c0.251-0.561,0.909-0.812,1.47-0.562c0.562,0.251,0.813,0.909,0.562,1.47C28.087,144.261,27.429,144.513,26.867,144.261"/>
</g>
<g>
	<path class="st0" d="M22.19,121.494c-0.191,0-0.348-0.155-0.348-0.346v-1.289c0-0.191,0.156-0.345,0.348-0.345
		c0.189,0,0.344,0.154,0.344,0.345v1.289C22.534,121.339,22.38,121.494,22.19,121.494z"/>
	<path class="st0" d="M28.267,122.894h-3.859c-0.287,0-0.518-0.231-0.518-0.518c0-0.287,0.23-0.519,0.518-0.519h3.859
		c0.287,0,0.52,0.232,0.52,0.519C28.786,122.663,28.554,122.894,28.267,122.894z"/>
	<path class="st0" d="M29.036,123.777h-4.902c-0.096,0-0.174-0.077-0.174-0.173c0-0.095,0.078-0.172,0.174-0.172h4.902
		c0.096,0,0.174,0.078,0.174,0.172C29.21,123.7,29.132,123.777,29.036,123.777z"/>
	<path class="st0" d="M27.353,124.674h-3.219c-0.096,0-0.174-0.078-0.174-0.173c0-0.096,0.078-0.173,0.174-0.173h3.219
		c0.096,0,0.172,0.077,0.172,0.173C27.524,124.596,27.448,124.674,27.353,124.674z"/>
	<path class="st0" d="M27.72,126.639h-3.312c-0.287,0-0.518-0.231-0.518-0.518c0-0.287,0.23-0.519,0.518-0.519h3.312
		c0.287,0,0.518,0.231,0.518,0.519C28.237,126.408,28.007,126.639,27.72,126.639z"/>
	<path class="st0" d="M29.036,127.521h-4.902c-0.096,0-0.174-0.078-0.174-0.173c0-0.096,0.078-0.172,0.174-0.172h4.902
		c0.096,0,0.174,0.077,0.174,0.172C29.21,127.444,29.132,127.521,29.036,127.521z"/>
	<path class="st0" d="M22.19,128.983c-0.191,0-0.348-0.154-0.348-0.346v-1.289c0-0.191,0.156-0.345,0.348-0.345
		c0.189,0,0.344,0.154,0.344,0.345v1.289C22.534,128.829,22.38,128.983,22.19,128.983z"/>
	<path class="st0" d="M22.19,123.629c-0.693,0-1.254-0.562-1.254-1.252s0.561-1.253,1.254-1.253c0.689,0,1.252,0.562,1.252,1.253
		S22.88,123.629,22.19,123.629z M22.19,121.814c-0.311,0-0.562,0.251-0.562,0.562c0,0.309,0.252,0.562,0.562,0.562
		c0.309,0,0.561-0.252,0.561-0.562C22.751,122.066,22.499,121.814,22.19,121.814z"/>
	<path class="st0" d="M22.19,125.239c-0.191,0-0.348-0.154-0.348-0.346v-1.29c0-0.191,0.156-0.345,0.348-0.345
		c0.189,0,0.344,0.154,0.344,0.345v1.29C22.534,125.084,22.38,125.239,22.19,125.239z"/>
	<path class="st0" d="M22.19,127.374c-0.693,0-1.254-0.562-1.254-1.252c0-0.692,0.561-1.253,1.254-1.253
		c0.689,0,1.252,0.562,1.252,1.253C23.442,126.812,22.88,127.374,22.19,127.374z M22.19,125.56c-0.311,0-0.562,0.251-0.562,0.562
		c0,0.309,0.252,0.562,0.562,0.562c0.309,0,0.561-0.252,0.561-0.562C22.751,125.811,22.499,125.56,22.19,125.56z"/>
</g>
<g>
	<path class="st0" d="M28.004,173.866c-0.415,0-0.752,0.308-0.752,0.833v2.571c0,0.526,0.337,0.833,0.752,0.833
		c0.416,0,0.752-0.307,0.752-0.833v-2.571C28.756,174.174,28.42,173.866,28.004,173.866"/>
	<path class="st0" d="M22.144,173.866c-0.416,0-0.753,0.308-0.753,0.833v2.571c0,0.526,0.337,0.833,0.753,0.833
		c0.415,0,0.752-0.307,0.752-0.833v-2.571C22.896,174.174,22.559,173.866,22.144,173.866"/>
	<path class="st0" d="M25.073,169.209c-2.566,0-4.651,2.087-4.651,4.652c0,0.05,0.004,2.344,0.004,2.345
		c0,0.195,0.157,0.353,0.354,0.353c0.194,0,0.354-0.157,0.354-0.353c0-0.001-0.002-2.294-0.002-2.345
		c0-2.173,1.768-3.942,3.942-3.942c2.174,0,3.94,1.769,3.94,3.942c0,0.04,0,2.344,0,2.345c0,0.195,0.159,0.353,0.354,0.353
		c0.196,0,0.354-0.157,0.354-0.353c0-0.001,0.002-2.305,0.002-2.345C29.724,171.297,27.638,169.209,25.073,169.209"/>
</g>
<path class="st0" d="M28.268,160.846c0.122-0.115,0.242-0.235,0.355-0.365s0.218-0.267,0.314-0.404l-0.602-1.068
	c0.152-0.304,0.26-0.623,0.321-0.949l1.121-0.488c0.015-0.34-0.007-0.681-0.068-1.017l-1.178-0.331
	c-0.105-0.315-0.253-0.616-0.447-0.898l0.451-1.138c-0.114-0.124-0.234-0.245-0.364-0.357c-0.131-0.114-0.266-0.217-0.404-0.315
	l-1.066,0.602c-0.306-0.152-0.625-0.258-0.952-0.32l-0.486-1.122c-0.342-0.016-0.681,0.01-1.017,0.069l-0.334,1.176
	c-0.313,0.104-0.612,0.257-0.895,0.447l-1.14-0.449c-0.123,0.115-0.243,0.235-0.357,0.364c-0.113,0.13-0.216,0.265-0.313,0.404
	l0.602,1.068c-0.153,0.302-0.26,0.622-0.321,0.949l-1.121,0.486c-0.015,0.341,0.01,0.683,0.067,1.019l1.18,0.331
	c0.104,0.315,0.253,0.617,0.444,0.896l-0.449,1.141c0.115,0.124,0.236,0.244,0.365,0.356c0.13,0.113,0.266,0.218,0.403,0.314
	l1.068-0.601c0.306,0.153,0.623,0.259,0.949,0.32l0.486,1.122c0.341,0.013,0.683-0.01,1.02-0.068l0.329-1.179
	c0.314-0.105,0.618-0.254,0.897-0.446L28.268,160.846z M23.392,159.309c-1.063-0.928-1.174-2.543-0.246-3.608
	c0.928-1.063,2.543-1.171,3.607-0.244c1.062,0.929,1.172,2.542,0.244,3.605C26.068,160.126,24.456,160.236,23.392,159.309"/>
</svg>
