<?xml version="1.0" encoding="utf-8"?>
<!-- Generator: Adobe Illustrator 15.0.2, SVG Export Plug-In . SVG Version: 6.00 Build 0)  -->
<!DOCTYPE svg PUBLIC "-//W3C//DTD SVG 1.1//EN" "http://www.w3.org/Graphics/SVG/1.1/DTD/svg11.dtd">
<svg version="1.1" id="Layer_1" xmlns="http://www.w3.org/2000/svg" xmlns:xlink="http://www.w3.org/1999/xlink" x="0px" y="0px"
	 width="91.022px" height="18.557px" viewBox="-2.207 16.776 91.022 18.557" enable-background="new -2.207 16.776 91.022 18.557"
	 xml:space="preserve">
<g>
	<g>
		
			<radialGradient id="SVGID_1_" cx="2366.1982" cy="-975.6438" r="26.6835" gradientTransform="matrix(0.2319 0 0 0.0841 -466.254 114.8564)" gradientUnits="userSpaceOnUse">
			<stop  offset="0" style="stop-color:#A9A9AA"/>
			<stop  offset="0.0541" style="stop-color:#B6BAB4"/>
			<stop  offset="0.2086" style="stop-color:#D9E9CF"/>
			<stop  offset="0.3252" style="stop-color:#E4EFDD"/>
			<stop  offset="0.5432" style="stop-color:#F3F8F0"/>
			<stop  offset="0.7662" style="stop-color:#FCFDFB"/>
			<stop  offset="1" style="stop-color:#FFFFFF"/>
		</radialGradient>
		<path fill="url(#SVGID_1_)" d="M88.815,32.854c0,1.367-2.816,2.479-6.289,2.479s-6.289-1.111-6.289-2.479
			c0-1.373,2.816-2.48,6.289-2.48S88.815,31.481,88.815,32.854z"/>
		<g>
			<g>
				
					<ellipse transform="matrix(0.8003 -0.5996 0.5996 0.8003 1.3231 50.3889)" fill="#1D1E1C" cx="76.307" cy="23.208" rx="0.399" ry="0.244"/>
				<path fill="#1D1E1C" d="M76.009,21.031c0.162,0.59,0.541,1.965,0.541,1.965l0.102,0.027c0,0-0.125-0.459-0.254-0.93
					c-0.111-0.4-0.223-0.807-0.258-0.934l-0.041-0.152L76.009,21.031z"/>
				
					<ellipse transform="matrix(0.7979 -0.6027 0.6027 0.7979 1.9769 51.4973)" fill="#1D1E1C" cx="77.797" cy="22.8" rx="0.4" ry="0.246"/>
				<path fill="#1D1E1C" d="M77.499,20.623c0.162,0.592,0.541,1.963,0.541,1.963l0.102,0.029c0,0-0.123-0.461-0.254-0.928
					c-0.109-0.402-0.223-0.809-0.258-0.934L77.589,20.6L77.499,20.623z"/>
				
					<rect x="76.119" y="20.81" transform="matrix(-0.9643 0.2649 -0.2649 -0.9643 156.5028 20.8584)" fill="#1D1E1C" width="1.452" height="0.348"/>
				
					<rect x="76.241" y="21.318" transform="matrix(-0.9646 0.2637 -0.2637 -0.9646 156.8596 21.8006)" fill="#1D1E1C" width="1.452" height="0.217"/>
			</g>
			<g>
				<g>
					<path fill="#1D1E1C" d="M74.458,21.1c0.031,0.074-0.039,0.174-0.158,0.227c-0.123,0.055-0.244,0.037-0.277-0.037
						s0.041-0.176,0.16-0.229C74.304,21.008,74.427,21.026,74.458,21.1z"/>
					<path fill="#1D1E1C" d="M74.466,21.135c0,0-0.029-0.982-0.035-1.148c0.078,0.074,0.293,0.248,0.191,0.539
						c0.225-0.428-0.213-0.547-0.252-0.775c0.004,0.166,0.041,1.355,0.041,1.355L74.466,21.135z"/>
				</g>
			</g>
			<g>
				<polygon fill="#FFFFFF" points="82.448,25.569 79.481,24.002 79.638,19.801 83.022,20.948 				"/>
				<path fill="#1D1E1C" d="M82.448,25.726c-0.025,0-0.051-0.006-0.073-0.018l-2.967-1.566c-0.054-0.028-0.087-0.085-0.084-0.146
					l0.156-4.201c0.002-0.05,0.026-0.096,0.067-0.124c0.042-0.028,0.093-0.035,0.141-0.02l3.385,1.146
					c0.07,0.024,0.115,0.095,0.105,0.169l-0.574,4.621c-0.006,0.051-0.037,0.096-0.083,0.12
					C82.498,25.72,82.474,25.726,82.448,25.726z M79.643,23.909l2.678,1.414l0.53-4.267l-3.063-1.037L79.643,23.909z"/>
			</g>
			<polygon fill="#1D1E1C" points="80.741,21.951 80.017,21.688 80.208,21.473 80.659,21.703 			"/>
			<polygon fill="#1D1E1C" points="82.091,22.551 81.312,22.217 81.464,22.012 81.999,22.24 			"/>
			<polygon fill="#1D1E1C" points="81.116,23.733 80.546,23.424 80.56,22.858 81.157,23.149 			"/>
			<g>
				<polygon fill="#FFFFFF" points="83.022,20.948 79.638,19.801 82.735,19.938 85.427,20.948 				"/>
				<path fill="#1D1E1C" d="M85.435,21.105c-0.002,0-0.006,0-0.008,0h-2.404c-0.018,0-0.034-0.003-0.051-0.008l-3.385-1.146
					c-0.074-0.025-0.119-0.101-0.104-0.179c0.015-0.077,0.09-0.128,0.162-0.128l3.098,0.137c0.017,0.001,0.033,0.004,0.049,0.01
					l2.67,1.002c0.075,0.013,0.132,0.077,0.132,0.155C85.593,21.034,85.521,21.105,85.435,21.105z M83.049,20.79h1.509l-1.854-0.696
					l-1.964-0.086L83.049,20.79z"/>
			</g>
			<g>
				<polygon fill="#FFFFFF" points="84.823,24.973 82.448,25.569 82.999,20.948 85.427,20.948 				"/>
				<path fill="#1D1E1C" d="M82.448,25.726c-0.038,0-0.075-0.014-0.104-0.04c-0.039-0.034-0.059-0.085-0.052-0.137l0.551-4.621
					c0.009-0.08,0.076-0.139,0.156-0.139h2.428c0.046,0,0.09,0.02,0.119,0.055c0.03,0.035,0.044,0.081,0.037,0.126l-0.604,4.025
					c-0.01,0.063-0.056,0.114-0.118,0.129l-2.375,0.596C82.474,25.725,82.461,25.726,82.448,25.726z M83.139,21.105l-0.507,4.255
					l2.051-0.515l0.561-3.74H83.139z"/>
			</g>
			<path fill="#1D1E1C" d="M77.057,27.83c-0.446,0-0.857-0.051-1.206-0.141c-0.391-0.1-0.683-0.891-0.737-1.048
				c-0.028-0.083,0.016-0.172,0.098-0.201c0.083-0.028,0.172,0.015,0.201,0.097c0.131,0.378,0.37,0.809,0.517,0.847
				c1.075,0.277,2.79,0.156,4.196-0.739c0.073-0.045,0.172-0.025,0.218,0.049c0.047,0.073,0.025,0.17-0.048,0.217
				C79.263,27.569,78.07,27.83,77.057,27.83z"/>
			<path fill="#1D1E1C" d="M84.663,23.842c-0.229,0.551-0.736,0.861-1.139,0.695c-0.4-0.164-0.543-0.744-0.314-1.295
				c0.227-0.549,0.734-0.861,1.135-0.693C84.749,22.713,84.89,23.293,84.663,23.842z"/>
			<path fill="#1D1E1C" d="M84.116,23.839c-0.014,0-0.027-0.004-0.04-0.011c-0.037-0.022-0.05-0.07-0.028-0.108
				c0.335-0.572,0.519-1.318,0.519-2.101c0-1.707-0.873-3.095-1.946-3.095c-0.626,0-1.218,0.484-1.582,1.295
				c-0.019,0.04-0.063,0.057-0.104,0.04c-0.04-0.018-0.058-0.064-0.04-0.104c0.392-0.87,1.036-1.388,1.727-1.388
				c1.16,0,2.104,1.459,2.104,3.252c0,0.811-0.192,1.585-0.54,2.181C84.17,23.825,84.144,23.839,84.116,23.839z"/>
			
				<path fill="none" stroke="#1D1E1C" stroke-width="0.3154" stroke-linecap="round" stroke-linejoin="round" stroke-miterlimit="10" d="
				M84.116,23.76"/>
			<path fill="#1D1E1C" d="M83.937,19.521c-0.093,0-0.186-0.042-0.248-0.121c-0.47-0.596-1.147-0.743-1.772-0.382
				c-0.151,0.086-0.343,0.036-0.431-0.116c-0.087-0.151-0.035-0.344,0.116-0.431c0.901-0.519,1.917-0.308,2.583,0.54
				c0.107,0.137,0.084,0.335-0.053,0.443C84.074,19.499,84.005,19.521,83.937,19.521z"/>
			
				<ellipse transform="matrix(0.7677 0.6408 -0.6408 0.7677 34.4676 -45.1314)" fill="#1D1E1C" cx="79.481" cy="24.974" rx="0.608" ry="0.454"/>
			
				<ellipse transform="matrix(0.9237 0.383 -0.383 0.9237 15.4725 -30.4112)" fill="#FFFFFF" cx="84.108" cy="23.651" rx="0.347" ry="0.532"/>
			<path fill="#1D1E1C" d="M81.192,25.649c-0.592,0-1.182-0.205-1.757-0.611c-0.035-0.025-0.044-0.074-0.019-0.11
				c0.025-0.037,0.073-0.044,0.11-0.019c0.686,0.484,1.388,0.668,2.089,0.545c1.259-0.221,2.163-1.347,2.494-1.821
				c0.023-0.036,0.074-0.045,0.109-0.02c0.036,0.025,0.045,0.074,0.02,0.109c-0.342,0.49-1.279,1.656-2.596,1.886
				C81.493,25.635,81.343,25.649,81.192,25.649z"/>
			<g>
				<path fill="#1E1E1C" d="M82.058,28.084l-0.04-0.106h-0.344l-0.04,0.108c-0.016,0.043-0.029,0.071-0.041,0.086
					c-0.011,0.015-0.029,0.022-0.055,0.022c-0.021,0-0.04-0.008-0.057-0.023c-0.017-0.017-0.025-0.034-0.025-0.054
					c0-0.012,0.002-0.023,0.006-0.036s0.011-0.029,0.02-0.052l0.217-0.549c0.006-0.016,0.013-0.034,0.021-0.057
					c0.009-0.021,0.018-0.04,0.027-0.055s0.023-0.026,0.039-0.035c0.016-0.01,0.035-0.014,0.059-0.014
					c0.024,0,0.044,0.004,0.061,0.014c0.016,0.009,0.028,0.021,0.038,0.034c0.01,0.015,0.019,0.03,0.024,0.046
					c0.008,0.017,0.016,0.038,0.025,0.065l0.222,0.546c0.017,0.041,0.026,0.071,0.026,0.09c0,0.021-0.009,0.038-0.025,0.055
					c-0.016,0.016-0.035,0.024-0.059,0.024c-0.014,0-0.025-0.003-0.035-0.008s-0.018-0.011-0.023-0.02
					c-0.007-0.008-0.014-0.021-0.021-0.038C82.069,28.113,82.063,28.097,82.058,28.084z M81.719,27.85h0.253l-0.128-0.349
					L81.719,27.85z"/>
				<path fill="#1E1E1C" d="M82.597,27.819h-0.061v0.271c0,0.036-0.008,0.062-0.023,0.079c-0.016,0.017-0.037,0.025-0.062,0.025
					c-0.027,0-0.049-0.009-0.063-0.026c-0.016-0.018-0.022-0.044-0.022-0.078v-0.65c0-0.037,0.008-0.063,0.024-0.08
					s0.043-0.025,0.08-0.025h0.279c0.038,0,0.07,0.002,0.098,0.005c0.027,0.004,0.053,0.011,0.074,0.021
					c0.026,0.011,0.05,0.027,0.07,0.048s0.035,0.045,0.047,0.072c0.01,0.027,0.016,0.057,0.016,0.087
					c0,0.063-0.018,0.114-0.054,0.151c-0.036,0.038-0.089,0.064-0.161,0.08c0.029,0.017,0.059,0.04,0.086,0.071
					c0.028,0.032,0.053,0.065,0.074,0.101c0.022,0.036,0.039,0.068,0.051,0.097c0.013,0.028,0.019,0.048,0.019,0.06
					c0,0.011-0.003,0.021-0.011,0.032c-0.007,0.012-0.017,0.021-0.029,0.026c-0.012,0.007-0.026,0.01-0.043,0.01
					c-0.019,0-0.035-0.005-0.048-0.014s-0.024-0.021-0.034-0.034c-0.009-0.014-0.021-0.034-0.037-0.062l-0.069-0.114
					c-0.024-0.042-0.046-0.073-0.065-0.096c-0.02-0.021-0.039-0.037-0.06-0.045S82.626,27.819,82.597,27.819z M82.694,27.463h-0.158
					v0.232h0.153c0.042,0,0.075-0.004,0.104-0.011c0.027-0.007,0.049-0.02,0.064-0.036c0.014-0.018,0.021-0.041,0.021-0.07
					c0-0.023-0.006-0.045-0.018-0.062s-0.029-0.031-0.05-0.04S82.753,27.463,82.694,27.463z"/>
				<path fill="#1E1E1C" d="M83.411,27.943h-0.182c-0.027,0-0.049-0.007-0.062-0.02c-0.016-0.013-0.021-0.029-0.021-0.05
					s0.006-0.038,0.021-0.051s0.035-0.02,0.063-0.02h0.182c0.029,0,0.051,0.007,0.064,0.02s0.021,0.03,0.021,0.051
					s-0.008,0.037-0.021,0.05S83.44,27.943,83.411,27.943z"/>
				<path fill="#1E1E1C" d="M83.851,28.101v-0.524c-0.098,0.075-0.164,0.112-0.197,0.112c-0.017,0-0.031-0.007-0.043-0.02
					c-0.014-0.013-0.02-0.027-0.02-0.045c0-0.02,0.006-0.033,0.019-0.043c0.013-0.009,0.034-0.021,0.065-0.035
					c0.047-0.022,0.084-0.045,0.111-0.069s0.053-0.052,0.074-0.082c0.021-0.029,0.035-0.048,0.042-0.055s0.019-0.011,0.037-0.011
					c0.021,0,0.036,0.008,0.049,0.023c0.013,0.017,0.019,0.038,0.019,0.065v0.66c0,0.077-0.026,0.116-0.079,0.116
					c-0.023,0-0.042-0.008-0.057-0.023C83.856,28.155,83.851,28.132,83.851,28.101z"/>
			</g>
			<path fill="#1D1E1C" d="M83.651,30.547h-1.668c-0.462,0-0.899-0.37-0.978-0.824l-0.485-2.842
				c-0.04-0.232,0.017-0.453,0.159-0.622s0.35-0.261,0.585-0.261h2.941c0.233,0,0.443,0.092,0.59,0.259
				c0.147,0.168,0.212,0.388,0.183,0.622l-0.376,2.833C84.543,30.172,84.116,30.547,83.651,30.547z M81.265,26.346
				c-0.131,0-0.244,0.049-0.319,0.138c-0.075,0.089-0.104,0.209-0.082,0.339l0.485,2.842c0.05,0.29,0.34,0.535,0.635,0.535h1.668
				c0.292,0,0.569-0.244,0.606-0.533l0.376-2.833c0.017-0.131-0.019-0.254-0.099-0.346c-0.08-0.091-0.197-0.141-0.329-0.141H81.265z
				"/>
			<g>
				<g>
					<path fill="#FFFFFF" d="M84.192,32.346c-0.118-0.305-0.525-0.553-0.904-0.553h-0.98c-0.379,0-0.814,0.248-0.967,0.553
						s0.033,0.553,0.412,0.553h1.965C84.097,32.899,84.311,32.651,84.192,32.346z"/>
				</g>
				<path fill="#1D1E1C" d="M83.718,33.073h-1.965c-0.257,0-0.464-0.098-0.568-0.267c-0.096-0.155-0.096-0.347,0.001-0.538
					c0.182-0.363,0.675-0.648,1.122-0.648h0.98c0.453,0,0.922,0.291,1.066,0.664c0.072,0.186,0.057,0.371-0.046,0.52
					C84.191,32.975,83.977,33.073,83.718,33.073z M82.308,31.967c-0.311,0-0.689,0.213-0.812,0.457
					c-0.023,0.046-0.056,0.133-0.016,0.199c0.039,0.063,0.142,0.102,0.272,0.102h1.965c0.14,0,0.254-0.044,0.304-0.117
					c0.046-0.066,0.03-0.145,0.009-0.199c-0.092-0.234-0.438-0.441-0.742-0.441H82.308z"/>
			</g>
			<g>
				<rect x="82.448" y="30.373" fill="#FFFFFF" width="0.574" height="1.42"/>
				<path fill="#1D1E1C" d="M83.196,31.967h-0.922v-1.768h0.922V31.967z M82.622,31.619h0.227v-1.072h-0.227V31.619z"/>
			</g>
			<g>
				<g>
					<path fill="#39A935" d="M82.614,27.328c-0.482,0-0.924,0.176-1.281,0.465c-0.24-0.842-1.123-1.467-2.184-1.467
						c-1.246,0-2.254,0.859-2.254,1.918c0,1.064,1.008,1.924,2.254,1.924c0.51,0,0.977-0.152,1.355-0.395
						c0.092,1.156,0.996,2.064,2.109,2.064c1.178,0,2.131-1.01,2.131-2.254C84.745,28.336,83.792,27.328,82.614,27.328z"/>
					<path fill="#1D1E1C" d="M82.614,31.996c-1.114,0-2.038-0.83-2.236-1.968c-0.378,0.195-0.798,0.298-1.229,0.298
						c-1.33,0-2.411-0.934-2.411-2.082c0-1.145,1.081-2.076,2.411-2.076c1.023,0,1.921,0.554,2.262,1.372
						c0.363-0.243,0.775-0.37,1.203-0.37c1.262,0,2.288,1.083,2.288,2.414C84.902,30.914,83.876,31.996,82.614,31.996z
						 M80.505,29.615c0.024,0,0.048,0.006,0.07,0.018c0.05,0.023,0.082,0.072,0.087,0.128c0.087,1.095,0.926,1.919,1.952,1.919
						c1.088,0,1.974-0.939,1.974-2.096s-0.886-2.098-1.974-2.098c-0.426,0-0.834,0.148-1.182,0.43
						c-0.042,0.033-0.096,0.044-0.147,0.027c-0.05-0.016-0.089-0.057-0.104-0.107c-0.228-0.796-1.063-1.352-2.032-1.352
						c-1.156,0-2.097,0.79-2.097,1.76c0,0.974,0.94,1.766,2.097,1.766c0.453,0,0.893-0.127,1.271-0.369
						C80.445,29.624,80.476,29.615,80.505,29.615z"/>
				</g>
				<path fill="#1D1E1C" d="M83.083,29.395c-0.023,0-0.047-0.006-0.069-0.017l-10.438-5.08c-0.078-0.038-0.11-0.132-0.072-0.21
					c0.038-0.079,0.131-0.114,0.211-0.073l10.438,5.08c0.078,0.038,0.11,0.132,0.072,0.21
					C83.197,29.362,83.142,29.395,83.083,29.395z"/>
				<path fill="#1D1E1C" d="M82.903,29.77c-0.021,0-0.043-0.005-0.063-0.014l-10.752-4.76c-0.08-0.035-0.116-0.128-0.081-0.208
					s0.129-0.116,0.208-0.08l10.752,4.759c0.08,0.035,0.116,0.129,0.081,0.209C83.021,29.735,82.964,29.77,82.903,29.77z"/>
				<path fill="#1D1E1C" d="M82.722,30.131c-0.021,0-0.042-0.004-0.062-0.014l-10.674-4.55c-0.08-0.034-0.118-0.127-0.084-0.207
					c0.035-0.079,0.128-0.118,0.207-0.083l10.674,4.551c0.08,0.033,0.118,0.127,0.084,0.207
					C82.841,30.094,82.783,30.131,82.722,30.131z"/>
				<path fill="#1D1E1C" d="M73.663,27.088c-0.021,0-0.041-0.004-0.061-0.013l-2.467-1.023c-0.038-0.016-0.069-0.046-0.085-0.085
					c-0.017-0.039-0.017-0.082,0-0.121l1.025-2.467c0.033-0.081,0.128-0.117,0.206-0.085l2.467,1.023
					c0.038,0.016,0.069,0.046,0.085,0.085c0.017,0.039,0.017,0.082,0,0.121l-1.025,2.467C73.783,27.051,73.725,27.088,73.663,27.088
					z M71.402,25.822l2.176,0.902l0.904-2.176l-2.176-0.902L71.402,25.822z"/>
				<path fill="#1D1E1C" d="M82.849,29.147c0,0.502-0.402,0.904-0.902,0.904c-0.498,0-0.9-0.402-0.9-0.904
					c0-0.496,0.402-0.902,0.9-0.902C82.446,28.244,82.849,28.651,82.849,29.147z"/>
				<path fill="#1D1E1C" d="M72.72,23.73c-0.023,0-0.048-0.005-0.07-0.017c-0.078-0.039-0.109-0.133-0.071-0.211L72.828,23
					c0.039-0.078,0.134-0.11,0.212-0.071c0.078,0.039,0.109,0.133,0.071,0.211l-0.25,0.502C72.833,23.698,72.777,23.73,72.72,23.73z
					"/>
				<path fill="#1D1E1C" d="M73.64,24.062c-0.024,0-0.049-0.006-0.072-0.018c-0.077-0.04-0.107-0.135-0.067-0.212l0.266-0.514
					c0.039-0.078,0.135-0.107,0.212-0.068c0.077,0.04,0.107,0.135,0.067,0.212l-0.266,0.514
					C73.752,24.031,73.696,24.062,73.64,24.062z"/>
				<path fill="#1D1E1C" d="M74.306,24.355c-0.034,0-0.069-0.011-0.099-0.035c-0.067-0.054-0.079-0.153-0.024-0.222l0.334-0.418
					c0.055-0.067,0.152-0.08,0.222-0.024c0.067,0.054,0.079,0.153,0.024,0.222l-0.334,0.418
					C74.397,24.335,74.352,24.355,74.306,24.355z"/>
				<path fill="#1D1E1C" d="M71.468,26.819c-0.015,0-0.028-0.002-0.043-0.006c-0.084-0.024-0.133-0.112-0.108-0.195l0.166-0.584
					c0.023-0.084,0.113-0.13,0.194-0.109c0.084,0.024,0.133,0.111,0.108,0.195l-0.166,0.584
					C71.6,26.773,71.536,26.819,71.468,26.819z"/>
				<path fill="#1D1E1C" d="M72.218,27.069c-0.009,0-0.018-0.001-0.026-0.002c-0.086-0.016-0.144-0.097-0.129-0.182l0.084-0.5
					c0.014-0.086,0.095-0.145,0.182-0.13c0.086,0.015,0.144,0.096,0.129,0.182l-0.084,0.5C72.36,27.014,72.294,27.069,72.218,27.069
					z"/>
				<path fill="#1D1E1C" d="M72.966,27.41c-0.018,0-0.035-0.004-0.053-0.01c-0.082-0.029-0.125-0.119-0.096-0.201l0.15-0.426
					c0.028-0.082,0.117-0.125,0.201-0.096c0.082,0.029,0.125,0.119,0.096,0.202l-0.15,0.426
					C73.092,27.369,73.031,27.41,72.966,27.41z"/>
			</g>
			<path fill="#1D1E1C" d="M84.032,29.264c-0.05,0-0.099-0.023-0.129-0.067c-0.05-0.071-0.033-0.17,0.038-0.22
				c1.441-1.014,1.537-1.469,1.511-1.617c-0.022-0.129-0.172-0.172-0.179-0.174c-0.083-0.022-0.134-0.108-0.111-0.192
				c0.021-0.084,0.107-0.135,0.189-0.112c0.13,0.032,0.362,0.157,0.411,0.419c0.086,0.466-0.45,1.099-1.64,1.935
				C84.096,29.254,84.063,29.264,84.032,29.264z"/>
			<path fill="#1D1E1C" d="M83.64,29.834c-0.064,0-0.125-0.04-0.148-0.104c-0.029-0.082,0.013-0.173,0.095-0.203
				c0.132-0.048,0.242-0.139,0.287-0.236c0.015-0.033,0.029-0.082,0.012-0.13c-0.015-0.041-0.046-0.071-0.093-0.095
				c-0.095-0.045-0.239-0.043-0.375,0.004c-0.082,0.029-0.171-0.013-0.201-0.096c-0.029-0.082,0.014-0.172,0.096-0.201
				c0.215-0.076,0.441-0.074,0.615,0.009c0.124,0.059,0.212,0.152,0.254,0.271c0.043,0.113,0.036,0.246-0.021,0.37
				c-0.081,0.177-0.25,0.323-0.466,0.401C83.676,29.83,83.657,29.834,83.64,29.834z"/>
			<path fill="#1D1E1C" d="M75.316,26.805c-0.05,0-0.1-0.008-0.148-0.025c-0.118-0.041-0.216-0.131-0.275-0.255
				c-0.085-0.175-0.09-0.398-0.015-0.612c0.028-0.083,0.121-0.125,0.2-0.097c0.083,0.029,0.126,0.119,0.097,0.201
				c-0.047,0.133-0.046,0.272,0.002,0.37c0.016,0.034,0.046,0.078,0.095,0.095c0.106,0.036,0.283-0.078,0.364-0.306
				c0.028-0.083,0.121-0.125,0.2-0.097c0.083,0.029,0.126,0.119,0.097,0.201C75.821,26.6,75.568,26.805,75.316,26.805z"/>
		</g>
	</g>
	<g>
		<path fill="#39A935" d="M68.657,32.276c0,1.65-1.35,3-3,3H0.794c-1.65,0-3-1.35-3-3v-12.5c0-1.65,1.35-3,3-3h64.863
			c1.65,0,3,1.35,3,3V32.276z"/>
	</g>
	<path fill="#39A935" d="M68.356,26.889v-5.867c0,0,2.754-0.043,3.406,1.004C69.075,23.225,68.356,26.889,68.356,26.889z"/>
	<g>
		<path fill="#FFFFFF" d="M2.577,24.729h0.035c0.094,0,0.178,0.035,0.252,0.107c0.076,0.071,0.113,0.161,0.113,0.268
			c0,0.105-0.037,0.192-0.113,0.261c-0.074,0.068-0.168,0.103-0.277,0.103c-0.121,0-0.221-0.048-0.301-0.145
			c-0.078-0.097-0.119-0.233-0.119-0.411c0-0.163,0.035-0.315,0.105-0.458s0.154-0.256,0.256-0.339S2.72,23.99,2.8,23.99
			c0.053,0,0.094,0.016,0.123,0.047s0.045,0.071,0.045,0.121c0,0.072-0.033,0.126-0.098,0.16c-0.086,0.048-0.156,0.104-0.207,0.168
			S2.583,24.631,2.577,24.729z M3.669,24.729H3.7c0.092,0,0.176,0.035,0.252,0.107c0.074,0.071,0.111,0.161,0.111,0.268
			c0,0.104-0.037,0.191-0.111,0.262c-0.076,0.071-0.168,0.106-0.279,0.106c-0.121,0-0.221-0.05-0.301-0.148
			c-0.078-0.099-0.119-0.236-0.119-0.412c0-0.127,0.021-0.246,0.062-0.358c0.041-0.111,0.094-0.209,0.16-0.292
			c0.064-0.084,0.135-0.149,0.209-0.198c0.074-0.048,0.143-0.072,0.201-0.072c0.055,0,0.096,0.015,0.125,0.045
			c0.029,0.031,0.043,0.071,0.043,0.123c0,0.073-0.031,0.127-0.096,0.16c-0.092,0.051-0.16,0.107-0.205,0.169
			C3.706,24.549,3.679,24.63,3.669,24.729z"/>
		<path fill="#FFFFFF" d="M7.036,24.617h-1.65v0.889h1.52c0.113,0,0.197,0.025,0.252,0.075c0.055,0.051,0.082,0.117,0.082,0.199
			s-0.027,0.149-0.082,0.201c-0.053,0.052-0.137,0.078-0.252,0.078h-1.52v1.029h1.709c0.115,0,0.201,0.027,0.26,0.08
			c0.059,0.054,0.088,0.125,0.088,0.214c0,0.086-0.029,0.155-0.088,0.209s-0.145,0.08-0.26,0.08H5.101
			c-0.16,0-0.273-0.035-0.344-0.106c-0.07-0.07-0.105-0.185-0.105-0.343v-2.722c0-0.105,0.016-0.191,0.047-0.258
			s0.08-0.115,0.146-0.146c0.066-0.031,0.152-0.046,0.256-0.046h1.936c0.117,0,0.205,0.025,0.262,0.078
			c0.057,0.052,0.084,0.119,0.084,0.203c0,0.086-0.027,0.154-0.084,0.206S7.153,24.617,7.036,24.617z"/>
		<path fill="#FFFFFF" d="M9.681,27.354c-0.162,0.127-0.32,0.222-0.473,0.285s-0.322,0.095-0.512,0.095
			c-0.174,0-0.324-0.034-0.455-0.103s-0.232-0.16-0.303-0.277s-0.107-0.244-0.107-0.381c0-0.184,0.059-0.341,0.176-0.472
			c0.117-0.13,0.277-0.217,0.482-0.262c0.043-0.01,0.148-0.032,0.318-0.066s0.314-0.066,0.436-0.095
			c0.121-0.029,0.252-0.064,0.395-0.105c-0.01-0.178-0.045-0.308-0.107-0.392c-0.064-0.083-0.195-0.124-0.395-0.124
			c-0.172,0-0.301,0.023-0.387,0.071s-0.16,0.119-0.223,0.215c-0.061,0.096-0.105,0.158-0.131,0.188
			c-0.025,0.031-0.08,0.046-0.164,0.046c-0.076,0-0.141-0.024-0.195-0.072c-0.057-0.049-0.084-0.111-0.084-0.187
			c0-0.119,0.043-0.234,0.127-0.346c0.084-0.112,0.215-0.204,0.393-0.276c0.178-0.073,0.398-0.109,0.664-0.109
			c0.297,0,0.529,0.035,0.699,0.105c0.17,0.069,0.289,0.181,0.359,0.332s0.105,0.353,0.105,0.603c0,0.158-0.002,0.292-0.002,0.402
			c-0.002,0.11-0.002,0.233-0.004,0.368c0,0.127,0.021,0.259,0.062,0.396c0.043,0.137,0.062,0.226,0.062,0.266
			c0,0.068-0.031,0.132-0.096,0.188c-0.066,0.057-0.139,0.085-0.223,0.085c-0.068,0-0.137-0.032-0.205-0.098
			C9.829,27.572,9.757,27.477,9.681,27.354z M9.638,26.378c-0.1,0.036-0.242,0.074-0.432,0.115c-0.188,0.04-0.318,0.069-0.391,0.089
			c-0.072,0.019-0.143,0.056-0.209,0.11c-0.064,0.056-0.098,0.133-0.098,0.231c0,0.102,0.039,0.188,0.115,0.261
			c0.078,0.071,0.18,0.107,0.305,0.107c0.133,0,0.256-0.029,0.369-0.088s0.195-0.134,0.248-0.227
			c0.061-0.102,0.092-0.27,0.092-0.503V26.378z"/>
		<path fill="#FFFFFF" d="M13.153,26.852c0,0.187-0.045,0.346-0.135,0.479c-0.09,0.132-0.225,0.232-0.402,0.301
			c-0.176,0.068-0.391,0.103-0.645,0.103c-0.242,0-0.449-0.037-0.623-0.111c-0.172-0.073-0.301-0.166-0.383-0.277
			s-0.123-0.223-0.123-0.335c0-0.074,0.025-0.137,0.078-0.189s0.121-0.079,0.201-0.079c0.07,0,0.125,0.017,0.162,0.052
			c0.039,0.034,0.074,0.083,0.109,0.146c0.068,0.12,0.152,0.21,0.248,0.27c0.096,0.059,0.229,0.089,0.395,0.089
			c0.135,0,0.244-0.03,0.332-0.091c0.086-0.06,0.129-0.129,0.129-0.206c0-0.118-0.045-0.205-0.135-0.259
			c-0.09-0.055-0.236-0.106-0.443-0.156c-0.232-0.058-0.42-0.118-0.566-0.182c-0.146-0.062-0.262-0.146-0.35-0.25
			s-0.131-0.231-0.131-0.383c0-0.135,0.041-0.263,0.121-0.383s0.199-0.216,0.357-0.288c0.156-0.071,0.346-0.107,0.568-0.107
			c0.176,0,0.332,0.019,0.471,0.055s0.256,0.085,0.348,0.146c0.094,0.062,0.164,0.129,0.213,0.202
			c0.049,0.074,0.072,0.147,0.072,0.218c0,0.077-0.025,0.141-0.076,0.19c-0.053,0.049-0.127,0.074-0.223,0.074
			c-0.068,0-0.127-0.021-0.176-0.06c-0.049-0.04-0.104-0.099-0.166-0.178c-0.051-0.066-0.111-0.119-0.182-0.158
			c-0.068-0.039-0.162-0.06-0.281-0.06c-0.121,0-0.223,0.026-0.303,0.078c-0.082,0.052-0.121,0.116-0.121,0.193
			c0,0.071,0.029,0.129,0.088,0.175c0.061,0.045,0.139,0.082,0.24,0.112c0.1,0.029,0.238,0.065,0.414,0.108
			c0.209,0.051,0.381,0.112,0.514,0.183c0.133,0.071,0.232,0.154,0.301,0.251C13.12,26.618,13.153,26.729,13.153,26.852z"/>
		<path fill="#FFFFFF" d="M14.347,27.818l0.062-0.15l-0.83-2.089c-0.051-0.12-0.076-0.208-0.076-0.262
			c0-0.058,0.014-0.111,0.043-0.161c0.031-0.049,0.072-0.089,0.123-0.118c0.053-0.03,0.105-0.045,0.162-0.045
			c0.098,0,0.17,0.031,0.219,0.093c0.051,0.062,0.094,0.15,0.131,0.266l0.572,1.659l0.539-1.543
			c0.043-0.125,0.082-0.224,0.117-0.294c0.035-0.071,0.07-0.118,0.109-0.144c0.039-0.024,0.094-0.037,0.164-0.037
			c0.051,0,0.1,0.014,0.146,0.041s0.084,0.063,0.109,0.11c0.025,0.046,0.039,0.095,0.039,0.146
			c-0.008,0.031-0.018,0.075-0.033,0.133c-0.014,0.058-0.033,0.116-0.055,0.176L15.011,27.9c-0.076,0.202-0.148,0.361-0.223,0.477
			c-0.072,0.115-0.168,0.203-0.287,0.266c-0.119,0.062-0.279,0.092-0.482,0.092c-0.197,0-0.346-0.021-0.445-0.063
			c-0.098-0.043-0.146-0.121-0.146-0.235c0-0.077,0.023-0.137,0.07-0.179s0.115-0.062,0.207-0.062c0.037,0,0.072,0.005,0.107,0.015
			c0.043,0.01,0.08,0.015,0.111,0.015c0.076,0,0.137-0.012,0.182-0.034c0.045-0.023,0.084-0.063,0.121-0.12
			C14.261,28.012,14.302,27.928,14.347,27.818z"/>
		<path fill="#FFFFFF" d="M17.729,27.323V24.4c0-0.135,0.029-0.236,0.09-0.306s0.141-0.104,0.244-0.104
			c0.102,0,0.184,0.034,0.246,0.103s0.094,0.17,0.094,0.307v2.924c0,0.137-0.031,0.239-0.094,0.308
			c-0.064,0.068-0.146,0.103-0.246,0.103s-0.18-0.035-0.242-0.106C17.761,27.557,17.729,27.455,17.729,27.323z"/>
		<path fill="#FFFFFF" d="M19.442,24.679c-0.096,0-0.176-0.028-0.242-0.086s-0.1-0.14-0.1-0.245c0-0.095,0.035-0.174,0.102-0.235
			c0.068-0.062,0.148-0.093,0.24-0.093c0.086,0,0.164,0.028,0.23,0.084c0.068,0.056,0.102,0.138,0.102,0.244
			c0,0.104-0.033,0.186-0.098,0.243C19.61,24.65,19.532,24.679,19.442,24.679z M19.774,25.375v1.948
			c0,0.136-0.031,0.237-0.096,0.307s-0.146,0.104-0.244,0.104c-0.1,0-0.18-0.035-0.242-0.106c-0.061-0.07-0.092-0.172-0.092-0.304
			v-1.929c0-0.133,0.031-0.233,0.092-0.301c0.062-0.067,0.143-0.102,0.242-0.102c0.098,0,0.18,0.034,0.244,0.102
			S19.774,25.255,19.774,25.375z"/>
		<path fill="#FFFFFF" d="M22.642,26.852c0,0.187-0.045,0.346-0.137,0.479c-0.09,0.132-0.223,0.232-0.4,0.301
			s-0.393,0.103-0.646,0.103c-0.242,0-0.449-0.037-0.621-0.111c-0.174-0.073-0.301-0.166-0.383-0.277s-0.125-0.223-0.125-0.335
			c0-0.074,0.027-0.137,0.08-0.189s0.119-0.079,0.199-0.079c0.072,0,0.125,0.017,0.164,0.052c0.037,0.034,0.074,0.083,0.107,0.146
			c0.07,0.12,0.152,0.21,0.248,0.27c0.098,0.059,0.229,0.089,0.395,0.089c0.135,0,0.246-0.03,0.332-0.091
			c0.086-0.06,0.131-0.129,0.131-0.206c0-0.118-0.045-0.205-0.135-0.259c-0.09-0.055-0.238-0.106-0.443-0.156
			c-0.232-0.058-0.422-0.118-0.566-0.182c-0.146-0.062-0.264-0.146-0.35-0.25c-0.088-0.104-0.131-0.231-0.131-0.383
			c0-0.135,0.039-0.263,0.121-0.383c0.08-0.12,0.199-0.216,0.355-0.288c0.158-0.071,0.348-0.107,0.57-0.107
			c0.174,0,0.33,0.019,0.471,0.055c0.139,0.036,0.254,0.085,0.348,0.146c0.092,0.062,0.164,0.129,0.213,0.202
			c0.047,0.074,0.072,0.147,0.072,0.218c0,0.077-0.025,0.141-0.078,0.19c-0.051,0.049-0.125,0.074-0.221,0.074
			c-0.068,0-0.129-0.021-0.176-0.06c-0.049-0.04-0.105-0.099-0.168-0.178c-0.051-0.066-0.111-0.119-0.18-0.158
			c-0.07-0.039-0.164-0.06-0.281-0.06c-0.123,0-0.225,0.026-0.305,0.078s-0.121,0.116-0.121,0.193c0,0.071,0.029,0.129,0.09,0.175
			c0.059,0.045,0.139,0.082,0.238,0.112c0.102,0.029,0.24,0.065,0.416,0.108c0.209,0.051,0.379,0.112,0.512,0.183
			c0.133,0.071,0.232,0.154,0.301,0.251C22.606,26.618,22.642,26.729,22.642,26.852z"/>
		<path fill="#FFFFFF" d="M23.249,25.052h0.074v-0.405c0-0.108,0.002-0.193,0.008-0.255c0.006-0.062,0.023-0.115,0.049-0.16
			c0.025-0.046,0.064-0.083,0.113-0.112c0.049-0.028,0.105-0.043,0.166-0.043c0.086,0,0.162,0.032,0.232,0.097
			c0.045,0.043,0.074,0.095,0.088,0.156c0.012,0.062,0.018,0.149,0.018,0.264v0.459h0.248c0.094,0,0.168,0.022,0.217,0.068
			c0.051,0.045,0.076,0.103,0.076,0.174c0,0.091-0.035,0.153-0.107,0.19c-0.072,0.036-0.174,0.054-0.307,0.054h-0.127v1.24
			c0,0.104,0.004,0.187,0.012,0.243s0.027,0.103,0.059,0.138c0.033,0.036,0.084,0.054,0.156,0.054c0.041,0,0.094-0.007,0.162-0.021
			c0.066-0.014,0.119-0.021,0.158-0.021c0.053,0,0.102,0.021,0.146,0.065c0.043,0.043,0.064,0.098,0.064,0.161
			c0,0.109-0.059,0.192-0.178,0.25c-0.117,0.058-0.289,0.086-0.51,0.086c-0.211,0-0.371-0.035-0.48-0.106
			c-0.107-0.07-0.18-0.168-0.213-0.293c-0.033-0.126-0.051-0.293-0.051-0.502v-1.294h-0.09c-0.096,0-0.17-0.022-0.221-0.069
			c-0.053-0.046-0.078-0.104-0.078-0.175c0-0.071,0.027-0.129,0.082-0.174C23.069,25.074,23.147,25.052,23.249,25.052z"/>
		<path fill="#FFFFFF" d="M26.884,26.529h-1.318c0.002,0.153,0.031,0.288,0.092,0.405s0.141,0.205,0.24,0.264
			c0.1,0.06,0.209,0.09,0.33,0.09c0.08,0,0.154-0.01,0.221-0.029c0.066-0.019,0.131-0.048,0.193-0.089
			c0.062-0.04,0.121-0.083,0.174-0.129c0.053-0.047,0.121-0.109,0.205-0.188c0.033-0.029,0.084-0.044,0.146-0.044
			c0.07,0,0.125,0.019,0.168,0.057s0.064,0.092,0.064,0.16c0,0.062-0.023,0.133-0.07,0.214c-0.049,0.082-0.121,0.16-0.217,0.234
			c-0.096,0.075-0.217,0.138-0.363,0.187c-0.146,0.05-0.312,0.074-0.502,0.074c-0.434,0-0.77-0.123-1.01-0.37
			s-0.361-0.582-0.361-1.005c0-0.199,0.029-0.385,0.09-0.555c0.059-0.17,0.145-0.316,0.258-0.438s0.254-0.215,0.42-0.28
			c0.166-0.064,0.352-0.098,0.553-0.098c0.264,0,0.49,0.056,0.68,0.167c0.188,0.111,0.328,0.255,0.422,0.431
			c0.094,0.177,0.141,0.355,0.141,0.538c0,0.17-0.047,0.28-0.145,0.33C27.196,26.504,27.06,26.529,26.884,26.529z M25.565,26.146
			h1.223c-0.018-0.23-0.08-0.402-0.188-0.518c-0.107-0.114-0.25-0.171-0.426-0.171c-0.168,0-0.305,0.058-0.414,0.174
			C25.653,25.747,25.589,25.919,25.565,26.146z"/>
		<path fill="#FFFFFF" d="M28.62,25.365v0.082c0.119-0.157,0.248-0.271,0.389-0.345s0.303-0.11,0.486-0.11
			c0.178,0,0.336,0.039,0.477,0.116c0.139,0.077,0.244,0.188,0.312,0.328c0.045,0.083,0.074,0.172,0.088,0.268
			c0.012,0.095,0.02,0.217,0.02,0.365v1.254c0,0.136-0.031,0.237-0.094,0.307c-0.061,0.069-0.141,0.104-0.24,0.104
			s-0.182-0.035-0.244-0.106c-0.062-0.07-0.094-0.172-0.094-0.304V26.2c0-0.223-0.031-0.393-0.094-0.51
			c-0.061-0.118-0.184-0.177-0.369-0.177c-0.119,0-0.229,0.036-0.328,0.107c-0.098,0.071-0.172,0.17-0.217,0.295
			c-0.033,0.101-0.049,0.288-0.049,0.563v0.844c0,0.137-0.033,0.239-0.096,0.308c-0.064,0.068-0.145,0.103-0.246,0.103
			c-0.098,0-0.178-0.035-0.24-0.106c-0.062-0.07-0.094-0.172-0.094-0.304v-1.948c0-0.128,0.029-0.224,0.084-0.287
			c0.057-0.063,0.133-0.096,0.23-0.096c0.059,0,0.113,0.015,0.16,0.042c0.049,0.028,0.086,0.07,0.115,0.126
			C28.606,25.217,28.62,25.285,28.62,25.365z"/>
		<path fill="#FFFFFF" d="M31.403,24.679c-0.094,0-0.174-0.028-0.24-0.086s-0.1-0.14-0.1-0.245c0-0.095,0.033-0.174,0.102-0.235
			s0.148-0.093,0.238-0.093c0.088,0,0.164,0.028,0.232,0.084c0.066,0.056,0.102,0.138,0.102,0.244c0,0.104-0.033,0.186-0.1,0.243
			C31.571,24.65,31.493,24.679,31.403,24.679z M31.737,25.375v1.948c0,0.136-0.033,0.237-0.098,0.307
			c-0.062,0.069-0.145,0.104-0.244,0.104c-0.098,0-0.178-0.035-0.24-0.106c-0.062-0.07-0.092-0.172-0.092-0.304v-1.929
			c0-0.133,0.029-0.233,0.092-0.301s0.143-0.102,0.24-0.102c0.1,0,0.182,0.034,0.244,0.102
			C31.704,25.161,31.737,25.255,31.737,25.375z"/>
		<path fill="#FFFFFF" d="M33.046,25.365v0.082c0.117-0.157,0.248-0.271,0.389-0.345s0.303-0.11,0.484-0.11
			c0.178,0,0.338,0.039,0.477,0.116c0.141,0.077,0.244,0.188,0.314,0.328c0.045,0.083,0.072,0.172,0.086,0.268
			c0.014,0.095,0.02,0.217,0.02,0.365v1.254c0,0.136-0.031,0.237-0.092,0.307c-0.062,0.069-0.143,0.104-0.242,0.104
			s-0.182-0.035-0.244-0.106c-0.062-0.07-0.094-0.172-0.094-0.304V26.2c0-0.223-0.031-0.393-0.092-0.51
			c-0.062-0.118-0.186-0.177-0.369-0.177c-0.121,0-0.23,0.036-0.328,0.107c-0.1,0.071-0.172,0.17-0.219,0.295
			c-0.031,0.101-0.049,0.288-0.049,0.563v0.844c0,0.137-0.031,0.239-0.096,0.308c-0.062,0.068-0.145,0.103-0.244,0.103
			c-0.098,0-0.178-0.035-0.24-0.106c-0.062-0.07-0.094-0.172-0.094-0.304v-1.948c0-0.128,0.027-0.224,0.084-0.287
			s0.133-0.096,0.229-0.096c0.061,0,0.113,0.015,0.162,0.042c0.047,0.028,0.086,0.07,0.113,0.126
			C33.03,25.217,33.046,25.285,33.046,25.365z"/>
		<path fill="#FFFFFF" d="M37.966,25.487v1.958c0,0.225-0.023,0.417-0.07,0.578c-0.049,0.161-0.125,0.295-0.23,0.4
			s-0.242,0.184-0.414,0.234c-0.17,0.051-0.381,0.076-0.635,0.076c-0.232,0-0.439-0.032-0.623-0.098
			c-0.182-0.064-0.322-0.148-0.422-0.251c-0.1-0.104-0.148-0.209-0.148-0.317c0-0.083,0.027-0.149,0.084-0.201
			c0.057-0.053,0.123-0.078,0.203-0.078c0.098,0,0.186,0.043,0.26,0.131c0.035,0.044,0.072,0.089,0.111,0.135
			c0.039,0.045,0.082,0.084,0.129,0.116c0.047,0.031,0.104,0.056,0.168,0.071c0.066,0.016,0.143,0.023,0.229,0.023
			c0.174,0,0.309-0.024,0.406-0.073c0.096-0.048,0.164-0.116,0.201-0.203c0.039-0.088,0.062-0.181,0.068-0.28
			c0.008-0.1,0.012-0.26,0.016-0.48c-0.104,0.145-0.225,0.255-0.359,0.331c-0.137,0.075-0.299,0.113-0.486,0.113
			c-0.225,0-0.422-0.058-0.59-0.173c-0.17-0.115-0.299-0.276-0.391-0.484c-0.09-0.207-0.135-0.446-0.135-0.719
			c0-0.202,0.027-0.385,0.082-0.548s0.135-0.301,0.236-0.412c0.102-0.112,0.221-0.196,0.354-0.253
			c0.133-0.058,0.279-0.086,0.439-0.086c0.191,0,0.355,0.037,0.496,0.11s0.27,0.188,0.391,0.345v-0.092
			c0-0.117,0.029-0.207,0.086-0.271c0.059-0.064,0.131-0.097,0.223-0.097c0.129,0,0.217,0.043,0.26,0.128
			C37.944,25.204,37.966,25.327,37.966,25.487z M36.013,26.341c0,0.273,0.061,0.479,0.18,0.62c0.119,0.14,0.273,0.21,0.463,0.21
			c0.111,0,0.219-0.03,0.318-0.091c0.1-0.06,0.18-0.15,0.242-0.271s0.094-0.268,0.094-0.44c0-0.275-0.061-0.489-0.182-0.643
			c-0.121-0.152-0.279-0.229-0.477-0.229c-0.193,0-0.348,0.073-0.465,0.22C36.071,25.863,36.013,26.072,36.013,26.341z"/>
		<path fill="#FFFFFF" d="M38.888,24.739h-0.037c-0.092,0-0.176-0.037-0.25-0.112s-0.113-0.164-0.113-0.266
			c0-0.105,0.039-0.193,0.113-0.265c0.074-0.07,0.166-0.105,0.275-0.105c0.123,0,0.225,0.049,0.303,0.147
			c0.078,0.1,0.117,0.236,0.117,0.413c0,0.161-0.035,0.312-0.104,0.455s-0.152,0.256-0.252,0.34s-0.189,0.126-0.27,0.126
			c-0.051,0-0.094-0.017-0.125-0.048c-0.031-0.032-0.049-0.071-0.049-0.118c0-0.073,0.035-0.128,0.102-0.162
			c0.088-0.052,0.156-0.107,0.205-0.168C38.853,24.914,38.882,24.835,38.888,24.739z M39.974,24.739h-0.029
			c-0.094,0-0.178-0.037-0.256-0.111c-0.076-0.074-0.113-0.163-0.113-0.267s0.037-0.191,0.113-0.263
			c0.076-0.072,0.168-0.107,0.275-0.107c0.125,0,0.227,0.048,0.305,0.146c0.078,0.097,0.115,0.235,0.115,0.415
			c0,0.166-0.033,0.319-0.102,0.46s-0.152,0.253-0.252,0.336s-0.191,0.125-0.273,0.125c-0.053,0-0.094-0.016-0.125-0.047
			s-0.047-0.071-0.047-0.119c0-0.072,0.033-0.126,0.102-0.162c0.094-0.055,0.162-0.111,0.209-0.17
			C39.942,24.916,39.968,24.837,39.974,24.739z"/>
	</g>
	<g>
		<polygon fill="#FFFFFF" points="58.065,23.225 58.065,28.406 62.649,25.817 		"/>
		<path fill="#FFFFFF" d="M59.569,21.135c2.639,0,4.775,2.143,4.775,4.775c0,2.637-2.137,4.773-4.775,4.773
			c-2.631,0-4.77-2.137-4.77-4.773C54.8,23.278,56.938,21.135,59.569,21.135 M59.569,20.635c-2.905,0-5.27,2.367-5.27,5.275
			c0,2.908,2.364,5.273,5.27,5.273c2.909,0,5.275-2.365,5.275-5.273C64.845,23.002,62.479,20.635,59.569,20.635L59.569,20.635z"/>
	</g>
</g>
</svg>
