<?xml version="1.0" encoding="utf-8"?>
<!-- Generator: Adobe Illustrator 15.0.2, SVG Export Plug-In . SVG Version: 6.00 Build 0)  -->
<!DOCTYPE svg PUBLIC "-//W3C//DTD SVG 1.1//EN" "http://www.w3.org/Graphics/SVG/1.1/DTD/svg11.dtd">
<svg version="1.1" id="Layer_1" xmlns="http://www.w3.org/2000/svg" xmlns:xlink="http://www.w3.org/1999/xlink" x="0px" y="0px"
	 width="16.967px" height="15.641px" viewBox="27.79 10.082 16.967 15.641" enable-background="new 27.79 10.082 16.967 15.641"
	 xml:space="preserve">
<g>
	<g>
		
			<radialGradient id="SVGID_1_" cx="-1186.7244" cy="-462.1792" r="18.3176" gradientTransform="matrix(0.4097 0 0 0.0996 523.3312 69.7217)" gradientUnits="userSpaceOnUse">
			<stop  offset="0" style="stop-color:#A9A9AA"/>
			<stop  offset="0.0541" style="stop-color:#B6BAB4"/>
			<stop  offset="0.2086" style="stop-color:#D9E9CF"/>
			<stop  offset="0.3252" style="stop-color:#E4EFDD"/>
			<stop  offset="0.5432" style="stop-color:#F3F8F0"/>
			<stop  offset="0.7662" style="stop-color:#FCFDFB"/>
			<stop  offset="1" style="stop-color:#FFFFFF"/>
		</radialGradient>
		<ellipse fill="url(#SVGID_1_)" cx="37.13" cy="23.705" rx="7.627" ry="2.018"/>
		<g>
			<polygon fill="#FFFFFF" points="36.913,18.629 34.876,17.553 34.984,14.668 37.308,15.455 			"/>
			<path fill="#1D1E1C" d="M36.913,18.738c-0.018,0-0.035-0.005-0.051-0.014l-2.037-1.076c-0.036-0.02-0.059-0.058-0.058-0.1
				l0.107-2.885c0.001-0.034,0.019-0.066,0.047-0.085c0.028-0.019,0.064-0.023,0.097-0.013l2.324,0.786
				c0.048,0.017,0.079,0.065,0.072,0.116l-0.395,3.175c-0.004,0.035-0.025,0.066-0.058,0.083
				C36.948,18.733,36.931,18.738,36.913,18.738z M34.987,17.489l1.839,0.972l0.364-2.932l-2.104-0.711L34.987,17.489z"/>
		</g>
		<polygon fill="#1D1E1C" points="35.779,16.224 35.351,16.022 35.476,15.887 35.786,16.043 		"/>
		<polygon fill="#1D1E1C" points="36.626,16.545 36.238,16.367 36.198,16.159 36.568,16.317 		"/>
		<polygon fill="#1D1E1C" points="36.122,17.407 35.607,17.155 35.493,16.783 36.296,17.155 		"/>
		<g>
			<polygon fill="#FFFFFF" points="37.308,15.455 34.984,14.668 37.111,14.762 38.958,15.455 			"/>
			<path fill="#1D1E1C" d="M38.964,15.563c-0.002,0-0.004,0-0.006,0h-1.65c-0.012,0-0.023-0.002-0.035-0.006l-2.324-0.786
				c-0.051-0.017-0.081-0.069-0.071-0.123c0.01-0.054,0.058-0.091,0.111-0.088l2.127,0.094c0.012,0,0.022,0.003,0.033,0.007
				l1.833,0.687c0.052,0.009,0.09,0.053,0.09,0.107C39.072,15.514,39.024,15.563,38.964,15.563z M37.325,15.346h1.035l-1.271-0.477
				l-1.349-0.06L37.325,15.346z"/>
		</g>
		<g>
			<polygon fill="#FFFFFF" points="38.544,18.22 36.913,18.629 37.292,15.455 38.958,15.455 			"/>
			<path fill="#1D1E1C" d="M36.913,18.738c-0.026,0-0.052-0.01-0.071-0.027c-0.027-0.023-0.04-0.059-0.036-0.094l0.379-3.175
				c0.007-0.055,0.053-0.096,0.107-0.096h1.666c0.031,0,0.062,0.014,0.082,0.038s0.029,0.056,0.025,0.087l-0.414,2.766
				c-0.007,0.043-0.039,0.078-0.081,0.089l-1.631,0.409C36.931,18.736,36.922,18.738,36.913,18.738z M37.388,15.563l-0.349,2.923
				l1.408-0.354l0.385-2.57H37.388z"/>
		</g>
		<path fill="#1D1E1C" d="M33.741,19.749c-1.213,0-2.361-0.319-2.432-0.34c-0.058-0.017-0.091-0.076-0.075-0.134
			c0.017-0.057,0.079-0.09,0.134-0.074c0.025,0.008,2.514,0.699,3.985,0.052c0.058-0.024,0.119,0.001,0.143,0.056
			c0.024,0.055,0,0.118-0.055,0.143C34.937,19.674,34.331,19.749,33.741,19.749z"/>
		<path fill="#1D1E1C" d="M39.243,21.152c-0.005,0-0.009,0-0.014,0c-0.06-0.008-0.102-0.062-0.094-0.121
			c0.084-0.658-0.341-1.332-0.345-1.339c-0.032-0.05-0.018-0.117,0.032-0.149c0.05-0.031,0.116-0.019,0.149,0.033
			c0.02,0.029,0.472,0.745,0.378,1.482C39.344,21.113,39.297,21.152,39.243,21.152z"/>
		
			<ellipse transform="matrix(0.9246 0.3809 -0.3809 0.9246 9.425 -13.1499)" fill="#1D1E1C" cx="37.936" cy="17.237" rx="0.54" ry="0.74"/>
		<path fill="#1D1E1C" d="M38.06,17.44c-0.01,0-0.019-0.002-0.027-0.007c-0.025-0.015-0.034-0.048-0.02-0.074
			c0.229-0.392,0.356-0.904,0.356-1.441c0-1.171-0.601-2.125-1.339-2.125c-0.428,0-0.835,0.332-1.088,0.888
			c-0.012,0.028-0.043,0.04-0.071,0.027c-0.027-0.012-0.039-0.044-0.026-0.072c0.271-0.596,0.714-0.952,1.186-0.952
			c0.798,0,1.446,1.002,1.446,2.233c0,0.557-0.131,1.088-0.37,1.496C38.097,17.431,38.078,17.44,38.06,17.44z"/>
		
			<path fill="none" stroke="#1D1E1C" stroke-width="0.2166" stroke-linecap="round" stroke-linejoin="round" stroke-miterlimit="10" d="
			M38.06,17.386"/>
		<path fill="#1D1E1C" d="M37.935,14.475c-0.064,0-0.128-0.029-0.17-0.083c-0.321-0.409-0.786-0.506-1.216-0.261
			c-0.103,0.058-0.236,0.024-0.296-0.079s-0.024-0.236,0.079-0.296c0.623-0.358,1.317-0.213,1.772,0.368
			c0.074,0.094,0.058,0.23-0.036,0.304C38.029,14.46,37.982,14.475,37.935,14.475z"/>
		
			<ellipse transform="matrix(0.7683 0.6401 -0.6401 0.7683 19.7419 -18.1021)" fill="#1D1E1C" cx="34.876" cy="18.219" rx="0.417" ry="0.312"/>
		
			<ellipse transform="matrix(0.924 0.3823 -0.3823 0.924 9.5086 -13.2328)" fill="#FFFFFF" cx="38.054" cy="17.312" rx="0.239" ry="0.365"/>
		<path fill="#1D1E1C" d="M36.051,18.684c-0.406,0-0.811-0.141-1.206-0.419c-0.024-0.018-0.03-0.051-0.013-0.076
			c0.016-0.025,0.05-0.029,0.075-0.013c0.472,0.333,0.956,0.461,1.438,0.373c0.864-0.152,1.483-0.925,1.709-1.25
			c0.018-0.025,0.051-0.03,0.076-0.014c0.024,0.017,0.03,0.051,0.014,0.075c-0.234,0.336-0.876,1.136-1.78,1.296
			C36.259,18.674,36.156,18.684,36.051,18.684z"/>
		<g>
			<path fill="#1E1E1C" d="M36.648,20.355l-0.027-0.072h-0.236l-0.027,0.074c-0.012,0.029-0.02,0.049-0.027,0.061
				c-0.008,0.01-0.021,0.014-0.039,0.014c-0.014,0-0.027-0.006-0.039-0.016c-0.01-0.012-0.016-0.023-0.016-0.037
				c0-0.008,0-0.016,0.004-0.023c0.002-0.01,0.006-0.021,0.012-0.037l0.148-0.377c0.004-0.01,0.01-0.023,0.016-0.037
				c0.006-0.016,0.014-0.029,0.02-0.039s0.016-0.018,0.027-0.023c0.01-0.006,0.023-0.01,0.039-0.01c0.018,0,0.031,0.004,0.041,0.01
				c0.012,0.006,0.02,0.014,0.027,0.023c0.006,0.01,0.012,0.02,0.018,0.031c0.004,0.012,0.01,0.027,0.018,0.045l0.15,0.375
				c0.012,0.027,0.018,0.049,0.018,0.062s-0.006,0.025-0.016,0.037c-0.012,0.01-0.025,0.016-0.041,0.016
				c-0.01,0-0.018-0.002-0.023-0.004c-0.008-0.004-0.012-0.008-0.018-0.014c-0.004-0.006-0.008-0.016-0.014-0.025
				C36.656,20.375,36.652,20.365,36.648,20.355z M36.415,20.195h0.174l-0.088-0.238L36.415,20.195z"/>
			<path fill="#1E1E1C" d="M37.019,20.174h-0.043v0.188c0,0.023-0.004,0.041-0.016,0.053s-0.025,0.018-0.043,0.018
				s-0.033-0.006-0.043-0.018s-0.016-0.029-0.016-0.053v-0.447c0-0.025,0.006-0.043,0.018-0.055s0.029-0.018,0.055-0.018h0.191
				c0.027,0,0.049,0.002,0.068,0.004c0.018,0.002,0.035,0.006,0.051,0.014c0.018,0.008,0.033,0.018,0.047,0.033
				c0.016,0.014,0.025,0.029,0.033,0.049c0.006,0.02,0.01,0.039,0.01,0.061c0,0.043-0.012,0.078-0.037,0.104
				c-0.023,0.025-0.061,0.045-0.109,0.055c0.02,0.012,0.039,0.027,0.059,0.049s0.037,0.045,0.051,0.07
				c0.016,0.023,0.027,0.045,0.035,0.064s0.012,0.033,0.012,0.041s-0.002,0.016-0.006,0.023c-0.006,0.008-0.012,0.014-0.021,0.018
				c-0.008,0.004-0.018,0.006-0.029,0.006s-0.023-0.002-0.031-0.01c-0.01-0.006-0.018-0.014-0.023-0.023
				c-0.008-0.008-0.016-0.023-0.027-0.041l-0.047-0.078c-0.018-0.029-0.031-0.051-0.045-0.066s-0.027-0.025-0.041-0.031
				S37.038,20.174,37.019,20.174z M37.085,19.93h-0.109v0.16h0.105c0.029,0,0.053-0.002,0.072-0.008
				c0.02-0.004,0.033-0.014,0.043-0.025c0.012-0.012,0.016-0.027,0.016-0.047c0-0.018-0.004-0.031-0.012-0.043
				c-0.008-0.014-0.02-0.021-0.035-0.027C37.152,19.934,37.126,19.93,37.085,19.93z"/>
			<path fill="#1E1E1C" d="M37.577,20.26h-0.125c-0.02,0-0.033-0.006-0.043-0.014c-0.01-0.01-0.016-0.02-0.016-0.035
				c0-0.014,0.006-0.025,0.016-0.033c0.01-0.01,0.023-0.014,0.043-0.014h0.125c0.02,0,0.035,0.004,0.045,0.014
				c0.008,0.008,0.014,0.02,0.014,0.033c0,0.016-0.004,0.025-0.014,0.035C37.613,20.254,37.597,20.26,37.577,20.26z"/>
			<path fill="#1E1E1C" d="M37.878,20.367v-0.359c-0.066,0.051-0.111,0.076-0.135,0.076c-0.012,0-0.021-0.004-0.029-0.012
				c-0.01-0.01-0.014-0.02-0.014-0.031c0-0.014,0.004-0.023,0.014-0.029c0.008-0.008,0.023-0.016,0.045-0.025
				c0.031-0.016,0.057-0.029,0.076-0.047s0.035-0.035,0.051-0.057c0.014-0.02,0.023-0.033,0.029-0.037
				c0.004-0.006,0.012-0.008,0.025-0.008s0.025,0.006,0.033,0.016c0.008,0.012,0.012,0.027,0.012,0.045v0.453
				c0,0.055-0.018,0.08-0.053,0.08c-0.018,0-0.029-0.006-0.039-0.016C37.884,20.404,37.878,20.389,37.878,20.367z"/>
		</g>
		<path fill="#1D1E1C" d="M37.739,22.047h-1.145c-0.316,0-0.618-0.254-0.671-0.566l-0.334-1.95
			c-0.027-0.159,0.011-0.312,0.108-0.427s0.24-0.18,0.402-0.18h2.021c0.161,0,0.305,0.063,0.405,0.179
			c0.102,0.115,0.146,0.267,0.124,0.427l-0.258,1.943C38.351,21.789,38.058,22.047,37.739,22.047z M36.1,19.162
			c-0.09,0-0.168,0.034-0.22,0.096c-0.052,0.061-0.071,0.143-0.057,0.232l0.334,1.95c0.034,0.199,0.234,0.368,0.437,0.368h1.145
			c0.2,0,0.392-0.168,0.418-0.367l0.258-1.943c0.012-0.092-0.012-0.176-0.066-0.238c-0.056-0.062-0.136-0.098-0.227-0.098H36.1z"/>
		<g>
			<g>
				<path fill="#FFFFFF" d="M38.112,23.281c-0.081-0.209-0.36-0.379-0.621-0.379h-0.672c-0.261,0-0.56,0.17-0.664,0.379
					s0.022,0.379,0.283,0.379h1.348C38.046,23.66,38.193,23.49,38.112,23.281z"/>
			</g>
			<path fill="#1D1E1C" d="M37.785,23.779h-1.348c-0.176,0-0.318-0.066-0.391-0.183c-0.065-0.106-0.065-0.237,0.001-0.369
				c0.125-0.249,0.464-0.444,0.771-0.444h0.672c0.312,0,0.633,0.199,0.732,0.455c0.05,0.128,0.039,0.255-0.031,0.357
				C38.112,23.713,37.963,23.779,37.785,23.779z M36.819,23.021c-0.213,0-0.474,0.146-0.558,0.313
				c-0.016,0.032-0.038,0.091-0.011,0.136s0.098,0.07,0.188,0.07h1.348c0.097,0,0.175-0.029,0.209-0.08
				c0.031-0.046,0.021-0.1,0.006-0.137c-0.062-0.161-0.301-0.303-0.51-0.303H36.819z"/>
		</g>
		<g>
			<rect x="36.913" y="21.928" fill="#FFFFFF" width="0.395" height="0.975"/>
			<path fill="#1D1E1C" d="M37.427,23.021h-0.633v-1.213h0.633V23.021z M37.032,22.783h0.156v-0.736h-0.156V22.783z"/>
		</g>
		<path fill="#1D1E1C" d="M39.425,21.582c-0.006,0-0.012-0.001-0.018-0.002c-0.059-0.01-0.099-0.065-0.089-0.125
			c0.016-0.096-0.001-0.189-0.044-0.249c-0.015-0.021-0.04-0.047-0.076-0.053c-0.024-0.005-0.057,0.003-0.087,0.024
			c-0.06,0.043-0.106,0.129-0.123,0.225c-0.01,0.061-0.063,0.1-0.124,0.09c-0.06-0.01-0.099-0.065-0.089-0.125
			c0.025-0.154,0.103-0.289,0.211-0.365c0.075-0.055,0.162-0.076,0.247-0.062s0.162,0.063,0.217,0.141
			c0.077,0.107,0.106,0.257,0.081,0.41C39.523,21.544,39.477,21.582,39.425,21.582z"/>
		<path fill="#1D1E1C" d="M30.999,19.609c-0.064,0-0.133-0.011-0.2-0.033c-0.057-0.02-0.088-0.081-0.068-0.138
			c0.019-0.057,0.085-0.088,0.137-0.067c0.158,0.053,0.293,0.004,0.318-0.071c0.019-0.058-0.023-0.136-0.104-0.192
			c-0.049-0.034-0.061-0.102-0.026-0.15s0.101-0.061,0.151-0.026c0.161,0.114,0.234,0.286,0.185,0.437
			C31.34,19.521,31.184,19.609,30.999,19.609z"/>
	</g>
	<path fill="#1D1E1C" d="M30.808,23.68c-0.119,0-0.217-0.097-0.217-0.217v-7.325c0-0.12,0.098-0.217,0.217-0.217
		s0.217,0.097,0.217,0.217v7.325C31.025,23.583,30.927,23.68,30.808,23.68z"/>
	<polygon fill="#39A935" points="27.812,15.307 27.79,11.834 30.788,10.082 33.804,11.8 33.825,15.272 30.829,17.026 	"/>
	<path fill="#FFFFFF" d="M30.828,16.828l-2.846-1.621v-0.066l-0.019-3.206l2.825-1.656l2.844,1.622v0.066l0.019,3.207L30.828,16.828
		z M28.211,15.073l2.615,1.49l2.595-1.52l-0.017-3.008l-2.613-1.491l-2.597,1.522L28.211,15.073z"/>
	<g>
		<circle fill="#FFFFFF" cx="29.964" cy="12.575" r="0.417"/>
	</g>
	<g>
		<circle fill="#FFFFFF" cx="31.715" cy="12.575" r="0.417"/>
	</g>
	<g>
		<path fill="#FFFFFF" d="M30.808,15.306c-0.754,0-1.388-0.43-1.74-1.18c-0.059-0.125-0.005-0.274,0.12-0.333
			c0.124-0.058,0.273-0.005,0.333,0.12c0.27,0.576,0.728,0.893,1.287,0.893c0.61,0,1.102-0.332,1.28-0.866
			c0.044-0.13,0.188-0.202,0.316-0.157c0.132,0.044,0.202,0.186,0.158,0.316C32.313,14.843,31.64,15.306,30.808,15.306z"/>
	</g>
</g>
</svg>
