<?xml version="1.0" encoding="utf-8"?>
<!-- Generator: Adobe Illustrator 15.0.2, SVG Export Plug-In . SVG Version: 6.00 Build 0)  -->
<!DOCTYPE svg PUBLIC "-//W3C//DTD SVG 1.1//EN" "http://www.w3.org/Graphics/SVG/1.1/DTD/svg11.dtd">
<svg version="1.1" id="Layer_1" xmlns="http://www.w3.org/2000/svg" xmlns:xlink="http://www.w3.org/1999/xlink" x="0px" y="0px"
	 width="91.021px" height="18.557px" viewBox="-2.54 16.779 91.021 18.557" enable-background="new -2.54 16.779 91.021 18.557"
	 xml:space="preserve">
<g>
	<g>
		
			<radialGradient id="SVGID_1_" cx="2364.7568" cy="-975.6404" r="26.6835" gradientTransform="matrix(0.2319 0 0 0.0841 -466.254 114.8595)" gradientUnits="userSpaceOnUse">
			<stop  offset="0" style="stop-color:#5F564A"/>
			<stop  offset="0.0861" style="stop-color:#8F826F"/>
			<stop  offset="0.1722" style="stop-color:#B7A78E"/>
			<stop  offset="0.2564" style="stop-color:#D7C3A7"/>
			<stop  offset="0.3378" style="stop-color:#EDD8B8"/>
			<stop  offset="0.4153" style="stop-color:#FAE4C2"/>
			<stop  offset="0.4847" style="stop-color:#FFE8C6"/>
			<stop  offset="0.5954" style="stop-color:#FFF1DD"/>
			<stop  offset="0.7261" style="stop-color:#FFF9F0"/>
			<stop  offset="0.8598" style="stop-color:#FFFDFB"/>
			<stop  offset="1" style="stop-color:#FFFFFF"/>
		</radialGradient>
		<path fill="url(#SVGID_1_)" d="M88.481,32.857c0,1.367-2.815,2.479-6.289,2.479c-3.473,0-6.289-1.111-6.289-2.479
			c0-1.373,2.816-2.48,6.289-2.48C85.666,30.377,88.481,31.484,88.481,32.857z"/>
		<g>
			<g>
				
					<ellipse transform="matrix(0.8007 -0.599 0.599 0.8007 1.2347 50.1349)" fill="#1D1E1C" cx="75.973" cy="23.212" rx="0.399" ry="0.244"/>
				<path fill="#1D1E1C" d="M75.675,21.035C75.837,21.625,76.216,23,76.216,23l0.103,0.027c0,0-0.126-0.459-0.255-0.93
					c-0.111-0.4-0.223-0.807-0.258-0.934l-0.041-0.152L75.675,21.035z"/>
				
					<ellipse transform="matrix(0.7979 -0.6027 0.6027 0.7979 1.9074 51.2967)" fill="#1D1E1C" cx="77.463" cy="22.803" rx="0.4" ry="0.246"/>
				<path fill="#1D1E1C" d="M77.165,20.627c0.162,0.592,0.541,1.963,0.541,1.963l0.103,0.029c0,0-0.124-0.461-0.255-0.928
					c-0.109-0.402-0.223-0.809-0.257-0.934l-0.042-0.154L77.165,20.627z"/>
				
					<rect x="75.785" y="20.813" transform="matrix(-0.9643 0.2649 -0.2649 -0.9643 155.8477 20.9536)" fill="#1D1E1C" width="1.452" height="0.348"/>
				
					<rect x="75.907" y="21.322" transform="matrix(-0.9646 0.2637 -0.2637 -0.9646 156.2044 21.8953)" fill="#1D1E1C" width="1.452" height="0.217"/>
			</g>
			<g>
				<g>
					
						<ellipse transform="matrix(0.9173 -0.3981 0.3981 0.9173 -2.3297 31.1766)" fill="#1D1E1C" cx="73.907" cy="21.198" rx="0.238" ry="0.144"/>
					<path fill="#1D1E1C" d="M74.132,21.138c0,0-0.028-0.982-0.035-1.148c0.079,0.074,0.293,0.248,0.191,0.539
						c0.225-0.428-0.213-0.547-0.252-0.775c0.004,0.166,0.041,1.355,0.041,1.355L74.132,21.138z"/>
				</g>
			</g>
			<g>
				<polygon fill="#FFFFFF" points="82.114,25.572 79.147,24.006 79.304,19.804 82.689,20.951 				"/>
				<path fill="#1D1E1C" d="M82.114,25.73c-0.025,0-0.051-0.006-0.073-0.018l-2.967-1.566C79.021,24.117,78.987,24.06,78.99,24
					l0.156-4.201c0.002-0.05,0.026-0.096,0.067-0.124c0.042-0.028,0.093-0.035,0.141-0.02l3.386,1.146
					c0.07,0.024,0.115,0.095,0.105,0.169l-0.575,4.621c-0.006,0.051-0.037,0.096-0.083,0.12C82.164,25.724,82.14,25.73,82.114,25.73
					z M79.309,23.912l2.678,1.414l0.53-4.267l-3.063-1.037L79.309,23.912z"/>
			</g>
			<polygon fill="#1D1E1C" points="80.407,21.955 79.683,21.691 79.874,21.476 80.325,21.707 			"/>
			<polygon fill="#1D1E1C" points="81.757,22.554 80.978,22.22 81.13,22.015 81.666,22.244 			"/>
			<polygon fill="#1D1E1C" points="80.782,23.736 80.212,23.427 80.226,22.861 80.823,23.152 			"/>
			<g>
				<polygon fill="#FFFFFF" points="82.689,20.951 79.304,19.804 82.401,19.941 85.093,20.951 				"/>
				<path fill="#1D1E1C" d="M85.101,21.109c-0.002,0-0.006,0-0.008,0h-2.403c-0.018,0-0.034-0.003-0.051-0.008l-3.386-1.146
					c-0.074-0.025-0.119-0.101-0.104-0.179c0.015-0.077,0.067-0.128,0.162-0.128l3.098,0.137c0.017,0.001,0.033,0.004,0.049,0.01
					l2.67,1.002c0.075,0.013,0.132,0.077,0.132,0.155C85.259,21.038,85.188,21.109,85.101,21.109z M82.716,20.793h1.508
					l-1.854-0.696l-1.964-0.086L82.716,20.793z"/>
			</g>
			<g>
				<polygon fill="#FFFFFF" points="84.489,24.976 82.114,25.572 82.665,20.951 85.093,20.951 				"/>
				<path fill="#1D1E1C" d="M82.114,25.73c-0.038,0-0.075-0.014-0.104-0.04c-0.039-0.034-0.059-0.085-0.052-0.137l0.551-4.621
					c0.009-0.08,0.076-0.139,0.156-0.139h2.428c0.046,0,0.09,0.02,0.119,0.055c0.03,0.035,0.044,0.081,0.037,0.126L84.646,25
					c-0.01,0.063-0.056,0.114-0.118,0.129l-2.375,0.596C82.14,25.728,82.127,25.73,82.114,25.73z M82.805,21.109l-0.507,4.255
					l2.051-0.515l0.561-3.74H82.805z"/>
			</g>
			<path fill="#1D1E1C" d="M76.723,27.834c-0.446,0-0.857-0.051-1.206-0.141c-0.39-0.1-0.683-0.891-0.737-1.048
				c-0.028-0.083,0.016-0.172,0.098-0.201c0.082-0.028,0.171,0.015,0.201,0.097c0.131,0.378,0.37,0.809,0.517,0.847
				c1.076,0.277,2.791,0.155,4.197-0.739c0.073-0.045,0.172-0.025,0.218,0.049c0.047,0.073,0.025,0.17-0.048,0.217
				C78.929,27.572,77.736,27.834,76.723,27.834z"/>
			<path fill="#1D1E1C" d="M84.329,23.845c-0.229,0.551-0.736,0.861-1.139,0.695c-0.4-0.164-0.543-0.744-0.314-1.295
				c0.227-0.549,0.734-0.861,1.135-0.693C84.415,22.717,84.556,23.297,84.329,23.845z"/>
			<path fill="#1D1E1C" d="M83.783,23.843c-0.014,0-0.027-0.004-0.04-0.011c-0.037-0.022-0.05-0.07-0.028-0.108
				c0.335-0.572,0.519-1.318,0.519-2.101c0-1.707-0.873-3.095-1.947-3.095c-0.625,0-1.217,0.484-1.582,1.295
				c-0.019,0.04-0.064,0.057-0.104,0.04s-0.058-0.064-0.04-0.104c0.393-0.87,1.037-1.388,1.727-1.388
				c1.161,0,2.105,1.459,2.105,3.252c0,0.811-0.192,1.585-0.54,2.181C83.837,23.828,83.811,23.843,83.783,23.843z"/>
			
				<path fill="none" stroke="#1D1E1C" stroke-width="0.3154" stroke-linecap="round" stroke-linejoin="round" stroke-miterlimit="10" d="
				M83.783,23.763"/>
			<path fill="#1D1E1C" d="M83.603,19.524c-0.093,0-0.186-0.042-0.248-0.121c-0.47-0.596-1.148-0.741-1.771-0.382
				c-0.149,0.086-0.344,0.036-0.431-0.116c-0.087-0.151-0.035-0.344,0.116-0.431c0.902-0.519,1.916-0.308,2.582,0.54
				c0.107,0.137,0.084,0.335-0.053,0.443C83.74,19.502,83.671,19.524,83.603,19.524z"/>
			
				<ellipse transform="matrix(0.7677 0.6408 -0.6408 0.7677 34.3923 -44.9166)" fill="#1D1E1C" cx="79.147" cy="24.977" rx="0.608" ry="0.454"/>
			
				<ellipse transform="matrix(0.9237 0.383 -0.383 0.9237 15.4483 -30.2831)" fill="#FFFFFF" cx="83.774" cy="23.654" rx="0.347" ry="0.532"/>
			<path fill="#1D1E1C" d="M80.858,25.652c-0.592,0-1.182-0.205-1.757-0.611c-0.035-0.025-0.044-0.074-0.019-0.11
				c0.025-0.037,0.072-0.044,0.11-0.019c0.686,0.484,1.389,0.668,2.089,0.545c1.259-0.221,2.163-1.347,2.494-1.821
				c0.024-0.036,0.075-0.045,0.109-0.02c0.036,0.025,0.045,0.074,0.02,0.109c-0.342,0.49-1.279,1.656-2.596,1.886
				C81.159,25.639,81.009,25.652,80.858,25.652z"/>
			<g>
				<path fill="#1E1E1C" d="M81.725,28.088l-0.04-0.106h-0.344L81.3,28.09c-0.016,0.043-0.029,0.071-0.04,0.086
					s-0.029,0.022-0.055,0.022c-0.021,0-0.04-0.008-0.058-0.023c-0.016-0.017-0.024-0.034-0.024-0.054
					c0-0.012,0.002-0.023,0.006-0.036s0.011-0.029,0.019-0.052l0.217-0.549c0.006-0.016,0.014-0.034,0.021-0.057
					c0.01-0.021,0.019-0.04,0.028-0.055s0.022-0.026,0.038-0.035c0.016-0.01,0.036-0.014,0.06-0.014c0.024,0,0.044,0.004,0.06,0.014
					c0.016,0.009,0.029,0.021,0.039,0.034c0.01,0.015,0.018,0.03,0.024,0.046c0.007,0.017,0.015,0.038,0.025,0.065l0.222,0.546
					c0.017,0.041,0.025,0.071,0.025,0.09c0,0.021-0.008,0.038-0.024,0.055c-0.017,0.016-0.036,0.024-0.06,0.024
					c-0.014,0-0.025-0.003-0.034-0.008c-0.01-0.005-0.018-0.011-0.024-0.02c-0.006-0.008-0.014-0.021-0.021-0.038
					C81.736,28.116,81.729,28.1,81.725,28.088z M81.386,27.853h0.252l-0.127-0.349L81.386,27.853z"/>
				<path fill="#1E1E1C" d="M82.263,27.822h-0.061v0.271c0,0.036-0.008,0.062-0.023,0.079c-0.016,0.017-0.036,0.025-0.061,0.025
					c-0.027,0-0.049-0.009-0.064-0.026c-0.015-0.018-0.021-0.044-0.021-0.078v-0.65c0-0.037,0.008-0.063,0.023-0.08
					c0.018-0.017,0.044-0.025,0.08-0.025h0.279c0.039,0,0.071,0.002,0.099,0.005c0.027,0.004,0.052,0.011,0.073,0.021
					c0.027,0.011,0.051,0.027,0.07,0.048c0.021,0.021,0.036,0.045,0.047,0.072s0.016,0.057,0.016,0.087
					c0,0.063-0.018,0.114-0.053,0.151c-0.036,0.038-0.09,0.064-0.162,0.08c0.03,0.017,0.06,0.04,0.087,0.071
					c0.028,0.032,0.053,0.065,0.074,0.101c0.022,0.036,0.038,0.068,0.051,0.097s0.019,0.048,0.019,0.06
					c0,0.011-0.004,0.021-0.012,0.032c-0.006,0.012-0.016,0.021-0.028,0.026c-0.013,0.007-0.026,0.01-0.043,0.01
					c-0.019,0-0.035-0.005-0.048-0.014c-0.014-0.009-0.025-0.021-0.034-0.034s-0.022-0.034-0.038-0.062l-0.068-0.114
					c-0.025-0.042-0.047-0.073-0.066-0.096c-0.02-0.021-0.039-0.037-0.059-0.045C82.318,27.826,82.293,27.822,82.263,27.822z
					 M82.36,27.467h-0.158v0.232h0.154c0.041,0,0.075-0.004,0.104-0.011c0.027-0.007,0.049-0.02,0.064-0.036
					c0.015-0.018,0.021-0.041,0.021-0.07c0-0.023-0.006-0.045-0.018-0.062s-0.028-0.031-0.049-0.04S82.419,27.467,82.36,27.467z"/>
				<path fill="#1E1E1C" d="M83.078,27.946h-0.183c-0.027,0-0.049-0.007-0.062-0.02c-0.015-0.013-0.021-0.029-0.021-0.05
					s0.007-0.038,0.021-0.051c0.014-0.013,0.035-0.02,0.062-0.02h0.183c0.028,0,0.05,0.007,0.063,0.02
					c0.015,0.013,0.021,0.03,0.021,0.051s-0.007,0.037-0.021,0.05C83.128,27.939,83.106,27.946,83.078,27.946z"/>
				<path fill="#1E1E1C" d="M83.517,28.104V27.58c-0.098,0.075-0.164,0.112-0.197,0.112c-0.016,0-0.031-0.007-0.043-0.02
					c-0.013-0.013-0.02-0.027-0.02-0.045c0-0.02,0.007-0.033,0.02-0.043c0.012-0.009,0.033-0.021,0.064-0.035
					c0.047-0.022,0.084-0.045,0.111-0.069c0.028-0.024,0.053-0.052,0.074-0.082c0.021-0.029,0.036-0.048,0.043-0.055
					c0.006-0.007,0.019-0.011,0.037-0.011c0.02,0,0.036,0.008,0.049,0.023c0.012,0.017,0.018,0.038,0.018,0.065v0.66
					c0,0.077-0.025,0.116-0.078,0.116c-0.023,0-0.043-0.008-0.057-0.023C83.523,28.158,83.517,28.135,83.517,28.104z"/>
			</g>
			<path fill="#1D1E1C" d="M83.317,30.551h-1.668c-0.462,0-0.899-0.37-0.978-0.824l-0.485-2.842
				c-0.04-0.232,0.017-0.453,0.159-0.622s0.35-0.261,0.585-0.261h2.941c0.233,0,0.443,0.092,0.59,0.259
				c0.147,0.168,0.212,0.388,0.183,0.622l-0.376,2.833C84.209,30.176,83.782,30.551,83.317,30.551z M80.931,26.349
				c-0.131,0-0.244,0.049-0.319,0.138c-0.075,0.089-0.104,0.209-0.082,0.339l0.485,2.842c0.05,0.29,0.34,0.535,0.635,0.535h1.668
				c0.292,0,0.569-0.244,0.606-0.533l0.376-2.833c0.017-0.131-0.019-0.254-0.099-0.346c-0.08-0.091-0.197-0.141-0.329-0.141H80.931z
				"/>
			<g>
				<g>
					<path fill="#FFFFFF" d="M83.858,32.349c-0.118-0.305-0.525-0.553-0.904-0.553h-0.979c-0.379,0-0.814,0.248-0.968,0.553
						c-0.152,0.305,0.033,0.553,0.412,0.553h1.965C83.763,32.902,83.977,32.654,83.858,32.349z"/>
				</g>
				<path fill="#1D1E1C" d="M83.384,33.076h-1.965c-0.257,0-0.464-0.098-0.568-0.267c-0.096-0.155-0.096-0.347,0.001-0.538
					c0.184-0.363,0.677-0.648,1.123-0.648h0.979c0.453,0,0.922,0.291,1.066,0.664c0.072,0.186,0.057,0.371-0.046,0.52
					C83.857,32.978,83.643,33.076,83.384,33.076z M81.975,31.97c-0.311,0-0.689,0.214-0.812,0.457
					c-0.023,0.046-0.056,0.133-0.016,0.199c0.039,0.063,0.142,0.102,0.272,0.102h1.965c0.14,0,0.254-0.044,0.304-0.117
					c0.046-0.066,0.03-0.145,0.009-0.199c-0.092-0.234-0.438-0.441-0.742-0.441H81.975z"/>
			</g>
			<g>
				<rect x="82.114" y="30.377" fill="#FFFFFF" width="0.575" height="1.42"/>
				<path fill="#1D1E1C" d="M82.863,31.97H81.94v-1.768h0.923V31.97z M82.288,31.623h0.228v-1.072h-0.228V31.623z"/>
			</g>
			<g>
				<g>
					<path fill="#F19106" d="M82.281,27.332c-0.483,0-0.924,0.176-1.282,0.465c-0.239-0.842-1.123-1.467-2.184-1.467
						c-1.246,0-2.254,0.859-2.254,1.918c0,1.064,1.008,1.924,2.254,1.924c0.51,0,0.977-0.152,1.355-0.395
						c0.092,1.156,0.996,2.064,2.11,2.064c1.177,0,2.13-1.01,2.13-2.254C84.411,28.34,83.458,27.332,82.281,27.332z"/>
					<path fill="#1D1E1C" d="M82.281,32c-1.115,0-2.039-0.83-2.237-1.968c-0.378,0.195-0.798,0.298-1.229,0.298
						c-1.33,0-2.411-0.934-2.411-2.082c0-1.145,1.081-2.076,2.411-2.076c1.024,0,1.922,0.554,2.262,1.372
						c0.364-0.243,0.776-0.37,1.204-0.37c1.262,0,2.287,1.083,2.287,2.414C84.568,30.918,83.543,32,82.281,32z M80.171,29.619
						c0.024,0,0.048,0.006,0.07,0.018c0.05,0.023,0.082,0.072,0.087,0.128c0.087,1.095,0.927,1.919,1.953,1.919
						c1.088,0,1.973-0.939,1.973-2.096s-0.885-2.098-1.973-2.098c-0.426,0-0.835,0.148-1.184,0.43
						c-0.04,0.033-0.096,0.044-0.146,0.027c-0.051-0.016-0.09-0.057-0.104-0.107c-0.227-0.796-1.062-1.352-2.032-1.352
						c-1.156,0-2.097,0.79-2.097,1.76c0,0.974,0.94,1.766,2.097,1.766c0.453,0,0.893-0.127,1.271-0.369
						C80.111,29.628,80.142,29.619,80.171,29.619z"/>
				</g>
				<path fill="#1D1E1C" d="M82.749,29.398c-0.023,0-0.047-0.006-0.069-0.017l-10.438-5.08c-0.078-0.038-0.11-0.132-0.072-0.21
					c0.038-0.079,0.132-0.114,0.211-0.073l10.438,5.08c0.078,0.038,0.11,0.132,0.072,0.21
					C82.863,29.365,82.808,29.398,82.749,29.398z"/>
				<path fill="#1D1E1C" d="M82.569,29.773c-0.021,0-0.043-0.005-0.063-0.014l-10.752-4.76c-0.08-0.035-0.116-0.128-0.081-0.208
					s0.128-0.116,0.208-0.08l10.752,4.759c0.08,0.035,0.116,0.129,0.081,0.209C82.688,29.738,82.63,29.773,82.569,29.773z"/>
				<path fill="#1D1E1C" d="M82.389,30.135c-0.021,0-0.042-0.004-0.062-0.014l-10.675-4.55c-0.08-0.034-0.118-0.127-0.084-0.207
					c0.035-0.079,0.13-0.118,0.207-0.083l10.675,4.551c0.08,0.033,0.118,0.127,0.084,0.207
					C82.508,30.097,82.45,30.135,82.389,30.135z"/>
				<path fill="#1D1E1C" d="M73.329,27.092c-0.021,0-0.041-0.004-0.061-0.013l-2.467-1.023c-0.038-0.016-0.069-0.046-0.085-0.085
					c-0.017-0.039-0.017-0.082,0-0.121l1.025-2.467c0.034-0.081,0.128-0.117,0.206-0.085l2.467,1.023
					c0.038,0.016,0.069,0.046,0.085,0.085c0.017,0.039,0.017,0.082,0,0.121l-1.025,2.467C73.449,27.054,73.391,27.092,73.329,27.092
					z M71.068,25.825l2.176,0.902l0.904-2.176l-2.176-0.902L71.068,25.825z"/>
				<path fill="#1D1E1C" d="M82.515,29.15c0,0.502-0.402,0.904-0.902,0.904c-0.498,0-0.9-0.402-0.9-0.904
					c0-0.496,0.402-0.902,0.9-0.902C82.112,28.248,82.515,28.654,82.515,29.15z"/>
				<path fill="#1D1E1C" d="M72.386,23.734c-0.023,0-0.048-0.005-0.07-0.017c-0.078-0.039-0.109-0.133-0.071-0.211l0.25-0.502
					c0.04-0.078,0.134-0.11,0.212-0.071c0.078,0.039,0.109,0.133,0.071,0.211l-0.25,0.502
					C72.499,23.701,72.443,23.734,72.386,23.734z"/>
				<path fill="#1D1E1C" d="M73.306,24.066c-0.024,0-0.05-0.006-0.072-0.018c-0.078-0.04-0.107-0.135-0.067-0.213l0.267-0.514
					c0.039-0.078,0.138-0.107,0.212-0.067c0.078,0.04,0.107,0.135,0.067,0.213l-0.267,0.514
					C73.418,24.035,73.362,24.066,73.306,24.066z"/>
				<path fill="#1D1E1C" d="M73.972,24.359c-0.034,0-0.069-0.011-0.099-0.035c-0.067-0.054-0.079-0.153-0.024-0.222l0.334-0.418
					c0.055-0.067,0.153-0.08,0.222-0.024c0.067,0.054,0.079,0.153,0.024,0.222L74.095,24.3
					C74.063,24.338,74.018,24.359,73.972,24.359z"/>
				<path fill="#1D1E1C" d="M71.134,26.822c-0.015,0-0.028-0.002-0.043-0.006c-0.084-0.024-0.133-0.112-0.108-0.195l0.166-0.584
					c0.023-0.084,0.111-0.13,0.194-0.109c0.084,0.024,0.133,0.111,0.108,0.195l-0.166,0.584
					C71.266,26.776,71.202,26.822,71.134,26.822z"/>
				<path fill="#1D1E1C" d="M71.885,27.072c-0.009,0-0.017-0.001-0.025-0.002c-0.086-0.016-0.145-0.096-0.13-0.182l0.083-0.5
					c0.014-0.086,0.096-0.145,0.181-0.13c0.086,0.015,0.145,0.096,0.13,0.182l-0.083,0.5C72.027,27.017,71.961,27.072,71.885,27.072
					z"/>
				<path fill="#1D1E1C" d="M72.632,27.414c-0.018,0-0.035-0.004-0.053-0.01c-0.082-0.029-0.125-0.119-0.096-0.201l0.15-0.426
					c0.028-0.082,0.118-0.125,0.201-0.096c0.082,0.029,0.125,0.119,0.096,0.202l-0.15,0.426
					C72.758,27.373,72.697,27.414,72.632,27.414z"/>
			</g>
			<path fill="#1D1E1C" d="M83.698,29.267c-0.05,0-0.099-0.023-0.129-0.067c-0.05-0.071-0.033-0.17,0.038-0.22
				c1.441-1.014,1.537-1.469,1.511-1.617c-0.022-0.129-0.172-0.172-0.179-0.174c-0.083-0.022-0.134-0.108-0.111-0.192
				s0.106-0.135,0.189-0.112c0.13,0.032,0.362,0.157,0.411,0.419c0.086,0.466-0.45,1.099-1.64,1.935
				C83.762,29.258,83.729,29.267,83.698,29.267z"/>
			<path fill="#1D1E1C" d="M83.307,29.838c-0.064,0-0.125-0.04-0.148-0.104c-0.029-0.082,0.013-0.173,0.095-0.203
				c0.132-0.048,0.241-0.139,0.286-0.236c0.016-0.033,0.029-0.082,0.012-0.13c-0.015-0.041-0.046-0.071-0.093-0.095
				c-0.096-0.045-0.238-0.043-0.375,0.004c-0.081,0.029-0.172-0.013-0.201-0.096c-0.029-0.082,0.014-0.172,0.096-0.201
				c0.216-0.076,0.44-0.074,0.615,0.009c0.124,0.059,0.212,0.152,0.254,0.271c0.043,0.113,0.036,0.246-0.021,0.37
				c-0.08,0.177-0.25,0.323-0.465,0.401C83.343,29.834,83.324,29.838,83.307,29.838z"/>
			<path fill="#1D1E1C" d="M74.983,26.808c-0.05,0-0.1-0.008-0.148-0.025c-0.118-0.041-0.217-0.131-0.276-0.255
				c-0.085-0.175-0.09-0.398-0.015-0.612c0.028-0.083,0.122-0.125,0.2-0.097c0.083,0.029,0.126,0.119,0.097,0.201
				c-0.047,0.133-0.046,0.271,0.002,0.37c0.016,0.034,0.046,0.078,0.096,0.095c0.1,0.036,0.282-0.078,0.363-0.306
				c0.028-0.083,0.12-0.125,0.2-0.097c0.083,0.029,0.126,0.119,0.097,0.201C75.487,26.603,75.235,26.808,74.983,26.808z"/>
		</g>
	</g>
	<g>
		<path fill="#F19106" d="M68.324,32.279c0,1.65-1.351,3-3,3H0.46c-1.65,0-3-1.35-3-3v-12.5c0-1.648,1.35-3,3-3h64.864
			c1.649,0,3,1.352,3,3V32.279z"/>
	</g>
	<path fill="#F19106" d="M68.022,26.892v-5.867c0,0,2.755-0.043,3.406,1.004C68.741,23.228,68.022,26.892,68.022,26.892z"/>
	<g>
		<path fill="#FFFFFF" d="M2.243,24.732h0.035c0.094,0,0.178,0.035,0.253,0.107c0.075,0.071,0.112,0.161,0.112,0.268
			c0,0.105-0.037,0.192-0.112,0.261S2.363,25.47,2.254,25.47c-0.121,0-0.221-0.048-0.301-0.145
			c-0.079-0.097-0.119-0.233-0.119-0.411c0-0.163,0.034-0.315,0.104-0.458s0.155-0.256,0.257-0.339s0.191-0.124,0.271-0.124
			c0.053,0,0.094,0.016,0.123,0.047c0.03,0.031,0.045,0.071,0.045,0.121c0,0.072-0.032,0.126-0.097,0.16
			C2.45,24.37,2.381,24.426,2.33,24.49S2.25,24.635,2.243,24.732z M3.335,24.732h0.032c0.092,0,0.176,0.035,0.251,0.107
			c0.074,0.071,0.112,0.161,0.112,0.268c0,0.104-0.038,0.191-0.112,0.262C3.543,25.44,3.45,25.475,3.34,25.475
			c-0.122,0-0.222-0.05-0.301-0.148S2.92,25.091,2.92,24.915c0-0.127,0.021-0.246,0.062-0.358c0.041-0.111,0.094-0.209,0.159-0.292
			c0.064-0.084,0.135-0.149,0.21-0.198c0.074-0.048,0.142-0.072,0.201-0.072c0.054,0,0.096,0.015,0.124,0.045
			c0.029,0.031,0.044,0.071,0.044,0.123c0,0.073-0.032,0.127-0.097,0.16c-0.091,0.051-0.159,0.107-0.205,0.169
			S3.345,24.634,3.335,24.732z"/>
		<path fill="#FFFFFF" d="M6.703,24.621H5.052v0.889h1.521c0.112,0,0.196,0.025,0.251,0.075c0.055,0.051,0.083,0.117,0.083,0.199
			s-0.027,0.149-0.082,0.201c-0.054,0.052-0.138,0.078-0.252,0.078H5.052v1.029h1.709c0.115,0,0.201,0.027,0.26,0.08
			c0.059,0.054,0.088,0.125,0.088,0.214c0,0.086-0.029,0.155-0.088,0.209s-0.145,0.08-0.26,0.08H4.768
			c-0.16,0-0.274-0.035-0.345-0.106c-0.07-0.07-0.104-0.185-0.104-0.343v-2.722c0-0.105,0.016-0.191,0.047-0.258
			s0.08-0.115,0.146-0.146c0.066-0.031,0.152-0.046,0.256-0.046h1.936c0.117,0,0.204,0.025,0.261,0.078
			c0.057,0.052,0.085,0.119,0.085,0.203c0,0.086-0.028,0.154-0.085,0.206S6.82,24.621,6.703,24.621z"/>
		<path fill="#FFFFFF" d="M9.348,27.357c-0.163,0.127-0.32,0.222-0.473,0.285s-0.323,0.095-0.513,0.095
			c-0.173,0-0.324-0.034-0.455-0.103s-0.231-0.16-0.303-0.277c-0.07-0.117-0.106-0.244-0.106-0.381c0-0.184,0.059-0.341,0.176-0.472
			c0.117-0.13,0.277-0.217,0.481-0.262c0.043-0.01,0.149-0.032,0.318-0.066c0.17-0.034,0.315-0.066,0.437-0.095
			c0.12-0.029,0.252-0.064,0.394-0.105c-0.009-0.178-0.044-0.308-0.107-0.392c-0.063-0.083-0.195-0.124-0.394-0.124
			c-0.172,0-0.301,0.023-0.387,0.071c-0.087,0.048-0.161,0.119-0.223,0.215s-0.105,0.158-0.131,0.188
			c-0.025,0.031-0.08,0.046-0.164,0.046c-0.076,0-0.142-0.024-0.196-0.072c-0.056-0.049-0.083-0.111-0.083-0.187
			c0-0.119,0.042-0.234,0.126-0.346c0.084-0.112,0.215-0.204,0.393-0.276c0.178-0.073,0.399-0.109,0.665-0.109
			c0.296,0,0.529,0.035,0.698,0.105c0.17,0.069,0.289,0.181,0.359,0.332s0.105,0.353,0.105,0.603c0,0.158-0.001,0.292-0.002,0.402
			s-0.002,0.233-0.003,0.368c0,0.127,0.021,0.259,0.062,0.396c0.042,0.137,0.062,0.226,0.062,0.266c0,0.068-0.032,0.132-0.097,0.188
			c-0.065,0.057-0.139,0.085-0.222,0.085c-0.069,0-0.138-0.032-0.205-0.098C9.495,27.575,9.424,27.48,9.348,27.357z M9.304,26.382
			c-0.099,0.036-0.242,0.074-0.431,0.115c-0.188,0.04-0.319,0.069-0.392,0.089c-0.072,0.019-0.142,0.056-0.208,0.11
			c-0.065,0.056-0.099,0.133-0.099,0.231c0,0.102,0.039,0.188,0.116,0.261c0.077,0.071,0.179,0.107,0.304,0.107
			c0.134,0,0.257-0.029,0.369-0.088c0.113-0.059,0.195-0.134,0.248-0.227c0.062-0.102,0.092-0.27,0.092-0.503V26.382z"/>
		<path fill="#FFFFFF" d="M12.82,26.855c0,0.187-0.045,0.346-0.136,0.479c-0.09,0.132-0.224,0.232-0.401,0.301
			c-0.177,0.068-0.392,0.103-0.646,0.103c-0.242,0-0.449-0.037-0.622-0.111c-0.173-0.073-0.301-0.166-0.383-0.277
			s-0.124-0.223-0.124-0.335c0-0.074,0.026-0.137,0.079-0.189s0.12-0.079,0.2-0.079c0.071,0,0.125,0.017,0.163,0.052
			c0.038,0.034,0.074,0.083,0.108,0.146c0.069,0.12,0.152,0.21,0.248,0.27c0.097,0.059,0.229,0.089,0.395,0.089
			c0.135,0,0.245-0.03,0.332-0.091c0.086-0.06,0.13-0.129,0.13-0.206c0-0.118-0.045-0.205-0.135-0.259
			c-0.09-0.055-0.237-0.106-0.443-0.156c-0.232-0.058-0.421-0.118-0.566-0.182c-0.146-0.062-0.263-0.146-0.35-0.25
			c-0.088-0.104-0.131-0.231-0.131-0.383c0-0.135,0.04-0.263,0.121-0.383c0.08-0.12,0.199-0.216,0.356-0.288
			c0.157-0.071,0.347-0.107,0.569-0.107c0.175,0,0.331,0.019,0.471,0.055c0.139,0.036,0.255,0.085,0.348,0.146
			c0.093,0.062,0.164,0.129,0.213,0.202c0.048,0.074,0.072,0.147,0.072,0.218c0,0.077-0.025,0.141-0.077,0.19
			c-0.052,0.049-0.126,0.074-0.222,0.074c-0.068,0-0.128-0.021-0.176-0.06c-0.049-0.04-0.104-0.099-0.167-0.178
			c-0.051-0.066-0.111-0.119-0.181-0.158s-0.163-0.06-0.281-0.06c-0.122,0-0.224,0.026-0.304,0.078
			c-0.081,0.052-0.121,0.116-0.121,0.193c0,0.071,0.029,0.129,0.089,0.175c0.06,0.045,0.139,0.082,0.239,0.112
			c0.101,0.029,0.239,0.065,0.415,0.108c0.209,0.051,0.38,0.112,0.513,0.183c0.133,0.071,0.232,0.154,0.301,0.251
			C12.786,26.622,12.82,26.732,12.82,26.855z"/>
		<path fill="#FFFFFF" d="M14.014,27.821l0.062-0.15l-0.83-2.089c-0.051-0.12-0.076-0.208-0.076-0.262
			c0-0.058,0.015-0.111,0.044-0.161c0.03-0.049,0.071-0.089,0.123-0.118c0.052-0.03,0.105-0.045,0.161-0.045
			c0.098,0,0.171,0.031,0.22,0.093c0.05,0.062,0.094,0.15,0.131,0.266l0.571,1.659l0.54-1.543c0.043-0.125,0.082-0.224,0.116-0.294
			c0.035-0.071,0.071-0.118,0.11-0.144c0.038-0.024,0.093-0.037,0.164-0.037c0.051,0,0.1,0.014,0.146,0.041s0.083,0.063,0.109,0.11
			c0.025,0.046,0.038,0.095,0.038,0.146c-0.007,0.031-0.018,0.075-0.032,0.133s-0.033,0.116-0.055,0.176l-0.879,2.302
			c-0.076,0.202-0.149,0.361-0.223,0.477c-0.072,0.115-0.168,0.203-0.287,0.266c-0.119,0.062-0.28,0.092-0.483,0.092
			c-0.197,0-0.346-0.021-0.444-0.063c-0.099-0.043-0.147-0.121-0.147-0.235c0-0.077,0.023-0.137,0.07-0.179s0.116-0.062,0.208-0.062
			c0.036,0,0.072,0.005,0.106,0.015c0.043,0.01,0.08,0.015,0.111,0.015c0.077,0,0.138-0.012,0.183-0.034
			c0.044-0.023,0.084-0.063,0.12-0.12C13.927,28.015,13.968,27.931,14.014,27.821z"/>
		<path fill="#FFFFFF" d="M17.396,27.327v-2.924c0-0.135,0.029-0.236,0.09-0.306c0.06-0.069,0.141-0.104,0.243-0.104
			c0.102,0,0.185,0.034,0.247,0.103s0.094,0.17,0.094,0.307v2.924c0,0.137-0.032,0.239-0.095,0.308
			c-0.063,0.068-0.146,0.103-0.246,0.103c-0.099,0-0.179-0.035-0.241-0.106C17.427,27.56,17.396,27.459,17.396,27.327z"/>
		<path fill="#FFFFFF" d="M19.108,24.682c-0.095,0-0.175-0.028-0.241-0.086s-0.1-0.14-0.1-0.245c0-0.095,0.034-0.174,0.102-0.235
			c0.068-0.062,0.148-0.093,0.239-0.093c0.087,0,0.164,0.028,0.231,0.084s0.102,0.138,0.102,0.244c0,0.104-0.033,0.186-0.099,0.243
			C19.276,24.653,19.198,24.682,19.108,24.682z M19.441,25.379v1.948c0,0.136-0.032,0.237-0.097,0.307
			c-0.063,0.069-0.146,0.104-0.244,0.104s-0.179-0.035-0.241-0.106c-0.062-0.07-0.092-0.172-0.092-0.304v-1.929
			c0-0.133,0.03-0.233,0.092-0.301c0.062-0.067,0.143-0.102,0.241-0.102s0.181,0.034,0.244,0.102
			C19.409,25.165,19.441,25.259,19.441,25.379z"/>
		<path fill="#FFFFFF" d="M22.308,26.855c0,0.187-0.045,0.346-0.136,0.479c-0.09,0.132-0.224,0.232-0.401,0.301
			c-0.177,0.068-0.392,0.103-0.646,0.103c-0.242,0-0.449-0.037-0.622-0.111c-0.173-0.073-0.301-0.166-0.383-0.277
			s-0.124-0.223-0.124-0.335c0-0.074,0.026-0.137,0.079-0.189s0.12-0.079,0.2-0.079c0.071,0,0.125,0.017,0.163,0.052
			c0.038,0.034,0.074,0.083,0.108,0.146c0.069,0.12,0.152,0.21,0.248,0.27c0.097,0.059,0.229,0.089,0.395,0.089
			c0.135,0,0.245-0.03,0.332-0.091c0.086-0.06,0.13-0.129,0.13-0.206c0-0.118-0.045-0.205-0.135-0.259
			c-0.09-0.055-0.237-0.106-0.443-0.156c-0.232-0.058-0.421-0.118-0.566-0.182c-0.146-0.062-0.263-0.146-0.35-0.25
			c-0.088-0.104-0.131-0.231-0.131-0.383c0-0.135,0.04-0.263,0.121-0.383c0.08-0.12,0.199-0.216,0.356-0.288
			c0.157-0.071,0.347-0.107,0.569-0.107c0.175,0,0.331,0.019,0.471,0.055c0.139,0.036,0.255,0.085,0.348,0.146
			c0.093,0.062,0.164,0.129,0.213,0.202c0.048,0.074,0.072,0.147,0.072,0.218c0,0.077-0.025,0.141-0.077,0.19
			c-0.052,0.049-0.126,0.074-0.222,0.074c-0.068,0-0.128-0.021-0.176-0.06c-0.049-0.04-0.104-0.099-0.167-0.178
			c-0.051-0.066-0.111-0.119-0.181-0.158s-0.163-0.06-0.281-0.06c-0.122,0-0.224,0.026-0.304,0.078
			c-0.081,0.052-0.121,0.116-0.121,0.193c0,0.071,0.029,0.129,0.089,0.175c0.06,0.045,0.139,0.082,0.239,0.112
			c0.101,0.029,0.239,0.065,0.415,0.108c0.209,0.051,0.38,0.112,0.513,0.183c0.133,0.071,0.232,0.154,0.301,0.251
			C22.273,26.622,22.308,26.732,22.308,26.855z"/>
		<path fill="#FFFFFF" d="M22.915,25.055h0.074V24.65c0-0.108,0.003-0.193,0.009-0.255c0.006-0.062,0.022-0.115,0.049-0.16
			c0.025-0.046,0.063-0.083,0.113-0.112c0.049-0.028,0.104-0.043,0.165-0.043c0.086,0,0.163,0.032,0.232,0.097
			c0.046,0.043,0.075,0.095,0.088,0.156c0.012,0.062,0.019,0.149,0.019,0.264v0.459h0.247c0.095,0,0.168,0.022,0.218,0.068
			c0.051,0.045,0.075,0.103,0.075,0.174c0,0.091-0.035,0.153-0.107,0.19c-0.071,0.036-0.174,0.054-0.307,0.054h-0.126v1.24
			c0,0.104,0.003,0.187,0.011,0.243s0.027,0.103,0.06,0.138c0.032,0.036,0.084,0.054,0.156,0.054c0.04,0,0.094-0.007,0.161-0.021
			c0.067-0.014,0.12-0.021,0.158-0.021c0.054,0,0.103,0.021,0.146,0.065c0.044,0.043,0.065,0.098,0.065,0.161
			c0,0.109-0.06,0.192-0.178,0.25s-0.289,0.086-0.511,0.086c-0.211,0-0.371-0.035-0.479-0.106c-0.108-0.07-0.18-0.168-0.214-0.293
			c-0.033-0.126-0.051-0.293-0.051-0.502v-1.294H22.9c-0.097,0-0.171-0.022-0.222-0.069c-0.052-0.046-0.077-0.104-0.077-0.175
			c0-0.071,0.027-0.129,0.081-0.174C22.735,25.078,22.813,25.055,22.915,25.055z"/>
		<path fill="#FFFFFF" d="M26.55,26.532h-1.318c0.002,0.153,0.032,0.288,0.093,0.405c0.06,0.117,0.14,0.205,0.239,0.264
			c0.1,0.06,0.21,0.09,0.33,0.09c0.08,0,0.154-0.01,0.221-0.029c0.066-0.019,0.132-0.048,0.194-0.089
			c0.062-0.04,0.12-0.083,0.173-0.129c0.053-0.047,0.121-0.109,0.205-0.188c0.034-0.029,0.084-0.044,0.147-0.044
			c0.069,0,0.125,0.019,0.168,0.057s0.064,0.092,0.064,0.16c0,0.062-0.023,0.133-0.071,0.214c-0.048,0.082-0.12,0.16-0.217,0.234
			c-0.096,0.075-0.217,0.138-0.362,0.187c-0.146,0.05-0.313,0.074-0.503,0.074c-0.433,0-0.77-0.123-1.01-0.37
			s-0.36-0.582-0.36-1.005c0-0.199,0.029-0.385,0.089-0.555c0.059-0.17,0.146-0.316,0.259-0.438s0.254-0.215,0.42-0.28
			c0.166-0.064,0.351-0.098,0.553-0.098c0.264,0,0.49,0.056,0.679,0.167s0.329,0.255,0.423,0.431
			c0.094,0.177,0.141,0.355,0.141,0.538c0,0.17-0.048,0.28-0.146,0.33C26.863,26.508,26.727,26.532,26.55,26.532z M25.231,26.149
			h1.223c-0.017-0.23-0.079-0.402-0.187-0.518c-0.108-0.114-0.25-0.171-0.426-0.171c-0.168,0-0.306,0.058-0.414,0.174
			C25.32,25.751,25.255,25.923,25.231,26.149z"/>
		<path fill="#FFFFFF" d="M28.287,25.369v0.082c0.118-0.157,0.248-0.271,0.389-0.345s0.303-0.11,0.485-0.11
			c0.178,0,0.337,0.039,0.477,0.116s0.244,0.188,0.313,0.328c0.045,0.083,0.073,0.172,0.087,0.268
			c0.013,0.095,0.02,0.217,0.02,0.365v1.254c0,0.136-0.031,0.237-0.093,0.307s-0.142,0.104-0.241,0.104s-0.182-0.035-0.244-0.106
			c-0.062-0.07-0.094-0.172-0.094-0.304v-1.123c0-0.223-0.031-0.393-0.093-0.51c-0.062-0.118-0.185-0.177-0.369-0.177
			c-0.12,0-0.229,0.036-0.328,0.107s-0.172,0.17-0.218,0.295c-0.032,0.101-0.049,0.288-0.049,0.563v0.844
			c0,0.137-0.032,0.239-0.096,0.308s-0.145,0.103-0.245,0.103c-0.098,0-0.178-0.035-0.24-0.106c-0.062-0.07-0.094-0.172-0.094-0.304
			v-1.948c0-0.128,0.028-0.224,0.084-0.287c0.057-0.063,0.133-0.096,0.229-0.096c0.06,0,0.113,0.015,0.161,0.042
			c0.048,0.028,0.086,0.07,0.114,0.126C28.272,25.22,28.287,25.289,28.287,25.369z"/>
		<path fill="#FFFFFF" d="M31.07,24.682c-0.095,0-0.175-0.028-0.241-0.086s-0.1-0.14-0.1-0.245c0-0.095,0.034-0.174,0.102-0.235
			c0.068-0.062,0.148-0.093,0.239-0.093c0.087,0,0.164,0.028,0.231,0.084s0.102,0.138,0.102,0.244c0,0.104-0.033,0.186-0.099,0.243
			C31.238,24.653,31.16,24.682,31.07,24.682z M31.403,25.379v1.948c0,0.136-0.032,0.237-0.097,0.307
			c-0.063,0.069-0.146,0.104-0.244,0.104s-0.179-0.035-0.241-0.106c-0.062-0.07-0.092-0.172-0.092-0.304v-1.929
			c0-0.133,0.03-0.233,0.092-0.301c0.062-0.067,0.143-0.102,0.241-0.102s0.181,0.034,0.244,0.102
			C31.371,25.165,31.403,25.259,31.403,25.379z"/>
		<path fill="#FFFFFF" d="M32.712,25.369v0.082c0.118-0.157,0.248-0.271,0.389-0.345s0.303-0.11,0.485-0.11
			c0.178,0,0.337,0.039,0.477,0.116s0.244,0.188,0.313,0.328c0.045,0.083,0.073,0.172,0.087,0.268
			c0.013,0.095,0.02,0.217,0.02,0.365v1.254c0,0.136-0.031,0.237-0.093,0.307s-0.142,0.104-0.241,0.104s-0.182-0.035-0.244-0.106
			c-0.062-0.07-0.094-0.172-0.094-0.304v-1.123c0-0.223-0.031-0.393-0.093-0.51c-0.062-0.118-0.185-0.177-0.369-0.177
			c-0.12,0-0.229,0.036-0.328,0.107s-0.172,0.17-0.218,0.295c-0.032,0.101-0.049,0.288-0.049,0.563v0.844
			c0,0.137-0.032,0.239-0.096,0.308s-0.145,0.103-0.245,0.103c-0.098,0-0.178-0.035-0.24-0.106c-0.062-0.07-0.094-0.172-0.094-0.304
			v-1.948c0-0.128,0.028-0.224,0.084-0.287c0.057-0.063,0.133-0.096,0.229-0.096c0.06,0,0.113,0.015,0.161,0.042
			c0.048,0.028,0.086,0.07,0.114,0.126C32.697,25.22,32.712,25.289,32.712,25.369z"/>
		<path fill="#FFFFFF" d="M37.633,25.49v1.958c0,0.225-0.023,0.417-0.071,0.578s-0.124,0.295-0.229,0.4s-0.243,0.184-0.414,0.234
			c-0.17,0.051-0.382,0.076-0.636,0.076c-0.232,0-0.439-0.032-0.622-0.098c-0.183-0.064-0.323-0.148-0.422-0.251
			c-0.1-0.104-0.148-0.209-0.148-0.317c0-0.083,0.027-0.149,0.084-0.201c0.056-0.053,0.123-0.078,0.202-0.078
			c0.099,0,0.186,0.043,0.26,0.131c0.036,0.044,0.073,0.089,0.112,0.135c0.038,0.045,0.081,0.084,0.128,0.116
			c0.047,0.031,0.104,0.056,0.169,0.071c0.066,0.016,0.142,0.023,0.228,0.023c0.175,0,0.31-0.024,0.406-0.073
			c0.097-0.048,0.164-0.116,0.202-0.203c0.039-0.088,0.062-0.181,0.068-0.28s0.012-0.26,0.015-0.48
			c-0.104,0.145-0.224,0.255-0.359,0.331c-0.136,0.075-0.298,0.113-0.485,0.113c-0.226,0-0.423-0.058-0.591-0.173
			c-0.169-0.115-0.299-0.276-0.39-0.484c-0.09-0.207-0.136-0.446-0.136-0.719c0-0.202,0.028-0.385,0.083-0.548
			s0.134-0.301,0.236-0.412c0.102-0.112,0.22-0.196,0.353-0.253c0.134-0.058,0.28-0.086,0.439-0.086c0.191,0,0.356,0.037,0.497,0.11
			c0.14,0.073,0.27,0.188,0.39,0.345v-0.092c0-0.117,0.029-0.207,0.087-0.271s0.131-0.097,0.222-0.097
			c0.13,0,0.217,0.043,0.26,0.128C37.611,25.208,37.633,25.331,37.633,25.49z M35.68,26.344c0,0.273,0.06,0.479,0.18,0.62
			c0.119,0.14,0.273,0.21,0.463,0.21c0.111,0,0.218-0.03,0.317-0.091c0.1-0.06,0.181-0.15,0.243-0.271s0.094-0.268,0.094-0.44
			c0-0.275-0.061-0.489-0.182-0.643c-0.121-0.152-0.28-0.229-0.478-0.229c-0.193,0-0.348,0.073-0.464,0.22
			C35.738,25.866,35.68,26.075,35.68,26.344z"/>
		<path fill="#FFFFFF" d="M38.555,24.742h-0.037c-0.093,0-0.176-0.037-0.251-0.112c-0.074-0.075-0.112-0.164-0.112-0.266
			c0-0.105,0.038-0.193,0.112-0.265c0.075-0.07,0.167-0.105,0.275-0.105c0.124,0,0.225,0.049,0.303,0.147
			c0.078,0.1,0.117,0.236,0.117,0.413c0,0.161-0.034,0.312-0.103,0.455s-0.152,0.256-0.252,0.34s-0.189,0.126-0.271,0.126
			c-0.051,0-0.093-0.017-0.124-0.048c-0.032-0.032-0.049-0.071-0.049-0.118c0-0.073,0.034-0.128,0.102-0.162
			c0.087-0.052,0.155-0.107,0.205-0.168C38.52,24.918,38.548,24.839,38.555,24.742z M39.641,24.742h-0.029
			c-0.094,0-0.179-0.037-0.256-0.111c-0.076-0.074-0.114-0.163-0.114-0.267s0.038-0.191,0.113-0.263
			c0.076-0.072,0.168-0.107,0.276-0.107c0.125,0,0.227,0.048,0.304,0.146c0.078,0.097,0.116,0.235,0.116,0.415
			c0,0.166-0.034,0.319-0.103,0.46s-0.152,0.253-0.252,0.336s-0.19,0.125-0.272,0.125c-0.053,0-0.095-0.016-0.126-0.047
			s-0.047-0.071-0.047-0.119c0-0.072,0.033-0.126,0.102-0.162c0.094-0.055,0.163-0.111,0.21-0.17
			C39.608,24.92,39.635,24.841,39.641,24.742z"/>
	</g>
	<g>
		<polygon fill="#FFFFFF" points="57.732,23.228 57.732,28.41 62.316,25.82 		"/>
		<path fill="#FFFFFF" d="M59.235,21.138c2.639,0,4.775,2.143,4.775,4.775c0,2.637-2.137,4.773-4.775,4.773
			c-2.631,0-4.769-2.137-4.769-4.773C54.467,23.281,56.604,21.138,59.235,21.138 M59.235,20.638c-2.905,0-5.269,2.367-5.269,5.275
			c0,2.908,2.363,5.273,5.269,5.273c2.909,0,5.275-2.365,5.275-5.273C64.511,23.005,62.145,20.638,59.235,20.638L59.235,20.638z"/>
	</g>
</g>
</svg>
