<?xml version="1.0" encoding="utf-8"?>
<!-- Generator: Adobe Illustrator 15.0.2, SVG Export Plug-In . SVG Version: 6.00 Build 0)  -->
<!DOCTYPE svg PUBLIC "-//W3C//DTD SVG 1.1//EN" "http://www.w3.org/Graphics/SVG/1.1/DTD/svg11.dtd" [
	<!ENTITY ns_extend "http://ns.adobe.com/Extensibility/1.0/">
	<!ENTITY ns_ai "http://ns.adobe.com/AdobeIllustrator/10.0/">
	<!ENTITY ns_graphs "http://ns.adobe.com/Graphs/1.0/">
	<!ENTITY ns_vars "http://ns.adobe.com/Variables/1.0/">
	<!ENTITY ns_imrep "http://ns.adobe.com/ImageReplacement/1.0/">
	<!ENTITY ns_sfw "http://ns.adobe.com/SaveForWeb/1.0/">
	<!ENTITY ns_custom "http://ns.adobe.com/GenericCustomNamespace/1.0/">
	<!ENTITY ns_adobe_xpath "http://ns.adobe.com/XPath/1.0/">
]>
<svg version="1.1" id="Layer_1" xmlns:x="&ns_extend;" xmlns:i="&ns_ai;" xmlns:graph="&ns_graphs;"
	 xmlns="http://www.w3.org/2000/svg" xmlns:xlink="http://www.w3.org/1999/xlink" x="0px" y="0px" width="79.542px"
	 height="15.875px" viewBox="0 0 79.542 15.875" enable-background="new 0 0 79.542 15.875" xml:space="preserve">
<metadata>
	<sfw  xmlns="&ns_sfw;">
		<slices></slices>
		<sliceSourceBounds  y="289.562" x="380.729" height="15.876" width="35.878" bottomLeftOrigin="true"></sliceSourceBounds>
	</sfw>
</metadata>
<g>
	
		<radialGradient id="SVGID_1_" cx="-689.2095" cy="-1657.9541" r="20.1896" gradientTransform="matrix(0.4097 0 0 -0.0996 290.7762 -151.4959)" gradientUnits="userSpaceOnUse">
		<stop  offset="0" style="stop-color:#7EABCE"/>
		<stop  offset="0.1438" style="stop-color:#AACCE4"/>
		<stop  offset="0.3067" style="stop-color:#D9EFFC"/>
		<stop  offset="0.3387" style="stop-color:#DDF0FC"/>
		<stop  offset="0.5524" style="stop-color:#F0F9FE"/>
		<stop  offset="0.7709" style="stop-color:#FBFDFF"/>
		<stop  offset="1" style="stop-color:#FFFFFF"/>
	</radialGradient>
	<ellipse fill="url(#SVGID_1_)" cx="8.407" cy="13.65" rx="8.407" ry="2.225"/>
	<g>
		<g>
			<g>
				<circle fill="#FFFFFF" cx="7.854" cy="2.789" r="2.199"/>
				<path fill="#1D1E1C" d="M7.854,5.107c-1.278,0-2.317-1.039-2.317-2.317s1.039-2.317,2.317-2.317s2.318,1.039,2.318,2.317
					S9.132,5.107,7.854,5.107z M7.854,0.709c-1.146,0-2.079,0.935-2.079,2.08c0,1.147,0.933,2.08,2.079,2.08s2.08-0.933,2.08-2.08
					S9,0.709,7.854,0.709z"/>
			</g>
			<path fill="#1D1E1C" d="M9.1,0.978C8.746,0.734,8.316,0.589,7.854,0.589c-1.215,0-2.198,0.984-2.198,2.199
				c0,0.096,0.007,0.189,0.019,0.279c0.652-0.137,1.408-0.467,2.146-0.971C8.325,1.75,8.759,1.365,9.1,0.978z"/>
			<path fill="#1D1E1C" d="M5.96,1.749c-0.021,0-0.042-0.007-0.061-0.021L5.544,1.463C5.499,1.431,5.489,1.367,5.523,1.322
				l0.362-0.493c0.016-0.022,0.04-0.036,0.066-0.04c0.032-0.004,0.055,0.002,0.076,0.018l0.359,0.266
				c0.021,0.017,0.036,0.039,0.04,0.066C6.43,1.166,6.423,1.193,6.407,1.214L6.041,1.707C6.022,1.734,5.992,1.749,5.96,1.749z"/>
			<path fill="#1D1E1C" d="M4.949,4.138c0.026-1.742-1.021-2.277-0.853-3.375c0.162-1.086,1.871-0.986,1.871,0.125
				C5.758,1.169,5.605,1.382,5.605,1.382S4.994,1.15,5.075,1.769C5.169,2.517,5.197,3.068,4.949,4.138z"/>
			<ellipse fill="#1D1E1C" cx="9.399" cy="2.486" rx="0.15" ry="0.248"/>
			<ellipse fill="#1D1E1C" cx="8.574" cy="3.068" rx="0.177" ry="0.256"/>
			<path fill="#1D1E1C" d="M9.634,3.48c0,0-0.235,0.814-0.706,0.527"/>
			<g>
				
					<rect x="6.579" y="2.957" transform="matrix(-0.9238 0.3829 -0.3829 -0.9238 15.3645 4.7827)" fill="#FFFFFF" width="1.255" height="1.926"/>
				<path fill="#1D1E1C" d="M6.997,5.168c-0.047,0-0.091-0.026-0.11-0.071L6.147,3.32c-0.012-0.029-0.012-0.062,0-0.092
					c0.012-0.031,0.035-0.054,0.064-0.064l1.161-0.482c0.029-0.012,0.062-0.012,0.092,0c0.03,0.012,0.052,0.035,0.064,0.064
					l0.738,1.777c0.025,0.062-0.004,0.131-0.064,0.155L7.043,5.16C7.028,5.167,7.012,5.168,6.997,5.168z M6.413,3.336l0.648,1.558
					l0.938-0.39l-0.646-1.56L6.413,3.336z"/>
			</g>
			<path fill="#1D1E1C" d="M5.967,7.542c-0.02,0-0.04-0.004-0.059-0.015C5.859,7.5,5.837,7.441,5.852,7.388l1.047-3.502
				c0.019-0.064,0.085-0.102,0.148-0.08c0.063,0.018,0.099,0.086,0.08,0.148L6.231,6.949l1.056-1.172
				c0.045-0.049,0.119-0.053,0.169-0.008c0.049,0.043,0.053,0.118,0.009,0.168L6.055,7.5C6.033,7.529,6,7.542,5.967,7.542z"/>
			<path fill="#1D1E1C" d="M10.985,7.103c-0.029,0-0.059-0.01-0.081-0.031L9.469,5.76C9.42,5.715,9.416,5.64,9.461,5.591
				C9.505,5.542,9.58,5.54,9.63,5.584l1.346,1.229l1.52-1.727c0.044-0.049,0.121-0.053,0.169-0.012
				c0.049,0.045,0.054,0.119,0.011,0.17l-1.601,1.818c-0.021,0.022-0.052,0.037-0.083,0.039C10.989,7.103,10.987,7.103,10.985,7.103
				z"/>
			<path fill="#1D1E1C" d="M7.466,13.694c-0.006,0-0.011,0-0.017,0c-0.065-0.01-0.111-0.069-0.102-0.135
				c0.145-1.01,0.361-2.543,0.367-2.633c0.004-0.062,0.057-0.113,0.119-0.113c0.001,0,0.002,0,0.004,0
				c0.064,0.002,0.115,0.053,0.115,0.117c0,0.079-0.282,2.059-0.369,2.662C7.576,13.653,7.525,13.694,7.466,13.694z"/>
			<path fill="#1D1E1C" d="M9.399,13.694c-0.063,0-0.116-0.049-0.119-0.112c-0.012-0.265-0.115-2.573-0.115-2.649
				c0-0.066,0.053-0.119,0.119-0.119l0,0c0.065,0,0.119,0.053,0.119,0.119c0.001,0.069,0.083,1.93,0.115,2.639
				c0.003,0.066-0.048,0.123-0.114,0.125C9.403,13.694,9.401,13.694,9.399,13.694z"/>
			<polygon fill="#1898CD" points="10.084,10.472 7.065,10.472 7.854,5.486 9.082,5.486 			"/>
		</g>
	</g>
</g>
<text transform="matrix(1 0 0 1 18.3672 14.1768)" fill="#1D1E1C" font-family="'ArialRoundedMTBold'" font-size="6.0203">Caller</text>
<g>
	<path fill="none" stroke="#1D1E1C" stroke-width="0.6" stroke-linecap="round" stroke-linejoin="round" stroke-miterlimit="10" d="
		M16.814,4.866c0,0,5.681,0.074,7.031,3.112"/>
	<path fill="none" stroke="#1D1E1C" stroke-width="0.6" stroke-linecap="round" stroke-linejoin="round" stroke-miterlimit="10" d="
		M18.636,4.271c-0.172,0.067-1.822,0.595-1.822,0.595l1.617,0.835"/>
</g>
</svg>
