<?xml version="1.0" encoding="utf-8"?>
<!-- Generator: Adobe Illustrator 15.0.0, SVG Export Plug-In . SVG Version: 6.00 Build 0)  -->
<!DOCTYPE svg PUBLIC "-//W3C//DTD SVG 1.1//EN" "http://www.w3.org/Graphics/SVG/1.1/DTD/svg11.dtd">
<svg version="1.1" id="Layer_1" xmlns="http://www.w3.org/2000/svg" xmlns:xlink="http://www.w3.org/1999/xlink" x="0px" y="0px"
	 width="14.208px" height="14.208px" viewBox="0 0 14.208 14.208" enable-background="new 0 0 14.208 14.208" xml:space="preserve">
<g>
	<g>
		<g>
			<g>
				<path fill="#F1F9FE" d="M12.171,7.11c0,2.804-2.271,5.074-5.075,5.074c-2.798,0-5.069-2.271-5.069-5.074
					c0-2.798,2.271-5.075,5.069-5.075C9.9,2.035,12.171,4.312,12.171,7.11z"/>
				<g>
					<path fill="#1C99CE" d="M7.096,2.035c2.804,0,5.075,2.277,5.075,5.075c0,2.804-2.271,5.074-5.075,5.074
						c-2.798,0-5.069-2.271-5.069-5.074C2.027,4.312,4.298,2.035,7.096,2.035 M7.096,0.035c-3.898,0-7.069,3.174-7.069,7.075
						s3.171,7.074,7.069,7.074c3.901,0,7.075-3.173,7.075-7.074S10.998,0.035,7.096,0.035L7.096,0.035z"/>
				</g>
			</g>
		</g>
	</g>
	<g>
		<g>
			<path fill="#1C99CE" d="M4.681,8.478l-0.31,1.324c0,0,1.07-0.246,1.325-0.311C4.963,9.26,4.681,8.478,4.681,8.478z"/>
			<g>
				<path fill="#1C99CE" d="M8.886,5.94l-3.05,3.052c0.277-0.026,0.495,0.045,0.619,0.277l2.879-2.88L8.886,5.94z"/>
				<path fill="#1C99CE" d="M7.755,4.808l-2.851,2.85C5.083,7.836,5.209,8.125,5.215,8.35l3.04-3.04L7.755,4.808z"/>
				<path fill="#1C99CE" d="M9.571,6.154l0.712-0.713c0.19-0.189,0.19-0.499,0-0.688L9.39,3.862c-0.189-0.191-0.499-0.191-0.688,0
					L7.99,4.574L9.571,6.154z"/>
				<path fill="#1C99CE" d="M8.386,5.439L5.325,8.501c0.233,0.03,0.349,0.207,0.381,0.361l3.051-3.052L8.386,5.439z"/>
			</g>
		</g>
	</g>
</g>
</svg>
