<?xml version="1.0" encoding="utf-8"?>
<!-- Generator: Adobe Illustrator 15.0.2, SVG Export Plug-In . SVG Version: 6.00 Build 0)  -->
<!DOCTYPE svg PUBLIC "-//W3C//DTD SVG 1.1//EN" "http://www.w3.org/Graphics/SVG/1.1/DTD/svg11.dtd" [
	<!ENTITY ns_extend "http://ns.adobe.com/Extensibility/1.0/">
	<!ENTITY ns_ai "http://ns.adobe.com/AdobeIllustrator/10.0/">
	<!ENTITY ns_graphs "http://ns.adobe.com/Graphs/1.0/">
	<!ENTITY ns_vars "http://ns.adobe.com/Variables/1.0/">
	<!ENTITY ns_imrep "http://ns.adobe.com/ImageReplacement/1.0/">
	<!ENTITY ns_sfw "http://ns.adobe.com/SaveForWeb/1.0/">
	<!ENTITY ns_custom "http://ns.adobe.com/GenericCustomNamespace/1.0/">
	<!ENTITY ns_adobe_xpath "http://ns.adobe.com/XPath/1.0/">
]>
<svg version="1.1" id="Layer_1" xmlns:x="&ns_extend;" xmlns:i="&ns_ai;" xmlns:graph="&ns_graphs;"
	 xmlns="http://www.w3.org/2000/svg" xmlns:xlink="http://www.w3.org/1999/xlink" x="0px" y="0px" width="8.312px" height="7.41px"
	 viewBox="0 0 8.312 7.41" enable-background="new 0 0 8.312 7.41" xml:space="preserve">
<metadata>
	<sfw  xmlns="&ns_sfw;">
		<slices></slices>
		<sliceSourceBounds  y="293.796" x="416.344" height="7.408" width="8.312" bottomLeftOrigin="true"></sliceSourceBounds>
	</sfw>
</metadata>
<path fill="#FFFFFF" d="M7.889,0.184C7.438-0.134,6.813-0.027,6.494,0.425L3.476,4.707L1.801,2.462
	c-0.33-0.443-0.959-0.535-1.398-0.203c-0.443,0.33-0.534,0.957-0.204,1.399l2.5,3.351C2.721,7.04,2.759,7.051,2.783,7.08
	c0.047,0.05,0.083,0.106,0.142,0.147c0.028,0.021,0.062,0.029,0.096,0.047c0.03,0.018,0.06,0.032,0.092,0.045
	c0.125,0.055,0.256,0.09,0.389,0.09h0.001h0.001c0.138,0,0.271-0.038,0.398-0.096c0.033-0.015,0.063-0.031,0.098-0.051
	S4.068,7.233,4.102,7.21c0.059-0.043,0.094-0.104,0.14-0.156c0.024-0.026,0.06-0.039,0.079-0.069l3.812-5.408
	C8.447,1.126,8.339,0.503,7.889,0.184z"/>
</svg>
