<?xml version="1.0" encoding="utf-8"?>
<!-- Generator: Adobe Illustrator 15.0.2, SVG Export Plug-In . SVG Version: 6.00 Build 0)  -->
<!DOCTYPE svg PUBLIC "-//W3C//DTD SVG 1.1//EN" "http://www.w3.org/Graphics/SVG/1.1/DTD/svg11.dtd" [
	<!ENTITY ns_extend "http://ns.adobe.com/Extensibility/1.0/">
	<!ENTITY ns_ai "http://ns.adobe.com/AdobeIllustrator/10.0/">
	<!ENTITY ns_graphs "http://ns.adobe.com/Graphs/1.0/">
	<!ENTITY ns_vars "http://ns.adobe.com/Variables/1.0/">
	<!ENTITY ns_imrep "http://ns.adobe.com/ImageReplacement/1.0/">
	<!ENTITY ns_sfw "http://ns.adobe.com/SaveForWeb/1.0/">
	<!ENTITY ns_custom "http://ns.adobe.com/GenericCustomNamespace/1.0/">
	<!ENTITY ns_adobe_xpath "http://ns.adobe.com/XPath/1.0/">
]>
<svg version="1.1" id="Layer_1" xmlns:x="&ns_extend;" xmlns:i="&ns_ai;" xmlns:graph="&ns_graphs;"
	 xmlns="http://www.w3.org/2000/svg" xmlns:xlink="http://www.w3.org/1999/xlink" x="0px" y="0px" width="7.492px" height="7.492px"
	 viewBox="0 0 7.492 7.492" enable-background="new 0 0 7.492 7.492" xml:space="preserve">
<metadata>
	<sfw  xmlns="&ns_sfw;">
		<slices></slices>
		<sliceSourceBounds  y="293.754" x="416.754" height="7.492" width="7.494" bottomLeftOrigin="true"></sliceSourceBounds>
	</sfw>
</metadata>
<path fill="#FFFFFF" d="M7.199,0.293c-0.391-0.391-1.022-0.391-1.414,0L3.747,2.332L1.708,0.293c-0.392-0.391-1.022-0.391-1.414,0
	s-0.392,1.023,0,1.414l2.039,2.039L0.293,5.785c-0.392,0.391-0.392,1.023,0,1.414C0.488,7.395,0.744,7.492,1,7.492
	c0.256,0,0.512-0.098,0.707-0.293L3.747,5.16l2.039,2.039C5.98,7.395,6.236,7.492,6.492,7.492c0.257,0,0.513-0.098,0.707-0.293
	c0.392-0.391,0.392-1.023,0-1.414L5.16,3.746l2.039-2.039C7.589,1.316,7.589,0.684,7.199,0.293z"/>
</svg>
