<?xml version="1.0" encoding="utf-8"?>
<!-- Generator: Adobe Illustrator 15.0.2, SVG Export Plug-In . SVG Version: 6.00 Build 0)  -->
<!DOCTYPE svg PUBLIC "-//W3C//DTD SVG 1.1//EN" "http://www.w3.org/Graphics/SVG/1.1/DTD/svg11.dtd" [
	<!ENTITY ns_extend "http://ns.adobe.com/Extensibility/1.0/">
	<!ENTITY ns_ai "http://ns.adobe.com/AdobeIllustrator/10.0/">
	<!ENTITY ns_graphs "http://ns.adobe.com/Graphs/1.0/">
	<!ENTITY ns_vars "http://ns.adobe.com/Variables/1.0/">
	<!ENTITY ns_imrep "http://ns.adobe.com/ImageReplacement/1.0/">
	<!ENTITY ns_sfw "http://ns.adobe.com/SaveForWeb/1.0/">
	<!ENTITY ns_custom "http://ns.adobe.com/GenericCustomNamespace/1.0/">
	<!ENTITY ns_adobe_xpath "http://ns.adobe.com/XPath/1.0/">
]>
<svg version="1.1" id="Layer_1" xmlns:x="&ns_extend;" xmlns:i="&ns_ai;" xmlns:graph="&ns_graphs;"
	 xmlns="http://www.w3.org/2000/svg" xmlns:xlink="http://www.w3.org/1999/xlink" x="0px" y="0px" width="27.381px"
	 height="27.381px" viewBox="0 0 27.381 27.381" enable-background="new 0 0 27.381 27.381" xml:space="preserve">
<metadata>
	<sfw  xmlns="&ns_sfw;">
		<slices></slices>
		<sliceSourceBounds  x="411.036" y="-307.556" width="21.172" height="20.683" bottomLeftOrigin="true"></sliceSourceBounds>
	</sfw>
</metadata>
<g>
	<path fill="#FFFFFF" d="M10.548,3.643c-0.391-0.391-1.023-0.391-1.414,0L7.095,5.682L5.056,3.643c-0.391-0.391-1.023-0.391-1.414,0
		s-0.391,1.023,0,1.414l2.039,2.039L3.642,9.135c-0.391,0.391-0.391,1.023,0,1.414c0.195,0.195,0.451,0.293,0.707,0.293
		s0.512-0.098,0.707-0.293L7.095,8.51l2.039,2.039c0.195,0.195,0.451,0.293,0.707,0.293s0.512-0.098,0.707-0.293
		c0.391-0.391,0.391-1.023,0-1.414L8.509,7.096l2.039-2.039C10.939,4.666,10.939,4.033,10.548,3.643z"/>
	<path fill="#FFFFFF" d="M9.176,16.833c-0.391-0.391-1.023-0.391-1.414,0l-2.747,2.746c-0.391,0.391-0.391,1.023,0,1.414
		l2.747,2.746c0.195,0.195,0.451,0.293,0.707,0.293s0.512-0.098,0.707-0.293c0.391-0.391,0.391-1.023,0-1.414l-2.04-2.039
		l2.04-2.039C9.566,17.856,9.566,17.224,9.176,16.833z"/>
	<path fill="#FFFFFF" d="M19.619,16.832c-0.391-0.391-1.023-0.391-1.414,0s-0.391,1.023,0,1.414l2.04,2.039l-2.04,2.039
		c-0.391,0.391-0.391,1.023,0,1.414c0.195,0.195,0.451,0.293,0.707,0.293s0.512-0.098,0.707-0.293l2.747-2.746
		c0.391-0.391,0.391-1.023,0-1.414L19.619,16.832z"/>
	<path fill="#FFFFFF" d="M24.098,3.532c-0.451-0.318-1.076-0.211-1.394,0.241l-3.018,4.282L18.011,5.81
		c-0.33-0.443-0.959-0.535-1.399-0.203c-0.443,0.33-0.534,0.957-0.204,1.399l2.5,3.351c0.023,0.031,0.06,0.043,0.085,0.071
		c0.047,0.05,0.083,0.107,0.141,0.148c0.029,0.021,0.063,0.029,0.095,0.047c0.031,0.017,0.06,0.032,0.092,0.045
		c0.126,0.054,0.256,0.09,0.389,0.09h0.001h0.001c0.137,0,0.27-0.039,0.398-0.096c0.034-0.015,0.065-0.032,0.098-0.051
		c0.033-0.019,0.069-0.029,0.101-0.052c0.059-0.043,0.094-0.104,0.14-0.156c0.024-0.027,0.059-0.039,0.08-0.069l3.812-5.409
		C24.657,4.474,24.549,3.851,24.098,3.532z"/>
</g>
</svg>
