<?xml version="1.0" encoding="utf-8"?>
<!-- Generator: Adobe Illustrator 15.0.2, SVG Export Plug-In . SVG Version: 6.00 Build 0)  -->
<!DOCTYPE svg PUBLIC "-//W3C//DTD SVG 1.1//EN" "http://www.w3.org/Graphics/SVG/1.1/DTD/svg11.dtd" [
	<!ENTITY ns_extend "http://ns.adobe.com/Extensibility/1.0/">
	<!ENTITY ns_ai "http://ns.adobe.com/AdobeIllustrator/10.0/">
	<!ENTITY ns_graphs "http://ns.adobe.com/Graphs/1.0/">
	<!ENTITY ns_vars "http://ns.adobe.com/Variables/1.0/">
	<!ENTITY ns_imrep "http://ns.adobe.com/ImageReplacement/1.0/">
	<!ENTITY ns_sfw "http://ns.adobe.com/SaveForWeb/1.0/">
	<!ENTITY ns_custom "http://ns.adobe.com/GenericCustomNamespace/1.0/">
	<!ENTITY ns_adobe_xpath "http://ns.adobe.com/XPath/1.0/">
]>
<svg version="1.1" id="Layer_1" xmlns:x="&ns_extend;" xmlns:i="&ns_ai;" xmlns:graph="&ns_graphs;"
	 xmlns="http://www.w3.org/2000/svg" xmlns:xlink="http://www.w3.org/1999/xlink" x="0px" y="0px" width="8.312px" height="7.409px"
	 viewBox="30.794 -2.651 8.312 7.409" enable-background="new 30.794 -2.651 8.312 7.409" xml:space="preserve">
<metadata>
	<sfw  xmlns="&ns_sfw;">
		<slices></slices>
		<sliceSourceBounds  height="7.409" width="8.312" y="306.433" x="437.603" bottomLeftOrigin="true"></sliceSourceBounds>
	</sfw>
</metadata>
<path fill="#68B42E" d="M38.683-2.468c-0.451-0.318-1.076-0.211-1.395,0.241l-3.018,4.282L32.595-0.19
	c-0.33-0.443-0.959-0.535-1.398-0.203c-0.443,0.33-0.534,0.957-0.204,1.399l2.5,3.351c0.022,0.031,0.06,0.043,0.085,0.071
	c0.047,0.05,0.083,0.107,0.141,0.148c0.029,0.021,0.062,0.029,0.096,0.047c0.03,0.017,0.06,0.032,0.092,0.045
	c0.125,0.054,0.256,0.09,0.389,0.09h0.001h0.001c0.137,0,0.27-0.039,0.398-0.096c0.033-0.015,0.064-0.032,0.098-0.051
	s0.068-0.029,0.102-0.052c0.059-0.043,0.094-0.104,0.14-0.156c0.024-0.027,0.059-0.039,0.079-0.069l3.812-5.409
	C39.241-1.526,39.133-2.149,38.683-2.468z"/>
</svg>
