<?xml version="1.0" encoding="utf-8"?>
<!-- Generator: Adobe Illustrator 15.0.2, SVG Export Plug-In . SVG Version: 6.00 Build 0)  -->
<!DOCTYPE svg PUBLIC "-//W3C//DTD SVG 1.1//EN" "http://www.w3.org/Graphics/SVG/1.1/DTD/svg11.dtd" [
	<!ENTITY ns_extend "http://ns.adobe.com/Extensibility/1.0/">
	<!ENTITY ns_ai "http://ns.adobe.com/AdobeIllustrator/10.0/">
	<!ENTITY ns_graphs "http://ns.adobe.com/Graphs/1.0/">
	<!ENTITY ns_vars "http://ns.adobe.com/Variables/1.0/">
	<!ENTITY ns_imrep "http://ns.adobe.com/ImageReplacement/1.0/">
	<!ENTITY ns_sfw "http://ns.adobe.com/SaveForWeb/1.0/">
	<!ENTITY ns_custom "http://ns.adobe.com/GenericCustomNamespace/1.0/">
	<!ENTITY ns_adobe_xpath "http://ns.adobe.com/XPath/1.0/">
]>
<svg version="1.1" id="Layer_1" xmlns:x="&ns_extend;" xmlns:i="&ns_ai;" xmlns:graph="&ns_graphs;"
	 xmlns="http://www.w3.org/2000/svg" xmlns:xlink="http://www.w3.org/1999/xlink" x="0px" y="0px" width="10.808px" height="3.68px"
	 viewBox="0 0 10.808 3.68" enable-background="new 0 0 10.808 3.68" xml:space="preserve">
<metadata>
	<sfw  xmlns="&ns_sfw;">
		<slices></slices>
		<sliceSourceBounds  x="415.692" y="-298.792" width="10.808" height="3.68" bottomLeftOrigin="true"></sliceSourceBounds>
	</sfw>
</metadata>
<path fill="#FFFFFF" d="M5.4,0C1.791,0.004,0.038,1.298,0,2.274C-0.008,2.55,0.138,3.2,0.251,3.409
	C0.37,3.623,0.611,3.717,0.847,3.667c0.718-0.149,1.446-0.263,2.171-0.343C3.26,3.299,3.426,3.124,3.45,2.885
	c0.029-0.281-0.088-0.578-0.097-0.891c-0.007-0.25,0.438-0.723,2.05-0.74c1.609,0.014,2.058,0.484,2.05,0.734
	C7.445,2.3,7.331,2.598,7.359,2.877c0.025,0.238,0.193,0.415,0.432,0.438c0.729,0.078,1.455,0.188,2.172,0.34
	c0.238,0.046,0.479-0.05,0.596-0.264c0.113-0.208,0.26-0.86,0.248-1.138C10.768,1.283,9.012-0.005,5.4,0z"/>
</svg>
