<?xml version="1.0" encoding="utf-8"?>
<!-- Generator: Adobe Illustrator 15.0.2, SVG Export Plug-In . SVG Version: 6.00 Build 0)  -->
<!DOCTYPE svg PUBLIC "-//W3C//DTD SVG 1.1//EN" "http://www.w3.org/Graphics/SVG/1.1/DTD/svg11.dtd" [
	<!ENTITY ns_extend "http://ns.adobe.com/Extensibility/1.0/">
	<!ENTITY ns_ai "http://ns.adobe.com/AdobeIllustrator/10.0/">
	<!ENTITY ns_graphs "http://ns.adobe.com/Graphs/1.0/">
	<!ENTITY ns_vars "http://ns.adobe.com/Variables/1.0/">
	<!ENTITY ns_imrep "http://ns.adobe.com/ImageReplacement/1.0/">
	<!ENTITY ns_sfw "http://ns.adobe.com/SaveForWeb/1.0/">
	<!ENTITY ns_custom "http://ns.adobe.com/GenericCustomNamespace/1.0/">
	<!ENTITY ns_adobe_xpath "http://ns.adobe.com/XPath/1.0/">
]>
<svg version="1.1" id="Layer_1" xmlns:x="&ns_extend;" xmlns:i="&ns_ai;" xmlns:graph="&ns_graphs;"
	 xmlns="http://www.w3.org/2000/svg" xmlns:xlink="http://www.w3.org/1999/xlink" x="0px" y="0px" width="5.697px" height="8.814px"
	 viewBox="0 0 5.697 8.814" enable-background="new 0 0 5.697 8.814" xml:space="preserve">
<metadata>
	<sfw  xmlns="&ns_sfw;">
		<slices></slices>
		<sliceSourceBounds  x="418.039" y="-301.223" width="5.697" height="8.814" bottomLeftOrigin="true"></sliceSourceBounds>
	</sfw>
</metadata>
<path fill="#FFFFFF" d="M4.744,5.365C3.353,8.206,1.662,9.088,0.88,8.743C0.659,8.646,0.203,8.279,0.083,8.108
	c-0.123-0.174-0.106-0.4,0.022-0.568C0.501,7.034,0.87,6.505,1.212,5.963c0.112-0.179,0.315-0.242,0.512-0.17
	c0.23,0.086,0.421,0.29,0.663,0.419c0.193,0.102,0.737-0.07,1.371-1.329c0.608-1.274,0.409-1.808,0.208-1.897
	C3.717,2.872,3.438,2.849,3.229,2.718C3.051,2.606,2.977,2.407,3.05,2.208c0.217-0.602,0.409-1.217,0.569-1.84
	C3.672,0.163,3.84,0.011,4.053,0.001c0.209-0.01,0.776,0.127,0.99,0.24C5.795,0.648,6.135,2.525,4.744,5.365z"/>
</svg>
