<?xml version="1.0" encoding="utf-8"?>
<!-- Generator: Adobe Illustrator 15.0.2, SVG Export Plug-In . SVG Version: 6.00 Build 0)  -->
<!DOCTYPE svg PUBLIC "-//W3C//DTD SVG 1.1//EN" "http://www.w3.org/Graphics/SVG/1.1/DTD/svg11.dtd" [
	<!ENTITY ns_extend "http://ns.adobe.com/Extensibility/1.0/">
	<!ENTITY ns_ai "http://ns.adobe.com/AdobeIllustrator/10.0/">
	<!ENTITY ns_graphs "http://ns.adobe.com/Graphs/1.0/">
	<!ENTITY ns_vars "http://ns.adobe.com/Variables/1.0/">
	<!ENTITY ns_imrep "http://ns.adobe.com/ImageReplacement/1.0/">
	<!ENTITY ns_sfw "http://ns.adobe.com/SaveForWeb/1.0/">
	<!ENTITY ns_custom "http://ns.adobe.com/GenericCustomNamespace/1.0/">
	<!ENTITY ns_adobe_xpath "http://ns.adobe.com/XPath/1.0/">
]>
<svg version="1.1" id="Layer_1" xmlns:x="&ns_extend;" xmlns:i="&ns_ai;" xmlns:graph="&ns_graphs;"
	 xmlns="http://www.w3.org/2000/svg" xmlns:xlink="http://www.w3.org/1999/xlink" x="0px" y="0px" width="30.716px"
	 height="11.299px" viewBox="0 0 30.716 11.299" style="enable-background:new 0 0 30.716 11.299;" xml:space="preserve">
<style type="text/css">
<![CDATA[
	.st0{fill:none;stroke:#3BAA35;stroke-width:0.4012;stroke-miterlimit:10;}
	.st1{fill:#FFFFFF;}
	.st2{fill:#3BAA35;stroke:#3BAA35;stroke-width:0.4012;stroke-miterlimit:10;}
]]>
</style>
<metadata>
	<sfw  xmlns="&ns_sfw;">
		<slices></slices>
		<sliceSourceBounds  height="11.3" width="30.716" x="405.05" y="-303.183" bottomLeftOrigin="true"></sliceSourceBounds>
	</sfw>
</metadata>
<g>
	<path class="st2" d="M15.309,11.099H1.256c-0.578,0-1.055-0.475-1.055-1.054V1.254c0-0.579,0.477-1.054,1.055-1.054h14.053V11.099z
		"/>
	<path class="st0" d="M15.309,0.201h14.152c0.58,0,1.055,0.475,1.055,1.054v8.791c0,0.579-0.475,1.054-1.055,1.054H15.309V0.201z"/>
	<g>
		<g>
			<path class="st1" d="M5.987,3.641c0.417,0,0.775,0.085,1.074,0.254s0.524,0.409,0.678,0.721c0.154,0.312,0.23,0.678,0.23,1.099
				c0,0.311-0.042,0.594-0.126,0.848s-0.21,0.475-0.378,0.661C7.298,7.408,7.091,7.55,6.846,7.65S6.319,7.798,6.004,7.798
				c-0.314,0-0.597-0.051-0.845-0.152s-0.456-0.244-0.623-0.43C4.37,7.032,4.245,6.81,4.159,6.551
				C4.075,6.291,4.032,6.01,4.032,5.708c0-0.309,0.044-0.592,0.133-0.85S4.382,4.381,4.55,4.2C4.719,4.02,4.923,3.881,5.165,3.785
				C5.405,3.688,5.681,3.641,5.987,3.641z M7.145,5.708c0-0.294-0.048-0.549-0.143-0.765S6.771,4.564,6.595,4.454
				C6.419,4.343,6.216,4.288,5.987,4.288c-0.162,0-0.312,0.03-0.451,0.092S5.279,4.53,5.18,4.647S5.001,4.914,4.944,5.096
				C4.886,5.277,4.857,5.481,4.857,5.708c0,0.229,0.028,0.436,0.087,0.62c0.057,0.185,0.139,0.338,0.244,0.459
				C5.293,6.909,5.413,7,5.55,7.061C5.687,7.121,5.835,7.15,5.999,7.15c0.207,0,0.399-0.051,0.574-0.156
				c0.174-0.104,0.312-0.265,0.416-0.482S7.145,6.026,7.145,5.708z"/>
			<path class="st1" d="M9.407,5.168v0.091c0.131-0.174,0.275-0.302,0.432-0.383s0.336-0.122,0.539-0.122
				c0.197,0,0.373,0.043,0.529,0.129c0.155,0.086,0.271,0.208,0.348,0.365c0.05,0.091,0.082,0.189,0.097,0.296
				s0.022,0.241,0.022,0.406v1.393c0,0.15-0.035,0.264-0.104,0.34s-0.158,0.115-0.268,0.115c-0.111,0-0.201-0.039-0.271-0.119
				c-0.069-0.078-0.104-0.189-0.104-0.336V6.095c0-0.246-0.035-0.436-0.104-0.566c-0.068-0.13-0.205-0.195-0.41-0.195
				c-0.133,0-0.255,0.039-0.364,0.119C9.64,5.531,9.56,5.641,9.509,5.779C9.472,5.892,9.454,6.1,9.454,6.405v0.938
				c0,0.15-0.035,0.266-0.105,0.342c-0.07,0.074-0.162,0.113-0.273,0.113c-0.107,0-0.196-0.039-0.266-0.119
				C8.739,7.601,8.705,7.49,8.705,7.343V5.179c0-0.143,0.031-0.249,0.093-0.319c0.062-0.07,0.147-0.105,0.256-0.105
				c0.065,0,0.125,0.016,0.178,0.047s0.096,0.078,0.127,0.14C9.392,5.003,9.407,5.079,9.407,5.168z"/>
		</g>
	</g>
</g>
</svg>
