<?xml version="1.0" encoding="utf-8"?>
<!-- Generator: Adobe Illustrator 15.0.2, SVG Export Plug-In . SVG Version: 6.00 Build 0)  -->
<!DOCTYPE svg PUBLIC "-//W3C//DTD SVG 1.1//EN" "http://www.w3.org/Graphics/SVG/1.1/DTD/svg11.dtd" [
	<!ENTITY ns_extend "http://ns.adobe.com/Extensibility/1.0/">
	<!ENTITY ns_ai "http://ns.adobe.com/AdobeIllustrator/10.0/">
	<!ENTITY ns_graphs "http://ns.adobe.com/Graphs/1.0/">
	<!ENTITY ns_vars "http://ns.adobe.com/Variables/1.0/">
	<!ENTITY ns_imrep "http://ns.adobe.com/ImageReplacement/1.0/">
	<!ENTITY ns_sfw "http://ns.adobe.com/SaveForWeb/1.0/">
	<!ENTITY ns_custom "http://ns.adobe.com/GenericCustomNamespace/1.0/">
	<!ENTITY ns_adobe_xpath "http://ns.adobe.com/XPath/1.0/">
]>
<svg version="1.1" id="Layer_1" xmlns:x="&ns_extend;" xmlns:i="&ns_ai;" xmlns:graph="&ns_graphs;"
	 xmlns="http://www.w3.org/2000/svg" xmlns:xlink="http://www.w3.org/1999/xlink" x="0px" y="0px" width="30.716px"
	 height="11.299px" viewBox="0 0 30.716 11.299" style="enable-background:new 0 0 30.716 11.299;" xml:space="preserve">
<style type="text/css">
<![CDATA[
	.st0{fill:#E8501D;stroke:#E8501D;stroke-width:0.4012;stroke-miterlimit:10;}
	.st1{fill:#FFFFFF;}
	.st2{fill:none;stroke:#E8501D;stroke-width:0.4012;stroke-miterlimit:10;}
]]>
</style>
<metadata>
	<sfw  xmlns="&ns_sfw;">
		<slices></slices>
		<sliceSourceBounds  height="11.3" width="30.715" x="405.05" y="-303.183" bottomLeftOrigin="true"></sliceSourceBounds>
	</sfw>
</metadata>
<g>
	<path class="st2" d="M15.308,11.099H1.255c-0.58,0-1.054-0.475-1.054-1.053V1.254c0-0.579,0.474-1.054,1.054-1.054h14.053V11.099z"
		/>
	<path class="st0" d="M15.308,0.201h14.153c0.579,0,1.054,0.475,1.054,1.054v8.792c0,0.578-0.475,1.053-1.054,1.053H15.308V0.201z"
		/>
	<g>
		<path class="st1" d="M20.544,3.641c0.416,0,0.774,0.085,1.073,0.254s0.524,0.409,0.679,0.721c0.153,0.312,0.23,0.678,0.23,1.099
			c0,0.311-0.043,0.594-0.127,0.848s-0.209,0.475-0.378,0.661c-0.168,0.186-0.374,0.328-0.62,0.428
			c-0.244,0.1-0.525,0.148-0.842,0.148c-0.314,0-0.596-0.051-0.844-0.152c-0.249-0.102-0.457-0.244-0.623-0.43
			c-0.166-0.184-0.292-0.407-0.377-0.666c-0.085-0.26-0.127-0.541-0.127-0.843c0-0.309,0.043-0.592,0.133-0.85
			c0.088-0.258,0.217-0.478,0.385-0.658s0.373-0.319,0.614-0.415C19.962,3.688,20.236,3.641,20.544,3.641z M21.7,5.708
			c0-0.294-0.047-0.549-0.143-0.765c-0.095-0.216-0.23-0.379-0.406-0.489c-0.177-0.111-0.379-0.166-0.607-0.166
			c-0.163,0-0.313,0.03-0.451,0.092c-0.139,0.062-0.258,0.15-0.357,0.268S19.558,4.914,19.5,5.096s-0.087,0.386-0.087,0.612
			c0,0.229,0.029,0.436,0.087,0.62s0.14,0.338,0.244,0.459C19.849,6.909,19.97,7,20.106,7.061c0.136,0.06,0.285,0.089,0.448,0.089
			c0.208,0,0.399-0.051,0.574-0.156c0.175-0.104,0.313-0.265,0.417-0.482S21.7,6.026,21.7,5.708z"/>
		<path class="st1" d="M23.223,4.82h0.179V4.595c0-0.233,0.029-0.42,0.089-0.558s0.159-0.238,0.302-0.302
			c0.142-0.063,0.336-0.095,0.582-0.095c0.438,0,0.656,0.107,0.656,0.321c0,0.069-0.023,0.129-0.068,0.178
			c-0.047,0.05-0.1,0.074-0.162,0.074c-0.029,0-0.08-0.006-0.15-0.017c-0.072-0.011-0.133-0.017-0.182-0.017
			c-0.135,0-0.223,0.04-0.26,0.119c-0.039,0.08-0.059,0.193-0.059,0.342V4.82h0.184c0.285,0,0.428,0.086,0.428,0.258
			c0,0.122-0.037,0.2-0.113,0.232c-0.076,0.033-0.181,0.05-0.314,0.05h-0.184v1.983c0,0.148-0.035,0.26-0.105,0.338
			s-0.161,0.117-0.272,0.117c-0.106,0-0.194-0.039-0.265-0.117s-0.105-0.189-0.105-0.338V5.36h-0.206
			c-0.111,0-0.197-0.025-0.258-0.075c-0.06-0.051-0.091-0.116-0.091-0.196C22.847,4.909,22.972,4.82,23.223,4.82z"/>
		<path class="st1" d="M25.413,4.82h0.179V4.595c0-0.233,0.03-0.42,0.089-0.558c0.061-0.138,0.16-0.238,0.303-0.302
			c0.141-0.063,0.336-0.095,0.582-0.095c0.438,0,0.655,0.107,0.655,0.321c0,0.069-0.022,0.129-0.068,0.178
			c-0.046,0.05-0.1,0.074-0.161,0.074c-0.029,0-0.08-0.006-0.151-0.017s-0.132-0.017-0.181-0.017c-0.136,0-0.223,0.04-0.261,0.119
			c-0.038,0.08-0.058,0.193-0.058,0.342V4.82h0.184c0.285,0,0.428,0.086,0.428,0.258c0,0.122-0.038,0.2-0.113,0.232
			c-0.076,0.033-0.182,0.05-0.314,0.05h-0.184v1.983c0,0.148-0.035,0.26-0.105,0.338s-0.162,0.117-0.273,0.117
			c-0.105,0-0.193-0.039-0.264-0.117c-0.071-0.078-0.106-0.189-0.106-0.338V5.36h-0.206c-0.111,0-0.197-0.025-0.258-0.075
			c-0.06-0.051-0.09-0.116-0.09-0.196C25.038,4.909,25.163,4.82,25.413,4.82z"/>
	</g>
</g>
</svg>
