<?xml version="1.0" encoding="utf-8"?>
<!-- Generator: Adobe Illustrator 15.0.2, SVG Export Plug-In . SVG Version: 6.00 Build 0)  -->
<!DOCTYPE svg PUBLIC "-//W3C//DTD SVG 1.1//EN" "http://www.w3.org/Graphics/SVG/1.1/DTD/svg11.dtd" [
	<!ENTITY ns_extend "http://ns.adobe.com/Extensibility/1.0/">
	<!ENTITY ns_ai "http://ns.adobe.com/AdobeIllustrator/10.0/">
	<!ENTITY ns_graphs "http://ns.adobe.com/Graphs/1.0/">
	<!ENTITY ns_vars "http://ns.adobe.com/Variables/1.0/">
	<!ENTITY ns_imrep "http://ns.adobe.com/ImageReplacement/1.0/">
	<!ENTITY ns_sfw "http://ns.adobe.com/SaveForWeb/1.0/">
	<!ENTITY ns_custom "http://ns.adobe.com/GenericCustomNamespace/1.0/">
	<!ENTITY ns_adobe_xpath "http://ns.adobe.com/XPath/1.0/">
]>
<svg version="1.1" id="Layer_1" xmlns:x="&ns_extend;" xmlns:i="&ns_ai;" xmlns:graph="&ns_graphs;"
	 xmlns="http://www.w3.org/2000/svg" xmlns:xlink="http://www.w3.org/1999/xlink" x="0px" y="0px" width="33.584px"
	 height="182.231px" viewBox="0 0 33.584 182.231" style="enable-background:new 0 0 33.584 182.231;" xml:space="preserve">
<style type="text/css">
<![CDATA[
	.st0{fill:#F2921A;}
	.st1{fill:#C8D3D9;}
	.st2{fill-rule:evenodd;clip-rule:evenodd;fill:#F2921A;}
	.st3{fill-rule:evenodd;clip-rule:evenodd;fill:#C8D3D9;}
]]>
</style>
<metadata>
	<sfw  xmlns="&ns_sfw;">
		<slices></slices>
		<sliceSourceBounds  x="760.347" y="-108.852" width="26.39" height="173.69" bottomLeftOrigin="true"></sliceSourceBounds>
	</sfw>
</metadata>
<g id="Arrow_26">
</g>
<g>
	<g>
		<g>
			<path class="st1" d="M5.507,26.224c1.344,2.743,2.977,3.595,3.73,3.262c0.214-0.095,0.654-0.448,0.77-0.613
				c0.119-0.168,0.103-0.387-0.021-0.549c-0.382-0.488-0.737-1-1.067-1.523c-0.108-0.172-0.305-0.234-0.495-0.164
				c-0.223,0.083-0.406,0.281-0.64,0.404c-0.187,0.098-0.712-0.067-1.323-1.283c-0.587-1.23-0.395-1.745-0.201-1.832
				c0.239-0.11,0.509-0.132,0.711-0.259c0.172-0.107,0.243-0.299,0.173-0.491C6.933,22.595,6.747,22,6.593,21.4
				c-0.051-0.198-0.213-0.346-0.419-0.355c-0.201-0.008-0.749,0.123-0.955,0.233C4.492,21.67,4.165,23.482,5.507,26.224z"/>
			<g>
				<path class="st3" d="M8.491,21.783h3.556c0.215,0,0.387,0.172,0.387,0.386s-0.172,0.387-0.387,0.387H8.491
					c-0.214,0-0.387-0.173-0.387-0.387S8.277,21.783,8.491,21.783z"/>
				<path class="st3" d="M8.491,24.872h3.556c0.215,0,0.387,0.173,0.387,0.387c0,0.213-0.172,0.386-0.387,0.386H8.491
					c-0.214,0-0.387-0.173-0.387-0.386C8.104,25.044,8.277,24.872,8.491,24.872z"/>
				<path class="st3" d="M8.491,23.327h3.556c0.215,0,0.387,0.173,0.387,0.386c0,0.213-0.172,0.386-0.387,0.386H8.491
					c-0.214,0-0.387-0.173-0.387-0.386C8.104,23.5,8.277,23.327,8.491,23.327z"/>
			</g>
		</g>
	</g>
	<g>
		<path class="st1" d="M10.039,107.125c-0.225,0.237-0.507,0.416-0.822,0.525c1.569,0.4,2.752,2.105,2.752,4.143v0.024
			c-0.014,0.003-0.037,0.006-0.07,0.006H5.092c-0.018,0-0.032-0.001-0.041-0.002v-0.028c0-2.057,1.205-3.773,2.797-4.153
			c-0.313-0.114-0.59-0.299-0.812-0.539c-1.607,0.708-2.758,2.534-2.763,4.678c-0.005,0.094,0.001,0.356,0.194,0.571
			c0.104,0.114,0.297,0.251,0.625,0.251h6.807c0.354,0,0.556-0.145,0.663-0.266c0.187-0.211,0.192-0.462,0.186-0.559
			C12.742,109.659,11.617,107.851,10.039,107.125z"/>
		<path class="st1" d="M8.547,108.16c-1.352,0-2.452-1.101-2.452-2.454c0-1.353,1.101-2.453,2.452-2.453
			c1.354,0,2.454,1.1,2.454,2.453C11.001,107.059,9.9,108.16,8.547,108.16z M8.547,104.032c-0.923,0-1.675,0.75-1.675,1.674
			c0,0.923,0.752,1.675,1.675,1.675c0.924,0,1.676-0.751,1.676-1.675C10.223,104.783,9.471,104.032,8.547,104.032z"/>
	</g>
	<path class="st1" d="M11.066,63.062c-0.164,0-0.322-0.051-0.456-0.147l-2.1-1.525l-2.098,1.524
		c-0.272,0.195-0.646,0.193-0.914,0.001c-0.275-0.2-0.389-0.55-0.283-0.872l0.801-2.466l-2.098-1.523
		c-0.274-0.2-0.389-0.55-0.283-0.872c0.105-0.322,0.402-0.538,0.74-0.538H6.97l0.801-2.466c0.105-0.322,0.403-0.538,0.74-0.538
		c0.338,0,0.636,0.216,0.74,0.538l0.802,2.466h2.594c0.338,0,0.635,0.217,0.739,0.538c0.104,0.322-0.009,0.671-0.282,0.87
		l-2.098,1.524l0.801,2.466c0.104,0.323-0.01,0.673-0.283,0.871C11.389,63.01,11.23,63.062,11.066,63.062z M8.511,60.426
		l2.556,1.857v0c0,0,0,0,0.002,0l-0.979-3.003l2.557-1.856H9.487l-0.977-3.004l-0.976,3.004H4.376l2.556,1.856l-0.976,3.004
		L8.511,60.426z"/>
	<g>
		<g>
			<path class="st1" d="M8.511,4.412c-3.139,0-4.663,1.123-4.696,1.968c-0.01,0.241,0.118,0.807,0.218,0.988
				c0.102,0.186,0.311,0.27,0.514,0.227c0.625-0.13,1.259-0.229,1.891-0.296c0.207-0.021,0.354-0.175,0.375-0.383
				c0.026-0.243-0.075-0.502-0.084-0.772C6.722,5.926,7.111,5.518,8.509,5.502c1.401,0.016,1.789,0.424,1.782,0.642
				c-0.006,0.27-0.107,0.529-0.083,0.773c0.021,0.208,0.166,0.359,0.375,0.382c0.632,0.069,1.266,0.166,1.891,0.296
				c0.205,0.043,0.412-0.041,0.516-0.227c0.098-0.182,0.226-0.747,0.218-0.987C13.172,5.533,11.647,4.412,8.511,4.412"/>
			<path class="st1" d="M7.222,8.6c0,0.365-0.297,0.661-0.662,0.661H6.117c-0.365,0-0.661-0.296-0.661-0.661s0.296-0.66,0.661-0.66
				H6.56C6.925,7.939,7.222,8.235,7.222,8.6"/>
			<path class="st1" d="M9.392,8.6c0,0.365-0.296,0.661-0.661,0.661H8.289c-0.365,0-0.66-0.296-0.66-0.661s0.295-0.66,0.66-0.66
				H8.73C9.096,7.939,9.392,8.235,9.392,8.6"/>
			<path class="st1" d="M11.563,8.6c0,0.365-0.296,0.661-0.661,0.661H10.46C10.097,9.26,9.8,8.964,9.8,8.6s0.297-0.66,0.66-0.66
				h0.442C11.268,7.939,11.563,8.235,11.563,8.6"/>
			<path class="st1" d="M7.222,10.536c0,0.365-0.297,0.661-0.662,0.661H6.117c-0.365,0-0.661-0.295-0.661-0.661
				c0-0.365,0.296-0.661,0.661-0.661H6.56C6.925,9.875,7.222,10.171,7.222,10.536"/>
			<path class="st1" d="M9.392,10.536c0,0.365-0.296,0.661-0.661,0.661H8.289c-0.365,0-0.66-0.295-0.66-0.661
				c0-0.365,0.295-0.661,0.66-0.661H8.73C9.096,9.875,9.392,10.171,9.392,10.536"/>
			<path class="st1" d="M11.563,10.536c0,0.365-0.296,0.661-0.661,0.661H10.46c-0.363,0-0.66-0.295-0.66-0.661
				c0-0.365,0.297-0.661,0.66-0.661h0.442C11.268,9.875,11.563,10.171,11.563,10.536"/>
			<path class="st1" d="M7.222,12.474c0,0.365-0.297,0.661-0.662,0.661H6.117c-0.365,0-0.661-0.296-0.661-0.661
				c0-0.365,0.296-0.66,0.661-0.66H6.56C6.925,11.813,7.222,12.109,7.222,12.474"/>
			<path class="st1" d="M9.392,12.474c0,0.365-0.296,0.661-0.661,0.661H8.289c-0.365,0-0.66-0.296-0.66-0.661
				c0-0.365,0.295-0.66,0.66-0.66H8.73C9.096,11.813,9.392,12.109,9.392,12.474"/>
			<path class="st1" d="M11.563,12.474c0,0.365-0.296,0.661-0.661,0.661H10.46c-0.363,0-0.66-0.296-0.66-0.661
				c0-0.365,0.297-0.66,0.66-0.66h0.442C11.268,11.813,11.563,12.109,11.563,12.474"/>
		</g>
	</g>
	<g>
		<g>
			<path class="st1" d="M11.422,43.303c0-0.818-0.444-1.514-1.059-1.759c0.217-0.149,0.358-0.398,0.358-0.681
				c0-0.457-0.37-0.828-0.826-0.828c-0.457,0-0.829,0.372-0.829,0.828c0,0.277,0.138,0.522,0.349,0.673
				c-0.624,0.237-1.078,0.939-1.078,1.767c0,0-0.018,0.169,0.172,0.169h2.729C11.443,43.473,11.422,43.303,11.422,43.303"/>
			<rect x="6.395" y="38.046" class="st1" width="0.687" height="7.557"/>
			<path class="st1" d="M12.345,45.946H5.49c-0.521,0-0.946-0.425-0.946-0.948v-6.348c0-0.522,0.425-0.948,0.946-0.948h6.854
				c0.522,0,0.947,0.425,0.947,0.948v6.348C13.292,45.521,12.867,45.946,12.345,45.946z M5.49,38.39
				c-0.145,0-0.262,0.117-0.262,0.261v6.348c0,0.144,0.117,0.261,0.262,0.261h6.854c0.146,0,0.262-0.117,0.262-0.261v-6.348
				c0-0.144-0.116-0.261-0.262-0.261H5.49z"/>
			<path class="st1" d="M3.728,39.576c0,0.167,0.134,0.303,0.301,0.303h1.562c0.168,0,0.303-0.135,0.303-0.303
				c0-0.167-0.135-0.302-0.303-0.302H4.028C3.861,39.274,3.728,39.41,3.728,39.576"/>
			<path class="st1" d="M3.728,40.751c0,0.167,0.134,0.303,0.301,0.303h1.562c0.168,0,0.303-0.136,0.303-0.303
				s-0.135-0.302-0.303-0.302H4.028C3.861,40.449,3.728,40.584,3.728,40.751"/>
			<path class="st1" d="M3.728,41.925c0,0.167,0.134,0.303,0.301,0.303h1.562c0.168,0,0.303-0.136,0.303-0.303
				c0-0.167-0.135-0.302-0.303-0.302H4.028C3.861,41.624,3.728,41.759,3.728,41.925"/>
			<path class="st1" d="M3.728,43.1c0,0.167,0.134,0.303,0.301,0.303h1.562c0.168,0,0.303-0.136,0.303-0.303
				c0-0.167-0.135-0.302-0.303-0.302H4.028C3.861,42.798,3.728,42.934,3.728,43.1"/>
			<path class="st1" d="M3.728,44.275c0,0.167,0.134,0.302,0.301,0.302h1.562c0.168,0,0.303-0.135,0.303-0.302
				s-0.135-0.302-0.303-0.302H4.028C3.861,43.973,3.728,44.108,3.728,44.275"/>
			<path class="st1" d="M3.728,39.405c0,0.167,0.134,0.302,0.301,0.302h1.562c0.168,0,0.303-0.135,0.303-0.302
				c0-0.167-0.135-0.303-0.303-0.303H4.028C3.861,39.103,3.728,39.238,3.728,39.405"/>
			<path class="st1" d="M3.728,40.58c0,0.167,0.134,0.302,0.301,0.302h1.562c0.168,0,0.303-0.135,0.303-0.302
				s-0.135-0.303-0.303-0.303H4.028C3.861,40.277,3.728,40.413,3.728,40.58"/>
			<path class="st1" d="M3.728,41.754c0,0.167,0.134,0.302,0.301,0.302h1.562c0.168,0,0.303-0.135,0.303-0.302
				c0-0.167-0.135-0.302-0.303-0.302H4.028C3.861,41.452,3.728,41.586,3.728,41.754"/>
			<path class="st1" d="M3.728,42.928c0,0.167,0.134,0.303,0.301,0.303h1.562c0.168,0,0.303-0.136,0.303-0.303
				s-0.135-0.302-0.303-0.302H4.028C3.861,42.626,3.728,42.761,3.728,42.928"/>
			<path class="st1" d="M3.728,44.103c0,0.167,0.134,0.302,0.301,0.302h1.562c0.168,0,0.303-0.135,0.303-0.302
				s-0.135-0.302-0.303-0.302H4.028C3.861,43.801,3.728,43.936,3.728,44.103"/>
		</g>
	</g>
	<g>
		<g>
			<path class="st1" d="M11.846,71.504h-6.67c-0.646,0-1.172,0.525-1.172,1.171v4.402c0,0.646,0.525,1.171,1.172,1.171h6.67
				c0.646,0,1.172-0.525,1.172-1.171v-4.402C13.018,72.029,12.492,71.504,11.846,71.504 M11.846,72.173
				c0.022,0,0.04,0.003,0.061,0.005l-0.601,0.559c0,0-2.629,2.209-2.669,2.243c-0.03,0.027-0.094,0.064-0.171,0.075
				c-0.078-0.01-0.14-0.047-0.172-0.075c-0.04-0.034-2.669-2.243-2.669-2.243L5.04,72.194c0.043-0.012,0.089-0.021,0.136-0.021
				H11.846z M11.846,77.579h-6.67c-0.279,0-0.502-0.225-0.502-0.501v-4.298l2.106,1.997l-1.114,1.527
				c-0.012,0.011-0.021,0.025-0.027,0.04c-0.033,0.042-0.054,0.095-0.054,0.153c0,0.136,0.109,0.246,0.245,0.246
				c0.069,0,0.131-0.029,0.177-0.074c0.003-0.004,0.008-0.005,0.013-0.01l1.34-1.335l0.834,0.791
				c0.007,0.006,0.016,0.011,0.022,0.017c0.008,0.006,0.015,0.013,0.023,0.018c0.012,0.007,0.021,0.014,0.033,0.019
				c0.008,0.004,0.017,0.008,0.025,0.012c0.014,0.006,0.026,0.009,0.042,0.013c0.007,0.001,0.013,0.004,0.02,0.006
				c0.021,0.004,0.042,0.006,0.064,0.006l0,0c0.013,0,0.028-0.002,0.042-0.004c0.015,0.002,0.028,0.004,0.042,0.004l0,0
				c0.021,0,0.043-0.002,0.065-0.006c0.006-0.001,0.012-0.004,0.02-0.006c0.014-0.004,0.027-0.007,0.042-0.013
				c0.009-0.004,0.016-0.008,0.023-0.012c0.012-0.005,0.023-0.012,0.034-0.019c0.008-0.005,0.017-0.012,0.024-0.018
				c0.007-0.006,0.014-0.011,0.021-0.017l0.836-0.791l1.34,1.335c0.003,0.004,0.008,0.005,0.013,0.01
				c0.044,0.045,0.107,0.074,0.177,0.074c0.136,0,0.245-0.11,0.245-0.246c0-0.058-0.022-0.111-0.056-0.153
				c-0.007-0.015-0.014-0.028-0.025-0.04l-1.116-1.527l2.197-2.082v4.383C12.348,77.354,12.123,77.579,11.846,77.579"/>
		</g>
	</g>
	<g>
		<g>
			<path class="st1" d="M9.552,88.468c-0.001,0.576-0.47,1.041-1.046,1.04s-1.041-0.471-1.04-1.045
				c0.002-0.576,0.47-1.042,1.047-1.041C9.088,87.424,9.554,87.892,9.552,88.468"/>
			<path class="st1" d="M10.125,90.743c-0.429-0.431-1-0.669-1.614-0.672c-1.253,0-2.275,1.019-2.279,2.272
				c-0.004,1.256,1.016,2.281,2.272,2.285h0.007c1.252,0,2.273-1.02,2.277-2.271C10.789,91.748,10.555,91.175,10.125,90.743
				 M8.507,93.562c-0.671-0.001-1.212-0.546-1.21-1.216c0.002-0.67,0.547-1.211,1.217-1.21c0.671,0.002,1.212,0.547,1.209,1.217
				C9.722,93.022,9.177,93.564,8.507,93.562"/>
			<path class="st1" d="M12.477,93.435c-0.501-0.287-1.139-0.114-1.425,0.386c-0.286,0.499-0.113,1.136,0.386,1.423
				c0.5,0.287,1.138,0.114,1.424-0.386C13.148,94.358,12.975,93.721,12.477,93.435"/>
			<path class="st1" d="M4.544,93.435c0.5-0.287,1.139-0.114,1.425,0.386c0.286,0.499,0.113,1.136-0.386,1.423
				c-0.5,0.287-1.138,0.114-1.425-0.386C3.872,94.358,4.045,93.721,4.544,93.435"/>
		</g>
	</g>
	<g>
		<path class="st1" d="M6.946,140.446h2.623c0.14,0,0.254-0.107,0.254-0.24c0-0.131-0.114-0.239-0.254-0.239H6.946
			c-0.14,0-0.255,0.108-0.255,0.239C6.691,140.339,6.807,140.446,6.946,140.446"/>
		<path class="st1" d="M6.946,139.243h2.623c0.14,0,0.254-0.107,0.254-0.241c0-0.131-0.114-0.239-0.254-0.239H6.946
			c-0.14,0-0.255,0.108-0.255,0.239C6.691,139.136,6.807,139.243,6.946,139.243"/>
		<path class="st1" d="M8.14,143.857l0.013-0.011H6.457c-0.247,0-0.449-0.202-0.449-0.449v-6.015h4.566v3.715
			c0.122,0.033,0.185,0.048,0.356,0.077l0.47-0.416v-3.376h0.466c0.237,0,0.432-0.183,0.432-0.409c0-0.225-0.194-0.408-0.432-0.408
			H4.712c-0.239,0-0.436,0.183-0.436,0.408c0,0.226,0.196,0.409,0.436,0.409h0.463v5.984c0,0.705,0.576,1.282,1.281,1.282h1.896
			C8.272,144.418,8.182,144.016,8.14,143.857z"/>
		<path class="st1" d="M12.531,144.444c0.036-0.063,0.071-0.128,0.102-0.198c0.03-0.068,0.057-0.138,0.079-0.208l-0.386-0.368
			c0.024-0.146,0.028-0.292,0.012-0.436l0.406-0.347c-0.039-0.143-0.091-0.283-0.159-0.414l-0.533,0.013
			c-0.083-0.118-0.184-0.225-0.3-0.317l0.042-0.533c-0.063-0.036-0.129-0.071-0.197-0.1c-0.068-0.032-0.138-0.058-0.207-0.081
			l-0.369,0.386c-0.146-0.023-0.292-0.028-0.436-0.012l-0.348-0.405c-0.143,0.038-0.282,0.091-0.414,0.159l0.013,0.533
			c-0.118,0.083-0.225,0.184-0.317,0.299l-0.531-0.042c-0.036,0.063-0.072,0.129-0.103,0.197s-0.057,0.138-0.079,0.208l0.386,0.369
			c-0.023,0.146-0.027,0.292-0.012,0.436l-0.405,0.345c0.038,0.144,0.091,0.283,0.159,0.415l0.533-0.012
			c0.084,0.119,0.184,0.225,0.299,0.317l-0.042,0.532c0.064,0.037,0.13,0.071,0.198,0.102c0.068,0.031,0.138,0.057,0.207,0.08
			l0.369-0.386c0.146,0.024,0.292,0.028,0.436,0.012l0.347,0.404c0.144-0.037,0.282-0.09,0.414-0.157l-0.013-0.534
			c0.118-0.083,0.225-0.184,0.317-0.299L12.531,144.444z M10.305,144.425c-0.561-0.25-0.813-0.909-0.562-1.471
			c0.251-0.56,0.909-0.812,1.47-0.561c0.562,0.25,0.813,0.909,0.562,1.47C11.524,144.424,10.866,144.676,10.305,144.425"/>
	</g>
	<g>
		<path class="st1" d="M5.628,121.698c-0.191,0-0.348-0.155-0.348-0.346v-1.289c0-0.191,0.156-0.345,0.348-0.345
			c0.189,0,0.344,0.154,0.344,0.345v1.289C5.972,121.543,5.817,121.698,5.628,121.698z"/>
		<path class="st1" d="M11.704,123.099H7.845c-0.287,0-0.518-0.231-0.518-0.518c0-0.287,0.23-0.519,0.518-0.519h3.859
			c0.287,0,0.52,0.232,0.52,0.519C12.224,122.867,11.991,123.099,11.704,123.099z"/>
		<path class="st1" d="M12.474,123.981H7.571c-0.096,0-0.174-0.077-0.174-0.173c0-0.095,0.078-0.172,0.174-0.172h4.902
			c0.096,0,0.174,0.078,0.174,0.172C12.647,123.904,12.569,123.981,12.474,123.981z"/>
		<path class="st1" d="M10.79,124.878H7.571c-0.096,0-0.174-0.078-0.174-0.173c0-0.096,0.078-0.173,0.174-0.173h3.219
			c0.096,0,0.172,0.077,0.172,0.173C10.962,124.801,10.886,124.878,10.79,124.878z"/>
		<path class="st1" d="M11.157,126.844H7.845c-0.287,0-0.518-0.231-0.518-0.518c0-0.287,0.23-0.519,0.518-0.519h3.312
			c0.287,0,0.518,0.231,0.518,0.519C11.675,126.612,11.444,126.844,11.157,126.844z"/>
		<path class="st1" d="M12.474,127.726H7.571c-0.096,0-0.174-0.078-0.174-0.173c0-0.096,0.078-0.172,0.174-0.172h4.902
			c0.096,0,0.174,0.077,0.174,0.172C12.647,127.648,12.569,127.726,12.474,127.726z"/>
		<path class="st1" d="M5.628,129.188c-0.191,0-0.348-0.154-0.348-0.346v-1.289c0-0.191,0.156-0.345,0.348-0.345
			c0.189,0,0.344,0.154,0.344,0.345v1.289C5.972,129.034,5.817,129.188,5.628,129.188z"/>
		<path class="st1" d="M5.628,123.833c-0.693,0-1.254-0.562-1.254-1.252s0.561-1.253,1.254-1.253c0.689,0,1.252,0.562,1.252,1.253
			S6.317,123.833,5.628,123.833z M5.628,122.019c-0.311,0-0.562,0.251-0.562,0.562c0,0.309,0.252,0.562,0.562,0.562
			c0.309,0,0.561-0.252,0.561-0.562C6.188,122.271,5.937,122.019,5.628,122.019z"/>
		<path class="st1" d="M5.628,125.443c-0.191,0-0.348-0.154-0.348-0.346v-1.29c0-0.191,0.156-0.345,0.348-0.345
			c0.189,0,0.344,0.154,0.344,0.345v1.29C5.972,125.289,5.817,125.443,5.628,125.443z"/>
		<path class="st1" d="M5.628,127.579c-0.693,0-1.254-0.562-1.254-1.252c0-0.692,0.561-1.253,1.254-1.253
			c0.689,0,1.252,0.562,1.252,1.253C6.88,127.016,6.317,127.579,5.628,127.579z M5.628,125.765c-0.311,0-0.562,0.251-0.562,0.562
			c0,0.309,0.252,0.562,0.562,0.562c0.309,0,0.561-0.252,0.561-0.562C6.188,126.016,5.937,125.765,5.628,125.765z"/>
	</g>
	<g>
		<path class="st1" d="M11.441,173.865c-0.415,0-0.752,0.308-0.752,0.833v2.571c0,0.526,0.337,0.833,0.752,0.833
			c0.416,0,0.752-0.307,0.752-0.833v-2.571C12.193,174.173,11.857,173.865,11.441,173.865"/>
		<path class="st1" d="M5.581,173.865c-0.416,0-0.753,0.308-0.753,0.833v2.571c0,0.526,0.337,0.833,0.753,0.833
			c0.415,0,0.752-0.307,0.752-0.833v-2.571C6.333,174.173,5.996,173.865,5.581,173.865"/>
		<path class="st1" d="M8.511,169.208c-2.566,0-4.651,2.087-4.651,4.652c0,0.05,0.004,2.344,0.004,2.345
			c0,0.195,0.157,0.353,0.354,0.353c0.194,0,0.354-0.157,0.354-0.353c0-0.001-0.002-2.294-0.002-2.345
			c0-2.173,1.768-3.942,3.942-3.942c2.174,0,3.94,1.769,3.94,3.942c0,0.04,0,2.344,0,2.345c0,0.195,0.159,0.353,0.354,0.353
			c0.196,0,0.354-0.157,0.354-0.353c0-0.001,0.002-2.305,0.002-2.345C13.161,171.296,11.075,169.208,8.511,169.208"/>
	</g>
	<path class="st1" d="M11.705,160.969c0.122-0.115,0.242-0.235,0.355-0.365s0.218-0.267,0.314-0.404l-0.602-1.068
		c0.152-0.304,0.26-0.623,0.321-0.949l1.121-0.488c0.015-0.34-0.007-0.681-0.068-1.017l-1.178-0.331
		c-0.105-0.315-0.253-0.616-0.447-0.898l0.451-1.138c-0.114-0.124-0.234-0.245-0.364-0.357c-0.131-0.114-0.266-0.217-0.404-0.315
		l-1.066,0.602c-0.306-0.152-0.625-0.258-0.952-0.32L8.7,152.799c-0.342-0.016-0.681,0.01-1.017,0.069l-0.334,1.176
		c-0.313,0.104-0.612,0.257-0.895,0.447l-1.14-0.449c-0.123,0.115-0.243,0.235-0.357,0.364c-0.113,0.13-0.216,0.265-0.313,0.404
		l0.602,1.068c-0.153,0.302-0.26,0.622-0.321,0.949l-1.121,0.486c-0.015,0.341,0.01,0.683,0.067,1.019l1.18,0.331
		c0.104,0.315,0.253,0.617,0.444,0.896L5.046,160.7c0.115,0.124,0.236,0.244,0.365,0.356c0.13,0.113,0.266,0.218,0.403,0.314
		l1.068-0.601c0.306,0.153,0.623,0.259,0.949,0.32l0.486,1.122c0.341,0.013,0.683-0.01,1.02-0.068l0.329-1.179
		c0.314-0.105,0.618-0.254,0.897-0.446L11.705,160.969z M6.829,159.432c-1.063-0.928-1.174-2.543-0.246-3.608
		c0.928-1.063,2.543-1.171,3.607-0.244c1.062,0.929,1.172,2.542,0.244,3.605C9.506,160.25,7.894,160.36,6.829,159.432"/>
</g>
<g>
	<g>
		<g>
			<path class="st0" d="M22.069,26.224c1.344,2.743,2.977,3.595,3.73,3.262c0.214-0.095,0.654-0.448,0.77-0.613
				c0.119-0.168,0.103-0.387-0.021-0.549c-0.382-0.488-0.737-1-1.067-1.523c-0.108-0.172-0.305-0.234-0.495-0.164
				c-0.223,0.083-0.406,0.281-0.64,0.404c-0.187,0.098-0.712-0.067-1.323-1.283c-0.587-1.23-0.395-1.745-0.201-1.832
				c0.239-0.11,0.509-0.132,0.711-0.259c0.172-0.107,0.243-0.299,0.173-0.491c-0.21-0.581-0.396-1.176-0.55-1.776
				c-0.051-0.198-0.213-0.346-0.419-0.355c-0.201-0.008-0.749,0.123-0.955,0.233C21.055,21.67,20.728,23.482,22.069,26.224z"/>
			<g>
				<path class="st2" d="M25.054,21.783h3.556c0.215,0,0.387,0.172,0.387,0.386s-0.172,0.387-0.387,0.387h-3.556
					c-0.214,0-0.387-0.173-0.387-0.387S24.84,21.783,25.054,21.783z"/>
				<path class="st2" d="M25.054,24.872h3.556c0.215,0,0.387,0.173,0.387,0.387c0,0.213-0.172,0.386-0.387,0.386h-3.556
					c-0.214,0-0.387-0.173-0.387-0.386C24.667,25.044,24.84,24.872,25.054,24.872z"/>
				<path class="st2" d="M25.054,23.327h3.556c0.215,0,0.387,0.173,0.387,0.386c0,0.213-0.172,0.386-0.387,0.386h-3.556
					c-0.214,0-0.387-0.173-0.387-0.386C24.667,23.5,24.84,23.327,25.054,23.327z"/>
			</g>
		</g>
	</g>
	<g>
		<path class="st0" d="M26.602,107.125c-0.225,0.237-0.507,0.416-0.822,0.525c1.569,0.4,2.752,2.105,2.752,4.143v0.024
			c-0.014,0.003-0.037,0.006-0.07,0.006h-6.807c-0.018,0-0.032-0.001-0.041-0.002v-0.028c0-2.057,1.205-3.773,2.797-4.153
			c-0.313-0.114-0.59-0.299-0.812-0.539c-1.607,0.708-2.758,2.534-2.763,4.678c-0.005,0.094,0.001,0.356,0.194,0.571
			c0.104,0.114,0.297,0.251,0.625,0.251h6.807c0.354,0,0.556-0.145,0.663-0.266c0.187-0.211,0.192-0.462,0.186-0.559
			C29.305,109.659,28.18,107.851,26.602,107.125z"/>
		<path class="st0" d="M25.109,108.16c-1.352,0-2.452-1.101-2.452-2.454c0-1.353,1.101-2.453,2.452-2.453
			c1.354,0,2.454,1.1,2.454,2.453C27.563,107.059,26.463,108.16,25.109,108.16z M25.109,104.032c-0.923,0-1.675,0.75-1.675,1.674
			c0,0.923,0.752,1.675,1.675,1.675c0.924,0,1.676-0.751,1.676-1.675C26.785,104.783,26.033,104.032,25.109,104.032z"/>
	</g>
	<path class="st0" d="M27.629,63.062c-0.164,0-0.322-0.051-0.456-0.147l-2.1-1.525l-2.098,1.524
		c-0.272,0.195-0.646,0.193-0.914,0.001c-0.275-0.2-0.389-0.55-0.283-0.872l0.801-2.466l-2.098-1.523
		c-0.274-0.2-0.389-0.55-0.283-0.872c0.105-0.322,0.402-0.538,0.74-0.538h2.594l0.801-2.466c0.105-0.322,0.403-0.538,0.74-0.538
		c0.338,0,0.636,0.216,0.74,0.538l0.802,2.466h2.594c0.338,0,0.635,0.217,0.739,0.538c0.104,0.322-0.009,0.671-0.282,0.87
		l-2.098,1.524l0.801,2.466c0.104,0.323-0.01,0.673-0.283,0.871C27.951,63.01,27.793,63.062,27.629,63.062z M25.073,60.426
		l2.556,1.857v0c0,0,0,0,0.002,0l-0.979-3.003l2.557-1.856H26.05l-0.977-3.004l-0.976,3.004h-3.159l2.556,1.856l-0.976,3.004
		L25.073,60.426z"/>
	<g>
		<g>
			<path class="st0" d="M25.073,4.412c-3.139,0-4.663,1.123-4.696,1.968c-0.01,0.241,0.118,0.807,0.218,0.988
				c0.102,0.186,0.311,0.27,0.514,0.227c0.625-0.13,1.259-0.229,1.891-0.296c0.207-0.021,0.354-0.175,0.375-0.383
				c0.026-0.243-0.075-0.502-0.084-0.772c-0.006-0.218,0.384-0.626,1.781-0.642c1.401,0.016,1.789,0.424,1.782,0.642
				c-0.006,0.27-0.107,0.529-0.083,0.773c0.021,0.208,0.166,0.359,0.375,0.382c0.632,0.069,1.266,0.166,1.891,0.296
				c0.205,0.043,0.412-0.041,0.516-0.227c0.098-0.182,0.226-0.747,0.218-0.987C29.734,5.533,28.21,4.412,25.073,4.412"/>
			<path class="st0" d="M23.784,8.6c0,0.365-0.297,0.661-0.662,0.661H22.68c-0.365,0-0.661-0.296-0.661-0.661s0.296-0.66,0.661-0.66
				h0.442C23.487,7.939,23.784,8.235,23.784,8.6"/>
			<path class="st0" d="M25.954,8.6c0,0.365-0.296,0.661-0.661,0.661h-0.441c-0.365,0-0.66-0.296-0.66-0.661s0.295-0.66,0.66-0.66
				h0.441C25.658,7.939,25.954,8.235,25.954,8.6"/>
			<path class="st0" d="M28.126,8.6c0,0.365-0.296,0.661-0.661,0.661h-0.442c-0.363,0-0.66-0.296-0.66-0.661s0.297-0.66,0.66-0.66
				h0.442C27.83,7.939,28.126,8.235,28.126,8.6"/>
			<path class="st0" d="M23.784,10.536c0,0.365-0.297,0.661-0.662,0.661H22.68c-0.365,0-0.661-0.295-0.661-0.661
				c0-0.365,0.296-0.661,0.661-0.661h0.442C23.487,9.875,23.784,10.171,23.784,10.536"/>
			<path class="st0" d="M25.954,10.536c0,0.365-0.296,0.661-0.661,0.661h-0.441c-0.365,0-0.66-0.295-0.66-0.661
				c0-0.365,0.295-0.661,0.66-0.661h0.441C25.658,9.875,25.954,10.171,25.954,10.536"/>
			<path class="st0" d="M28.126,10.536c0,0.365-0.296,0.661-0.661,0.661h-0.442c-0.363,0-0.66-0.295-0.66-0.661
				c0-0.365,0.297-0.661,0.66-0.661h0.442C27.83,9.875,28.126,10.171,28.126,10.536"/>
			<path class="st0" d="M23.784,12.474c0,0.365-0.297,0.661-0.662,0.661H22.68c-0.365,0-0.661-0.296-0.661-0.661
				c0-0.365,0.296-0.66,0.661-0.66h0.442C23.487,11.813,23.784,12.109,23.784,12.474"/>
			<path class="st0" d="M25.954,12.474c0,0.365-0.296,0.661-0.661,0.661h-0.441c-0.365,0-0.66-0.296-0.66-0.661
				c0-0.365,0.295-0.66,0.66-0.66h0.441C25.658,11.813,25.954,12.109,25.954,12.474"/>
			<path class="st0" d="M28.126,12.474c0,0.365-0.296,0.661-0.661,0.661h-0.442c-0.363,0-0.66-0.296-0.66-0.661
				c0-0.365,0.297-0.66,0.66-0.66h0.442C27.83,11.813,28.126,12.109,28.126,12.474"/>
		</g>
	</g>
	<g>
		<g>
			<path class="st0" d="M27.984,43.303c0-0.818-0.444-1.514-1.059-1.759c0.217-0.149,0.358-0.398,0.358-0.681
				c0-0.457-0.37-0.828-0.826-0.828c-0.457,0-0.829,0.372-0.829,0.828c0,0.277,0.138,0.522,0.349,0.673
				c-0.624,0.237-1.078,0.939-1.078,1.767c0,0-0.018,0.169,0.172,0.169h2.729C28.006,43.473,27.984,43.303,27.984,43.303"/>
			<rect x="22.957" y="38.046" class="st0" width="0.687" height="7.557"/>
			<path class="st0" d="M28.907,45.946h-6.854c-0.521,0-0.946-0.425-0.946-0.948v-6.348c0-0.522,0.425-0.948,0.946-0.948h6.854
				c0.522,0,0.947,0.425,0.947,0.948v6.348C29.854,45.521,29.43,45.946,28.907,45.946z M22.053,38.39
				c-0.145,0-0.262,0.117-0.262,0.261v6.348c0,0.144,0.117,0.261,0.262,0.261h6.854c0.146,0,0.262-0.117,0.262-0.261v-6.348
				c0-0.144-0.116-0.261-0.262-0.261H22.053z"/>
			<path class="st0" d="M20.29,39.576c0,0.167,0.134,0.303,0.301,0.303h1.562c0.168,0,0.303-0.135,0.303-0.303
				c0-0.167-0.135-0.302-0.303-0.302h-1.562C20.424,39.274,20.29,39.41,20.29,39.576"/>
			<path class="st0" d="M20.29,40.751c0,0.167,0.134,0.303,0.301,0.303h1.562c0.168,0,0.303-0.136,0.303-0.303
				s-0.135-0.302-0.303-0.302h-1.562C20.424,40.449,20.29,40.584,20.29,40.751"/>
			<path class="st0" d="M20.29,41.925c0,0.167,0.134,0.303,0.301,0.303h1.562c0.168,0,0.303-0.136,0.303-0.303
				c0-0.167-0.135-0.302-0.303-0.302h-1.562C20.424,41.624,20.29,41.759,20.29,41.925"/>
			<path class="st0" d="M20.29,43.1c0,0.167,0.134,0.303,0.301,0.303h1.562c0.168,0,0.303-0.136,0.303-0.303
				c0-0.167-0.135-0.302-0.303-0.302h-1.562C20.424,42.798,20.29,42.934,20.29,43.1"/>
			<path class="st0" d="M20.29,44.275c0,0.167,0.134,0.302,0.301,0.302h1.562c0.168,0,0.303-0.135,0.303-0.302
				s-0.135-0.302-0.303-0.302h-1.562C20.424,43.973,20.29,44.108,20.29,44.275"/>
			<path class="st0" d="M20.29,39.405c0,0.167,0.134,0.302,0.301,0.302h1.562c0.168,0,0.303-0.135,0.303-0.302
				c0-0.167-0.135-0.303-0.303-0.303h-1.562C20.424,39.103,20.29,39.238,20.29,39.405"/>
			<path class="st0" d="M20.29,40.58c0,0.167,0.134,0.302,0.301,0.302h1.562c0.168,0,0.303-0.135,0.303-0.302
				s-0.135-0.303-0.303-0.303h-1.562C20.424,40.277,20.29,40.413,20.29,40.58"/>
			<path class="st0" d="M20.29,41.754c0,0.167,0.134,0.302,0.301,0.302h1.562c0.168,0,0.303-0.135,0.303-0.302
				c0-0.167-0.135-0.302-0.303-0.302h-1.562C20.424,41.452,20.29,41.586,20.29,41.754"/>
			<path class="st0" d="M20.29,42.928c0,0.167,0.134,0.303,0.301,0.303h1.562c0.168,0,0.303-0.136,0.303-0.303
				s-0.135-0.302-0.303-0.302h-1.562C20.424,42.626,20.29,42.761,20.29,42.928"/>
			<path class="st0" d="M20.29,44.103c0,0.167,0.134,0.302,0.301,0.302h1.562c0.168,0,0.303-0.135,0.303-0.302
				s-0.135-0.302-0.303-0.302h-1.562C20.424,43.801,20.29,43.936,20.29,44.103"/>
		</g>
	</g>
	<g>
		<g>
			<path class="st0" d="M28.408,71.504h-6.67c-0.646,0-1.172,0.525-1.172,1.171v4.402c0,0.646,0.525,1.171,1.172,1.171h6.67
				c0.646,0,1.172-0.525,1.172-1.171v-4.402C29.58,72.029,29.055,71.504,28.408,71.504 M28.408,72.173
				c0.022,0,0.04,0.003,0.061,0.005l-0.601,0.559c0,0-2.629,2.209-2.669,2.243c-0.03,0.027-0.094,0.064-0.171,0.075
				c-0.078-0.01-0.14-0.047-0.172-0.075c-0.04-0.034-2.669-2.243-2.669-2.243l-0.585-0.543c0.043-0.012,0.089-0.021,0.136-0.021
				H28.408z M28.408,77.579h-6.67c-0.279,0-0.502-0.225-0.502-0.501v-4.298l2.106,1.997l-1.114,1.527
				c-0.012,0.011-0.021,0.025-0.027,0.04c-0.033,0.042-0.054,0.095-0.054,0.153c0,0.136,0.109,0.246,0.245,0.246
				c0.069,0,0.131-0.029,0.177-0.074c0.003-0.004,0.008-0.005,0.013-0.01l1.34-1.335l0.834,0.791
				c0.007,0.006,0.016,0.011,0.022,0.017c0.008,0.006,0.015,0.013,0.023,0.018c0.012,0.007,0.021,0.014,0.033,0.019
				c0.008,0.004,0.017,0.008,0.025,0.012c0.014,0.006,0.026,0.009,0.042,0.013c0.007,0.001,0.013,0.004,0.02,0.006
				c0.021,0.004,0.042,0.006,0.064,0.006l0,0c0.013,0,0.028-0.002,0.042-0.004c0.015,0.002,0.028,0.004,0.042,0.004l0,0
				c0.021,0,0.043-0.002,0.065-0.006c0.006-0.001,0.012-0.004,0.02-0.006c0.014-0.004,0.027-0.007,0.042-0.013
				c0.009-0.004,0.016-0.008,0.023-0.012c0.012-0.005,0.023-0.012,0.034-0.019c0.008-0.005,0.017-0.012,0.024-0.018
				c0.007-0.006,0.014-0.011,0.021-0.017l0.836-0.791l1.34,1.335c0.003,0.004,0.008,0.005,0.013,0.01
				c0.044,0.045,0.107,0.074,0.177,0.074c0.136,0,0.245-0.11,0.245-0.246c0-0.058-0.022-0.111-0.056-0.153
				c-0.007-0.015-0.014-0.028-0.025-0.04l-1.116-1.527l2.197-2.082v4.383C28.91,77.354,28.686,77.579,28.408,77.579"/>
		</g>
	</g>
	<g>
		<g>
			<path class="st0" d="M26.114,88.468c-0.001,0.576-0.47,1.041-1.046,1.04s-1.041-0.471-1.04-1.045
				c0.002-0.576,0.47-1.042,1.047-1.041C25.65,87.424,26.116,87.892,26.114,88.468"/>
			<path class="st0" d="M26.688,90.743c-0.429-0.431-1-0.669-1.614-0.672c-1.253,0-2.275,1.019-2.279,2.272
				c-0.004,1.256,1.016,2.281,2.272,2.285h0.007c1.252,0,2.273-1.02,2.277-2.271C27.352,91.748,27.117,91.175,26.688,90.743
				 M25.069,93.562c-0.671-0.001-1.212-0.546-1.21-1.216c0.002-0.67,0.547-1.211,1.217-1.21c0.671,0.002,1.212,0.547,1.209,1.217
				C26.284,93.022,25.739,93.564,25.069,93.562"/>
			<path class="st0" d="M29.039,93.435c-0.501-0.287-1.139-0.114-1.425,0.386c-0.286,0.499-0.113,1.136,0.386,1.423
				c0.5,0.287,1.138,0.114,1.424-0.386C29.711,94.358,29.537,93.721,29.039,93.435"/>
			<path class="st0" d="M21.106,93.435c0.5-0.287,1.139-0.114,1.425,0.386c0.286,0.499,0.113,1.136-0.386,1.423
				c-0.5,0.287-1.138,0.114-1.425-0.386C20.435,94.358,20.607,93.721,21.106,93.435"/>
		</g>
	</g>
	<g>
		<path class="st0" d="M23.509,140.446h2.623c0.14,0,0.254-0.107,0.254-0.24c0-0.131-0.114-0.239-0.254-0.239h-2.623
			c-0.14,0-0.255,0.108-0.255,0.239C23.254,140.339,23.369,140.446,23.509,140.446"/>
		<path class="st0" d="M23.509,139.243h2.623c0.14,0,0.254-0.107,0.254-0.241c0-0.131-0.114-0.239-0.254-0.239h-2.623
			c-0.14,0-0.255,0.108-0.255,0.239C23.254,139.136,23.369,139.243,23.509,139.243"/>
		<path class="st0" d="M24.702,143.857l0.013-0.011H23.02c-0.247,0-0.449-0.202-0.449-0.449v-6.015h4.566v3.715
			c0.122,0.033,0.185,0.048,0.356,0.077l0.47-0.416v-3.376h0.466c0.237,0,0.432-0.183,0.432-0.409c0-0.225-0.194-0.408-0.432-0.408
			h-7.154c-0.239,0-0.436,0.183-0.436,0.408c0,0.226,0.196,0.409,0.436,0.409h0.463v5.984c0,0.705,0.576,1.282,1.281,1.282h1.896
			C24.835,144.418,24.744,144.016,24.702,143.857z"/>
		<path class="st0" d="M29.094,144.444c0.036-0.063,0.071-0.128,0.102-0.198c0.03-0.068,0.057-0.138,0.079-0.208l-0.386-0.368
			c0.024-0.146,0.028-0.292,0.012-0.436l0.406-0.347c-0.039-0.143-0.091-0.283-0.159-0.414l-0.533,0.013
			c-0.083-0.118-0.184-0.225-0.3-0.317l0.042-0.533c-0.063-0.036-0.129-0.071-0.197-0.1c-0.068-0.032-0.138-0.058-0.207-0.081
			l-0.369,0.386c-0.146-0.023-0.292-0.028-0.436-0.012l-0.348-0.405c-0.143,0.038-0.282,0.091-0.414,0.159l0.013,0.533
			c-0.118,0.083-0.225,0.184-0.317,0.299l-0.531-0.042c-0.036,0.063-0.072,0.129-0.103,0.197s-0.057,0.138-0.079,0.208l0.386,0.369
			c-0.023,0.146-0.027,0.292-0.012,0.436l-0.405,0.345c0.038,0.144,0.091,0.283,0.159,0.415l0.533-0.012
			c0.084,0.119,0.184,0.225,0.299,0.317l-0.042,0.532c0.064,0.037,0.13,0.071,0.198,0.102c0.068,0.031,0.138,0.057,0.207,0.08
			l0.369-0.386c0.146,0.024,0.292,0.028,0.436,0.012l0.347,0.404c0.144-0.037,0.282-0.09,0.414-0.157l-0.013-0.534
			c0.118-0.083,0.225-0.184,0.317-0.299L29.094,144.444z M26.867,144.425c-0.561-0.25-0.813-0.909-0.562-1.471
			c0.251-0.56,0.909-0.812,1.47-0.561c0.562,0.25,0.813,0.909,0.562,1.47C28.087,144.424,27.429,144.676,26.867,144.425"/>
	</g>
	<g>
		<path class="st0" d="M22.19,121.698c-0.191,0-0.348-0.155-0.348-0.346v-1.289c0-0.191,0.156-0.345,0.348-0.345
			c0.189,0,0.344,0.154,0.344,0.345v1.289C22.534,121.543,22.38,121.698,22.19,121.698z"/>
		<path class="st0" d="M28.267,123.099h-3.859c-0.287,0-0.518-0.231-0.518-0.518c0-0.287,0.23-0.519,0.518-0.519h3.859
			c0.287,0,0.52,0.232,0.52,0.519C28.786,122.867,28.554,123.099,28.267,123.099z"/>
		<path class="st0" d="M29.036,123.981h-4.902c-0.096,0-0.174-0.077-0.174-0.173c0-0.095,0.078-0.172,0.174-0.172h4.902
			c0.096,0,0.174,0.078,0.174,0.172C29.21,123.904,29.132,123.981,29.036,123.981z"/>
		<path class="st0" d="M27.353,124.878h-3.219c-0.096,0-0.174-0.078-0.174-0.173c0-0.096,0.078-0.173,0.174-0.173h3.219
			c0.096,0,0.172,0.077,0.172,0.173C27.524,124.801,27.448,124.878,27.353,124.878z"/>
		<path class="st0" d="M27.72,126.844h-3.312c-0.287,0-0.518-0.231-0.518-0.518c0-0.287,0.23-0.519,0.518-0.519h3.312
			c0.287,0,0.518,0.231,0.518,0.519C28.237,126.612,28.007,126.844,27.72,126.844z"/>
		<path class="st0" d="M29.036,127.726h-4.902c-0.096,0-0.174-0.078-0.174-0.173c0-0.096,0.078-0.172,0.174-0.172h4.902
			c0.096,0,0.174,0.077,0.174,0.172C29.21,127.648,29.132,127.726,29.036,127.726z"/>
		<path class="st0" d="M22.19,129.188c-0.191,0-0.348-0.154-0.348-0.346v-1.289c0-0.191,0.156-0.345,0.348-0.345
			c0.189,0,0.344,0.154,0.344,0.345v1.289C22.534,129.034,22.38,129.188,22.19,129.188z"/>
		<path class="st0" d="M22.19,123.833c-0.693,0-1.254-0.562-1.254-1.252s0.561-1.253,1.254-1.253c0.689,0,1.252,0.562,1.252,1.253
			S22.88,123.833,22.19,123.833z M22.19,122.019c-0.311,0-0.562,0.251-0.562,0.562c0,0.309,0.252,0.562,0.562,0.562
			c0.309,0,0.561-0.252,0.561-0.562C22.751,122.271,22.499,122.019,22.19,122.019z"/>
		<path class="st0" d="M22.19,125.443c-0.191,0-0.348-0.154-0.348-0.346v-1.29c0-0.191,0.156-0.345,0.348-0.345
			c0.189,0,0.344,0.154,0.344,0.345v1.29C22.534,125.289,22.38,125.443,22.19,125.443z"/>
		<path class="st0" d="M22.19,127.579c-0.693,0-1.254-0.562-1.254-1.252c0-0.692,0.561-1.253,1.254-1.253
			c0.689,0,1.252,0.562,1.252,1.253C23.442,127.016,22.88,127.579,22.19,127.579z M22.19,125.765c-0.311,0-0.562,0.251-0.562,0.562
			c0,0.309,0.252,0.562,0.562,0.562c0.309,0,0.561-0.252,0.561-0.562C22.751,126.016,22.499,125.765,22.19,125.765z"/>
	</g>
	<g>
		<path class="st0" d="M28.004,173.865c-0.415,0-0.752,0.308-0.752,0.833v2.571c0,0.526,0.337,0.833,0.752,0.833
			c0.416,0,0.752-0.307,0.752-0.833v-2.571C28.756,174.173,28.42,173.865,28.004,173.865"/>
		<path class="st0" d="M22.144,173.865c-0.416,0-0.753,0.308-0.753,0.833v2.571c0,0.526,0.337,0.833,0.753,0.833
			c0.415,0,0.752-0.307,0.752-0.833v-2.571C22.896,174.173,22.559,173.865,22.144,173.865"/>
		<path class="st0" d="M25.073,169.208c-2.566,0-4.651,2.087-4.651,4.652c0,0.05,0.004,2.344,0.004,2.345
			c0,0.195,0.157,0.353,0.354,0.353c0.194,0,0.354-0.157,0.354-0.353c0-0.001-0.002-2.294-0.002-2.345
			c0-2.173,1.768-3.942,3.942-3.942c2.174,0,3.94,1.769,3.94,3.942c0,0.04,0,2.344,0,2.345c0,0.195,0.159,0.353,0.354,0.353
			c0.196,0,0.354-0.157,0.354-0.353c0-0.001,0.002-2.305,0.002-2.345C29.724,171.296,27.638,169.208,25.073,169.208"/>
	</g>
	<path class="st0" d="M28.268,160.969c0.122-0.115,0.242-0.235,0.355-0.365s0.218-0.267,0.314-0.404l-0.602-1.068
		c0.152-0.304,0.26-0.623,0.321-0.949l1.121-0.488c0.015-0.34-0.007-0.681-0.068-1.017l-1.178-0.331
		c-0.105-0.315-0.253-0.616-0.447-0.898l0.451-1.138c-0.114-0.124-0.234-0.245-0.364-0.357c-0.131-0.114-0.266-0.217-0.404-0.315
		l-1.066,0.602c-0.306-0.152-0.625-0.258-0.952-0.32l-0.486-1.122c-0.342-0.016-0.681,0.01-1.017,0.069l-0.334,1.176
		c-0.313,0.104-0.612,0.257-0.895,0.447l-1.14-0.449c-0.123,0.115-0.243,0.235-0.357,0.364c-0.113,0.13-0.216,0.265-0.313,0.404
		l0.602,1.068c-0.153,0.302-0.26,0.622-0.321,0.949l-1.121,0.486c-0.015,0.341,0.01,0.683,0.067,1.019l1.18,0.331
		c0.104,0.315,0.253,0.617,0.444,0.896l-0.449,1.141c0.115,0.124,0.236,0.244,0.365,0.356c0.13,0.113,0.266,0.218,0.403,0.314
		l1.068-0.601c0.306,0.153,0.623,0.259,0.949,0.32l0.486,1.122c0.341,0.013,0.683-0.01,1.02-0.068l0.329-1.179
		c0.314-0.105,0.618-0.254,0.897-0.446L28.268,160.969z M23.392,159.432c-1.063-0.928-1.174-2.543-0.246-3.608
		c0.928-1.063,2.543-1.171,3.607-0.244c1.062,0.929,1.172,2.542,0.244,3.605C26.068,160.25,24.456,160.36,23.392,159.432"/>
</g>
</svg>
