<?xml version="1.0" encoding="utf-8"?>
<!-- Generator: Adobe Illustrator 15.0.2, SVG Export Plug-In . SVG Version: 6.00 Build 0)  -->
<!DOCTYPE svg PUBLIC "-//W3C//DTD SVG 1.1//EN" "http://www.w3.org/Graphics/SVG/1.1/DTD/svg11.dtd">
<svg version="1.1" id="Layer_1" xmlns="http://www.w3.org/2000/svg" xmlns:xlink="http://www.w3.org/1999/xlink" x="0px" y="0px"
	 width="55.5px" height="31.584px" viewBox="0 0 55.5 31.584" enable-background="new 0 0 55.5 31.584" xml:space="preserve">
<g>
	
		<radialGradient id="SVGID_1_" cx="-49.5557" cy="5181.5771" r="39.9395" gradientTransform="matrix(0.4097 0 0 0.0996 52.1816 -489.0789)" gradientUnits="userSpaceOnUse">
		<stop  offset="0" style="stop-color:#60605F"/>
		<stop  offset="0.0508" style="stop-color:#7D7C7C"/>
		<stop  offset="0.1194" style="stop-color:#A2A0A0"/>
		<stop  offset="0.1862" style="stop-color:#BFBEBD"/>
		<stop  offset="0.2498" style="stop-color:#D0D0D0"/>
		<stop  offset="0.3067" style="stop-color:#D7D7D7"/>
		<stop  offset="0.3727" style="stop-color:#DEDDDD"/>
		<stop  offset="0.5754" style="stop-color:#EEEEEE"/>
		<stop  offset="0.7827" style="stop-color:#F8F8F8"/>
		<stop  offset="1" style="stop-color:#FBFBFB"/>
	</radialGradient>
	<ellipse fill="url(#SVGID_1_)" cx="31.879" cy="27.022" rx="16.629" ry="4.397"/>
	<g>
		<g>
			<g>
				
					<rect x="12.676" y="17.836" fill="none" stroke="#1E1E1C" stroke-width="0.2642" stroke-miterlimit="10" width="8.015" height="5.674"/>
				
					<rect x="7.742" y="17.664" fill="none" stroke="#1E1E1C" stroke-width="0.2642" stroke-miterlimit="10" width="3.769" height="8.021"/>
				
					<rect x="16.199" y="23.51" fill="none" stroke="#1E1E1C" stroke-width="0.2642" stroke-miterlimit="10" width="0.97" height="1.144"/>
				
					<rect x="15.208" y="24.651" fill="none" stroke="#1E1E1C" stroke-width="0.2642" stroke-miterlimit="10" width="2.95" height="0.5"/>
				
					<rect x="13.195" y="18.333" fill="none" stroke="#1E1E1C" stroke-width="0.2642" stroke-miterlimit="10" width="6.967" height="4.591"/>
				<rect x="8.207" y="18.192" fill="#1E1E1C" width="2.775" height="0.824"/>
				<rect x="8.207" y="19.349" fill="#1E1E1C" width="2.775" height="0.743"/>
				<circle fill="#1E1E1C" cx="10.696" cy="20.725" r="0.259"/>
			</g>
			<g>
				
					<circle fill="#FFFFFF" stroke="#1E1E1C" stroke-width="0.5049" stroke-linecap="round" stroke-linejoin="round" stroke-miterlimit="10" cx="31.881" cy="4.818" r="4.651"/>
				<path fill="#1E1E1C" d="M27.492,3.273c0.533-1.423,1.604-2.309,2.498-2.705c2.346-1.045,5.096,0.012,6.141,2.36
					c0.082,0.183,0.145,0.368,0.201,0.557c-1.379,0.292-3.201,0.776-5.48,0.093C28.926,3.001,28.275,3.194,27.492,3.273z"/>
				
					<ellipse transform="matrix(0.9139 -0.406 0.406 0.9139 0.2092 12.1044)" fill="#1E1E1C" cx="28.635" cy="5.559" rx="0.316" ry="0.526"/>
				
					<ellipse transform="matrix(0.9128 -0.4085 0.4085 0.9128 0.238 13.0724)" fill="#1E1E1C" cx="30.728" cy="5.979" rx="0.372" ry="0.54"/>
				<path fill="#1E1E1C" d="M29.035,7.685c0,0,1.154,1.368,1.816,0.407"/>
				
					<polygon fill="#FFFFFF" stroke="#1E1E1C" stroke-width="0.5049" stroke-linecap="round" stroke-linejoin="round" stroke-miterlimit="10" points="
					23.937,10.943 26.391,11.529 24.826,7.768 22.373,7.183 				"/>
				
					<polyline fill="none" stroke="#1E1E1C" stroke-width="0.5049" stroke-linecap="round" stroke-linejoin="round" stroke-miterlimit="10" points="
					24.857,10.318 26.967,14.375 29.246,11.272 				"/>
				<polygon fill="#9D9D9C" points="30.02,10.86 31.34,10.623 32.141,13.247 32.904,10.623 34.234,10.773 33.498,17.379 
					30.232,17.379 				"/>
				<polygon fill="#1E1E1C" points="34.621,27.022 32.58,27.022 31.879,20.601 31.346,27.022 29.139,27.022 30.539,26.327 
					30.26,18.019 33.527,18.019 33.439,26.351 				"/>
				<g>
					<polyline fill="none" stroke="#1E1E1C" stroke-width="0.5049" stroke-linecap="round" stroke-linejoin="round" points="
						27.014,10.318 30.98,13.447 33.615,11.272 					"/>
				</g>
			</g>
			<circle fill="#9D9D9C" cx="14.616" cy="8.148" r="4.255"/>
			<g>
				<path fill="#FFFFFF" d="M16.98,6.818h-4.73c-0.129,0-0.232,0.104-0.232,0.234v2.459c0,0.129,0.104,0.234,0.232,0.234h4.73
					c0.131,0,0.236-0.105,0.236-0.234V7.053C17.216,6.921,17.111,6.818,16.98,6.818z M16.924,9.346c0,0.061-0.048,0.107-0.106,0.107
					h-4.404c-0.057,0-0.105-0.047-0.105-0.107V7.216c0-0.057,0.049-0.105,0.105-0.105h4.404c0.059,0,0.106,0.049,0.106,0.105V9.346z
					"/>
				<path fill="#FFFFFF" d="M15.601,7.542c-0.406,0-0.734,0.329-0.734,0.732c0,0.189,0.072,0.359,0.188,0.492h-0.879
					c0.116-0.133,0.188-0.303,0.188-0.492c0-0.403-0.328-0.732-0.734-0.732c-0.404,0-0.732,0.329-0.732,0.732
					c0,0.398,0.316,0.723,0.713,0.733v0.001h2.035V9.005c0.383-0.024,0.689-0.342,0.689-0.732
					C16.335,7.871,16.003,7.542,15.601,7.542z M13.63,8.712c-0.242,0-0.438-0.197-0.438-0.441c0-0.24,0.195-0.437,0.438-0.437
					c0.243,0,0.441,0.196,0.441,0.437C14.072,8.516,13.874,8.712,13.63,8.712z M15.601,8.712c-0.242,0-0.439-0.197-0.439-0.441
					c0-0.24,0.197-0.437,0.439-0.437c0.244,0,0.439,0.196,0.439,0.437C16.041,8.516,15.845,8.712,15.601,8.712z"/>
			</g>
			<circle fill="#9D9D9C" cx="20.424" cy="9.747" r="0.684"/>
			<circle fill="#9D9D9C" cx="22" cy="9.852" r="0.382"/>
			<circle fill="#9D9D9C" cx="14.616" cy="14.335" r="1.034"/>
			<circle fill="#9D9D9C" cx="14.616" cy="16.509" r="0.557"/>
		</g>
	</g>
</g>
</svg>
