<?xml version="1.0" encoding="utf-8"?>
<!-- Generator: Adobe Illustrator 15.0.2, SVG Export Plug-In . SVG Version: 6.00 Build 0)  -->
<!DOCTYPE svg PUBLIC "-//W3C//DTD SVG 1.1//EN" "http://www.w3.org/Graphics/SVG/1.1/DTD/svg11.dtd">
<svg version="1.1" id="Layer_1" xmlns="http://www.w3.org/2000/svg" xmlns:xlink="http://www.w3.org/1999/xlink" x="0px" y="0px"
	 width="86.691px" height="54.325px" viewBox="0 0 86.691 54.325" enable-background="new 0 0 86.691 54.325" xml:space="preserve">
<g>
	<g>
		<g>
			<path fill="#F29107" d="M86.693,15.494c0,1.65-1.351,3-3,3H3.002c-1.649,0-3-1.35-3-3v-12.5c0-1.649,1.351-3,3-3h80.689
				c1.648,0,3,1.351,3,3L86.693,15.494L86.693,15.494z"/>
		</g>
		<polygon fill="#F29107" points="32.758,17.416 40.715,17.416 43.094,26.833 		"/>
	</g>
	
		<radialGradient id="SVGID_1_" cx="-84.489" cy="4957.2593" r="39.9379" gradientTransform="matrix(0.4097 0 0 0.0996 84.8464 -445.0537)" gradientUnits="userSpaceOnUse">
		<stop  offset="0" style="stop-color:#5F564A"/>
		<stop  offset="0.0287" style="stop-color:#75695A"/>
		<stop  offset="0.0884" style="stop-color:#A1917C"/>
		<stop  offset="0.1473" style="stop-color:#C7B59B"/>
		<stop  offset="0.2042" style="stop-color:#E5D1B3"/>
		<stop  offset="0.2583" style="stop-color:#F8E3C2"/>
		<stop  offset="0.3067" style="stop-color:#FFE9C7"/>
		<stop  offset="0.3343" style="stop-color:#FFEBCC"/>
		<stop  offset="0.4949" style="stop-color:#FFF4E3"/>
		<stop  offset="0.6584" style="stop-color:#FFFAF3"/>
		<stop  offset="0.8252" style="stop-color:#FFFEFC"/>
		<stop  offset="1" style="stop-color:#FFFFFF"/>
	</radialGradient>
	<ellipse fill="url(#SVGID_1_)" cx="50.232" cy="48.706" rx="16.629" ry="4.396"/>
	<g>
		
			<polygon fill="#FFFFFF" stroke="#1E1E1C" stroke-width="0.4721" stroke-linecap="round" stroke-linejoin="round" stroke-miterlimit="10" points="
			49.758,37.637 45.32,35.288 45.551,29.002 50.619,30.715 		"/>
		<polygon fill="#1E1E1C" points="47.285,32.394 46.351,31.956 46.623,31.659 47.301,32.002 		"/>
		<polygon fill="#1E1E1C" points="49.131,33.096 48.285,32.706 48.201,32.252 49.004,32.596 		"/>
		<polygon fill="#1E1E1C" points="48.035,34.971 46.91,34.424 46.662,33.612 48.412,34.424 		"/>
		
			<polygon fill="#FFFFFF" stroke="#1E1E1C" stroke-width="0.4721" stroke-linecap="round" stroke-linejoin="round" stroke-miterlimit="10" points="
			50.619,30.715 45.551,29.002 50.189,29.206 54.217,30.715 		"/>
		
			<polygon fill="#FFFFFF" stroke="#1E1E1C" stroke-width="0.4721" stroke-linecap="round" stroke-linejoin="round" stroke-miterlimit="10" points="
			53.316,36.745 49.758,37.637 50.584,30.715 54.217,30.715 		"/>
		
			<path fill="none" stroke="#1E1E1C" stroke-width="0.4721" stroke-linecap="round" stroke-linejoin="round" stroke-miterlimit="10" d="
			M42.324,40.366c0,0,2.172,3.061,4.129,0.039"/>
		
			<path fill="none" stroke="#1E1E1C" stroke-width="0.4721" stroke-linecap="round" stroke-linejoin="round" stroke-miterlimit="10" d="
			M54.049,39.829c0,0,1.836,0.461-1.918,3.104"/>
		
			<ellipse transform="matrix(-0.9245 -0.3811 0.3811 -0.9245 86.8558 86.4065)" fill="#1E1E1C" cx="51.983" cy="34.604" rx="1.179" ry="1.613"/>
		
			<path fill="none" stroke="#1E1E1C" stroke-width="0.2361" stroke-linecap="round" stroke-linejoin="round" stroke-miterlimit="10" d="
			M47.537,28.982c0.551-1.217,1.455-2.009,2.479-2.009c1.677,0,3.033,2.128,3.033,4.751c0,1.233-0.299,2.358-0.791,3.204"/>
		
			<path fill="none" stroke="#1E1E1C" stroke-width="0.4721" stroke-linecap="round" stroke-linejoin="round" stroke-miterlimit="10" d="
			M52.258,34.928"/>
		
			<path fill="none" stroke="#1E1E1C" stroke-width="0.9443" stroke-linecap="round" stroke-linejoin="round" stroke-miterlimit="10" d="
			M48.728,27.422c1.075-0.621,2.364-0.448,3.258,0.688"/>
		<path fill="#1E1E1C" d="M46.016,37.327c-0.239,0.287-0.745,0.262-1.135-0.061c-0.383-0.32-0.502-0.814-0.264-1.104
			c0.24-0.288,0.748-0.262,1.133,0.062C46.139,36.543,46.258,37.036,46.016,37.327z"/>
		
			<ellipse transform="matrix(-0.9233 -0.384 0.384 -0.9233 87.1303 86.9249)" fill="#FFFFFF" cx="52.243" cy="34.764" rx="0.519" ry="0.797"/>
		
			<path fill="none" stroke="#1E1E1C" stroke-width="0.2361" stroke-linecap="round" stroke-linejoin="round" stroke-miterlimit="10" d="
			M52.342,34.808c-1.11,1.594-3.793,4.219-7.024,1.938"/>
		
			<polygon fill="none" stroke="#1E1E1C" stroke-width="0.4721" stroke-linecap="round" stroke-linejoin="round" stroke-miterlimit="10" points="
			42.669,41.84 40.497,41.036 39.096,35.629 41.409,36.452 		"/>
		<text transform="matrix(1 0 0 1 48.2288 41.5444)" fill="#1E1E1C" font-family="'ArialRoundedMTBold'" font-size="1.7676">AR-1</text>
		<g>
			<path fill="none" stroke="#1E1E1C" stroke-width="0.5204" stroke-miterlimit="10" d="M52.728,43.805
				c-0.074,0.562-0.601,1.023-1.168,1.023h-2.496c-0.568,0-1.111-0.458-1.207-1.018l-0.729-4.253
				c-0.096-0.562,0.291-1.019,0.859-1.019h4.4c0.568,0,0.975,0.461,0.897,1.022L52.728,43.805z"/>
		</g>
		<g>
			<path fill="#FFFFFF" d="M52.369,47.781c-0.178-0.455-0.787-0.827-1.355-0.827h-1.463c-0.567,0-1.221,0.372-1.448,0.827
				c-0.229,0.455,0.049,0.827,0.616,0.827h2.939C52.228,48.609,52.547,48.236,52.369,47.781z"/>
			<path fill="none" stroke="#1E1E1C" stroke-width="0.5204" stroke-miterlimit="10" d="M52.369,47.781
				c-0.178-0.455-0.787-0.827-1.355-0.827h-1.463c-0.567,0-1.221,0.372-1.448,0.827c-0.229,0.455,0.049,0.827,0.616,0.827h2.939
				C52.228,48.609,52.547,48.236,52.369,47.781z"/>
		</g>
		
			<rect x="49.758" y="44.829" fill="#FFFFFF" stroke="#1E1E1C" stroke-width="0.5204" stroke-miterlimit="10" width="0.861" height="2.125"/>
		
			<path fill="none" stroke="#1E1E1C" stroke-width="0.4721" stroke-linecap="round" stroke-linejoin="round" stroke-miterlimit="10" d="
			M51.131,42.657c0.439-0.16,0.89-0.039,1,0.271c0.115,0.312-0.147,0.693-0.586,0.854"/>
	</g>
	<g>
		
			<radialGradient id="SVGID_2_" cx="-166.5085" cy="4959.0933" r="39.9364" gradientTransform="matrix(0.4097 0 0 0.0996 84.8464 -444.0088)" gradientUnits="userSpaceOnUse">
			<stop  offset="0" style="stop-color:#7EABCE"/>
			<stop  offset="0.1505" style="stop-color:#AECDE6"/>
			<stop  offset="0.3067" style="stop-color:#DAEFFD"/>
			<stop  offset="0.3892" style="stop-color:#E3F3FE"/>
			<stop  offset="0.5865" style="stop-color:#F3FAFF"/>
			<stop  offset="0.7883" style="stop-color:#FCFEFF"/>
			<stop  offset="1" style="stop-color:#FFFFFF"/>
		</radialGradient>
		<ellipse fill="url(#SVGID_2_)" cx="16.628" cy="49.933" rx="16.629" ry="4.398"/>
		<g>
			<g>
				
					<circle fill="#FFFFFF" stroke="#1E1E1C" stroke-width="0.4721" stroke-linecap="round" stroke-linejoin="round" stroke-miterlimit="10" cx="15.534" cy="28.449" r="4.349"/>
				<path fill="#1E1E1C" d="M17.997,24.867c-0.701-0.481-1.549-0.769-2.463-0.769c-2.402,0-4.349,1.947-4.349,4.351
					c0,0.187,0.016,0.373,0.038,0.554c1.289-0.273,2.783-0.928,4.24-1.925C16.465,26.394,17.323,25.631,17.997,24.867z"/>
				
					<rect x="11.357" y="24.833" transform="matrix(0.8037 0.595 -0.595 0.8037 17.4522 -2.0262)" fill="none" stroke="#1E1E1C" stroke-width="0.4028" stroke-linecap="round" stroke-linejoin="round" stroke-miterlimit="10" width="0.88" height="1.212"/>
				<path fill="#1E1E1C" d="M9.786,31.116c0.053-3.445-2.018-4.5-1.688-6.674c0.324-2.146,3.699-1.952,3.705,0.247
					c-0.412,0.557-0.722,0.976-0.722,0.976s-1.206-0.456-1.048,0.77C10.224,27.912,10.278,29.002,9.786,31.116z"/>
				<ellipse fill="#1E1E1C" cx="18.589" cy="27.849" rx="0.296" ry="0.491"/>
				<path fill="#1E1E1C" d="M17.307,29.002c0,0.279-0.155,0.504-0.35,0.504c-0.191,0-0.35-0.225-0.35-0.504
					c0-0.281,0.157-0.506,0.35-0.506C17.152,28.497,17.307,28.721,17.307,29.002z"/>
				<path fill="#1E1E1C" d="M19.055,29.818c0,0-0.467,1.608-1.397,1.039"/>
				
					<rect x="13.011" y="28.78" transform="matrix(0.9234 -0.3839 0.3839 0.9234 -10.6871 7.8231)" fill="#FFFFFF" stroke="#1E1E1C" stroke-width="0.4721" stroke-linecap="round" stroke-linejoin="round" stroke-miterlimit="10" width="2.485" height="3.808"/>
				<g>
					<polyline fill="none" stroke="#1E1E1C" stroke-width="0.4721" stroke-linecap="round" stroke-linejoin="round" points="
						13.874,30.685 11.804,37.612 14.592,34.519 					"/>
				</g>
				
					<polyline fill="none" stroke="#1E1E1C" stroke-width="0.4721" stroke-linecap="round" stroke-linejoin="round" stroke-miterlimit="10" points="
					24.891,33.15 21.723,36.747 18.885,34.15 				"/>
				
					<path fill="none" stroke="#1E1E1C" stroke-width="0.4721" stroke-linecap="round" stroke-linejoin="round" stroke-miterlimit="10" d="
					M15.497,44.551c0,0.154-0.729,5.234-0.729,5.234"/>
				
					<path fill="none" stroke="#1E1E1C" stroke-width="0.4721" stroke-linecap="round" stroke-linejoin="round" stroke-miterlimit="10" d="
					M18.363,44.551c0,0.154,0.227,5.234,0.227,5.234"/>
				<polygon fill="#1C99CE" points="19.945,43.642 13.973,43.642 15.534,33.782 17.962,33.782 				"/>
			</g>
		</g>
	</g>
	<g>
		<polygon fill="#FFFFFF" points="75.371,6.507 75.371,11.69 79.955,9.099 		"/>
		<g>
			<g>
				<path fill="#FFFFFF" d="M76.873,4.419c2.639,0,4.775,2.144,4.775,4.773c0,2.639-2.139,4.772-4.775,4.772
					c-2.631,0-4.768-2.137-4.768-4.772C72.107,6.561,74.242,4.419,76.873,4.419 M76.873,3.919c-2.904,0-5.268,2.365-5.268,5.273
					s2.361,5.272,5.268,5.272c2.908,0,5.275-2.365,5.275-5.272C82.15,6.285,79.781,3.919,76.873,3.919L76.873,3.919z"/>
			</g>
		</g>
	</g>
</g>
</svg>
