<?xml version="1.0" encoding="utf-8"?>
<!-- Generator: Adobe Illustrator 15.0.2, SVG Export Plug-In . SVG Version: 6.00 Build 0)  -->
<!DOCTYPE svg PUBLIC "-//W3C//DTD SVG 1.1//EN" "http://www.w3.org/Graphics/SVG/1.1/DTD/svg11.dtd">
<svg version="1.1" id="Layer_1" xmlns="http://www.w3.org/2000/svg" xmlns:xlink="http://www.w3.org/1999/xlink" x="0px" y="0px"
	 width="91.021px" height="20.5px" viewBox="-0.85 14.875 91.021 20.5" enable-background="new -0.85 14.875 91.021 20.5"
	 xml:space="preserve">
<g>
	<g>
		
			<radialGradient id="SVGID_1_" cx="895.1553" cy="-452.8354" r="25.4874" gradientTransform="matrix(0.2845 0 0 0.0996 -171.8698 77.5952)" gradientUnits="userSpaceOnUse">
			<stop  offset="0" style="stop-color:#5F564A"/>
			<stop  offset="0.0861" style="stop-color:#8F826F"/>
			<stop  offset="0.1722" style="stop-color:#B7A78E"/>
			<stop  offset="0.2564" style="stop-color:#D7C3A7"/>
			<stop  offset="0.3378" style="stop-color:#EDD8B8"/>
			<stop  offset="0.4153" style="stop-color:#FAE4C2"/>
			<stop  offset="0.4847" style="stop-color:#FFE8C6"/>
			<stop  offset="0.5954" style="stop-color:#FFF1DD"/>
			<stop  offset="0.7261" style="stop-color:#FFF9F0"/>
			<stop  offset="0.8598" style="stop-color:#FFFDFB"/>
			<stop  offset="1" style="stop-color:#FFFFFF"/>
		</radialGradient>
		<ellipse fill="url(#SVGID_1_)" cx="82.803" cy="32.51" rx="7.369" ry="2.807"/>
		<g>
			<g>
				<g>
					<polygon fill="#FFFFFF" points="82.477,25.463 79.643,23.965 79.792,19.953 83.027,21.047 					"/>
					<path fill="#1D1E1C" d="M82.477,25.614c-0.024,0-0.049-0.006-0.07-0.018l-2.834-1.498c-0.052-0.027-0.083-0.081-0.081-0.14
						l0.149-4.012c0.002-0.048,0.026-0.092,0.065-0.118c0.04-0.027,0.088-0.032,0.135-0.02l3.235,1.094
						c0.067,0.023,0.11,0.091,0.102,0.162l-0.551,4.416c-0.007,0.05-0.036,0.093-0.081,0.115
						C82.524,25.608,82.501,25.614,82.477,25.614z M79.797,23.876l2.557,1.352l0.509-4.077l-2.927-0.989L79.797,23.876z"/>
				</g>
				<polygon fill="#1D1E1C" points="80.846,22.008 80.154,21.756 80.336,21.551 80.769,21.77 				"/>
				<polygon fill="#1D1E1C" points="82.135,22.578 81.39,22.262 81.537,22.066 82.049,22.285 				"/>
				<polygon fill="#1D1E1C" points="81.236,23.551 80.705,23.363 80.52,22.805 81.756,23.484 				"/>
				<g>
					<polygon fill="#FFFFFF" points="83.027,21.047 79.792,19.953 82.75,20.082 85.322,21.047 					"/>
					<path fill="#1D1E1C" d="M85.33,21.198c-0.004,0-0.006,0-0.008,0h-2.295c-0.017,0-0.033-0.003-0.049-0.008l-3.235-1.094
						c-0.071-0.024-0.113-0.098-0.1-0.171c0.014-0.072,0.076-0.124,0.148-0.124c0.002,0,0.004,0,0.007,0l2.958,0.129
						c0.016,0.001,0.031,0.004,0.046,0.01l2.553,0.958c0.071,0.012,0.125,0.074,0.125,0.148C85.48,21.13,85.413,21.198,85.33,21.198
						z M83.052,20.896h1.438l-1.77-0.664l-1.873-0.081L83.052,20.896z"/>
				</g>
				<g>
					<polygon fill="#FFFFFF" points="84.746,24.895 82.477,25.463 83.004,21.047 85.322,21.047 					"/>
					<path fill="#1D1E1C" d="M82.477,25.614c-0.036,0-0.072-0.014-0.1-0.038c-0.037-0.033-0.057-0.082-0.051-0.131l0.527-4.416
						c0.01-0.076,0.074-0.134,0.15-0.134h2.318c0.044,0,0.086,0.02,0.114,0.053c0.029,0.033,0.042,0.077,0.035,0.121l-0.576,3.848
						c-0.009,0.061-0.054,0.109-0.112,0.124l-2.27,0.568C82.501,25.612,82.489,25.614,82.477,25.614z M83.138,21.198l-0.485,4.064
						l1.959-0.49l0.535-3.574H83.138z"/>
				</g>
				<path fill="#1D1E1C" d="M79.14,28.232c-0.854,0-1.503-0.901-1.53-0.939c-0.049-0.068-0.032-0.163,0.035-0.211
					c0.069-0.048,0.162-0.032,0.211,0.035c0.006,0.009,0.588,0.813,1.284,0.813c0.007,0,0.014,0,0.021,0
					c0.387-0.009,0.75-0.272,1.08-0.782c0.046-0.07,0.139-0.09,0.209-0.045s0.09,0.139,0.045,0.209
					c-0.388,0.6-0.835,0.909-1.329,0.92C79.157,28.232,79.148,28.232,79.14,28.232z"/>
				<path fill="#1D1E1C" d="M83.991,28.993c-0.048,0-0.094-0.022-0.124-0.064c-0.048-0.068-0.031-0.162,0.037-0.211
					c1.381-0.972,1.469-1.405,1.442-1.547c-0.022-0.123-0.167-0.163-0.169-0.163c-0.081-0.021-0.13-0.103-0.109-0.184
					c0.021-0.08,0.098-0.129,0.184-0.109c0.123,0.031,0.346,0.15,0.392,0.4c0.083,0.445-0.43,1.051-1.565,1.851
					C84.052,28.984,84.021,28.993,83.991,28.993z"/>
				
					<ellipse transform="matrix(0.9247 0.3808 -0.3808 0.9247 15.2797 -30.1744)" fill="#1D1E1C" cx="83.898" cy="23.528" rx="0.751" ry="1.028"/>
				<path fill="#1D1E1C" d="M84.072,23.812c-0.013,0-0.026-0.003-0.038-0.01c-0.036-0.021-0.048-0.067-0.027-0.104
					c0.318-0.546,0.494-1.259,0.494-2.007c0-1.631-0.834-2.958-1.859-2.958c-0.598,0-1.163,0.464-1.513,1.239
					c-0.018,0.038-0.06,0.053-0.101,0.038c-0.038-0.018-0.055-0.062-0.038-0.101c0.375-0.831,0.992-1.327,1.651-1.327
					c1.108,0,2.01,1.395,2.01,3.108c0,0.774-0.183,1.515-0.514,2.083C84.123,23.799,84.099,23.812,84.072,23.812z"/>
				
					<path fill="none" stroke="#1D1E1C" stroke-width="0.3022" stroke-linecap="round" stroke-linejoin="round" stroke-miterlimit="10" d="
					M84.072,23.736"/>
				<path fill="#1D1E1C" d="M83.898,19.687c-0.09,0-0.178-0.039-0.237-0.115c-0.447-0.569-1.095-0.709-1.691-0.364
					c-0.144,0.083-0.33,0.034-0.413-0.11s-0.034-0.33,0.11-0.413c0.865-0.499,1.833-0.296,2.469,0.515
					c0.104,0.131,0.08,0.321-0.051,0.424C84.029,19.666,83.964,19.687,83.898,19.687z"/>
				
					<ellipse transform="matrix(0.7681 0.6403 -0.6403 0.7681 34.411 -45.2259)" fill="#1D1E1C" cx="79.643" cy="24.894" rx="0.581" ry="0.435"/>
				
					<ellipse transform="matrix(0.9239 0.3825 -0.3825 0.9239 15.4328 -30.3588)" fill="#FFFFFF" cx="84.062" cy="23.631" rx="0.332" ry="0.509"/>
				<path fill="#1D1E1C" d="M81.277,25.539c-0.566,0-1.129-0.195-1.679-0.583c-0.034-0.023-0.042-0.071-0.018-0.105
					c0.023-0.034,0.069-0.044,0.105-0.018c0.655,0.462,1.324,0.637,1.995,0.52c1.201-0.21,2.066-1.285,2.383-1.737
					c0.023-0.035,0.07-0.045,0.104-0.019c0.034,0.023,0.043,0.07,0.019,0.104c-0.327,0.469-1.224,1.581-2.479,1.801
					C81.564,25.526,81.421,25.539,81.277,25.539z"/>
				<g>
					<path fill="#1E1E1C" d="M82.104,27.861l-0.037-0.1h-0.329l-0.038,0.104c-0.016,0.039-0.028,0.066-0.039,0.08
						c-0.01,0.016-0.027,0.021-0.053,0.021c-0.02,0-0.038-0.008-0.054-0.021c-0.017-0.016-0.024-0.033-0.024-0.051
						c0-0.012,0.002-0.023,0.006-0.035s0.01-0.027,0.019-0.049l0.206-0.525c0.006-0.014,0.014-0.031,0.021-0.053
						s0.018-0.039,0.026-0.053s0.021-0.025,0.037-0.035c0.015-0.008,0.034-0.012,0.056-0.012c0.023,0,0.043,0.004,0.058,0.012
						c0.015,0.01,0.027,0.021,0.037,0.033c0.009,0.014,0.017,0.029,0.023,0.045s0.015,0.037,0.024,0.062l0.211,0.521
						c0.017,0.039,0.025,0.068,0.025,0.086c0,0.02-0.008,0.035-0.023,0.051s-0.035,0.023-0.057,0.023
						c-0.014,0-0.023-0.002-0.033-0.006c-0.01-0.006-0.018-0.012-0.023-0.02s-0.013-0.02-0.02-0.035
						C82.115,27.889,82.109,27.875,82.104,27.861z M81.78,27.639h0.241L81.9,27.305L81.78,27.639z"/>
					<path fill="#1E1E1C" d="M82.619,27.607h-0.059v0.26c0,0.035-0.007,0.061-0.021,0.076c-0.016,0.016-0.035,0.023-0.06,0.023
						c-0.026,0-0.046-0.008-0.061-0.025c-0.015-0.016-0.021-0.041-0.021-0.074v-0.621c0-0.035,0.008-0.061,0.024-0.076
						c0.016-0.016,0.041-0.023,0.076-0.023h0.266c0.037,0,0.068,0.002,0.094,0.004c0.027,0.004,0.051,0.01,0.071,0.02
						c0.024,0.01,0.048,0.025,0.067,0.045c0.02,0.021,0.033,0.043,0.044,0.07c0.011,0.025,0.015,0.053,0.015,0.082
						c0,0.061-0.017,0.109-0.051,0.145c-0.033,0.037-0.085,0.062-0.154,0.078c0.029,0.014,0.057,0.037,0.084,0.068
						c0.025,0.029,0.049,0.061,0.07,0.096c0.021,0.033,0.037,0.064,0.049,0.092c0.011,0.027,0.017,0.045,0.017,0.057
						c0,0.01-0.003,0.021-0.011,0.031c-0.006,0.01-0.016,0.02-0.027,0.025s-0.025,0.008-0.041,0.008
						c-0.018,0-0.033-0.004-0.046-0.012c-0.013-0.01-0.022-0.02-0.032-0.033c-0.009-0.014-0.021-0.033-0.037-0.059l-0.064-0.109
						c-0.023-0.039-0.045-0.07-0.063-0.092c-0.019-0.02-0.038-0.035-0.057-0.043S82.647,27.607,82.619,27.607z M82.712,27.27h-0.151
						v0.221h0.146c0.04,0,0.072-0.002,0.1-0.01c0.027-0.006,0.047-0.018,0.062-0.035c0.015-0.016,0.021-0.037,0.021-0.066
						c0-0.023-0.005-0.043-0.016-0.059c-0.012-0.018-0.027-0.031-0.048-0.039C82.806,27.273,82.768,27.27,82.712,27.27z"/>
					<path fill="#1E1E1C" d="M83.397,27.727h-0.174c-0.026,0-0.047-0.006-0.061-0.018c-0.014-0.014-0.021-0.029-0.021-0.049
						s0.006-0.035,0.02-0.047c0.014-0.014,0.034-0.02,0.062-0.02h0.174c0.027,0,0.048,0.006,0.062,0.02
						c0.013,0.012,0.02,0.027,0.02,0.047s-0.007,0.035-0.02,0.049C83.445,27.721,83.425,27.727,83.397,27.727z"/>
					<path fill="#1E1E1C" d="M83.816,27.879v-0.502c-0.094,0.072-0.156,0.107-0.189,0.107c-0.015,0-0.028-0.006-0.041-0.018
						c-0.012-0.014-0.018-0.027-0.018-0.043c0-0.02,0.006-0.033,0.018-0.041c0.012-0.01,0.033-0.021,0.062-0.035
						c0.045-0.021,0.08-0.043,0.106-0.066s0.05-0.049,0.071-0.078c0.02-0.027,0.033-0.045,0.04-0.053
						c0.006-0.006,0.018-0.01,0.035-0.01c0.02,0,0.035,0.008,0.047,0.023s0.018,0.035,0.018,0.062v0.631
						c0,0.072-0.025,0.109-0.075,0.109c-0.023,0-0.041-0.008-0.055-0.021C83.822,27.93,83.816,27.908,83.816,27.879z"/>
				</g>
				<path fill="#1D1E1C" d="M83.624,30.22h-1.59c-0.441,0-0.862-0.354-0.937-0.79l-0.463-2.709
					c-0.038-0.223,0.016-0.434,0.152-0.596c0.136-0.161,0.336-0.251,0.562-0.251h2.805c0.225,0,0.426,0.089,0.566,0.25
					c0.142,0.161,0.202,0.372,0.173,0.594l-0.355,2.701C84.479,29.86,84.069,30.22,83.624,30.22z M81.349,26.208
					c-0.126,0-0.235,0.047-0.308,0.132c-0.071,0.085-0.1,0.2-0.078,0.324l0.463,2.709c0.048,0.278,0.326,0.513,0.608,0.513h1.59
					c0.279,0,0.546-0.233,0.583-0.51l0.355-2.701c0.017-0.126-0.017-0.244-0.093-0.331c-0.077-0.088-0.189-0.136-0.316-0.136H81.349
					z"/>
				<g>
					<g>
						<path fill="#FFFFFF" d="M84.143,31.937c-0.113-0.291-0.503-0.528-0.866-0.528h-0.93c-0.363,0-0.78,0.237-0.927,0.528
							s0.032,0.528,0.396,0.528h1.871C84.05,32.465,84.256,32.228,84.143,31.937z"/>
					</g>
					<path fill="#1D1E1C" d="M83.687,32.632h-1.871c-0.246,0-0.445-0.094-0.546-0.257c-0.091-0.147-0.091-0.33,0.002-0.514
						c0.175-0.348,0.647-0.62,1.075-0.62h0.93c0.435,0,0.883,0.279,1.021,0.635c0.069,0.179,0.054,0.354-0.044,0.497
						C84.142,32.537,83.936,32.632,83.687,32.632z M82.347,31.575c-0.297,0-0.661,0.203-0.778,0.437
						c-0.026,0.054-0.052,0.13-0.015,0.188c0.037,0.062,0.136,0.098,0.262,0.098h1.871c0.135,0,0.244-0.042,0.293-0.112
						c0.034-0.051,0.037-0.114,0.008-0.188c-0.088-0.225-0.42-0.422-0.711-0.422H82.347z"/>
				</g>
				<g>
					<rect x="82.477" y="30.053" fill="#FFFFFF" width="0.551" height="1.355"/>
					<path fill="#1D1E1C" d="M83.194,31.575H82.31v-1.689h0.885V31.575z M82.644,31.241h0.217V30.22h-0.217V31.241z"/>
				</g>
				<path fill="#1D1E1C" d="M83.617,29.538c-0.062,0-0.12-0.038-0.142-0.1c-0.029-0.078,0.012-0.165,0.09-0.193
					c0.125-0.046,0.229-0.132,0.271-0.225c0.016-0.032,0.029-0.081,0.013-0.126c-0.017-0.048-0.059-0.075-0.09-0.09
					c-0.093-0.043-0.23-0.042-0.354,0.005c-0.08,0.031-0.166-0.011-0.194-0.089c-0.029-0.079,0.011-0.166,0.089-0.194
					c0.206-0.076,0.42-0.073,0.587,0.005c0.119,0.055,0.207,0.147,0.247,0.26c0.04,0.109,0.033,0.237-0.022,0.356
					c-0.078,0.168-0.239,0.308-0.442,0.381C83.651,29.535,83.635,29.538,83.617,29.538z"/>
			</g>
		</g>
		<g>
			<path fill="#1D1E1C" d="M78.903,25.652l-4.701-2.389c-0.128-0.064-0.284-0.014-0.349,0.117l-1.241,2.443
				c-0.064,0.129-0.015,0.285,0.114,0.35l4.701,2.385c0.128,0.064,0.285,0.016,0.35-0.113l1.24-2.443
				C79.082,25.871,79.031,25.715,78.903,25.652z"/>
			<path fill="#FFFFFF" d="M77.57,28.133c-0.027,0.059-0.1,0.082-0.156,0.053l-4.375-2.221c-0.06-0.027-0.082-0.1-0.053-0.16
				l1.072-2.113c0.029-0.059,0.102-0.08,0.16-0.051l4.373,2.221c0.059,0.029,0.082,0.102,0.054,0.156L77.57,28.133z"/>
			<path fill="#1D1E1C" d="M77.167,25.674c-0.403-0.207-0.894-0.045-1.099,0.357c-0.096,0.188-0.11,0.393-0.061,0.58l-0.871-0.441
				c0.18-0.072,0.338-0.205,0.434-0.393c0.203-0.402,0.043-0.893-0.359-1.098s-0.895-0.043-1.098,0.359
				c-0.202,0.393-0.05,0.875,0.337,1.086h-0.001l2.023,1.029V27.15c0.393,0.17,0.855,0.006,1.054-0.381
				C77.73,26.367,77.568,25.875,77.167,25.674z M74.619,25.844c-0.239-0.125-0.335-0.416-0.213-0.658s0.417-0.338,0.657-0.213
				c0.241,0.119,0.337,0.414,0.214,0.656C75.156,25.869,74.861,25.965,74.619,25.844z M76.578,26.836
				c-0.242-0.123-0.337-0.418-0.217-0.658c0.124-0.24,0.418-0.334,0.66-0.215c0.24,0.125,0.336,0.418,0.214,0.66
				C77.111,26.861,76.817,26.959,76.578,26.836z"/>
		</g>
	</g>
	<g>
		<path fill="#F19106" d="M70.015,32.375c0,1.65-1.351,3-3,3H2.15c-1.65,0-3-1.35-3-3v-14.5c0-1.65,1.35-3,3-3h64.864
			c1.649,0,3,1.35,3,3V32.375z"/>
	</g>
	<path fill="#F19106" d="M69.713,26.986v-5.865c0,0,2.755-0.045,3.406,1.002C70.432,23.322,69.713,26.986,69.713,26.986z"/>
	<g>
		<path fill="#FFFFFF" d="M4.398,21.197v-1.053l-0.81-1.255c-0.071-0.113-0.121-0.201-0.15-0.265s-0.044-0.118-0.044-0.165
			c0-0.077,0.029-0.144,0.089-0.199s0.133-0.084,0.221-0.084c0.092,0,0.162,0.026,0.209,0.078c0.048,0.052,0.119,0.156,0.214,0.312
			l0.62,1.006l0.627-1.006c0.037-0.062,0.069-0.114,0.095-0.156s0.054-0.082,0.085-0.119c0.03-0.037,0.064-0.065,0.103-0.085
			s0.084-0.029,0.138-0.029c0.085,0,0.155,0.027,0.212,0.083c0.057,0.055,0.085,0.118,0.085,0.19c0,0.06-0.015,0.118-0.043,0.177
			C6.019,18.686,5.97,18.768,5.9,18.871l-0.83,1.273v1.053c0,0.137-0.031,0.239-0.095,0.308c-0.063,0.067-0.145,0.102-0.242,0.102
			c-0.1,0-0.181-0.033-0.242-0.101S4.398,21.336,4.398,21.197z"/>
		<path fill="#FFFFFF" d="M8.531,20.351c0,0.185-0.028,0.354-0.086,0.509c-0.058,0.156-0.141,0.289-0.249,0.4
			c-0.108,0.112-0.238,0.197-0.389,0.257c-0.151,0.06-0.32,0.09-0.509,0.09c-0.188,0-0.355-0.03-0.505-0.091
			c-0.149-0.06-0.278-0.146-0.388-0.259s-0.192-0.245-0.249-0.398c-0.057-0.152-0.085-0.322-0.085-0.508
			c0-0.187,0.028-0.357,0.086-0.514c0.058-0.155,0.14-0.288,0.247-0.397c0.106-0.11,0.236-0.195,0.389-0.255s0.32-0.089,0.505-0.089
			c0.187,0,0.356,0.03,0.509,0.09c0.152,0.061,0.282,0.146,0.392,0.258c0.108,0.112,0.19,0.245,0.247,0.398
			C8.503,19.996,8.531,20.165,8.531,20.351z M7.911,20.351c0-0.252-0.055-0.447-0.166-0.588c-0.11-0.141-0.26-0.21-0.446-0.21
			c-0.121,0-0.228,0.031-0.319,0.094s-0.163,0.154-0.213,0.276c-0.05,0.123-0.074,0.265-0.074,0.428
			c0,0.162,0.024,0.303,0.073,0.423c0.049,0.121,0.119,0.214,0.21,0.277c0.092,0.064,0.199,0.097,0.323,0.097
			c0.187,0,0.336-0.071,0.446-0.212C7.856,20.795,7.911,20.6,7.911,20.351z"/>
		<path fill="#FFFFFF" d="M10.622,21.258v-0.079c-0.074,0.094-0.151,0.172-0.233,0.235c-0.081,0.063-0.17,0.11-0.267,0.142
			c-0.097,0.03-0.207,0.046-0.33,0.046c-0.149,0-0.283-0.03-0.401-0.093c-0.119-0.062-0.21-0.146-0.275-0.255
			C9.038,21.122,9,20.934,9,20.688v-1.224c0-0.123,0.028-0.216,0.084-0.277c0.056-0.061,0.13-0.091,0.222-0.091
			c0.094,0,0.169,0.03,0.226,0.093c0.058,0.062,0.086,0.153,0.086,0.275v0.989c0,0.143,0.013,0.263,0.037,0.36
			c0.023,0.098,0.067,0.174,0.13,0.229s0.147,0.083,0.254,0.083c0.104,0,0.202-0.031,0.294-0.093
			c0.093-0.062,0.159-0.143,0.202-0.242c0.034-0.088,0.052-0.279,0.052-0.575v-0.751c0-0.122,0.028-0.214,0.086-0.275
			c0.058-0.062,0.132-0.093,0.224-0.093s0.166,0.03,0.222,0.091c0.056,0.062,0.084,0.154,0.084,0.277v1.79
			c0,0.117-0.026,0.205-0.08,0.265c-0.054,0.059-0.123,0.088-0.207,0.088c-0.085,0-0.154-0.03-0.209-0.092
			C10.649,21.454,10.622,21.368,10.622,21.258z"/>
		<path fill="#FFFFFF" d="M12.429,20.715v0.516c0,0.126-0.029,0.22-0.088,0.282s-0.134,0.094-0.224,0.094
			c-0.089,0-0.162-0.032-0.22-0.095c-0.058-0.063-0.086-0.157-0.086-0.281v-1.719c0-0.277,0.101-0.416,0.301-0.416
			c0.103,0,0.177,0.032,0.222,0.097c0.045,0.065,0.07,0.161,0.075,0.287c0.073-0.126,0.149-0.222,0.227-0.287
			c0.078-0.064,0.182-0.097,0.312-0.097s0.256,0.032,0.378,0.097c0.122,0.065,0.183,0.151,0.183,0.258
			c0,0.076-0.025,0.138-0.078,0.187c-0.052,0.05-0.107,0.074-0.168,0.074c-0.022,0-0.077-0.015-0.164-0.042
			c-0.087-0.028-0.163-0.042-0.229-0.042c-0.091,0-0.165,0.023-0.222,0.071c-0.058,0.048-0.102,0.118-0.134,0.212
			c-0.031,0.093-0.054,0.204-0.065,0.333S12.429,20.529,12.429,20.715z"/>
		<path fill="#FFFFFF" d="M17.218,20.842c0,0.077-0.022,0.159-0.068,0.246c-0.046,0.088-0.116,0.171-0.211,0.25
			c-0.094,0.079-0.213,0.144-0.355,0.191c-0.144,0.049-0.305,0.072-0.484,0.072c-0.382,0-0.68-0.111-0.894-0.333
			c-0.215-0.223-0.321-0.521-0.321-0.896c0-0.253,0.049-0.477,0.146-0.672c0.099-0.194,0.24-0.345,0.426-0.451
			s0.407-0.159,0.665-0.159c0.16,0,0.307,0.023,0.44,0.07c0.133,0.047,0.246,0.106,0.339,0.181s0.164,0.152,0.213,0.236
			s0.073,0.162,0.073,0.234c0,0.074-0.027,0.137-0.083,0.188c-0.055,0.052-0.121,0.077-0.2,0.077c-0.051,0-0.094-0.014-0.127-0.04
			c-0.034-0.026-0.072-0.068-0.114-0.127c-0.076-0.115-0.154-0.201-0.236-0.259c-0.083-0.057-0.188-0.086-0.313-0.086
			c-0.183,0-0.33,0.071-0.441,0.214s-0.167,0.338-0.167,0.585c0,0.116,0.014,0.223,0.043,0.32c0.028,0.098,0.069,0.181,0.124,0.249
			s0.12,0.12,0.197,0.156c0.076,0.035,0.161,0.053,0.253,0.053c0.124,0,0.229-0.028,0.317-0.086
			c0.089-0.058,0.167-0.145,0.234-0.263c0.038-0.069,0.078-0.123,0.122-0.162c0.044-0.04,0.098-0.06,0.161-0.06
			c0.075,0,0.138,0.029,0.188,0.086C17.193,20.716,17.218,20.777,17.218,20.842z"/>
		<path fill="#FFFFFF" d="M19.317,21.258c-0.149,0.116-0.294,0.203-0.434,0.262c-0.139,0.058-0.296,0.087-0.469,0.087
			c-0.158,0-0.298-0.031-0.418-0.094c-0.119-0.062-0.212-0.147-0.276-0.255c-0.065-0.106-0.098-0.223-0.098-0.349
			c0-0.169,0.054-0.312,0.16-0.432c0.107-0.119,0.255-0.199,0.441-0.24c0.039-0.009,0.137-0.029,0.292-0.061
			c0.155-0.032,0.288-0.061,0.399-0.087c0.11-0.026,0.23-0.059,0.36-0.097c-0.007-0.163-0.04-0.282-0.098-0.358
			c-0.059-0.076-0.179-0.114-0.361-0.114c-0.157,0-0.274,0.022-0.354,0.065c-0.08,0.044-0.147,0.109-0.204,0.197
			c-0.057,0.087-0.097,0.145-0.12,0.173s-0.073,0.042-0.15,0.042c-0.069,0-0.129-0.022-0.18-0.066
			c-0.051-0.045-0.076-0.102-0.076-0.171c0-0.109,0.039-0.215,0.116-0.317c0.076-0.103,0.196-0.187,0.359-0.253s0.365-0.1,0.608-0.1
			c0.271,0,0.485,0.032,0.641,0.096c0.155,0.064,0.265,0.166,0.329,0.305c0.063,0.139,0.096,0.323,0.096,0.552
			c0,0.145,0,0.268-0.001,0.369c-0.001,0.101-0.002,0.213-0.004,0.337c0,0.116,0.02,0.237,0.059,0.363
			c0.038,0.126,0.058,0.207,0.058,0.243c0,0.063-0.03,0.121-0.09,0.173s-0.127,0.078-0.202,0.078c-0.063,0-0.126-0.03-0.188-0.09
			C19.452,21.457,19.387,21.371,19.317,21.258z M19.276,20.364c-0.09,0.033-0.222,0.068-0.395,0.105s-0.292,0.064-0.358,0.081
			c-0.066,0.018-0.13,0.052-0.19,0.103c-0.06,0.05-0.09,0.12-0.09,0.211c0,0.094,0.035,0.173,0.106,0.238
			c0.07,0.066,0.163,0.099,0.277,0.099c0.123,0,0.235-0.026,0.339-0.08s0.179-0.122,0.228-0.207
			c0.056-0.094,0.083-0.247,0.083-0.461V20.364z"/>
		<path fill="#FFFFFF" d="M20.51,21.23v-2.678c0-0.124,0.027-0.218,0.082-0.281c0.056-0.062,0.13-0.095,0.223-0.095
			c0.094,0,0.169,0.031,0.227,0.094s0.086,0.157,0.086,0.282v2.678c0,0.126-0.029,0.22-0.087,0.282
			c-0.059,0.062-0.133,0.094-0.226,0.094c-0.09,0-0.164-0.032-0.221-0.098C20.538,21.444,20.51,21.352,20.51,21.23z"/>
		<path fill="#FFFFFF" d="M21.766,21.23v-2.678c0-0.124,0.027-0.218,0.082-0.281c0.056-0.062,0.13-0.095,0.223-0.095
			c0.094,0,0.169,0.031,0.227,0.094s0.086,0.157,0.086,0.282v2.678c0,0.126-0.029,0.22-0.087,0.282
			c-0.059,0.062-0.133,0.094-0.226,0.094c-0.09,0-0.164-0.032-0.221-0.098C21.794,21.444,21.766,21.352,21.766,21.23z"/>
		<path fill="#FFFFFF" d="M24.783,18.553v0.916c0.078-0.091,0.155-0.162,0.229-0.215c0.075-0.053,0.157-0.093,0.248-0.119
			s0.188-0.039,0.292-0.039c0.156,0,0.296,0.033,0.417,0.1s0.217,0.162,0.286,0.289c0.044,0.074,0.073,0.156,0.088,0.248
			c0.016,0.091,0.023,0.196,0.023,0.315v1.183c0,0.124-0.028,0.218-0.085,0.281c-0.057,0.062-0.132,0.095-0.226,0.095
			c-0.203,0-0.305-0.125-0.305-0.376v-1.043c0-0.197-0.03-0.349-0.089-0.455s-0.17-0.16-0.335-0.16
			c-0.109,0-0.209,0.031-0.297,0.095c-0.089,0.062-0.154,0.147-0.198,0.256c-0.033,0.093-0.05,0.256-0.05,0.491v0.816
			c0,0.122-0.027,0.216-0.082,0.279c-0.056,0.064-0.132,0.097-0.23,0.097c-0.203,0-0.305-0.125-0.305-0.376v-2.678
			c0-0.125,0.026-0.22,0.08-0.282s0.129-0.094,0.225-0.094c0.099,0,0.175,0.032,0.23,0.095
			C24.756,18.335,24.783,18.429,24.783,18.553z"/>
		<path fill="#FFFFFF" d="M28.538,21.258c-0.149,0.116-0.294,0.203-0.434,0.262c-0.139,0.058-0.296,0.087-0.469,0.087
			c-0.158,0-0.298-0.031-0.418-0.094c-0.119-0.062-0.212-0.147-0.276-0.255c-0.065-0.106-0.098-0.223-0.098-0.349
			c0-0.169,0.054-0.312,0.16-0.432c0.107-0.119,0.255-0.199,0.441-0.24c0.039-0.009,0.137-0.029,0.292-0.061
			c0.155-0.032,0.288-0.061,0.399-0.087c0.11-0.026,0.23-0.059,0.36-0.097c-0.007-0.163-0.04-0.282-0.098-0.358
			c-0.059-0.076-0.179-0.114-0.361-0.114c-0.157,0-0.274,0.022-0.354,0.065c-0.08,0.044-0.147,0.109-0.204,0.197
			c-0.057,0.087-0.097,0.145-0.12,0.173s-0.073,0.042-0.15,0.042c-0.069,0-0.129-0.022-0.18-0.066
			c-0.051-0.045-0.076-0.102-0.076-0.171c0-0.109,0.039-0.215,0.116-0.317c0.076-0.103,0.196-0.187,0.359-0.253s0.365-0.1,0.608-0.1
			c0.271,0,0.485,0.032,0.641,0.096c0.155,0.064,0.265,0.166,0.329,0.305c0.063,0.139,0.096,0.323,0.096,0.552
			c0,0.145,0,0.268-0.001,0.369c-0.001,0.101-0.002,0.213-0.004,0.337c0,0.116,0.02,0.237,0.059,0.363
			c0.038,0.126,0.058,0.207,0.058,0.243c0,0.063-0.03,0.121-0.09,0.173s-0.127,0.078-0.202,0.078c-0.063,0-0.126-0.03-0.188-0.09
			C28.673,21.457,28.607,21.371,28.538,21.258z M28.497,20.364c-0.09,0.033-0.222,0.068-0.395,0.105s-0.292,0.064-0.358,0.081
			c-0.066,0.018-0.13,0.052-0.19,0.103c-0.06,0.05-0.09,0.12-0.09,0.211c0,0.094,0.035,0.173,0.106,0.238
			c0.07,0.066,0.163,0.099,0.277,0.099c0.123,0,0.235-0.026,0.339-0.08s0.179-0.122,0.228-0.207
			c0.056-0.094,0.083-0.247,0.083-0.461V20.364z"/>
		<path fill="#FFFFFF" d="M31.719,20.799c0,0.17-0.042,0.316-0.125,0.438s-0.205,0.214-0.367,0.276s-0.359,0.094-0.592,0.094
			c-0.222,0-0.411-0.034-0.57-0.102c-0.158-0.068-0.274-0.153-0.351-0.255c-0.075-0.102-0.112-0.204-0.112-0.307
			c0-0.067,0.023-0.126,0.072-0.174c0.048-0.049,0.109-0.072,0.183-0.072c0.065,0,0.115,0.016,0.149,0.047
			c0.035,0.032,0.068,0.076,0.1,0.134c0.063,0.11,0.14,0.192,0.228,0.247c0.088,0.054,0.208,0.081,0.36,0.081
			c0.124,0,0.226-0.027,0.305-0.083c0.079-0.055,0.119-0.117,0.119-0.188c0-0.108-0.041-0.188-0.124-0.237
			c-0.082-0.05-0.217-0.098-0.405-0.143c-0.213-0.053-0.386-0.108-0.52-0.167c-0.134-0.058-0.24-0.134-0.32-0.229
			c-0.08-0.095-0.12-0.212-0.12-0.351c0-0.123,0.037-0.24,0.111-0.351c0.074-0.109,0.183-0.197,0.327-0.264
			c0.144-0.065,0.317-0.098,0.521-0.098c0.159,0,0.303,0.017,0.431,0.05c0.127,0.033,0.233,0.077,0.318,0.133
			c0.086,0.056,0.15,0.118,0.195,0.186c0.044,0.068,0.066,0.135,0.066,0.199c0,0.071-0.023,0.129-0.071,0.174
			c-0.048,0.046-0.115,0.068-0.202,0.068c-0.063,0-0.117-0.019-0.162-0.055c-0.044-0.036-0.096-0.09-0.152-0.162
			c-0.047-0.061-0.102-0.109-0.165-0.146s-0.149-0.054-0.258-0.054c-0.112,0-0.205,0.023-0.278,0.071
			c-0.074,0.047-0.111,0.106-0.111,0.178c0,0.064,0.027,0.117,0.082,0.159c0.054,0.041,0.127,0.075,0.219,0.103
			s0.219,0.061,0.38,0.1c0.191,0.047,0.349,0.103,0.47,0.168c0.121,0.064,0.214,0.141,0.276,0.229
			C31.688,20.585,31.719,20.686,31.719,20.799z"/>
		<path fill="#FFFFFF" d="M33.97,18.53v0.942c0.116-0.12,0.234-0.213,0.355-0.276c0.121-0.064,0.27-0.097,0.448-0.097
			c0.205,0,0.385,0.049,0.539,0.146c0.154,0.097,0.274,0.238,0.36,0.423c0.085,0.185,0.127,0.403,0.127,0.657
			c0,0.187-0.023,0.358-0.071,0.515c-0.047,0.156-0.116,0.291-0.207,0.406c-0.09,0.114-0.2,0.203-0.329,0.266
			s-0.271,0.094-0.426,0.094c-0.096,0-0.185-0.012-0.269-0.034c-0.083-0.022-0.154-0.052-0.214-0.089
			c-0.059-0.037-0.108-0.075-0.15-0.114c-0.041-0.039-0.096-0.099-0.164-0.177v0.062c0,0.115-0.027,0.203-0.083,0.263
			s-0.127,0.09-0.213,0.09c-0.088,0-0.157-0.03-0.209-0.09c-0.053-0.06-0.078-0.147-0.078-0.263v-2.697
			c0-0.125,0.025-0.22,0.075-0.283c0.051-0.064,0.121-0.097,0.212-0.097c0.095,0,0.168,0.03,0.22,0.092
			C33.944,18.329,33.97,18.417,33.97,18.53z M33.999,20.364c0,0.246,0.057,0.435,0.169,0.566c0.112,0.133,0.26,0.198,0.442,0.198
			c0.155,0,0.289-0.067,0.401-0.202s0.169-0.328,0.169-0.58c0-0.163-0.023-0.304-0.07-0.421c-0.047-0.118-0.113-0.209-0.199-0.272
			c-0.086-0.064-0.187-0.097-0.301-0.097c-0.118,0-0.223,0.032-0.314,0.097c-0.092,0.063-0.164,0.156-0.217,0.278
			C34.025,20.053,33.999,20.197,33.999,20.364z"/>
		<path fill="#FFFFFF" d="M38.02,20.502h-1.208c0.001,0.141,0.029,0.265,0.085,0.371c0.055,0.107,0.128,0.188,0.219,0.242
			c0.092,0.055,0.192,0.082,0.303,0.082c0.073,0,0.141-0.009,0.202-0.026c0.061-0.018,0.12-0.045,0.178-0.081
			c0.057-0.037,0.109-0.077,0.158-0.119c0.048-0.042,0.11-0.1,0.188-0.172c0.032-0.027,0.077-0.041,0.136-0.041
			c0.063,0,0.115,0.018,0.154,0.053c0.039,0.034,0.059,0.083,0.059,0.146c0,0.056-0.021,0.121-0.065,0.195
			c-0.044,0.075-0.11,0.146-0.198,0.216c-0.088,0.068-0.199,0.125-0.332,0.17c-0.134,0.046-0.287,0.068-0.461,0.068
			c-0.396,0-0.705-0.113-0.925-0.34c-0.221-0.226-0.331-0.532-0.331-0.92c0-0.183,0.027-0.353,0.082-0.508
			c0.054-0.156,0.134-0.29,0.237-0.402c0.104-0.111,0.232-0.196,0.385-0.257c0.152-0.059,0.321-0.089,0.507-0.089
			c0.241,0,0.448,0.051,0.621,0.152c0.172,0.103,0.302,0.233,0.388,0.396c0.086,0.161,0.129,0.325,0.129,0.493
			c0,0.155-0.045,0.256-0.134,0.302S38.181,20.502,38.02,20.502z M36.812,20.151h1.119c-0.015-0.211-0.071-0.369-0.17-0.474
			c-0.1-0.104-0.229-0.157-0.391-0.157c-0.154,0-0.28,0.054-0.379,0.159C36.893,19.786,36.832,19.943,36.812,20.151z"/>
		<path fill="#FFFFFF" d="M40.772,20.502h-1.208c0.001,0.141,0.029,0.265,0.085,0.371c0.055,0.107,0.128,0.188,0.219,0.242
			c0.092,0.055,0.192,0.082,0.303,0.082c0.073,0,0.141-0.009,0.202-0.026c0.061-0.018,0.12-0.045,0.178-0.081
			c0.057-0.037,0.109-0.077,0.158-0.119c0.048-0.042,0.11-0.1,0.188-0.172c0.032-0.027,0.077-0.041,0.136-0.041
			c0.063,0,0.115,0.018,0.154,0.053c0.039,0.034,0.059,0.083,0.059,0.146c0,0.056-0.021,0.121-0.065,0.195
			c-0.044,0.075-0.11,0.146-0.198,0.216c-0.088,0.068-0.199,0.125-0.332,0.17c-0.134,0.046-0.287,0.068-0.461,0.068
			c-0.396,0-0.705-0.113-0.925-0.34c-0.221-0.226-0.331-0.532-0.331-0.92c0-0.183,0.027-0.353,0.082-0.508
			c0.054-0.156,0.134-0.29,0.237-0.402c0.104-0.111,0.232-0.196,0.385-0.257c0.152-0.059,0.321-0.089,0.507-0.089
			c0.241,0,0.448,0.051,0.621,0.152c0.172,0.103,0.302,0.233,0.388,0.396c0.086,0.161,0.129,0.325,0.129,0.493
			c0,0.155-0.045,0.256-0.134,0.302S40.934,20.502,40.772,20.502z M39.564,20.151h1.119c-0.015-0.211-0.071-0.369-0.17-0.474
			c-0.1-0.104-0.229-0.157-0.391-0.157c-0.154,0-0.28,0.054-0.379,0.159C39.646,19.786,39.585,19.943,39.564,20.151z"/>
		<path fill="#FFFFFF" d="M42.362,19.437v0.075c0.108-0.144,0.228-0.249,0.356-0.315c0.129-0.067,0.277-0.101,0.444-0.101
			c0.163,0,0.309,0.035,0.437,0.105c0.128,0.071,0.225,0.172,0.287,0.302c0.041,0.075,0.067,0.156,0.079,0.244
			c0.013,0.087,0.019,0.199,0.019,0.335v1.148c0,0.124-0.028,0.218-0.085,0.281c-0.057,0.062-0.13,0.095-0.221,0.095
			c-0.092,0-0.166-0.032-0.224-0.098c-0.058-0.064-0.086-0.157-0.086-0.278v-1.029c0-0.203-0.028-0.359-0.085-0.467
			s-0.169-0.162-0.338-0.162c-0.11,0-0.211,0.033-0.301,0.099c-0.091,0.065-0.157,0.156-0.199,0.271
			c-0.03,0.092-0.046,0.264-0.046,0.516v0.773c0,0.126-0.028,0.22-0.087,0.282c-0.058,0.062-0.133,0.094-0.225,0.094
			c-0.089,0-0.162-0.032-0.22-0.098c-0.058-0.064-0.086-0.157-0.086-0.278v-1.784c0-0.118,0.025-0.206,0.077-0.264
			c0.051-0.059,0.121-0.087,0.21-0.087c0.055,0,0.104,0.013,0.147,0.038s0.079,0.064,0.105,0.115
			C42.35,19.301,42.362,19.363,42.362,19.437z"/>
		<path fill="#FFFFFF" d="M3.566,24.709h0.146v-0.186c0-0.192,0.024-0.347,0.074-0.46c0.049-0.114,0.132-0.197,0.248-0.249
			c0.117-0.052,0.277-0.078,0.481-0.078c0.36,0,0.54,0.088,0.54,0.265c0,0.058-0.019,0.106-0.057,0.147
			c-0.037,0.04-0.082,0.061-0.133,0.061c-0.024,0-0.066-0.004-0.125-0.014c-0.059-0.009-0.108-0.014-0.149-0.014
			c-0.111,0-0.183,0.033-0.215,0.099c-0.031,0.065-0.047,0.16-0.047,0.282v0.146h0.151c0.235,0,0.353,0.071,0.353,0.213
			c0,0.101-0.031,0.165-0.094,0.192s-0.148,0.041-0.259,0.041H4.331v1.635c0,0.122-0.029,0.216-0.088,0.279
			c-0.058,0.064-0.133,0.097-0.225,0.097c-0.088,0-0.16-0.032-0.219-0.097c-0.058-0.063-0.087-0.157-0.087-0.279v-1.635h-0.17
			c-0.092,0-0.162-0.021-0.212-0.062c-0.05-0.042-0.075-0.096-0.075-0.162C3.256,24.783,3.359,24.709,3.566,24.709z"/>
		<path fill="#FFFFFF" d="M7.409,25.91c0,0.185-0.028,0.354-0.086,0.509c-0.058,0.156-0.141,0.289-0.249,0.4
			c-0.108,0.112-0.238,0.197-0.389,0.257c-0.151,0.06-0.32,0.09-0.509,0.09c-0.188,0-0.355-0.03-0.505-0.091
			c-0.149-0.06-0.278-0.146-0.388-0.259s-0.192-0.245-0.249-0.398C4.979,26.266,4.95,26.096,4.95,25.91
			c0-0.187,0.028-0.357,0.086-0.514c0.058-0.155,0.14-0.288,0.247-0.397c0.106-0.11,0.236-0.195,0.389-0.255s0.32-0.089,0.505-0.089
			c0.187,0,0.356,0.03,0.509,0.09c0.152,0.061,0.282,0.146,0.392,0.258c0.108,0.112,0.19,0.245,0.247,0.398
			C7.381,25.556,7.409,25.725,7.409,25.91z M6.789,25.91c0-0.252-0.055-0.447-0.166-0.588c-0.11-0.141-0.26-0.21-0.446-0.21
			c-0.121,0-0.228,0.031-0.319,0.094s-0.163,0.154-0.213,0.276c-0.05,0.123-0.074,0.265-0.074,0.428
			c0,0.162,0.024,0.303,0.073,0.423c0.049,0.121,0.119,0.214,0.21,0.277c0.092,0.064,0.199,0.097,0.323,0.097
			c0.187,0,0.336-0.071,0.446-0.212C6.734,26.354,6.789,26.159,6.789,25.91z"/>
		<path fill="#FFFFFF" d="M8.509,26.274v0.516c0,0.126-0.029,0.22-0.088,0.282s-0.134,0.094-0.224,0.094
			c-0.089,0-0.162-0.032-0.22-0.095c-0.058-0.063-0.086-0.157-0.086-0.281v-1.719c0-0.277,0.101-0.416,0.301-0.416
			c0.103,0,0.177,0.032,0.222,0.097c0.045,0.065,0.07,0.161,0.075,0.287c0.073-0.126,0.149-0.222,0.227-0.287
			c0.078-0.064,0.182-0.097,0.312-0.097s0.256,0.032,0.378,0.097c0.122,0.065,0.183,0.151,0.183,0.258
			c0,0.076-0.025,0.138-0.078,0.187c-0.052,0.05-0.107,0.074-0.168,0.074c-0.022,0-0.077-0.015-0.164-0.042
			c-0.087-0.028-0.163-0.042-0.229-0.042c-0.091,0-0.165,0.023-0.222,0.071c-0.058,0.048-0.102,0.118-0.134,0.212
			c-0.031,0.093-0.054,0.204-0.065,0.333S8.509,26.089,8.509,26.274z"/>
		<path fill="#FFFFFF" d="M10.31,25.039l0.403,1.38l0.366-1.282c0.039-0.134,0.068-0.226,0.087-0.274
			c0.02-0.05,0.055-0.096,0.106-0.141s0.123-0.066,0.214-0.066c0.092,0,0.164,0.021,0.216,0.066s0.089,0.093,0.11,0.145
			c0.021,0.052,0.05,0.143,0.088,0.271l0.366,1.282l0.407-1.38c0.027-0.099,0.049-0.171,0.065-0.216
			c0.017-0.044,0.045-0.084,0.084-0.117c0.039-0.034,0.096-0.051,0.17-0.051c0.073,0,0.138,0.025,0.192,0.076
			c0.054,0.052,0.081,0.112,0.081,0.182c0,0.063-0.023,0.159-0.07,0.287l-0.504,1.479c-0.044,0.125-0.078,0.216-0.103,0.271
			c-0.023,0.056-0.062,0.105-0.114,0.149c-0.052,0.044-0.123,0.065-0.213,0.065c-0.094,0-0.168-0.023-0.221-0.07
			c-0.054-0.047-0.094-0.104-0.119-0.172c-0.025-0.067-0.054-0.156-0.084-0.265l-0.353-1.203l-0.342,1.203
			c-0.045,0.167-0.094,0.294-0.146,0.379s-0.146,0.128-0.278,0.128c-0.068,0-0.126-0.014-0.174-0.04
			c-0.047-0.026-0.087-0.063-0.118-0.112c-0.032-0.05-0.06-0.107-0.084-0.175s-0.043-0.12-0.057-0.159l-0.5-1.479
			c-0.05-0.139-0.074-0.234-0.074-0.287c0-0.066,0.026-0.126,0.079-0.179s0.117-0.079,0.194-0.079c0.103,0,0.172,0.028,0.208,0.087
			C10.23,24.8,10.27,24.899,10.31,25.039z"/>
		<path fill="#FFFFFF" d="M15.191,26.817c-0.149,0.116-0.294,0.203-0.434,0.262c-0.139,0.058-0.296,0.087-0.469,0.087
			c-0.158,0-0.298-0.031-0.418-0.094c-0.119-0.062-0.212-0.147-0.276-0.255c-0.065-0.106-0.098-0.223-0.098-0.349
			c0-0.169,0.054-0.312,0.16-0.432c0.107-0.119,0.255-0.199,0.441-0.24c0.039-0.009,0.137-0.029,0.292-0.061
			c0.155-0.032,0.288-0.061,0.399-0.087c0.11-0.026,0.23-0.059,0.36-0.097c-0.007-0.163-0.04-0.282-0.098-0.358
			c-0.059-0.076-0.179-0.114-0.361-0.114c-0.157,0-0.274,0.022-0.354,0.065c-0.08,0.044-0.147,0.109-0.204,0.197
			c-0.057,0.087-0.097,0.145-0.12,0.173s-0.073,0.042-0.15,0.042c-0.069,0-0.129-0.022-0.18-0.066
			c-0.051-0.045-0.076-0.102-0.076-0.171c0-0.109,0.039-0.215,0.116-0.317c0.076-0.103,0.196-0.187,0.359-0.253s0.365-0.1,0.608-0.1
			c0.271,0,0.485,0.032,0.641,0.096c0.155,0.064,0.265,0.166,0.329,0.305c0.063,0.139,0.096,0.323,0.096,0.552
			c0,0.145,0,0.268-0.001,0.369c-0.001,0.101-0.002,0.213-0.004,0.337c0,0.116,0.02,0.237,0.059,0.363
			c0.038,0.126,0.058,0.207,0.058,0.243c0,0.063-0.03,0.121-0.09,0.173s-0.127,0.078-0.202,0.078c-0.063,0-0.126-0.03-0.188-0.09
			C15.326,27.017,15.261,26.931,15.191,26.817z M15.15,25.924c-0.09,0.033-0.222,0.068-0.395,0.105s-0.292,0.064-0.358,0.081
			c-0.066,0.018-0.13,0.052-0.19,0.103c-0.06,0.05-0.09,0.12-0.09,0.211c0,0.094,0.035,0.173,0.106,0.238
			c0.07,0.066,0.163,0.099,0.277,0.099c0.123,0,0.235-0.026,0.339-0.08s0.179-0.122,0.228-0.207
			c0.056-0.094,0.083-0.247,0.083-0.461V25.924z"/>
		<path fill="#FFFFFF" d="M16.996,26.274v0.516c0,0.126-0.029,0.22-0.088,0.282s-0.134,0.094-0.224,0.094
			c-0.089,0-0.162-0.032-0.22-0.095c-0.058-0.063-0.086-0.157-0.086-0.281v-1.719c0-0.277,0.101-0.416,0.301-0.416
			c0.103,0,0.177,0.032,0.222,0.097c0.045,0.065,0.07,0.161,0.075,0.287c0.073-0.126,0.149-0.222,0.227-0.287
			c0.078-0.064,0.182-0.097,0.312-0.097s0.256,0.032,0.378,0.097c0.122,0.065,0.183,0.151,0.183,0.258
			c0,0.076-0.025,0.138-0.078,0.187c-0.052,0.05-0.107,0.074-0.168,0.074c-0.022,0-0.077-0.015-0.164-0.042
			c-0.087-0.028-0.163-0.042-0.229-0.042c-0.091,0-0.165,0.023-0.222,0.071c-0.058,0.048-0.102,0.118-0.134,0.212
			c-0.031,0.093-0.054,0.204-0.065,0.333S16.996,26.089,16.996,26.274z"/>
		<path fill="#FFFFFF" d="M19.984,26.813v-0.062c-0.083,0.095-0.164,0.172-0.245,0.231s-0.168,0.105-0.263,0.136
			c-0.094,0.031-0.197,0.047-0.309,0.047c-0.147,0-0.284-0.031-0.41-0.094s-0.235-0.152-0.327-0.269s-0.162-0.252-0.209-0.409
			c-0.048-0.157-0.071-0.326-0.071-0.509c0-0.387,0.094-0.688,0.282-0.902c0.188-0.216,0.437-0.324,0.744-0.324
			c0.179,0,0.328,0.031,0.45,0.092c0.122,0.062,0.241,0.155,0.357,0.281v-0.911c0-0.127,0.025-0.223,0.076-0.287
			c0.051-0.065,0.122-0.098,0.216-0.098s0.166,0.03,0.216,0.09c0.051,0.06,0.076,0.147,0.076,0.264v2.724
			c0,0.117-0.027,0.205-0.081,0.265c-0.055,0.059-0.125,0.088-0.211,0.088c-0.084,0-0.154-0.03-0.209-0.092
			C20.013,27.014,19.984,26.926,19.984,26.813z M18.77,25.906c0,0.167,0.026,0.31,0.078,0.427c0.053,0.118,0.124,0.207,0.214,0.267
			c0.091,0.06,0.189,0.089,0.297,0.089c0.108,0,0.207-0.028,0.297-0.085s0.162-0.143,0.215-0.26
			c0.054-0.117,0.081-0.263,0.081-0.438c0-0.165-0.027-0.306-0.081-0.425c-0.053-0.118-0.126-0.209-0.217-0.271
			s-0.191-0.094-0.3-0.094c-0.113,0-0.214,0.032-0.303,0.097c-0.089,0.063-0.158,0.155-0.207,0.275
			C18.794,25.608,18.77,25.747,18.77,25.906z"/>
		<path fill="#FFFFFF" d="M22.912,26.062h-1.208c0.001,0.141,0.029,0.265,0.085,0.371c0.055,0.107,0.128,0.188,0.219,0.242
			c0.092,0.055,0.192,0.082,0.303,0.082c0.073,0,0.141-0.009,0.202-0.026c0.061-0.018,0.12-0.045,0.178-0.081
			c0.057-0.037,0.109-0.077,0.158-0.119c0.048-0.042,0.11-0.1,0.188-0.172c0.032-0.027,0.077-0.041,0.136-0.041
			c0.063,0,0.115,0.018,0.154,0.053c0.039,0.034,0.059,0.083,0.059,0.146c0,0.056-0.021,0.121-0.065,0.195
			c-0.044,0.075-0.11,0.146-0.198,0.216c-0.088,0.068-0.199,0.125-0.332,0.17c-0.134,0.046-0.287,0.068-0.461,0.068
			c-0.396,0-0.705-0.113-0.925-0.34c-0.221-0.226-0.331-0.532-0.331-0.92c0-0.183,0.027-0.353,0.082-0.508
			c0.054-0.156,0.134-0.29,0.237-0.402c0.104-0.111,0.232-0.196,0.385-0.257c0.152-0.059,0.321-0.089,0.507-0.089
			c0.241,0,0.448,0.051,0.621,0.152c0.172,0.103,0.302,0.233,0.388,0.396c0.086,0.161,0.129,0.325,0.129,0.493
			c0,0.155-0.045,0.256-0.134,0.302S23.073,26.062,22.912,26.062z M21.704,25.711h1.119c-0.015-0.211-0.071-0.369-0.17-0.474
			c-0.1-0.104-0.229-0.157-0.391-0.157c-0.154,0-0.28,0.054-0.379,0.159C21.785,25.346,21.725,25.503,21.704,25.711z"/>
		<path fill="#FFFFFF" d="M25.633,26.813v-0.062c-0.083,0.095-0.164,0.172-0.245,0.231s-0.168,0.105-0.263,0.136
			c-0.094,0.031-0.197,0.047-0.309,0.047c-0.147,0-0.284-0.031-0.41-0.094s-0.235-0.152-0.327-0.269s-0.162-0.252-0.209-0.409
			c-0.048-0.157-0.071-0.326-0.071-0.509c0-0.387,0.094-0.688,0.282-0.902c0.188-0.216,0.437-0.324,0.744-0.324
			c0.179,0,0.328,0.031,0.45,0.092c0.122,0.062,0.241,0.155,0.357,0.281v-0.911c0-0.127,0.025-0.223,0.076-0.287
			c0.051-0.065,0.122-0.098,0.216-0.098s0.166,0.03,0.216,0.09c0.051,0.06,0.076,0.147,0.076,0.264v2.724
			c0,0.117-0.027,0.205-0.081,0.265c-0.055,0.059-0.125,0.088-0.211,0.088c-0.084,0-0.154-0.03-0.209-0.092
			C25.661,27.014,25.633,26.926,25.633,26.813z M24.418,25.906c0,0.167,0.026,0.31,0.078,0.427c0.053,0.118,0.124,0.207,0.214,0.267
			c0.091,0.06,0.189,0.089,0.297,0.089c0.108,0,0.207-0.028,0.297-0.085s0.162-0.143,0.215-0.26
			c0.054-0.117,0.081-0.263,0.081-0.438c0-0.165-0.027-0.306-0.081-0.425c-0.053-0.118-0.126-0.209-0.217-0.271
			s-0.191-0.094-0.3-0.094c-0.113,0-0.214,0.032-0.303,0.097c-0.089,0.063-0.158,0.155-0.207,0.275
			C24.442,25.608,24.418,25.747,24.418,25.906z"/>
		<path fill="#FFFFFF" d="M28.029,24.709h0.068v-0.371c0-0.1,0.003-0.178,0.008-0.233c0.005-0.057,0.02-0.105,0.044-0.146
			c0.024-0.042,0.059-0.076,0.104-0.103c0.045-0.026,0.096-0.04,0.151-0.04c0.078,0,0.149,0.029,0.213,0.089
			c0.042,0.039,0.068,0.087,0.08,0.144c0.011,0.057,0.017,0.137,0.017,0.24v0.421h0.227c0.087,0,0.154,0.021,0.2,0.062
			c0.046,0.041,0.069,0.095,0.069,0.159c0,0.083-0.033,0.142-0.099,0.175s-0.16,0.05-0.282,0.05h-0.115v1.135
			c0,0.097,0.004,0.171,0.011,0.224c0.007,0.052,0.024,0.094,0.054,0.126c0.029,0.033,0.077,0.049,0.144,0.049
			c0.036,0,0.086-0.006,0.147-0.02c0.062-0.013,0.11-0.019,0.145-0.019c0.05,0,0.095,0.02,0.135,0.06s0.06,0.09,0.06,0.148
			c0,0.1-0.054,0.176-0.162,0.229c-0.109,0.053-0.265,0.079-0.469,0.079c-0.193,0-0.339-0.032-0.438-0.098
			c-0.1-0.064-0.165-0.154-0.196-0.269c-0.03-0.115-0.046-0.268-0.046-0.46v-1.185h-0.082c-0.089,0-0.156-0.021-0.203-0.063
			c-0.047-0.043-0.07-0.096-0.07-0.161c0-0.064,0.024-0.118,0.073-0.159C27.865,24.729,27.937,24.709,28.029,24.709z"/>
		<path fill="#FFFFFF" d="M31.947,25.91c0,0.185-0.028,0.354-0.086,0.509c-0.058,0.156-0.141,0.289-0.249,0.4
			c-0.108,0.112-0.238,0.197-0.389,0.257c-0.151,0.06-0.32,0.09-0.509,0.09c-0.188,0-0.355-0.03-0.505-0.091
			c-0.149-0.06-0.278-0.146-0.388-0.259s-0.192-0.245-0.249-0.398c-0.057-0.152-0.085-0.322-0.085-0.508
			c0-0.187,0.028-0.357,0.086-0.514c0.058-0.155,0.14-0.288,0.247-0.397c0.106-0.11,0.236-0.195,0.389-0.255s0.32-0.089,0.505-0.089
			c0.187,0,0.356,0.03,0.509,0.09c0.152,0.061,0.282,0.146,0.392,0.258c0.108,0.112,0.19,0.245,0.247,0.398
			C31.919,25.556,31.947,25.725,31.947,25.91z M31.327,25.91c0-0.252-0.055-0.447-0.166-0.588c-0.11-0.141-0.26-0.21-0.446-0.21
			c-0.121,0-0.228,0.031-0.319,0.094s-0.163,0.154-0.213,0.276c-0.05,0.123-0.074,0.265-0.074,0.428
			c0,0.162,0.024,0.303,0.073,0.423c0.049,0.121,0.119,0.214,0.21,0.277c0.092,0.064,0.199,0.097,0.323,0.097
			c0.187,0,0.336-0.071,0.446-0.212C31.272,26.354,31.327,26.159,31.327,25.91z"/>
		<path fill="#FFFFFF" d="M33.626,24.709h0.068v-0.371c0-0.1,0.003-0.178,0.008-0.233c0.005-0.057,0.02-0.105,0.044-0.146
			c0.024-0.042,0.059-0.076,0.104-0.103c0.045-0.026,0.096-0.04,0.151-0.04c0.078,0,0.149,0.029,0.213,0.089
			c0.042,0.039,0.068,0.087,0.08,0.144c0.011,0.057,0.017,0.137,0.017,0.24v0.421h0.227c0.087,0,0.154,0.021,0.2,0.062
			c0.046,0.041,0.069,0.095,0.069,0.159c0,0.083-0.033,0.142-0.099,0.175s-0.16,0.05-0.282,0.05h-0.115v1.135
			c0,0.097,0.004,0.171,0.011,0.224c0.007,0.052,0.024,0.094,0.054,0.126c0.029,0.033,0.077,0.049,0.144,0.049
			c0.036,0,0.086-0.006,0.147-0.02c0.062-0.013,0.11-0.019,0.145-0.019c0.05,0,0.095,0.02,0.135,0.06s0.06,0.09,0.06,0.148
			c0,0.1-0.054,0.176-0.162,0.229c-0.109,0.053-0.265,0.079-0.469,0.079c-0.193,0-0.339-0.032-0.438-0.098
			c-0.1-0.064-0.165-0.154-0.196-0.269c-0.03-0.115-0.046-0.268-0.046-0.46v-1.185h-0.082c-0.089,0-0.156-0.021-0.203-0.063
			c-0.047-0.043-0.07-0.096-0.07-0.161c0-0.064,0.024-0.118,0.073-0.159C33.462,24.729,33.533,24.709,33.626,24.709z"/>
		<path fill="#FFFFFF" d="M35.836,24.112v0.916c0.078-0.091,0.155-0.162,0.229-0.215c0.075-0.053,0.157-0.093,0.248-0.119
			s0.188-0.039,0.292-0.039c0.156,0,0.296,0.033,0.417,0.1s0.217,0.162,0.286,0.289c0.044,0.074,0.073,0.156,0.088,0.248
			c0.016,0.091,0.023,0.196,0.023,0.315v1.183c0,0.124-0.028,0.218-0.085,0.281c-0.057,0.062-0.132,0.095-0.226,0.095
			c-0.203,0-0.305-0.125-0.305-0.376v-1.043c0-0.197-0.03-0.349-0.089-0.455s-0.17-0.16-0.335-0.16
			c-0.109,0-0.209,0.031-0.297,0.095c-0.089,0.062-0.154,0.147-0.198,0.256c-0.033,0.093-0.05,0.256-0.05,0.491v0.816
			c0,0.122-0.027,0.216-0.082,0.279c-0.056,0.064-0.132,0.097-0.23,0.097c-0.203,0-0.305-0.125-0.305-0.376v-2.678
			c0-0.125,0.026-0.22,0.08-0.282s0.129-0.094,0.225-0.094c0.099,0,0.175,0.032,0.23,0.095
			C35.809,23.895,35.836,23.988,35.836,24.112z"/>
		<path fill="#FFFFFF" d="M39.754,26.062h-1.208c0.001,0.141,0.029,0.265,0.085,0.371c0.055,0.107,0.128,0.188,0.219,0.242
			c0.092,0.055,0.192,0.082,0.303,0.082c0.073,0,0.141-0.009,0.202-0.026c0.061-0.018,0.12-0.045,0.178-0.081
			c0.057-0.037,0.109-0.077,0.158-0.119c0.048-0.042,0.11-0.1,0.188-0.172c0.032-0.027,0.077-0.041,0.136-0.041
			c0.063,0,0.115,0.018,0.154,0.053c0.039,0.034,0.059,0.083,0.059,0.146c0,0.056-0.021,0.121-0.065,0.195
			c-0.044,0.075-0.11,0.146-0.198,0.216c-0.088,0.068-0.199,0.125-0.332,0.17c-0.134,0.046-0.287,0.068-0.461,0.068
			c-0.396,0-0.705-0.113-0.925-0.34c-0.221-0.226-0.331-0.532-0.331-0.92c0-0.183,0.027-0.353,0.082-0.508
			c0.054-0.156,0.134-0.29,0.237-0.402c0.104-0.111,0.232-0.196,0.385-0.257c0.152-0.059,0.321-0.089,0.507-0.089
			c0.241,0,0.448,0.051,0.621,0.152c0.172,0.103,0.302,0.233,0.388,0.396c0.086,0.161,0.129,0.325,0.129,0.493
			c0,0.155-0.045,0.256-0.134,0.302S39.915,26.062,39.754,26.062z M38.546,25.711h1.119c-0.015-0.211-0.071-0.369-0.17-0.474
			c-0.1-0.104-0.229-0.157-0.391-0.157c-0.154,0-0.28,0.054-0.379,0.159C38.627,25.346,38.566,25.503,38.546,25.711z"/>
		<path fill="#FFFFFF" d="M42.379,25.039l0.5,1.403l0.538-1.464c0.042-0.118,0.084-0.201,0.124-0.25
			c0.041-0.049,0.103-0.073,0.186-0.073c0.079,0,0.146,0.026,0.2,0.079c0.056,0.053,0.083,0.113,0.083,0.183
			c0,0.027-0.005,0.06-0.015,0.096s-0.021,0.069-0.034,0.102c-0.013,0.031-0.027,0.067-0.044,0.108l-0.593,1.471
			c-0.017,0.042-0.038,0.096-0.064,0.16c-0.026,0.065-0.056,0.12-0.088,0.166c-0.033,0.047-0.073,0.082-0.12,0.108
			c-0.048,0.025-0.105,0.038-0.173,0.038c-0.088,0-0.157-0.021-0.21-0.06c-0.052-0.04-0.09-0.084-0.115-0.132
			c-0.024-0.047-0.066-0.142-0.125-0.281l-0.589-1.455c-0.014-0.036-0.027-0.072-0.041-0.108c-0.015-0.036-0.027-0.073-0.037-0.11
			c-0.01-0.038-0.015-0.07-0.015-0.098c0-0.042,0.014-0.084,0.039-0.126c0.025-0.041,0.061-0.075,0.106-0.102
			c0.045-0.026,0.094-0.039,0.146-0.039c0.103,0,0.173,0.029,0.212,0.088C42.289,24.802,42.332,24.9,42.379,25.039z"/>
		<path fill="#FFFFFF" d="M46.703,25.91c0,0.185-0.028,0.354-0.086,0.509c-0.058,0.156-0.141,0.289-0.249,0.4
			c-0.108,0.112-0.238,0.197-0.389,0.257c-0.151,0.06-0.32,0.09-0.509,0.09c-0.188,0-0.355-0.03-0.505-0.091
			c-0.149-0.06-0.278-0.146-0.388-0.259s-0.192-0.245-0.249-0.398c-0.057-0.152-0.085-0.322-0.085-0.508
			c0-0.187,0.028-0.357,0.086-0.514c0.058-0.155,0.14-0.288,0.247-0.397c0.106-0.11,0.236-0.195,0.389-0.255s0.32-0.089,0.505-0.089
			c0.187,0,0.356,0.03,0.509,0.09c0.152,0.061,0.282,0.146,0.392,0.258c0.108,0.112,0.19,0.245,0.247,0.398
			C46.675,25.556,46.703,25.725,46.703,25.91z M46.083,25.91c0-0.252-0.055-0.447-0.166-0.588c-0.11-0.141-0.26-0.21-0.446-0.21
			c-0.121,0-0.228,0.031-0.319,0.094s-0.163,0.154-0.213,0.276c-0.05,0.123-0.074,0.265-0.074,0.428
			c0,0.162,0.024,0.303,0.073,0.423c0.049,0.121,0.119,0.214,0.21,0.277c0.092,0.064,0.199,0.097,0.323,0.097
			c0.187,0,0.336-0.071,0.446-0.212C46.028,26.354,46.083,26.159,46.083,25.91z"/>
		<path fill="#FFFFFF" d="M47.502,24.367c-0.086,0-0.159-0.026-0.221-0.079c-0.061-0.053-0.091-0.127-0.091-0.224
			c0-0.088,0.031-0.159,0.094-0.216s0.135-0.085,0.218-0.085c0.08,0,0.151,0.025,0.213,0.077c0.062,0.051,0.093,0.126,0.093,0.224
			c0,0.095-0.03,0.169-0.091,0.223C47.657,24.341,47.585,24.367,47.502,24.367z M47.808,25.006v1.784
			c0,0.124-0.029,0.218-0.088,0.281c-0.06,0.062-0.134,0.095-0.225,0.095c-0.09,0-0.164-0.032-0.221-0.098
			c-0.056-0.064-0.084-0.157-0.084-0.278v-1.767c0-0.122,0.028-0.214,0.084-0.275c0.057-0.062,0.131-0.093,0.221-0.093
			c0.091,0,0.165,0.03,0.225,0.093C47.778,24.81,47.808,24.896,47.808,25.006z"/>
		<path fill="#FFFFFF" d="M50.659,26.401c0,0.077-0.022,0.159-0.068,0.246c-0.046,0.088-0.116,0.171-0.211,0.25
			c-0.094,0.079-0.213,0.144-0.355,0.191c-0.144,0.049-0.305,0.072-0.484,0.072c-0.382,0-0.68-0.111-0.894-0.333
			c-0.215-0.223-0.321-0.521-0.321-0.896c0-0.253,0.049-0.477,0.146-0.672c0.099-0.194,0.24-0.345,0.426-0.451
			s0.407-0.159,0.665-0.159c0.16,0,0.307,0.023,0.44,0.07c0.133,0.047,0.246,0.106,0.339,0.181s0.164,0.152,0.213,0.236
			s0.073,0.162,0.073,0.234c0,0.074-0.027,0.137-0.083,0.188c-0.055,0.052-0.121,0.077-0.2,0.077c-0.051,0-0.094-0.014-0.127-0.04
			c-0.034-0.026-0.072-0.068-0.114-0.127c-0.076-0.115-0.154-0.201-0.236-0.259c-0.083-0.057-0.188-0.086-0.313-0.086
			c-0.183,0-0.33,0.071-0.441,0.214s-0.167,0.338-0.167,0.585c0,0.116,0.014,0.223,0.043,0.32c0.028,0.098,0.069,0.181,0.124,0.249
			s0.12,0.12,0.197,0.156c0.076,0.035,0.161,0.053,0.253,0.053c0.124,0,0.229-0.028,0.317-0.086
			c0.089-0.058,0.167-0.145,0.234-0.263c0.038-0.069,0.078-0.123,0.122-0.162c0.044-0.04,0.098-0.06,0.161-0.06
			c0.075,0,0.138,0.029,0.188,0.086C50.635,26.275,50.659,26.337,50.659,26.401z"/>
		<path fill="#FFFFFF" d="M52.923,26.062h-1.208c0.001,0.141,0.029,0.265,0.085,0.371c0.055,0.107,0.128,0.188,0.219,0.242
			c0.092,0.055,0.192,0.082,0.303,0.082c0.073,0,0.141-0.009,0.202-0.026c0.061-0.018,0.12-0.045,0.178-0.081
			c0.057-0.037,0.109-0.077,0.158-0.119c0.048-0.042,0.11-0.1,0.188-0.172c0.032-0.027,0.077-0.041,0.136-0.041
			c0.063,0,0.115,0.018,0.154,0.053c0.039,0.034,0.059,0.083,0.059,0.146c0,0.056-0.021,0.121-0.065,0.195
			c-0.044,0.075-0.11,0.146-0.198,0.216c-0.088,0.068-0.199,0.125-0.332,0.17c-0.134,0.046-0.287,0.068-0.461,0.068
			c-0.396,0-0.705-0.113-0.925-0.34c-0.221-0.226-0.331-0.532-0.331-0.92c0-0.183,0.027-0.353,0.082-0.508
			c0.054-0.156,0.134-0.29,0.237-0.402c0.104-0.111,0.232-0.196,0.385-0.257c0.152-0.059,0.321-0.089,0.507-0.089
			c0.241,0,0.448,0.051,0.621,0.152c0.172,0.103,0.302,0.233,0.388,0.396c0.086,0.161,0.129,0.325,0.129,0.493
			c0,0.155-0.045,0.256-0.134,0.302S53.084,26.062,52.923,26.062z M51.715,25.711h1.119c-0.015-0.211-0.071-0.369-0.17-0.474
			c-0.1-0.104-0.229-0.157-0.391-0.157c-0.154,0-0.28,0.054-0.379,0.159C51.796,25.346,51.735,25.503,51.715,25.711z"/>
		<path fill="#FFFFFF" d="M56.006,25.956v0.82c0,0.13-0.029,0.228-0.088,0.292c-0.06,0.065-0.137,0.098-0.233,0.098
			c-0.094,0-0.169-0.032-0.228-0.098c-0.058-0.064-0.087-0.162-0.087-0.292v-0.983c0-0.155-0.005-0.276-0.016-0.362
			s-0.039-0.156-0.086-0.211c-0.047-0.056-0.121-0.083-0.222-0.083c-0.202,0-0.335,0.069-0.399,0.208s-0.097,0.338-0.097,0.598
			v0.834c0,0.129-0.028,0.226-0.087,0.291c-0.058,0.065-0.135,0.099-0.229,0.099c-0.094,0-0.17-0.033-0.229-0.099
			s-0.089-0.162-0.089-0.291V25.01c0-0.116,0.026-0.204,0.08-0.265c0.054-0.06,0.124-0.09,0.211-0.09
			c0.085,0,0.155,0.028,0.212,0.084c0.057,0.057,0.085,0.135,0.085,0.234v0.059c0.106-0.128,0.222-0.222,0.344-0.282
			s0.258-0.091,0.407-0.091c0.155,0,0.289,0.031,0.4,0.093c0.111,0.062,0.203,0.155,0.276,0.28c0.104-0.126,0.215-0.22,0.334-0.281
			c0.119-0.061,0.252-0.092,0.396-0.092c0.169,0,0.314,0.033,0.437,0.1s0.213,0.161,0.273,0.285
			c0.053,0.111,0.079,0.287,0.079,0.527v1.205c0,0.13-0.029,0.228-0.088,0.292c-0.059,0.065-0.137,0.098-0.233,0.098
			c-0.094,0-0.17-0.033-0.229-0.099s-0.089-0.162-0.089-0.291v-1.038c0-0.133-0.006-0.239-0.018-0.318
			c-0.011-0.08-0.042-0.147-0.092-0.202c-0.05-0.054-0.125-0.081-0.226-0.081c-0.082,0-0.159,0.024-0.232,0.072
			c-0.073,0.049-0.13,0.113-0.171,0.194C56.028,25.508,56.006,25.691,56.006,25.956z"/>
		<path fill="#FFFFFF" d="M59.611,26.817c-0.149,0.116-0.294,0.203-0.434,0.262c-0.139,0.058-0.296,0.087-0.469,0.087
			c-0.158,0-0.298-0.031-0.418-0.094c-0.119-0.062-0.212-0.147-0.276-0.255c-0.065-0.106-0.098-0.223-0.098-0.349
			c0-0.169,0.054-0.312,0.16-0.432c0.107-0.119,0.255-0.199,0.441-0.24c0.039-0.009,0.137-0.029,0.292-0.061
			c0.155-0.032,0.288-0.061,0.399-0.087c0.11-0.026,0.23-0.059,0.36-0.097c-0.007-0.163-0.04-0.282-0.098-0.358
			c-0.059-0.076-0.179-0.114-0.361-0.114c-0.157,0-0.274,0.022-0.354,0.065c-0.08,0.044-0.147,0.109-0.204,0.197
			c-0.057,0.087-0.097,0.145-0.12,0.173s-0.073,0.042-0.15,0.042c-0.069,0-0.129-0.022-0.18-0.066
			c-0.051-0.045-0.076-0.102-0.076-0.171c0-0.109,0.039-0.215,0.116-0.317c0.076-0.103,0.196-0.187,0.359-0.253s0.365-0.1,0.608-0.1
			c0.271,0,0.485,0.032,0.641,0.096c0.155,0.064,0.265,0.166,0.329,0.305c0.063,0.139,0.096,0.323,0.096,0.552
			c0,0.145,0,0.268-0.001,0.369c-0.001,0.101-0.002,0.213-0.004,0.337c0,0.116,0.02,0.237,0.059,0.363
			c0.038,0.126,0.058,0.207,0.058,0.243c0,0.063-0.03,0.121-0.09,0.173s-0.127,0.078-0.202,0.078c-0.063,0-0.126-0.03-0.188-0.09
			C59.746,27.017,59.681,26.931,59.611,26.817z M59.57,25.924c-0.09,0.033-0.222,0.068-0.395,0.105s-0.292,0.064-0.358,0.081
			c-0.066,0.018-0.13,0.052-0.19,0.103c-0.06,0.05-0.09,0.12-0.09,0.211c0,0.094,0.035,0.173,0.106,0.238
			c0.07,0.066,0.163,0.099,0.277,0.099c0.123,0,0.235-0.026,0.339-0.08s0.179-0.122,0.228-0.207
			c0.056-0.094,0.083-0.247,0.083-0.461V25.924z"/>
		<path fill="#FFFFFF" d="M61.115,24.367c-0.086,0-0.159-0.026-0.221-0.079c-0.061-0.053-0.091-0.127-0.091-0.224
			c0-0.088,0.031-0.159,0.094-0.216s0.135-0.085,0.218-0.085c0.08,0,0.151,0.025,0.213,0.077c0.062,0.051,0.093,0.126,0.093,0.224
			c0,0.095-0.03,0.169-0.091,0.223C61.271,24.341,61.198,24.367,61.115,24.367z M61.421,25.006v1.784
			c0,0.124-0.029,0.218-0.088,0.281c-0.06,0.062-0.134,0.095-0.225,0.095c-0.09,0-0.164-0.032-0.221-0.098
			c-0.056-0.064-0.084-0.157-0.084-0.278v-1.767c0-0.122,0.028-0.214,0.084-0.275c0.057-0.062,0.131-0.093,0.221-0.093
			c0.091,0,0.165,0.03,0.225,0.093C61.392,24.81,61.421,24.896,61.421,25.006z"/>
		<path fill="#FFFFFF" d="M62.06,26.79v-2.678c0-0.124,0.027-0.218,0.082-0.281c0.056-0.062,0.13-0.095,0.223-0.095
			c0.094,0,0.169,0.031,0.227,0.094s0.086,0.157,0.086,0.282v2.678c0,0.126-0.029,0.22-0.087,0.282
			c-0.059,0.062-0.133,0.094-0.226,0.094c-0.09,0-0.164-0.032-0.221-0.098C62.088,27.004,62.06,26.911,62.06,26.79z"/>
		<path fill="#FFFFFF" d="M3.566,30.269h0.146v-0.186c0-0.192,0.024-0.347,0.074-0.46c0.049-0.114,0.132-0.197,0.248-0.249
			c0.117-0.052,0.277-0.078,0.481-0.078c0.36,0,0.54,0.088,0.54,0.265c0,0.058-0.019,0.106-0.057,0.147
			c-0.037,0.04-0.082,0.061-0.133,0.061c-0.024,0-0.066-0.004-0.125-0.014c-0.059-0.009-0.108-0.014-0.149-0.014
			c-0.111,0-0.183,0.033-0.215,0.099C4.347,29.905,4.331,30,4.331,30.122v0.146h0.151c0.235,0,0.353,0.071,0.353,0.213
			c0,0.101-0.031,0.165-0.094,0.192s-0.148,0.041-0.259,0.041H4.331v1.635c0,0.122-0.029,0.216-0.088,0.279
			c-0.058,0.064-0.133,0.097-0.225,0.097c-0.088,0-0.16-0.032-0.219-0.097c-0.058-0.063-0.087-0.157-0.087-0.279v-1.635h-0.17
			c-0.092,0-0.162-0.021-0.212-0.062c-0.05-0.042-0.075-0.096-0.075-0.162C3.256,30.343,3.359,30.269,3.566,30.269z"/>
		<path fill="#FFFFFF" d="M7.409,31.47c0,0.185-0.028,0.354-0.086,0.509c-0.058,0.156-0.141,0.289-0.249,0.4
			c-0.108,0.112-0.238,0.197-0.389,0.257c-0.151,0.06-0.32,0.09-0.509,0.09c-0.188,0-0.355-0.03-0.505-0.091
			c-0.149-0.06-0.278-0.146-0.388-0.259s-0.192-0.245-0.249-0.398C4.979,31.825,4.95,31.655,4.95,31.47
			c0-0.187,0.028-0.357,0.086-0.514c0.058-0.155,0.14-0.288,0.247-0.397c0.106-0.11,0.236-0.195,0.389-0.255s0.32-0.089,0.505-0.089
			c0.187,0,0.356,0.03,0.509,0.09c0.152,0.061,0.282,0.146,0.392,0.258c0.108,0.112,0.19,0.245,0.247,0.398
			C7.381,31.115,7.409,31.284,7.409,31.47z M6.789,31.47c0-0.252-0.055-0.447-0.166-0.588c-0.11-0.141-0.26-0.21-0.446-0.21
			c-0.121,0-0.228,0.031-0.319,0.094s-0.163,0.154-0.213,0.276c-0.05,0.123-0.074,0.265-0.074,0.428
			c0,0.162,0.024,0.303,0.073,0.423c0.049,0.121,0.119,0.214,0.21,0.277c0.092,0.064,0.199,0.097,0.323,0.097
			c0.187,0,0.336-0.071,0.446-0.212C6.734,31.914,6.789,31.719,6.789,31.47z"/>
		<path fill="#FFFFFF" d="M8.509,31.834v0.516c0,0.126-0.029,0.22-0.088,0.282s-0.134,0.094-0.224,0.094
			c-0.089,0-0.162-0.032-0.22-0.095c-0.058-0.063-0.086-0.157-0.086-0.281v-1.719c0-0.277,0.101-0.416,0.301-0.416
			c0.103,0,0.177,0.032,0.222,0.097c0.045,0.065,0.07,0.161,0.075,0.287c0.073-0.126,0.149-0.222,0.227-0.287
			c0.078-0.064,0.182-0.097,0.312-0.097s0.256,0.032,0.378,0.097c0.122,0.065,0.183,0.151,0.183,0.258
			c0,0.076-0.025,0.138-0.078,0.187c-0.052,0.05-0.107,0.074-0.168,0.074c-0.022,0-0.077-0.015-0.164-0.042
			c-0.087-0.028-0.163-0.042-0.229-0.042c-0.091,0-0.165,0.023-0.222,0.071c-0.058,0.048-0.102,0.118-0.134,0.212
			c-0.031,0.093-0.054,0.204-0.065,0.333S8.509,31.648,8.509,31.834z"/>
		<path fill="#FFFFFF" d="M11.617,29.737l0.751,2.224l0.754-2.239c0.039-0.118,0.068-0.2,0.088-0.246s0.052-0.087,0.098-0.124
			c0.045-0.037,0.106-0.056,0.186-0.056c0.057,0,0.11,0.015,0.159,0.043c0.049,0.029,0.088,0.066,0.115,0.114
			c0.028,0.048,0.042,0.096,0.042,0.144c0,0.033-0.005,0.069-0.014,0.107c-0.009,0.039-0.021,0.076-0.034,0.113
			s-0.026,0.075-0.04,0.114l-0.804,2.167c-0.028,0.083-0.057,0.162-0.086,0.236c-0.028,0.075-0.062,0.141-0.1,0.197
			c-0.037,0.057-0.088,0.103-0.15,0.139s-0.139,0.055-0.229,0.055c-0.09,0-0.167-0.018-0.229-0.054
			c-0.062-0.035-0.113-0.082-0.151-0.14c-0.039-0.059-0.072-0.124-0.101-0.198c-0.029-0.073-0.058-0.152-0.086-0.235l-0.79-2.148
			c-0.014-0.04-0.027-0.078-0.042-0.116c-0.014-0.037-0.026-0.078-0.036-0.122c-0.01-0.043-0.015-0.08-0.015-0.11
			c0-0.077,0.031-0.147,0.093-0.211c0.062-0.062,0.14-0.095,0.233-0.095c0.114,0,0.195,0.035,0.243,0.105
			S11.567,29.583,11.617,29.737z"/>
		<path fill="#FFFFFF" d="M14.271,32.35v-2.678c0-0.124,0.027-0.218,0.082-0.281c0.056-0.062,0.13-0.095,0.223-0.095
			c0.094,0,0.169,0.031,0.227,0.094s0.086,0.157,0.086,0.282v2.678c0,0.126-0.029,0.22-0.087,0.282
			c-0.059,0.062-0.133,0.094-0.226,0.094c-0.09,0-0.164-0.032-0.221-0.098C14.3,32.563,14.271,32.471,14.271,32.35z"/>
		<path fill="#FFFFFF" d="M17.087,32.377c-0.149,0.116-0.294,0.203-0.434,0.262c-0.139,0.058-0.296,0.087-0.469,0.087
			c-0.158,0-0.298-0.031-0.418-0.094c-0.119-0.062-0.212-0.147-0.276-0.255c-0.065-0.106-0.098-0.223-0.098-0.349
			c0-0.169,0.054-0.312,0.16-0.432c0.107-0.119,0.255-0.199,0.441-0.24c0.039-0.009,0.137-0.029,0.292-0.061
			c0.155-0.032,0.288-0.061,0.399-0.087c0.11-0.026,0.23-0.059,0.36-0.097c-0.007-0.163-0.04-0.282-0.098-0.358
			c-0.059-0.076-0.179-0.114-0.361-0.114c-0.157,0-0.274,0.022-0.354,0.065c-0.08,0.044-0.147,0.109-0.204,0.197
			c-0.057,0.087-0.097,0.145-0.12,0.173s-0.073,0.042-0.15,0.042c-0.069,0-0.129-0.022-0.18-0.066
			c-0.051-0.045-0.076-0.102-0.076-0.171c0-0.109,0.039-0.215,0.116-0.317c0.076-0.103,0.196-0.187,0.359-0.253s0.365-0.1,0.608-0.1
			c0.271,0,0.485,0.032,0.641,0.096c0.155,0.064,0.265,0.166,0.329,0.305c0.063,0.139,0.096,0.323,0.096,0.552
			c0,0.145,0,0.268-0.001,0.369c-0.001,0.101-0.002,0.213-0.004,0.337c0,0.116,0.02,0.237,0.059,0.363
			c0.038,0.126,0.058,0.207,0.058,0.243c0,0.063-0.03,0.121-0.09,0.173s-0.127,0.078-0.202,0.078c-0.063,0-0.126-0.03-0.188-0.09
			C17.222,32.576,17.156,32.49,17.087,32.377z M17.046,31.483c-0.09,0.033-0.222,0.068-0.395,0.105s-0.292,0.064-0.358,0.081
			c-0.066,0.018-0.13,0.052-0.19,0.103c-0.06,0.05-0.09,0.12-0.09,0.211c0,0.094,0.035,0.173,0.106,0.238
			c0.07,0.066,0.163,0.099,0.277,0.099c0.123,0,0.235-0.026,0.339-0.08s0.179-0.122,0.228-0.207
			c0.056-0.094,0.083-0.247,0.083-0.461V31.483z"/>
		<path fill="#FFFFFF" d="M19.971,32.373v-0.062c-0.083,0.095-0.164,0.172-0.245,0.231s-0.168,0.105-0.263,0.136
			c-0.094,0.031-0.197,0.047-0.309,0.047c-0.147,0-0.284-0.031-0.41-0.094s-0.235-0.152-0.327-0.269s-0.162-0.252-0.209-0.409
			c-0.048-0.157-0.071-0.326-0.071-0.509c0-0.387,0.094-0.688,0.282-0.902c0.188-0.216,0.437-0.324,0.744-0.324
			c0.179,0,0.328,0.031,0.45,0.092c0.122,0.062,0.241,0.155,0.357,0.281v-0.911c0-0.127,0.025-0.223,0.076-0.287
			c0.051-0.065,0.122-0.098,0.216-0.098s0.166,0.03,0.216,0.09c0.051,0.06,0.076,0.147,0.076,0.264v2.724
			c0,0.117-0.027,0.205-0.081,0.265c-0.055,0.059-0.125,0.088-0.211,0.088c-0.084,0-0.154-0.03-0.209-0.092
			C19.999,32.573,19.971,32.485,19.971,32.373z M18.756,31.466c0,0.167,0.026,0.31,0.078,0.427c0.053,0.118,0.124,0.207,0.214,0.267
			c0.091,0.06,0.189,0.089,0.297,0.089c0.108,0,0.207-0.028,0.297-0.085s0.162-0.143,0.215-0.26
			c0.054-0.117,0.081-0.263,0.081-0.438c0-0.165-0.027-0.306-0.081-0.425c-0.053-0.118-0.126-0.209-0.217-0.271
			s-0.191-0.094-0.3-0.094c-0.113,0-0.214,0.032-0.303,0.097c-0.089,0.063-0.158,0.155-0.207,0.275
			C18.78,31.168,18.756,31.307,18.756,31.466z"/>
		<path fill="#FFFFFF" d="M22.866,29.737l0.751,2.224l0.754-2.239c0.039-0.118,0.068-0.2,0.088-0.246s0.052-0.087,0.098-0.124
			c0.045-0.037,0.106-0.056,0.186-0.056c0.057,0,0.11,0.015,0.159,0.043c0.049,0.029,0.088,0.066,0.115,0.114
			c0.028,0.048,0.042,0.096,0.042,0.144c0,0.033-0.005,0.069-0.014,0.107c-0.009,0.039-0.021,0.076-0.034,0.113
			s-0.026,0.075-0.04,0.114l-0.804,2.167c-0.028,0.083-0.057,0.162-0.086,0.236c-0.028,0.075-0.062,0.141-0.1,0.197
			c-0.037,0.057-0.088,0.103-0.15,0.139s-0.139,0.055-0.229,0.055c-0.09,0-0.167-0.018-0.229-0.054
			c-0.062-0.035-0.113-0.082-0.151-0.14c-0.039-0.059-0.072-0.124-0.101-0.198c-0.029-0.073-0.058-0.152-0.086-0.235l-0.79-2.148
			c-0.014-0.04-0.027-0.078-0.042-0.116c-0.014-0.037-0.026-0.078-0.036-0.122c-0.01-0.043-0.015-0.08-0.015-0.11
			c0-0.077,0.031-0.147,0.093-0.211c0.062-0.062,0.14-0.095,0.233-0.095c0.114,0,0.195,0.035,0.243,0.105
			S22.816,29.583,22.866,29.737z"/>
		<path fill="#FFFFFF" d="M27.014,31.621h-1.208c0.001,0.141,0.029,0.265,0.085,0.371c0.055,0.107,0.128,0.188,0.219,0.242
			c0.092,0.055,0.192,0.082,0.303,0.082c0.073,0,0.141-0.009,0.202-0.026c0.061-0.018,0.12-0.045,0.178-0.081
			c0.057-0.037,0.109-0.077,0.158-0.119c0.048-0.042,0.11-0.1,0.188-0.172c0.032-0.027,0.077-0.041,0.136-0.041
			c0.063,0,0.115,0.018,0.154,0.053c0.039,0.034,0.059,0.083,0.059,0.146c0,0.056-0.021,0.121-0.065,0.195
			c-0.044,0.075-0.11,0.146-0.198,0.216c-0.088,0.068-0.199,0.125-0.332,0.17c-0.134,0.046-0.287,0.068-0.461,0.068
			c-0.396,0-0.705-0.113-0.925-0.34c-0.221-0.226-0.331-0.532-0.331-0.92c0-0.183,0.027-0.353,0.082-0.508
			c0.054-0.156,0.134-0.29,0.237-0.402c0.104-0.111,0.232-0.196,0.385-0.257c0.152-0.059,0.321-0.089,0.507-0.089
			c0.241,0,0.448,0.051,0.621,0.152c0.172,0.103,0.302,0.233,0.388,0.396c0.086,0.161,0.129,0.325,0.129,0.493
			c0,0.155-0.045,0.256-0.134,0.302S27.175,31.621,27.014,31.621z M25.806,31.271h1.119c-0.015-0.211-0.071-0.369-0.17-0.474
			c-0.1-0.104-0.229-0.157-0.391-0.157c-0.154,0-0.28,0.054-0.379,0.159C25.887,30.905,25.826,31.062,25.806,31.271z"/>
		<path fill="#FFFFFF" d="M28.604,30.556v0.075c0.108-0.144,0.228-0.249,0.356-0.315c0.129-0.067,0.277-0.101,0.444-0.101
			c0.163,0,0.309,0.035,0.437,0.105c0.128,0.071,0.225,0.172,0.287,0.302c0.041,0.075,0.067,0.156,0.079,0.244
			c0.013,0.087,0.019,0.199,0.019,0.335v1.148c0,0.124-0.028,0.218-0.085,0.281c-0.057,0.062-0.13,0.095-0.221,0.095
			c-0.092,0-0.166-0.032-0.224-0.098c-0.058-0.064-0.086-0.157-0.086-0.278V31.32c0-0.203-0.028-0.359-0.085-0.467
			s-0.169-0.162-0.338-0.162c-0.11,0-0.211,0.033-0.301,0.099c-0.091,0.065-0.157,0.156-0.199,0.271
			c-0.03,0.092-0.046,0.264-0.046,0.516v0.773c0,0.126-0.028,0.22-0.087,0.282c-0.058,0.062-0.133,0.094-0.225,0.094
			c-0.089,0-0.162-0.032-0.22-0.098c-0.058-0.064-0.086-0.157-0.086-0.278v-1.784c0-0.118,0.025-0.206,0.077-0.264
			c0.051-0.059,0.121-0.087,0.21-0.087c0.055,0,0.104,0.013,0.147,0.038s0.079,0.064,0.105,0.115
			C28.591,30.42,28.604,30.482,28.604,30.556z"/>
		<path fill="#FFFFFF" d="M32.533,32.373v-0.062c-0.083,0.095-0.164,0.172-0.245,0.231s-0.168,0.105-0.263,0.136
			c-0.094,0.031-0.197,0.047-0.309,0.047c-0.147,0-0.284-0.031-0.41-0.094s-0.235-0.152-0.327-0.269s-0.162-0.252-0.209-0.409
			c-0.048-0.157-0.071-0.326-0.071-0.509c0-0.387,0.094-0.688,0.282-0.902c0.188-0.216,0.437-0.324,0.744-0.324
			c0.179,0,0.328,0.031,0.45,0.092c0.122,0.062,0.241,0.155,0.357,0.281v-0.911c0-0.127,0.025-0.223,0.076-0.287
			c0.051-0.065,0.122-0.098,0.216-0.098s0.166,0.03,0.216,0.09c0.051,0.06,0.076,0.147,0.076,0.264v2.724
			c0,0.117-0.027,0.205-0.081,0.265c-0.055,0.059-0.125,0.088-0.211,0.088c-0.084,0-0.154-0.03-0.209-0.092
			C32.562,32.573,32.533,32.485,32.533,32.373z M31.318,31.466c0,0.167,0.026,0.31,0.078,0.427c0.053,0.118,0.124,0.207,0.214,0.267
			c0.091,0.06,0.189,0.089,0.297,0.089c0.108,0,0.207-0.028,0.297-0.085s0.162-0.143,0.215-0.26
			c0.054-0.117,0.081-0.263,0.081-0.438c0-0.165-0.027-0.306-0.081-0.425c-0.053-0.118-0.126-0.209-0.217-0.271
			s-0.191-0.094-0.3-0.094c-0.113,0-0.214,0.032-0.303,0.097c-0.089,0.063-0.158,0.155-0.207,0.275
			C31.343,31.168,31.318,31.307,31.318,31.466z"/>
		<path fill="#FFFFFF" d="M34.35,31.834v0.516c0,0.126-0.029,0.22-0.088,0.282s-0.134,0.094-0.224,0.094
			c-0.089,0-0.162-0.032-0.22-0.095c-0.058-0.063-0.086-0.157-0.086-0.281v-1.719c0-0.277,0.101-0.416,0.301-0.416
			c0.103,0,0.177,0.032,0.222,0.097c0.045,0.065,0.07,0.161,0.075,0.287c0.073-0.126,0.149-0.222,0.227-0.287
			c0.078-0.064,0.182-0.097,0.312-0.097s0.256,0.032,0.378,0.097c0.122,0.065,0.183,0.151,0.183,0.258
			c0,0.076-0.025,0.138-0.078,0.187c-0.052,0.05-0.107,0.074-0.168,0.074c-0.022,0-0.077-0.015-0.164-0.042
			c-0.087-0.028-0.163-0.042-0.229-0.042c-0.091,0-0.165,0.023-0.222,0.071c-0.058,0.048-0.102,0.118-0.134,0.212
			c-0.031,0.093-0.054,0.204-0.065,0.333S34.35,31.648,34.35,31.834z"/>
		<path fill="#FFFFFF" d="M37.901,31.47c0,0.185-0.028,0.354-0.086,0.509c-0.058,0.156-0.141,0.289-0.249,0.4
			c-0.108,0.112-0.238,0.197-0.389,0.257c-0.151,0.06-0.32,0.09-0.509,0.09c-0.188,0-0.355-0.03-0.505-0.091
			c-0.149-0.06-0.278-0.146-0.388-0.259s-0.192-0.245-0.249-0.398c-0.057-0.152-0.085-0.322-0.085-0.508
			c0-0.187,0.028-0.357,0.086-0.514c0.058-0.155,0.14-0.288,0.247-0.397c0.106-0.11,0.236-0.195,0.389-0.255s0.32-0.089,0.505-0.089
			c0.187,0,0.356,0.03,0.509,0.09c0.152,0.061,0.282,0.146,0.392,0.258c0.108,0.112,0.19,0.245,0.247,0.398
			C37.873,31.115,37.901,31.284,37.901,31.47z M37.281,31.47c0-0.252-0.055-0.447-0.166-0.588c-0.11-0.141-0.26-0.21-0.446-0.21
			c-0.121,0-0.228,0.031-0.319,0.094s-0.163,0.154-0.213,0.276c-0.05,0.123-0.074,0.265-0.074,0.428
			c0,0.162,0.024,0.303,0.073,0.423c0.049,0.121,0.119,0.214,0.21,0.277c0.092,0.064,0.199,0.097,0.323,0.097
			c0.187,0,0.336-0.071,0.446-0.212C37.227,31.914,37.281,31.719,37.281,31.47z"/>
		<path fill="#FFFFFF" d="M38.771,30.599l0.403,1.38l0.366-1.282c0.039-0.134,0.068-0.226,0.087-0.274
			c0.02-0.05,0.055-0.096,0.106-0.141s0.123-0.066,0.214-0.066c0.092,0,0.164,0.021,0.216,0.066s0.089,0.093,0.11,0.145
			c0.021,0.052,0.05,0.143,0.088,0.271l0.366,1.282l0.407-1.38c0.027-0.099,0.049-0.171,0.065-0.216
			c0.017-0.044,0.045-0.084,0.084-0.117c0.039-0.034,0.096-0.051,0.17-0.051c0.073,0,0.138,0.025,0.192,0.076
			c0.054,0.052,0.081,0.112,0.081,0.182c0,0.063-0.023,0.159-0.07,0.287l-0.504,1.479c-0.044,0.125-0.078,0.216-0.103,0.271
			c-0.023,0.056-0.062,0.105-0.114,0.149c-0.052,0.044-0.123,0.065-0.213,0.065c-0.094,0-0.168-0.023-0.221-0.07
			c-0.054-0.047-0.094-0.104-0.119-0.172c-0.025-0.067-0.054-0.156-0.084-0.265l-0.353-1.203l-0.342,1.203
			c-0.045,0.167-0.094,0.294-0.146,0.379s-0.146,0.128-0.278,0.128c-0.068,0-0.126-0.014-0.174-0.04
			c-0.047-0.026-0.087-0.063-0.118-0.112c-0.032-0.05-0.06-0.107-0.084-0.175s-0.043-0.12-0.057-0.159l-0.5-1.479
			c-0.05-0.139-0.074-0.234-0.074-0.287c0-0.066,0.026-0.126,0.079-0.179s0.117-0.079,0.194-0.079c0.103,0,0.172,0.028,0.208,0.087
			C38.692,30.359,38.731,30.459,38.771,30.599z"/>
	</g>
</g>
</svg>
