<?xml version="1.0" encoding="utf-8"?>
<!-- Generator: Adobe Illustrator 15.0.2, SVG Export Plug-In . SVG Version: 6.00 Build 0)  -->
<!DOCTYPE svg PUBLIC "-//W3C//DTD SVG 1.1//EN" "http://www.w3.org/Graphics/SVG/1.1/DTD/svg11.dtd">
<svg version="1.1" id="Layer_1" xmlns="http://www.w3.org/2000/svg" xmlns:xlink="http://www.w3.org/1999/xlink" x="0px" y="0px"
	 width="90.176px" height="50.953px" viewBox="0 0 90.176 50.953" enable-background="new 0 0 90.176 50.953" xml:space="preserve">
<g>
	<g>
		<g>
			<path fill="#F29107" d="M90.176,14.296c0,1.727-1.412,3.139-3.14,3.139H6.519c-1.727,0-3.139-1.412-3.139-3.139V3.139
				C3.38,1.41,4.792,0,6.519,0h80.518c1.728,0,3.14,1.41,3.14,3.139V14.296z"/>
		</g>
		<polygon fill="#F29107" points="44.342,16.355 52.301,16.355 54.679,25.772 		"/>
	</g>
	
		<radialGradient id="SVGID_1_" cx="-62.6855" cy="4954.8789" r="39.9382" gradientTransform="matrix(0.4097 0 0 0.0996 85.8747 -446.9653)" gradientUnits="userSpaceOnUse">
		<stop  offset="0" style="stop-color:#5F564A"/>
		<stop  offset="0.0287" style="stop-color:#75695A"/>
		<stop  offset="0.0884" style="stop-color:#A1917C"/>
		<stop  offset="0.1473" style="stop-color:#C7B59B"/>
		<stop  offset="0.2042" style="stop-color:#E5D1B3"/>
		<stop  offset="0.2583" style="stop-color:#F8E3C2"/>
		<stop  offset="0.3067" style="stop-color:#FFE9C7"/>
		<stop  offset="0.3343" style="stop-color:#FFEBCC"/>
		<stop  offset="0.4949" style="stop-color:#FFF4E3"/>
		<stop  offset="0.6584" style="stop-color:#FFFAF3"/>
		<stop  offset="0.8252" style="stop-color:#FFFEFC"/>
		<stop  offset="1" style="stop-color:#FFFFFF"/>
	</radialGradient>
	<ellipse fill="url(#SVGID_1_)" cx="60.192" cy="46.555" rx="16.629" ry="4.398"/>
	
		<radialGradient id="SVGID_2_" cx="-169.0166" cy="4952.9395" r="39.9388" gradientTransform="matrix(0.4097 0 0 0.0996 85.8747 -448.0659)" gradientUnits="userSpaceOnUse">
		<stop  offset="0" style="stop-color:#7EABCE"/>
		<stop  offset="0.1505" style="stop-color:#AECDE6"/>
		<stop  offset="0.3067" style="stop-color:#DAEFFD"/>
		<stop  offset="0.3892" style="stop-color:#E3F3FE"/>
		<stop  offset="0.5865" style="stop-color:#F3FAFF"/>
		<stop  offset="0.7883" style="stop-color:#FCFEFF"/>
		<stop  offset="1" style="stop-color:#FFFFFF"/>
	</radialGradient>
	<ellipse fill="url(#SVGID_2_)" cx="16.629" cy="45.264" rx="16.629" ry="4.396"/>
	<g>
		<g>
			
				<path fill="#FFFFFF" stroke="#1E1E1C" stroke-width="0.4414" stroke-linecap="round" stroke-linejoin="round" stroke-miterlimit="10" d="
				M18.392,25.381c0,2.248-1.819,4.068-4.065,4.068s-4.066-1.82-4.066-4.068c0-2.244,1.82-4.064,4.066-4.064
				S18.392,23.137,18.392,25.381z"/>
			<path fill="#1E1E1C" d="M16.629,22.032c-0.656-0.448-1.447-0.717-2.303-0.717c-2.246,0-4.066,1.821-4.066,4.065
				c0,0.178,0.015,0.349,0.036,0.52c1.205-0.258,2.604-0.868,3.965-1.801C15.197,23.461,15.998,22.75,16.629,22.032z"/>
			
				<rect x="10.42" y="22.003" transform="matrix(0.8017 0.5977 -0.5977 0.8017 15.6381 -1.9991)" fill="none" stroke="#1E1E1C" stroke-width="0.3766" stroke-linecap="round" stroke-linejoin="round" stroke-miterlimit="10" width="0.823" height="1.132"/>
			<path fill="#1E1E1C" d="M8.953,27.877c0.049-3.221-1.887-4.207-1.578-6.239c0.303-2.009,3.457-1.826,3.465,0.229
				c-0.387,0.521-0.676,0.909-0.676,0.909s-1.127-0.426-0.98,0.721C9.362,24.881,9.413,25.901,8.953,27.877z"/>
			<ellipse fill="#1E1E1C" cx="17.182" cy="24.822" rx="0.276" ry="0.459"/>
			<ellipse fill="#1E1E1C" cx="15.657" cy="25.901" rx="0.327" ry="0.472"/>
			<path fill="#1E1E1C" d="M17.619,26.664c0,0-0.438,1.504-1.308,0.971"/>
			
				<rect x="11.969" y="25.694" transform="matrix(0.9232 -0.3843 0.3843 0.9232 -9.5494 7.155)" fill="#FFFFFF" stroke="#1E1E1C" stroke-width="0.4414" stroke-linecap="round" stroke-linejoin="round" stroke-miterlimit="10" width="2.323" height="3.562"/>
			<g>
				<polyline fill="none" stroke="#1E1E1C" stroke-width="0.4414" stroke-linecap="round" stroke-linejoin="round" points="
					12.776,27.473 11.081,33.141 13.444,31.057 				"/>
			</g>
			
				<polyline fill="none" stroke="#1E1E1C" stroke-width="0.4414" stroke-linecap="round" stroke-linejoin="round" stroke-miterlimit="10" points="
				18.392,34.978 19.918,31.754 17.459,30.711 			"/>
			
				<path fill="none" stroke="#1E1E1C" stroke-width="0.4414" stroke-linecap="round" stroke-linejoin="round" stroke-miterlimit="10" d="
				M14.291,40.438c0,0.104-0.354,2.603-0.551,3.987c-0.078,0.535-1.025,0.791-1.025,0.791"/>
			
				<path fill="none" stroke="#1E1E1C" stroke-width="0.4414" stroke-linecap="round" stroke-linejoin="round" stroke-miterlimit="10" d="
				M16.97,40.438c0,0.104,0.111,2.646,0.172,4.022c0.023,0.519,1.058,0.369,1.058,0.369"/>
			<polygon fill="#1C99CE" points="18.449,39.588 12.867,39.588 14.326,30.37 16.595,30.37 			"/>
		</g>
	</g>
	<path fill="#F29107" d="M42.412,15.521"/>
	<g>
		<g>
			
				<polygon fill="#FFFFFF" stroke="#1E1E1C" stroke-width="0.4721" stroke-linecap="round" stroke-linejoin="round" stroke-miterlimit="10" points="
				59.683,35.514 55.241,33.168 55.474,26.881 60.545,28.592 			"/>
			<polygon fill="#1E1E1C" points="57.127,30.1 56.043,29.705 56.327,29.383 57.006,29.725 			"/>
			<polygon fill="#1E1E1C" points="59.147,30.995 57.979,30.495 58.211,30.188 59.011,30.532 			"/>
			<polygon fill="#1E1E1C" points="57.739,32.516 56.905,32.223 56.614,31.348 58.553,32.414 			"/>
			
				<polygon fill="#FFFFFF" stroke="#1E1E1C" stroke-width="0.4721" stroke-linecap="round" stroke-linejoin="round" stroke-miterlimit="10" points="
				60.545,28.592 55.474,26.881 60.112,27.084 64.142,28.592 			"/>
			
				<polygon fill="#FFFFFF" stroke="#1E1E1C" stroke-width="0.4721" stroke-linecap="round" stroke-linejoin="round" stroke-miterlimit="10" points="
				63.239,34.623 59.683,35.514 60.51,28.592 64.142,28.592 			"/>
			
				<path fill="none" stroke="#1E1E1C" stroke-width="0.4721" stroke-linecap="round" stroke-linejoin="round" stroke-miterlimit="10" d="
				M52.247,38.243c0,0,2.175,3.062,4.132,0.041"/>
			
				<path fill="none" stroke="#1E1E1C" stroke-width="0.4721" stroke-linecap="round" stroke-linejoin="round" stroke-miterlimit="10" d="
				M63.974,37.707c0,0,1.834,0.463-1.918,3.102"/>
			
				<ellipse transform="matrix(-0.9243 -0.3817 0.3817 -0.9243 106.7343 86.1346)" fill="#1E1E1C" cx="61.909" cy="32.482" rx="1.177" ry="1.612"/>
			
				<path fill="none" stroke="#1E1E1C" stroke-width="0.2361" stroke-linecap="round" stroke-linejoin="round" stroke-miterlimit="10" d="
				M57.463,26.858c0.549-1.216,1.455-2.009,2.479-2.009c1.676,0,3.031,2.128,3.031,4.753c0,1.233-0.299,2.358-0.793,3.202"/>
			
				<path fill="none" stroke="#1E1E1C" stroke-width="0.4721" stroke-linecap="round" stroke-linejoin="round" stroke-miterlimit="10" d="
				M62.181,32.805"/>
			
				<path fill="none" stroke="#1E1E1C" stroke-width="0.9443" stroke-linecap="round" stroke-linejoin="round" stroke-miterlimit="10" d="
				M58.651,25.299c1.076-0.619,2.365-0.449,3.258,0.688"/>
			<path fill="#1E1E1C" d="M55.94,35.207c-0.24,0.285-0.746,0.26-1.135-0.062c-0.383-0.318-0.504-0.812-0.266-1.102
				c0.24-0.289,0.748-0.266,1.135,0.061C56.063,34.424,56.181,34.916,55.94,35.207z"/>
			
				<ellipse transform="matrix(-0.9241 -0.3821 0.3821 -0.9241 107.1339 86.5607)" fill="#FFFFFF" cx="62.161" cy="32.644" rx="0.519" ry="0.796"/>
			
				<path fill="none" stroke="#1E1E1C" stroke-width="0.2361" stroke-linecap="round" stroke-linejoin="round" stroke-miterlimit="10" d="
				M62.267,32.684c-1.111,1.595-3.793,4.222-7.025,1.939"/>
			<text transform="matrix(1 0 0 1 58.1523 39.4219)" fill="#1E1E1C" font-family="'ArialRoundedMTBold'" font-size="1.7676">AR-1</text>
			<g>
				<path fill="none" stroke="#1E1E1C" stroke-width="0.5204" stroke-miterlimit="10" d="M62.651,41.682
					c-0.074,0.562-0.6,1.023-1.168,1.023h-2.496c-0.567,0-1.11-0.457-1.207-1.019l-0.729-4.253
					c-0.098-0.559,0.291-1.018,0.857-1.018h4.402c0.567,0,0.973,0.461,0.897,1.022L62.651,41.682z"/>
			</g>
			<g>
				<path fill="#FFFFFF" d="M62.295,45.659c-0.179-0.452-0.787-0.825-1.354-0.825h-1.464c-0.567,0-1.221,0.373-1.448,0.825
					c-0.228,0.454,0.049,0.826,0.616,0.826h2.938C62.151,46.485,62.472,46.113,62.295,45.659z"/>
				<path fill="none" stroke="#1E1E1C" stroke-width="0.5204" stroke-miterlimit="10" d="M62.295,45.659
					c-0.179-0.452-0.787-0.825-1.354-0.825h-1.464c-0.567,0-1.221,0.373-1.448,0.825c-0.228,0.454,0.049,0.826,0.616,0.826h2.938
					C62.151,46.485,62.472,46.113,62.295,45.659z"/>
			</g>
			
				<rect x="59.683" y="42.707" fill="#FFFFFF" stroke="#1E1E1C" stroke-width="0.5204" stroke-miterlimit="10" width="0.861" height="2.127"/>
			
				<path fill="none" stroke="#1E1E1C" stroke-width="0.4721" stroke-linecap="round" stroke-linejoin="round" stroke-miterlimit="10" d="
				M61.056,40.534c0.438-0.157,0.887-0.036,1,0.272c0.115,0.312-0.148,0.695-0.588,0.855"/>
		</g>
	</g>
	<g>
		<path fill="#1E1E1C" d="M54.084,35.807l-7.369-3.739c-0.199-0.103-0.445-0.021-0.547,0.183l-1.943,3.83
			c-0.102,0.2-0.021,0.444,0.179,0.547l7.365,3.739c0.201,0.101,0.445,0.021,0.551-0.18l1.941-3.83
			C54.362,36.153,54.282,35.909,54.084,35.807z"/>
		<path fill="#FFFFFF" d="M51.995,39.698c-0.045,0.091-0.157,0.127-0.248,0.082l-6.854-3.479c-0.092-0.045-0.129-0.158-0.082-0.25
			l1.683-3.312c0.045-0.092,0.158-0.125,0.25-0.08l6.854,3.479c0.092,0.047,0.129,0.158,0.082,0.248L51.995,39.698z"/>
		<path fill="#1E1E1C" d="M51.36,35.84c-0.631-0.319-1.399-0.067-1.721,0.562c-0.15,0.293-0.174,0.615-0.096,0.91l-1.365-0.693
			c0.283-0.107,0.527-0.318,0.68-0.611c0.318-0.631,0.068-1.4-0.562-1.725c-0.632-0.316-1.402-0.066-1.722,0.564
			c-0.315,0.617-0.078,1.373,0.529,1.701l-0.002,0.002l3.17,1.607l0.002-0.004c0.615,0.268,1.34,0.014,1.65-0.596
			C52.243,36.932,51.991,36.159,51.36,35.84z M47.37,36.108c-0.377-0.19-0.526-0.651-0.336-1.028
			c0.191-0.38,0.652-0.529,1.031-0.337c0.377,0.188,0.527,0.649,0.334,1.029C48.211,36.149,47.747,36.299,47.37,36.108z
			 M50.438,37.666c-0.379-0.191-0.529-0.652-0.34-1.029c0.191-0.379,0.654-0.529,1.033-0.338c0.377,0.191,0.525,0.65,0.336,1.031
			C51.274,37.707,50.813,37.856,50.438,37.666z"/>
	</g>
</g>
</svg>
