<?xml version="1.0" encoding="utf-8"?>
<!-- Generator: Adobe Illustrator 15.0.0, SVG Export Plug-In . SVG Version: 6.00 Build 0)  -->
<!DOCTYPE svg PUBLIC "-//W3C//DTD SVG 1.1//EN" "http://www.w3.org/Graphics/SVG/1.1/DTD/svg11.dtd">
<svg version="1.1" id="Layer_1" xmlns="http://www.w3.org/2000/svg" xmlns:xlink="http://www.w3.org/1999/xlink" x="0px" y="0px"
	 width="56.25px" height="33.75px" viewBox="0 0 56.25 33.75" enable-background="new 0 0 56.25 33.75" xml:space="preserve">
<g>
	<g>
		
			<radialGradient id="SVGID_1_" cx="-1212.7871" cy="-455.3257" r="36.5037" gradientTransform="matrix(0.4097 0 0 0.0996 515.7511 73.3589)" gradientUnits="userSpaceOnUse">
			<stop  offset="0" style="stop-color:#7EABCE"/>
			<stop  offset="0.1505" style="stop-color:#AECDE6"/>
			<stop  offset="0.3067" style="stop-color:#DAEFFD"/>
			<stop  offset="0.3892" style="stop-color:#E3F3FE"/>
			<stop  offset="0.5865" style="stop-color:#F3FAFF"/>
			<stop  offset="0.7883" style="stop-color:#FCFEFF"/>
			<stop  offset="1" style="stop-color:#FFFFFF"/>
		</radialGradient>
		<ellipse fill="url(#SVGID_1_)" cx="18.872" cy="28.023" rx="15.198" ry="4.021"/>
		<g>
			<g>
				
					<circle fill="#FFFFFF" stroke="#1E1E1C" stroke-width="0.4315" stroke-linecap="round" stroke-linejoin="round" stroke-miterlimit="10" cx="17.873" cy="8.389" r="3.975"/>
				<path fill="#1E1E1C" d="M20.125,5.114c-0.641-0.44-1.418-0.702-2.252-0.702c-2.197,0-3.975,1.781-3.975,3.978
					c0,0.172,0.014,0.34,0.035,0.505c1.178-0.25,2.545-0.847,3.877-1.757C18.725,6.51,19.51,5.815,20.125,5.114z"/>
				
					<polygon fill="none" stroke="#1E1E1C" stroke-width="0.3682" stroke-linecap="round" stroke-linejoin="round" stroke-miterlimit="10" points="
					14.449,6.322 13.807,5.845 14.463,4.954 15.111,5.431 				"/>
				<path fill="#1E1E1C" d="M12.619,10.828c0.049-3.148-1.844-4.115-1.541-6.102c0.295-1.962,3.383-1.784,3.385,0.228
					c-0.379,0.508-0.656,0.892-0.656,0.892s-1.104-0.419-0.959,0.7C13.02,7.898,13.068,8.894,12.619,10.828z"/>
				<ellipse fill="#1E1E1C" cx="20.666" cy="7.839" rx="0.271" ry="0.45"/>
				<ellipse fill="#1E1E1C" cx="19.175" cy="8.894" rx="0.319" ry="0.462"/>
				<path fill="#1E1E1C" d="M21.09,9.639c0,0-0.424,1.472-1.275,0.951"/>
				
					<rect x="15.567" y="8.692" transform="matrix(0.9235 -0.3835 0.3835 0.9235 -2.7239 7.2037)" fill="#FFFFFF" stroke="#1E1E1C" stroke-width="0.4315" stroke-linecap="round" stroke-linejoin="round" stroke-miterlimit="10" width="2.271" height="3.48"/>
				<g>
					<polyline fill="none" stroke="#1E1E1C" stroke-width="0.4315" stroke-linecap="round" stroke-linejoin="round" points="
						16.355,10.434 14.463,16.764 17.012,13.936 					"/>
				</g>
				
					<polyline fill="none" stroke="#1E1E1C" stroke-width="0.4315" stroke-linecap="round" stroke-linejoin="round" stroke-miterlimit="10" points="
					26.426,12.685 23.531,15.974 20.938,13.599 				"/>
				
					<path fill="none" stroke="#1E1E1C" stroke-width="0.4315" stroke-linecap="round" stroke-linejoin="round" stroke-miterlimit="10" d="
					M17.838,23.107c0,0.141-0.666,4.783-0.666,4.783"/>
				
					<path fill="none" stroke="#1E1E1C" stroke-width="0.4315" stroke-linecap="round" stroke-linejoin="round" stroke-miterlimit="10" d="
					M20.457,23.107c0,0.141,0.209,4.783,0.209,4.783"/>
				<polygon fill="#1C99CE" points="21.904,22.275 16.445,22.275 17.873,13.263 20.092,13.263 				"/>
			</g>
		</g>
	</g>
	<g>
		<g>
			<path fill="#1E1E1C" d="M38.234,26.254c0,0.137-0.033,0.285-0.102,0.445c-0.066,0.16-0.174,0.316-0.318,0.471
				s-0.33,0.277-0.555,0.375c-0.227,0.096-0.488,0.143-0.789,0.143c-0.227,0-0.434-0.021-0.619-0.064
				c-0.188-0.043-0.355-0.109-0.508-0.201c-0.152-0.09-0.291-0.211-0.418-0.359c-0.115-0.135-0.211-0.287-0.291-0.455
				s-0.141-0.346-0.182-0.535c-0.039-0.191-0.061-0.393-0.061-0.605c0-0.348,0.051-0.658,0.152-0.934
				c0.1-0.273,0.244-0.508,0.434-0.703c0.188-0.195,0.408-0.344,0.66-0.445c0.254-0.102,0.523-0.152,0.809-0.152
				c0.35,0,0.66,0.068,0.932,0.209c0.273,0.139,0.482,0.311,0.627,0.516s0.217,0.398,0.217,0.58c0,0.1-0.035,0.188-0.105,0.264
				c-0.07,0.078-0.156,0.115-0.256,0.115c-0.111,0-0.195-0.025-0.25-0.08c-0.057-0.053-0.119-0.143-0.188-0.273
				c-0.113-0.213-0.248-0.373-0.4-0.479c-0.154-0.105-0.344-0.158-0.57-0.158c-0.357,0-0.645,0.137-0.855,0.408
				c-0.213,0.273-0.32,0.66-0.32,1.162c0,0.334,0.047,0.613,0.143,0.836c0.094,0.223,0.227,0.389,0.398,0.498
				c0.174,0.109,0.375,0.164,0.605,0.164c0.252,0,0.463-0.062,0.637-0.186c0.174-0.125,0.305-0.309,0.393-0.549
				c0.037-0.113,0.084-0.207,0.139-0.277c0.055-0.072,0.143-0.107,0.264-0.107c0.104,0,0.193,0.035,0.268,0.107
				C38.197,26.057,38.234,26.146,38.234,26.254z"/>
			<path fill="#1E1E1C" d="M40.992,27.236c-0.193,0.15-0.381,0.264-0.562,0.338c-0.182,0.076-0.385,0.113-0.611,0.113
				c-0.205,0-0.385-0.039-0.541-0.121s-0.275-0.191-0.361-0.33c-0.084-0.141-0.125-0.291-0.125-0.453
				c0-0.221,0.068-0.406,0.209-0.562c0.139-0.154,0.33-0.258,0.572-0.311c0.051-0.012,0.178-0.039,0.379-0.08
				s0.375-0.078,0.52-0.113c0.145-0.033,0.301-0.076,0.469-0.125c-0.01-0.211-0.053-0.367-0.129-0.465
				c-0.074-0.1-0.23-0.148-0.469-0.148c-0.203,0-0.357,0.027-0.459,0.084c-0.104,0.057-0.191,0.143-0.266,0.256
				c-0.072,0.113-0.125,0.189-0.154,0.225c-0.031,0.037-0.096,0.055-0.197,0.055c-0.09,0-0.168-0.029-0.232-0.086
				c-0.066-0.059-0.1-0.133-0.1-0.223c0-0.141,0.051-0.277,0.15-0.41c0.1-0.135,0.256-0.244,0.467-0.33
				c0.213-0.086,0.477-0.129,0.791-0.129c0.354,0,0.631,0.041,0.832,0.125c0.203,0.082,0.346,0.215,0.428,0.395
				c0.084,0.18,0.125,0.42,0.125,0.717c0,0.189,0,0.348-0.002,0.48c0,0.131-0.002,0.277-0.004,0.438c0,0.15,0.025,0.309,0.076,0.473
				c0.049,0.162,0.074,0.268,0.074,0.314c0,0.082-0.039,0.158-0.115,0.225c-0.078,0.068-0.166,0.102-0.264,0.102
				c-0.082,0-0.164-0.037-0.244-0.115S41.082,27.383,40.992,27.236z M40.939,26.074c-0.117,0.043-0.289,0.09-0.514,0.137
				c-0.225,0.049-0.379,0.084-0.465,0.105c-0.086,0.023-0.17,0.066-0.248,0.133s-0.117,0.158-0.117,0.275
				c0,0.121,0.047,0.225,0.139,0.309c0.092,0.086,0.213,0.129,0.361,0.129c0.158,0,0.305-0.035,0.439-0.104
				c0.135-0.07,0.232-0.16,0.295-0.27c0.072-0.121,0.109-0.322,0.109-0.6V26.074z"/>
			<path fill="#1E1E1C" d="M42.541,27.201v-3.48c0-0.162,0.037-0.283,0.107-0.365c0.072-0.082,0.168-0.123,0.291-0.123
				c0.121,0,0.219,0.041,0.293,0.121c0.074,0.082,0.111,0.203,0.111,0.367v3.48c0,0.162-0.037,0.283-0.113,0.365
				c-0.074,0.082-0.172,0.121-0.291,0.121s-0.213-0.041-0.287-0.125S42.541,27.357,42.541,27.201z"/>
			<path fill="#1E1E1C" d="M44.172,27.201v-3.48c0-0.162,0.037-0.283,0.107-0.365c0.072-0.082,0.168-0.123,0.291-0.123
				c0.121,0,0.219,0.041,0.293,0.121c0.074,0.082,0.111,0.203,0.111,0.367v3.48c0,0.162-0.037,0.283-0.113,0.365
				c-0.074,0.082-0.172,0.121-0.291,0.121s-0.213-0.041-0.287-0.125S44.172,27.357,44.172,27.201z"/>
			<path fill="#1E1E1C" d="M48.045,26.254h-1.57c0.002,0.182,0.039,0.344,0.111,0.482c0.07,0.139,0.166,0.244,0.285,0.314
				c0.117,0.07,0.248,0.105,0.391,0.105c0.098,0,0.186-0.012,0.264-0.033c0.08-0.023,0.156-0.059,0.23-0.107
				c0.074-0.047,0.145-0.098,0.207-0.154c0.062-0.055,0.143-0.129,0.244-0.223c0.041-0.035,0.1-0.053,0.176-0.053
				c0.082,0,0.148,0.023,0.199,0.068s0.076,0.107,0.076,0.189c0,0.074-0.027,0.158-0.084,0.256
				c-0.057,0.096-0.143,0.189-0.258,0.279c-0.115,0.088-0.258,0.162-0.432,0.221s-0.373,0.088-0.598,0.088
				c-0.516,0-0.918-0.146-1.203-0.439c-0.287-0.295-0.43-0.693-0.43-1.197c0-0.236,0.035-0.457,0.105-0.66
				c0.072-0.203,0.174-0.377,0.309-0.521c0.137-0.145,0.303-0.256,0.5-0.334c0.199-0.076,0.418-0.115,0.658-0.115
				c0.314,0,0.584,0.066,0.809,0.197c0.223,0.133,0.391,0.305,0.504,0.514c0.111,0.209,0.166,0.424,0.166,0.641
				c0,0.201-0.057,0.332-0.172,0.393C48.416,26.225,48.254,26.254,48.045,26.254z M46.475,25.799h1.455
				c-0.02-0.275-0.094-0.48-0.223-0.617c-0.127-0.135-0.297-0.203-0.506-0.203c-0.199,0-0.365,0.068-0.492,0.207
				C46.58,25.324,46.502,25.527,46.475,25.799z"/>
			<path fill="#1E1E1C" d="M50.178,26.529v0.672c0,0.162-0.037,0.283-0.113,0.365s-0.174,0.121-0.291,0.121
				s-0.211-0.041-0.285-0.123s-0.113-0.203-0.113-0.363v-2.234c0-0.361,0.131-0.541,0.393-0.541c0.133,0,0.229,0.041,0.287,0.125
				c0.059,0.086,0.092,0.209,0.098,0.375c0.096-0.166,0.193-0.289,0.295-0.375c0.102-0.084,0.236-0.125,0.404-0.125
				s0.332,0.041,0.49,0.125c0.16,0.086,0.238,0.197,0.238,0.336c0,0.098-0.033,0.18-0.102,0.242
				c-0.066,0.064-0.141,0.096-0.219,0.096c-0.029,0-0.1-0.018-0.213-0.055c-0.113-0.035-0.213-0.055-0.299-0.055
				c-0.117,0-0.213,0.031-0.287,0.094c-0.074,0.061-0.133,0.152-0.174,0.275c-0.041,0.121-0.07,0.266-0.086,0.434
				C50.186,26.084,50.178,26.289,50.178,26.529z"/>
		</g>
		<g>
			
				<path fill="none" stroke="#1E1E1C" stroke-width="0.7232" stroke-linecap="round" stroke-linejoin="round" stroke-miterlimit="10" d="
				M33.043,11.161c0,0,9.072-0.766,9.047,8.507"/>
			
				<path fill="none" stroke="#1E1E1C" stroke-width="0.7232" stroke-linecap="round" stroke-linejoin="round" stroke-miterlimit="10" d="
				M35.562,10.145c-0.234,0.131-2.519,1.016-2.519,1.016l2.387,1.306"/>
		</g>
	</g>
</g>
</svg>
