<?xml version="1.0" encoding="utf-8"?>
<!-- Generator: Adobe Illustrator 15.0.0, SVG Export Plug-In . SVG Version: 6.00 Build 0)  -->
<!DOCTYPE svg PUBLIC "-//W3C//DTD SVG 1.1//EN" "http://www.w3.org/Graphics/SVG/1.1/DTD/svg11.dtd">
<svg version="1.1" id="Layer_1" xmlns="http://www.w3.org/2000/svg" xmlns:xlink="http://www.w3.org/1999/xlink" x="0px" y="0px"
	 width="56.25px" height="33.75px" viewBox="0 0 56.25 33.75" enable-background="new 0 0 56.25 33.75" xml:space="preserve">
<g>
	
		<radialGradient id="SVGID_1_" cx="-1181.0391" cy="-455.207" r="39.9382" gradientTransform="matrix(0.4097 0 0 0.0996 515.7511 73.4263)" gradientUnits="userSpaceOnUse">
		<stop  offset="0" style="stop-color:#60605F"/>
		<stop  offset="0.0508" style="stop-color:#7D7C7C"/>
		<stop  offset="0.1194" style="stop-color:#A2A0A0"/>
		<stop  offset="0.1862" style="stop-color:#BFBEBD"/>
		<stop  offset="0.2498" style="stop-color:#D0D0D0"/>
		<stop  offset="0.3067" style="stop-color:#D7D7D7"/>
		<stop  offset="0.3727" style="stop-color:#DEDDDD"/>
		<stop  offset="0.5754" style="stop-color:#EEEEEE"/>
		<stop  offset="0.7827" style="stop-color:#F8F8F8"/>
		<stop  offset="1" style="stop-color:#FBFBFB"/>
	</radialGradient>
	<ellipse fill="url(#SVGID_1_)" cx="31.879" cy="28.104" rx="16.629" ry="4.397"/>
	<g>
		<g>
			<g>
				
					<rect x="12.676" y="18.918" fill="none" stroke="#1E1E1C" stroke-width="0.2642" stroke-miterlimit="10" width="8.015" height="5.674"/>
				
					<rect x="7.742" y="18.746" fill="none" stroke="#1E1E1C" stroke-width="0.2642" stroke-miterlimit="10" width="3.769" height="8.02"/>
				
					<rect x="16.199" y="24.592" fill="none" stroke="#1E1E1C" stroke-width="0.2642" stroke-miterlimit="10" width="0.97" height="1.143"/>
				
					<rect x="15.208" y="25.734" fill="none" stroke="#1E1E1C" stroke-width="0.2642" stroke-miterlimit="10" width="2.95" height="0.5"/>
				
					<rect x="13.195" y="19.415" fill="none" stroke="#1E1E1C" stroke-width="0.2642" stroke-miterlimit="10" width="6.967" height="4.591"/>
				<rect x="8.207" y="19.275" fill="#1E1E1C" width="2.775" height="0.825"/>
				<rect x="8.207" y="20.43" fill="#1E1E1C" width="2.775" height="0.744"/>
				<circle fill="#1E1E1C" cx="10.696" cy="21.807" r="0.259"/>
			</g>
			<g>
				
					<circle fill="#FFFFFF" stroke="#1E1E1C" stroke-width="0.5049" stroke-linecap="round" stroke-linejoin="round" stroke-miterlimit="10" cx="31.881" cy="5.9" r="4.651"/>
				<path fill="#1E1E1C" d="M27.492,4.356c0.533-1.423,1.604-2.309,2.498-2.705c2.346-1.045,5.096,0.012,6.141,2.36
					c0.082,0.183,0.145,0.368,0.201,0.557c-1.379,0.292-3.201,0.776-5.48,0.093C28.926,4.084,28.275,4.277,27.492,4.356z"/>
				
					<ellipse transform="matrix(-0.9139 0.406 -0.406 -0.9139 57.4994 1.0837)" fill="#1E1E1C" cx="28.635" cy="6.641" rx="0.316" ry="0.526"/>
				
					<ellipse transform="matrix(-0.9125 0.4091 -0.4091 -0.9125 61.6565 0.9327)" fill="#1E1E1C" cx="30.729" cy="7.06" rx="0.372" ry="0.54"/>
				<path fill="#1E1E1C" d="M29.035,8.767c0,0,1.154,1.368,1.816,0.407"/>
				
					<polygon fill="#FFFFFF" stroke="#1E1E1C" stroke-width="0.5049" stroke-linecap="round" stroke-linejoin="round" stroke-miterlimit="10" points="
					23.937,12.026 26.391,12.612 24.826,8.85 22.373,8.265 				"/>
				
					<polyline fill="none" stroke="#1E1E1C" stroke-width="0.5049" stroke-linecap="round" stroke-linejoin="round" stroke-miterlimit="10" points="
					24.857,11.401 26.967,15.458 29.246,12.355 				"/>
				<polygon fill="#9D9D9C" points="30.02,11.943 31.34,11.705 32.141,14.329 32.904,11.705 34.234,11.856 33.498,18.461 
					30.232,18.461 				"/>
				<polygon fill="#1E1E1C" points="34.621,28.104 32.58,28.104 31.879,21.682 31.346,28.104 29.139,28.104 30.539,27.409 
					30.26,19.1 33.527,19.1 33.439,27.432 				"/>
				<g>
					<polyline fill="none" stroke="#1E1E1C" stroke-width="0.5049" stroke-linecap="round" stroke-linejoin="round" points="
						27.014,11.401 30.98,14.53 33.615,12.355 					"/>
				</g>
			</g>
			<circle fill="#9D9D9C" cx="14.616" cy="9.231" r="4.255"/>
			<g>
				<path fill="#FFFFFF" d="M16.98,7.901h-4.73c-0.129,0-0.232,0.104-0.232,0.234v2.459c0,0.129,0.104,0.234,0.232,0.234h4.73
					c0.131,0,0.236-0.105,0.236-0.234V8.135C17.216,8.004,17.111,7.901,16.98,7.901z M16.924,10.428
					c0,0.061-0.048,0.107-0.106,0.107h-4.404c-0.057,0-0.105-0.047-0.105-0.107V8.299c0-0.057,0.049-0.105,0.105-0.105h4.404
					c0.059,0,0.106,0.049,0.106,0.105V10.428z"/>
				<path fill="#FFFFFF" d="M15.601,8.624c-0.406,0-0.734,0.329-0.734,0.732c0,0.189,0.072,0.359,0.188,0.492h-0.879
					c0.116-0.133,0.188-0.303,0.188-0.492c0-0.403-0.328-0.732-0.734-0.732c-0.404,0-0.732,0.329-0.732,0.732
					c0,0.398,0.316,0.723,0.713,0.733v0.001h2.035v-0.002c0.383-0.024,0.689-0.342,0.689-0.732
					C16.335,8.953,16.003,8.624,15.601,8.624z M13.63,9.795c-0.242,0-0.438-0.197-0.438-0.441c0-0.24,0.195-0.437,0.438-0.437
					c0.243,0,0.441,0.196,0.441,0.437C14.072,9.598,13.874,9.795,13.63,9.795z M15.601,9.795c-0.242,0-0.439-0.197-0.439-0.441
					c0-0.24,0.197-0.437,0.439-0.437c0.244,0,0.439,0.196,0.439,0.437C16.041,9.598,15.845,9.795,15.601,9.795z"/>
			</g>
			<circle fill="#9D9D9C" cx="20.424" cy="10.829" r="0.684"/>
			<circle fill="#9D9D9C" cx="22" cy="10.934" r="0.382"/>
			<circle fill="#9D9D9C" cx="14.616" cy="15.418" r="1.034"/>
			<circle fill="#9D9D9C" cx="14.616" cy="17.591" r="0.557"/>
		</g>
	</g>
</g>
</svg>
