<?xml version="1.0" encoding="utf-8"?>
<!-- Generator: Adobe Illustrator 15.0.0, SVG Export Plug-In . SVG Version: 6.00 Build 0)  -->
<!DOCTYPE svg PUBLIC "-//W3C//DTD SVG 1.1//EN" "http://www.w3.org/Graphics/SVG/1.1/DTD/svg11.dtd">
<svg version="1.1" id="Layer_1" xmlns="http://www.w3.org/2000/svg" xmlns:xlink="http://www.w3.org/1999/xlink" x="0px" y="0px"
	 width="90.665px" height="58.73px" viewBox="0 0 90.665 58.73" enable-background="new 0 0 90.665 58.73" xml:space="preserve">
<g>
	<g>
		<g>
			<path fill="#9E9D9C" d="M90.665,17.697c0,1.65-1.35,3-3,3H6.974c-1.65,0-3-1.35-3-3v-12.5c0-1.65,1.35-3,3-3h80.691
				c1.65,0,3,1.35,3,3V17.697z"/>
		</g>
		<polygon fill="#9E9D9C" points="36.729,19.618 44.688,19.618 47.067,29.035 		"/>
	</g>
	
		<radialGradient id="SVGID_1_" cx="-1159.0161" cy="-427.5854" r="39.9392" gradientTransform="matrix(0.4097 0 0 0.0996 529.0527 93.4797)" gradientUnits="userSpaceOnUse">
		<stop  offset="0" style="stop-color:#9C9C9C"/>
		<stop  offset="0.019" style="stop-color:#A2A1A1"/>
		<stop  offset="0.2086" style="stop-color:#D4D4D4"/>
		<stop  offset="0.3423" style="stop-color:#E2E1E2"/>
		<stop  offset="0.5547" style="stop-color:#F2F2F2"/>
		<stop  offset="0.7721" style="stop-color:#FCFCFC"/>
		<stop  offset="1" style="stop-color:#FFFFFF"/>
	</radialGradient>
	<ellipse fill="url(#SVGID_1_)" cx="54.204" cy="50.909" rx="16.629" ry="4.396"/>
	<g>
		
			<polygon fill="#FFFFFF" stroke="#1E1E1C" stroke-width="0.4721" stroke-linecap="round" stroke-linejoin="round" stroke-miterlimit="10" points="
			53.731,39.841 49.29,37.491 49.522,31.206 54.592,32.919 		"/>
		<polygon fill="#1E1E1C" points="51.256,34.597 50.323,34.159 50.596,33.862 51.272,34.206 		"/>
		<polygon fill="#1E1E1C" points="53.104,35.3 52.256,34.909 52.174,34.456 52.975,34.8 		"/>
		<polygon fill="#1E1E1C" points="52.006,37.175 50.881,36.628 50.635,35.815 52.385,36.628 		"/>
		
			<polygon fill="#FFFFFF" stroke="#1E1E1C" stroke-width="0.4721" stroke-linecap="round" stroke-linejoin="round" stroke-miterlimit="10" points="
			54.592,32.919 49.522,31.206 54.161,31.409 58.19,32.919 		"/>
		
			<polygon fill="#FFFFFF" stroke="#1E1E1C" stroke-width="0.4721" stroke-linecap="round" stroke-linejoin="round" stroke-miterlimit="10" points="
			57.288,38.948 53.731,39.841 54.557,32.919 58.19,32.919 		"/>
		
			<path fill="none" stroke="#1E1E1C" stroke-width="0.4721" stroke-linecap="round" stroke-linejoin="round" stroke-miterlimit="10" d="
			M46.295,42.569c0,0,2.174,3.061,4.131,0.039"/>
		
			<path fill="none" stroke="#1E1E1C" stroke-width="0.4721" stroke-linecap="round" stroke-linejoin="round" stroke-miterlimit="10" d="
			M58.022,42.032c0,0,1.834,0.461-1.918,3.102"/>
		
			<ellipse transform="matrix(0.9243 0.3817 -0.3817 0.9243 18.2835 -18.571)" fill="#1E1E1C" cx="55.958" cy="36.806" rx="1.177" ry="1.612"/>
		
			<path fill="none" stroke="#1E1E1C" stroke-width="0.2361" stroke-linecap="round" stroke-linejoin="round" stroke-miterlimit="10" d="
			M51.51,31.185c0.549-1.217,1.455-2.009,2.479-2.009c1.676,0,3.033,2.128,3.033,4.751c0,1.234-0.299,2.359-0.793,3.205"/>
		
			<path fill="none" stroke="#1E1E1C" stroke-width="0.4721" stroke-linecap="round" stroke-linejoin="round" stroke-miterlimit="10" d="
			M56.229,37.132"/>
		
			<path fill="none" stroke="#1E1E1C" stroke-width="0.9443" stroke-linecap="round" stroke-linejoin="round" stroke-miterlimit="10" d="
			M52.7,29.625c1.076-0.62,2.365-0.449,3.258,0.688"/>
		<path fill="#1E1E1C" d="M49.989,39.53c-0.24,0.287-0.746,0.262-1.135-0.061c-0.383-0.32-0.504-0.814-0.264-1.104
			s0.748-0.262,1.133,0.061C50.112,38.747,50.229,39.239,49.989,39.53z"/>
		
			<ellipse transform="matrix(0.9235 0.3837 -0.3837 0.9235 18.4863 -18.7398)" fill="#FFFFFF" cx="56.216" cy="36.968" rx="0.519" ry="0.797"/>
		
			<path fill="none" stroke="#1E1E1C" stroke-width="0.2361" stroke-linecap="round" stroke-linejoin="round" stroke-miterlimit="10" d="
			M56.315,37.011c-1.111,1.594-3.793,4.219-7.025,1.938"/>
		
			<polygon fill="none" stroke="#1E1E1C" stroke-width="0.4721" stroke-linecap="round" stroke-linejoin="round" stroke-miterlimit="10" points="
			46.641,44.044 44.469,43.239 43.069,37.833 45.381,38.655 		"/>
		<text transform="matrix(1 0 0 1 52.1997 43.7471)" fill="#1E1E1C" font-family="'ArialRoundedMTBold'" font-size="1.7676">AR-1</text>
		<g>
			<path fill="none" stroke="#1E1E1C" stroke-width="0.5204" stroke-miterlimit="10" d="M56.7,46.009
				c-0.074,0.562-0.6,1.023-1.168,1.023h-2.496c-0.568,0-1.111-0.458-1.207-1.018L51.1,41.761c-0.096-0.56,0.291-1.018,0.859-1.018
				h4.402c0.568,0,0.973,0.461,0.898,1.023L56.7,46.009z"/>
		</g>
		<g>
			<path fill="#FFFFFF" d="M56.342,49.984c-0.178-0.455-0.787-0.827-1.355-0.827h-1.463c-0.568,0-1.221,0.372-1.449,0.827
				s0.049,0.827,0.617,0.827h2.939C56.2,50.812,56.52,50.439,56.342,49.984z"/>
			<path fill="none" stroke="#1E1E1C" stroke-width="0.5204" stroke-miterlimit="10" d="M56.342,49.984
				c-0.178-0.455-0.787-0.827-1.355-0.827h-1.463c-0.568,0-1.221,0.372-1.449,0.827s0.049,0.827,0.617,0.827h2.939
				C56.2,50.812,56.52,50.439,56.342,49.984z"/>
		</g>
		
			<rect x="53.731" y="47.032" fill="#FFFFFF" stroke="#1E1E1C" stroke-width="0.5204" stroke-miterlimit="10" width="0.861" height="2.125"/>
		
			<path fill="none" stroke="#1E1E1C" stroke-width="0.4721" stroke-linecap="round" stroke-linejoin="round" stroke-miterlimit="10" d="
			M55.104,44.86c0.439-0.16,0.887-0.039,1,0.273c0.115,0.311-0.148,0.693-0.588,0.854"/>
	</g>
	<g>
		
			<radialGradient id="SVGID_2_" cx="-1241.0366" cy="-425.7432" r="39.94" gradientTransform="matrix(0.4097 0 0 0.0996 529.0527 94.5249)" gradientUnits="userSpaceOnUse">
			<stop  offset="0" style="stop-color:#9C9C9C"/>
			<stop  offset="0.019" style="stop-color:#A2A1A1"/>
			<stop  offset="0.2086" style="stop-color:#D4D4D4"/>
			<stop  offset="0.3423" style="stop-color:#E2E1E2"/>
			<stop  offset="0.5547" style="stop-color:#F2F2F2"/>
			<stop  offset="0.7721" style="stop-color:#FCFCFC"/>
			<stop  offset="1" style="stop-color:#FFFFFF"/>
		</radialGradient>
		<ellipse fill="url(#SVGID_2_)" cx="20.6" cy="52.136" rx="16.629" ry="4.398"/>
		<g>
			<g>
				
					<circle fill="#FFFFFF" stroke="#1E1E1C" stroke-width="0.4721" stroke-linecap="round" stroke-linejoin="round" stroke-miterlimit="10" cx="19.506" cy="30.652" r="4.35"/>
				<path fill="#1E1E1C" d="M21.969,27.07c-0.701-0.482-1.549-0.769-2.463-0.769c-2.402,0-4.35,1.948-4.35,4.351
					c0,0.187,0.016,0.373,0.039,0.554c1.289-0.275,2.784-0.928,4.241-1.925C20.438,28.597,21.295,27.835,21.969,27.07z"/>
				
					<rect x="15.328" y="27.035" transform="matrix(0.8041 0.5945 -0.5945 0.8041 19.5212 -3.9595)" fill="none" stroke="#1E1E1C" stroke-width="0.4028" stroke-linecap="round" stroke-linejoin="round" stroke-miterlimit="10" width="0.88" height="1.213"/>
				<path fill="#1E1E1C" d="M13.758,33.319c0.053-3.445-2.018-4.5-1.688-6.674c0.324-2.147,3.699-1.952,3.705,0.247
					c-0.412,0.557-0.722,0.975-0.722,0.975s-1.206-0.456-1.048,0.769C14.195,30.115,14.249,31.206,13.758,33.319z"/>
				<ellipse fill="#1E1E1C" cx="22.561" cy="30.052" rx="0.297" ry="0.491"/>
				<path fill="#1E1E1C" d="M21.28,31.206c0,0.279-0.156,0.504-0.35,0.504s-0.35-0.225-0.35-0.504c0-0.281,0.156-0.506,0.35-0.506
					S21.28,30.925,21.28,31.206z"/>
				<path fill="#1E1E1C" d="M23.026,32.021c0,0-0.465,1.609-1.396,1.039"/>
				
					<rect x="16.983" y="30.984" transform="matrix(0.9235 -0.3836 0.3836 0.9235 -11.2203 9.5059)" fill="#FFFFFF" stroke="#1E1E1C" stroke-width="0.4721" stroke-linecap="round" stroke-linejoin="round" stroke-miterlimit="10" width="2.485" height="3.807"/>
				<g>
					<polyline fill="none" stroke="#1E1E1C" stroke-width="0.4721" stroke-linecap="round" stroke-linejoin="round" points="
						17.846,32.888 15.775,39.815 18.563,36.722 					"/>
				</g>
				
					<polyline fill="none" stroke="#1E1E1C" stroke-width="0.4721" stroke-linecap="round" stroke-linejoin="round" stroke-miterlimit="10" points="
					28.864,35.353 25.696,38.95 22.858,36.353 				"/>
				
					<path fill="none" stroke="#1E1E1C" stroke-width="0.4721" stroke-linecap="round" stroke-linejoin="round" stroke-miterlimit="10" d="
					M19.469,46.755c0,0.154-0.73,5.234-0.73,5.234"/>
				
					<path fill="none" stroke="#1E1E1C" stroke-width="0.4721" stroke-linecap="round" stroke-linejoin="round" stroke-miterlimit="10" d="
					M22.334,46.755c0,0.154,0.227,5.234,0.227,5.234"/>
				<polygon fill="#9D9D9C" points="23.917,45.845 17.946,45.845 19.506,35.985 21.934,35.985 				"/>
			</g>
		</g>
	</g>
	<g>
		<polygon fill="#FFFFFF" points="79.342,8.71 79.342,13.893 83.926,11.302 		"/>
		<g>
			<g>
				<path fill="#FFFFFF" d="M80.846,6.622c2.638,0,4.774,2.143,4.774,4.774c0,2.638-2.137,4.773-4.774,4.773
					c-2.631,0-4.77-2.136-4.77-4.773C76.077,8.764,78.215,6.622,80.846,6.622 M80.846,6.122c-2.905,0-5.27,2.366-5.27,5.274
					c0,2.908,2.364,5.273,5.27,5.273c2.908,0,5.274-2.366,5.274-5.273C86.121,8.488,83.754,6.122,80.846,6.122L80.846,6.122z"/>
			</g>
		</g>
	</g>
</g>
</svg>
