<?xml version="1.0" encoding="utf-8"?>
<!-- Generator: Adobe Illustrator 15.0.2, SVG Export Plug-In . SVG Version: 6.00 Build 0)  -->
<!DOCTYPE svg PUBLIC "-//W3C//DTD SVG 1.1//EN" "http://www.w3.org/Graphics/SVG/1.1/DTD/svg11.dtd">
<svg version="1.1" id="Layer_1" xmlns="http://www.w3.org/2000/svg" xmlns:xlink="http://www.w3.org/1999/xlink" x="0px" y="0px"
	 width="20.416px" height="19.754px" viewBox="0 0 20.416 19.754" enable-background="new 0 0 20.416 19.754" xml:space="preserve">
<g>
	
		<radialGradient id="SVGID_1_" cx="-260.2261" cy="-469.5996" r="29.823" gradientTransform="matrix(0.3368 0 0 0.0996 97.852 63.2259)" gradientUnits="userSpaceOnUse">
		<stop  offset="0" style="stop-color:#5F564A"/>
		<stop  offset="0.0287" style="stop-color:#75695A"/>
		<stop  offset="0.0884" style="stop-color:#A1917C"/>
		<stop  offset="0.1473" style="stop-color:#C7B59B"/>
		<stop  offset="0.2042" style="stop-color:#E5D1B3"/>
		<stop  offset="0.2583" style="stop-color:#F8E3C2"/>
		<stop  offset="0.3067" style="stop-color:#FFE9C7"/>
		<stop  offset="0.3343" style="stop-color:#FFEBCC"/>
		<stop  offset="0.4949" style="stop-color:#FFF4E3"/>
		<stop  offset="0.6584" style="stop-color:#FFFAF3"/>
		<stop  offset="0.8252" style="stop-color:#FFFEFC"/>
		<stop  offset="1" style="stop-color:#FFFFFF"/>
	</radialGradient>
	<ellipse fill="url(#SVGID_1_)" cx="10.208" cy="16.471" rx="10.208" ry="3.283"/>
	<g>
		
			<polygon fill="#FFFFFF" stroke="#1E1E1C" stroke-width="0.316" stroke-linecap="round" stroke-linejoin="round" stroke-miterlimit="10" points="
			9.855,8.209 6.539,6.455 6.713,1.762 10.498,3.041 		"/>
		<polygon fill="#1E1E1C" points="8.007,4.293 7.31,3.966 7.515,3.745 8.02,4.001 		"/>
		<polygon fill="#1E1E1C" points="9.386,4.816 8.754,4.527 8.694,4.188 9.291,4.444 		"/>
		<polygon fill="#1E1E1C" points="8.567,6.217 7.728,5.809 7.543,5.202 8.851,5.809 		"/>
		
			<polygon fill="#FFFFFF" stroke="#1E1E1C" stroke-width="0.316" stroke-linecap="round" stroke-linejoin="round" stroke-miterlimit="10" points="
			10.498,3.041 6.713,1.762 10.175,1.912 13.184,3.041 		"/>
		
			<polygon fill="#FFFFFF" stroke="#1E1E1C" stroke-width="0.316" stroke-linecap="round" stroke-linejoin="round" stroke-miterlimit="10" points="
			12.511,7.541 9.855,8.209 10.472,3.041 13.184,3.041 		"/>
		
			<path fill="none" stroke="#1E1E1C" stroke-width="0.316" stroke-linecap="round" stroke-linejoin="round" stroke-miterlimit="10" d="
			M4.303,10.247c0,0,1.623,2.285,3.085,0.029"/>
		
			<path fill="none" stroke="#1E1E1C" stroke-width="0.316" stroke-linecap="round" stroke-linejoin="round" stroke-miterlimit="10" d="
			M13.058,9.845c0,0,1.37,0.344-1.432,2.314"/>
		<path fill="#1E1E1C" d="M12.33,6.278c-0.255,0.614-0.823,0.962-1.272,0.777s-0.606-0.832-0.353-1.448
			c0.255-0.613,0.824-0.963,1.27-0.775C12.425,5.016,12.583,5.664,12.33,6.278z"/>
		
			<path fill="none" stroke="#1E1E1C" stroke-width="0.158" stroke-linecap="round" stroke-linejoin="round" stroke-miterlimit="10" d="
			M8.197,1.746c0.409-0.91,1.087-1.5,1.85-1.5c1.253,0,2.266,1.588,2.266,3.547c0,0.923-0.225,1.763-0.592,2.392"/>
		
			<path fill="none" stroke="#1E1E1C" stroke-width="0.316" stroke-linecap="round" stroke-linejoin="round" stroke-miterlimit="10" d="
			M11.72,6.185"/>
		
			<path fill="none" stroke="#1E1E1C" stroke-width="0.632" stroke-linecap="round" stroke-linejoin="round" stroke-miterlimit="10" d="
			M9.085,0.581c0.804-0.464,1.765-0.335,2.432,0.513"/>
		<path fill="#1E1E1C" d="M7.061,7.976C6.88,8.19,6.504,8.172,6.214,7.93C5.929,7.692,5.837,7.323,6.016,7.107
			c0.181-0.215,0.56-0.195,0.848,0.046C7.153,7.392,7.24,7.76,7.061,7.976z"/>
		
			<ellipse transform="matrix(0.9238 0.3829 -0.3829 0.9238 3.2136 -4.0213)" fill="#FFFFFF" cx="11.71" cy="6.063" rx="0.388" ry="0.593"/>
		
			<path fill="none" stroke="#1E1E1C" stroke-width="0.158" stroke-linecap="round" stroke-linejoin="round" stroke-miterlimit="10" d="
			M11.783,6.096c-0.828,1.189-2.83,3.149-5.244,1.445"/>
		
			<polygon fill="none" stroke="#1E1E1C" stroke-width="0.316" stroke-linecap="round" stroke-linejoin="round" stroke-miterlimit="10" points="
			4.56,11.347 2.939,10.747 1.896,6.71 3.621,7.323 		"/>
		<text transform="matrix(1 0 0 1 8.7104 11.1265)" fill="#1E1E1C" font-family="'ArialRoundedMTBold'" font-size="1.3197">AR-1</text>
		<g>
			<path fill="none" stroke="#1E1E1C" stroke-width="0.3483" stroke-miterlimit="10" d="M12.061,12.892
				c-0.05,0.377-0.402,0.686-0.782,0.686H9.256c-0.38,0-0.744-0.307-0.808-0.682L7.877,9.563C7.813,9.189,8.072,8.882,8.452,8.882
				H11.9c0.381,0,0.65,0.309,0.602,0.685L12.061,12.892z"/>
		</g>
		<g>
			<path fill="#FFFFFF" d="M11.804,15.781c-0.132-0.34-0.552-0.617-0.932-0.617H9.62c-0.38,0-0.831,0.277-1.001,0.617h0
				c-0.17,0.34,0.001,0.618,0.381,0.618h2.354C11.733,16.399,11.936,16.121,11.804,15.781z"/>
			<path fill="none" stroke="#1E1E1C" stroke-width="0.3483" stroke-miterlimit="10" d="M11.804,15.781
				c-0.132-0.34-0.552-0.617-0.932-0.617H9.62c-0.38,0-0.831,0.277-1.001,0.617h0c-0.17,0.34,0.001,0.618,0.381,0.618h2.354
				C11.733,16.399,11.936,16.121,11.804,15.781z"/>
		</g>
		
			<rect x="9.855" y="13.578" fill="#FFFFFF" stroke="#1E1E1C" stroke-width="0.3483" stroke-miterlimit="10" width="0.643" height="1.586"/>
		
			<path fill="none" stroke="#1E1E1C" stroke-width="0.316" stroke-linecap="round" stroke-linejoin="round" stroke-miterlimit="10" d="
			M10.879,11.956c0.329-0.118,0.665-0.027,0.747,0.204c0.087,0.232-0.111,0.518-0.438,0.639"/>
	</g>
</g>
</svg>
