<?xml version="1.0" encoding="utf-8"?>
<!-- Generator: Adobe Illustrator 15.0.2, SVG Export Plug-In . SVG Version: 6.00 Build 0)  -->
<!DOCTYPE svg PUBLIC "-//W3C//DTD SVG 1.1//EN" "http://www.w3.org/Graphics/SVG/1.1/DTD/svg11.dtd">
<svg version="1.1" id="Layer_1" xmlns="http://www.w3.org/2000/svg" xmlns:xlink="http://www.w3.org/1999/xlink" x="0px" y="0px"
	 width="86.795px" height="52.605px" viewBox="0 0 86.795 52.605" enable-background="new 0 0 86.795 52.605" xml:space="preserve">
<g>
	
		<radialGradient id="SVGID_1_" cx="-38.8418" cy="4956.9443" r="39.937" gradientTransform="matrix(0.4097 0 0 0.0996 84.8768 -445.5195)" gradientUnits="userSpaceOnUse">
		<stop  offset="0" style="stop-color:#5F564A"/>
		<stop  offset="0.0287" style="stop-color:#75695A"/>
		<stop  offset="0.0884" style="stop-color:#A1917C"/>
		<stop  offset="0.1473" style="stop-color:#C7B59B"/>
		<stop  offset="0.2042" style="stop-color:#E5D1B3"/>
		<stop  offset="0.2583" style="stop-color:#F8E3C2"/>
		<stop  offset="0.3067" style="stop-color:#FFE9C7"/>
		<stop  offset="0.3343" style="stop-color:#FFEBCC"/>
		<stop  offset="0.4949" style="stop-color:#FFF4E3"/>
		<stop  offset="0.6584" style="stop-color:#FFFAF3"/>
		<stop  offset="0.8252" style="stop-color:#FFFEFC"/>
		<stop  offset="1" style="stop-color:#FFFFFF"/>
	</radialGradient>
	<ellipse fill="url(#SVGID_1_)" cx="68.964" cy="48.208" rx="16.629" ry="4.397"/>
	
		<radialGradient id="SVGID_2_" cx="-147.3701" cy="4954.5684" r="39.94" gradientTransform="matrix(0.4097 0 0 0.0996 84.8768 -446.8672)" gradientUnits="userSpaceOnUse">
		<stop  offset="0" style="stop-color:#7EABCE"/>
		<stop  offset="0.1505" style="stop-color:#AECDE6"/>
		<stop  offset="0.3067" style="stop-color:#DAEFFD"/>
		<stop  offset="0.3892" style="stop-color:#E3F3FE"/>
		<stop  offset="0.5865" style="stop-color:#F3FAFF"/>
		<stop  offset="0.7883" style="stop-color:#FCFEFF"/>
		<stop  offset="1" style="stop-color:#FFFFFF"/>
	</radialGradient>
	<ellipse fill="url(#SVGID_2_)" cx="24.5" cy="46.625" rx="16.629" ry="4.397"/>
	<g>
		<g>
			<path fill="#F29107" d="M86.796,16.71c0,1.648-1.35,3-3,3H3c-1.65,0-3-1.352-3-3V3c0-1.65,1.35-3,3-3h80.794c1.65,0,3,1.35,3,3
				v13.71H86.796z"/>
		</g>
		<polygon fill="#F29107" points="32.38,18.631 40.337,18.631 42.716,28.048 		"/>
	</g>
	<g>
		<g>
			
				<ellipse transform="matrix(-0.7986 0.6018 -0.6018 -0.7986 126.7591 24.4614)" fill="#1E1E1C" cx="59.287" cy="33.438" rx="0.598" ry="0.365"/>
			<path fill="#1E1E1C" d="M58.843,30.181c0.242,0.883,0.811,2.939,0.811,2.939l0.156,0.042c0,0-0.191-0.689-0.385-1.392
				c-0.166-0.603-0.334-1.212-0.385-1.398l-0.061-0.229L58.843,30.181z"/>
			
				<ellipse transform="matrix(-0.7994 0.6008 -0.6008 -0.7994 130.4273 22.117)" fill="#1E1E1C" cx="61.521" cy="32.832" rx="0.6" ry="0.365"/>
			<path fill="#1E1E1C" d="M61.075,29.57c0.244,0.886,0.811,2.939,0.811,2.939l0.154,0.042c0,0-0.188-0.689-0.383-1.39
				c-0.164-0.604-0.334-1.212-0.385-1.399l-0.062-0.229L61.075,29.57z"/>
			
				<rect x="59.009" y="29.848" transform="matrix(-0.9646 0.2638 -0.2638 -0.9646 126.0057 43.2938)" fill="#1E1E1C" width="2.173" height="0.521"/>
			
				<rect x="59.192" y="30.612" transform="matrix(-0.9643 0.2647 -0.2647 -0.9643 126.5516 44.4928)" fill="#1E1E1C" width="2.173" height="0.321"/>
		</g>
		<g>
			<g>
				
					<ellipse transform="matrix(-0.9167 0.3995 -0.3995 -0.9167 119.8699 35.8631)" fill="#1E1E1C" cx="56.197" cy="30.425" rx="0.357" ry="0.217"/>
				<path fill="#1E1E1C" d="M56.536,30.337c0,0-0.043-1.471-0.053-1.722c0.119,0.109,0.438,0.371,0.287,0.807
					c0.336-0.644-0.32-0.817-0.381-1.159c0.008,0.25,0.062,2.027,0.062,2.027L56.536,30.337z"/>
			</g>
		</g>
		
			<polygon fill="#FFFFFF" stroke="#1E1E1C" stroke-width="0.4721" stroke-linecap="round" stroke-linejoin="round" stroke-miterlimit="10" points="
			68.483,36.973 64.044,34.626 64.276,28.339 69.343,30.052 		"/>
		<polygon fill="#1E1E1C" points="65.927,31.558 64.843,31.163 65.13,30.841 65.804,31.184 		"/>
		<polygon fill="#1E1E1C" points="67.948,32.455 66.782,31.955 67.009,31.646 67.813,31.991 		"/>
		<polygon fill="#1E1E1C" points="66.489,34.225 65.634,33.76 65.657,32.914 66.55,33.35 		"/>
		
			<polygon fill="#FFFFFF" stroke="#1E1E1C" stroke-width="0.4721" stroke-linecap="round" stroke-linejoin="round" stroke-miterlimit="10" points="
			69.343,30.052 64.276,28.339 68.913,28.542 72.942,30.052 		"/>
		
			<polygon fill="#FFFFFF" stroke="#1E1E1C" stroke-width="0.4721" stroke-linecap="round" stroke-linejoin="round" stroke-miterlimit="10" points="
			72.04,36.082 68.483,36.973 69.31,30.052 72.942,30.052 		"/>
		
			<path fill="none" stroke="#1E1E1C" stroke-width="0.4721" stroke-linecap="round" stroke-linejoin="round" stroke-miterlimit="10" d="
			M57.729,38.502c0,0,0.443,1.29,0.938,1.417c1.531,0.396,4.195,0.312,6.469-1.136"/>
		
			<ellipse transform="matrix(-0.9244 -0.3814 0.3814 -0.9244 123.1306 92.2781)" fill="#1E1E1C" cx="70.709" cy="33.938" rx="1.178" ry="1.614"/>
		
			<path fill="none" stroke="#1E1E1C" stroke-width="0.2361" stroke-linecap="round" stroke-linejoin="round" stroke-miterlimit="10" d="
			M66.261,28.317c0.553-1.217,1.455-2.009,2.48-2.009c1.676,0,3.033,2.128,3.033,4.752c0,1.234-0.299,2.359-0.791,3.204"/>
		
			<path fill="none" stroke="#1E1E1C" stroke-width="0.4721" stroke-linecap="round" stroke-linejoin="round" stroke-miterlimit="10" d="
			M70.983,34.264"/>
		
			<path fill="none" stroke="#1E1E1C" stroke-width="0.9443" stroke-linecap="round" stroke-linejoin="round" stroke-miterlimit="10" d="
			M67.452,26.758c1.076-0.62,2.365-0.449,3.258,0.688"/>
		<path fill="#1E1E1C" d="M64.741,36.665c-0.24,0.287-0.746,0.261-1.135-0.062c-0.385-0.317-0.502-0.812-0.266-1.103
			c0.24-0.289,0.748-0.265,1.135,0.061C64.864,35.881,64.983,36.374,64.741,36.665z"/>
		
			<ellipse transform="matrix(-0.9241 -0.3821 0.3821 -0.9241 123.5179 92.7413)" fill="#FFFFFF" cx="70.967" cy="34.107" rx="0.519" ry="0.796"/>
		
			<path fill="none" stroke="#1E1E1C" stroke-width="0.2361" stroke-linecap="round" stroke-linejoin="round" stroke-miterlimit="10" d="
			M71.067,34.143c-1.111,1.594-3.793,4.222-7.025,1.938"/>
		<text transform="matrix(1 0 0 1 66.9512 40.8806)" fill="#1E1E1C" font-family="'ArialRoundedMTBold'" font-size="1.7676">AR-1</text>
		<g>
			<path fill="none" stroke="#1E1E1C" stroke-width="0.5204" stroke-miterlimit="10" d="M71.452,43.141
				c-0.074,0.562-0.6,1.023-1.168,1.023h-2.496c-0.568,0-1.111-0.458-1.207-1.02l-0.729-4.253c-0.098-0.56,0.291-1.018,0.857-1.018
				h4.402c0.566,0,0.973,0.461,0.896,1.021L71.452,43.141z"/>
		</g>
		<g>
			<path fill="#FFFFFF" d="M71.093,47.119c-0.178-0.455-0.787-0.827-1.354-0.827h-1.463c-0.568,0-1.223,0.372-1.449,0.827
				c-0.23,0.454,0.049,0.824,0.617,0.824h2.938C70.952,47.944,71.272,47.573,71.093,47.119z"/>
			<path fill="none" stroke="#1E1E1C" stroke-width="0.5204" stroke-miterlimit="10" d="M71.093,47.119
				c-0.178-0.455-0.787-0.827-1.354-0.827h-1.463c-0.568,0-1.223,0.372-1.449,0.827c-0.23,0.454,0.049,0.824,0.617,0.824h2.938
				C70.952,47.944,71.272,47.573,71.093,47.119z"/>
		</g>
		
			<rect x="68.483" y="44.166" fill="#FFFFFF" stroke="#1E1E1C" stroke-width="0.5204" stroke-miterlimit="10" width="0.859" height="2.126"/>
		<g>
			
				<path fill="#F29107" stroke="#1E1E1C" stroke-width="0.4721" stroke-linecap="round" stroke-linejoin="round" stroke-miterlimit="10" d="
				M68.733,39.606c-0.725,0-1.383,0.267-1.918,0.694c-0.359-1.258-1.684-2.194-3.271-2.194c-1.863,0-3.375,1.287-3.375,2.875
				s1.512,2.875,3.375,2.875c0.768,0,1.461-0.225,2.027-0.59c0.139,1.729,1.492,3.09,3.16,3.09c1.762,0,3.188-1.511,3.188-3.375
				C71.921,41.118,70.495,39.606,68.733,39.606z"/>
			
				<line fill="none" stroke="#1E1E1C" stroke-width="0.4721" stroke-linecap="round" stroke-linejoin="round" stroke-miterlimit="10" x1="69.437" y1="42.462" x2="53.812" y2="34.857"/>
			
				<line fill="none" stroke="#1E1E1C" stroke-width="0.4721" stroke-linecap="round" stroke-linejoin="round" stroke-miterlimit="10" x1="69.165" y1="43.024" x2="53.071" y2="35.899"/>
			
				<line fill="none" stroke="#1E1E1C" stroke-width="0.4721" stroke-linecap="round" stroke-linejoin="round" stroke-miterlimit="10" x1="68.896" y1="43.566" x2="52.915" y2="36.753"/>
			
				<rect x="52.252" y="34.398" transform="matrix(0.9234 0.3838 -0.3838 0.9234 18.1255 -18.0351)" fill="none" stroke="#1E1E1C" stroke-width="0.4721" stroke-linecap="round" stroke-linejoin="round" stroke-miterlimit="10" width="4" height="4"/>
			<circle fill="#1E1E1C" cx="67.733" cy="42.331" r="1.35"/>
			
				<line fill="none" stroke="#1E1E1C" stroke-width="0.4721" stroke-linecap="round" stroke-linejoin="round" stroke-miterlimit="10" x1="54.296" y1="33.231" x2="53.921" y2="33.981"/>
			
				<line fill="none" stroke="#1E1E1C" stroke-width="0.4721" stroke-linecap="round" stroke-linejoin="round" stroke-miterlimit="10" x1="55.696" y1="33.712" x2="55.296" y2="34.481"/>
			
				<line fill="none" stroke="#1E1E1C" stroke-width="0.4721" stroke-linecap="round" stroke-linejoin="round" stroke-miterlimit="10" x1="56.796" y1="34.294" x2="56.296" y2="34.919"/>
			
				<line fill="none" stroke="#1E1E1C" stroke-width="0.4721" stroke-linecap="round" stroke-linejoin="round" stroke-miterlimit="10" x1="52.296" y1="37.731" x2="52.046" y2="38.606"/>
			
				<line fill="none" stroke="#1E1E1C" stroke-width="0.4721" stroke-linecap="round" stroke-linejoin="round" stroke-miterlimit="10" x1="53.296" y1="38.231" x2="53.171" y2="38.981"/>
			
				<line fill="none" stroke="#1E1E1C" stroke-width="0.4721" stroke-linecap="round" stroke-linejoin="round" stroke-miterlimit="10" x1="54.513" y1="38.856" x2="54.29" y2="39.494"/>
		</g>
		
			<path fill="none" stroke="#1E1E1C" stroke-width="0.4721" stroke-linecap="round" stroke-linejoin="round" stroke-miterlimit="10" d="
			M72.774,39.166c0,0,1.836,0.462-1.918,3.102"/>
		
			<path fill="none" stroke="#1E1E1C" stroke-width="0.4721" stroke-linecap="round" stroke-linejoin="round" stroke-miterlimit="10" d="
			M69.856,41.994c0.438-0.159,0.889-0.038,1,0.271c0.113,0.312-0.148,0.694-0.586,0.854"/>
		
			<path fill="none" stroke="#1E1E1C" stroke-width="0.4721" stroke-linecap="round" stroke-linejoin="round" stroke-miterlimit="10" d="
			M58.507,37.959c-0.152,0.439-0.531,0.712-0.844,0.603c-0.312-0.106-0.445-0.555-0.291-0.995"/>
	</g>
	<g>
		<g>
			
				<ellipse transform="matrix(-0.8637 0.504 -0.504 -0.8637 29.2766 50.069)" fill="#1E1E1C" cx="7.869" cy="28.993" rx="0.589" ry="0.362"/>
			<path fill="#1E1E1C" d="M7.805,25.755c0.136,0.893,0.453,2.971,0.453,2.971l0.148,0.061c0,0-0.105-0.695-0.215-1.404
				c-0.094-0.608-0.188-1.225-0.217-1.414l-0.035-0.231L7.805,25.755z"/>
		</g>
		<g>
			
				<ellipse transform="matrix(-0.9856 0.1691 -0.1691 -0.9856 13.4787 50.201)" fill="#1E1E1C" cx="4.601" cy="25.675" rx="0.41" ry="0.251"/>
			<path fill="#1E1E1C" d="M5.005,25.67c0,0,0.352-1.655,0.41-1.938c0.104,0.154,0.391,0.535,0.101,0.979
				c0.552-0.626-0.136-1-0.108-1.398c-0.061,0.283-0.484,2.283-0.484,2.283L5.005,25.67z"/>
			<path fill="#1E1E1C" d="M5.271,24.416c0.102,0.154,0.389,0.537,0.1,0.979c0.445-0.506,0.082-0.849-0.059-1.173L5.271,24.416z"/>
		</g>
		<g>
			
				<ellipse transform="matrix(-0.799 0.6013 -0.6013 -0.799 40.0413 50.2963)" fill="#1E1E1C" cx="11.615" cy="31.84" rx="0.942" ry="0.575"/>
			<path fill="#1E1E1C" d="M10.909,26.708c0.383,1.392,1.275,4.633,1.275,4.633l0.244,0.066c0,0-0.299-1.088-0.604-2.189
				c-0.26-0.95-0.524-1.911-0.605-2.207l-0.1-0.361L10.909,26.708z"/>
			
				<ellipse transform="matrix(-0.7986 0.6018 -0.6018 -0.7986 45.7915 46.4277)" fill="#1E1E1C" cx="15.128" cy="30.875" rx="0.943" ry="0.576"/>
			<path fill="#1E1E1C" d="M14.423,25.745c0.383,1.393,1.275,4.632,1.275,4.632l0.244,0.065c0,0-0.295-1.087-0.602-2.188
				c-0.26-0.948-0.525-1.909-0.605-2.206l-0.102-0.36L14.423,25.745z"/>
			
				<rect x="11.169" y="26.181" transform="matrix(-0.9645 0.264 -0.264 -0.9645 32.3272 48.84)" fill="#1E1E1C" width="3.425" height="0.822"/>
			
				<rect x="11.457" y="27.384" transform="matrix(-0.9644 0.2646 -0.2646 -0.9644 33.1814 50.8067)" fill="#1E1E1C" width="3.425" height="0.507"/>
		</g>
		<g>
			<g>
				
					<ellipse transform="matrix(-0.9173 0.3981 -0.3981 -0.9173 13.1147 49.1699)" fill="#1E1E1C" cx="1.452" cy="25.947" rx="0.357" ry="0.217"/>
				<path fill="#1E1E1C" d="M1.789,25.86c0,0-0.043-1.471-0.053-1.722c0.119,0.111,0.439,0.373,0.287,0.807
					c0.336-0.642-0.32-0.815-0.379-1.157c0.006,0.25,0.062,2.025,0.062,2.025L1.789,25.86z"/>
			</g>
		</g>
		<g>
			
				<circle fill="#FFFFFF" stroke="#1E1E1C" stroke-width="0.4346" stroke-linecap="round" stroke-linejoin="round" stroke-miterlimit="10" cx="23.24" cy="27.072" r="4.003"/>
			<path fill="#1E1E1C" d="M25.507,23.772c-0.645-0.441-1.426-0.706-2.268-0.706c-2.211,0-4.002,1.794-4.002,4.005
				c0,0.174,0.014,0.344,0.035,0.511c1.186-0.253,2.562-0.854,3.904-1.771C24.097,25.179,24.886,24.478,25.507,23.772z"/>
			
				<rect x="19.396" y="23.74" transform="matrix(0.8035 0.5953 -0.5953 0.8035 18.3536 -7.0125)" fill="none" stroke="#1E1E1C" stroke-width="0.3708" stroke-linecap="round" stroke-linejoin="round" stroke-miterlimit="10" width="0.809" height="1.116"/>
			<path fill="#1E1E1C" d="M17.948,29.525c0.049-3.171-1.855-4.142-1.553-6.144c0.299-1.979,3.404-1.797,3.412,0.229
				c-0.381,0.514-0.666,0.896-0.666,0.896s-1.109-0.419-0.963,0.707C18.354,26.577,18.401,27.581,17.948,29.525z"/>
			<ellipse fill="#1E1E1C" cx="26.051" cy="26.518" rx="0.272" ry="0.452"/>
			<ellipse fill="#1E1E1C" cx="24.553" cy="27.581" rx="0.321" ry="0.464"/>
			<path fill="#1E1E1C" d="M26.482,28.332c0,0-0.43,1.479-1.287,0.955"/>
			
				<rect x="20.917" y="27.377" transform="matrix(0.9232 -0.3843 0.3843 0.9232 -9.5007 10.7153)" fill="#FFFFFF" stroke="#1E1E1C" stroke-width="0.4346" stroke-linecap="round" stroke-linejoin="round" stroke-miterlimit="10" width="2.287" height="3.506"/>
			<g>
				<polyline fill="none" stroke="#1E1E1C" stroke-width="0.4346" stroke-linecap="round" stroke-linejoin="round" points="
					21.712,29.129 20.044,34.709 22.373,32.66 				"/>
			</g>
			
				<polyline fill="none" stroke="#1E1E1C" stroke-width="0.4346" stroke-linecap="round" stroke-linejoin="round" stroke-miterlimit="10" points="
				27.243,36.518 28.746,33.343 26.323,32.317 			"/>
			
				<path fill="none" stroke="#1E1E1C" stroke-width="0.4346" stroke-linecap="round" stroke-linejoin="round" stroke-miterlimit="10" d="
				M23.207,41.893c0,0.145-0.672,4.818-0.672,4.818"/>
			
				<path fill="none" stroke="#1E1E1C" stroke-width="0.4346" stroke-linecap="round" stroke-linejoin="round" stroke-miterlimit="10" d="
				M25.843,41.893c0,0.145,0.209,4.818,0.209,4.818"/>
			<polygon fill="#1C99CE" points="27.3,41.056 21.804,41.056 23.239,31.979 25.477,31.979 			"/>
		</g>
	</g>
</g>
</svg>
