<?xml version="1.0" encoding="utf-8"?>
<!-- Generator: Adobe Illustrator 15.0.2, SVG Export Plug-In . SVG Version: 6.00 Build 0)  -->
<!DOCTYPE svg PUBLIC "-//W3C//DTD SVG 1.1//EN" "http://www.w3.org/Graphics/SVG/1.1/DTD/svg11.dtd">
<svg version="1.1" id="Layer_1" xmlns="http://www.w3.org/2000/svg" xmlns:xlink="http://www.w3.org/1999/xlink" x="0px" y="0px"
	 width="90.205px" height="19.354px" viewBox="4.408 41.796 90.205 19.354" enable-background="new 4.408 41.796 90.205 19.354"
	 xml:space="preserve">
<g>
	<g>
		<path fill="#F19106" d="M75.272,57.296c0,1.649-1.351,3-3,3H7.408c-1.65,0-3-1.351-3-3v-12.5c0-1.649,1.35-3,3-3h64.864
			c1.649,0,3,1.351,3,3V57.296z"/>
	</g>
	<path fill="#F19106" d="M74.97,51.909v-5.866c0,0,2.755-0.044,3.406,1.003C75.689,48.245,74.97,51.909,74.97,51.909z"/>
	<g>
		<path fill="#FFFFFF" d="M11.269,46.873h-0.791v2.6c0,0.149-0.033,0.261-0.1,0.333c-0.067,0.072-0.153,0.108-0.26,0.108
			c-0.107,0-0.194-0.036-0.262-0.109s-0.102-0.184-0.102-0.332v-2.6H8.965c-0.124,0-0.216-0.027-0.275-0.082
			c-0.061-0.055-0.091-0.127-0.091-0.217c0-0.092,0.031-0.166,0.094-0.219c0.062-0.055,0.153-0.081,0.272-0.081h2.305
			c0.125,0,0.219,0.027,0.279,0.083c0.062,0.056,0.092,0.128,0.092,0.217c0,0.09-0.031,0.162-0.093,0.217
			S11.393,46.873,11.269,46.873z"/>
		<path fill="#FFFFFF" d="M12.609,46.619v0.988c0.085-0.098,0.167-0.175,0.248-0.232c0.08-0.057,0.17-0.1,0.268-0.128
			s0.202-0.042,0.314-0.042c0.169,0,0.319,0.035,0.45,0.107c0.131,0.071,0.234,0.176,0.31,0.312
			c0.047,0.079,0.078,0.168,0.095,0.267s0.024,0.212,0.024,0.341v1.277c0,0.133-0.03,0.234-0.092,0.303
			c-0.061,0.068-0.142,0.102-0.242,0.102c-0.221,0-0.33-0.135-0.33-0.404v-1.126c0-0.213-0.031-0.377-0.096-0.492
			c-0.062-0.114-0.184-0.172-0.361-0.172c-0.118,0-0.226,0.034-0.32,0.102c-0.096,0.067-0.167,0.159-0.214,0.276
			c-0.036,0.1-0.054,0.276-0.054,0.53v0.882c0,0.131-0.029,0.231-0.089,0.301s-0.143,0.104-0.248,0.104
			c-0.22,0-0.329-0.135-0.329-0.404v-2.891c0-0.136,0.028-0.237,0.086-0.305s0.139-0.102,0.243-0.102
			c0.105,0,0.188,0.035,0.248,0.104S12.609,46.485,12.609,46.619z"/>
		<path fill="#FFFFFF" d="M16.663,49.539c-0.162,0.125-0.317,0.219-0.468,0.281s-0.319,0.094-0.507,0.094
			c-0.171,0-0.321-0.033-0.45-0.101c-0.13-0.067-0.229-0.159-0.3-0.274c-0.069-0.116-0.104-0.241-0.104-0.377
			c0-0.182,0.058-0.337,0.173-0.466c0.116-0.129,0.274-0.215,0.477-0.259c0.042-0.01,0.147-0.031,0.314-0.066
			c0.168-0.033,0.312-0.065,0.432-0.094c0.119-0.028,0.249-0.062,0.389-0.104c-0.008-0.176-0.043-0.305-0.105-0.387
			s-0.192-0.123-0.39-0.123c-0.169,0-0.297,0.023-0.382,0.07c-0.086,0.047-0.159,0.118-0.22,0.213
			c-0.062,0.094-0.104,0.156-0.13,0.187s-0.079,0.045-0.162,0.045c-0.075,0-0.14-0.024-0.194-0.072s-0.081-0.109-0.081-0.185
			c0-0.117,0.041-0.23,0.124-0.342c0.083-0.11,0.212-0.201,0.388-0.273c0.176-0.071,0.396-0.107,0.657-0.107
			c0.293,0,0.523,0.035,0.69,0.104c0.168,0.069,0.286,0.179,0.355,0.328s0.104,0.349,0.104,0.596c0,0.156,0,0.289-0.001,0.397
			c-0.001,0.109-0.002,0.23-0.003,0.364c0,0.125,0.021,0.256,0.062,0.392c0.042,0.136,0.062,0.224,0.062,0.263
			c0,0.068-0.032,0.131-0.097,0.187c-0.064,0.057-0.137,0.084-0.219,0.084c-0.068,0-0.136-0.031-0.202-0.096
			S16.737,49.66,16.663,49.539z M16.618,48.574c-0.098,0.036-0.239,0.073-0.426,0.113s-0.315,0.069-0.387,0.088
			s-0.14,0.056-0.205,0.11s-0.098,0.13-0.098,0.228c0,0.102,0.038,0.188,0.115,0.258c0.076,0.071,0.176,0.106,0.3,0.106
			c0.132,0,0.254-0.029,0.365-0.087s0.193-0.132,0.245-0.223c0.061-0.102,0.09-0.268,0.09-0.498V48.574z"/>
		<path fill="#FFFFFF" d="M18.554,47.573v0.081c0.117-0.155,0.246-0.269,0.385-0.341c0.14-0.072,0.299-0.108,0.48-0.108
			c0.176,0,0.332,0.038,0.471,0.114s0.242,0.185,0.311,0.325c0.043,0.081,0.072,0.169,0.085,0.264
			c0.013,0.094,0.02,0.215,0.02,0.361v1.24c0,0.133-0.03,0.234-0.092,0.303c-0.061,0.068-0.14,0.102-0.237,0.102
			c-0.1,0-0.181-0.034-0.242-0.104s-0.093-0.17-0.093-0.3v-1.111c0-0.22-0.03-0.388-0.092-0.504
			c-0.061-0.116-0.183-0.175-0.364-0.175c-0.119,0-0.228,0.035-0.325,0.106c-0.098,0.07-0.169,0.168-0.215,0.291
			c-0.032,0.1-0.049,0.285-0.049,0.557v0.836c0,0.135-0.031,0.236-0.094,0.304s-0.144,0.101-0.243,0.101
			c-0.096,0-0.175-0.034-0.236-0.104c-0.062-0.07-0.094-0.17-0.094-0.3v-1.927c0-0.127,0.028-0.222,0.084-0.284
			c0.055-0.062,0.131-0.094,0.227-0.094c0.059,0,0.111,0.014,0.158,0.041c0.048,0.027,0.086,0.069,0.114,0.125
			C18.541,47.425,18.554,47.493,18.554,47.573z"/>
		<path fill="#FFFFFF" d="M22.629,49.609l-0.588-0.967l-0.361,0.342v0.529c0,0.129-0.034,0.228-0.102,0.297
			s-0.145,0.104-0.232,0.104c-0.104,0-0.184-0.033-0.242-0.102s-0.088-0.17-0.088-0.303v-2.842c0-0.148,0.028-0.262,0.086-0.339
			c0.057-0.077,0.138-0.116,0.244-0.116c0.102,0,0.184,0.035,0.244,0.105c0.06,0.07,0.09,0.174,0.09,0.311v1.615l0.75-0.785
			c0.092-0.098,0.163-0.165,0.212-0.201c0.049-0.035,0.108-0.053,0.179-0.053c0.082,0,0.151,0.026,0.207,0.079
			s0.083,0.119,0.083,0.198c0,0.098-0.091,0.229-0.271,0.391l-0.354,0.325l0.684,1.074c0.051,0.08,0.087,0.141,0.108,0.182
			c0.022,0.042,0.033,0.081,0.033,0.118c0,0.106-0.029,0.189-0.087,0.251c-0.058,0.061-0.134,0.091-0.228,0.091
			c-0.082,0-0.145-0.021-0.188-0.065S22.704,49.724,22.629,49.609z"/>
		<path fill="#FFFFFF" d="M25.7,49.998l0.062-0.149l-0.82-2.065c-0.051-0.119-0.075-0.205-0.075-0.259
			c0-0.057,0.014-0.11,0.043-0.159s0.07-0.088,0.121-0.117c0.052-0.029,0.104-0.043,0.16-0.043c0.096,0,0.168,0.03,0.217,0.091
			c0.049,0.062,0.093,0.148,0.13,0.263l0.563,1.641l0.535-1.525c0.042-0.124,0.08-0.221,0.115-0.291
			c0.033-0.07,0.07-0.117,0.108-0.142s0.092-0.036,0.162-0.036c0.051,0,0.099,0.013,0.146,0.04c0.046,0.026,0.082,0.062,0.107,0.108
			s0.037,0.094,0.037,0.145c-0.006,0.03-0.017,0.074-0.031,0.131c-0.015,0.058-0.032,0.115-0.054,0.174l-0.869,2.275
			c-0.075,0.2-0.148,0.357-0.22,0.471c-0.071,0.114-0.166,0.202-0.284,0.263c-0.118,0.062-0.277,0.092-0.478,0.092
			c-0.195,0-0.342-0.021-0.439-0.063s-0.146-0.119-0.146-0.232c0-0.076,0.023-0.135,0.069-0.177
			c0.047-0.041,0.115-0.062,0.206-0.062c0.036,0,0.071,0.004,0.105,0.014c0.042,0.01,0.079,0.016,0.109,0.016
			c0.077,0,0.137-0.012,0.182-0.035c0.043-0.022,0.083-0.062,0.118-0.118C25.615,50.189,25.655,50.106,25.7,49.998z"/>
		<path fill="#FFFFFF" d="M30.224,48.559c0,0.198-0.031,0.382-0.094,0.55c-0.062,0.167-0.15,0.312-0.268,0.432
			s-0.258,0.213-0.42,0.277c-0.163,0.064-0.347,0.096-0.55,0.096c-0.202,0-0.384-0.032-0.544-0.098
			c-0.162-0.064-0.301-0.158-0.419-0.279s-0.208-0.265-0.269-0.43c-0.062-0.165-0.092-0.348-0.092-0.548
			c0-0.202,0.031-0.387,0.093-0.554c0.062-0.168,0.15-0.312,0.267-0.43c0.115-0.119,0.255-0.211,0.42-0.275
			c0.164-0.064,0.346-0.096,0.544-0.096c0.202,0,0.385,0.032,0.55,0.098c0.164,0.064,0.305,0.157,0.422,0.277
			c0.117,0.121,0.206,0.264,0.268,0.43C30.193,48.175,30.224,48.359,30.224,48.559z M29.554,48.559c0-0.271-0.06-0.483-0.179-0.635
			c-0.12-0.151-0.28-0.228-0.482-0.228c-0.13,0-0.245,0.034-0.345,0.102c-0.099,0.067-0.176,0.168-0.229,0.299
			c-0.055,0.133-0.081,0.286-0.081,0.462c0,0.174,0.026,0.326,0.079,0.456c0.053,0.131,0.129,0.23,0.228,0.3
			s0.214,0.104,0.348,0.104c0.202,0,0.362-0.076,0.482-0.229C29.495,49.038,29.554,48.828,29.554,48.559z"/>
		<path fill="#FFFFFF" d="M32.48,49.539v-0.086c-0.08,0.101-0.163,0.186-0.251,0.254s-0.185,0.119-0.289,0.152
			c-0.104,0.033-0.223,0.051-0.355,0.051c-0.162,0-0.306-0.034-0.434-0.101s-0.227-0.159-0.297-0.276
			c-0.083-0.141-0.125-0.345-0.125-0.609v-1.321c0-0.134,0.03-0.233,0.091-0.299c0.061-0.066,0.14-0.099,0.239-0.099
			c0.101,0,0.183,0.033,0.244,0.1s0.093,0.166,0.093,0.298v1.067c0,0.154,0.013,0.284,0.039,0.389
			c0.026,0.105,0.073,0.188,0.141,0.247s0.159,0.089,0.274,0.089c0.112,0,0.218-0.033,0.317-0.1c0.1-0.067,0.172-0.154,0.218-0.262
			c0.037-0.095,0.056-0.301,0.056-0.62v-0.811c0-0.132,0.031-0.231,0.093-0.298s0.143-0.1,0.242-0.1
			c0.099,0,0.179,0.032,0.238,0.099c0.061,0.065,0.091,0.165,0.091,0.299v1.931c0,0.127-0.029,0.223-0.087,0.286
			s-0.132,0.095-0.223,0.095c-0.092,0-0.167-0.032-0.227-0.099C32.51,49.75,32.48,49.657,32.48,49.539z"/>
		<path fill="#FFFFFF" d="M34.967,47.263h0.158v-0.201c0-0.208,0.026-0.373,0.079-0.496s0.143-0.213,0.269-0.269
			c0.126-0.057,0.299-0.085,0.52-0.085c0.389,0,0.583,0.096,0.583,0.286c0,0.062-0.021,0.114-0.062,0.159
			c-0.04,0.043-0.088,0.065-0.144,0.065c-0.026,0-0.071-0.005-0.134-0.015c-0.064-0.01-0.117-0.015-0.162-0.015
			c-0.12,0-0.197,0.035-0.231,0.106c-0.034,0.07-0.052,0.172-0.052,0.304v0.159h0.164c0.254,0,0.381,0.076,0.381,0.229
			c0,0.109-0.034,0.179-0.102,0.208s-0.16,0.044-0.279,0.044h-0.164v1.766c0,0.131-0.031,0.231-0.094,0.301
			s-0.144,0.104-0.242,0.104c-0.095,0-0.174-0.034-0.236-0.104s-0.094-0.17-0.094-0.301v-1.766h-0.184
			c-0.099,0-0.176-0.022-0.229-0.067c-0.055-0.045-0.081-0.103-0.081-0.175C34.632,47.342,34.743,47.263,34.967,47.263z"/>
		<path fill="#FFFFFF" d="M39.114,48.559c0,0.198-0.031,0.382-0.094,0.55c-0.062,0.167-0.15,0.312-0.268,0.432
			s-0.258,0.213-0.42,0.277c-0.163,0.064-0.347,0.096-0.55,0.096c-0.202,0-0.384-0.032-0.544-0.098
			c-0.162-0.064-0.301-0.158-0.419-0.279s-0.208-0.265-0.269-0.43c-0.062-0.165-0.092-0.348-0.092-0.548
			c0-0.202,0.031-0.387,0.093-0.554c0.062-0.168,0.15-0.312,0.267-0.43c0.115-0.119,0.255-0.211,0.42-0.275
			c0.164-0.064,0.346-0.096,0.544-0.096c0.202,0,0.385,0.032,0.55,0.098c0.164,0.064,0.305,0.157,0.422,0.277
			c0.117,0.121,0.206,0.264,0.268,0.43C39.083,48.175,39.114,48.359,39.114,48.559z M38.444,48.559c0-0.271-0.06-0.483-0.179-0.635
			c-0.12-0.151-0.28-0.228-0.482-0.228c-0.13,0-0.245,0.034-0.345,0.102c-0.099,0.067-0.176,0.168-0.229,0.299
			c-0.055,0.133-0.081,0.286-0.081,0.462c0,0.174,0.026,0.326,0.079,0.456c0.053,0.131,0.129,0.23,0.228,0.3
			s0.214,0.104,0.348,0.104c0.202,0,0.362-0.076,0.482-0.229C38.385,49.038,38.444,48.828,38.444,48.559z"/>
		<path fill="#FFFFFF" d="M40.301,48.953v0.557c0,0.135-0.031,0.236-0.096,0.304c-0.062,0.067-0.144,0.101-0.241,0.101
			c-0.096,0-0.175-0.033-0.237-0.102c-0.062-0.068-0.092-0.17-0.092-0.303v-1.855c0-0.3,0.107-0.449,0.324-0.449
			c0.11,0,0.19,0.034,0.239,0.104s0.075,0.173,0.081,0.31c0.079-0.137,0.161-0.239,0.245-0.31s0.195-0.104,0.335-0.104
			c0.141,0,0.276,0.034,0.408,0.104s0.197,0.163,0.197,0.278c0,0.081-0.027,0.148-0.084,0.201c-0.056,0.053-0.116,0.08-0.182,0.08
			c-0.024,0-0.083-0.016-0.177-0.046s-0.177-0.045-0.248-0.045c-0.098,0-0.178,0.025-0.239,0.077
			c-0.062,0.051-0.109,0.127-0.145,0.229c-0.033,0.101-0.058,0.221-0.07,0.359C40.307,48.583,40.301,48.751,40.301,48.953z"/>
		<path fill="#FFFFFF" d="M45.469,49.089c0,0.082-0.024,0.171-0.074,0.266s-0.126,0.185-0.228,0.27
			c-0.102,0.086-0.229,0.154-0.384,0.207c-0.155,0.052-0.329,0.078-0.523,0.078c-0.411,0-0.732-0.12-0.964-0.36
			s-0.347-0.562-0.347-0.966c0-0.273,0.053-0.516,0.158-0.725c0.106-0.211,0.26-0.373,0.459-0.487
			c0.201-0.115,0.439-0.173,0.719-0.173c0.172,0,0.33,0.025,0.475,0.076c0.144,0.051,0.266,0.115,0.366,0.195
			c0.1,0.08,0.177,0.165,0.229,0.255c0.053,0.091,0.079,0.175,0.079,0.253c0,0.08-0.029,0.147-0.089,0.203
			c-0.06,0.055-0.132,0.082-0.217,0.082c-0.055,0-0.101-0.014-0.138-0.042c-0.036-0.028-0.077-0.075-0.123-0.138
			c-0.081-0.124-0.166-0.217-0.255-0.279c-0.089-0.062-0.201-0.092-0.338-0.092c-0.197,0-0.356,0.076-0.477,0.23
			c-0.12,0.153-0.181,0.364-0.181,0.631c0,0.125,0.016,0.24,0.046,0.346c0.031,0.104,0.076,0.194,0.135,0.269
			s0.129,0.13,0.213,0.168c0.082,0.038,0.174,0.058,0.273,0.058c0.133,0,0.247-0.031,0.343-0.093
			c0.095-0.062,0.179-0.156,0.253-0.283c0.04-0.075,0.084-0.134,0.131-0.176c0.048-0.042,0.105-0.063,0.174-0.063
			c0.081,0,0.148,0.031,0.203,0.093C45.441,48.953,45.469,49.019,45.469,49.089z"/>
		<path fill="#FFFFFF" d="M47.734,49.539c-0.162,0.125-0.317,0.219-0.468,0.281s-0.319,0.094-0.507,0.094
			c-0.171,0-0.321-0.033-0.45-0.101c-0.13-0.067-0.229-0.159-0.3-0.274c-0.069-0.116-0.104-0.241-0.104-0.377
			c0-0.182,0.058-0.337,0.173-0.466c0.116-0.129,0.274-0.215,0.477-0.259c0.042-0.01,0.147-0.031,0.314-0.066
			c0.168-0.033,0.312-0.065,0.432-0.094c0.119-0.028,0.249-0.062,0.389-0.104c-0.008-0.176-0.043-0.305-0.105-0.387
			s-0.192-0.123-0.39-0.123c-0.169,0-0.297,0.023-0.382,0.07c-0.086,0.047-0.159,0.118-0.22,0.213
			c-0.062,0.094-0.104,0.156-0.13,0.187s-0.079,0.045-0.162,0.045c-0.075,0-0.14-0.024-0.194-0.072s-0.081-0.109-0.081-0.185
			c0-0.117,0.041-0.23,0.124-0.342c0.083-0.11,0.212-0.201,0.388-0.273c0.176-0.071,0.396-0.107,0.657-0.107
			c0.293,0,0.523,0.035,0.69,0.104c0.168,0.069,0.286,0.179,0.355,0.328s0.104,0.349,0.104,0.596c0,0.156,0,0.289-0.001,0.397
			c-0.001,0.109-0.002,0.23-0.003,0.364c0,0.125,0.021,0.256,0.062,0.392c0.042,0.136,0.062,0.224,0.062,0.263
			c0,0.068-0.032,0.131-0.097,0.187c-0.064,0.057-0.137,0.084-0.219,0.084c-0.068,0-0.136-0.031-0.202-0.096
			S47.808,49.66,47.734,49.539z M47.689,48.574c-0.098,0.036-0.239,0.073-0.426,0.113s-0.315,0.069-0.387,0.088
			s-0.14,0.056-0.205,0.11s-0.098,0.13-0.098,0.228c0,0.102,0.038,0.188,0.115,0.258c0.076,0.071,0.176,0.106,0.3,0.106
			c0.132,0,0.254-0.029,0.365-0.087s0.193-0.132,0.245-0.223c0.061-0.102,0.09-0.268,0.09-0.498V48.574z"/>
		<path fill="#FFFFFF" d="M49.02,49.509v-2.891c0-0.134,0.03-0.234,0.09-0.303s0.14-0.104,0.24-0.104s0.183,0.034,0.244,0.102
			s0.093,0.169,0.093,0.305v2.891c0,0.135-0.031,0.236-0.094,0.304s-0.144,0.101-0.243,0.101c-0.098,0-0.177-0.034-0.238-0.104
			C49.052,49.739,49.02,49.639,49.02,49.509z"/>
		<path fill="#FFFFFF" d="M50.375,49.509v-2.891c0-0.134,0.03-0.234,0.09-0.303s0.14-0.104,0.24-0.104s0.183,0.034,0.244,0.102
			s0.093,0.169,0.093,0.305v2.891c0,0.135-0.031,0.236-0.094,0.304s-0.144,0.101-0.243,0.101c-0.098,0-0.177-0.034-0.238-0.104
			C50.406,49.739,50.375,49.639,50.375,49.509z"/>
		<path fill="#FFFFFF" d="M52.068,46.894c-0.094,0-0.173-0.028-0.238-0.086c-0.066-0.057-0.1-0.137-0.1-0.241
			c0-0.095,0.034-0.172,0.102-0.233c0.067-0.061,0.146-0.092,0.236-0.092c0.086,0,0.162,0.028,0.229,0.084
			c0.067,0.055,0.101,0.136,0.101,0.241c0,0.103-0.032,0.183-0.098,0.24S52.157,46.894,52.068,46.894z M52.397,47.583v1.927
			c0,0.133-0.032,0.234-0.095,0.303c-0.064,0.068-0.145,0.102-0.242,0.102s-0.177-0.034-0.238-0.104
			c-0.061-0.07-0.092-0.17-0.092-0.3v-1.907c0-0.132,0.031-0.231,0.092-0.298c0.062-0.066,0.141-0.1,0.238-0.1
			s0.178,0.033,0.242,0.1C52.365,47.371,52.397,47.463,52.397,47.583z"/>
		<path fill="#FFFFFF" d="M53.691,47.573v0.081c0.117-0.155,0.246-0.269,0.385-0.341c0.14-0.072,0.299-0.108,0.48-0.108
			c0.176,0,0.332,0.038,0.471,0.114s0.242,0.185,0.311,0.325c0.043,0.081,0.072,0.169,0.085,0.264
			c0.013,0.094,0.02,0.215,0.02,0.361v1.24c0,0.133-0.03,0.234-0.092,0.303c-0.061,0.068-0.14,0.102-0.237,0.102
			c-0.1,0-0.181-0.034-0.242-0.104s-0.093-0.17-0.093-0.3v-1.111c0-0.22-0.03-0.388-0.092-0.504
			c-0.061-0.116-0.183-0.175-0.364-0.175c-0.119,0-0.228,0.035-0.325,0.106c-0.098,0.07-0.169,0.168-0.215,0.291
			c-0.032,0.1-0.049,0.285-0.049,0.557v0.836c0,0.135-0.031,0.236-0.094,0.304s-0.144,0.101-0.243,0.101
			c-0.096,0-0.175-0.034-0.236-0.104c-0.062-0.07-0.094-0.17-0.094-0.3v-1.927c0-0.127,0.028-0.222,0.084-0.284
			c0.055-0.062,0.131-0.094,0.227-0.094c0.059,0,0.111,0.014,0.158,0.041c0.048,0.027,0.086,0.069,0.114,0.125
			C53.677,47.425,53.691,47.493,53.691,47.573z"/>
		<path fill="#FFFFFF" d="M58.556,47.693v1.936c0,0.222-0.023,0.412-0.07,0.571s-0.123,0.291-0.227,0.396
			c-0.104,0.104-0.241,0.182-0.409,0.232c-0.169,0.05-0.378,0.075-0.629,0.075c-0.229,0-0.435-0.032-0.615-0.097
			s-0.319-0.147-0.417-0.249s-0.146-0.206-0.146-0.313c0-0.081,0.027-0.147,0.082-0.199c0.056-0.051,0.123-0.076,0.201-0.076
			c0.098,0,0.183,0.043,0.256,0.129c0.036,0.044,0.073,0.088,0.111,0.133s0.08,0.083,0.127,0.115
			c0.046,0.031,0.102,0.055,0.167,0.07s0.14,0.023,0.225,0.023c0.173,0,0.307-0.024,0.401-0.072c0.096-0.048,0.162-0.115,0.2-0.201
			s0.061-0.179,0.067-0.277s0.012-0.257,0.015-0.475c-0.103,0.144-0.221,0.252-0.355,0.327c-0.134,0.075-0.294,0.112-0.479,0.112
			c-0.223,0-0.418-0.057-0.585-0.171s-0.295-0.273-0.384-0.479c-0.09-0.205-0.135-0.442-0.135-0.71c0-0.201,0.027-0.381,0.082-0.543
			c0.055-0.16,0.132-0.297,0.232-0.407c0.102-0.11,0.218-0.194,0.35-0.25c0.132-0.057,0.276-0.085,0.435-0.085
			c0.188,0,0.353,0.037,0.491,0.109c0.138,0.072,0.267,0.186,0.385,0.34v-0.09c0-0.115,0.029-0.205,0.086-0.269
			s0.13-0.095,0.22-0.095c0.129,0,0.214,0.041,0.257,0.125C58.536,47.414,58.556,47.535,58.556,47.693z M56.626,48.537
			c0,0.271,0.059,0.475,0.177,0.613s0.271,0.207,0.458,0.207c0.11,0,0.215-0.029,0.313-0.089s0.179-0.148,0.24-0.269
			c0.062-0.119,0.094-0.265,0.094-0.436c0-0.271-0.061-0.483-0.18-0.635c-0.12-0.151-0.277-0.227-0.473-0.227
			c-0.19,0-0.343,0.072-0.458,0.217C56.683,48.064,56.626,48.27,56.626,48.537z"/>
		<path fill="#FFFFFF" d="M9.474,52.689l0.811,2.4l0.813-2.418c0.042-0.127,0.074-0.215,0.095-0.265
			c0.021-0.05,0.057-0.094,0.105-0.134s0.115-0.061,0.2-0.061c0.062,0,0.119,0.016,0.172,0.047s0.095,0.072,0.125,0.123
			c0.03,0.052,0.045,0.104,0.045,0.155c0,0.036-0.005,0.074-0.015,0.116c-0.01,0.041-0.021,0.082-0.037,0.122
			c-0.014,0.04-0.029,0.081-0.043,0.123l-0.867,2.339c-0.031,0.09-0.062,0.175-0.093,0.255c-0.031,0.081-0.066,0.151-0.107,0.213
			c-0.041,0.061-0.095,0.11-0.162,0.149s-0.15,0.059-0.248,0.059s-0.181-0.019-0.248-0.057s-0.122-0.089-0.163-0.151
			c-0.042-0.062-0.078-0.134-0.109-0.214c-0.03-0.08-0.062-0.164-0.092-0.254l-0.853-2.319c-0.015-0.042-0.029-0.084-0.045-0.124
			c-0.016-0.041-0.028-0.085-0.039-0.133c-0.011-0.047-0.017-0.087-0.017-0.119c0-0.083,0.034-0.158,0.101-0.227
			s0.15-0.104,0.251-0.104c0.124,0,0.212,0.038,0.263,0.114C9.369,52.402,9.422,52.523,9.474,52.689z"/>
		<path fill="#FFFFFF" d="M12.338,55.509v-2.891c0-0.134,0.03-0.234,0.09-0.303s0.14-0.104,0.24-0.104s0.183,0.034,0.244,0.102
			s0.093,0.169,0.093,0.305v2.891c0,0.135-0.031,0.236-0.094,0.304s-0.144,0.101-0.243,0.101c-0.098,0-0.177-0.034-0.238-0.104
			C12.369,55.739,12.338,55.639,12.338,55.509z"/>
		<path fill="#FFFFFF" d="M15.379,55.539c-0.162,0.125-0.317,0.219-0.468,0.281s-0.319,0.094-0.507,0.094
			c-0.171,0-0.321-0.033-0.45-0.101c-0.13-0.067-0.229-0.159-0.3-0.274c-0.069-0.116-0.104-0.241-0.104-0.377
			c0-0.182,0.058-0.337,0.173-0.466c0.116-0.129,0.274-0.215,0.477-0.259c0.042-0.01,0.147-0.031,0.314-0.066
			c0.168-0.033,0.312-0.065,0.432-0.094c0.119-0.028,0.249-0.062,0.389-0.104c-0.008-0.176-0.043-0.305-0.105-0.387
			s-0.192-0.123-0.39-0.123c-0.169,0-0.297,0.023-0.382,0.07c-0.086,0.047-0.159,0.118-0.22,0.213
			c-0.062,0.094-0.104,0.156-0.13,0.187s-0.079,0.045-0.162,0.045c-0.075,0-0.14-0.024-0.194-0.072s-0.081-0.109-0.081-0.185
			c0-0.117,0.041-0.23,0.124-0.342c0.083-0.11,0.212-0.201,0.388-0.273c0.176-0.071,0.396-0.107,0.657-0.107
			c0.293,0,0.523,0.035,0.69,0.104c0.168,0.069,0.286,0.179,0.355,0.328s0.104,0.349,0.104,0.596c0,0.156,0,0.289-0.001,0.397
			c-0.001,0.109-0.002,0.23-0.003,0.364c0,0.125,0.021,0.256,0.062,0.392c0.042,0.136,0.062,0.224,0.062,0.263
			c0,0.068-0.032,0.131-0.097,0.187c-0.064,0.057-0.137,0.084-0.219,0.084c-0.068,0-0.136-0.031-0.202-0.096
			S15.453,55.66,15.379,55.539z M15.334,54.574c-0.098,0.036-0.239,0.073-0.426,0.113s-0.315,0.069-0.387,0.088
			s-0.14,0.056-0.205,0.11s-0.098,0.13-0.098,0.228c0,0.102,0.038,0.188,0.115,0.258c0.076,0.071,0.176,0.106,0.3,0.106
			c0.132,0,0.254-0.029,0.365-0.087s0.193-0.132,0.245-0.223c0.061-0.102,0.09-0.268,0.09-0.498V54.574z"/>
		<path fill="#FFFFFF" d="M18.49,55.533v-0.065c-0.089,0.103-0.178,0.186-0.265,0.25s-0.182,0.113-0.283,0.146
			s-0.213,0.05-0.333,0.05c-0.159,0-0.308-0.033-0.443-0.101s-0.253-0.164-0.353-0.29c-0.1-0.125-0.175-0.272-0.226-0.441
			c-0.052-0.169-0.077-0.353-0.077-0.549c0-0.417,0.102-0.742,0.306-0.975c0.203-0.232,0.471-0.35,0.803-0.35
			c0.192,0,0.354,0.033,0.486,0.1c0.131,0.065,0.26,0.167,0.385,0.304v-0.983c0-0.137,0.027-0.24,0.082-0.311
			s0.133-0.105,0.233-0.105s0.179,0.032,0.233,0.097s0.082,0.159,0.082,0.284v2.939c0,0.127-0.029,0.223-0.088,0.286
			s-0.135,0.095-0.228,0.095c-0.091,0-0.166-0.032-0.226-0.099C18.52,55.75,18.49,55.656,18.49,55.533z M17.179,54.554
			c0,0.181,0.028,0.334,0.084,0.461c0.057,0.127,0.133,0.223,0.23,0.287s0.205,0.097,0.32,0.097c0.117,0,0.225-0.03,0.321-0.092
			c0.097-0.061,0.174-0.154,0.231-0.28s0.087-0.284,0.087-0.473c0-0.178-0.029-0.33-0.087-0.458s-0.136-0.226-0.234-0.293
			s-0.206-0.101-0.323-0.101c-0.122,0-0.231,0.034-0.327,0.104s-0.171,0.168-0.224,0.298C17.206,54.233,17.179,54.383,17.179,54.554
			z"/>
		<path fill="#FFFFFF" d="M21.615,52.689l0.811,2.4l0.813-2.418c0.042-0.127,0.074-0.215,0.095-0.265
			c0.021-0.05,0.057-0.094,0.105-0.134s0.115-0.061,0.2-0.061c0.062,0,0.119,0.016,0.172,0.047s0.095,0.072,0.125,0.123
			c0.03,0.052,0.045,0.104,0.045,0.155c0,0.036-0.005,0.074-0.015,0.116c-0.01,0.041-0.021,0.082-0.037,0.122
			c-0.014,0.04-0.029,0.081-0.043,0.123l-0.867,2.339c-0.031,0.09-0.062,0.175-0.093,0.255c-0.031,0.081-0.066,0.151-0.107,0.213
			c-0.041,0.061-0.095,0.11-0.162,0.149s-0.15,0.059-0.248,0.059s-0.181-0.019-0.248-0.057s-0.122-0.089-0.163-0.151
			c-0.042-0.062-0.078-0.134-0.109-0.214c-0.03-0.08-0.062-0.164-0.092-0.254l-0.853-2.319c-0.015-0.042-0.029-0.084-0.045-0.124
			c-0.016-0.041-0.028-0.085-0.039-0.133c-0.011-0.047-0.017-0.087-0.017-0.119c0-0.083,0.034-0.158,0.101-0.227
			s0.15-0.104,0.251-0.104c0.124,0,0.212,0.038,0.263,0.114C21.51,52.402,21.562,52.523,21.615,52.689z"/>
		<path fill="#FFFFFF" d="M26.092,54.722h-1.305c0.002,0.152,0.032,0.285,0.092,0.4c0.06,0.116,0.139,0.203,0.237,0.262
			s0.207,0.088,0.325,0.088c0.08,0,0.153-0.01,0.219-0.028c0.066-0.019,0.13-0.048,0.191-0.088c0.062-0.04,0.119-0.082,0.172-0.128
			c0.052-0.046,0.119-0.107,0.202-0.186c0.034-0.029,0.083-0.044,0.146-0.044c0.068,0,0.124,0.019,0.166,0.056
			c0.042,0.038,0.063,0.091,0.063,0.159c0,0.061-0.023,0.131-0.07,0.211c-0.048,0.081-0.119,0.158-0.214,0.232
			c-0.096,0.074-0.215,0.136-0.359,0.185c-0.144,0.049-0.31,0.072-0.497,0.072c-0.428,0-0.761-0.121-0.998-0.365
			s-0.356-0.576-0.356-0.994c0-0.197,0.029-0.38,0.088-0.548c0.059-0.169,0.144-0.313,0.257-0.434
			c0.111-0.12,0.25-0.213,0.414-0.277c0.165-0.064,0.348-0.097,0.547-0.097c0.261,0,0.484,0.056,0.671,0.165
			c0.187,0.11,0.325,0.252,0.419,0.427c0.092,0.174,0.139,0.352,0.139,0.531c0,0.168-0.048,0.276-0.145,0.326
			C26.4,54.698,26.265,54.722,26.092,54.722z M24.787,54.344h1.209c-0.017-0.228-0.078-0.398-0.185-0.512s-0.247-0.169-0.421-0.169
			c-0.166,0-0.303,0.057-0.409,0.172C24.875,53.95,24.81,54.12,24.787,54.344z"/>
		<path fill="#FFFFFF" d="M27.806,53.573v0.081c0.117-0.155,0.246-0.269,0.385-0.341c0.14-0.072,0.299-0.108,0.48-0.108
			c0.176,0,0.332,0.038,0.471,0.114s0.242,0.185,0.311,0.325c0.043,0.081,0.072,0.169,0.085,0.264
			c0.013,0.094,0.02,0.215,0.02,0.361v1.24c0,0.133-0.03,0.234-0.092,0.303c-0.061,0.068-0.14,0.102-0.237,0.102
			c-0.1,0-0.181-0.034-0.242-0.104s-0.093-0.17-0.093-0.3v-1.111c0-0.22-0.03-0.388-0.092-0.504
			c-0.061-0.116-0.183-0.175-0.364-0.175c-0.119,0-0.228,0.035-0.325,0.106c-0.098,0.07-0.169,0.168-0.215,0.291
			c-0.032,0.1-0.049,0.285-0.049,0.557v0.836c0,0.135-0.031,0.236-0.094,0.304s-0.144,0.101-0.243,0.101
			c-0.096,0-0.175-0.034-0.236-0.104c-0.062-0.07-0.094-0.17-0.094-0.3v-1.927c0-0.127,0.028-0.222,0.084-0.284
			c0.055-0.062,0.131-0.094,0.227-0.094c0.059,0,0.111,0.014,0.158,0.041c0.048,0.027,0.086,0.069,0.114,0.125
			C27.793,53.425,27.806,53.493,27.806,53.573z"/>
		<path fill="#FFFFFF" d="M32.048,55.533v-0.065c-0.089,0.103-0.178,0.186-0.265,0.25s-0.182,0.113-0.283,0.146
			s-0.213,0.05-0.333,0.05c-0.159,0-0.308-0.033-0.443-0.101s-0.253-0.164-0.353-0.29c-0.1-0.125-0.175-0.272-0.226-0.441
			c-0.052-0.169-0.077-0.353-0.077-0.549c0-0.417,0.102-0.742,0.306-0.975c0.203-0.232,0.471-0.35,0.803-0.35
			c0.192,0,0.354,0.033,0.486,0.1c0.131,0.065,0.26,0.167,0.385,0.304v-0.983c0-0.137,0.027-0.24,0.082-0.311
			s0.133-0.105,0.233-0.105s0.179,0.032,0.233,0.097s0.082,0.159,0.082,0.284v2.939c0,0.127-0.029,0.223-0.088,0.286
			s-0.135,0.095-0.228,0.095c-0.091,0-0.166-0.032-0.226-0.099C32.078,55.75,32.048,55.656,32.048,55.533z M30.737,54.554
			c0,0.181,0.028,0.334,0.084,0.461c0.057,0.127,0.133,0.223,0.23,0.287s0.205,0.097,0.32,0.097c0.117,0,0.225-0.03,0.321-0.092
			c0.097-0.061,0.174-0.154,0.231-0.28s0.087-0.284,0.087-0.473c0-0.178-0.029-0.33-0.087-0.458s-0.136-0.226-0.234-0.293
			s-0.206-0.101-0.323-0.101c-0.122,0-0.231,0.034-0.327,0.104s-0.171,0.168-0.224,0.298C30.763,54.233,30.737,54.383,30.737,54.554
			z"/>
		<path fill="#FFFFFF" d="M34.009,54.953v0.557c0,0.135-0.031,0.236-0.096,0.304c-0.062,0.067-0.144,0.101-0.241,0.101
			c-0.096,0-0.175-0.033-0.237-0.102c-0.062-0.068-0.092-0.17-0.092-0.303v-1.855c0-0.3,0.107-0.449,0.324-0.449
			c0.11,0,0.19,0.034,0.239,0.104s0.075,0.173,0.081,0.31c0.079-0.137,0.161-0.239,0.245-0.31s0.195-0.104,0.335-0.104
			c0.141,0,0.276,0.034,0.408,0.104s0.197,0.163,0.197,0.278c0,0.081-0.027,0.148-0.084,0.201c-0.056,0.053-0.116,0.08-0.182,0.08
			c-0.024,0-0.083-0.016-0.177-0.046s-0.177-0.045-0.248-0.045c-0.098,0-0.178,0.025-0.239,0.077
			c-0.062,0.051-0.109,0.127-0.145,0.229c-0.033,0.101-0.058,0.221-0.07,0.359C34.015,54.583,34.009,54.751,34.009,54.953z"/>
		<path fill="#FFFFFF" d="M37.842,54.559c0,0.198-0.031,0.382-0.094,0.55c-0.062,0.167-0.15,0.312-0.268,0.432
			s-0.258,0.213-0.42,0.277c-0.163,0.064-0.347,0.096-0.55,0.096c-0.202,0-0.384-0.032-0.544-0.098
			c-0.162-0.064-0.301-0.158-0.419-0.279s-0.208-0.265-0.269-0.43c-0.062-0.165-0.092-0.348-0.092-0.548
			c0-0.202,0.031-0.387,0.093-0.554c0.062-0.168,0.15-0.312,0.267-0.43c0.115-0.119,0.255-0.211,0.42-0.275
			c0.164-0.064,0.346-0.096,0.544-0.096c0.202,0,0.385,0.032,0.55,0.098c0.164,0.064,0.305,0.157,0.422,0.277
			c0.117,0.121,0.206,0.264,0.268,0.43C37.81,54.175,37.842,54.359,37.842,54.559z M37.172,54.559c0-0.271-0.06-0.483-0.179-0.635
			c-0.12-0.151-0.28-0.228-0.482-0.228c-0.13,0-0.245,0.034-0.345,0.102c-0.099,0.067-0.176,0.168-0.229,0.299
			c-0.055,0.133-0.081,0.286-0.081,0.462c0,0.174,0.026,0.326,0.079,0.456c0.053,0.131,0.129,0.23,0.228,0.3
			s0.214,0.104,0.348,0.104c0.202,0,0.362-0.076,0.482-0.229C37.112,55.038,37.172,54.828,37.172,54.559z"/>
		<path fill="#FFFFFF" d="M38.782,53.619l0.434,1.49l0.396-1.385c0.042-0.145,0.073-0.244,0.094-0.297s0.059-0.104,0.114-0.151
			c0.057-0.048,0.134-0.071,0.231-0.071c0.099,0,0.177,0.023,0.232,0.071c0.057,0.048,0.096,0.101,0.119,0.156
			c0.022,0.057,0.054,0.153,0.095,0.292l0.396,1.385l0.439-1.49c0.029-0.107,0.053-0.185,0.07-0.232
			c0.019-0.048,0.049-0.091,0.091-0.127c0.042-0.037,0.104-0.055,0.183-0.055c0.08,0,0.149,0.027,0.208,0.082
			c0.059,0.056,0.088,0.121,0.088,0.195c0,0.068-0.025,0.172-0.075,0.311l-0.545,1.597c-0.047,0.135-0.084,0.232-0.109,0.293
			c-0.026,0.061-0.067,0.114-0.124,0.161c-0.056,0.047-0.133,0.07-0.23,0.07c-0.101,0-0.181-0.024-0.238-0.075
			s-0.101-0.112-0.128-0.186s-0.058-0.169-0.09-0.286l-0.381-1.299l-0.369,1.299c-0.049,0.182-0.102,0.317-0.158,0.409
			c-0.058,0.092-0.157,0.138-0.301,0.138c-0.073,0-0.136-0.014-0.187-0.042c-0.052-0.028-0.095-0.069-0.128-0.122
			c-0.035-0.053-0.064-0.116-0.091-0.188s-0.046-0.13-0.062-0.172l-0.539-1.597c-0.054-0.149-0.08-0.253-0.08-0.311
			c0-0.071,0.028-0.136,0.085-0.192s0.127-0.085,0.21-0.085c0.11,0,0.186,0.031,0.225,0.094S38.737,53.468,38.782,53.619z"/>
	</g>
	<g>
		
			<radialGradient id="SVGID_1_" cx="-100.4934" cy="-415.1436" r="26.7307" gradientTransform="matrix(0.3368 0 0 0.0996 119.312 99.5408)" gradientUnits="userSpaceOnUse">
			<stop  offset="0" style="stop-color:#5F564A"/>
			<stop  offset="0.0545" style="stop-color:#8F826F"/>
			<stop  offset="0.109" style="stop-color:#B7A78E"/>
			<stop  offset="0.1623" style="stop-color:#D7C3A7"/>
			<stop  offset="0.2138" style="stop-color:#EDD8B8"/>
			<stop  offset="0.2629" style="stop-color:#FAE4C2"/>
			<stop  offset="0.3067" style="stop-color:#FFE8C6"/>
			<stop  offset="0.4558" style="stop-color:#FFF1DD"/>
			<stop  offset="0.6315" style="stop-color:#FFF9F0"/>
			<stop  offset="0.8114" style="stop-color:#FFFDFB"/>
			<stop  offset="1" style="stop-color:#FFFFFF"/>
		</radialGradient>
		<ellipse fill="url(#SVGID_1_)" cx="85.463" cy="58.208" rx="9.15" ry="2.943"/>
		<g>
			<g>
				<polygon fill="#FFFFFF" points="85.146,50.801 82.174,49.229 82.33,45.022 85.722,46.168 				"/>
				<path fill="#1D1E1C" d="M85.146,50.959c-0.025,0-0.051-0.006-0.074-0.019l-2.973-1.572c-0.054-0.028-0.086-0.085-0.084-0.146
					l0.156-4.207c0.002-0.05,0.027-0.096,0.068-0.124c0.04-0.028,0.094-0.034,0.141-0.021l3.393,1.146
					c0.071,0.025,0.115,0.096,0.106,0.17l-0.576,4.633c-0.007,0.051-0.038,0.097-0.084,0.121
					C85.196,50.954,85.172,50.959,85.146,50.959z M82.335,49.135l2.683,1.42l0.532-4.278l-3.069-1.038L82.335,49.135z"/>
			</g>
			<polygon fill="#1D1E1C" points="83.49,47.292 82.865,46.998 83.049,46.799 83.502,47.03 			"/>
			<polygon fill="#1D1E1C" points="84.726,47.76 84.16,47.5 84.105,47.197 84.64,47.426 			"/>
			<polygon fill="#1D1E1C" points="83.992,49.016 83.24,48.65 83.074,48.106 84.246,48.65 			"/>
			<g>
				<polygon fill="#FFFFFF" points="85.722,46.168 82.33,45.022 85.433,45.157 88.131,46.168 				"/>
				<path fill="#1D1E1C" d="M88.138,46.327c-0.002,0-0.005,0-0.008,0h-2.408c-0.018,0-0.034-0.003-0.051-0.008l-3.393-1.146
					c-0.074-0.025-0.119-0.102-0.104-0.18c0.014-0.077,0.078-0.127,0.162-0.129l3.104,0.135c0.017,0.001,0.033,0.004,0.049,0.01
					l2.676,1.004c0.075,0.014,0.132,0.078,0.132,0.156C88.297,46.256,88.225,46.327,88.138,46.327z M85.749,46.01h1.511
					l-1.858-0.697l-1.968-0.085L85.749,46.01z"/>
			</g>
			<g>
				<polygon fill="#FFFFFF" points="87.527,50.203 85.146,50.801 85.699,46.168 88.131,46.168 				"/>
				<path fill="#1D1E1C" d="M85.146,50.959c-0.038,0-0.075-0.014-0.104-0.039c-0.039-0.035-0.059-0.086-0.053-0.138l0.553-4.633
					c0.01-0.079,0.077-0.14,0.157-0.14h2.432c0.046,0,0.09,0.02,0.12,0.055c0.029,0.035,0.043,0.082,0.036,0.127l-0.604,4.034
					c-0.01,0.063-0.056,0.114-0.118,0.13l-2.381,0.599C85.172,50.958,85.159,50.959,85.146,50.959z M85.84,46.327l-0.51,4.266
					l2.057-0.518l0.561-3.748H85.84z"/>
			</g>
			<path fill="#1D1E1C" d="M81.646,53.704c-0.895,0-1.575-0.944-1.604-0.984c-0.051-0.071-0.033-0.17,0.037-0.221
				c0.071-0.05,0.169-0.035,0.221,0.037c0.006,0.009,0.616,0.852,1.347,0.852c0.008,0,0.015,0,0.021,0
				c0.406-0.009,0.788-0.284,1.135-0.819c0.047-0.073,0.146-0.094,0.219-0.047c0.073,0.048,0.094,0.146,0.047,0.219
				c-0.407,0.628-0.877,0.953-1.395,0.964C81.665,53.704,81.655,53.704,81.646,53.704z"/>
			<path fill="#1D1E1C" d="M86.734,54.5c-0.05,0-0.099-0.023-0.129-0.067c-0.051-0.071-0.033-0.17,0.038-0.22
				c1.448-1.019,1.541-1.473,1.514-1.621c-0.024-0.129-0.176-0.17-0.177-0.171c-0.085-0.021-0.137-0.107-0.115-0.192
				c0.022-0.084,0.108-0.133,0.191-0.114c0.13,0.032,0.362,0.157,0.411,0.419c0.086,0.467-0.451,1.1-1.643,1.938
				C86.798,54.491,86.765,54.5,86.734,54.5z"/>
			
				<ellipse transform="matrix(0.9243 0.3816 -0.3816 0.9243 25.1685 -29.3714)" fill="#1D1E1C" cx="86.636" cy="48.77" rx="0.788" ry="1.079"/>
			<path fill="#1D1E1C" d="M86.819,49.066c-0.014,0-0.027-0.003-0.04-0.011c-0.037-0.021-0.05-0.07-0.028-0.107
				c0.335-0.575,0.52-1.322,0.52-2.105c0-1.71-0.875-3.101-1.951-3.101c-0.628,0-1.221,0.485-1.587,1.298
				c-0.019,0.04-0.065,0.057-0.104,0.04c-0.04-0.019-0.058-0.065-0.04-0.104c0.393-0.871,1.04-1.392,1.731-1.392
				c1.163,0,2.109,1.462,2.109,3.259c0,0.811-0.192,1.586-0.541,2.184C86.873,49.051,86.846,49.066,86.819,49.066z"/>
			
				<path fill="none" stroke="#1D1E1C" stroke-width="0.316" stroke-linecap="round" stroke-linejoin="round" stroke-miterlimit="10" d="
				M86.819,48.987"/>
			<path fill="#1D1E1C" d="M86.636,44.739c-0.094,0-0.187-0.041-0.248-0.12c-0.471-0.598-1.152-0.741-1.773-0.382
				c-0.152,0.087-0.345,0.035-0.432-0.115c-0.088-0.151-0.036-0.345,0.115-0.432c0.906-0.522,1.919-0.311,2.586,0.538
				c0.108,0.138,0.084,0.336-0.053,0.444C86.774,44.717,86.705,44.739,86.636,44.739z"/>
			
				<ellipse transform="matrix(0.7691 0.6392 -0.6392 0.7691 51.0638 -40.9291)" fill="#1D1E1C" cx="82.174" cy="50.203" rx="0.609" ry="0.454"/>
			
				<ellipse transform="matrix(0.9239 0.3825 -0.3825 0.9239 25.2985 -29.4891)" fill="#FFFFFF" cx="86.81" cy="48.877" rx="0.347" ry="0.532"/>
			<path fill="#1D1E1C" d="M83.889,50.879c-0.594,0-1.185-0.205-1.762-0.612c-0.035-0.024-0.044-0.074-0.019-0.11
				c0.025-0.035,0.073-0.043,0.11-0.019c0.688,0.485,1.397,0.67,2.096,0.546c1.261-0.221,2.165-1.348,2.496-1.822
				c0.023-0.036,0.074-0.043,0.109-0.02c0.036,0.024,0.045,0.074,0.02,0.109c-0.342,0.49-1.278,1.656-2.598,1.889
				C84.192,50.866,84.041,50.879,83.889,50.879z"/>
			<path fill="#1D1E1C" d="M80.409,53.772c-0.002,0-0.005,0-0.008,0c-0.019,0-0.037-0.004-0.055-0.01l-1.453-0.539
				c-0.049-0.018-0.085-0.058-0.099-0.107l-0.937-3.619c-0.015-0.057,0.004-0.116,0.047-0.156c0.043-0.039,0.106-0.051,0.159-0.031
				l1.547,0.549c0.051,0.019,0.089,0.061,0.102,0.113l0.832,3.561c0.014,0.023,0.022,0.053,0.022,0.082
				C80.567,53.702,80.496,53.772,80.409,53.772z M79.08,52.956l1.101,0.408l-0.756-3.236l-1.186-0.422L79.08,52.956z"/>
			<g>
				<path fill="#1E1E1C" d="M84.756,53.32l-0.041-0.106h-0.344l-0.041,0.108c-0.016,0.043-0.029,0.071-0.04,0.086
					s-0.029,0.022-0.055,0.022c-0.021,0-0.04-0.008-0.058-0.023c-0.016-0.017-0.024-0.034-0.024-0.054
					c0-0.012,0.002-0.024,0.006-0.036c0.004-0.013,0.011-0.029,0.019-0.052l0.217-0.55c0.006-0.016,0.014-0.034,0.022-0.057
					s0.019-0.041,0.028-0.056s0.021-0.026,0.038-0.035s0.036-0.014,0.06-0.014s0.043,0.005,0.06,0.014s0.028,0.021,0.038,0.035
					c0.01,0.014,0.019,0.029,0.025,0.046s0.016,0.038,0.025,0.065l0.222,0.546c0.017,0.042,0.026,0.072,0.026,0.091
					c0,0.02-0.009,0.038-0.025,0.055c-0.016,0.016-0.035,0.024-0.059,0.024c-0.014,0-0.025-0.003-0.035-0.008
					s-0.018-0.011-0.023-0.02c-0.008-0.008-0.014-0.021-0.021-0.038C84.767,53.348,84.761,53.333,84.756,53.32z M84.416,53.084
					h0.253l-0.128-0.35L84.416,53.084z"/>
				<path fill="#1E1E1C" d="M85.295,53.053h-0.06v0.272c0,0.035-0.008,0.062-0.023,0.079c-0.017,0.017-0.036,0.025-0.062,0.025
					c-0.027,0-0.049-0.009-0.064-0.026c-0.015-0.019-0.021-0.044-0.021-0.078v-0.651c0-0.037,0.008-0.064,0.024-0.081
					s0.044-0.024,0.08-0.024h0.279c0.038,0,0.071,0.002,0.099,0.005s0.052,0.01,0.074,0.02c0.026,0.012,0.05,0.027,0.07,0.048
					c0.02,0.021,0.035,0.045,0.047,0.073c0.01,0.027,0.016,0.057,0.016,0.087c0,0.063-0.018,0.114-0.054,0.151
					c-0.036,0.038-0.09,0.064-0.162,0.08c0.03,0.017,0.06,0.04,0.087,0.072c0.028,0.031,0.053,0.065,0.074,0.101
					s0.039,0.067,0.051,0.097c0.013,0.028,0.019,0.048,0.019,0.059c0,0.012-0.003,0.022-0.011,0.033
					c-0.007,0.012-0.017,0.021-0.029,0.026c-0.012,0.007-0.026,0.01-0.043,0.01c-0.019,0-0.035-0.005-0.048-0.014
					s-0.024-0.021-0.034-0.034c-0.01-0.015-0.021-0.034-0.038-0.062l-0.069-0.114c-0.024-0.042-0.047-0.074-0.065-0.096
					c-0.02-0.022-0.04-0.037-0.06-0.045C85.351,53.057,85.326,53.053,85.295,53.053z M85.393,52.698h-0.158v0.232h0.153
					c0.041,0,0.076-0.003,0.104-0.011c0.028-0.007,0.05-0.02,0.064-0.036c0.015-0.018,0.022-0.041,0.022-0.071
					c0-0.023-0.006-0.044-0.018-0.062c-0.013-0.018-0.029-0.031-0.051-0.04C85.492,52.702,85.453,52.698,85.393,52.698z"/>
				<path fill="#1E1E1C" d="M86.111,53.177h-0.182c-0.027,0-0.049-0.006-0.063-0.02c-0.015-0.013-0.021-0.029-0.021-0.05
					s0.007-0.037,0.021-0.05c0.015-0.014,0.035-0.02,0.064-0.02h0.182c0.029,0,0.051,0.006,0.064,0.02
					c0.014,0.013,0.021,0.029,0.021,0.05s-0.008,0.037-0.021,0.05C86.162,53.171,86.14,53.177,86.111,53.177z"/>
				<path fill="#1E1E1C" d="M86.551,53.336v-0.525c-0.098,0.075-0.163,0.112-0.197,0.112c-0.016,0-0.03-0.007-0.043-0.02
					s-0.019-0.027-0.019-0.045c0-0.02,0.006-0.034,0.019-0.043c0.012-0.009,0.033-0.021,0.064-0.036
					c0.047-0.021,0.084-0.045,0.112-0.069c0.028-0.023,0.053-0.051,0.074-0.081s0.036-0.049,0.042-0.056
					c0.007-0.007,0.02-0.01,0.037-0.01c0.021,0,0.037,0.008,0.049,0.023c0.013,0.016,0.02,0.037,0.02,0.065v0.661
					c0,0.077-0.027,0.116-0.08,0.116c-0.023,0-0.042-0.008-0.057-0.023C86.558,53.39,86.551,53.368,86.551,53.336z"/>
			</g>
			<path fill="#1D1E1C" d="M86.351,55.788h-1.67c-0.463,0-0.902-0.37-0.979-0.826l-0.488-2.846c-0.039-0.233,0.018-0.455,0.16-0.623
				c0.143-0.169,0.351-0.262,0.587-0.262h2.947c0.235,0,0.445,0.092,0.593,0.26s0.211,0.389,0.181,0.622l-0.375,2.839
				C87.245,55.413,86.817,55.788,86.351,55.788z M83.961,51.579c-0.132,0-0.246,0.049-0.321,0.139
				c-0.075,0.089-0.104,0.209-0.082,0.34l0.488,2.846c0.049,0.291,0.34,0.537,0.636,0.537h1.67c0.292,0,0.571-0.244,0.609-0.534
				l0.375-2.839c0.018-0.132-0.017-0.255-0.097-0.346c-0.08-0.092-0.198-0.143-0.331-0.143H83.961z"/>
			<g>
				<g>
					<path fill="#FFFFFF" d="M86.894,57.589c-0.119-0.305-0.527-0.554-0.907-0.554h-0.979c-0.381,0-0.816,0.249-0.97,0.554
						s0.032,0.554,0.413,0.554h1.967C86.799,58.143,87.012,57.894,86.894,57.589z"/>
				</g>
				<path fill="#1D1E1C" d="M86.418,58.317h-1.967c-0.258,0-0.466-0.098-0.57-0.268c-0.096-0.154-0.095-0.346,0.002-0.538
					c0.183-0.364,0.678-0.649,1.125-0.649h0.979c0.454,0,0.924,0.291,1.069,0.664c0.073,0.188,0.057,0.373-0.046,0.521
					C86.893,58.219,86.677,58.317,86.418,58.317z M85.008,57.209c-0.316,0-0.689,0.21-0.814,0.458
					c-0.023,0.046-0.056,0.134-0.016,0.199c0.039,0.063,0.142,0.103,0.273,0.103h1.967c0.141,0,0.255-0.045,0.306-0.118
					c0.045-0.065,0.029-0.145,0.009-0.198c-0.093-0.236-0.44-0.443-0.745-0.443H85.008z"/>
			</g>
			<g>
				<rect x="85.146" y="55.614" fill="#FFFFFF" width="0.576" height="1.422"/>
				<path fill="#1D1E1C" d="M85.896,57.209h-0.924v-1.77h0.924V57.209z M85.32,56.862h0.229v-1.074H85.32V56.862z"/>
			</g>
			<path fill="#1D1E1C" d="M86.342,55.073c-0.064,0-0.125-0.04-0.148-0.104c-0.03-0.082,0.013-0.174,0.094-0.203
				c0.135-0.049,0.242-0.137,0.287-0.236c0.022-0.049,0.026-0.094,0.012-0.133c-0.018-0.049-0.06-0.076-0.093-0.092
				c-0.099-0.047-0.241-0.044-0.374,0.003c-0.082,0.03-0.172-0.013-0.202-0.095s0.013-0.172,0.095-0.202
				c0.215-0.078,0.44-0.074,0.615,0.008c0.125,0.059,0.214,0.151,0.256,0.271c0.043,0.115,0.036,0.248-0.021,0.373
				c-0.081,0.176-0.251,0.322-0.465,0.4C86.378,55.069,86.359,55.073,86.342,55.073z"/>
		</g>
	</g>
	<g>
		<polygon fill="#FFFFFF" points="64.68,48.245 64.68,53.427 69.264,50.836 		"/>
		<path fill="#FFFFFF" d="M66.183,46.156c2.639,0,4.775,2.143,4.775,4.774c0,2.638-2.137,4.773-4.775,4.773
			c-2.631,0-4.769-2.136-4.769-4.773C61.415,48.298,63.552,46.156,66.183,46.156 M66.183,45.656c-2.905,0-5.269,2.366-5.269,5.274
			s2.363,5.273,5.269,5.273c2.909,0,5.275-2.365,5.275-5.273S69.093,45.656,66.183,45.656L66.183,45.656z"/>
	</g>
</g>
</svg>
