<?xml version="1.0" encoding="utf-8"?>
<!-- Generator: Adobe Illustrator 15.0.2, SVG Export Plug-In . SVG Version: 6.00 Build 0)  -->
<!DOCTYPE svg PUBLIC "-//W3C//DTD SVG 1.1//EN" "http://www.w3.org/Graphics/SVG/1.1/DTD/svg11.dtd">
<svg version="1.1" id="Layer_1" xmlns="http://www.w3.org/2000/svg" xmlns:xlink="http://www.w3.org/1999/xlink" x="0px" y="0px"
	 width="86.693px" height="54.336px" viewBox="0 0 86.693 54.336" enable-background="new 0 0 86.693 54.336" xml:space="preserve">
<g>
	<g>
		<g>
			<path fill="#9E9D9C" d="M86.693,15.5c0,1.65-1.35,3-3,3H3.003c-1.65,0-3-1.35-3-3V3c0-1.649,1.35-3,3-3h80.689
				c1.65,0,3,1.351,3,3L86.693,15.5L86.693,15.5z"/>
		</g>
		<polygon fill="#9E9D9C" points="32.758,17.421 40.717,17.421 43.095,26.838 		"/>
	</g>
	
		<radialGradient id="SVGID_1_" cx="-84.4885" cy="4957.2651" r="39.9379" gradientTransform="matrix(0.4097 0 0 0.0996 84.8467 -445.0484)" gradientUnits="userSpaceOnUse">
		<stop  offset="0" style="stop-color:#9C9C9C"/>
		<stop  offset="0.019" style="stop-color:#A2A1A1"/>
		<stop  offset="0.2086" style="stop-color:#D4D4D4"/>
		<stop  offset="0.3423" style="stop-color:#E2E1E2"/>
		<stop  offset="0.5547" style="stop-color:#F2F2F2"/>
		<stop  offset="0.7721" style="stop-color:#FCFCFC"/>
		<stop  offset="1" style="stop-color:#FFFFFF"/>
	</radialGradient>
	<ellipse fill="url(#SVGID_1_)" cx="50.232" cy="48.712" rx="16.629" ry="4.396"/>
	<g>
		
			<polygon fill="#FFFFFF" stroke="#1E1E1C" stroke-width="0.4721" stroke-linecap="round" stroke-linejoin="round" stroke-miterlimit="10" points="
			49.76,37.643 45.318,35.293 45.551,29.008 50.62,30.721 		"/>
		<polygon fill="#1E1E1C" points="47.284,32.4 46.351,31.961 46.625,31.665 47.301,32.008 		"/>
		<polygon fill="#1E1E1C" points="49.133,33.102 48.284,32.711 48.202,32.258 49.004,32.602 		"/>
		<polygon fill="#1E1E1C" points="48.034,34.977 46.909,34.43 46.663,33.618 48.413,34.43 		"/>
		
			<polygon fill="#FFFFFF" stroke="#1E1E1C" stroke-width="0.4721" stroke-linecap="round" stroke-linejoin="round" stroke-miterlimit="10" points="
			50.62,30.721 45.551,29.008 50.189,29.211 54.219,30.721 		"/>
		
			<polygon fill="#FFFFFF" stroke="#1E1E1C" stroke-width="0.4721" stroke-linecap="round" stroke-linejoin="round" stroke-miterlimit="10" points="
			53.316,36.75 49.76,37.643 50.586,30.721 54.219,30.721 		"/>
		
			<path fill="none" stroke="#1E1E1C" stroke-width="0.4721" stroke-linecap="round" stroke-linejoin="round" stroke-miterlimit="10" d="
			M42.323,40.372c0,0,2.175,3.061,4.131,0.039"/>
		
			<path fill="none" stroke="#1E1E1C" stroke-width="0.4721" stroke-linecap="round" stroke-linejoin="round" stroke-miterlimit="10" d="
			M54.051,39.834c0,0,1.834,0.461-1.918,3.104"/>
		
			<ellipse transform="matrix(-0.9243 -0.3817 0.3817 -0.9243 86.8258 86.4389)" fill="#1E1E1C" cx="51.985" cy="34.609" rx="1.177" ry="1.612"/>
		
			<path fill="none" stroke="#1E1E1C" stroke-width="0.2361" stroke-linecap="round" stroke-linejoin="round" stroke-miterlimit="10" d="
			M47.538,28.988c0.55-1.217,1.455-2.009,2.479-2.009c1.676,0,3.033,2.128,3.033,4.751c0,1.233-0.299,2.358-0.793,3.204"/>
		
			<path fill="none" stroke="#1E1E1C" stroke-width="0.4721" stroke-linecap="round" stroke-linejoin="round" stroke-miterlimit="10" d="
			M52.258,34.934"/>
		
			<path fill="none" stroke="#1E1E1C" stroke-width="0.9443" stroke-linecap="round" stroke-linejoin="round" stroke-miterlimit="10" d="
			M48.728,27.428c1.076-0.621,2.365-0.448,3.258,0.688"/>
		<path fill="#1E1E1C" d="M46.017,37.333c-0.24,0.287-0.746,0.262-1.135-0.061c-0.383-0.32-0.504-0.814-0.265-1.104
			c0.24-0.29,0.748-0.262,1.134,0.062C46.14,36.549,46.258,37.042,46.017,37.333z"/>
		
			<ellipse transform="matrix(-0.9235 -0.3837 0.3837 -0.9235 87.1488 86.9239)" fill="#FFFFFF" cx="52.244" cy="34.77" rx="0.519" ry="0.798"/>
		
			<path fill="none" stroke="#1E1E1C" stroke-width="0.2361" stroke-linecap="round" stroke-linejoin="round" stroke-miterlimit="10" d="
			M52.344,34.814c-1.111,1.594-3.793,4.219-7.025,1.938"/>
		
			<polygon fill="none" stroke="#1E1E1C" stroke-width="0.4721" stroke-linecap="round" stroke-linejoin="round" stroke-miterlimit="10" points="
			42.67,41.846 40.498,41.042 39.097,35.635 41.409,36.458 		"/>
		<text transform="matrix(1 0 0 1 48.2283 41.5503)" fill="#1E1E1C" font-family="'ArialRoundedMTBold'" font-size="1.7676">AR-1</text>
		<g>
			<path fill="none" stroke="#1E1E1C" stroke-width="0.5204" stroke-miterlimit="10" d="M52.728,43.811
				c-0.074,0.562-0.6,1.023-1.168,1.023h-2.496c-0.568,0-1.111-0.458-1.207-1.018l-0.729-4.253
				c-0.097-0.562,0.291-1.019,0.858-1.019h4.401c0.568,0,0.974,0.461,0.896,1.022L52.728,43.811z"/>
		</g>
		<g>
			<path fill="#FFFFFF" d="M52.37,47.787c-0.178-0.455-0.786-0.827-1.354-0.827h-1.463c-0.568,0-1.221,0.372-1.449,0.827
				c-0.228,0.455,0.049,0.827,0.617,0.827h2.938C52.228,48.615,52.549,48.242,52.37,47.787z"/>
			<path fill="none" stroke="#1E1E1C" stroke-width="0.5204" stroke-miterlimit="10" d="M52.37,47.787
				c-0.178-0.455-0.786-0.827-1.354-0.827h-1.463c-0.568,0-1.221,0.372-1.449,0.827c-0.228,0.455,0.049,0.827,0.617,0.827h2.938
				C52.228,48.615,52.549,48.242,52.37,47.787z"/>
		</g>
		
			<rect x="49.76" y="44.834" fill="#FFFFFF" stroke="#1E1E1C" stroke-width="0.5204" stroke-miterlimit="10" width="0.86" height="2.125"/>
		
			<path fill="none" stroke="#1E1E1C" stroke-width="0.4721" stroke-linecap="round" stroke-linejoin="round" stroke-miterlimit="10" d="
			M51.133,42.663c0.438-0.16,0.887-0.039,1,0.271c0.115,0.312-0.148,0.693-0.588,0.854"/>
	</g>
	<g>
		
			<radialGradient id="SVGID_2_" cx="-166.5081" cy="4959.0991" r="39.94" gradientTransform="matrix(0.4097 0 0 0.0996 84.8467 -444.0035)" gradientUnits="userSpaceOnUse">
			<stop  offset="0" style="stop-color:#9C9C9C"/>
			<stop  offset="0.019" style="stop-color:#A2A1A1"/>
			<stop  offset="0.2086" style="stop-color:#D4D4D4"/>
			<stop  offset="0.3423" style="stop-color:#E2E1E2"/>
			<stop  offset="0.5547" style="stop-color:#F2F2F2"/>
			<stop  offset="0.7721" style="stop-color:#FCFCFC"/>
			<stop  offset="1" style="stop-color:#FFFFFF"/>
		</radialGradient>
		<ellipse fill="url(#SVGID_2_)" cx="16.629" cy="49.938" rx="16.629" ry="4.398"/>
		<g>
			<g>
				
					<circle fill="#FFFFFF" stroke="#1E1E1C" stroke-width="0.4721" stroke-linecap="round" stroke-linejoin="round" stroke-miterlimit="10" cx="15.534" cy="28.455" r="4.35"/>
				<path fill="#1E1E1C" d="M17.998,24.873c-0.701-0.481-1.55-0.769-2.464-0.769c-2.401,0-4.35,1.947-4.35,4.351
					c0,0.187,0.016,0.373,0.039,0.554c1.289-0.273,2.784-0.928,4.241-1.925C16.467,26.4,17.323,25.637,17.998,24.873z"/>
				
					<rect x="11.358" y="24.839" transform="matrix(0.8046 0.5938 -0.5938 0.8046 17.4131 -2.0341)" fill="none" stroke="#1E1E1C" stroke-width="0.4028" stroke-linecap="round" stroke-linejoin="round" stroke-miterlimit="10" width="0.88" height="1.212"/>
				<path fill="#1E1E1C" d="M9.786,31.122c0.054-3.445-2.018-4.5-1.688-6.674c0.324-2.146,3.699-1.952,3.705,0.247
					c-0.412,0.557-0.722,0.976-0.722,0.976s-1.206-0.456-1.049,0.77C10.223,27.917,10.277,29.008,9.786,31.122z"/>
				<ellipse fill="#1E1E1C" cx="18.59" cy="27.855" rx="0.297" ry="0.491"/>
				<path fill="#1E1E1C" d="M17.308,29.008c0,0.279-0.156,0.504-0.35,0.504c-0.194,0-0.351-0.225-0.351-0.504
					c0-0.281,0.156-0.506,0.351-0.506C17.152,28.502,17.308,28.727,17.308,29.008z"/>
				<path fill="#1E1E1C" d="M19.054,29.824c0,0-0.465,1.608-1.396,1.039"/>
				
					<rect x="13.011" y="28.786" transform="matrix(0.9234 -0.3839 0.3839 0.9234 -10.6894 7.8233)" fill="#FFFFFF" stroke="#1E1E1C" stroke-width="0.4721" stroke-linecap="round" stroke-linejoin="round" stroke-miterlimit="10" width="2.485" height="3.808"/>
				<g>
					<polyline fill="none" stroke="#1E1E1C" stroke-width="0.4721" stroke-linecap="round" stroke-linejoin="round" points="
						13.875,30.691 11.803,37.618 14.592,34.525 					"/>
				</g>
				
					<polyline fill="none" stroke="#1E1E1C" stroke-width="0.4721" stroke-linecap="round" stroke-linejoin="round" stroke-miterlimit="10" points="
					24.892,33.156 21.724,36.752 18.886,34.156 				"/>
				
					<path fill="none" stroke="#1E1E1C" stroke-width="0.4721" stroke-linecap="round" stroke-linejoin="round" stroke-miterlimit="10" d="
					M15.498,44.557c0,0.154-0.73,5.234-0.73,5.234"/>
				
					<path fill="none" stroke="#1E1E1C" stroke-width="0.4721" stroke-linecap="round" stroke-linejoin="round" stroke-miterlimit="10" d="
					M18.362,44.557c0,0.154,0.228,5.234,0.228,5.234"/>
				<polygon fill="#9D9D9C" points="19.945,43.648 13.974,43.648 15.534,33.788 17.963,33.788 				"/>
			</g>
		</g>
	</g>
	<g>
		<polygon fill="#FFFFFF" points="75.37,6.513 75.37,11.696 79.954,9.105 		"/>
		<g>
			<g>
				<path fill="#FFFFFF" d="M76.875,4.425c2.638,0,4.772,2.144,4.772,4.773c0,2.639-2.137,4.772-4.772,4.772
					c-2.632,0-4.771-2.137-4.771-4.772C72.105,6.567,74.243,4.425,76.875,4.425 M76.875,3.925c-2.905,0-5.271,2.365-5.271,5.273
					s2.363,5.272,5.271,5.272s5.272-2.365,5.272-5.272C82.15,6.291,79.782,3.925,76.875,3.925L76.875,3.925z"/>
			</g>
		</g>
	</g>
</g>
</svg>
