<?xml version="1.0" encoding="utf-8"?>
<!-- Generator: Adobe Illustrator 15.0.2, SVG Export Plug-In . SVG Version: 6.00 Build 0)  -->
<!DOCTYPE svg PUBLIC "-//W3C//DTD SVG 1.1//EN" "http://www.w3.org/Graphics/SVG/1.1/DTD/svg11.dtd">
<svg version="1.1" id="Layer_1" xmlns="http://www.w3.org/2000/svg" xmlns:xlink="http://www.w3.org/1999/xlink" x="0px" y="0px"
	 width="86.795px" height="52.598px" viewBox="0 0 86.795 52.598" enable-background="new 0 0 86.795 52.598" xml:space="preserve">
<g>
	
		<radialGradient id="SVGID_1_" cx="-38.8418" cy="4956.9443" r="39.9359" gradientTransform="matrix(0.4097 0 0 0.0996 84.8768 -445.5226)" gradientUnits="userSpaceOnUse">
		<stop  offset="0" style="stop-color:#9C9C9C"/>
		<stop  offset="0.019" style="stop-color:#A2A1A1"/>
		<stop  offset="0.2086" style="stop-color:#D4D4D4"/>
		<stop  offset="0.3423" style="stop-color:#E2E1E2"/>
		<stop  offset="0.5547" style="stop-color:#F2F2F2"/>
		<stop  offset="0.7721" style="stop-color:#FCFCFC"/>
		<stop  offset="1" style="stop-color:#FFFFFF"/>
	</radialGradient>
	<ellipse fill="url(#SVGID_1_)" cx="68.964" cy="48.205" rx="16.629" ry="4.396"/>
	
		<radialGradient id="SVGID_2_" cx="-147.3672" cy="4954.5684" r="39.9388" gradientTransform="matrix(0.4097 0 0 0.0996 84.8768 -446.8702)" gradientUnits="userSpaceOnUse">
		<stop  offset="0" style="stop-color:#9C9C9C"/>
		<stop  offset="0.019" style="stop-color:#A2A1A1"/>
		<stop  offset="0.2086" style="stop-color:#D4D4D4"/>
		<stop  offset="0.3423" style="stop-color:#E2E1E2"/>
		<stop  offset="0.5547" style="stop-color:#F2F2F2"/>
		<stop  offset="0.7721" style="stop-color:#FCFCFC"/>
		<stop  offset="1" style="stop-color:#FFFFFF"/>
	</radialGradient>
	<ellipse fill="url(#SVGID_2_)" cx="24.5" cy="46.622" rx="16.629" ry="4.397"/>
	<g>
		<g>
			<path fill="#9E9D9C" d="M86.796,16.706c0,1.649-1.35,3-3,3H3c-1.65,0-3-1.351-3-3V2.996c0-1.649,1.35-3,3-3h80.794
				c1.65,0,3,1.351,3,3v13.71H86.796z"/>
		</g>
		<polygon fill="#9E9D9C" points="32.38,18.627 40.338,18.627 42.716,28.043 		"/>
	</g>
	<g>
		<g>
			
				<ellipse transform="matrix(-0.7996 0.6005 -0.6005 -0.7996 126.7719 24.5722)" fill="#1E1E1C" cx="59.286" cy="33.438" rx="0.598" ry="0.364"/>
			<path fill="#1E1E1C" d="M58.841,30.178c0.244,0.883,0.812,2.939,0.812,2.939l0.154,0.041c0,0-0.189-0.688-0.385-1.391
				c-0.166-0.604-0.332-1.211-0.385-1.398l-0.061-0.229L58.841,30.178z"/>
			
				<ellipse transform="matrix(-0.7982 0.6023 -0.6023 -0.7982 130.393 21.9775)" fill="#1E1E1C" cx="61.516" cy="32.827" rx="0.598" ry="0.365"/>
			<path fill="#1E1E1C" d="M61.073,29.567c0.244,0.885,0.812,2.939,0.812,2.939l0.154,0.041c0,0-0.188-0.688-0.383-1.389
				c-0.166-0.604-0.334-1.213-0.385-1.398l-0.062-0.23L61.073,29.567z"/>
			
				<rect x="59.009" y="29.843" transform="matrix(-0.9647 0.2634 -0.2634 -0.9647 125.9972 43.3159)" fill="#1E1E1C" width="2.172" height="0.523"/>
			
				<rect x="59.192" y="30.608" transform="matrix(-0.9645 0.2643 -0.2643 -0.9645 126.5448 44.5148)" fill="#1E1E1C" width="2.173" height="0.322"/>
		</g>
		<g>
			<g>
				
					<ellipse transform="matrix(-0.9177 0.3972 -0.3972 -0.9177 119.8547 36.0164)" fill="#1E1E1C" cx="56.197" cy="30.421" rx="0.356" ry="0.216"/>
				<path fill="#1E1E1C" d="M56.534,30.332c0,0-0.043-1.471-0.053-1.721c0.119,0.109,0.438,0.371,0.287,0.807
					c0.336-0.643-0.32-0.816-0.381-1.158c0.008,0.25,0.062,2.025,0.062,2.025L56.534,30.332z"/>
			</g>
		</g>
		
			<polygon fill="#FFFFFF" stroke="#1E1E1C" stroke-width="0.4721" stroke-linecap="round" stroke-linejoin="round" stroke-miterlimit="10" points="
			68.483,36.971 64.044,34.621 64.274,28.334 69.343,30.047 		"/>
		<polygon fill="#1E1E1C" points="65.925,31.555 64.841,31.158 65.13,30.836 65.804,31.182 		"/>
		<polygon fill="#1E1E1C" points="67.948,32.451 66.78,31.951 67.009,31.643 67.812,31.987 		"/>
		<polygon fill="#1E1E1C" points="66.489,34.223 65.632,33.756 65.655,32.91 66.55,33.348 		"/>
		
			<polygon fill="#FFFFFF" stroke="#1E1E1C" stroke-width="0.4721" stroke-linecap="round" stroke-linejoin="round" stroke-miterlimit="10" points="
			69.343,30.047 64.274,28.334 68.913,28.537 72.942,30.047 		"/>
		
			<polygon fill="#FFFFFF" stroke="#1E1E1C" stroke-width="0.4721" stroke-linecap="round" stroke-linejoin="round" stroke-miterlimit="10" points="
			72.04,36.078 68.483,36.971 69.31,30.047 72.942,30.047 		"/>
		
			<path fill="none" stroke="#1E1E1C" stroke-width="0.4721" stroke-linecap="round" stroke-linejoin="round" stroke-miterlimit="10" d="
			M57.728,38.498c0,0,0.445,1.289,0.938,1.416c1.531,0.396,4.195,0.312,6.469-1.135"/>
		
			<ellipse transform="matrix(-0.9243 -0.3817 0.3817 -0.9243 123.118 92.2948)" fill="#1E1E1C" cx="70.712" cy="33.938" rx="1.177" ry="1.612"/>
		
			<path fill="none" stroke="#1E1E1C" stroke-width="0.2361" stroke-linecap="round" stroke-linejoin="round" stroke-miterlimit="10" d="
			M66.261,28.315c0.551-1.217,1.455-2.009,2.48-2.009c1.676,0,3.033,2.128,3.033,4.751c0,1.234-0.299,2.359-0.793,3.205"/>
		
			<path fill="none" stroke="#1E1E1C" stroke-width="0.4721" stroke-linecap="round" stroke-linejoin="round" stroke-miterlimit="10" d="
			M70.981,34.262"/>
		
			<path fill="none" stroke="#1E1E1C" stroke-width="0.9443" stroke-linecap="round" stroke-linejoin="round" stroke-miterlimit="10" d="
			M67.452,26.754c1.076-0.619,2.365-0.448,3.258,0.688"/>
		<path fill="#1E1E1C" d="M64.741,36.66c-0.24,0.287-0.746,0.262-1.135-0.061c-0.385-0.318-0.504-0.814-0.266-1.104
			c0.24-0.289,0.748-0.264,1.135,0.061C64.864,35.877,64.981,36.369,64.741,36.66z"/>
		
			<ellipse transform="matrix(-0.9241 -0.3821 0.3821 -0.9241 123.5196 92.7329)" fill="#FFFFFF" cx="70.967" cy="34.103" rx="0.519" ry="0.796"/>
		
			<path fill="none" stroke="#1E1E1C" stroke-width="0.2361" stroke-linecap="round" stroke-linejoin="round" stroke-miterlimit="10" d="
			M71.067,34.141c-1.111,1.594-3.793,4.221-7.025,1.938"/>
		<text transform="matrix(1 0 0 1 66.9512 40.8762)" fill="#1E1E1C" font-family="'ArialRoundedMTBold'" font-size="1.7676">AR-1</text>
		<g>
			<path fill="none" stroke="#1E1E1C" stroke-width="0.5204" stroke-miterlimit="10" d="M71.452,43.139
				c-0.074,0.561-0.6,1.021-1.168,1.021h-2.496c-0.568,0-1.111-0.457-1.207-1.018l-0.729-4.254
				c-0.098-0.561,0.291-1.018,0.857-1.018h4.402c0.566,0,0.973,0.461,0.896,1.021L71.452,43.139z"/>
		</g>
		<g>
			<path fill="#FFFFFF" d="M71.093,47.115c-0.178-0.455-0.787-0.828-1.354-0.828h-1.463c-0.568,0-1.223,0.373-1.449,0.828
				c-0.23,0.453,0.049,0.824,0.617,0.824h2.938C70.952,47.942,71.272,47.569,71.093,47.115z"/>
			<path fill="none" stroke="#1E1E1C" stroke-width="0.5204" stroke-miterlimit="10" d="M71.093,47.115
				c-0.178-0.455-0.787-0.828-1.354-0.828h-1.463c-0.568,0-1.223,0.373-1.449,0.828c-0.23,0.453,0.049,0.824,0.617,0.824h2.938
				C70.952,47.942,71.272,47.569,71.093,47.115z"/>
		</g>
		
			<rect x="68.483" y="44.162" fill="#FFFFFF" stroke="#1E1E1C" stroke-width="0.5204" stroke-miterlimit="10" width="0.859" height="2.125"/>
		<g>
			
				<path fill="#BABABA" stroke="#1E1E1C" stroke-width="0.4721" stroke-linecap="round" stroke-linejoin="round" stroke-miterlimit="10" d="
				M68.733,39.604c-0.727,0-1.383,0.266-1.918,0.693c-0.359-1.258-1.684-2.193-3.271-2.193c-1.865,0-3.375,1.287-3.375,2.875
				s1.51,2.875,3.375,2.875c0.766,0,1.461-0.227,2.027-0.59c0.139,1.729,1.492,3.09,3.16,3.09c1.76,0,3.188-1.512,3.188-3.375
				C71.921,41.114,70.493,39.604,68.733,39.604z"/>
			
				<line fill="none" stroke="#1E1E1C" stroke-width="0.4721" stroke-linecap="round" stroke-linejoin="round" stroke-miterlimit="10" x1="69.435" y1="42.457" x2="53.81" y2="34.854"/>
			
				<line fill="none" stroke="#1E1E1C" stroke-width="0.4721" stroke-linecap="round" stroke-linejoin="round" stroke-miterlimit="10" x1="69.165" y1="43.022" x2="53.071" y2="35.897"/>
			
				<line fill="none" stroke="#1E1E1C" stroke-width="0.4721" stroke-linecap="round" stroke-linejoin="round" stroke-miterlimit="10" x1="68.894" y1="43.563" x2="52.915" y2="36.748"/>
			
				<rect x="52.252" y="34.395" transform="matrix(0.9232 0.3842 -0.3842 0.9232 18.1487 -18.0516)" fill="none" stroke="#1E1E1C" stroke-width="0.4721" stroke-linecap="round" stroke-linejoin="round" stroke-miterlimit="10" width="4" height="4"/>
			<circle fill="#1E1E1C" cx="67.733" cy="42.328" r="1.35"/>
			
				<line fill="none" stroke="#1E1E1C" stroke-width="0.4721" stroke-linecap="round" stroke-linejoin="round" stroke-miterlimit="10" x1="54.296" y1="33.229" x2="53.921" y2="33.979"/>
			
				<line fill="none" stroke="#1E1E1C" stroke-width="0.4721" stroke-linecap="round" stroke-linejoin="round" stroke-miterlimit="10" x1="55.696" y1="33.707" x2="55.296" y2="34.479"/>
			
				<line fill="none" stroke="#1E1E1C" stroke-width="0.4721" stroke-linecap="round" stroke-linejoin="round" stroke-miterlimit="10" x1="56.796" y1="34.289" x2="56.296" y2="34.914"/>
			
				<line fill="none" stroke="#1E1E1C" stroke-width="0.4721" stroke-linecap="round" stroke-linejoin="round" stroke-miterlimit="10" x1="52.296" y1="37.729" x2="52.046" y2="38.604"/>
			
				<line fill="none" stroke="#1E1E1C" stroke-width="0.4721" stroke-linecap="round" stroke-linejoin="round" stroke-miterlimit="10" x1="53.296" y1="38.229" x2="53.171" y2="38.979"/>
			
				<line fill="none" stroke="#1E1E1C" stroke-width="0.4721" stroke-linecap="round" stroke-linejoin="round" stroke-miterlimit="10" x1="54.513" y1="38.854" x2="54.29" y2="39.49"/>
		</g>
		
			<path fill="none" stroke="#1E1E1C" stroke-width="0.4721" stroke-linecap="round" stroke-linejoin="round" stroke-miterlimit="10" d="
			M72.774,39.162c0,0,1.834,0.461-1.918,3.102"/>
		
			<path fill="none" stroke="#1E1E1C" stroke-width="0.4721" stroke-linecap="round" stroke-linejoin="round" stroke-miterlimit="10" d="
			M69.856,41.99c0.438-0.16,0.887-0.039,1,0.271c0.113,0.312-0.148,0.693-0.588,0.854"/>
		
			<path fill="none" stroke="#1E1E1C" stroke-width="0.4721" stroke-linecap="round" stroke-linejoin="round" stroke-miterlimit="10" d="
			M58.505,37.955c-0.152,0.439-0.529,0.711-0.844,0.604s-0.443-0.557-0.291-0.996"/>
	</g>
	<g>
		<g>
			
				<ellipse transform="matrix(-0.8637 0.504 -0.504 -0.8637 29.2754 50.0645)" fill="#1E1E1C" cx="7.869" cy="28.99" rx="0.589" ry="0.364"/>
			<path fill="#1E1E1C" d="M7.805,25.751c0.136,0.894,0.453,2.972,0.453,2.972l0.148,0.059c0,0-0.105-0.695-0.215-1.404
				c-0.094-0.607-0.188-1.224-0.217-1.414l-0.035-0.23L7.805,25.751z"/>
		</g>
		<g>
			
				<ellipse transform="matrix(-0.9858 0.168 -0.168 -0.9858 13.4493 50.2047)" fill="#1E1E1C" cx="4.601" cy="25.671" rx="0.41" ry="0.251"/>
			<path fill="#1E1E1C" d="M5.005,25.666c0,0,0.352-1.654,0.41-1.938c0.104,0.153,0.391,0.535,0.101,0.978
				c0.552-0.626-0.136-1-0.108-1.397c-0.061,0.282-0.484,2.282-0.484,2.282L5.005,25.666z"/>
			<path fill="#1E1E1C" d="M5.271,24.412c0.102,0.155,0.389,0.537,0.1,0.979c0.445-0.506,0.082-0.85-0.059-1.173L5.271,24.412z"/>
		</g>
		<g>
			
				<ellipse transform="matrix(-0.799 0.6013 -0.6013 -0.799 40.0393 50.2902)" fill="#1E1E1C" cx="11.615" cy="31.836" rx="0.942" ry="0.574"/>
			<path fill="#1E1E1C" d="M10.909,26.704c0.383,1.392,1.275,4.632,1.275,4.632l0.244,0.066c0,0-0.299-1.086-0.604-2.189
				c-0.26-0.949-0.524-1.91-0.605-2.207l-0.1-0.36L10.909,26.704z"/>
			
				<ellipse transform="matrix(-0.7988 0.6016 -0.6016 -0.7988 45.7861 46.4325)" fill="#1E1E1C" cx="15.129" cy="30.872" rx="0.943" ry="0.576"/>
			<path fill="#1E1E1C" d="M14.423,25.741c0.382,1.394,1.275,4.632,1.275,4.632l0.244,0.066c0,0-0.296-1.088-0.602-2.189
				c-0.261-0.947-0.526-1.91-0.606-2.207l-0.102-0.359L14.423,25.741z"/>
			
				<rect x="11.168" y="26.179" transform="matrix(-0.9645 0.264 -0.264 -0.9645 32.3248 48.8364)" fill="#1E1E1C" width="3.425" height="0.822"/>
			
				<rect x="11.458" y="27.38" transform="matrix(-0.9644 0.2646 -0.2646 -0.9644 33.1821 50.7969)" fill="#1E1E1C" width="3.425" height="0.506"/>
		</g>
		<g>
			<g>
				
					<ellipse transform="matrix(-0.9173 0.3981 -0.3981 -0.9173 13.1135 49.1642)" fill="#1E1E1C" cx="1.452" cy="25.944" rx="0.357" ry="0.218"/>
				<path fill="#1E1E1C" d="M1.789,25.857c0,0-0.043-1.471-0.053-1.722c0.119,0.11,0.439,0.372,0.287,0.807
					c0.336-0.642-0.32-0.816-0.379-1.158c0.006,0.25,0.062,2.026,0.062,2.026L1.789,25.857z"/>
			</g>
		</g>
		<g>
			
				<circle fill="#FFFFFF" stroke="#1E1E1C" stroke-width="0.4346" stroke-linecap="round" stroke-linejoin="round" stroke-miterlimit="10" cx="23.24" cy="27.068" r="4.003"/>
			<path fill="#1E1E1C" d="M25.506,23.769c-0.645-0.442-1.426-0.706-2.268-0.706c-2.211,0-4.002,1.794-4.002,4.005
				c0,0.172,0.014,0.342,0.035,0.51c1.186-0.254,2.563-0.854,3.904-1.771C24.096,25.177,24.886,24.475,25.506,23.769z"/>
			
				<rect x="19.396" y="23.737" transform="matrix(0.8035 0.5953 -0.5953 0.8035 18.3519 -7.013)" fill="none" stroke="#1E1E1C" stroke-width="0.3708" stroke-linecap="round" stroke-linejoin="round" stroke-miterlimit="10" width="0.809" height="1.116"/>
			<path fill="#1E1E1C" d="M17.948,29.522c0.049-3.17-1.855-4.142-1.552-6.144c0.298-1.978,3.403-1.797,3.411,0.229
				c-0.381,0.513-0.666,0.896-0.666,0.896s-1.109-0.419-0.963,0.707C18.353,26.573,18.401,27.576,17.948,29.522z"/>
			<ellipse fill="#1E1E1C" cx="26.051" cy="26.515" rx="0.272" ry="0.452"/>
			<ellipse fill="#1E1E1C" cx="24.552" cy="27.577" rx="0.321" ry="0.464"/>
			<path fill="#1E1E1C" d="M26.481,28.328c0,0-0.429,1.479-1.287,0.955"/>
			
				<rect x="20.918" y="27.373" transform="matrix(0.9232 -0.3843 0.3843 0.9232 -9.4989 10.7151)" fill="#FFFFFF" stroke="#1E1E1C" stroke-width="0.4346" stroke-linecap="round" stroke-linejoin="round" stroke-miterlimit="10" width="2.287" height="3.504"/>
			<g>
				<polyline fill="none" stroke="#1E1E1C" stroke-width="0.4346" stroke-linecap="round" stroke-linejoin="round" points="
					21.712,29.125 20.044,34.705 22.373,32.656 				"/>
			</g>
			
				<polyline fill="none" stroke="#1E1E1C" stroke-width="0.4346" stroke-linecap="round" stroke-linejoin="round" stroke-miterlimit="10" points="
				27.244,36.516 28.746,33.338 26.323,32.315 			"/>
			
				<path fill="none" stroke="#1E1E1C" stroke-width="0.4346" stroke-linecap="round" stroke-linejoin="round" stroke-miterlimit="10" d="
				M23.207,41.891c0,0.143-0.672,4.816-0.672,4.816"/>
			
				<path fill="none" stroke="#1E1E1C" stroke-width="0.4346" stroke-linecap="round" stroke-linejoin="round" stroke-miterlimit="10" d="
				M25.843,41.891c0,0.143,0.209,4.816,0.209,4.816"/>
			<polygon fill="#9D9D9C" points="27.299,41.053 21.803,41.053 23.239,31.977 25.476,31.977 			"/>
		</g>
	</g>
</g>
</svg>
