<?xml version="1.0" encoding="utf-8"?>
<!-- Generator: Adobe Illustrator 15.0.2, SVG Export Plug-In . SVG Version: 6.00 Build 0)  -->
<!DOCTYPE svg PUBLIC "-//W3C//DTD SVG 1.1//EN" "http://www.w3.org/Graphics/SVG/1.1/DTD/svg11.dtd">
<svg version="1.1" id="Layer_1" xmlns="http://www.w3.org/2000/svg" xmlns:xlink="http://www.w3.org/1999/xlink" x="0px" y="0px"
	 width="90.492px" height="50.953px" viewBox="0 0 90.492 50.953" enable-background="new 0 0 90.492 50.953" xml:space="preserve">
<g>
	<g>
		<g>
			<path fill="#9E9D9C" d="M90.492,14.296c0,1.727-1.412,3.139-3.14,3.139H6.834c-1.727,0-3.139-1.412-3.139-3.139V3.139
				C3.695,1.41,5.107,0,6.834,0h80.519c1.728,0,3.14,1.41,3.14,3.139V14.296z"/>
		</g>
		<polygon fill="#9E9D9C" points="44.658,16.355 52.615,16.355 54.994,25.772 		"/>
	</g>
	
		<radialGradient id="SVGID_1_" cx="-62.1416" cy="4954.8789" r="39.9382" gradientTransform="matrix(0.4097 0 0 0.0996 85.9681 -446.9653)" gradientUnits="userSpaceOnUse">
		<stop  offset="0" style="stop-color:#9C9C9C"/>
		<stop  offset="0.019" style="stop-color:#A2A1A1"/>
		<stop  offset="0.2086" style="stop-color:#D4D4D4"/>
		<stop  offset="0.3423" style="stop-color:#E2E1E2"/>
		<stop  offset="0.5547" style="stop-color:#F2F2F2"/>
		<stop  offset="0.7721" style="stop-color:#FCFCFC"/>
		<stop  offset="1" style="stop-color:#FFFFFF"/>
	</radialGradient>
	<ellipse fill="url(#SVGID_1_)" cx="60.509" cy="46.555" rx="16.629" ry="4.398"/>
	
		<radialGradient id="SVGID_2_" cx="-169.2441" cy="4952.9395" r="39.9396" gradientTransform="matrix(0.4097 0 0 0.0996 85.9681 -448.0659)" gradientUnits="userSpaceOnUse">
		<stop  offset="0" style="stop-color:#9C9C9C"/>
		<stop  offset="0.019" style="stop-color:#A2A1A1"/>
		<stop  offset="0.2086" style="stop-color:#D4D4D4"/>
		<stop  offset="0.3423" style="stop-color:#E2E1E2"/>
		<stop  offset="0.5547" style="stop-color:#F2F2F2"/>
		<stop  offset="0.7721" style="stop-color:#FCFCFC"/>
		<stop  offset="1" style="stop-color:#FFFFFF"/>
	</radialGradient>
	<ellipse fill="url(#SVGID_2_)" cx="16.629" cy="45.264" rx="16.629" ry="4.396"/>
	<g>
		<g>
			
				<path fill="#FFFFFF" stroke="#1E1E1C" stroke-width="0.4414" stroke-linecap="round" stroke-linejoin="round" stroke-miterlimit="10" d="
				M18.709,25.381c0,2.248-1.82,4.068-4.066,4.068c-2.247,0-4.067-1.82-4.067-4.068c0-2.244,1.82-4.064,4.067-4.064
				C16.889,21.316,18.709,23.137,18.709,25.381z"/>
			<path fill="#1E1E1C" d="M16.945,22.032c-0.656-0.448-1.447-0.717-2.303-0.717c-2.247,0-4.067,1.821-4.067,4.065
				c0,0.178,0.014,0.349,0.036,0.52c1.205-0.258,2.604-0.868,3.966-1.801C15.514,23.461,16.314,22.75,16.945,22.032z"/>
			
				<rect x="10.735" y="22.003" transform="matrix(0.8017 0.5977 -0.5977 0.8017 15.7006 -2.1874)" fill="none" stroke="#1E1E1C" stroke-width="0.3766" stroke-linecap="round" stroke-linejoin="round" stroke-miterlimit="10" width="0.823" height="1.132"/>
			<path fill="#1E1E1C" d="M9.269,27.877c0.049-3.221-1.887-4.207-1.578-6.239c0.303-2.009,3.457-1.826,3.465,0.229
				c-0.387,0.521-0.676,0.909-0.676,0.909S9.353,22.35,9.5,23.496C9.677,24.881,9.729,25.901,9.269,27.877z"/>
			<path fill="#1E1E1C" d="M17.775,24.822c0,0.254-0.123,0.459-0.277,0.459c-0.15,0-0.277-0.205-0.277-0.459
				c0-0.256,0.127-0.461,0.277-0.461C17.652,24.361,17.775,24.567,17.775,24.822z"/>
			<ellipse fill="#1E1E1C" cx="15.973" cy="25.901" rx="0.327" ry="0.472"/>
			<path fill="#1E1E1C" d="M17.933,26.664c0,0-0.436,1.504-1.305,0.971"/>
			
				<rect x="12.284" y="25.692" transform="matrix(0.9232 -0.3844 0.3844 0.9232 -9.5278 7.2793)" fill="#FFFFFF" stroke="#1E1E1C" stroke-width="0.4414" stroke-linecap="round" stroke-linejoin="round" stroke-miterlimit="10" width="2.322" height="3.562"/>
			<g>
				<polyline fill="none" stroke="#1E1E1C" stroke-width="0.4414" stroke-linecap="round" stroke-linejoin="round" points="
					13.091,27.473 11.397,33.141 13.759,31.057 				"/>
			</g>
			
				<polyline fill="none" stroke="#1E1E1C" stroke-width="0.4414" stroke-linecap="round" stroke-linejoin="round" stroke-miterlimit="10" points="
				18.709,34.978 20.234,31.754 17.775,30.711 			"/>
			
				<path fill="none" stroke="#1E1E1C" stroke-width="0.4414" stroke-linecap="round" stroke-linejoin="round" stroke-miterlimit="10" d="
				M14.607,40.438c0,0.104-0.354,2.603-0.553,3.987c-0.077,0.535-1.024,0.791-1.024,0.791"/>
			
				<path fill="none" stroke="#1E1E1C" stroke-width="0.4414" stroke-linecap="round" stroke-linejoin="round" stroke-miterlimit="10" d="
				M17.287,40.438c0,0.104,0.111,2.646,0.172,4.022c0.023,0.519,1.057,0.369,1.057,0.369"/>
			<polygon fill="#9D9D9C" points="18.765,39.588 13.183,39.588 14.642,30.37 16.912,30.37 			"/>
		</g>
	</g>
	<path fill="#F29107" d="M42.728,15.521"/>
	<g>
		<g>
			
				<polygon fill="#FFFFFF" stroke="#1E1E1C" stroke-width="0.4721" stroke-linecap="round" stroke-linejoin="round" stroke-miterlimit="10" points="
				59.997,35.514 55.558,33.168 55.79,26.881 60.859,28.592 			"/>
			<polygon fill="#1E1E1C" points="57.443,30.1 56.359,29.705 56.644,29.383 57.32,29.725 			"/>
			<polygon fill="#1E1E1C" points="59.462,30.995 58.296,30.495 58.525,30.188 59.327,30.532 			"/>
			<polygon fill="#1E1E1C" points="58.054,32.516 57.22,32.223 56.929,31.348 58.867,32.414 			"/>
			
				<polygon fill="#FFFFFF" stroke="#1E1E1C" stroke-width="0.4721" stroke-linecap="round" stroke-linejoin="round" stroke-miterlimit="10" points="
				60.859,28.592 55.79,26.881 60.427,27.084 64.456,28.592 			"/>
			
				<polygon fill="#FFFFFF" stroke="#1E1E1C" stroke-width="0.4721" stroke-linecap="round" stroke-linejoin="round" stroke-miterlimit="10" points="
				63.554,34.623 59.997,35.514 60.824,28.592 64.456,28.592 			"/>
			
				<path fill="none" stroke="#1E1E1C" stroke-width="0.4721" stroke-linecap="round" stroke-linejoin="round" stroke-miterlimit="10" d="
				M52.563,38.243c0,0,2.173,3.062,4.13,0.041"/>
			
				<path fill="none" stroke="#1E1E1C" stroke-width="0.4721" stroke-linecap="round" stroke-linejoin="round" stroke-miterlimit="10" d="
				M64.288,37.707c0,0,1.836,0.463-1.918,3.102"/>
			
				<ellipse transform="matrix(-0.9243 -0.3816 0.3816 -0.9243 107.3428 86.2532)" fill="#1E1E1C" cx="62.223" cy="32.484" rx="1.179" ry="1.614"/>
			
				<path fill="none" stroke="#1E1E1C" stroke-width="0.2361" stroke-linecap="round" stroke-linejoin="round" stroke-miterlimit="10" d="
				M57.777,26.858c0.551-1.216,1.454-2.009,2.479-2.009c1.676,0,3.031,2.128,3.031,4.753c0,1.233-0.299,2.358-0.791,3.202"/>
			
				<path fill="none" stroke="#1E1E1C" stroke-width="0.4721" stroke-linecap="round" stroke-linejoin="round" stroke-miterlimit="10" d="
				M62.497,32.805"/>
			
				<path fill="none" stroke="#1E1E1C" stroke-width="0.9443" stroke-linecap="round" stroke-linejoin="round" stroke-miterlimit="10" d="
				M58.966,25.299c1.076-0.619,2.365-0.449,3.258,0.688"/>
			<path fill="#1E1E1C" d="M56.255,35.207c-0.24,0.285-0.746,0.26-1.135-0.062c-0.383-0.318-0.502-0.812-0.266-1.102
				c0.24-0.289,0.748-0.266,1.135,0.061C56.378,34.424,56.497,34.916,56.255,35.207z"/>
			
				<ellipse transform="matrix(-0.9241 -0.3821 0.3821 -0.9241 107.739 86.6808)" fill="#FFFFFF" cx="62.476" cy="32.644" rx="0.519" ry="0.796"/>
			
				<path fill="none" stroke="#1E1E1C" stroke-width="0.2361" stroke-linecap="round" stroke-linejoin="round" stroke-miterlimit="10" d="
				M62.581,32.684c-1.111,1.595-3.793,4.222-7.025,1.939"/>
			<text transform="matrix(1 0 0 1 58.4668 39.4219)" fill="#1E1E1C" font-family="'ArialRoundedMTBold'" font-size="1.7676">AR-1</text>
			<g>
				<path fill="none" stroke="#1E1E1C" stroke-width="0.5204" stroke-miterlimit="10" d="M62.966,41.682
					c-0.074,0.562-0.6,1.023-1.168,1.023h-2.496c-0.567,0-1.111-0.457-1.207-1.019l-0.729-4.253
					c-0.098-0.559,0.291-1.018,0.857-1.018h4.401c0.568,0,0.974,0.461,0.897,1.022L62.966,41.682z"/>
			</g>
			<g>
				<path fill="#FFFFFF" d="M62.609,45.659c-0.179-0.452-0.787-0.825-1.354-0.825h-1.464c-0.567,0-1.221,0.373-1.448,0.825
					c-0.228,0.454,0.049,0.826,0.616,0.826h2.938C62.466,46.485,62.786,46.113,62.609,45.659z"/>
				<path fill="none" stroke="#1E1E1C" stroke-width="0.5204" stroke-miterlimit="10" d="M62.609,45.659
					c-0.179-0.452-0.787-0.825-1.354-0.825h-1.464c-0.567,0-1.221,0.373-1.448,0.825c-0.228,0.454,0.049,0.826,0.616,0.826h2.938
					C62.466,46.485,62.786,46.113,62.609,45.659z"/>
			</g>
			
				<rect x="59.997" y="42.707" fill="#FFFFFF" stroke="#1E1E1C" stroke-width="0.5204" stroke-miterlimit="10" width="0.859" height="2.127"/>
			
				<path fill="none" stroke="#1E1E1C" stroke-width="0.4721" stroke-linecap="round" stroke-linejoin="round" stroke-miterlimit="10" d="
				M61.37,40.534c0.438-0.157,0.889-0.036,1,0.272c0.115,0.312-0.148,0.695-0.586,0.855"/>
		</g>
	</g>
	<g>
		<path fill="#1E1E1C" d="M54.397,35.807l-7.366-3.739c-0.199-0.103-0.445-0.021-0.547,0.183l-1.943,3.83
			c-0.102,0.2-0.023,0.444,0.176,0.547l7.368,3.739c0.201,0.101,0.445,0.021,0.551-0.18l1.941-3.83
			C54.679,36.153,54.599,35.909,54.397,35.807z"/>
		<path fill="#FFFFFF" d="M52.312,39.698c-0.045,0.091-0.157,0.127-0.248,0.082l-6.854-3.479c-0.092-0.045-0.129-0.158-0.082-0.25
			l1.683-3.312c0.045-0.092,0.158-0.125,0.248-0.08l6.853,3.479c0.095,0.047,0.131,0.158,0.084,0.248L52.312,39.698z"/>
		<path fill="#1E1E1C" d="M51.677,35.84c-0.631-0.319-1.399-0.067-1.723,0.562c-0.148,0.293-0.172,0.615-0.094,0.91l-1.365-0.693
			c0.283-0.107,0.527-0.318,0.68-0.611c0.318-0.631,0.068-1.4-0.562-1.725c-0.632-0.316-1.402-0.066-1.722,0.564
			c-0.313,0.617-0.076,1.373,0.531,1.701l-0.004,0.002l3.172,1.607v-0.004c0.615,0.268,1.342,0.014,1.648-0.596
			C52.56,36.932,52.308,36.159,51.677,35.84z M47.687,36.108c-0.377-0.19-0.526-0.651-0.336-1.028
			c0.191-0.38,0.652-0.529,1.031-0.337c0.377,0.188,0.527,0.649,0.334,1.029C48.525,36.149,48.063,36.299,47.687,36.108z
			 M50.755,37.666c-0.379-0.191-0.529-0.652-0.34-1.029c0.191-0.379,0.654-0.529,1.033-0.338c0.377,0.191,0.525,0.65,0.336,1.031
			C51.591,37.707,51.13,37.856,50.755,37.666z"/>
	</g>
</g>
</svg>
