<?xml version="1.0" encoding="utf-8"?>
<!-- Generator: Adobe Illustrator 15.0.2, SVG Export Plug-In . SVG Version: 6.00 Build 0)  -->
<!DOCTYPE svg PUBLIC "-//W3C//DTD SVG 1.1//EN" "http://www.w3.org/Graphics/SVG/1.1/DTD/svg11.dtd">
<svg version="1.1" id="Layer_1" xmlns="http://www.w3.org/2000/svg" xmlns:xlink="http://www.w3.org/1999/xlink" x="0px" y="0px"
	 width="47.907px" height="28.697px" viewBox="0 0 47.907 28.697" enable-background="new 0 0 47.907 28.697" xml:space="preserve">
<g>
	<g>
		
			<radialGradient id="SVGID_1_" cx="-84.8032" cy="5171.7803" r="36.5059" gradientTransform="matrix(0.4097 0 0 0.0996 49.9406 -490.4466)" gradientUnits="userSpaceOnUse">
			<stop  offset="0" style="stop-color:#7EABCE"/>
			<stop  offset="0.1505" style="stop-color:#AECDE6"/>
			<stop  offset="0.3067" style="stop-color:#DAEFFD"/>
			<stop  offset="0.3892" style="stop-color:#E3F3FE"/>
			<stop  offset="0.5865" style="stop-color:#F3FAFF"/>
			<stop  offset="0.7883" style="stop-color:#FCFEFF"/>
			<stop  offset="1" style="stop-color:#FFFFFF"/>
		</radialGradient>
		<ellipse fill="url(#SVGID_1_)" cx="15.197" cy="24.677" rx="15.198" ry="4.021"/>
		<g>
			<g>
				
					<circle fill="#FFFFFF" stroke="#1E1E1C" stroke-width="0.4315" stroke-linecap="round" stroke-linejoin="round" stroke-miterlimit="10" cx="14.198" cy="5.043" r="3.975"/>
				<path fill="#1E1E1C" d="M16.45,1.767c-0.641-0.439-1.418-0.701-2.252-0.701c-2.197,0-3.975,1.78-3.975,3.978
					c0,0.172,0.014,0.34,0.035,0.505c1.178-0.25,2.545-0.847,3.877-1.757C15.05,3.164,15.835,2.469,16.45,1.767z"/>
				
					<polygon fill="none" stroke="#1E1E1C" stroke-width="0.3682" stroke-linecap="round" stroke-linejoin="round" stroke-miterlimit="10" points="
					10.774,2.975 10.132,2.499 10.788,1.608 11.436,2.085 				"/>
				<path fill="#1E1E1C" d="M8.944,7.482C8.993,4.334,7.1,3.367,7.403,1.38c0.295-1.962,3.383-1.784,3.385,0.229
					C10.409,2.116,10.132,2.5,10.132,2.5S9.028,2.081,9.173,3.2C9.345,4.552,9.393,5.548,8.944,7.482z"/>
				<ellipse fill="#1E1E1C" cx="16.991" cy="4.493" rx="0.271" ry="0.45"/>
				<ellipse fill="#1E1E1C" cx="15.5" cy="5.548" rx="0.319" ry="0.462"/>
				<path fill="#1E1E1C" d="M17.415,6.293c0,0-0.424,1.472-1.275,0.951"/>
				
					<rect x="11.892" y="5.347" transform="matrix(0.9237 -0.3831 0.3831 0.9237 -1.7209 5.5321)" fill="#FFFFFF" stroke="#1E1E1C" stroke-width="0.4315" stroke-linecap="round" stroke-linejoin="round" stroke-miterlimit="10" width="2.271" height="3.479"/>
				<g>
					<polyline fill="none" stroke="#1E1E1C" stroke-width="0.4315" stroke-linecap="round" stroke-linejoin="round" points="
						12.68,7.088 10.788,13.418 13.337,10.59 					"/>
				</g>
				
					<polyline fill="none" stroke="#1E1E1C" stroke-width="0.4315" stroke-linecap="round" stroke-linejoin="round" stroke-miterlimit="10" points="
					22.751,9.339 19.856,12.628 17.263,10.253 				"/>
				
					<path fill="none" stroke="#1E1E1C" stroke-width="0.4315" stroke-linecap="round" stroke-linejoin="round" stroke-miterlimit="10" d="
					M14.163,19.761c0,0.142-0.666,4.783-0.666,4.783"/>
				
					<path fill="none" stroke="#1E1E1C" stroke-width="0.4315" stroke-linecap="round" stroke-linejoin="round" stroke-miterlimit="10" d="
					M16.782,19.761c0,0.142,0.209,4.783,0.209,4.783"/>
				<polygon fill="#1C99CE" points="18.229,18.929 12.77,18.929 14.198,9.917 16.417,9.917 				"/>
			</g>
		</g>
	</g>
	<g>
		<g>
			<path fill="#1E1E1C" d="M34.559,22.908c0,0.137-0.032,0.285-0.103,0.444c-0.065,0.16-0.174,0.316-0.317,0.472
				c-0.146,0.155-0.33,0.276-0.556,0.375c-0.228,0.096-0.487,0.143-0.788,0.143c-0.228,0-0.435-0.021-0.619-0.062
				c-0.188-0.043-0.354-0.108-0.509-0.201c-0.151-0.09-0.291-0.211-0.418-0.358c-0.114-0.135-0.211-0.287-0.291-0.455
				c-0.079-0.168-0.141-0.346-0.182-0.534c-0.039-0.191-0.062-0.394-0.062-0.605c0-0.348,0.051-0.658,0.152-0.934
				c0.1-0.273,0.244-0.509,0.434-0.703c0.188-0.195,0.408-0.345,0.66-0.445c0.254-0.102,0.523-0.152,0.809-0.152
				c0.352,0,0.66,0.068,0.934,0.209c0.271,0.141,0.48,0.312,0.627,0.518c0.146,0.205,0.218,0.396,0.218,0.58
				c0,0.101-0.035,0.188-0.104,0.265c-0.07,0.077-0.156,0.114-0.257,0.114c-0.11,0-0.194-0.024-0.25-0.08
				c-0.057-0.053-0.118-0.145-0.188-0.272c-0.111-0.213-0.248-0.373-0.398-0.479c-0.154-0.104-0.344-0.157-0.57-0.157
				c-0.356,0-0.645,0.137-0.854,0.407c-0.213,0.271-0.32,0.66-0.32,1.162c0,0.334,0.048,0.611,0.144,0.836
				c0.096,0.224,0.229,0.39,0.397,0.498c0.175,0.107,0.375,0.164,0.604,0.164c0.252,0,0.464-0.062,0.638-0.188
				s0.306-0.309,0.394-0.549c0.037-0.113,0.084-0.207,0.14-0.277s0.144-0.105,0.265-0.105c0.104,0,0.192,0.035,0.268,0.105
				C34.522,22.711,34.559,22.8,34.559,22.908z"/>
			<path fill="#1E1E1C" d="M37.318,23.89c-0.193,0.15-0.382,0.265-0.562,0.338c-0.182,0.076-0.385,0.113-0.611,0.113
				c-0.205,0-0.385-0.039-0.541-0.121c-0.154-0.082-0.273-0.19-0.359-0.33c-0.084-0.141-0.125-0.291-0.125-0.452
				c0-0.222,0.066-0.406,0.209-0.562c0.14-0.154,0.33-0.258,0.57-0.311c0.053-0.013,0.18-0.039,0.381-0.08
				c0.199-0.041,0.375-0.078,0.521-0.113c0.146-0.033,0.301-0.076,0.469-0.125c-0.01-0.211-0.053-0.367-0.129-0.465
				c-0.073-0.101-0.229-0.148-0.47-0.148c-0.202,0-0.356,0.027-0.459,0.084c-0.104,0.059-0.19,0.145-0.266,0.256
				c-0.072,0.113-0.125,0.189-0.154,0.227c-0.03,0.037-0.096,0.056-0.196,0.056c-0.09,0-0.168-0.029-0.231-0.086
				c-0.066-0.06-0.101-0.134-0.101-0.224c0-0.143,0.051-0.276,0.149-0.41c0.101-0.135,0.256-0.243,0.468-0.33
				c0.213-0.086,0.477-0.129,0.79-0.129c0.354,0,0.632,0.041,0.832,0.125c0.203,0.082,0.347,0.216,0.429,0.396
				c0.084,0.181,0.125,0.42,0.125,0.718c0,0.188,0,0.348-0.002,0.479c0,0.131-0.002,0.276-0.004,0.438
				c0,0.149,0.024,0.309,0.075,0.473c0.05,0.162,0.074,0.268,0.074,0.313c0,0.082-0.039,0.158-0.115,0.226
				c-0.077,0.068-0.166,0.102-0.264,0.102c-0.082,0-0.164-0.037-0.244-0.113C37.494,24.152,37.408,24.037,37.318,23.89z
				 M37.264,22.728c-0.117,0.044-0.289,0.091-0.515,0.138c-0.225,0.049-0.379,0.084-0.465,0.104
				c-0.086,0.022-0.17,0.065-0.248,0.133c-0.078,0.066-0.116,0.158-0.116,0.275c0,0.121,0.047,0.225,0.139,0.31
				c0.093,0.086,0.213,0.129,0.361,0.129c0.157,0,0.305-0.035,0.438-0.104c0.135-0.07,0.23-0.16,0.295-0.271
				c0.07-0.121,0.107-0.322,0.107-0.602v-0.113L37.264,22.728L37.264,22.728z"/>
			<path fill="#1E1E1C" d="M38.867,23.856v-3.48c0-0.162,0.037-0.283,0.106-0.365c0.072-0.082,0.168-0.123,0.291-0.123
				c0.121,0,0.22,0.041,0.293,0.121c0.074,0.082,0.11,0.203,0.11,0.367v3.48c0,0.161-0.036,0.282-0.112,0.364
				c-0.074,0.082-0.172,0.121-0.291,0.121s-0.213-0.041-0.287-0.125C38.904,24.132,38.867,24.011,38.867,23.856z"/>
			<path fill="#1E1E1C" d="M40.498,23.856v-3.48c0-0.162,0.037-0.283,0.106-0.365c0.072-0.082,0.168-0.123,0.291-0.123
				c0.121,0,0.22,0.041,0.293,0.121c0.074,0.082,0.111,0.203,0.111,0.367v3.48c0,0.161-0.037,0.282-0.113,0.364
				c-0.073,0.082-0.172,0.121-0.291,0.121c-0.118,0-0.213-0.041-0.286-0.125C40.535,24.132,40.498,24.011,40.498,23.856z"/>
			<path fill="#1E1E1C" d="M44.371,22.908H42.8c0.002,0.182,0.039,0.344,0.111,0.481c0.069,0.14,0.166,0.244,0.285,0.313
				c0.116,0.07,0.248,0.104,0.391,0.104c0.098,0,0.186-0.012,0.264-0.031c0.08-0.022,0.156-0.061,0.23-0.106
				s0.145-0.099,0.207-0.154c0.062-0.055,0.143-0.129,0.244-0.223c0.041-0.035,0.1-0.054,0.176-0.054
				c0.082,0,0.147,0.021,0.199,0.066c0.051,0.045,0.076,0.107,0.076,0.189c0,0.074-0.027,0.158-0.084,0.256
				c-0.058,0.096-0.144,0.189-0.259,0.279c-0.114,0.088-0.258,0.162-0.433,0.221c-0.174,0.059-0.372,0.088-0.598,0.088
				c-0.518,0-0.918-0.146-1.203-0.438c-0.287-0.295-0.432-0.692-0.432-1.197c0-0.235,0.035-0.456,0.105-0.659
				c0.072-0.203,0.174-0.377,0.309-0.521c0.139-0.146,0.305-0.257,0.5-0.334c0.199-0.076,0.418-0.115,0.658-0.115
				c0.314,0,0.584,0.065,0.811,0.197c0.223,0.133,0.391,0.305,0.504,0.514c0.109,0.209,0.166,0.424,0.166,0.641
				c0,0.201-0.059,0.332-0.173,0.395C44.742,22.879,44.58,22.908,44.371,22.908z M42.8,22.453h1.455
				c-0.02-0.275-0.094-0.48-0.223-0.617c-0.127-0.135-0.297-0.203-0.506-0.203c-0.199,0-0.365,0.068-0.492,0.207
				C42.906,21.978,42.828,22.181,42.8,22.453z"/>
			<path fill="#1E1E1C" d="M46.503,23.183v0.673c0,0.161-0.037,0.282-0.113,0.364s-0.174,0.121-0.291,0.121
				c-0.115,0-0.211-0.041-0.285-0.123c-0.072-0.082-0.111-0.203-0.111-0.362v-2.234c0-0.361,0.131-0.541,0.394-0.541
				c0.133,0,0.229,0.041,0.287,0.125c0.06,0.086,0.092,0.209,0.098,0.375c0.097-0.166,0.193-0.289,0.296-0.375
				c0.102-0.084,0.235-0.125,0.403-0.125s0.332,0.041,0.489,0.125c0.16,0.086,0.238,0.197,0.238,0.336
				c0,0.098-0.033,0.18-0.104,0.242c-0.064,0.063-0.141,0.096-0.219,0.096c-0.029,0-0.1-0.018-0.213-0.055
				c-0.113-0.035-0.213-0.056-0.299-0.056c-0.117,0-0.213,0.031-0.287,0.095c-0.074,0.061-0.133,0.151-0.174,0.274
				c-0.041,0.121-0.07,0.267-0.086,0.435C46.511,22.739,46.503,22.944,46.503,23.183z"/>
		</g>
		<g>
			
				<path fill="none" stroke="#1E1E1C" stroke-width="0.7232" stroke-linecap="round" stroke-linejoin="round" stroke-miterlimit="10" d="
				M29.369,7.815c0,0,9.072-0.767,9.047,8.507"/>
			
				<path fill="none" stroke="#1E1E1C" stroke-width="0.7232" stroke-linecap="round" stroke-linejoin="round" stroke-miterlimit="10" d="
				M31.887,6.799c-0.233,0.131-2.521,1.017-2.521,1.017l2.388,1.306"/>
		</g>
	</g>
</g>
</svg>
