<?xml version="1.0" encoding="utf-8"?>
<!-- Generator: Adobe Illustrator 15.0.2, SVG Export Plug-In . SVG Version: 6.00 Build 0)  -->
<!DOCTYPE svg PUBLIC "-//W3C//DTD SVG 1.1//EN" "http://www.w3.org/Graphics/SVG/1.1/DTD/svg11.dtd">
<svg version="1.1" id="Layer_1" xmlns="http://www.w3.org/2000/svg" xmlns:xlink="http://www.w3.org/1999/xlink" x="0px" y="0px"
	 width="90.49px" height="39.708px" viewBox="-0.888 9.941 90.49 39.708" enable-background="new -0.888 9.941 90.49 39.708"
	 xml:space="preserve">
<g>
	<path fill="#39A935" d="M69.292,19.663v-5.866c0,0,2.754-0.044,3.406,1.003C70.01,15.999,69.292,19.663,69.292,19.663z"/>
	<path fill="#39A935" d="M16.559,39.943v3.855c0,0-2.662-0.562-3.406-3.68C15.147,40.972,16.559,39.943,16.559,39.943z"/>
	<g>
		
			<radialGradient id="SVGID_1_" cx="-1269.0464" cy="-432.7107" r="21.9915" gradientTransform="matrix(0.4097 0 0 0.0996 528.1961 90.308)" gradientUnits="userSpaceOnUse">
			<stop  offset="0" style="stop-color:#A9A9AA"/>
			<stop  offset="0.0541" style="stop-color:#B6BAB4"/>
			<stop  offset="0.2086" style="stop-color:#D9E9CF"/>
			<stop  offset="0.3252" style="stop-color:#E4EFDD"/>
			<stop  offset="0.5432" style="stop-color:#F3F8F0"/>
			<stop  offset="0.7662" style="stop-color:#FCFDFB"/>
			<stop  offset="1" style="stop-color:#FFFFFF"/>
		</radialGradient>
		<ellipse fill="url(#SVGID_1_)" cx="8.268" cy="47.226" rx="9.156" ry="2.422"/>
		<g>
			<path fill="#1D1D1B" d="M7.422,37.845c-1.392,0-2.524-1.133-2.524-2.525s1.133-2.525,2.524-2.525s2.524,1.133,2.524,2.525
				S8.814,37.845,7.422,37.845z M7.422,33.054c-1.249,0-2.265,1.018-2.265,2.266c0,1.249,1.016,2.266,2.265,2.266
				s2.265-1.017,2.265-2.266C9.687,34.072,8.671,33.054,7.422,33.054z"/>
			<path fill="#1D1D1B" d="M8.778,33.349c-0.387-0.266-0.852-0.424-1.355-0.424c-1.322,0-2.395,1.072-2.395,2.395
				c0,0.104,0.008,0.205,0.021,0.305c0.709-0.15,1.533-0.512,2.334-1.059C7.934,34.189,8.407,33.771,8.778,33.349z"/>
			<path fill="#1D1D1B" d="M5.362,34.205c-0.027,0-0.054-0.008-0.077-0.025l-0.391-0.287c-0.027-0.021-0.046-0.051-0.052-0.086
				c-0.005-0.033,0.004-0.068,0.024-0.096l0.396-0.537c0.021-0.028,0.051-0.047,0.085-0.052c0.033-0.005,0.068,0.003,0.097,0.024
				l0.391,0.289c0.058,0.042,0.07,0.123,0.027,0.182l-0.396,0.535C5.441,34.187,5.402,34.205,5.362,34.205z"/>
			<path fill="#1D1D1B" d="M4.258,36.789c0.027-1.896-1.111-2.477-0.93-3.674c0.178-1.184,2.035-1.076,2.039,0.135
				c-0.227,0.309-0.396,0.537-0.396,0.537s-0.664-0.25-0.578,0.424C4.499,35.025,4.528,35.625,4.258,36.789z"/>
			<ellipse fill="#1D1D1B" cx="9.105" cy="34.99" rx="0.163" ry="0.271"/>
			<ellipse fill="#1D1D1B" cx="8.207" cy="35.625" rx="0.192" ry="0.277"/>
			<path fill="#1D1D1B" d="M9.36,36.074c0,0-0.256,0.885-0.77,0.572"/>
			<path fill="#1D1D1B" d="M6.489,37.912c-0.017,0-0.033-0.004-0.05-0.01c-0.031-0.014-0.057-0.039-0.07-0.07l-0.805-1.936
				c-0.027-0.065,0.004-0.142,0.07-0.17l1.262-0.525c0.031-0.014,0.066-0.014,0.1,0c0.031,0.013,0.057,0.038,0.07,0.07l0.805,1.936
				c0.027,0.066-0.004,0.142-0.07,0.17l-1.262,0.525C6.523,37.908,6.505,37.912,6.489,37.912z M5.854,35.917l0.705,1.694
				l1.021-0.425L6.875,35.49L5.854,35.917z"/>
			<path fill="#1D1D1B" d="M5.368,40.496c-0.021,0-0.044-0.005-0.063-0.016c-0.053-0.03-0.078-0.093-0.062-0.15l1.141-3.814
				c0.021-0.07,0.095-0.108,0.162-0.088c0.069,0.021,0.108,0.093,0.088,0.162l-0.976,3.26l1.148-1.275
				c0.049-0.053,0.132-0.057,0.184-0.01c0.054,0.049,0.058,0.131,0.01,0.184l-1.535,1.705C5.439,40.482,5.404,40.496,5.368,40.496z"
				/>
			<path fill="#1D1D1B" d="M10.831,40.019c-0.032,0-0.063-0.012-0.088-0.033L9.18,38.554c-0.053-0.049-0.057-0.131-0.008-0.184
				c0.049-0.052,0.131-0.057,0.184-0.008l1.465,1.342l1.656-1.881c0.047-0.053,0.131-0.059,0.184-0.012
				c0.054,0.047,0.059,0.129,0.012,0.184l-1.744,1.98c-0.023,0.025-0.056,0.041-0.091,0.043
				C10.835,40.019,10.833,40.019,10.831,40.019z"/>
			<path fill="#1D1D1B" d="M7,47.197c-0.006,0-0.012,0-0.019,0c-0.071-0.011-0.12-0.076-0.11-0.148
				c0.157-1.098,0.394-2.768,0.399-2.867c0.004-0.068,0.062-0.123,0.13-0.123c0.001,0,0.003,0,0.004,0
				c0.07,0.002,0.126,0.057,0.126,0.127c0,0.089-0.308,2.242-0.401,2.9C7.12,47.15,7.064,47.197,7,47.197z"/>
			<path fill="#1D1D1B" d="M9.104,47.197c-0.069,0-0.127-0.054-0.13-0.123c-0.013-0.287-0.125-2.802-0.125-2.889
				c0-0.071,0.058-0.129,0.13-0.129l0,0c0.071,0,0.13,0.058,0.13,0.129c0.001,0.078,0.091,2.104,0.125,2.877
				c0.003,0.071-0.053,0.132-0.124,0.135C9.108,47.197,9.106,47.197,9.104,47.197z"/>
			<polygon fill="#39A935" points="9.85,43.685 6.563,43.685 7.422,38.258 8.76,38.258 			"/>
		</g>
	</g>
	<g>
		
			<radialGradient id="SVGID_2_" cx="224.3853" cy="-464.0378" r="31.9845" gradientTransform="matrix(0.3167 0 0 0.0996 8.2543 72.5349)" gradientUnits="userSpaceOnUse">
			<stop  offset="0" style="stop-color:#A9A9AA"/>
			<stop  offset="0.0541" style="stop-color:#B6BAB4"/>
			<stop  offset="0.2086" style="stop-color:#D9E9CF"/>
			<stop  offset="0.3252" style="stop-color:#E4EFDD"/>
			<stop  offset="0.5432" style="stop-color:#F3F8F0"/>
			<stop  offset="0.7662" style="stop-color:#FCFDFB"/>
			<stop  offset="1" style="stop-color:#FFFFFF"/>
		</radialGradient>
		<ellipse fill="url(#SVGID_2_)" cx="79.309" cy="26.334" rx="10.293" ry="3.522"/>
		<g>
			<g>
				<polygon fill="#FFFFFF" points="78.952,19.158 75.987,17.591 76.141,13.391 79.528,14.536 				"/>
				<path fill="#1D1E1C" d="M78.952,19.316c-0.025,0-0.051-0.006-0.073-0.019l-2.965-1.567c-0.054-0.028-0.087-0.084-0.084-0.145
					l0.154-4.2c0.002-0.05,0.026-0.096,0.067-0.124c0.042-0.027,0.093-0.035,0.141-0.02l3.387,1.146
					c0.07,0.024,0.115,0.095,0.105,0.169l-0.576,4.622c-0.006,0.051-0.037,0.096-0.083,0.12
					C79.001,19.31,78.977,19.316,78.952,19.316z M76.148,17.498l2.676,1.415l0.532-4.268l-3.065-1.036L76.148,17.498z"/>
			</g>
			<polygon fill="#1D1E1C" points="77.299,15.657 76.676,15.364 76.86,15.165 77.311,15.396 			"/>
			<polygon fill="#1D1E1C" points="78.534,16.124 77.967,15.865 77.913,15.563 78.448,15.791 			"/>
			<polygon fill="#1D1E1C" points="77.801,17.378 77.049,17.013 76.885,16.47 78.053,17.013 			"/>
			<g>
				<polygon fill="#FFFFFF" points="79.528,14.536 76.141,13.391 79.239,13.525 81.93,14.536 				"/>
				<path fill="#1D1E1C" d="M81.938,14.694c-0.002,0-0.006,0-0.008,0h-2.402c-0.018,0-0.034-0.003-0.051-0.008L76.09,13.54
					c-0.074-0.025-0.118-0.101-0.104-0.178c0.015-0.078,0.086-0.132,0.162-0.129l3.098,0.134c0.017,0.001,0.033,0.004,0.049,0.01
					l2.671,1.004c0.074,0.013,0.131,0.077,0.131,0.155C82.096,14.623,82.025,14.694,81.938,14.694z M79.554,14.379h1.509
					l-1.856-0.698l-1.967-0.085L79.554,14.379z"/>
			</g>
			<g>
				<polygon fill="#FFFFFF" points="81.327,18.562 78.952,19.158 79.504,14.536 81.93,14.536 				"/>
				<path fill="#1D1E1C" d="M78.952,19.316c-0.038,0-0.075-0.014-0.104-0.04c-0.039-0.034-0.059-0.085-0.052-0.137l0.553-4.622
					c0.009-0.08,0.076-0.139,0.156-0.139h2.426c0.046,0,0.09,0.02,0.119,0.055c0.03,0.035,0.044,0.081,0.037,0.126l-0.604,4.025
					c-0.01,0.063-0.056,0.114-0.118,0.129l-2.375,0.597C78.977,19.315,78.964,19.316,78.952,19.316z M79.644,14.694l-0.509,4.256
					l2.051-0.516l0.562-3.74H79.644z"/>
			</g>
			<path fill="#1D1E1C" d="M75.459,22.056c-0.893,0-1.572-0.942-1.602-0.983c-0.05-0.071-0.033-0.169,0.037-0.22
				c0.072-0.05,0.169-0.035,0.221,0.037c0.006,0.008,0.614,0.85,1.344,0.85c0.008,0,0.015,0,0.021,0
				c0.405-0.009,0.786-0.284,1.132-0.817c0.046-0.073,0.146-0.093,0.218-0.046c0.073,0.047,0.094,0.145,0.046,0.218
				c-0.405,0.626-0.873,0.95-1.39,0.96C75.478,22.056,75.468,22.056,75.459,22.056z"/>
			<path fill="#1D1E1C" d="M80.538,22.849c-0.05,0-0.099-0.023-0.129-0.067c-0.05-0.071-0.033-0.17,0.038-0.22
				c1.44-1.012,1.536-1.467,1.511-1.615c-0.022-0.128-0.172-0.171-0.179-0.173c-0.083-0.022-0.134-0.108-0.111-0.192
				c0.021-0.083,0.107-0.137,0.189-0.113c0.13,0.033,0.361,0.157,0.41,0.419c0.086,0.465-0.45,1.097-1.639,1.932
				C80.601,22.84,80.569,22.849,80.538,22.849z"/>
			<path fill="#1D1E1C" d="M81.167,17.433c-0.229,0.548-0.738,0.859-1.139,0.693c-0.4-0.164-0.541-0.743-0.314-1.295
				c0.227-0.547,0.736-0.861,1.135-0.692C81.252,16.302,81.393,16.882,81.167,17.433z"/>
			<path fill="#1D1E1C" d="M80.622,17.427c-0.014,0-0.027-0.003-0.04-0.01c-0.037-0.022-0.05-0.07-0.028-0.108
				c0.333-0.572,0.517-1.318,0.517-2.101c0-1.706-0.872-3.094-1.944-3.094c-0.628,0-1.221,0.485-1.584,1.296
				c-0.019,0.039-0.065,0.057-0.104,0.04c-0.04-0.018-0.058-0.064-0.04-0.104c0.391-0.87,1.036-1.389,1.729-1.389
				c1.159,0,2.103,1.458,2.103,3.251c0,0.81-0.191,1.584-0.538,2.18C80.675,17.414,80.649,17.427,80.622,17.427z"/>
			
				<path fill="none" stroke="#1D1E1C" stroke-width="0.3153" stroke-linecap="round" stroke-linejoin="round" stroke-miterlimit="10" d="
				M80.622,17.349"/>
			<path fill="#1D1E1C" d="M80.44,13.11c-0.093,0-0.186-0.042-0.248-0.12c-0.468-0.595-1.146-0.74-1.771-0.381
				c-0.146,0.087-0.343,0.036-0.431-0.115c-0.087-0.151-0.035-0.344,0.116-0.431c0.9-0.522,1.915-0.309,2.581,0.537
				c0.107,0.137,0.084,0.335-0.053,0.443C80.578,13.088,80.508,13.11,80.44,13.11z"/>
			<path fill="#1D1E1C" d="M76.454,18.949c-0.162,0.192-0.498,0.175-0.758-0.04c-0.256-0.213-0.336-0.542-0.178-0.735
				c0.162-0.193,0.5-0.175,0.758,0.042C76.534,18.427,76.614,18.758,76.454,18.949z"/>
			<path fill="#FFFFFF" d="M80.932,17.372c-0.111,0.272-0.346,0.433-0.523,0.359c-0.178-0.074-0.23-0.352-0.117-0.625
				c0.111-0.271,0.344-0.431,0.523-0.359C80.991,16.823,81.045,17.101,80.932,17.372z"/>
			<path fill="#1D1E1C" d="M77.698,19.237c-0.592,0-1.181-0.205-1.757-0.611c-0.035-0.025-0.044-0.074-0.019-0.11
				c0.025-0.036,0.073-0.044,0.11-0.019c0.686,0.484,1.389,0.67,2.089,0.545c1.257-0.22,2.161-1.345,2.492-1.818
				c0.025-0.036,0.074-0.045,0.109-0.02c0.036,0.025,0.045,0.074,0.02,0.109c-0.342,0.49-1.278,1.654-2.594,1.884
				C77.999,19.224,77.848,19.237,77.698,19.237z"/>
			<path fill="#1D1E1C" d="M74.217,22.123c-0.019,0-0.037-0.003-0.055-0.01l-1.451-0.536c-0.049-0.018-0.085-0.059-0.098-0.108
				l-0.934-3.611c-0.015-0.057,0.003-0.117,0.046-0.156c0.042-0.039,0.105-0.053,0.159-0.032l1.543,0.55
				c0.051,0.018,0.089,0.061,0.101,0.112l0.831,3.552c0.015,0.024,0.023,0.052,0.023,0.082c0,0.087-0.071,0.158-0.158,0.158
				C74.223,22.123,74.219,22.123,74.217,22.123z M72.898,21.31l1.099,0.406l-0.755-3.229l-1.183-0.421L72.898,21.31z"/>
			<g>
				<path fill="#1E1E1C" d="M78.561,21.674l-0.039-0.106h-0.344l-0.041,0.108c-0.016,0.043-0.029,0.071-0.04,0.086
					s-0.03,0.022-0.055,0.022c-0.022,0-0.04-0.008-0.058-0.023c-0.016-0.017-0.024-0.034-0.024-0.054
					c0-0.012,0.002-0.023,0.006-0.036s0.011-0.029,0.019-0.051l0.217-0.549c0.006-0.016,0.014-0.035,0.021-0.057
					c0.01-0.022,0.018-0.041,0.027-0.056c0.011-0.015,0.023-0.026,0.039-0.035s0.036-0.014,0.06-0.014s0.044,0.005,0.06,0.014
					s0.029,0.021,0.039,0.035c0.01,0.014,0.018,0.029,0.024,0.045c0.007,0.017,0.015,0.039,0.025,0.065l0.221,0.546
					c0.018,0.041,0.026,0.071,0.026,0.09c0,0.021-0.008,0.038-0.025,0.055c-0.016,0.016-0.035,0.024-0.059,0.024
					c-0.014,0-0.025-0.003-0.035-0.008c-0.009-0.005-0.018-0.011-0.023-0.02c-0.007-0.008-0.014-0.021-0.021-0.038
					C78.573,21.702,78.567,21.687,78.561,21.674z M78.223,21.44h0.252l-0.127-0.349L78.223,21.44z"/>
				<path fill="#1E1E1C" d="M79.1,21.408H79.04v0.271c0,0.036-0.008,0.062-0.023,0.079c-0.016,0.017-0.036,0.025-0.062,0.025
					c-0.026,0-0.048-0.009-0.063-0.026c-0.015-0.018-0.021-0.044-0.021-0.078v-0.65c0-0.037,0.008-0.063,0.023-0.08
					c0.018-0.017,0.044-0.024,0.08-0.024h0.279c0.038,0,0.07,0.001,0.098,0.005c0.027,0.003,0.053,0.01,0.074,0.02
					c0.027,0.012,0.051,0.027,0.07,0.048c0.021,0.021,0.036,0.045,0.047,0.072c0.01,0.027,0.016,0.057,0.016,0.088
					c0,0.062-0.018,0.113-0.053,0.15c-0.036,0.038-0.09,0.064-0.162,0.08c0.03,0.017,0.059,0.04,0.087,0.071
					c0.028,0.032,0.052,0.065,0.074,0.101c0.021,0.036,0.038,0.068,0.05,0.097c0.013,0.028,0.02,0.049,0.02,0.06
					s-0.004,0.021-0.012,0.032c-0.007,0.012-0.017,0.021-0.029,0.026c-0.012,0.007-0.025,0.01-0.042,0.01
					c-0.019,0-0.036-0.005-0.048-0.014c-0.014-0.009-0.025-0.021-0.034-0.034c-0.01-0.014-0.022-0.034-0.038-0.062l-0.068-0.114
					c-0.025-0.042-0.047-0.073-0.066-0.096c-0.02-0.021-0.039-0.036-0.059-0.045C79.156,21.412,79.13,21.408,79.1,21.408z
					 M79.198,21.053H79.04v0.232h0.154c0.041,0,0.075-0.003,0.104-0.011c0.027-0.007,0.049-0.019,0.064-0.036
					c0.015-0.017,0.021-0.041,0.021-0.07c0-0.023-0.006-0.044-0.018-0.062c-0.012-0.018-0.028-0.031-0.049-0.04
					C79.296,21.058,79.256,21.053,79.198,21.053z"/>
				<path fill="#1E1E1C" d="M79.915,21.532h-0.182c-0.027,0-0.049-0.007-0.062-0.02c-0.016-0.013-0.021-0.029-0.021-0.05
					s0.006-0.037,0.021-0.051c0.014-0.013,0.035-0.019,0.063-0.019h0.182c0.029,0,0.051,0.006,0.064,0.019
					C79.993,21.426,80,21.443,80,21.463s-0.008,0.037-0.021,0.05S79.944,21.532,79.915,21.532z"/>
				<path fill="#1E1E1C" d="M80.353,21.691v-0.524c-0.098,0.075-0.163,0.112-0.196,0.112c-0.017,0-0.031-0.006-0.043-0.02
					c-0.014-0.013-0.02-0.027-0.02-0.044c0-0.02,0.006-0.034,0.019-0.044c0.013-0.009,0.034-0.021,0.065-0.035
					c0.047-0.022,0.084-0.045,0.111-0.069s0.053-0.052,0.074-0.081c0.021-0.03,0.035-0.049,0.042-0.056s0.019-0.011,0.036-0.011
					c0.021,0,0.037,0.008,0.05,0.024c0.013,0.016,0.019,0.037,0.019,0.064v0.66c0,0.077-0.027,0.116-0.079,0.116
					c-0.023,0-0.042-0.008-0.057-0.023C80.36,21.744,80.353,21.722,80.353,21.691z"/>
			</g>
			<path fill="#1D1E1C" d="M80.155,24.136h-1.668c-0.462,0-0.899-0.37-0.977-0.824l-0.486-2.842
				c-0.04-0.232,0.017-0.453,0.159-0.622s0.35-0.261,0.585-0.261h2.941c0.233,0,0.443,0.092,0.591,0.26
				c0.146,0.167,0.211,0.388,0.181,0.62l-0.375,2.834C81.046,23.761,80.62,24.136,80.155,24.136z M77.768,19.935
				c-0.131,0-0.244,0.049-0.319,0.138s-0.104,0.209-0.083,0.339l0.486,2.842c0.05,0.29,0.34,0.535,0.635,0.535h1.668
				c0.292,0,0.569-0.244,0.607-0.532l0.375-2.834c0.017-0.131-0.019-0.254-0.099-0.346c-0.08-0.091-0.197-0.141-0.329-0.141H77.768z
				"/>
			<g>
				<g>
					<path fill="#FFFFFF" d="M80.696,25.932c-0.118-0.304-0.525-0.552-0.904-0.552h-0.979c-0.379,0-0.814,0.249-0.967,0.552
						s0.033,0.552,0.412,0.552h1.963C80.6,26.485,80.814,26.236,80.696,25.932z"/>
				</g>
				<path fill="#1D1E1C" d="M80.221,26.658h-1.963c-0.257,0-0.464-0.097-0.568-0.267c-0.096-0.155-0.095-0.345,0.001-0.537
					c0.183-0.363,0.675-0.648,1.122-0.648h0.979c0.453,0,0.922,0.292,1.066,0.663c0.072,0.187,0.057,0.371-0.046,0.52
					C80.695,26.56,80.48,26.658,80.221,26.658z M78.813,25.554c-0.311,0-0.689,0.213-0.812,0.457
					c-0.023,0.046-0.056,0.133-0.016,0.198c0.039,0.064,0.142,0.102,0.272,0.102h1.963c0.14,0,0.254-0.044,0.304-0.118
					c0.046-0.066,0.03-0.144,0.009-0.198c-0.092-0.235-0.438-0.441-0.742-0.441H78.813z"/>
			</g>
			<g>
				<rect x="78.952" y="23.962" fill="#FFFFFF" width="0.576" height="1.418"/>
				<path fill="#1D1E1C" d="M79.702,25.554h-0.924v-1.766h0.924V25.554z M79.125,25.206h0.229v-1.07h-0.229V25.206z"/>
			</g>
			<path fill="#1D1E1C" d="M80.145,23.422c-0.064,0-0.124-0.04-0.147-0.103c-0.03-0.082,0.011-0.172,0.093-0.203
				c0.203-0.075,0.344-0.249,0.299-0.371c-0.038-0.106-0.242-0.169-0.466-0.088c-0.081,0.034-0.172-0.013-0.202-0.094
				c-0.029-0.082,0.013-0.172,0.095-0.202c0.376-0.138,0.762-0.017,0.869,0.276c0.107,0.294-0.106,0.635-0.485,0.775
				C80.182,23.418,80.164,23.422,80.145,23.422z"/>
		</g>
	</g>
	<g>
		<g>
			<path fill="#39A935" d="M69.321,26.477c0,1.649-1.35,3-3,3H2.112c-1.648,0-3-1.351-3-3V12.941c0-1.65,1.352-3,3-3h64.209
				c1.65,0,3,1.35,3,3V26.477z"/>
		</g>
	</g>
	<g>
		<g>
			<path fill="#39A935" d="M69.592,44.865c0,1.65-1.35,3-3,3H19.372c-1.65,0-3-1.35-3-3v-5.156c0-1.65,1.35-3,3-3h47.221
				c1.65,0,3,1.35,3,3V44.865z"/>
		</g>
	</g>
	<g>
		<g>
			<path fill="#FFFFFF" d="M24.326,42.713c0,0.219-0.057,0.416-0.17,0.59c-0.112,0.174-0.277,0.311-0.495,0.41
				c-0.217,0.1-0.475,0.148-0.772,0.148c-0.357,0-0.652-0.068-0.884-0.203c-0.165-0.098-0.299-0.227-0.401-0.389
				c-0.104-0.162-0.154-0.32-0.154-0.473c0-0.09,0.03-0.166,0.092-0.229c0.062-0.062,0.141-0.096,0.236-0.096
				c0.077,0,0.143,0.025,0.196,0.074s0.1,0.123,0.137,0.221c0.047,0.115,0.097,0.211,0.149,0.289
				c0.054,0.076,0.129,0.141,0.227,0.191c0.097,0.049,0.225,0.074,0.383,0.074c0.217,0,0.394-0.051,0.529-0.152
				c0.136-0.1,0.204-0.227,0.204-0.379c0-0.119-0.037-0.217-0.11-0.291c-0.073-0.076-0.168-0.133-0.284-0.172
				c-0.115-0.041-0.271-0.082-0.465-0.127c-0.261-0.061-0.479-0.131-0.653-0.213c-0.176-0.082-0.314-0.193-0.418-0.334
				c-0.103-0.141-0.154-0.314-0.154-0.525c0-0.199,0.055-0.375,0.163-0.529c0.109-0.156,0.267-0.275,0.472-0.357
				c0.206-0.084,0.448-0.125,0.727-0.125c0.222,0,0.414,0.027,0.576,0.082c0.162,0.057,0.297,0.129,0.404,0.221
				c0.106,0.092,0.185,0.188,0.234,0.287c0.049,0.102,0.074,0.199,0.074,0.295c0,0.086-0.031,0.166-0.093,0.234
				c-0.062,0.07-0.139,0.105-0.23,0.105c-0.084,0-0.148-0.021-0.191-0.062c-0.044-0.043-0.092-0.111-0.143-0.207
				c-0.065-0.137-0.145-0.242-0.237-0.318c-0.092-0.078-0.24-0.115-0.444-0.115c-0.189,0-0.342,0.041-0.458,0.125
				c-0.116,0.082-0.174,0.182-0.174,0.299c0,0.072,0.02,0.135,0.06,0.188c0.039,0.053,0.094,0.1,0.162,0.137
				c0.069,0.037,0.14,0.068,0.21,0.088c0.071,0.021,0.188,0.053,0.351,0.096c0.204,0.047,0.39,0.1,0.555,0.156
				c0.166,0.059,0.307,0.129,0.423,0.211c0.115,0.082,0.206,0.186,0.271,0.312C24.292,42.375,24.326,42.529,24.326,42.713z"/>
			<path fill="#FFFFFF" d="M26.604,43.48c-0.163,0.127-0.32,0.223-0.473,0.285c-0.152,0.064-0.323,0.096-0.513,0.096
				c-0.173,0-0.324-0.035-0.455-0.104s-0.231-0.16-0.303-0.277c-0.07-0.117-0.106-0.244-0.106-0.381c0-0.184,0.059-0.34,0.176-0.471
				s0.277-0.217,0.481-0.262c0.043-0.01,0.149-0.033,0.318-0.066c0.17-0.035,0.315-0.066,0.437-0.096
				c0.12-0.029,0.252-0.064,0.394-0.105c-0.009-0.178-0.044-0.307-0.107-0.391s-0.195-0.125-0.394-0.125
				c-0.172,0-0.301,0.023-0.387,0.072c-0.087,0.047-0.161,0.119-0.223,0.215s-0.105,0.158-0.131,0.188
				c-0.025,0.031-0.08,0.047-0.164,0.047c-0.076,0-0.142-0.025-0.196-0.072c-0.056-0.049-0.083-0.111-0.083-0.188
				c0-0.119,0.042-0.234,0.126-0.346s0.215-0.203,0.393-0.275c0.178-0.074,0.399-0.109,0.665-0.109c0.296,0,0.529,0.035,0.698,0.105
				c0.17,0.068,0.289,0.18,0.359,0.332c0.07,0.15,0.105,0.352,0.105,0.602c0,0.158-0.001,0.293-0.002,0.402
				c-0.001,0.111-0.002,0.234-0.003,0.369c0,0.127,0.021,0.258,0.062,0.396c0.042,0.137,0.062,0.225,0.062,0.266
				c0,0.068-0.032,0.131-0.097,0.188c-0.065,0.057-0.139,0.086-0.222,0.086c-0.069,0-0.138-0.033-0.205-0.098
				S26.68,43.603,26.604,43.48z M26.56,42.506c-0.099,0.035-0.242,0.074-0.431,0.115c-0.188,0.039-0.319,0.068-0.392,0.088
				s-0.142,0.057-0.208,0.111c-0.065,0.055-0.099,0.133-0.099,0.23c0,0.102,0.039,0.189,0.116,0.262
				c0.077,0.07,0.179,0.107,0.304,0.107c0.134,0,0.257-0.029,0.369-0.088c0.113-0.059,0.195-0.135,0.248-0.227
				c0.062-0.102,0.092-0.27,0.092-0.504V42.506z"/>
			<path fill="#FFFFFF" d="M28.576,42.888v0.562c0,0.137-0.032,0.238-0.097,0.307s-0.146,0.104-0.244,0.104
				c-0.098,0-0.177-0.035-0.239-0.104c-0.062-0.07-0.095-0.172-0.095-0.307v-1.877c0-0.303,0.11-0.455,0.329-0.455
				c0.111,0,0.192,0.037,0.242,0.107c0.049,0.07,0.076,0.176,0.081,0.312c0.081-0.137,0.163-0.242,0.248-0.312
				s0.198-0.107,0.34-0.107s0.279,0.037,0.412,0.107c0.134,0.07,0.2,0.164,0.2,0.281c0,0.082-0.028,0.15-0.085,0.203
				c-0.057,0.055-0.118,0.08-0.185,0.08c-0.024,0-0.084-0.014-0.179-0.045s-0.178-0.045-0.251-0.045
				c-0.099,0-0.179,0.025-0.241,0.076c-0.062,0.053-0.111,0.129-0.146,0.232c-0.034,0.102-0.058,0.223-0.071,0.363
				C28.583,42.513,28.576,42.685,28.576,42.888z"/>
			<path fill="#FFFFFF" d="M31.699,43.48c-0.163,0.127-0.32,0.223-0.473,0.285c-0.152,0.064-0.323,0.096-0.513,0.096
				c-0.173,0-0.324-0.035-0.455-0.104s-0.231-0.16-0.303-0.277c-0.07-0.117-0.106-0.244-0.106-0.381c0-0.184,0.059-0.34,0.176-0.471
				s0.277-0.217,0.481-0.262c0.043-0.01,0.149-0.033,0.318-0.066c0.17-0.035,0.315-0.066,0.437-0.096
				c0.12-0.029,0.252-0.064,0.394-0.105c-0.009-0.178-0.044-0.307-0.107-0.391s-0.195-0.125-0.394-0.125
				c-0.172,0-0.301,0.023-0.387,0.072c-0.087,0.047-0.161,0.119-0.223,0.215s-0.105,0.158-0.131,0.188
				c-0.025,0.031-0.08,0.047-0.164,0.047c-0.076,0-0.142-0.025-0.196-0.072c-0.056-0.049-0.083-0.111-0.083-0.188
				c0-0.119,0.042-0.234,0.126-0.346s0.215-0.203,0.393-0.275c0.178-0.074,0.399-0.109,0.665-0.109c0.296,0,0.529,0.035,0.698,0.105
				c0.17,0.068,0.289,0.18,0.359,0.332c0.07,0.15,0.105,0.352,0.105,0.602c0,0.158-0.001,0.293-0.002,0.402
				c-0.001,0.111-0.002,0.234-0.003,0.369c0,0.127,0.021,0.258,0.062,0.396c0.042,0.137,0.062,0.225,0.062,0.266
				c0,0.068-0.032,0.131-0.097,0.188c-0.065,0.057-0.139,0.086-0.222,0.086c-0.069,0-0.138-0.033-0.205-0.098
				S31.775,43.603,31.699,43.48z M31.655,42.506c-0.099,0.035-0.242,0.074-0.431,0.115c-0.188,0.039-0.319,0.068-0.392,0.088
				s-0.142,0.057-0.208,0.111c-0.065,0.055-0.099,0.133-0.099,0.23c0,0.102,0.039,0.189,0.116,0.262
				c0.077,0.07,0.179,0.107,0.304,0.107c0.134,0,0.257-0.029,0.369-0.088c0.113-0.059,0.195-0.135,0.248-0.227
				c0.062-0.102,0.092-0.27,0.092-0.504V42.506z"/>
			<path fill="#FFFFFF" d="M33.661,40.527v1c0.085-0.1,0.169-0.178,0.25-0.234c0.082-0.059,0.172-0.102,0.271-0.129
				c0.099-0.029,0.205-0.045,0.319-0.045c0.171,0,0.322,0.037,0.455,0.109s0.236,0.178,0.312,0.316c0.048,0.08,0.08,0.17,0.097,0.27
				c0.016,0.1,0.024,0.215,0.024,0.346v1.291c0,0.135-0.031,0.236-0.093,0.307c-0.062,0.068-0.144,0.104-0.246,0.104
				c-0.222,0-0.333-0.137-0.333-0.41v-1.139c0-0.215-0.032-0.381-0.097-0.498c-0.063-0.115-0.186-0.174-0.365-0.174
				c-0.12,0-0.229,0.035-0.324,0.104c-0.097,0.068-0.169,0.16-0.217,0.279c-0.036,0.102-0.054,0.279-0.054,0.537v0.891
				c0,0.133-0.03,0.234-0.091,0.305c-0.06,0.07-0.144,0.105-0.25,0.105c-0.223,0-0.334-0.137-0.334-0.41v-2.924
				c0-0.137,0.029-0.238,0.088-0.307s0.141-0.104,0.246-0.104c0.106,0,0.19,0.035,0.25,0.104
				C33.63,40.291,33.661,40.392,33.661,40.527z"/>
			<path fill="#FFFFFF" d="M38.959,40.117c0.375,0,0.697,0.076,0.967,0.229c0.269,0.152,0.473,0.369,0.611,0.65
				c0.138,0.279,0.207,0.609,0.207,0.988c0,0.279-0.038,0.533-0.113,0.764c-0.076,0.229-0.189,0.426-0.341,0.594
				s-0.338,0.297-0.559,0.387c-0.221,0.088-0.474,0.133-0.758,0.133c-0.283,0-0.537-0.047-0.761-0.137
				c-0.224-0.092-0.411-0.221-0.561-0.387s-0.263-0.367-0.34-0.6c-0.076-0.234-0.114-0.488-0.114-0.76
				c0-0.277,0.04-0.533,0.119-0.766c0.08-0.23,0.195-0.43,0.348-0.592c0.151-0.162,0.335-0.287,0.553-0.375
				C38.436,40.16,38.682,40.117,38.959,40.117z M40.001,41.978c0-0.264-0.043-0.494-0.129-0.688
				c-0.085-0.195-0.208-0.342-0.366-0.441c-0.159-0.1-0.342-0.15-0.547-0.15c-0.146,0-0.282,0.029-0.406,0.084
				c-0.125,0.055-0.231,0.135-0.321,0.24s-0.16,0.24-0.213,0.404c-0.052,0.164-0.077,0.348-0.077,0.551
				c0,0.207,0.025,0.393,0.077,0.559c0.053,0.166,0.126,0.305,0.221,0.414c0.094,0.109,0.203,0.191,0.325,0.246
				c0.123,0.055,0.258,0.08,0.404,0.08c0.188,0,0.36-0.047,0.518-0.141s0.282-0.238,0.375-0.434S40.001,42.265,40.001,41.978z"/>
			<path fill="#FFFFFF" d="M41.846,41.469h-0.511l-0.131-0.68v-0.609h0.758v0.609L41.846,41.469z"/>
			<path fill="#FFFFFF" d="M45.671,42.656c0,0.115-0.028,0.24-0.085,0.373c-0.057,0.135-0.146,0.268-0.269,0.396
				c-0.121,0.129-0.277,0.234-0.467,0.314c-0.188,0.08-0.409,0.121-0.661,0.121c-0.191,0-0.365-0.018-0.521-0.055
				c-0.156-0.035-0.298-0.092-0.426-0.17c-0.128-0.076-0.245-0.176-0.352-0.301c-0.096-0.115-0.178-0.242-0.245-0.383
				s-0.118-0.291-0.151-0.451c-0.034-0.158-0.051-0.328-0.051-0.508c0-0.291,0.042-0.553,0.127-0.783s0.206-0.428,0.364-0.592
				c0.158-0.162,0.344-0.287,0.556-0.373c0.213-0.086,0.438-0.129,0.68-0.129c0.293,0,0.554,0.059,0.782,0.176
				s0.404,0.262,0.526,0.434s0.183,0.334,0.183,0.486c0,0.084-0.029,0.158-0.089,0.223s-0.131,0.098-0.215,0.098
				c-0.094,0-0.164-0.023-0.211-0.068c-0.047-0.043-0.1-0.121-0.157-0.229c-0.096-0.18-0.208-0.314-0.337-0.402
				c-0.129-0.09-0.289-0.135-0.478-0.135c-0.302,0-0.542,0.115-0.721,0.344c-0.178,0.229-0.268,0.555-0.268,0.977
				c0,0.281,0.04,0.516,0.118,0.701c0.079,0.188,0.191,0.326,0.336,0.42c0.146,0.092,0.314,0.137,0.509,0.137
				c0.211,0,0.39-0.051,0.535-0.156c0.146-0.104,0.255-0.258,0.329-0.461c0.031-0.096,0.07-0.172,0.116-0.232s0.12-0.09,0.223-0.09
				c0.087,0,0.162,0.029,0.225,0.092C45.64,42.49,45.671,42.564,45.671,42.656z"/>
			<path fill="#FFFFFF" d="M48.808,42.49c0,0.201-0.031,0.387-0.094,0.557c-0.062,0.168-0.153,0.314-0.271,0.436
				c-0.119,0.123-0.261,0.217-0.425,0.281c-0.165,0.064-0.351,0.098-0.556,0.098c-0.204,0-0.388-0.033-0.551-0.1
				c-0.163-0.064-0.305-0.16-0.424-0.281c-0.119-0.123-0.21-0.268-0.271-0.436s-0.093-0.352-0.093-0.555s0.031-0.391,0.094-0.561
				s0.152-0.314,0.27-0.434c0.117-0.121,0.259-0.213,0.425-0.279c0.166-0.064,0.35-0.098,0.551-0.098c0.204,0,0.389,0.033,0.556,0.1
				c0.166,0.066,0.309,0.16,0.427,0.281c0.119,0.123,0.209,0.268,0.271,0.436S48.808,42.287,48.808,42.49z M48.131,42.49
				c0-0.275-0.061-0.488-0.182-0.643c-0.121-0.152-0.283-0.229-0.487-0.229c-0.132,0-0.248,0.033-0.349,0.102
				s-0.178,0.17-0.231,0.303c-0.055,0.133-0.082,0.289-0.082,0.467c0,0.176,0.026,0.33,0.08,0.463
				c0.054,0.131,0.13,0.232,0.229,0.301c0.1,0.07,0.218,0.105,0.353,0.105c0.204,0,0.366-0.076,0.487-0.23
				S48.131,42.761,48.131,42.49z"/>
			<path fill="#FFFFFF" d="M49.952,41.492v0.082c0.118-0.156,0.248-0.271,0.389-0.344c0.141-0.074,0.303-0.111,0.485-0.111
				c0.178,0,0.337,0.039,0.477,0.117c0.14,0.076,0.244,0.188,0.313,0.328c0.045,0.082,0.073,0.172,0.087,0.268
				c0.013,0.094,0.02,0.217,0.02,0.365v1.254c0,0.135-0.031,0.236-0.093,0.307c-0.062,0.068-0.142,0.104-0.241,0.104
				s-0.182-0.035-0.244-0.107c-0.062-0.07-0.094-0.172-0.094-0.303v-1.123c0-0.223-0.031-0.393-0.093-0.51
				c-0.062-0.119-0.185-0.178-0.369-0.178c-0.12,0-0.229,0.037-0.328,0.107c-0.099,0.072-0.172,0.17-0.218,0.295
				c-0.032,0.102-0.049,0.289-0.049,0.564v0.844c0,0.137-0.032,0.238-0.096,0.307s-0.145,0.104-0.245,0.104
				c-0.098,0-0.178-0.035-0.24-0.107c-0.062-0.07-0.094-0.172-0.094-0.303v-1.949c0-0.127,0.028-0.223,0.084-0.287
				c0.057-0.062,0.133-0.096,0.229-0.096c0.06,0,0.113,0.016,0.161,0.043s0.086,0.07,0.114,0.125
				C49.937,41.344,49.952,41.412,49.952,41.492z"/>
			<path fill="#FFFFFF" d="M53.006,41.492v0.082c0.118-0.156,0.248-0.271,0.389-0.344c0.141-0.074,0.303-0.111,0.485-0.111
				c0.178,0,0.337,0.039,0.477,0.117c0.14,0.076,0.244,0.188,0.313,0.328c0.045,0.082,0.073,0.172,0.087,0.268
				c0.013,0.094,0.02,0.217,0.02,0.365v1.254c0,0.135-0.031,0.236-0.093,0.307c-0.062,0.068-0.142,0.104-0.241,0.104
				s-0.182-0.035-0.244-0.107c-0.062-0.07-0.094-0.172-0.094-0.303v-1.123c0-0.223-0.031-0.393-0.093-0.51
				c-0.062-0.119-0.185-0.178-0.369-0.178c-0.12,0-0.229,0.037-0.328,0.107c-0.099,0.072-0.172,0.17-0.218,0.295
				c-0.032,0.102-0.049,0.289-0.049,0.564v0.844c0,0.137-0.032,0.238-0.096,0.307s-0.145,0.104-0.245,0.104
				c-0.098,0-0.178-0.035-0.24-0.107c-0.062-0.07-0.094-0.172-0.094-0.303v-1.949c0-0.127,0.028-0.223,0.084-0.287
				c0.057-0.062,0.133-0.096,0.229-0.096c0.06,0,0.113,0.016,0.161,0.043s0.086,0.07,0.114,0.125
				C52.992,41.344,53.006,41.412,53.006,41.492z"/>
			<path fill="#FFFFFF" d="M57.972,42.49c0,0.201-0.031,0.387-0.094,0.557c-0.062,0.168-0.153,0.314-0.271,0.436
				c-0.119,0.123-0.261,0.217-0.425,0.281c-0.165,0.064-0.351,0.098-0.556,0.098c-0.204,0-0.388-0.033-0.551-0.1
				c-0.163-0.064-0.305-0.16-0.424-0.281c-0.119-0.123-0.21-0.268-0.271-0.436s-0.093-0.352-0.093-0.555s0.031-0.391,0.094-0.561
				s0.152-0.314,0.27-0.434c0.117-0.121,0.259-0.213,0.425-0.279c0.166-0.064,0.35-0.098,0.551-0.098c0.204,0,0.389,0.033,0.556,0.1
				c0.166,0.066,0.309,0.16,0.427,0.281c0.119,0.123,0.209,0.268,0.271,0.436S57.972,42.287,57.972,42.49z M57.295,42.49
				c0-0.275-0.061-0.488-0.182-0.643c-0.121-0.152-0.283-0.229-0.487-0.229c-0.132,0-0.248,0.033-0.349,0.102
				s-0.178,0.17-0.231,0.303c-0.055,0.133-0.082,0.289-0.082,0.467c0,0.176,0.026,0.33,0.08,0.463
				c0.054,0.131,0.13,0.232,0.229,0.301c0.1,0.07,0.218,0.105,0.353,0.105c0.204,0,0.366-0.076,0.487-0.23
				S57.295,42.761,57.295,42.49z"/>
			<path fill="#FFFFFF" d="M59.172,42.888v0.562c0,0.137-0.032,0.238-0.097,0.307s-0.146,0.104-0.244,0.104
				c-0.098,0-0.177-0.035-0.239-0.104c-0.062-0.07-0.095-0.172-0.095-0.307v-1.877c0-0.303,0.11-0.455,0.329-0.455
				c0.111,0,0.192,0.037,0.242,0.107c0.049,0.07,0.076,0.176,0.081,0.312c0.081-0.137,0.163-0.242,0.248-0.312
				s0.198-0.107,0.34-0.107s0.279,0.037,0.412,0.107c0.134,0.07,0.2,0.164,0.2,0.281c0,0.082-0.028,0.15-0.085,0.203
				c-0.057,0.055-0.118,0.08-0.185,0.08c-0.024,0-0.084-0.014-0.179-0.045s-0.178-0.045-0.251-0.045
				c-0.099,0-0.179,0.025-0.241,0.076c-0.062,0.053-0.111,0.129-0.146,0.232c-0.034,0.102-0.058,0.223-0.071,0.363
				C59.179,42.513,59.172,42.685,59.172,42.888z"/>
		</g>
	</g>
	<g>
		<g>
			<path fill="#FFFFFF" d="M5.92,16.54H5.25v1.025c0,0.146-0.035,0.257-0.105,0.333c-0.068,0.075-0.156,0.113-0.262,0.113
				c-0.109,0-0.199-0.037-0.266-0.112c-0.068-0.075-0.102-0.185-0.102-0.329V14.78c0-0.161,0.037-0.276,0.111-0.346
				s0.191-0.104,0.354-0.104H5.92c0.279,0,0.494,0.021,0.643,0.064c0.148,0.041,0.277,0.109,0.385,0.204
				c0.107,0.096,0.189,0.213,0.246,0.352c0.055,0.138,0.084,0.293,0.084,0.467c0,0.368-0.115,0.647-0.342,0.838
				S6.372,16.54,5.92,16.54z M5.743,14.881H5.25v1.106h0.492c0.174,0,0.318-0.019,0.434-0.055c0.117-0.036,0.205-0.096,0.266-0.178
				s0.092-0.19,0.092-0.323c0-0.16-0.047-0.29-0.141-0.391C6.288,14.935,6.071,14.881,5.743,14.881z"/>
			<path fill="#FFFFFF" d="M7.842,17.602v-2.924c0-0.135,0.029-0.236,0.09-0.306s0.141-0.104,0.244-0.104
				c0.102,0,0.184,0.034,0.246,0.103s0.094,0.17,0.094,0.307v2.924c0,0.137-0.031,0.239-0.094,0.308
				c-0.064,0.068-0.146,0.103-0.246,0.103s-0.18-0.035-0.242-0.106C7.874,17.835,7.842,17.734,7.842,17.602z"/>
			<path fill="#FFFFFF" d="M11.094,16.807H9.776c0.002,0.153,0.033,0.288,0.094,0.405c0.059,0.117,0.139,0.205,0.238,0.264
				c0.1,0.06,0.211,0.09,0.33,0.09c0.08,0,0.154-0.01,0.221-0.029c0.066-0.019,0.133-0.048,0.195-0.089
				c0.062-0.04,0.119-0.083,0.172-0.129c0.053-0.047,0.121-0.109,0.205-0.188c0.035-0.029,0.084-0.044,0.148-0.044
				c0.068,0,0.125,0.019,0.168,0.057s0.064,0.092,0.064,0.16c0,0.062-0.023,0.133-0.072,0.214c-0.047,0.082-0.119,0.16-0.217,0.234
				c-0.096,0.075-0.217,0.138-0.361,0.187c-0.146,0.05-0.314,0.074-0.504,0.074c-0.432,0-0.77-0.123-1.01-0.37
				s-0.359-0.582-0.359-1.005c0-0.199,0.029-0.385,0.088-0.555s0.146-0.316,0.26-0.438s0.254-0.215,0.42-0.28
				c0.166-0.064,0.35-0.098,0.553-0.098c0.264,0,0.49,0.056,0.678,0.167c0.189,0.111,0.33,0.255,0.424,0.431
				c0.094,0.177,0.141,0.355,0.141,0.538c0,0.17-0.049,0.28-0.146,0.33C11.409,16.782,11.272,16.807,11.094,16.807z M9.776,16.424
				h1.223c-0.016-0.23-0.078-0.402-0.186-0.518c-0.109-0.114-0.25-0.171-0.426-0.171c-0.168,0-0.307,0.058-0.414,0.174
				S9.799,16.198,9.776,16.424z"/>
			<path fill="#FFFFFF" d="M13.922,17.632c-0.164,0.127-0.32,0.222-0.473,0.285s-0.324,0.095-0.514,0.095
				c-0.172,0-0.324-0.034-0.455-0.103s-0.23-0.16-0.303-0.277c-0.07-0.117-0.105-0.244-0.105-0.381c0-0.184,0.059-0.341,0.176-0.472
				c0.117-0.13,0.277-0.217,0.48-0.262c0.043-0.01,0.15-0.032,0.318-0.066c0.17-0.034,0.316-0.066,0.438-0.095
				c0.119-0.029,0.252-0.064,0.393-0.105c-0.008-0.178-0.043-0.308-0.107-0.392c-0.062-0.083-0.195-0.124-0.393-0.124
				c-0.172,0-0.301,0.023-0.387,0.071c-0.088,0.048-0.162,0.119-0.223,0.215c-0.062,0.096-0.105,0.158-0.131,0.188
				c-0.025,0.031-0.08,0.046-0.164,0.046c-0.076,0-0.143-0.024-0.197-0.072c-0.055-0.049-0.082-0.111-0.082-0.187
				c0-0.119,0.041-0.234,0.125-0.346c0.084-0.112,0.215-0.204,0.393-0.276c0.178-0.073,0.4-0.109,0.666-0.109
				c0.295,0,0.529,0.035,0.697,0.105c0.17,0.069,0.289,0.181,0.359,0.332s0.105,0.353,0.105,0.603c0,0.158,0,0.292-0.002,0.402
				c0,0.11-0.002,0.233-0.002,0.368c0,0.127,0.02,0.259,0.062,0.396c0.041,0.137,0.062,0.226,0.062,0.266
				c0,0.068-0.033,0.132-0.098,0.188s-0.139,0.085-0.221,0.085c-0.07,0-0.139-0.032-0.205-0.098
				C14.069,17.85,13.999,17.755,13.922,17.632z M13.877,16.656c-0.098,0.036-0.242,0.074-0.43,0.115
				c-0.189,0.04-0.32,0.069-0.393,0.089c-0.072,0.019-0.141,0.056-0.207,0.11c-0.066,0.056-0.1,0.133-0.1,0.231
				c0,0.102,0.039,0.188,0.117,0.261c0.076,0.071,0.178,0.107,0.303,0.107c0.135,0,0.258-0.029,0.369-0.088
				c0.113-0.059,0.195-0.134,0.248-0.227c0.062-0.102,0.092-0.27,0.092-0.503V16.656z"/>
			<path fill="#FFFFFF" d="M17.395,17.13c0,0.187-0.045,0.346-0.137,0.479c-0.09,0.132-0.223,0.232-0.4,0.301
				s-0.393,0.103-0.646,0.103c-0.242,0-0.449-0.037-0.621-0.111c-0.174-0.073-0.301-0.166-0.383-0.277s-0.125-0.223-0.125-0.335
				c0-0.074,0.027-0.137,0.08-0.189s0.119-0.079,0.199-0.079c0.072,0,0.125,0.017,0.164,0.052c0.037,0.034,0.074,0.083,0.107,0.146
				c0.07,0.12,0.152,0.21,0.248,0.27c0.098,0.059,0.229,0.089,0.395,0.089c0.135,0,0.246-0.03,0.332-0.091
				c0.086-0.06,0.131-0.129,0.131-0.206c0-0.118-0.045-0.205-0.135-0.259c-0.09-0.055-0.238-0.106-0.443-0.156
				c-0.232-0.058-0.422-0.118-0.566-0.182c-0.146-0.062-0.264-0.146-0.35-0.25c-0.088-0.104-0.131-0.231-0.131-0.383
				c0-0.135,0.039-0.263,0.121-0.383c0.08-0.12,0.199-0.216,0.355-0.288c0.158-0.071,0.348-0.107,0.57-0.107
				c0.174,0,0.33,0.019,0.471,0.055c0.139,0.036,0.254,0.085,0.348,0.146c0.092,0.062,0.164,0.129,0.213,0.202
				c0.047,0.074,0.072,0.147,0.072,0.218c0,0.077-0.025,0.141-0.078,0.19c-0.051,0.049-0.125,0.074-0.221,0.074
				c-0.068,0-0.129-0.021-0.176-0.06c-0.049-0.04-0.105-0.099-0.168-0.178c-0.051-0.066-0.111-0.119-0.18-0.158
				c-0.07-0.039-0.164-0.06-0.281-0.06c-0.123,0-0.225,0.026-0.305,0.078s-0.121,0.116-0.121,0.193c0,0.071,0.029,0.129,0.09,0.175
				c0.059,0.045,0.139,0.082,0.238,0.112c0.102,0.029,0.24,0.065,0.416,0.108c0.209,0.051,0.379,0.112,0.512,0.183
				c0.133,0.071,0.232,0.154,0.301,0.251C17.36,16.897,17.395,17.007,17.395,17.13z"/>
			<path fill="#FFFFFF" d="M19.846,16.807h-1.318c0.002,0.153,0.033,0.288,0.094,0.405c0.059,0.117,0.139,0.205,0.238,0.264
				c0.1,0.06,0.211,0.09,0.33,0.09c0.08,0,0.154-0.01,0.221-0.029c0.066-0.019,0.133-0.048,0.195-0.089
				c0.062-0.04,0.119-0.083,0.172-0.129c0.053-0.047,0.121-0.109,0.205-0.188c0.035-0.029,0.084-0.044,0.148-0.044
				c0.068,0,0.125,0.019,0.168,0.057s0.064,0.092,0.064,0.16c0,0.062-0.023,0.133-0.072,0.214c-0.047,0.082-0.119,0.16-0.217,0.234
				c-0.096,0.075-0.217,0.138-0.361,0.187c-0.146,0.05-0.314,0.074-0.504,0.074c-0.432,0-0.77-0.123-1.01-0.37
				s-0.359-0.582-0.359-1.005c0-0.199,0.029-0.385,0.088-0.555s0.146-0.316,0.26-0.438s0.254-0.215,0.42-0.28
				c0.166-0.064,0.35-0.098,0.553-0.098c0.264,0,0.49,0.056,0.678,0.167c0.189,0.111,0.33,0.255,0.424,0.431
				c0.094,0.177,0.141,0.355,0.141,0.538c0,0.17-0.049,0.28-0.146,0.33C20.161,16.782,20.024,16.807,19.846,16.807z M18.528,16.424
				h1.223c-0.016-0.23-0.078-0.402-0.186-0.518c-0.109-0.114-0.25-0.171-0.426-0.171c-0.168,0-0.307,0.058-0.414,0.174
				S18.551,16.198,18.528,16.424z"/>
			<path fill="#FFFFFF" d="M24.405,17.13c0,0.187-0.045,0.346-0.135,0.479c-0.09,0.132-0.225,0.232-0.402,0.301
				c-0.176,0.068-0.391,0.103-0.645,0.103c-0.242,0-0.449-0.037-0.623-0.111c-0.172-0.073-0.301-0.166-0.383-0.277
				s-0.123-0.223-0.123-0.335c0-0.074,0.025-0.137,0.078-0.189s0.121-0.079,0.201-0.079c0.07,0,0.125,0.017,0.162,0.052
				c0.039,0.034,0.074,0.083,0.109,0.146c0.068,0.12,0.152,0.21,0.248,0.27c0.096,0.059,0.229,0.089,0.395,0.089
				c0.135,0,0.244-0.03,0.332-0.091c0.086-0.06,0.129-0.129,0.129-0.206c0-0.118-0.045-0.205-0.135-0.259
				c-0.09-0.055-0.236-0.106-0.443-0.156c-0.232-0.058-0.42-0.118-0.566-0.182c-0.146-0.062-0.262-0.146-0.35-0.25
				s-0.131-0.231-0.131-0.383c0-0.135,0.041-0.263,0.121-0.383s0.199-0.216,0.357-0.288c0.156-0.071,0.346-0.107,0.568-0.107
				c0.176,0,0.332,0.019,0.471,0.055s0.256,0.085,0.348,0.146c0.094,0.062,0.164,0.129,0.213,0.202
				c0.049,0.074,0.072,0.147,0.072,0.218c0,0.077-0.025,0.141-0.076,0.19c-0.053,0.049-0.127,0.074-0.223,0.074
				c-0.068,0-0.127-0.021-0.176-0.06c-0.049-0.04-0.104-0.099-0.166-0.178c-0.051-0.066-0.111-0.119-0.182-0.158
				c-0.068-0.039-0.162-0.06-0.281-0.06c-0.121,0-0.223,0.026-0.303,0.078c-0.082,0.052-0.121,0.116-0.121,0.193
				c0,0.071,0.029,0.129,0.088,0.175c0.061,0.045,0.139,0.082,0.24,0.112c0.1,0.029,0.238,0.065,0.414,0.108
				c0.209,0.051,0.381,0.112,0.514,0.183c0.133,0.071,0.232,0.154,0.301,0.251C24.372,16.897,24.405,17.007,24.405,17.13z"/>
			<path fill="#FFFFFF" d="M26.68,17.632c-0.164,0.127-0.32,0.222-0.473,0.285s-0.324,0.095-0.514,0.095
				c-0.172,0-0.324-0.034-0.455-0.103s-0.23-0.16-0.303-0.277c-0.07-0.117-0.105-0.244-0.105-0.381c0-0.184,0.059-0.341,0.176-0.472
				c0.117-0.13,0.277-0.217,0.48-0.262c0.043-0.01,0.15-0.032,0.318-0.066c0.17-0.034,0.316-0.066,0.438-0.095
				c0.119-0.029,0.252-0.064,0.393-0.105c-0.008-0.178-0.043-0.308-0.107-0.392c-0.062-0.083-0.195-0.124-0.393-0.124
				c-0.172,0-0.301,0.023-0.387,0.071c-0.088,0.048-0.162,0.119-0.223,0.215c-0.062,0.096-0.105,0.158-0.131,0.188
				c-0.025,0.031-0.08,0.046-0.164,0.046c-0.076,0-0.143-0.024-0.197-0.072c-0.055-0.049-0.082-0.111-0.082-0.187
				c0-0.119,0.041-0.234,0.125-0.346c0.084-0.112,0.215-0.204,0.393-0.276c0.178-0.073,0.4-0.109,0.666-0.109
				c0.295,0,0.529,0.035,0.697,0.105c0.17,0.069,0.289,0.181,0.359,0.332s0.105,0.353,0.105,0.603c0,0.158,0,0.292-0.002,0.402
				c0,0.11-0.002,0.233-0.002,0.368c0,0.127,0.02,0.259,0.062,0.396c0.041,0.137,0.062,0.226,0.062,0.266
				c0,0.068-0.033,0.132-0.098,0.188s-0.139,0.085-0.221,0.085c-0.07,0-0.139-0.032-0.205-0.098
				C26.827,17.85,26.756,17.755,26.68,17.632z M26.635,16.656c-0.098,0.036-0.242,0.074-0.43,0.115
				c-0.189,0.04-0.32,0.069-0.393,0.089c-0.072,0.019-0.141,0.056-0.207,0.11c-0.066,0.056-0.1,0.133-0.1,0.231
				c0,0.102,0.039,0.188,0.117,0.261c0.076,0.071,0.178,0.107,0.303,0.107c0.135,0,0.258-0.029,0.369-0.088
				c0.113-0.059,0.195-0.134,0.248-0.227c0.062-0.102,0.092-0.27,0.092-0.503V16.656z"/>
			<path fill="#FFFFFF" d="M28.538,18.096l0.061-0.15l-0.83-2.089c-0.051-0.12-0.076-0.208-0.076-0.262
				c0-0.058,0.016-0.111,0.045-0.161c0.029-0.049,0.07-0.089,0.123-0.118c0.051-0.03,0.105-0.045,0.16-0.045
				c0.098,0,0.172,0.031,0.221,0.093s0.094,0.15,0.131,0.266l0.57,1.659l0.541-1.543c0.043-0.125,0.082-0.224,0.115-0.294
				c0.035-0.071,0.072-0.118,0.111-0.144c0.037-0.024,0.092-0.037,0.164-0.037c0.051,0,0.1,0.014,0.146,0.041
				s0.082,0.063,0.109,0.11c0.025,0.046,0.037,0.095,0.037,0.146c-0.006,0.031-0.018,0.075-0.031,0.133
				c-0.016,0.058-0.033,0.116-0.055,0.176l-0.879,2.302c-0.076,0.202-0.15,0.361-0.223,0.477s-0.168,0.203-0.287,0.266
				c-0.119,0.062-0.281,0.092-0.484,0.092c-0.197,0-0.346-0.021-0.443-0.063c-0.1-0.043-0.148-0.121-0.148-0.235
				c0-0.077,0.023-0.137,0.07-0.179s0.117-0.062,0.209-0.062c0.035,0,0.072,0.005,0.105,0.015c0.043,0.01,0.08,0.015,0.111,0.015
				c0.078,0,0.139-0.012,0.184-0.034c0.043-0.023,0.084-0.063,0.119-0.12S28.491,18.206,28.538,18.096z"/>
			<path fill="#FFFFFF" d="M4.889,21.76l0.439,1.507l0.4-1.4c0.043-0.146,0.074-0.247,0.096-0.3c0.02-0.054,0.059-0.104,0.115-0.153
				s0.135-0.073,0.232-0.073c0.102,0,0.18,0.024,0.236,0.073s0.098,0.102,0.121,0.158c0.021,0.057,0.055,0.155,0.096,0.295l0.4,1.4
				l0.443-1.507c0.029-0.108,0.055-0.188,0.072-0.235c0.018-0.049,0.049-0.092,0.092-0.129s0.104-0.056,0.186-0.056
				c0.08,0,0.15,0.028,0.209,0.084c0.059,0.057,0.09,0.122,0.09,0.198c0,0.068-0.027,0.173-0.078,0.313l-0.551,1.615
				c-0.047,0.136-0.084,0.235-0.111,0.296c-0.025,0.061-0.066,0.115-0.123,0.163S7.12,24.081,7.02,24.081
				c-0.102,0-0.182-0.025-0.24-0.076s-0.102-0.113-0.131-0.188c-0.027-0.074-0.057-0.171-0.09-0.289l-0.387-1.314l-0.371,1.314
				c-0.051,0.183-0.104,0.32-0.162,0.413c-0.057,0.094-0.158,0.14-0.303,0.14c-0.074,0-0.137-0.015-0.189-0.043
				c-0.051-0.029-0.096-0.07-0.129-0.123c-0.035-0.054-0.066-0.117-0.092-0.19c-0.027-0.073-0.047-0.132-0.062-0.174l-0.545-1.615
				c-0.055-0.151-0.082-0.256-0.082-0.313c0-0.073,0.029-0.138,0.086-0.195c0.059-0.058,0.129-0.087,0.213-0.087
				c0.111,0,0.188,0.032,0.227,0.096C4.803,21.499,4.844,21.607,4.889,21.76z"/>
			<path fill="#FFFFFF" d="M9.241,20.747v1.001c0.084-0.1,0.168-0.178,0.25-0.235s0.172-0.101,0.27-0.129
				c0.1-0.029,0.205-0.044,0.32-0.044c0.17,0,0.322,0.036,0.455,0.109c0.133,0.072,0.236,0.178,0.312,0.315
				c0.047,0.081,0.08,0.171,0.096,0.271s0.025,0.215,0.025,0.345v1.291c0,0.136-0.031,0.237-0.094,0.307
				c-0.061,0.069-0.143,0.104-0.246,0.104c-0.221,0-0.332-0.137-0.332-0.41v-1.138c0-0.216-0.033-0.382-0.098-0.498
				c-0.062-0.116-0.186-0.174-0.365-0.174c-0.119,0-0.229,0.034-0.324,0.103s-0.168,0.161-0.217,0.28
				c-0.035,0.101-0.053,0.279-0.053,0.536v0.891c0,0.134-0.031,0.235-0.092,0.306c-0.059,0.069-0.143,0.104-0.25,0.104
				c-0.223,0-0.334-0.137-0.334-0.41v-2.924c0-0.137,0.029-0.238,0.088-0.307s0.141-0.103,0.246-0.103
				c0.107,0,0.191,0.034,0.25,0.104C9.209,20.511,9.241,20.613,9.241,20.747z"/>
			<path fill="#FFFFFF" d="M14.159,22.711c0,0.2-0.031,0.386-0.094,0.556c-0.062,0.169-0.152,0.315-0.271,0.437
				c-0.119,0.122-0.26,0.216-0.424,0.28c-0.166,0.065-0.352,0.098-0.557,0.098c-0.203,0-0.387-0.033-0.551-0.099
				c-0.162-0.065-0.305-0.16-0.424-0.282c-0.119-0.123-0.209-0.268-0.271-0.436c-0.061-0.167-0.092-0.352-0.092-0.554
				c0-0.204,0.031-0.392,0.094-0.561c0.062-0.17,0.152-0.314,0.27-0.435s0.258-0.213,0.424-0.278
				c0.166-0.064,0.35-0.098,0.551-0.098c0.205,0,0.389,0.033,0.557,0.099c0.166,0.066,0.309,0.16,0.426,0.282
				c0.119,0.122,0.209,0.267,0.271,0.435C14.127,22.323,14.159,22.508,14.159,22.711z M13.483,22.711
				c0-0.275-0.061-0.489-0.182-0.643c-0.121-0.152-0.283-0.229-0.488-0.229c-0.131,0-0.248,0.034-0.348,0.103
				c-0.102,0.068-0.178,0.169-0.232,0.303c-0.055,0.133-0.082,0.289-0.082,0.467c0,0.176,0.027,0.33,0.08,0.462
				c0.055,0.132,0.131,0.232,0.23,0.302c0.1,0.07,0.217,0.105,0.352,0.105c0.205,0,0.367-0.077,0.488-0.231
				C13.422,23.196,13.483,22.983,13.483,22.711z"/>
			<path fill="#FFFFFF" d="M16.295,21.027c-0.094,0-0.174-0.028-0.24-0.086s-0.1-0.14-0.1-0.245c0-0.095,0.033-0.174,0.102-0.235
				s0.148-0.093,0.238-0.093c0.088,0,0.164,0.028,0.232,0.084c0.066,0.056,0.102,0.138,0.102,0.244c0,0.104-0.033,0.186-0.1,0.243
				C16.463,20.997,16.385,21.027,16.295,21.027z M16.629,21.723v1.948c0,0.136-0.033,0.237-0.098,0.307
				c-0.062,0.069-0.145,0.104-0.244,0.104c-0.098,0-0.178-0.035-0.24-0.106c-0.062-0.07-0.092-0.172-0.092-0.304v-1.929
				c0-0.133,0.029-0.233,0.092-0.301s0.143-0.102,0.24-0.102c0.1,0,0.182,0.034,0.244,0.102
				C16.596,21.509,16.629,21.603,16.629,21.723z"/>
			<path fill="#FFFFFF" d="M19.497,23.199c0,0.187-0.045,0.346-0.137,0.479c-0.09,0.132-0.223,0.232-0.4,0.301
				s-0.393,0.103-0.646,0.103c-0.242,0-0.449-0.037-0.621-0.111c-0.174-0.073-0.301-0.166-0.383-0.277s-0.125-0.223-0.125-0.335
				c0-0.074,0.027-0.137,0.08-0.189s0.119-0.079,0.199-0.079c0.072,0,0.125,0.017,0.164,0.052c0.037,0.034,0.074,0.083,0.107,0.146
				c0.07,0.12,0.152,0.21,0.248,0.27c0.098,0.059,0.229,0.089,0.395,0.089c0.135,0,0.246-0.03,0.332-0.091
				c0.086-0.06,0.131-0.129,0.131-0.206c0-0.118-0.045-0.205-0.135-0.259c-0.09-0.055-0.238-0.106-0.443-0.156
				c-0.232-0.058-0.422-0.118-0.566-0.182c-0.146-0.062-0.264-0.146-0.35-0.25c-0.088-0.104-0.131-0.231-0.131-0.383
				c0-0.135,0.039-0.263,0.121-0.383c0.08-0.12,0.199-0.216,0.355-0.288c0.158-0.071,0.348-0.107,0.57-0.107
				c0.174,0,0.33,0.019,0.471,0.055c0.139,0.036,0.254,0.085,0.348,0.146c0.092,0.062,0.164,0.129,0.213,0.202
				c0.047,0.074,0.072,0.147,0.072,0.218c0,0.077-0.025,0.141-0.078,0.19c-0.051,0.049-0.125,0.074-0.221,0.074
				c-0.068,0-0.129-0.021-0.176-0.06c-0.049-0.04-0.105-0.099-0.168-0.178c-0.051-0.066-0.111-0.119-0.18-0.158
				c-0.07-0.039-0.164-0.06-0.281-0.06c-0.123,0-0.225,0.026-0.305,0.078s-0.121,0.116-0.121,0.193c0,0.071,0.029,0.129,0.09,0.175
				c0.059,0.045,0.139,0.082,0.238,0.112c0.102,0.029,0.24,0.065,0.416,0.108c0.209,0.051,0.379,0.112,0.512,0.183
				c0.133,0.071,0.232,0.154,0.301,0.251C19.461,22.966,19.497,23.076,19.497,23.199z"/>
			<path fill="#FFFFFF" d="M23.749,23.247c0,0.083-0.025,0.173-0.076,0.269c-0.049,0.096-0.127,0.187-0.229,0.273
				c-0.104,0.086-0.232,0.155-0.389,0.208c-0.158,0.053-0.334,0.079-0.529,0.079c-0.416,0-0.742-0.121-0.975-0.364
				c-0.234-0.242-0.352-0.568-0.352-0.977c0-0.276,0.053-0.521,0.16-0.733s0.262-0.377,0.465-0.492
				c0.203-0.116,0.443-0.175,0.727-0.175c0.174,0,0.334,0.025,0.48,0.077c0.145,0.051,0.268,0.116,0.369,0.197
				s0.18,0.167,0.232,0.258c0.053,0.092,0.08,0.177,0.08,0.256c0,0.081-0.029,0.149-0.09,0.205s-0.133,0.084-0.219,0.084
				c-0.057,0-0.102-0.015-0.139-0.043c-0.037-0.029-0.08-0.076-0.125-0.14c-0.082-0.125-0.168-0.22-0.258-0.282
				s-0.205-0.094-0.342-0.094c-0.199,0-0.361,0.078-0.482,0.233c-0.121,0.156-0.184,0.368-0.184,0.639
				c0,0.127,0.016,0.243,0.047,0.35c0.031,0.105,0.078,0.196,0.137,0.271s0.131,0.132,0.215,0.17
				c0.084,0.039,0.176,0.059,0.277,0.059c0.135,0,0.25-0.031,0.346-0.094c0.098-0.062,0.182-0.158,0.256-0.287
				c0.041-0.075,0.086-0.135,0.133-0.178c0.049-0.042,0.107-0.063,0.176-0.063c0.082,0,0.15,0.031,0.205,0.094
				S23.749,23.176,23.749,23.247z"/>
			<path fill="#FFFFFF" d="M26.04,23.701c-0.162,0.127-0.32,0.222-0.473,0.285s-0.322,0.095-0.512,0.095
				c-0.174,0-0.324-0.034-0.455-0.103s-0.232-0.16-0.303-0.277s-0.107-0.244-0.107-0.381c0-0.184,0.059-0.341,0.176-0.472
				c0.117-0.13,0.277-0.217,0.482-0.262c0.043-0.01,0.148-0.032,0.318-0.066s0.314-0.066,0.436-0.095
				c0.121-0.029,0.252-0.064,0.395-0.105c-0.01-0.178-0.045-0.308-0.107-0.392c-0.064-0.083-0.195-0.124-0.395-0.124
				c-0.172,0-0.301,0.023-0.387,0.071s-0.16,0.119-0.223,0.215c-0.061,0.096-0.105,0.158-0.131,0.188
				c-0.025,0.031-0.08,0.046-0.164,0.046c-0.076,0-0.141-0.024-0.195-0.072c-0.057-0.049-0.084-0.111-0.084-0.187
				c0-0.119,0.043-0.234,0.127-0.346c0.084-0.112,0.215-0.204,0.393-0.276c0.178-0.073,0.398-0.109,0.664-0.109
				c0.297,0,0.529,0.035,0.699,0.105c0.17,0.069,0.289,0.181,0.359,0.332s0.105,0.353,0.105,0.603c0,0.158-0.002,0.292-0.002,0.402
				c-0.002,0.11-0.002,0.233-0.004,0.368c0,0.127,0.021,0.259,0.062,0.396c0.043,0.137,0.062,0.226,0.062,0.266
				c0,0.068-0.031,0.132-0.096,0.188c-0.066,0.057-0.139,0.085-0.223,0.085c-0.068,0-0.137-0.032-0.205-0.098
				C26.188,23.919,26.116,23.824,26.04,23.701z M25.997,22.726c-0.1,0.036-0.242,0.074-0.432,0.115
				c-0.188,0.04-0.318,0.069-0.391,0.089c-0.072,0.019-0.143,0.056-0.209,0.11c-0.064,0.056-0.098,0.133-0.098,0.231
				c0,0.102,0.039,0.188,0.115,0.261c0.078,0.071,0.18,0.107,0.305,0.107c0.133,0,0.256-0.029,0.369-0.088s0.195-0.134,0.248-0.227
				c0.061-0.102,0.092-0.27,0.092-0.503V22.726z"/>
			<path fill="#FFFFFF" d="M27.342,23.671v-2.924c0-0.135,0.029-0.236,0.09-0.306c0.059-0.069,0.141-0.104,0.242-0.104
				s0.186,0.034,0.248,0.103s0.094,0.17,0.094,0.307v2.924c0,0.137-0.033,0.239-0.096,0.308s-0.145,0.103-0.246,0.103
				c-0.098,0-0.178-0.035-0.24-0.106C27.372,23.905,27.342,23.803,27.342,23.671z"/>
			<path fill="#FFFFFF" d="M28.713,23.671v-2.924c0-0.135,0.029-0.236,0.09-0.306c0.059-0.069,0.141-0.104,0.242-0.104
				s0.186,0.034,0.248,0.103s0.094,0.17,0.094,0.307v2.924c0,0.137-0.033,0.239-0.096,0.308s-0.145,0.103-0.246,0.103
				c-0.098,0-0.178-0.035-0.24-0.106C28.743,23.905,28.713,23.803,28.713,23.671z"/>
			<path fill="#FFFFFF" d="M30.424,21.027c-0.096,0-0.176-0.028-0.242-0.086s-0.1-0.14-0.1-0.245c0-0.095,0.035-0.174,0.102-0.235
				c0.068-0.062,0.148-0.093,0.24-0.093c0.086,0,0.164,0.028,0.23,0.084c0.068,0.056,0.102,0.138,0.102,0.244
				c0,0.104-0.033,0.186-0.098,0.243C30.592,20.997,30.514,21.027,30.424,21.027z M30.756,21.723v1.948
				c0,0.136-0.031,0.237-0.096,0.307s-0.146,0.104-0.244,0.104c-0.1,0-0.18-0.035-0.242-0.106c-0.061-0.07-0.092-0.172-0.092-0.304
				v-1.929c0-0.133,0.031-0.233,0.092-0.301c0.062-0.067,0.143-0.102,0.242-0.102c0.098,0,0.18,0.034,0.244,0.102
				S30.756,21.603,30.756,21.723z"/>
			<path fill="#FFFFFF" d="M32.067,21.713v0.082c0.117-0.157,0.248-0.271,0.389-0.345s0.303-0.11,0.484-0.11
				c0.178,0,0.338,0.039,0.477,0.116c0.141,0.077,0.244,0.188,0.314,0.328c0.045,0.083,0.072,0.172,0.086,0.268
				c0.014,0.095,0.02,0.217,0.02,0.365v1.254c0,0.136-0.031,0.237-0.092,0.307c-0.062,0.069-0.143,0.104-0.242,0.104
				s-0.182-0.035-0.244-0.106c-0.062-0.07-0.094-0.172-0.094-0.304v-1.123c0-0.223-0.031-0.393-0.092-0.51
				c-0.062-0.118-0.186-0.177-0.369-0.177c-0.121,0-0.23,0.036-0.328,0.107c-0.1,0.071-0.172,0.17-0.219,0.295
				c-0.031,0.101-0.049,0.288-0.049,0.563v0.844c0,0.137-0.031,0.239-0.096,0.308c-0.062,0.068-0.145,0.103-0.244,0.103
				c-0.098,0-0.178-0.035-0.24-0.106c-0.062-0.07-0.094-0.172-0.094-0.304v-1.948c0-0.128,0.027-0.224,0.084-0.287
				s0.133-0.096,0.229-0.096c0.061,0,0.113,0.015,0.162,0.042c0.047,0.028,0.086,0.07,0.113,0.126
				C32.051,21.565,32.067,21.633,32.067,21.713z"/>
			<path fill="#FFFFFF" d="M36.987,21.834v1.958c0,0.225-0.023,0.417-0.07,0.578c-0.049,0.161-0.125,0.295-0.23,0.4
				s-0.242,0.184-0.414,0.234c-0.17,0.051-0.381,0.076-0.635,0.076c-0.232,0-0.439-0.032-0.623-0.098
				c-0.182-0.064-0.322-0.148-0.422-0.251c-0.1-0.104-0.148-0.209-0.148-0.317c0-0.083,0.027-0.149,0.084-0.201
				c0.057-0.053,0.123-0.078,0.203-0.078c0.098,0,0.186,0.043,0.26,0.131c0.035,0.044,0.072,0.089,0.111,0.135
				c0.039,0.045,0.082,0.084,0.129,0.116c0.047,0.031,0.104,0.056,0.168,0.071c0.066,0.016,0.143,0.023,0.229,0.023
				c0.174,0,0.309-0.024,0.406-0.073c0.096-0.048,0.164-0.116,0.201-0.203c0.039-0.088,0.062-0.181,0.068-0.28
				c0.008-0.1,0.012-0.26,0.016-0.48c-0.104,0.145-0.225,0.255-0.359,0.331c-0.137,0.075-0.299,0.113-0.486,0.113
				c-0.225,0-0.422-0.058-0.59-0.173c-0.17-0.115-0.299-0.276-0.391-0.484c-0.09-0.207-0.135-0.446-0.135-0.719
				c0-0.202,0.027-0.385,0.082-0.548s0.135-0.301,0.236-0.412c0.102-0.112,0.221-0.196,0.354-0.253
				c0.133-0.058,0.279-0.086,0.439-0.086c0.191,0,0.355,0.037,0.496,0.11s0.27,0.188,0.391,0.345v-0.092
				c0-0.117,0.029-0.207,0.086-0.271c0.059-0.064,0.131-0.097,0.223-0.097c0.129,0,0.217,0.043,0.26,0.128
				C36.965,21.552,36.987,21.675,36.987,21.834z M35.034,22.689c0,0.273,0.061,0.479,0.18,0.62c0.119,0.14,0.273,0.21,0.463,0.21
				c0.111,0,0.219-0.03,0.318-0.091c0.1-0.06,0.18-0.15,0.242-0.271s0.094-0.268,0.094-0.44c0-0.275-0.061-0.489-0.182-0.643
				c-0.121-0.152-0.279-0.229-0.477-0.229c-0.193,0-0.348,0.073-0.465,0.22C35.092,22.21,35.034,22.419,35.034,22.689z"/>
		</g>
	</g>
	<g>
		<polygon fill="#FFFFFF" points="58.729,16.958 58.729,22.141 63.313,19.55 		"/>
		<path fill="#FFFFFF" d="M60.233,14.869c2.639,0,4.775,2.143,4.775,4.774c0,2.638-2.137,4.773-4.775,4.773
			c-2.631,0-4.77-2.136-4.77-4.773C55.463,17.012,57.602,14.869,60.233,14.869 M60.233,14.369c-2.905,0-5.27,2.366-5.27,5.274
			c0,2.908,2.364,5.273,5.27,5.273c2.909,0,5.275-2.366,5.275-5.273C65.508,16.736,63.142,14.369,60.233,14.369L60.233,14.369z"/>
	</g>
</g>
</svg>
