<?xml version="1.0" encoding="utf-8"?>
<!-- Generator: Adobe Illustrator 15.0.0, SVG Export Plug-In . SVG Version: 6.00 Build 0)  -->
<!DOCTYPE svg PUBLIC "-//W3C//DTD SVG 1.1//EN" "http://www.w3.org/Graphics/SVG/1.1/DTD/svg11.dtd">
<svg version="1.1" id="Layer_1" xmlns="http://www.w3.org/2000/svg" xmlns:xlink="http://www.w3.org/1999/xlink" x="0px" y="0px"
	 width="90.665px" height="58.73px" viewBox="0 0 90.665 58.73" enable-background="new 0 0 90.665 58.73" xml:space="preserve">
<g>
	<g>
		<g>
			<path fill="#9E9D9C" d="M90.665,18.184c0,1.727-1.412,3.139-3.139,3.139H7.007c-1.727,0-3.139-1.412-3.139-3.139V7.027
				c0-1.727,1.412-3.139,3.139-3.139h80.519c1.727,0,3.139,1.412,3.139,3.139V18.184z"/>
		</g>
		<polygon fill="#9E9D9C" points="44.831,20.244 52.788,20.244 55.167,29.661 		"/>
	</g>
	
		<radialGradient id="SVGID_1_" cx="-1143.2026" cy="-428.2793" r="39.9382" gradientTransform="matrix(0.4097 0 0 0.0996 529.0527 93.0861)" gradientUnits="userSpaceOnUse">
		<stop  offset="0" style="stop-color:#9C9C9C"/>
		<stop  offset="0.019" style="stop-color:#A2A1A1"/>
		<stop  offset="0.2086" style="stop-color:#D4D4D4"/>
		<stop  offset="0.3423" style="stop-color:#E2E1E2"/>
		<stop  offset="0.5547" style="stop-color:#F2F2F2"/>
		<stop  offset="0.7721" style="stop-color:#FCFCFC"/>
		<stop  offset="1" style="stop-color:#FFFFFF"/>
	</radialGradient>
	<ellipse fill="url(#SVGID_1_)" cx="60.682" cy="50.444" rx="16.629" ry="4.398"/>
	
		<radialGradient id="SVGID_2_" cx="-1250.3081" cy="-430.2183" r="39.9401" gradientTransform="matrix(0.4097 0 0 0.0996 529.0527 91.986)" gradientUnits="userSpaceOnUse">
		<stop  offset="0" style="stop-color:#9C9C9C"/>
		<stop  offset="0.019" style="stop-color:#A2A1A1"/>
		<stop  offset="0.2086" style="stop-color:#D4D4D4"/>
		<stop  offset="0.3423" style="stop-color:#E2E1E2"/>
		<stop  offset="0.5547" style="stop-color:#F2F2F2"/>
		<stop  offset="0.7721" style="stop-color:#FCFCFC"/>
		<stop  offset="1" style="stop-color:#FFFFFF"/>
	</radialGradient>
	<ellipse fill="url(#SVGID_2_)" cx="16.802" cy="49.153" rx="16.629" ry="4.396"/>
	<g>
		<g>
			
				<path fill="#FFFFFF" stroke="#1E1E1C" stroke-width="0.4414" stroke-linecap="round" stroke-linejoin="round" stroke-miterlimit="10" d="
				M18.882,29.27c0,2.247-1.82,4.069-4.066,4.069c-2.247,0-4.067-1.822-4.067-4.069c0-2.244,1.82-4.065,4.067-4.065
				C17.062,25.205,18.882,27.026,18.882,29.27z"/>
			<path fill="#1E1E1C" d="M17.118,25.921c-0.656-0.45-1.447-0.717-2.303-0.717c-2.247,0-4.067,1.821-4.067,4.065
				c0,0.178,0.014,0.349,0.036,0.52c1.205-0.257,2.604-0.868,3.966-1.8C15.687,27.35,16.487,26.639,17.118,25.921z"/>
			
				<rect x="10.909" y="25.89" transform="matrix(0.8023 0.597 -0.597 0.8023 18.0319 -1.5269)" fill="none" stroke="#1E1E1C" stroke-width="0.3766" stroke-linecap="round" stroke-linejoin="round" stroke-miterlimit="10" width="0.823" height="1.133"/>
			<path fill="#1E1E1C" d="M9.442,31.765c0.049-3.219-1.887-4.206-1.578-6.239c0.303-2.009,3.457-1.826,3.465,0.23
				c-0.387,0.52-0.676,0.909-0.676,0.909s-1.127-0.425-0.98,0.72C9.85,28.77,9.902,29.79,9.442,31.765z"/>
			<path fill="#1E1E1C" d="M17.948,28.711c0,0.254-0.123,0.459-0.277,0.459c-0.15,0-0.277-0.205-0.277-0.459
				c0-0.256,0.127-0.461,0.277-0.461C17.825,28.25,17.948,28.456,17.948,28.711z"/>
			<ellipse fill="#1E1E1C" cx="16.146" cy="29.79" rx="0.327" ry="0.472"/>
			<path fill="#1E1E1C" d="M18.106,30.551c0,0-0.436,1.504-1.305,0.971"/>
			
				<rect x="12.457" y="29.581" transform="matrix(0.9232 -0.3843 0.3843 0.9232 -11.0073 7.6427)" fill="#FFFFFF" stroke="#1E1E1C" stroke-width="0.4414" stroke-linecap="round" stroke-linejoin="round" stroke-miterlimit="10" width="2.322" height="3.561"/>
			<g>
				<polyline fill="none" stroke="#1E1E1C" stroke-width="0.4414" stroke-linecap="round" stroke-linejoin="round" points="
					13.264,31.362 11.57,37.03 13.932,34.946 				"/>
			</g>
			
				<polyline fill="none" stroke="#1E1E1C" stroke-width="0.4414" stroke-linecap="round" stroke-linejoin="round" stroke-miterlimit="10" points="
				18.882,38.866 20.407,35.642 17.948,34.599 			"/>
			
				<path fill="none" stroke="#1E1E1C" stroke-width="0.4414" stroke-linecap="round" stroke-linejoin="round" stroke-miterlimit="10" d="
				M14.78,44.327c0,0.104-0.354,2.602-0.553,3.988c-0.077,0.535-1.024,0.791-1.024,0.791"/>
			
				<path fill="none" stroke="#1E1E1C" stroke-width="0.4414" stroke-linecap="round" stroke-linejoin="round" stroke-miterlimit="10" d="
				M17.46,44.327c0,0.105,0.111,2.645,0.172,4.023c0.023,0.518,1.057,0.369,1.057,0.369"/>
			<polygon fill="#9D9D9C" points="18.938,43.476 13.356,43.476 14.815,34.259 17.085,34.259 			"/>
		</g>
	</g>
	<path fill="#F29107" d="M42.901,19.41"/>
	<g>
		<g>
			
				<polygon fill="#FFFFFF" stroke="#1E1E1C" stroke-width="0.4721" stroke-linecap="round" stroke-linejoin="round" stroke-miterlimit="10" points="
				60.17,39.403 55.731,37.056 55.963,30.769 61.032,32.481 			"/>
			<polygon fill="#1E1E1C" points="57.616,33.989 56.532,33.593 56.817,33.271 57.493,33.614 			"/>
			<polygon fill="#1E1E1C" points="59.635,34.884 58.469,34.384 58.698,34.077 59.5,34.421 			"/>
			<polygon fill="#1E1E1C" points="58.227,36.405 57.393,36.112 57.102,35.237 59.04,36.302 			"/>
			
				<polygon fill="#FFFFFF" stroke="#1E1E1C" stroke-width="0.4721" stroke-linecap="round" stroke-linejoin="round" stroke-miterlimit="10" points="
				61.032,32.481 55.963,30.769 60.6,30.972 64.629,32.481 			"/>
			
				<polygon fill="#FFFFFF" stroke="#1E1E1C" stroke-width="0.4721" stroke-linecap="round" stroke-linejoin="round" stroke-miterlimit="10" points="
				63.727,38.511 60.17,39.403 60.997,32.481 64.629,32.481 			"/>
			
				<path fill="none" stroke="#1E1E1C" stroke-width="0.4721" stroke-linecap="round" stroke-linejoin="round" stroke-miterlimit="10" d="
				M52.737,42.132c0,0,2.172,3.062,4.129,0.041"/>
			
				<path fill="none" stroke="#1E1E1C" stroke-width="0.4721" stroke-linecap="round" stroke-linejoin="round" stroke-miterlimit="10" d="
				M64.461,41.595c0,0,1.836,0.463-1.918,3.102"/>
			
				<ellipse transform="matrix(0.9244 0.3814 -0.3814 0.9244 18.5867 -21.0482)" fill="#1E1E1C" cx="62.398" cy="36.37" rx="1.178" ry="1.613"/>
			
				<path fill="none" stroke="#1E1E1C" stroke-width="0.2361" stroke-linecap="round" stroke-linejoin="round" stroke-miterlimit="10" d="
				M57.95,30.747c0.551-1.216,1.455-2.008,2.479-2.008c1.676,0,3.033,2.127,3.033,4.752c0,1.234-0.299,2.359-0.791,3.203"/>
			
				<path fill="none" stroke="#1E1E1C" stroke-width="0.4721" stroke-linecap="round" stroke-linejoin="round" stroke-miterlimit="10" d="
				M62.67,36.694"/>
			
				<path fill="none" stroke="#1E1E1C" stroke-width="0.9443" stroke-linecap="round" stroke-linejoin="round" stroke-miterlimit="10" d="
				M59.139,29.188c1.076-0.62,2.365-0.449,3.258,0.688"/>
			<path fill="#1E1E1C" d="M56.428,39.095c-0.24,0.287-0.746,0.26-1.135-0.062c-0.383-0.318-0.502-0.814-0.264-1.102
				c0.24-0.289,0.748-0.264,1.133,0.061C56.551,38.312,56.67,38.804,56.428,39.095z"/>
			
				<ellipse transform="matrix(0.9241 0.3821 -0.3821 0.9241 18.7113 -21.1676)" fill="#FFFFFF" cx="62.656" cy="36.531" rx="0.519" ry="0.796"/>
			
				<path fill="none" stroke="#1E1E1C" stroke-width="0.2361" stroke-linecap="round" stroke-linejoin="round" stroke-miterlimit="10" d="
				M62.754,36.573c-1.111,1.594-3.793,4.221-7.025,1.938"/>
			<text transform="matrix(1 0 0 1 58.6401 43.3096)" fill="#1E1E1C" font-family="'ArialRoundedMTBold'" font-size="1.7676">AR-1</text>
			<g>
				<path fill="none" stroke="#1E1E1C" stroke-width="0.5204" stroke-miterlimit="10" d="M63.139,45.571
					c-0.074,0.562-0.6,1.023-1.168,1.023h-2.496c-0.568,0-1.111-0.458-1.207-1.018l-0.729-4.252
					c-0.096-0.56,0.291-1.018,0.859-1.018h4.402c0.568,0,0.973,0.461,0.898,1.023L63.139,45.571z"/>
			</g>
			<g>
				<path fill="#FFFFFF" d="M62.782,49.548c-0.178-0.454-0.787-0.826-1.355-0.826h-1.463c-0.568,0-1.221,0.372-1.449,0.826
					s0.049,0.826,0.617,0.826h2.939C62.639,50.374,62.959,50.002,62.782,49.548z"/>
				<path fill="none" stroke="#1E1E1C" stroke-width="0.5204" stroke-miterlimit="10" d="M62.782,49.548
					c-0.178-0.454-0.787-0.826-1.355-0.826h-1.463c-0.568,0-1.221,0.372-1.449,0.826s0.049,0.826,0.617,0.826h2.939
					C62.639,50.374,62.959,50.002,62.782,49.548z"/>
			</g>
			
				<rect x="60.17" y="46.595" fill="#FFFFFF" stroke="#1E1E1C" stroke-width="0.5204" stroke-miterlimit="10" width="0.861" height="2.127"/>
			
				<path fill="none" stroke="#1E1E1C" stroke-width="0.4721" stroke-linecap="round" stroke-linejoin="round" stroke-miterlimit="10" d="
				M61.543,44.423c0.439-0.158,0.889-0.037,1,0.273c0.115,0.312-0.148,0.695-0.586,0.855"/>
		</g>
	</g>
	<g>
		<path fill="#1E1E1C" d="M54.571,39.696l-7.367-3.74c-0.199-0.102-0.445-0.02-0.547,0.182l-1.943,3.83
			c-0.102,0.201-0.023,0.445,0.176,0.547l7.369,3.74c0.201,0.1,0.445,0.021,0.549-0.18l1.943-3.83
			C54.852,40.042,54.772,39.798,54.571,39.696z"/>
		<path fill="#FFFFFF" d="M52.485,43.587c-0.045,0.09-0.158,0.127-0.248,0.082l-6.855-3.48c-0.092-0.045-0.129-0.158-0.082-0.25
			l1.682-3.312c0.045-0.092,0.158-0.125,0.248-0.08l6.853,3.479c0.094,0.047,0.131,0.158,0.084,0.248L52.485,43.587z"/>
		<path fill="#1E1E1C" d="M51.85,39.729c-0.631-0.32-1.4-0.068-1.723,0.562c-0.148,0.293-0.172,0.615-0.094,0.91l-1.365-0.693
			c0.283-0.109,0.529-0.32,0.68-0.613c0.318-0.631,0.068-1.4-0.562-1.723c-0.631-0.318-1.402-0.068-1.722,0.564
			c-0.314,0.617-0.076,1.373,0.531,1.701l-0.002,0.002l3.17,1.609v-0.004c0.617,0.266,1.342,0.012,1.65-0.596
			C52.733,40.821,52.481,40.048,51.85,39.729z M47.86,39.997c-0.377-0.191-0.527-0.652-0.336-1.029
			c0.191-0.379,0.652-0.529,1.031-0.336c0.377,0.189,0.527,0.65,0.334,1.029C48.698,40.038,48.237,40.188,47.86,39.997z
			 M50.928,41.554c-0.379-0.191-0.529-0.652-0.34-1.029c0.193-0.379,0.654-0.529,1.033-0.338c0.377,0.193,0.527,0.652,0.336,1.031
			C51.764,41.595,51.303,41.745,50.928,41.554z"/>
	</g>
</g>
</svg>
