<?xml version="1.0" encoding="utf-8"?>
<!-- Generator: Adobe Illustrator 15.0.2, SVG Export Plug-In . SVG Version: 6.00 Build 0)  -->
<!DOCTYPE svg PUBLIC "-//W3C//DTD SVG 1.1//EN" "http://www.w3.org/Graphics/SVG/1.1/DTD/svg11.dtd">
<svg version="1.1" id="Layer_1" xmlns="http://www.w3.org/2000/svg" xmlns:xlink="http://www.w3.org/1999/xlink" x="0px" y="0px"
	 width="24.026px" height="18.509px" viewBox="15.813 6.673 24.026 18.509" enable-background="new 15.813 6.673 24.026 18.509"
	 xml:space="preserve">
<g>
	
		<radialGradient id="SVGID_1_" cx="-1191.0352" cy="-462.863" r="23.4616" gradientTransform="matrix(0.4097 0 0 0.0996 518.0385 68.6829)" gradientUnits="userSpaceOnUse">
		<stop  offset="0" style="stop-color:#5F564A"/>
		<stop  offset="0.0545" style="stop-color:#8F826F"/>
		<stop  offset="0.109" style="stop-color:#B7A78E"/>
		<stop  offset="0.1623" style="stop-color:#D7C3A7"/>
		<stop  offset="0.2138" style="stop-color:#EDD8B8"/>
		<stop  offset="0.2629" style="stop-color:#FAE4C2"/>
		<stop  offset="0.3067" style="stop-color:#FFE8C6"/>
		<stop  offset="0.4464" style="stop-color:#F9EEDB"/>
		<stop  offset="0.6252" style="stop-color:#F4F4EE"/>
		<stop  offset="0.8081" style="stop-color:#F1F7F9"/>
		<stop  offset="1" style="stop-color:#F0F8FD"/>
	</radialGradient>
	<ellipse fill="url(#SVGID_1_)" cx="30.071" cy="22.599" rx="9.769" ry="2.583"/>
	<g>
		<g>
			<g>
				<path fill="#1D1E1C" d="M23.577,20.614h-4.865v-3.488h4.865V20.614z M18.868,20.457h4.553v-3.176h-4.553V20.457z"/>
				<path fill="#1D1E1C" d="M18.184,21.89h-2.37v-4.867h2.37V21.89z M15.97,21.734h2.058v-4.555H15.97V21.734z"/>
				<path fill="#1D1E1C" d="M21.508,21.285h-0.726v-0.828h0.726V21.285z M20.938,21.129h0.413v-0.516h-0.413V21.129z"/>
				<path fill="#1D1E1C" d="M22.089,21.578H20.2v-0.449h1.889V21.578z M20.356,21.422h1.576v-0.137h-1.576V21.422z"/>
				<path fill="#1D1E1C" d="M23.267,20.269h-4.25v-2.853h4.25V20.269z M19.173,20.113h3.938v-2.54h-3.938V20.113z"/>
				<rect x="16.165" y="17.412" fill="#1D1E1C" width="1.63" height="0.484"/>
				<rect x="16.165" y="18.091" fill="#1D1E1C" width="1.63" height="0.437"/>
				<circle fill="#1D1E1C" cx="17.626" cy="18.9" r="0.152"/>
			</g>
			<g>
				<g>
					<path fill="#FFFFFF" d="M27.576,10.665c0.613,1.378,2.228,1.999,3.605,1.385c1.379-0.611,1.999-2.226,1.388-3.604
						c-0.615-1.38-2.229-2-3.607-1.387C27.583,7.671,26.961,9.285,27.576,10.665z"/>
					<path fill="#1D1E1C" d="M30.072,12.436c-1.137,0-2.17-0.671-2.632-1.71c-0.313-0.703-0.334-1.485-0.059-2.204
						c0.276-0.719,0.815-1.286,1.52-1.599c0.372-0.166,0.766-0.25,1.169-0.25c1.137,0,2.171,0.672,2.635,1.712
						c0.312,0.704,0.332,1.486,0.056,2.204s-0.815,1.285-1.519,1.597C30.87,12.352,30.477,12.436,30.072,12.436z M30.07,6.971
						c-0.361,0-0.715,0.075-1.048,0.224c-0.632,0.28-1.115,0.79-1.362,1.434c-0.248,0.645-0.229,1.346,0.052,1.977
						c0.415,0.932,1.342,1.533,2.36,1.533c0.362,0,0.715-0.075,1.049-0.224c1.301-0.577,1.89-2.105,1.312-3.408
						C32.018,7.573,31.09,6.971,30.07,6.971z"/>
				</g>
				<path fill="#1D1E1C" d="M27.494,8.648c0.313-0.835,0.941-1.356,1.468-1.589c1.378-0.613,2.992,0.007,3.607,1.387
					c0.048,0.106,0.085,0.216,0.118,0.326c-0.811,0.172-1.881,0.457-3.22,0.056C28.336,8.488,27.954,8.602,27.494,8.648z"/>
				
					<ellipse transform="matrix(-0.9145 0.4047 -0.4047 -0.9145 57.9638 7.7287)" fill="#1D1E1C" cx="28.165" cy="9.99" rx="0.186" ry="0.309"/>
				
					<ellipse transform="matrix(-0.9128 0.4084 -0.4084 -0.9128 60.4054 7.5746)" fill="#1D1E1C" cx="29.394" cy="10.236" rx="0.219" ry="0.318"/>
				<path fill="#1D1E1C" d="M28.399,11.24c0,0,0.679,0.803,1.068,0.239"/>
				<g>
					<polygon fill="#FFFFFF" points="25.405,13.153 26.847,13.498 25.928,11.287 24.486,10.944 					"/>
					<path fill="#1D1E1C" d="M26.847,13.647c-0.012,0-0.023-0.001-0.035-0.004l-1.441-0.346c-0.046-0.011-0.084-0.044-0.103-0.087
						l-0.919-2.209c-0.021-0.052-0.012-0.111,0.024-0.154c0.036-0.042,0.099-0.062,0.147-0.048l1.441,0.344
						c0.047,0.011,0.085,0.044,0.104,0.088l0.919,2.211c0.021,0.051,0.012,0.11-0.024,0.153
						C26.932,13.628,26.89,13.647,26.847,13.647z M25.514,13.026l1.083,0.26l-0.777-1.871l-1.084-0.258L25.514,13.026z"/>
				</g>
				<path fill="#1D1E1C" d="M27.186,15.318c-0.004,0-0.008,0-0.012,0c-0.051-0.004-0.097-0.034-0.12-0.08l-1.239-2.383
					c-0.038-0.072-0.01-0.162,0.063-0.2c0.07-0.038,0.163-0.009,0.2,0.063l1.129,2.17l1.197-1.63
					c0.049-0.066,0.143-0.081,0.208-0.032c0.066,0.049,0.081,0.142,0.032,0.208l-1.339,1.823
					C27.277,15.295,27.232,15.318,27.186,15.318z"/>
				<polygon fill="#F19106" points="28.979,13.105 29.755,12.964 30.225,14.506 30.673,12.964 31.455,13.054 31.022,16.934 
					29.104,16.934 				"/>
				<polygon fill="#1D1E1C" points="31.683,22.599 30.483,22.599 30.07,18.825 29.758,22.599 28.462,22.599 29.284,22.191 
					29.119,17.309 31.039,17.309 30.987,22.204 				"/>
				<path fill="#1D1E1C" d="M29.543,14.773c-0.032,0-0.065-0.011-0.092-0.031l-2.329-1.838c-0.064-0.052-0.076-0.145-0.025-0.209
					s0.145-0.076,0.209-0.025l2.235,1.764l1.455-1.201c0.062-0.055,0.157-0.043,0.209,0.02c0.053,0.063,0.044,0.157-0.02,0.209
					l-1.548,1.278C29.61,14.762,29.576,14.773,29.543,14.773z"/>
			</g>
			<circle fill="#F19106" cx="19.93" cy="11.512" r="2.5"/>
			<g>
				<path fill="#FFFFFF" d="M21.319,10.731h-2.78c-0.075,0-0.135,0.06-0.135,0.138v1.444c0,0.075,0.06,0.137,0.135,0.137h2.78
					c0.076,0,0.138-0.062,0.138-0.137v-1.444C21.457,10.79,21.396,10.731,21.319,10.731z M21.286,12.215
					c0,0.036-0.028,0.063-0.062,0.063h-2.589c-0.033,0-0.062-0.027-0.062-0.063v-1.251c0-0.033,0.028-0.062,0.062-0.062h2.589
					c0.033,0,0.062,0.029,0.062,0.062V12.215z"/>
				<path fill="#FFFFFF" d="M20.509,11.155c-0.238,0-0.432,0.192-0.432,0.43c0,0.112,0.043,0.212,0.111,0.29h-0.517
					c0.067-0.078,0.11-0.178,0.11-0.29c0-0.237-0.192-0.43-0.431-0.43s-0.431,0.192-0.431,0.43c0,0.235,0.186,0.426,0.418,0.432l0,0
					h1.195v-0.001c0.227-0.014,0.405-0.2,0.405-0.431C20.939,11.347,20.745,11.155,20.509,11.155z M19.352,11.843
					c-0.143,0-0.258-0.115-0.258-0.259c0-0.142,0.115-0.257,0.258-0.257s0.259,0.115,0.259,0.257
					C19.61,11.728,19.494,11.843,19.352,11.843z M20.509,11.843c-0.142,0-0.258-0.115-0.258-0.259c0-0.142,0.116-0.257,0.258-0.257
					c0.143,0,0.259,0.115,0.259,0.257C20.768,11.728,20.651,11.843,20.509,11.843z"/>
			</g>
			<circle fill="#F19106" cx="23.342" cy="12.449" r="0.402"/>
			<circle fill="#F19106" cx="24.268" cy="12.512" r="0.224"/>
			<circle fill="#F19106" cx="19.93" cy="15.147" r="0.607"/>
			<circle fill="#F19106" cx="19.93" cy="16.422" r="0.328"/>
		</g>
	</g>
</g>
</svg>
