<?xml version="1.0" encoding="utf-8"?>
<!-- Generator: Adobe Illustrator 15.0.2, SVG Export Plug-In . SVG Version: 6.00 Build 0)  -->
<!DOCTYPE svg PUBLIC "-//W3C//DTD SVG 1.1//EN" "http://www.w3.org/Graphics/SVG/1.1/DTD/svg11.dtd">
<svg version="1.1" id="Layer_1" xmlns="http://www.w3.org/2000/svg" xmlns:xlink="http://www.w3.org/1999/xlink" x="0px" y="0px"
	 width="79.542px" height="15.875px" viewBox="-5.207 54.997 79.542 15.875" enable-background="new -5.207 54.997 79.542 15.875"
	 xml:space="preserve">
<g>
	<g>
		
			<radialGradient id="SVGID_1_" cx="-1250.6118" cy="-393.0886" r="20.1917" gradientTransform="matrix(0.4097 0 0 0.0996 515.5761 107.785)" gradientUnits="userSpaceOnUse">
			<stop  offset="0" style="stop-color:#7EABCE"/>
			<stop  offset="0.1438" style="stop-color:#AACCE4"/>
			<stop  offset="0.3067" style="stop-color:#D9EFFC"/>
			<stop  offset="0.3387" style="stop-color:#DDF0FC"/>
			<stop  offset="0.5524" style="stop-color:#F0F9FE"/>
			<stop  offset="0.7709" style="stop-color:#FBFDFF"/>
			<stop  offset="1" style="stop-color:#FFFFFF"/>
		</radialGradient>
		<ellipse fill="url(#SVGID_1_)" cx="3.2" cy="68.647" rx="8.407" ry="2.225"/>
		<g>
			<g>
				<g>
					<circle fill="#FFFFFF" cx="2.647" cy="57.786" r="2.199"/>
					<path fill="#1D1E1C" d="M2.647,60.104c-1.278,0-2.317-1.039-2.317-2.318c0-1.278,1.039-2.318,2.317-2.318
						s2.318,1.04,2.318,2.318C4.965,59.065,3.925,60.104,2.647,60.104z M2.647,55.706c-1.146,0-2.079,0.934-2.079,2.08
						c0,1.147,0.933,2.08,2.079,2.08s2.08-0.933,2.08-2.08C4.727,56.639,3.793,55.706,2.647,55.706z"/>
				</g>
				<path fill="#1D1E1C" d="M3.893,55.975c-0.354-0.244-0.784-0.389-1.246-0.389c-1.215,0-2.198,0.984-2.198,2.199
					c0,0.096,0.007,0.189,0.019,0.279c0.652-0.137,1.408-0.467,2.146-0.971C3.118,56.747,3.552,56.362,3.893,55.975z"/>
				<path fill="#1D1E1C" d="M0.753,56.745c-0.021,0-0.042-0.007-0.061-0.021l-0.355-0.264c-0.045-0.033-0.055-0.097-0.021-0.142
					l0.362-0.493c0.016-0.022,0.04-0.036,0.066-0.04c0.032-0.004,0.055,0.002,0.076,0.018l0.359,0.266
					c0.021,0.016,0.036,0.039,0.04,0.066s-0.003,0.055-0.019,0.076l-0.366,0.492C0.815,56.73,0.785,56.745,0.753,56.745z"/>
				<path fill="#1D1E1C" d="M-0.258,59.135c0.026-1.742-1.021-2.277-0.853-3.375c0.162-1.086,1.871-0.986,1.871,0.125
					c-0.209,0.281-0.362,0.494-0.362,0.494s-0.611-0.232-0.53,0.387C-0.038,57.514-0.01,58.065-0.258,59.135z"/>
				<ellipse fill="#1D1E1C" cx="4.192" cy="57.483" rx="0.15" ry="0.248"/>
				<ellipse fill="#1D1E1C" cx="3.367" cy="58.065" rx="0.177" ry="0.256"/>
				<path fill="#1D1E1C" d="M4.427,58.477c0,0-0.235,0.814-0.706,0.527"/>
				<g>
					
						<rect x="1.372" y="57.954" transform="matrix(0.9238 -0.3829 0.3829 0.9238 -22.407 5.2555)" fill="#FFFFFF" width="1.255" height="1.925"/>
					<path fill="#1D1E1C" d="M1.79,60.165c-0.047,0-0.091-0.027-0.11-0.072l-0.74-1.777c-0.012-0.029-0.012-0.062,0-0.092
						s0.035-0.053,0.064-0.064l1.161-0.482c0.029-0.012,0.062-0.012,0.092,0s0.052,0.035,0.064,0.064l0.738,1.777
						c0.025,0.062-0.004,0.131-0.064,0.156l-1.159,0.482C1.821,60.163,1.805,60.165,1.79,60.165z M1.206,58.333l0.648,1.558
						l0.938-0.39l-0.646-1.559L1.206,58.333z"/>
				</g>
				<path fill="#1D1E1C" d="M0.76,62.538c-0.02,0-0.04-0.004-0.059-0.015c-0.049-0.027-0.071-0.085-0.056-0.138l1.047-3.502
					c0.019-0.064,0.085-0.101,0.148-0.08c0.063,0.018,0.099,0.085,0.08,0.148l-0.896,2.994l1.056-1.172
					c0.045-0.048,0.119-0.052,0.169-0.008c0.049,0.044,0.053,0.119,0.009,0.168l-1.41,1.564C0.826,62.525,0.793,62.538,0.76,62.538z
					"/>
				<path fill="#1D1E1C" d="M5.778,62.1c-0.029,0-0.059-0.01-0.081-0.031l-1.435-1.312c-0.049-0.045-0.053-0.12-0.008-0.169
					c0.044-0.05,0.119-0.052,0.169-0.007l1.346,1.23l1.52-1.727c0.044-0.049,0.121-0.053,0.169-0.011
					c0.049,0.044,0.054,0.118,0.011,0.169l-1.601,1.818c-0.021,0.023-0.052,0.038-0.083,0.039C5.782,62.1,5.78,62.1,5.778,62.1z"/>
				<path fill="#1D1E1C" d="M2.259,68.692c-0.006,0-0.011,0-0.017,0c-0.065-0.01-0.111-0.07-0.102-0.136
					c0.145-1.009,0.361-2.542,0.367-2.632c0.004-0.063,0.057-0.114,0.119-0.114c0.001,0,0.002,0,0.004,0
					c0.064,0.002,0.115,0.054,0.115,0.118c0,0.079-0.282,2.058-0.369,2.662C2.369,68.65,2.318,68.692,2.259,68.692z"/>
				<path fill="#1D1E1C" d="M4.192,68.692c-0.063,0-0.116-0.049-0.119-0.113c-0.012-0.264-0.115-2.573-0.115-2.65
					c0-0.066,0.053-0.119,0.119-0.119l0,0c0.065,0,0.119,0.053,0.119,0.119c0.001,0.07,0.083,1.93,0.115,2.64
					c0.003,0.065-0.048,0.122-0.114,0.124C4.196,68.692,4.194,68.692,4.192,68.692z"/>
				<polygon fill="#1898CD" points="4.877,65.468 1.858,65.468 2.647,60.483 3.875,60.483 				"/>
			</g>
		</g>
	</g>
	<g>
		<path fill="#1D1E1C" d="M15.749,58.907c0,0.137-0.033,0.285-0.102,0.445c-0.067,0.16-0.174,0.316-0.318,0.471
			c-0.146,0.154-0.33,0.277-0.556,0.375c-0.226,0.096-0.488,0.143-0.788,0.143c-0.228,0-0.434-0.021-0.62-0.064
			s-0.355-0.109-0.507-0.201c-0.152-0.09-0.292-0.211-0.419-0.359c-0.114-0.135-0.211-0.287-0.291-0.455s-0.141-0.346-0.181-0.535
			c-0.04-0.191-0.061-0.393-0.061-0.605c0-0.348,0.051-0.658,0.151-0.934c0.101-0.273,0.245-0.508,0.434-0.703
			s0.408-0.344,0.661-0.445s0.522-0.152,0.809-0.152c0.349,0,0.659,0.068,0.932,0.209c0.272,0.139,0.481,0.311,0.626,0.516
			c0.146,0.205,0.218,0.398,0.218,0.58c0,0.1-0.035,0.188-0.105,0.264c-0.07,0.078-0.156,0.115-0.256,0.115
			c-0.111,0-0.195-0.025-0.251-0.08c-0.057-0.053-0.118-0.143-0.188-0.273c-0.113-0.213-0.247-0.373-0.4-0.479
			c-0.154-0.105-0.344-0.158-0.569-0.158c-0.358,0-0.645,0.137-0.856,0.408c-0.213,0.273-0.319,0.66-0.319,1.162
			c0,0.334,0.047,0.613,0.142,0.836c0.094,0.223,0.227,0.389,0.399,0.498s0.374,0.164,0.605,0.164c0.251,0,0.463-0.062,0.637-0.186
			c0.173-0.125,0.304-0.309,0.393-0.549c0.037-0.113,0.083-0.207,0.138-0.277c0.055-0.072,0.144-0.107,0.265-0.107
			c0.104,0,0.193,0.035,0.268,0.107C15.711,58.71,15.749,58.8,15.749,58.907z"/>
		<path fill="#1D1E1C" d="M18.505,59.889c-0.193,0.15-0.381,0.264-0.562,0.338c-0.182,0.076-0.385,0.113-0.61,0.113
			c-0.205,0-0.386-0.039-0.542-0.121s-0.275-0.191-0.36-0.33c-0.084-0.141-0.126-0.291-0.126-0.453c0-0.221,0.069-0.406,0.209-0.562
			c0.139-0.154,0.33-0.258,0.573-0.311c0.051-0.012,0.177-0.039,0.379-0.08c0.201-0.041,0.375-0.078,0.519-0.113
			c0.145-0.033,0.301-0.076,0.469-0.125c-0.01-0.211-0.052-0.367-0.128-0.465c-0.075-0.1-0.231-0.148-0.469-0.148
			c-0.204,0-0.357,0.027-0.46,0.084s-0.191,0.143-0.265,0.256s-0.125,0.189-0.155,0.225c-0.03,0.037-0.096,0.055-0.196,0.055
			c-0.09,0-0.168-0.029-0.233-0.086c-0.065-0.059-0.099-0.133-0.099-0.223c0-0.141,0.05-0.277,0.15-0.41
			c0.1-0.135,0.256-0.244,0.467-0.33c0.212-0.086,0.476-0.129,0.791-0.129c0.353,0,0.63,0.041,0.832,0.125
			c0.202,0.082,0.345,0.215,0.428,0.395s0.125,0.42,0.125,0.717c0,0.189-0.001,0.348-0.002,0.48
			c-0.001,0.131-0.002,0.277-0.004,0.438c0,0.15,0.025,0.309,0.075,0.473c0.05,0.162,0.074,0.268,0.074,0.314
			c0,0.082-0.038,0.158-0.115,0.225c-0.078,0.068-0.166,0.102-0.264,0.102c-0.082,0-0.163-0.037-0.244-0.115
			C18.681,60.147,18.596,60.036,18.505,59.889z M18.453,58.727c-0.117,0.043-0.288,0.09-0.513,0.137
			c-0.225,0.049-0.38,0.084-0.466,0.105c-0.086,0.023-0.169,0.066-0.247,0.133s-0.117,0.158-0.117,0.275
			c0,0.121,0.046,0.225,0.138,0.309c0.092,0.086,0.213,0.129,0.361,0.129c0.159,0,0.306-0.035,0.439-0.104
			c0.135-0.07,0.233-0.16,0.296-0.27c0.072-0.121,0.108-0.322,0.108-0.6V58.727z"/>
		<path fill="#1D1E1C" d="M20.055,59.854v-3.48c0-0.162,0.036-0.283,0.107-0.365c0.072-0.082,0.168-0.123,0.29-0.123
			c0.121,0,0.22,0.041,0.294,0.121c0.074,0.082,0.111,0.203,0.111,0.367v3.48c0,0.162-0.037,0.283-0.113,0.365
			c-0.075,0.082-0.173,0.121-0.292,0.121c-0.118,0-0.213-0.041-0.287-0.125C20.092,60.132,20.055,60.01,20.055,59.854z"/>
		<path fill="#1D1E1C" d="M21.686,59.854v-3.48c0-0.162,0.036-0.283,0.107-0.365c0.072-0.082,0.168-0.123,0.29-0.123
			c0.121,0,0.22,0.041,0.294,0.121c0.074,0.082,0.111,0.203,0.111,0.367v3.48c0,0.162-0.037,0.283-0.113,0.365
			c-0.075,0.082-0.173,0.121-0.292,0.121c-0.118,0-0.213-0.041-0.287-0.125C21.723,60.132,21.686,60.01,21.686,59.854z"/>
		<path fill="#1D1E1C" d="M25.558,58.907h-1.569c0.002,0.182,0.038,0.344,0.11,0.482c0.071,0.139,0.166,0.244,0.285,0.314
			c0.118,0.07,0.249,0.105,0.392,0.105c0.097,0,0.185-0.012,0.264-0.033c0.079-0.023,0.156-0.059,0.23-0.107
			c0.074-0.047,0.144-0.098,0.206-0.154c0.062-0.055,0.144-0.129,0.244-0.223c0.041-0.035,0.1-0.053,0.176-0.053
			c0.083,0,0.149,0.023,0.2,0.068s0.076,0.107,0.076,0.189c0,0.074-0.028,0.158-0.085,0.256c-0.057,0.096-0.143,0.189-0.257,0.279
			c-0.115,0.088-0.259,0.162-0.433,0.221s-0.373,0.088-0.598,0.088c-0.516,0-0.917-0.146-1.203-0.439
			c-0.286-0.295-0.429-0.693-0.429-1.197c0-0.236,0.035-0.457,0.105-0.66c0.071-0.203,0.174-0.377,0.309-0.521
			c0.136-0.145,0.302-0.256,0.5-0.334c0.198-0.076,0.418-0.115,0.658-0.115c0.313,0,0.583,0.066,0.808,0.197
			c0.224,0.133,0.392,0.305,0.504,0.514c0.111,0.209,0.167,0.424,0.167,0.641c0,0.201-0.058,0.332-0.173,0.393
			C25.93,58.878,25.768,58.907,25.558,58.907z M23.989,58.452h1.455c-0.02-0.275-0.094-0.48-0.223-0.617
			c-0.128-0.135-0.297-0.203-0.507-0.203c-0.199,0-0.364,0.068-0.492,0.207S24.016,58.18,23.989,58.452z"/>
		<path fill="#1D1E1C" d="M27.692,59.182v0.672c0,0.162-0.038,0.283-0.114,0.365s-0.174,0.121-0.291,0.121
			c-0.116,0-0.211-0.041-0.285-0.123s-0.112-0.203-0.112-0.363V57.62c0-0.361,0.131-0.541,0.392-0.541
			c0.133,0,0.229,0.041,0.288,0.125c0.059,0.086,0.091,0.209,0.097,0.375c0.096-0.166,0.194-0.289,0.296-0.375
			c0.101-0.084,0.235-0.125,0.403-0.125c0.169,0,0.333,0.041,0.491,0.125c0.159,0.086,0.238,0.197,0.238,0.336
			c0,0.098-0.034,0.18-0.102,0.242c-0.067,0.064-0.141,0.096-0.219,0.096c-0.029,0-0.101-0.018-0.213-0.055
			c-0.113-0.035-0.213-0.055-0.299-0.055c-0.117,0-0.214,0.031-0.288,0.094c-0.074,0.061-0.132,0.152-0.173,0.275
			c-0.042,0.121-0.07,0.266-0.086,0.434C27.7,58.737,27.692,58.942,27.692,59.182z"/>
	</g>
	<g>
		<path fill="#1898CD" d="M14.34,67.726h-0.973V66.29h-1.444v-0.987h1.444v-1.444h0.973v1.444h1.452v0.987H14.34V67.726z"/>
		<path fill="#1898CD" d="M18.289,68.006v-3.431c-0.639,0.49-1.068,0.734-1.29,0.734c-0.105,0-0.199-0.042-0.28-0.126
			c-0.082-0.084-0.123-0.182-0.123-0.292c0-0.128,0.04-0.223,0.121-0.283c0.08-0.06,0.222-0.138,0.426-0.233
			c0.304-0.144,0.547-0.294,0.729-0.452c0.183-0.159,0.344-0.336,0.484-0.532s0.232-0.316,0.275-0.361
			c0.043-0.046,0.123-0.068,0.241-0.068c0.133,0,0.24,0.052,0.32,0.154c0.081,0.104,0.121,0.245,0.121,0.427v4.316
			c0,0.506-0.173,0.759-0.517,0.759c-0.153,0-0.276-0.052-0.37-0.155C18.334,68.359,18.289,68.207,18.289,68.006z"/>
		<path fill="#1898CD" d="M21.184,66.524c0-0.38,0.032-0.735,0.098-1.065s0.165-0.656,0.298-0.977
			c0.134-0.32,0.298-0.642,0.494-0.963c0.118-0.196,0.218-0.338,0.298-0.425c0.081-0.087,0.156-0.141,0.229-0.162
			c0.071-0.021,0.164-0.032,0.277-0.032c0.123,0,0.185,0.034,0.185,0.103c0,0.022-0.058,0.158-0.174,0.408
			c-0.115,0.251-0.225,0.513-0.326,0.786c-0.102,0.274-0.196,0.616-0.282,1.026c-0.087,0.409-0.131,0.843-0.131,1.301
			c0,0.452,0.043,0.881,0.129,1.285c0.085,0.405,0.183,0.756,0.292,1.052c0.109,0.297,0.219,0.562,0.328,0.798
			s0.164,0.362,0.164,0.383c0,0.067-0.062,0.102-0.185,0.102c-0.116,0-0.21-0.012-0.281-0.035c-0.071-0.024-0.146-0.08-0.225-0.168
			s-0.177-0.229-0.298-0.423c-0.198-0.331-0.362-0.651-0.492-0.959c-0.129-0.309-0.228-0.628-0.296-0.96
			C21.218,67.266,21.184,66.909,21.184,66.524z"/>
		<path fill="#1898CD" d="M24.83,65.532c0.171-0.203,0.357-0.354,0.559-0.452s0.426-0.147,0.675-0.147
			c0.238,0,0.459,0.045,0.662,0.134c0.202,0.09,0.379,0.217,0.531,0.381c0.152,0.165,0.27,0.359,0.353,0.583
			s0.124,0.457,0.124,0.701c0,0.354-0.081,0.676-0.243,0.965s-0.388,0.515-0.679,0.677c-0.29,0.163-0.619,0.244-0.985,0.244
			c-0.423,0-0.787-0.104-1.094-0.31s-0.541-0.511-0.703-0.914s-0.243-0.897-0.243-1.48c0-0.475,0.049-0.899,0.147-1.274
			c0.098-0.374,0.238-0.685,0.422-0.931c0.184-0.247,0.406-0.433,0.667-0.559c0.262-0.126,0.56-0.188,0.894-0.188
			c0.322,0,0.605,0.062,0.851,0.188s0.43,0.281,0.555,0.468c0.124,0.186,0.187,0.364,0.187,0.535c0,0.104-0.039,0.197-0.117,0.281
			s-0.177,0.126-0.298,0.126c-0.105,0-0.204-0.033-0.294-0.1c-0.091-0.066-0.157-0.159-0.2-0.277
			c-0.058-0.15-0.149-0.272-0.275-0.364c-0.125-0.091-0.271-0.137-0.438-0.137c-0.133,0-0.266,0.038-0.397,0.114
			c-0.132,0.077-0.243,0.181-0.334,0.312C24.971,64.374,24.863,64.848,24.83,65.532z M25.848,67.874c0.254,0,0.464-0.104,0.63-0.312
			c0.166-0.207,0.248-0.479,0.248-0.816c0-0.229-0.038-0.425-0.116-0.59c-0.078-0.164-0.185-0.29-0.32-0.377s-0.286-0.13-0.449-0.13
			c-0.155,0-0.305,0.041-0.446,0.124c-0.143,0.083-0.257,0.203-0.344,0.36s-0.13,0.342-0.13,0.553c0,0.339,0.088,0.622,0.264,0.848
			C25.36,67.76,25.582,67.874,25.848,67.874z"/>
		<path fill="#1898CD" d="M31.594,63.926h-1.791l-0.215,1.222c0.357-0.19,0.687-0.286,0.988-0.286c0.241,0,0.467,0.045,0.677,0.136
			s0.394,0.216,0.552,0.375c0.159,0.16,0.283,0.349,0.374,0.567c0.09,0.219,0.136,0.454,0.136,0.705
			c0,0.364-0.082,0.696-0.245,0.996c-0.164,0.299-0.399,0.536-0.707,0.712c-0.309,0.176-0.663,0.265-1.065,0.265
			c-0.45,0-0.815-0.083-1.096-0.249s-0.479-0.356-0.596-0.571c-0.116-0.215-0.175-0.403-0.175-0.563
			c0-0.099,0.041-0.191,0.122-0.279c0.082-0.088,0.185-0.132,0.308-0.132c0.211,0,0.368,0.122,0.472,0.365
			c0.101,0.224,0.236,0.398,0.407,0.522s0.361,0.187,0.572,0.187c0.194,0,0.363-0.05,0.51-0.15c0.146-0.101,0.258-0.239,0.337-0.415
			s0.119-0.376,0.119-0.6c0-0.241-0.043-0.447-0.128-0.618c-0.086-0.171-0.2-0.299-0.344-0.383
			c-0.143-0.084-0.303-0.126-0.479-0.126c-0.216,0-0.371,0.026-0.464,0.079s-0.227,0.145-0.401,0.276
			c-0.175,0.133-0.318,0.198-0.432,0.198c-0.123,0-0.232-0.044-0.328-0.134c-0.096-0.089-0.144-0.19-0.144-0.304
			c0-0.013,0.014-0.098,0.042-0.256l0.316-1.807c0.035-0.216,0.101-0.373,0.196-0.471c0.095-0.099,0.251-0.147,0.467-0.147h1.991
			c0.393,0,0.588,0.149,0.588,0.449c0,0.13-0.048,0.236-0.143,0.316C31.921,63.885,31.781,63.926,31.594,63.926z"/>
		<path fill="#1898CD" d="M36.831,65.811c0,0.412-0.024,0.767-0.075,1.063c-0.05,0.297-0.144,0.565-0.279,0.807
			c-0.171,0.297-0.392,0.525-0.663,0.687c-0.271,0.16-0.573,0.241-0.905,0.241c-0.382,0-0.725-0.108-1.027-0.324
			c-0.303-0.217-0.531-0.516-0.685-0.897c-0.078-0.209-0.135-0.439-0.171-0.692c-0.037-0.252-0.055-0.525-0.055-0.819
			c0-0.38,0.02-0.722,0.06-1.026c0.041-0.304,0.104-0.565,0.188-0.784c0.148-0.361,0.364-0.638,0.647-0.827
			c0.282-0.189,0.62-0.285,1.012-0.285c0.259,0,0.494,0.043,0.705,0.127c0.212,0.084,0.396,0.207,0.557,0.369
			c0.159,0.162,0.295,0.362,0.405,0.602C36.735,64.466,36.831,65.052,36.831,65.811z M35.797,65.736c0-0.46-0.027-0.837-0.083-1.13
			c-0.055-0.292-0.147-0.514-0.278-0.663s-0.312-0.225-0.543-0.225c-0.332,0-0.562,0.167-0.692,0.502
			c-0.129,0.334-0.194,0.85-0.194,1.546c0,0.473,0.028,0.859,0.083,1.161c0.056,0.302,0.148,0.529,0.279,0.685
			c0.131,0.154,0.308,0.231,0.531,0.231c0.231,0,0.413-0.08,0.543-0.241c0.131-0.161,0.223-0.391,0.275-0.69
			C35.771,66.613,35.797,66.221,35.797,65.736z"/>
		<path fill="#1898CD" d="M39.452,66.524c0,0.553-0.073,1.066-0.221,1.542c-0.147,0.475-0.37,0.959-0.669,1.451
			c-0.169,0.276-0.302,0.45-0.4,0.521c-0.098,0.07-0.23,0.105-0.399,0.105c-0.126,0-0.188-0.034-0.188-0.102
			c0-0.022,0.053-0.144,0.158-0.364c0.105-0.22,0.216-0.481,0.33-0.786c0.114-0.304,0.214-0.661,0.298-1.072
			s0.126-0.843,0.126-1.295c0-0.455-0.042-0.889-0.128-1.301c-0.085-0.412-0.185-0.77-0.298-1.071s-0.223-0.563-0.328-0.786
			s-0.158-0.344-0.158-0.363c0-0.068,0.062-0.103,0.188-0.103c0.176,0,0.312,0.033,0.407,0.101c0.096,0.066,0.227,0.239,0.393,0.519
			c0.148,0.246,0.277,0.488,0.388,0.728c0.111,0.238,0.203,0.478,0.277,0.716c0.074,0.239,0.13,0.488,0.168,0.747
			S39.452,66.24,39.452,66.524z"/>
		<path fill="#1898CD" d="M42.633,68.044v-0.701h-1.893c-0.238,0-0.418-0.055-0.537-0.162c-0.119-0.108-0.179-0.256-0.179-0.441
			c0-0.048,0.009-0.097,0.026-0.146s0.044-0.101,0.079-0.154s0.071-0.106,0.109-0.156c0.037-0.051,0.084-0.112,0.139-0.186
			l1.999-2.673c0.131-0.176,0.238-0.304,0.322-0.383s0.186-0.119,0.304-0.119c0.382,0,0.573,0.219,0.573,0.656v2.919h0.162
			c0.193,0,0.349,0.026,0.465,0.079c0.117,0.053,0.176,0.168,0.176,0.347c0,0.146-0.048,0.252-0.144,0.318s-0.238,0.101-0.43,0.101
			h-0.229v0.701c0,0.193-0.043,0.337-0.129,0.432c-0.085,0.094-0.199,0.142-0.343,0.142c-0.141,0-0.255-0.049-0.341-0.146
			C42.677,68.375,42.633,68.232,42.633,68.044z M41.012,66.498h1.621v-2.191L41.012,66.498z"/>
		<path fill="#1898CD" d="M46.634,65.185c0.231,0,0.431-0.067,0.598-0.203s0.251-0.331,0.251-0.585c0-0.193-0.067-0.36-0.2-0.499
			c-0.133-0.14-0.312-0.21-0.539-0.21c-0.153,0-0.279,0.021-0.379,0.064s-0.178,0.1-0.235,0.17c-0.059,0.07-0.113,0.16-0.164,0.271
			c-0.052,0.11-0.099,0.215-0.142,0.312c-0.025,0.053-0.07,0.095-0.136,0.124c-0.065,0.03-0.141,0.046-0.227,0.046
			c-0.101,0-0.192-0.041-0.277-0.123c-0.084-0.081-0.126-0.19-0.126-0.326c0-0.13,0.04-0.268,0.119-0.412s0.194-0.282,0.347-0.413
			s0.341-0.235,0.567-0.315c0.227-0.079,0.479-0.118,0.758-0.118c0.244,0,0.467,0.033,0.667,0.1
			c0.201,0.066,0.376,0.163,0.524,0.288c0.148,0.126,0.261,0.271,0.336,0.438s0.113,0.345,0.113,0.536
			c0,0.251-0.055,0.467-0.164,0.646s-0.267,0.354-0.47,0.525c0.196,0.105,0.361,0.227,0.496,0.362
			c0.134,0.136,0.235,0.286,0.303,0.45c0.068,0.165,0.103,0.343,0.103,0.534c0,0.229-0.046,0.45-0.138,0.663
			c-0.092,0.214-0.228,0.404-0.405,0.571c-0.179,0.167-0.391,0.298-0.636,0.393c-0.245,0.094-0.516,0.142-0.812,0.142
			c-0.302,0-0.571-0.055-0.811-0.162c-0.239-0.108-0.436-0.244-0.59-0.406c-0.155-0.162-0.271-0.329-0.351-0.503
			s-0.119-0.316-0.119-0.43c0-0.146,0.047-0.264,0.142-0.353c0.094-0.089,0.212-0.134,0.353-0.134c0.07,0,0.138,0.021,0.203,0.062
			c0.065,0.041,0.108,0.091,0.129,0.148c0.13,0.35,0.271,0.609,0.42,0.778c0.149,0.17,0.36,0.255,0.632,0.255
			c0.155,0,0.306-0.038,0.45-0.115c0.145-0.076,0.265-0.19,0.358-0.341c0.095-0.151,0.142-0.326,0.142-0.524
			c0-0.294-0.081-0.524-0.241-0.691c-0.161-0.168-0.385-0.251-0.672-0.251c-0.05,0-0.128,0.005-0.233,0.015
			c-0.105,0.011-0.174,0.016-0.203,0.016c-0.139,0-0.245-0.035-0.321-0.104c-0.075-0.069-0.112-0.166-0.112-0.289
			c0-0.12,0.045-0.218,0.136-0.292c0.09-0.074,0.225-0.111,0.403-0.111H46.634z"/>
		<path fill="#1898CD" d="M52.682,63.926h-1.791l-0.215,1.222c0.357-0.19,0.687-0.286,0.988-0.286c0.241,0,0.467,0.045,0.677,0.136
			s0.394,0.216,0.552,0.375c0.159,0.16,0.283,0.349,0.374,0.567c0.09,0.219,0.136,0.454,0.136,0.705
			c0,0.364-0.082,0.696-0.245,0.996c-0.164,0.299-0.399,0.536-0.707,0.712c-0.309,0.176-0.663,0.265-1.065,0.265
			c-0.45,0-0.815-0.083-1.096-0.249s-0.479-0.356-0.596-0.571c-0.116-0.215-0.175-0.403-0.175-0.563
			c0-0.099,0.041-0.191,0.122-0.279c0.082-0.088,0.185-0.132,0.308-0.132c0.211,0,0.368,0.122,0.472,0.365
			c0.101,0.224,0.236,0.398,0.407,0.522s0.361,0.187,0.572,0.187c0.194,0,0.363-0.05,0.51-0.15c0.146-0.101,0.258-0.239,0.337-0.415
			s0.119-0.376,0.119-0.6c0-0.241-0.043-0.447-0.128-0.618c-0.086-0.171-0.2-0.299-0.344-0.383
			c-0.143-0.084-0.303-0.126-0.479-0.126c-0.216,0-0.371,0.026-0.464,0.079s-0.227,0.145-0.401,0.276
			c-0.175,0.133-0.318,0.198-0.432,0.198c-0.123,0-0.232-0.044-0.328-0.134c-0.096-0.089-0.144-0.19-0.144-0.304
			c0-0.013,0.014-0.098,0.042-0.256l0.316-1.807c0.035-0.216,0.101-0.373,0.196-0.471c0.095-0.099,0.251-0.147,0.467-0.147h1.991
			c0.393,0,0.588,0.149,0.588,0.449c0,0.13-0.048,0.236-0.143,0.316C53.009,63.885,52.869,63.926,52.682,63.926z"/>
		<path fill="#1898CD" d="M55.582,66.969H54.39c-0.181,0-0.318-0.042-0.412-0.126c-0.095-0.084-0.142-0.193-0.142-0.326
			c0-0.136,0.046-0.246,0.138-0.33s0.23-0.126,0.416-0.126h1.191c0.187,0,0.325,0.042,0.417,0.126s0.138,0.194,0.138,0.33
			c0,0.133-0.045,0.242-0.136,0.326S55.771,66.969,55.582,66.969z"/>
		<path fill="#1898CD" d="M57.471,63.048h2.511c0.241,0,0.416,0.038,0.524,0.113c0.107,0.075,0.162,0.199,0.162,0.373
			c0,0.105-0.063,0.245-0.19,0.419c-0.127,0.173-0.271,0.364-0.434,0.574s-0.329,0.471-0.502,0.782
			c-0.172,0.312-0.33,0.693-0.473,1.143c-0.061,0.199-0.104,0.363-0.129,0.494c-0.024,0.131-0.053,0.301-0.083,0.509
			c-0.029,0.209-0.056,0.368-0.079,0.479c-0.053,0.256-0.127,0.434-0.224,0.533s-0.226,0.149-0.387,0.149
			c-0.153,0-0.276-0.054-0.369-0.161c-0.094-0.106-0.14-0.264-0.14-0.473c0-0.161,0.033-0.38,0.102-0.656
			c0.067-0.276,0.179-0.607,0.332-0.993s0.345-0.782,0.574-1.188c0.23-0.406,0.504-0.811,0.82-1.213h-2.017
			c-0.212,0-0.369-0.038-0.474-0.115c-0.104-0.076-0.156-0.196-0.156-0.359c0-0.174,0.055-0.285,0.166-0.336
			C57.118,63.073,57.272,63.048,57.471,63.048z"/>
		<path fill="#1898CD" d="M61.374,64.397c0-0.251,0.068-0.488,0.205-0.711c0.138-0.222,0.339-0.4,0.604-0.533
			c0.266-0.133,0.575-0.2,0.93-0.2c0.299,0,0.562,0.039,0.788,0.117c0.226,0.078,0.414,0.186,0.565,0.322
			c0.15,0.137,0.263,0.292,0.336,0.464c0.072,0.172,0.109,0.355,0.109,0.549c0,0.246-0.064,0.466-0.19,0.66
			c-0.127,0.193-0.316,0.352-0.568,0.475c0.214,0.083,0.392,0.191,0.532,0.326s0.247,0.29,0.318,0.468
			c0.071,0.177,0.107,0.374,0.107,0.59c0,0.316-0.076,0.604-0.229,0.861s-0.379,0.46-0.675,0.605
			c-0.297,0.146-0.646,0.219-1.049,0.219c-0.417,0-0.774-0.073-1.07-0.219c-0.297-0.146-0.521-0.347-0.672-0.602
			c-0.15-0.255-0.226-0.541-0.226-0.857c0-0.677,0.319-1.141,0.957-1.392C61.631,65.299,61.374,64.918,61.374,64.397z
			 M64.077,66.893c0-0.196-0.04-0.367-0.12-0.513c-0.081-0.146-0.194-0.258-0.34-0.336c-0.146-0.077-0.309-0.116-0.49-0.116
			c-0.256,0-0.471,0.085-0.645,0.256s-0.26,0.41-0.26,0.717c0,0.196,0.04,0.369,0.122,0.519s0.193,0.265,0.334,0.347
			s0.298,0.122,0.471,0.122c0.177,0,0.335-0.041,0.476-0.124s0.251-0.2,0.332-0.351C64.037,67.262,64.077,67.09,64.077,66.893z
			 M63.134,63.674c-0.236,0-0.427,0.073-0.571,0.221c-0.145,0.146-0.217,0.336-0.217,0.567c0,0.214,0.074,0.392,0.223,0.533
			c0.148,0.143,0.339,0.213,0.573,0.213c0.118,0,0.226-0.019,0.322-0.057c0.097-0.037,0.18-0.09,0.249-0.156
			c0.068-0.066,0.122-0.146,0.16-0.237c0.037-0.092,0.057-0.193,0.057-0.304c0-0.148-0.033-0.281-0.101-0.399
			c-0.066-0.118-0.16-0.211-0.28-0.279C63.428,63.708,63.291,63.674,63.134,63.674z"/>
		<path fill="#1898CD" d="M66.844,65.532c0.171-0.203,0.357-0.354,0.559-0.452s0.426-0.147,0.675-0.147
			c0.238,0,0.459,0.045,0.662,0.134c0.202,0.09,0.379,0.217,0.531,0.381c0.152,0.165,0.27,0.359,0.353,0.583
			s0.124,0.457,0.124,0.701c0,0.354-0.081,0.676-0.243,0.965s-0.388,0.515-0.679,0.677c-0.29,0.163-0.619,0.244-0.985,0.244
			c-0.423,0-0.787-0.104-1.094-0.31s-0.541-0.511-0.703-0.914s-0.243-0.897-0.243-1.48c0-0.475,0.049-0.899,0.147-1.274
			c0.098-0.374,0.238-0.685,0.422-0.931c0.184-0.247,0.406-0.433,0.667-0.559c0.262-0.126,0.56-0.188,0.894-0.188
			c0.322,0,0.605,0.062,0.851,0.188s0.43,0.281,0.555,0.468c0.124,0.186,0.187,0.364,0.187,0.535c0,0.104-0.039,0.197-0.117,0.281
			s-0.177,0.126-0.298,0.126c-0.105,0-0.204-0.033-0.294-0.1c-0.091-0.066-0.157-0.159-0.2-0.277
			c-0.058-0.15-0.149-0.272-0.275-0.364c-0.125-0.091-0.271-0.137-0.438-0.137c-0.133,0-0.266,0.038-0.397,0.114
			c-0.132,0.077-0.243,0.181-0.334,0.312C66.986,64.374,66.877,64.848,66.844,65.532z M67.863,67.874
			c0.254,0,0.464-0.104,0.63-0.312c0.166-0.207,0.248-0.479,0.248-0.816c0-0.229-0.038-0.425-0.116-0.59
			c-0.078-0.164-0.185-0.29-0.32-0.377s-0.286-0.13-0.449-0.13c-0.155,0-0.305,0.041-0.446,0.124
			c-0.143,0.083-0.257,0.203-0.344,0.36s-0.13,0.342-0.13,0.553c0,0.339,0.088,0.622,0.264,0.848
			C67.375,67.76,67.596,67.874,67.863,67.874z"/>
		<path fill="#1898CD" d="M71.432,65.532c0.171-0.203,0.357-0.354,0.559-0.452s0.426-0.147,0.675-0.147
			c0.238,0,0.459,0.045,0.662,0.134c0.202,0.09,0.379,0.217,0.531,0.381c0.152,0.165,0.27,0.359,0.353,0.583
			s0.124,0.457,0.124,0.701c0,0.354-0.081,0.676-0.243,0.965s-0.388,0.515-0.679,0.677c-0.29,0.163-0.619,0.244-0.985,0.244
			c-0.423,0-0.787-0.104-1.094-0.31s-0.541-0.511-0.703-0.914s-0.243-0.897-0.243-1.48c0-0.475,0.049-0.899,0.147-1.274
			c0.098-0.374,0.238-0.685,0.422-0.931c0.184-0.247,0.406-0.433,0.667-0.559c0.262-0.126,0.56-0.188,0.894-0.188
			c0.322,0,0.605,0.062,0.851,0.188s0.43,0.281,0.555,0.468c0.124,0.186,0.187,0.364,0.187,0.535c0,0.104-0.039,0.197-0.117,0.281
			s-0.177,0.126-0.298,0.126c-0.105,0-0.204-0.033-0.294-0.1c-0.091-0.066-0.157-0.159-0.2-0.277
			c-0.058-0.15-0.149-0.272-0.275-0.364c-0.125-0.091-0.271-0.137-0.438-0.137c-0.133,0-0.266,0.038-0.397,0.114
			c-0.132,0.077-0.243,0.181-0.334,0.312C71.574,64.374,71.465,64.848,71.432,65.532z M72.451,67.874
			c0.254,0,0.464-0.104,0.63-0.312c0.166-0.207,0.248-0.479,0.248-0.816c0-0.229-0.038-0.425-0.116-0.59
			c-0.078-0.164-0.185-0.29-0.32-0.377s-0.286-0.13-0.449-0.13c-0.155,0-0.305,0.041-0.446,0.124
			c-0.143,0.083-0.257,0.203-0.344,0.36s-0.13,0.342-0.13,0.553c0,0.339,0.088,0.622,0.264,0.848
			C71.962,67.76,72.184,67.874,72.451,67.874z"/>
	</g>
</g>
</svg>
