<?xml version="1.0" encoding="utf-8"?>
<!-- Generator: Adobe Illustrator 15.0.2, SVG Export Plug-In . SVG Version: 6.00 Build 0)  -->
<!DOCTYPE svg PUBLIC "-//W3C//DTD SVG 1.1//EN" "http://www.w3.org/Graphics/SVG/1.1/DTD/svg11.dtd">
<svg version="1.1" id="Layer_1" xmlns="http://www.w3.org/2000/svg" xmlns:xlink="http://www.w3.org/1999/xlink" x="0px" y="0px"
	 width="73.021px" height="35.641px" viewBox="0 0 73.021 35.641" enable-background="new 0 0 73.021 35.641" xml:space="preserve">
<radialGradient id="SVGID_1_" cx="-1147.2095" cy="-469.4502" r="37.3817" gradientTransform="matrix(0.6788 0 0 0.1364 804.4711 90.9257)" gradientUnits="userSpaceOnUse">
	<stop  offset="0" style="stop-color:#5F564A"/>
	<stop  offset="0.0424" style="stop-color:#746A61"/>
	<stop  offset="0.0992" style="stop-color:#8E837F"/>
	<stop  offset="0.1551" style="stop-color:#A39899"/>
	<stop  offset="0.2092" style="stop-color:#B3A8AC"/>
	<stop  offset="0.2607" style="stop-color:#BDB2B8"/>
	<stop  offset="0.3067" style="stop-color:#C0B6BC"/>
	<stop  offset="0.3956" style="stop-color:#D0C8CD"/>
	<stop  offset="0.5414" style="stop-color:#E5E0E3"/>
	<stop  offset="0.6899" style="stop-color:#F4F1F3"/>
	<stop  offset="0.8413" style="stop-color:#FCFCFC"/>
	<stop  offset="1" style="stop-color:#FFFFFF"/>
</radialGradient>
<path fill="url(#SVGID_1_)" d="M51.478,26.881c0,3.328-12.334,6.025-27.551,6.025C8.711,32.907,0,30.209,0,26.881
	s8.711-6.025,23.927-6.025C39.144,20.856,51.478,23.553,51.478,26.881z"/>
<g>
	
		<radialGradient id="SVGID_2_" cx="-1137.2354" cy="-462.6743" r="39.9391" gradientTransform="matrix(0.4097 0 0 0.0996 522.3182 69.7771)" gradientUnits="userSpaceOnUse">
		<stop  offset="0" style="stop-color:#5F564A"/>
		<stop  offset="0.0287" style="stop-color:#75695A"/>
		<stop  offset="0.0884" style="stop-color:#A1917C"/>
		<stop  offset="0.1473" style="stop-color:#C7B59B"/>
		<stop  offset="0.2042" style="stop-color:#E5D1B3"/>
		<stop  offset="0.2583" style="stop-color:#F8E3C2"/>
		<stop  offset="0.3067" style="stop-color:#FFE9C7"/>
		<stop  offset="0.3343" style="stop-color:#FFEBCC"/>
		<stop  offset="0.4949" style="stop-color:#FFF4E3"/>
		<stop  offset="0.6584" style="stop-color:#FFFAF3"/>
		<stop  offset="0.8252" style="stop-color:#FFFEFC"/>
		<stop  offset="1" style="stop-color:#FFFFFF"/>
	</radialGradient>
	<ellipse fill="url(#SVGID_2_)" cx="56.393" cy="23.712" rx="16.629" ry="4.397"/>
	<g>
		<g>
			<path fill="#F9C600" d="M58.889,18.812c-0.074,0.563-0.6,1.024-1.168,1.024h-2.496c-0.568,0-1.111-0.458-1.207-1.018
				l-0.729-4.252c-0.096-0.56,0.291-1.018,0.859-1.018h4.402c0.568,0,0.973,0.461,0.898,1.024L58.889,18.812z"/>
			<path fill="none" stroke="#1E1E1C" stroke-width="0.5204" stroke-miterlimit="10" d="M58.889,18.812
				c-0.074,0.563-0.6,1.024-1.168,1.024h-2.496c-0.568,0-1.111-0.458-1.207-1.018l-0.729-4.252c-0.096-0.56,0.291-1.018,0.859-1.018
				h4.402c0.568,0,0.973,0.461,0.898,1.024L58.889,18.812z"/>
		</g>
		
			<polygon fill="#FFFFFF" stroke="#1E1E1C" stroke-width="0.4721" stroke-linecap="round" stroke-linejoin="round" stroke-miterlimit="10" points="
			55.92,12.644 51.479,10.295 51.711,4.009 56.781,5.722 		"/>
		<polygon fill="#1E1E1C" points="53.445,7.4 52.512,6.962 52.785,6.666 53.462,7.009 		"/>
		<polygon fill="#1E1E1C" points="55.293,8.103 54.445,7.712 54.363,7.259 55.164,7.603 		"/>
		<polygon fill="#1E1E1C" points="54.195,9.978 53.071,9.431 52.824,8.619 54.574,9.431 		"/>
		
			<polygon fill="#FFFFFF" stroke="#1E1E1C" stroke-width="0.4721" stroke-linecap="round" stroke-linejoin="round" stroke-miterlimit="10" points="
			56.781,5.722 51.711,4.009 56.35,4.212 60.379,5.722 		"/>
		
			<polygon fill="#FFFFFF" stroke="#1E1E1C" stroke-width="0.4721" stroke-linecap="round" stroke-linejoin="round" stroke-miterlimit="10" points="
			59.477,11.751 55.92,12.644 56.746,5.722 60.379,5.722 		"/>
		
			<path fill="none" stroke="#1E1E1C" stroke-width="0.4721" stroke-linecap="round" stroke-linejoin="round" stroke-miterlimit="10" d="
			M48.485,15.373c0,0,2.173,3.062,4.13,0.04"/>
		
			<path fill="none" stroke="#1E1E1C" stroke-width="0.4721" stroke-linecap="round" stroke-linejoin="round" stroke-miterlimit="10" d="
			M60.211,14.835c0,0,1.835,0.462-1.918,3.102"/>
		
			<ellipse transform="matrix(0.9244 0.3815 -0.3815 0.9244 8.0646 -21.4574)" fill="#FEC813" cx="58.147" cy="9.61" rx="1.177" ry="1.612"/>
		
			<path fill="none" stroke="#1E1E1C" stroke-width="0.2361" stroke-linecap="round" stroke-linejoin="round" stroke-miterlimit="10" d="
			M53.699,3.988c0.549-1.217,1.455-2.009,2.479-2.009c1.676,0,3.033,2.128,3.033,4.752c0,1.234-0.299,2.359-0.792,3.204"/>
		
			<path fill="none" stroke="#1E1E1C" stroke-width="0.4721" stroke-linecap="round" stroke-linejoin="round" stroke-miterlimit="10" d="
			M58.419,9.935"/>
		
			<path fill="none" stroke="#1E1E1C" stroke-width="0.9443" stroke-linecap="round" stroke-linejoin="round" stroke-miterlimit="10" d="
			M54.889,2.428c1.076-0.62,2.365-0.449,3.258,0.688"/>
		<ellipse transform="matrix(0.9238 0.3829 -0.3829 0.9238 8.1918 -21.6175)" cx="58.405" cy="9.771" rx="0.519" ry="0.796"/>
		
			<polygon fill="#009ED9" stroke="#1E1E1C" stroke-width="0.4721" stroke-linecap="round" stroke-linejoin="round" stroke-miterlimit="10" points="
			48.83,16.847 46.658,16.043 45.258,10.637 47.57,11.459 		"/>
		<text transform="matrix(1 0 0 1 54.3887 16.5513)" fill="#1E1E1C" font-family="'ArialRoundedMTBold'" font-size="1.7676">R&amp;D</text>
		<g>
			<path fill="#FFFFFF" d="M58.531,22.788c-0.178-0.454-0.787-0.826-1.355-0.826h-1.463c-0.568,0-1.221,0.372-1.449,0.826
				c-0.229,0.455,0.049,0.827,0.617,0.827h2.939C58.389,23.615,58.709,23.243,58.531,22.788z"/>
			<path fill="none" stroke="#1E1E1C" stroke-width="0.5204" stroke-miterlimit="10" d="M58.531,22.788
				c-0.178-0.454-0.787-0.826-1.355-0.826h-1.463c-0.568,0-1.221,0.372-1.449,0.826c-0.229,0.455,0.049,0.827,0.617,0.827h2.939
				C58.389,23.615,58.709,23.243,58.531,22.788z"/>
		</g>
		
			<rect x="55.92" y="19.835" fill="#FFFFFF" stroke="#1E1E1C" stroke-width="0.5204" stroke-miterlimit="10" width="0.861" height="2.126"/>
		
			<path fill="none" stroke="#1E1E1C" stroke-width="0.4721" stroke-linecap="round" stroke-linejoin="round" stroke-miterlimit="10" d="
			M57.293,17.664c0.439-0.159,0.888-0.038,1,0.273c0.115,0.312-0.148,0.694-0.588,0.854"/>
	</g>
	<g>
		<path fill="#F9C600" d="M60.852,5.065c0,2.84-2.239,0.821-5.07,0.821c-2.83,0-2.908-0.688-4.667-0.745
			C51.114,2.302,53.408,0,56.238,0C59.069,0,60.852,2.226,60.852,5.065z"/>
		<path fill="#FFD200" d="M50.425,5.768c0-1.341,2.751-0.352,5.582-0.352c2.83,0,2.908,0.325,4.667,0.352
			c0,1.34-2.679,1.472-5.509,1.472C52.334,7.24,50.425,7.108,50.425,5.768z"/>
		<g>
			<g>
				<path fill="#D2AF00" d="M54.247,0.378c-0.658,0.415-0.91,1.081-1.144,1.787c-0.158,0.479,1.736,0.229,1.914-0.309
					c0.155-0.472,0.285-1.056,0.731-1.338c0.331-0.209,0.225-0.473-0.136-0.507C55.142-0.032,54.642,0.129,54.247,0.378
					L54.247,0.378z"/>
			</g>
		</g>
		<g>
			<g>
				<path fill="#D2AF00" d="M56.33,0.917c-0.262,0.581-0.76,0.928-0.798,1.603c-0.015,0.26,1.9,0.039,1.932-0.518
					c0.032-0.573,0.545-0.934,0.771-1.433c0.14-0.311-0.673-0.188-0.769-0.17C57.163,0.455,56.479,0.586,56.33,0.917L56.33,0.917z"
					/>
			</g>
		</g>
		<g>
			<g>
				<path fill="#D2AF00" d="M57.982,1.93c-0.219,0.388-0.474,0.75-0.713,1.125c-0.259,0.409,0.223,0.702,0.568,0.732
					c0.477,0.042,1.002-0.159,1.264-0.57c0.238-0.376,0.493-0.737,0.713-1.125c0.235-0.417-0.202-0.7-0.568-0.732
					C58.789,1.318,58.22,1.511,57.982,1.93L57.982,1.93z"/>
			</g>
		</g>
	</g>
</g>
<g>
	<rect x="9.875" y="18.815" fill="#9B9B9A" width="27" height="9.913"/>
	<polygon fill="#D6D6D6" points="14.708,14.975 41.708,14.975 36.875,18.815 9.875,18.815 	"/>
	<polygon fill="#878787" points="36.875,28.728 41.708,23.868 41.708,14.975 36.875,18.815 	"/>
</g>
<g>
	<rect x="14.571" y="7.914" fill="#9B9B9A" width="10.304" height="9.913"/>
	<polygon fill="#D6D6D6" points="17.404,6.216 27.708,6.216 24.875,7.914 14.571,7.914 	"/>
	<polygon fill="#878787" points="24.875,17.826 27.708,15.109 27.708,6.216 24.875,7.914 	"/>
</g>
<g>
	<g>
		<polygon fill="#FFD200" points="28.241,26.616 26.941,26.616 26.954,24.716 28.841,24.716 		"/>
		<polygon points="30.128,26.616 28.241,26.616 28.841,24.716 30.729,24.716 		"/>
		<polygon fill="#FFD200" points="32.015,26.616 30.128,26.616 30.729,24.716 32.615,24.716 		"/>
		<polygon points="33.901,26.616 32.015,26.616 32.615,24.716 34.502,24.716 		"/>
		<polygon fill="#FFD200" points="35.789,26.616 33.901,26.616 34.502,24.716 36.389,24.716 		"/>
		<polygon points="37.676,26.616 35.789,26.616 36.389,24.716 38.275,24.716 		"/>
		<polygon fill="#FFD200" points="39.562,26.616 37.676,26.616 38.275,24.716 40.162,24.716 		"/>
		<polygon points="41.449,26.616 39.562,26.616 40.162,24.716 42.05,24.716 		"/>
		<polygon fill="#FFD200" points="43.336,26.616 41.449,26.616 42.05,24.716 43.937,24.716 		"/>
		<polygon points="45.223,26.616 43.336,26.616 43.937,24.716 45.823,24.716 		"/>
		<polygon fill="#FFD200" points="47.11,26.616 45.223,26.616 45.823,24.716 47.71,24.716 		"/>
		<polygon points="48.997,26.616 47.11,26.616 47.71,24.716 49.597,24.716 		"/>
		<polygon fill="#FFD200" points="50.884,26.616 48.997,26.616 49.597,24.716 51.483,24.716 		"/>
		<polygon points="52.771,26.616 50.884,26.616 51.483,24.716 52.781,24.716 		"/>
	</g>
	<polygon fill="#504F4E" points="51.894,33.987 50.606,33.987 49.695,26.616 50.982,26.616 	"/>
	<polygon fill="#878787" points="48.12,35.641 46.833,35.641 49.597,26.616 50.884,26.616 	"/>
	<polygon fill="#504F4E" points="30.862,33.987 29.575,33.987 28.664,26.616 29.951,26.616 	"/>
	<polygon fill="#878787" points="27.089,35.641 25.802,35.641 28.565,26.616 29.853,26.616 	"/>
	<circle fill="#E30613" stroke="#C4C4C4" stroke-width="0.25" cx="49.676" cy="23.137" r="1.322"/>
	<circle fill="#E30613" stroke="#C4C4C4" stroke-width="0.25" cx="31.371" cy="23.137" r="1.322"/>
</g>
<line fill="none" stroke="#1E1E1C" stroke-width="0.4721" stroke-linecap="round" stroke-linejoin="round" stroke-miterlimit="10" x1="59.938" y1="19.835" x2="50.551" y2="13.742"/>
</svg>
