<?xml version="1.0" encoding="utf-8"?>
<!-- Generator: Adobe Illustrator 15.0.2, SVG Export Plug-In . SVG Version: 6.00 Build 0)  -->
<!DOCTYPE svg PUBLIC "-//W3C//DTD SVG 1.1//EN" "http://www.w3.org/Graphics/SVG/1.1/DTD/svg11.dtd">
<svg version="1.1" id="Layer_1" xmlns="http://www.w3.org/2000/svg" xmlns:xlink="http://www.w3.org/1999/xlink" x="0px" y="0px"
	 width="91.022px" height="20.5px" viewBox="-0.358 14.875 91.022 20.5" enable-background="new -0.358 14.875 91.022 20.5"
	 xml:space="preserve">
<g>
	<g>
		
			<radialGradient id="SVGID_1_" cx="896.4873" cy="-452.8354" r="25.4874" gradientTransform="matrix(0.2845 0 0 0.0996 -171.7567 77.5952)" gradientUnits="userSpaceOnUse">
			<stop  offset="0" style="stop-color:#A9A9AA"/>
			<stop  offset="0.0541" style="stop-color:#B6BAB4"/>
			<stop  offset="0.2086" style="stop-color:#D9E9CF"/>
			<stop  offset="0.3252" style="stop-color:#E4EFDD"/>
			<stop  offset="0.5432" style="stop-color:#F3F8F0"/>
			<stop  offset="0.7662" style="stop-color:#FCFDFB"/>
			<stop  offset="1" style="stop-color:#FFFFFF"/>
		</radialGradient>
		<ellipse fill="url(#SVGID_1_)" cx="83.295" cy="32.51" rx="7.369" ry="2.807"/>
		<g>
			<g>
				<g>
					<polygon fill="#FFFFFF" points="82.969,25.463 80.135,23.965 80.283,19.953 83.52,21.047 					"/>
					<path fill="#1D1E1C" d="M82.969,25.614c-0.024,0-0.049-0.006-0.07-0.018l-2.834-1.498c-0.052-0.027-0.083-0.081-0.081-0.14
						l0.148-4.012c0.002-0.048,0.026-0.092,0.065-0.118c0.039-0.027,0.089-0.032,0.135-0.02l3.236,1.094
						c0.067,0.023,0.11,0.091,0.102,0.162l-0.551,4.416c-0.007,0.05-0.036,0.093-0.081,0.115
						C83.017,25.608,82.993,25.614,82.969,25.614z M80.289,23.876l2.557,1.352l0.509-4.077l-2.928-0.989L80.289,23.876z"/>
				</g>
				<polygon fill="#1D1E1C" points="81.338,22.008 80.646,21.756 80.828,21.551 81.26,21.77 				"/>
				<polygon fill="#1D1E1C" points="82.627,22.578 81.881,22.262 82.029,22.066 82.541,22.285 				"/>
				<polygon fill="#1D1E1C" points="81.729,23.551 81.197,23.363 81.012,22.805 82.248,23.484 				"/>
				<g>
					<polygon fill="#FFFFFF" points="83.52,21.047 80.283,19.953 83.242,20.082 85.814,21.047 					"/>
					<path fill="#1D1E1C" d="M85.822,21.198c-0.004,0-0.006,0-0.008,0H83.52c-0.017,0-0.033-0.003-0.049-0.008l-3.236-1.094
						c-0.071-0.024-0.113-0.098-0.1-0.171c0.014-0.072,0.076-0.124,0.148-0.124c0.002,0,0.004,0,0.007,0l2.959,0.129
						c0.016,0.001,0.031,0.004,0.046,0.01l2.553,0.958c0.071,0.012,0.125,0.074,0.125,0.148
						C85.973,21.13,85.905,21.198,85.822,21.198z M83.544,20.896h1.438l-1.77-0.664l-1.873-0.081L83.544,20.896z"/>
				</g>
				<g>
					<polygon fill="#FFFFFF" points="85.238,24.895 82.969,25.463 83.496,21.047 85.814,21.047 					"/>
					<path fill="#1D1E1C" d="M82.969,25.614c-0.036,0-0.072-0.014-0.1-0.038c-0.037-0.033-0.057-0.082-0.051-0.131l0.527-4.416
						c0.01-0.076,0.074-0.134,0.15-0.134h2.318c0.044,0,0.086,0.02,0.114,0.053c0.029,0.033,0.042,0.077,0.035,0.121l-0.576,3.848
						c-0.009,0.061-0.054,0.109-0.112,0.124l-2.27,0.568C82.993,25.612,82.981,25.614,82.969,25.614z M83.63,21.198l-0.485,4.064
						l1.959-0.49l0.535-3.574H83.63z"/>
				</g>
				<path fill="#1D1E1C" d="M79.632,28.232c-0.854,0-1.503-0.901-1.53-0.939c-0.049-0.068-0.032-0.163,0.035-0.211
					c0.068-0.048,0.162-0.032,0.211,0.035c0.006,0.009,0.588,0.813,1.284,0.813c0.007,0,0.014,0,0.021,0
					c0.387-0.009,0.75-0.272,1.08-0.782c0.046-0.07,0.139-0.09,0.209-0.045s0.09,0.139,0.045,0.209
					c-0.388,0.6-0.835,0.909-1.329,0.92C79.649,28.232,79.641,28.232,79.632,28.232z"/>
				<path fill="#1D1E1C" d="M84.482,28.993c-0.048,0-0.094-0.022-0.124-0.064c-0.048-0.068-0.031-0.162,0.037-0.211
					c1.377-0.969,1.468-1.403,1.443-1.545c-0.021-0.123-0.164-0.164-0.17-0.165c-0.08-0.022-0.128-0.104-0.107-0.185
					c0.021-0.081,0.105-0.126,0.183-0.108c0.123,0.031,0.345,0.15,0.392,0.4c0.082,0.445-0.43,1.051-1.566,1.851
					C84.543,28.984,84.513,28.993,84.482,28.993z"/>
				
					<ellipse transform="matrix(0.9246 0.381 -0.381 0.9246 15.33 -30.3787)" fill="#1D1E1C" cx="84.39" cy="23.528" rx="0.751" ry="1.028"/>
				<path fill="#1D1E1C" d="M84.564,23.812c-0.013,0-0.026-0.003-0.038-0.01c-0.036-0.021-0.048-0.067-0.027-0.104
					c0.318-0.546,0.494-1.259,0.494-2.007c0-1.631-0.835-2.958-1.86-2.958c-0.597,0-1.162,0.464-1.514,1.239
					c-0.016,0.038-0.063,0.057-0.1,0.037c-0.038-0.017-0.055-0.062-0.037-0.1c0.376-0.831,0.992-1.327,1.65-1.327
					c1.109,0,2.011,1.395,2.011,3.108c0,0.774-0.183,1.515-0.514,2.083C84.615,23.799,84.591,23.812,84.564,23.812z"/>
				
					<path fill="none" stroke="#1D1E1C" stroke-width="0.3022" stroke-linecap="round" stroke-linejoin="round" stroke-miterlimit="10" d="
					M84.564,23.736"/>
				<path fill="#1D1E1C" d="M84.391,19.687c-0.09,0-0.178-0.039-0.237-0.115c-0.448-0.569-1.095-0.709-1.691-0.364
					c-0.145,0.083-0.33,0.034-0.413-0.11s-0.034-0.33,0.11-0.413c0.866-0.499,1.833-0.296,2.469,0.515
					c0.104,0.131,0.08,0.321-0.051,0.424C84.521,19.666,84.456,19.687,84.391,19.687z"/>
				
					<ellipse transform="matrix(0.7681 0.6403 -0.6403 0.7681 34.5249 -45.5404)" fill="#1D1E1C" cx="80.134" cy="24.894" rx="0.581" ry="0.434"/>
				
					<ellipse transform="matrix(0.9239 0.3825 -0.3825 0.9239 15.4702 -30.547)" fill="#FFFFFF" cx="84.555" cy="23.631" rx="0.332" ry="0.509"/>
				<path fill="#1D1E1C" d="M81.77,25.539c-0.566,0-1.129-0.195-1.679-0.583c-0.034-0.023-0.042-0.071-0.018-0.105
					c0.023-0.034,0.069-0.044,0.105-0.018c0.655,0.462,1.326,0.637,1.996,0.52c1.2-0.21,2.064-1.285,2.381-1.737
					c0.023-0.035,0.07-0.045,0.104-0.019c0.034,0.023,0.043,0.07,0.019,0.104c-0.326,0.468-1.222,1.58-2.479,1.8
					C82.057,25.526,81.913,25.539,81.77,25.539z"/>
				<g>
					<path fill="#1E1E1C" d="M82.596,27.861l-0.038-0.1h-0.329l-0.038,0.104c-0.015,0.039-0.028,0.066-0.038,0.08
						c-0.011,0.016-0.028,0.021-0.053,0.021c-0.021,0-0.039-0.008-0.055-0.021c-0.016-0.016-0.023-0.033-0.023-0.051
						c0-0.012,0.002-0.023,0.006-0.035s0.01-0.027,0.018-0.049l0.207-0.525c0.006-0.014,0.013-0.031,0.021-0.053
						c0.008-0.021,0.017-0.039,0.025-0.053c0.01-0.014,0.021-0.025,0.037-0.035c0.016-0.008,0.034-0.012,0.057-0.012
						c0.023,0,0.042,0.004,0.057,0.012c0.016,0.01,0.027,0.021,0.037,0.033c0.01,0.014,0.018,0.029,0.023,0.045
						c0.007,0.016,0.016,0.037,0.025,0.062l0.211,0.521c0.016,0.039,0.024,0.068,0.024,0.086c0,0.02-0.008,0.035-0.023,0.051
						s-0.034,0.023-0.056,0.023c-0.014,0-0.024-0.002-0.033-0.006c-0.01-0.006-0.018-0.012-0.023-0.02s-0.014-0.02-0.021-0.035
						C82.607,27.889,82.602,27.875,82.596,27.861z M82.271,27.639h0.242l-0.122-0.334L82.271,27.639z"/>
					<path fill="#1E1E1C" d="M83.11,27.607h-0.058v0.26c0,0.035-0.008,0.061-0.022,0.076s-0.034,0.023-0.06,0.023
						s-0.045-0.008-0.061-0.025c-0.014-0.016-0.021-0.041-0.021-0.074v-0.621c0-0.035,0.008-0.061,0.024-0.076
						c0.016-0.016,0.041-0.023,0.077-0.023h0.266c0.036,0,0.068,0.002,0.094,0.004c0.026,0.004,0.05,0.01,0.07,0.02
						c0.025,0.01,0.048,0.025,0.067,0.045c0.02,0.021,0.034,0.043,0.044,0.07c0.011,0.025,0.016,0.053,0.016,0.082
						c0,0.061-0.018,0.109-0.051,0.145c-0.034,0.037-0.086,0.062-0.154,0.078c0.029,0.014,0.057,0.037,0.083,0.068
						c0.026,0.029,0.05,0.061,0.071,0.096c0.02,0.033,0.036,0.064,0.048,0.092c0.011,0.027,0.017,0.045,0.017,0.057
						c0,0.01-0.003,0.021-0.01,0.031c-0.006,0.01-0.016,0.02-0.027,0.025s-0.025,0.008-0.041,0.008
						c-0.019,0-0.033-0.004-0.047-0.012c-0.012-0.01-0.022-0.02-0.031-0.033c-0.01-0.014-0.021-0.033-0.037-0.059l-0.065-0.109
						c-0.023-0.039-0.044-0.07-0.063-0.092c-0.018-0.02-0.037-0.035-0.057-0.043C83.163,27.611,83.139,27.607,83.11,27.607z
						 M83.203,27.27h-0.15v0.221h0.146c0.039,0,0.072-0.002,0.1-0.01c0.026-0.006,0.047-0.018,0.061-0.035
						c0.015-0.016,0.021-0.037,0.021-0.066c0-0.023-0.006-0.043-0.017-0.059c-0.012-0.018-0.027-0.031-0.048-0.039
						C83.297,27.273,83.26,27.27,83.203,27.27z"/>
					<path fill="#1E1E1C" d="M83.889,27.727h-0.174c-0.026,0-0.047-0.006-0.061-0.018c-0.014-0.014-0.02-0.029-0.02-0.049
						s0.006-0.035,0.02-0.047c0.014-0.014,0.033-0.02,0.061-0.02h0.174c0.027,0,0.048,0.006,0.062,0.02
						c0.013,0.012,0.021,0.027,0.021,0.047s-0.008,0.035-0.021,0.049C83.938,27.721,83.916,27.727,83.889,27.727z"/>
					<path fill="#1E1E1C" d="M84.308,27.879v-0.502c-0.093,0.072-0.156,0.107-0.188,0.107c-0.016,0-0.029-0.006-0.041-0.018
						c-0.012-0.014-0.018-0.027-0.018-0.043c0-0.02,0.006-0.033,0.018-0.041c0.012-0.01,0.032-0.021,0.062-0.035
						c0.044-0.021,0.08-0.043,0.105-0.066c0.027-0.023,0.051-0.049,0.071-0.078c0.021-0.027,0.034-0.045,0.04-0.053
						c0.006-0.006,0.018-0.01,0.035-0.01c0.02,0,0.035,0.008,0.047,0.023s0.018,0.035,0.018,0.062v0.631
						c0,0.072-0.025,0.109-0.075,0.109c-0.022,0-0.04-0.008-0.054-0.021C84.314,27.93,84.308,27.908,84.308,27.879z"/>
				</g>
				<path fill="#1D1E1C" d="M84.116,30.22h-1.59c-0.441,0-0.862-0.354-0.937-0.79l-0.463-2.709
					c-0.038-0.223,0.016-0.434,0.151-0.596c0.137-0.161,0.336-0.251,0.562-0.251h2.805c0.225,0,0.426,0.089,0.566,0.249
					c0.142,0.161,0.203,0.372,0.174,0.595l-0.357,2.701C84.971,29.86,84.562,30.22,84.116,30.22z M81.841,26.208
					c-0.126,0-0.235,0.047-0.308,0.132c-0.071,0.085-0.1,0.2-0.078,0.324l0.463,2.709c0.048,0.278,0.326,0.513,0.608,0.513h1.59
					c0.279,0,0.546-0.233,0.582-0.51l0.357-2.701c0.017-0.126-0.017-0.244-0.094-0.332c-0.077-0.087-0.189-0.135-0.316-0.135H81.841
					z"/>
				<g>
					<g>
						<path fill="#FFFFFF" d="M84.635,31.937c-0.113-0.291-0.502-0.528-0.866-0.528h-0.93c-0.364,0-0.78,0.237-0.927,0.528
							s0.031,0.528,0.396,0.528h1.871C84.543,32.465,84.748,32.228,84.635,31.937z"/>
					</g>
					<path fill="#1D1E1C" d="M84.179,32.632h-1.871c-0.247,0-0.445-0.094-0.546-0.256c-0.091-0.148-0.091-0.331,0.002-0.515
						c0.175-0.348,0.647-0.62,1.075-0.62h0.93c0.435,0,0.883,0.279,1.021,0.635c0.069,0.179,0.054,0.355-0.044,0.498
						C84.635,32.537,84.428,32.632,84.179,32.632z M82.839,31.575c-0.303,0-0.659,0.199-0.778,0.437
						c-0.021,0.044-0.054,0.127-0.016,0.189c0.038,0.061,0.136,0.097,0.263,0.097h1.871c0.135,0,0.245-0.042,0.293-0.112
						c0.034-0.05,0.037-0.113,0.008-0.188c-0.089-0.229-0.415-0.422-0.711-0.422H82.839z"/>
				</g>
				<g>
					<rect x="82.969" y="30.053" fill="#FFFFFF" width="0.551" height="1.355"/>
					<path fill="#1D1E1C" d="M83.687,31.575h-0.885v-1.689h0.885V31.575z M83.136,31.241h0.217V30.22h-0.217V31.241z"/>
				</g>
				<path fill="#1D1E1C" d="M84.109,29.538c-0.062,0-0.12-0.038-0.142-0.1c-0.029-0.078,0.012-0.165,0.09-0.193
					c0.125-0.046,0.229-0.132,0.271-0.225c0.015-0.032,0.029-0.08,0.012-0.126c-0.017-0.048-0.058-0.075-0.089-0.09
					c-0.093-0.042-0.228-0.042-0.356,0.005c-0.076,0.031-0.165-0.011-0.193-0.09c-0.029-0.078,0.011-0.165,0.09-0.193
					c0.205-0.075,0.42-0.073,0.588,0.005c0.118,0.056,0.205,0.148,0.245,0.261c0.041,0.108,0.033,0.235-0.021,0.354
					c-0.077,0.169-0.238,0.309-0.442,0.382C84.144,29.535,84.127,29.538,84.109,29.538z"/>
			</g>
		</g>
		<g>
			<path fill="#1D1E1C" d="M79.395,25.652l-4.701-2.389c-0.127-0.064-0.283-0.014-0.348,0.117l-1.242,2.443
				c-0.064,0.129-0.014,0.285,0.115,0.35l4.701,2.385c0.127,0.064,0.285,0.016,0.35-0.113l1.24-2.443
				C79.574,25.871,79.523,25.715,79.395,25.652z"/>
			<path fill="#FFFFFF" d="M78.062,28.133c-0.027,0.059-0.1,0.082-0.156,0.053l-4.375-2.221c-0.061-0.027-0.082-0.1-0.053-0.16
				l1.072-2.113c0.029-0.059,0.102-0.08,0.16-0.051l4.373,2.221c0.059,0.029,0.082,0.102,0.053,0.156L78.062,28.133z"/>
			<path fill="#1D1E1C" d="M77.658,25.674c-0.402-0.207-0.893-0.045-1.098,0.357c-0.096,0.188-0.111,0.393-0.061,0.58l-0.871-0.441
				c0.18-0.072,0.338-0.205,0.434-0.393c0.203-0.402,0.043-0.893-0.359-1.098s-0.895-0.043-1.098,0.359
				c-0.203,0.393-0.051,0.875,0.336,1.086l0,0l2.023,1.029V27.15c0.393,0.17,0.855,0.006,1.053-0.381
				C78.223,26.367,78.061,25.875,77.658,25.674z M75.111,25.844c-0.24-0.125-0.336-0.416-0.213-0.658
				c0.121-0.242,0.416-0.338,0.656-0.213c0.242,0.119,0.338,0.414,0.215,0.656C75.648,25.869,75.354,25.965,75.111,25.844z
				 M77.07,26.836c-0.242-0.123-0.338-0.418-0.217-0.658c0.123-0.24,0.418-0.334,0.66-0.215c0.24,0.125,0.336,0.418,0.213,0.66
				C77.604,26.861,77.309,26.959,77.07,26.836z"/>
		</g>
	</g>
	<g>
		<path fill="#39A935" d="M70.506,32.375c0,1.65-1.35,3-3,3H2.643c-1.65,0-3-1.35-3-3v-14.5c0-1.65,1.35-3,3-3h64.863
			c1.65,0,3,1.35,3,3V32.375z"/>
	</g>
	<path fill="#39A935" d="M70.205,26.986v-5.865c0,0,2.754-0.045,3.406,1.002C70.924,23.322,70.205,26.986,70.205,26.986z"/>
	<g>
		<path fill="#FFFFFF" d="M4.891,21.197v-1.053L4.08,18.89c-0.07-0.113-0.121-0.201-0.15-0.265s-0.043-0.118-0.043-0.165
			c0-0.077,0.029-0.144,0.088-0.199c0.061-0.056,0.133-0.084,0.221-0.084c0.092,0,0.162,0.026,0.209,0.078
			c0.049,0.052,0.119,0.156,0.215,0.312l0.619,1.006l0.627-1.006c0.037-0.062,0.07-0.114,0.096-0.156s0.053-0.082,0.084-0.119
			s0.064-0.065,0.104-0.085c0.037-0.02,0.084-0.029,0.137-0.029c0.086,0,0.156,0.027,0.213,0.083
			c0.057,0.055,0.084,0.118,0.084,0.19c0,0.06-0.014,0.118-0.043,0.177s-0.078,0.141-0.146,0.244l-0.83,1.273v1.053
			c0,0.137-0.031,0.239-0.096,0.308c-0.062,0.067-0.145,0.102-0.242,0.102c-0.1,0-0.18-0.033-0.242-0.101
			C4.922,21.438,4.891,21.336,4.891,21.197z"/>
		<path fill="#FFFFFF" d="M9.023,20.351c0,0.185-0.029,0.354-0.086,0.509c-0.059,0.156-0.141,0.289-0.25,0.4
			c-0.107,0.112-0.238,0.197-0.389,0.257s-0.32,0.09-0.508,0.09s-0.355-0.03-0.506-0.091c-0.148-0.06-0.277-0.146-0.387-0.259
			s-0.193-0.245-0.25-0.398c-0.057-0.152-0.084-0.322-0.084-0.508c0-0.187,0.027-0.357,0.086-0.514
			c0.057-0.155,0.139-0.288,0.246-0.397c0.107-0.11,0.236-0.195,0.389-0.255s0.32-0.089,0.506-0.089s0.355,0.03,0.508,0.09
			c0.152,0.061,0.283,0.146,0.393,0.258c0.107,0.112,0.189,0.245,0.246,0.398C8.994,19.996,9.023,20.165,9.023,20.351z
			 M8.402,20.351c0-0.252-0.055-0.447-0.166-0.588c-0.109-0.141-0.26-0.21-0.445-0.21c-0.121,0-0.229,0.031-0.32,0.094
			s-0.162,0.154-0.213,0.276c-0.049,0.123-0.074,0.265-0.074,0.428c0,0.162,0.025,0.303,0.074,0.423
			c0.049,0.121,0.119,0.214,0.209,0.277c0.092,0.064,0.199,0.097,0.324,0.097c0.186,0,0.336-0.071,0.445-0.212
			C8.348,20.795,8.402,20.6,8.402,20.351z"/>
		<path fill="#FFFFFF" d="M11.113,21.258v-0.079c-0.074,0.094-0.15,0.172-0.232,0.235s-0.17,0.11-0.268,0.142
			c-0.096,0.03-0.207,0.046-0.33,0.046c-0.148,0-0.283-0.03-0.4-0.093c-0.119-0.062-0.211-0.146-0.275-0.255
			c-0.078-0.132-0.115-0.32-0.115-0.566v-1.224c0-0.123,0.027-0.216,0.084-0.277c0.055-0.061,0.129-0.091,0.221-0.091
			c0.094,0,0.17,0.03,0.227,0.093c0.057,0.062,0.086,0.153,0.086,0.275v0.989c0,0.143,0.012,0.263,0.037,0.36
			c0.023,0.098,0.066,0.174,0.129,0.229s0.148,0.083,0.254,0.083s0.203-0.031,0.295-0.093c0.092-0.062,0.158-0.143,0.201-0.242
			c0.035-0.088,0.053-0.279,0.053-0.575v-0.751c0-0.122,0.027-0.214,0.086-0.275c0.057-0.062,0.131-0.093,0.223-0.093
			s0.166,0.03,0.223,0.091c0.055,0.062,0.084,0.154,0.084,0.277v1.79c0,0.117-0.027,0.205-0.08,0.265
			c-0.055,0.059-0.123,0.088-0.207,0.088c-0.086,0-0.154-0.03-0.209-0.092C11.141,21.454,11.113,21.368,11.113,21.258z"/>
		<path fill="#FFFFFF" d="M12.92,20.715v0.516c0,0.126-0.029,0.22-0.088,0.282s-0.133,0.094-0.223,0.094s-0.162-0.032-0.221-0.095
			c-0.057-0.063-0.086-0.157-0.086-0.281v-1.719c0-0.277,0.102-0.416,0.301-0.416c0.104,0,0.178,0.032,0.223,0.097
			c0.045,0.065,0.07,0.161,0.074,0.287c0.074-0.126,0.15-0.222,0.227-0.287c0.078-0.064,0.182-0.097,0.312-0.097
			c0.129,0,0.256,0.032,0.377,0.097C13.939,19.258,14,19.344,14,19.45c0,0.076-0.025,0.138-0.078,0.187
			c-0.053,0.05-0.107,0.074-0.168,0.074c-0.023,0-0.078-0.015-0.164-0.042c-0.088-0.028-0.164-0.042-0.23-0.042
			c-0.09,0-0.164,0.023-0.221,0.071c-0.059,0.048-0.102,0.118-0.135,0.212c-0.031,0.093-0.053,0.204-0.064,0.333
			S12.92,20.529,12.92,20.715z"/>
		<path fill="#FFFFFF" d="M17.709,20.842c0,0.077-0.021,0.159-0.068,0.246c-0.045,0.088-0.115,0.171-0.211,0.25
			c-0.094,0.079-0.213,0.144-0.355,0.191c-0.143,0.049-0.305,0.072-0.484,0.072c-0.381,0-0.68-0.111-0.893-0.333
			c-0.215-0.223-0.322-0.521-0.322-0.896c0-0.253,0.049-0.477,0.146-0.672c0.1-0.194,0.24-0.345,0.426-0.451
			s0.408-0.159,0.666-0.159c0.16,0,0.307,0.023,0.439,0.07s0.246,0.106,0.34,0.181c0.092,0.074,0.164,0.152,0.213,0.236
			s0.072,0.162,0.072,0.234c0,0.074-0.027,0.137-0.082,0.188c-0.055,0.052-0.121,0.077-0.201,0.077c-0.051,0-0.094-0.014-0.127-0.04
			s-0.072-0.068-0.113-0.127c-0.076-0.115-0.154-0.201-0.236-0.259c-0.084-0.057-0.188-0.086-0.314-0.086
			c-0.182,0-0.33,0.071-0.441,0.214s-0.166,0.338-0.166,0.585c0,0.116,0.014,0.223,0.043,0.32c0.027,0.098,0.068,0.181,0.123,0.249
			s0.121,0.12,0.197,0.156c0.076,0.035,0.162,0.053,0.254,0.053c0.123,0,0.229-0.028,0.316-0.086
			c0.09-0.058,0.168-0.145,0.234-0.263c0.039-0.069,0.078-0.123,0.123-0.162c0.043-0.04,0.098-0.06,0.16-0.06
			c0.076,0,0.139,0.029,0.188,0.086C17.686,20.716,17.709,20.777,17.709,20.842z"/>
		<path fill="#FFFFFF" d="M19.809,21.258c-0.148,0.116-0.293,0.203-0.434,0.262c-0.139,0.058-0.295,0.087-0.469,0.087
			c-0.158,0-0.297-0.031-0.418-0.094c-0.119-0.062-0.211-0.147-0.275-0.255c-0.066-0.106-0.098-0.223-0.098-0.349
			c0-0.169,0.053-0.312,0.16-0.432s0.254-0.199,0.441-0.24c0.039-0.009,0.137-0.029,0.291-0.061c0.156-0.032,0.289-0.061,0.4-0.087
			c0.109-0.026,0.23-0.059,0.359-0.097c-0.006-0.163-0.039-0.282-0.098-0.358s-0.178-0.114-0.361-0.114
			c-0.156,0-0.273,0.022-0.354,0.065c-0.08,0.044-0.146,0.109-0.203,0.197c-0.057,0.087-0.098,0.145-0.121,0.173
			s-0.072,0.042-0.15,0.042c-0.068,0-0.129-0.022-0.18-0.066c-0.051-0.045-0.076-0.102-0.076-0.171c0-0.109,0.039-0.215,0.117-0.317
			c0.076-0.103,0.195-0.187,0.359-0.253c0.162-0.066,0.365-0.1,0.607-0.1c0.271,0,0.486,0.032,0.641,0.096
			c0.156,0.064,0.266,0.166,0.33,0.305c0.062,0.139,0.096,0.323,0.096,0.552c0,0.145,0,0.268-0.002,0.369
			c0,0.101-0.002,0.213-0.004,0.337c0,0.116,0.02,0.237,0.059,0.363s0.059,0.207,0.059,0.243c0,0.063-0.031,0.121-0.09,0.173
			c-0.061,0.052-0.127,0.078-0.203,0.078c-0.062,0-0.125-0.03-0.188-0.09S19.879,21.371,19.809,21.258z M19.768,20.364
			c-0.09,0.033-0.221,0.068-0.395,0.105c-0.172,0.037-0.291,0.064-0.357,0.081c-0.066,0.018-0.131,0.052-0.191,0.103
			c-0.059,0.05-0.09,0.12-0.09,0.211c0,0.094,0.035,0.173,0.107,0.238c0.07,0.066,0.162,0.099,0.277,0.099
			c0.123,0,0.234-0.026,0.338-0.08s0.18-0.122,0.229-0.207c0.055-0.094,0.082-0.247,0.082-0.461V20.364z"/>
		<path fill="#FFFFFF" d="M21.002,21.23v-2.678c0-0.124,0.027-0.218,0.082-0.281c0.055-0.062,0.129-0.095,0.223-0.095
			s0.168,0.031,0.227,0.094c0.057,0.062,0.086,0.157,0.086,0.282v2.678c0,0.126-0.029,0.22-0.088,0.282s-0.133,0.094-0.225,0.094
			c-0.09,0-0.164-0.032-0.221-0.098C21.029,21.444,21.002,21.352,21.002,21.23z"/>
		<path fill="#FFFFFF" d="M22.258,21.23v-2.678c0-0.124,0.027-0.218,0.082-0.281c0.055-0.062,0.129-0.095,0.223-0.095
			s0.168,0.031,0.227,0.094c0.057,0.062,0.086,0.157,0.086,0.282v2.678c0,0.126-0.029,0.22-0.088,0.282s-0.133,0.094-0.225,0.094
			c-0.09,0-0.164-0.032-0.221-0.098C22.285,21.444,22.258,21.352,22.258,21.23z"/>
		<path fill="#FFFFFF" d="M25.275,18.553v0.916c0.078-0.091,0.154-0.162,0.229-0.215c0.076-0.053,0.158-0.093,0.248-0.119
			c0.092-0.026,0.188-0.039,0.293-0.039c0.156,0,0.295,0.033,0.416,0.1s0.217,0.162,0.287,0.289
			c0.043,0.074,0.072,0.156,0.088,0.248c0.016,0.091,0.023,0.196,0.023,0.315v1.183c0,0.124-0.029,0.218-0.086,0.281
			c-0.057,0.062-0.131,0.095-0.225,0.095c-0.203,0-0.305-0.125-0.305-0.376v-1.043c0-0.197-0.031-0.349-0.09-0.455
			s-0.17-0.16-0.334-0.16c-0.109,0-0.209,0.031-0.297,0.095c-0.09,0.062-0.154,0.147-0.199,0.256
			c-0.033,0.093-0.049,0.256-0.049,0.491v0.816c0,0.122-0.027,0.216-0.082,0.279c-0.057,0.064-0.133,0.097-0.23,0.097
			c-0.203,0-0.305-0.125-0.305-0.376v-2.678c0-0.125,0.025-0.22,0.08-0.282c0.053-0.062,0.129-0.094,0.225-0.094
			c0.098,0,0.174,0.032,0.23,0.095C25.248,18.335,25.275,18.429,25.275,18.553z"/>
		<path fill="#FFFFFF" d="M29.029,21.258c-0.148,0.116-0.293,0.203-0.434,0.262c-0.139,0.058-0.295,0.087-0.469,0.087
			c-0.158,0-0.297-0.031-0.418-0.094c-0.119-0.062-0.211-0.147-0.275-0.255c-0.066-0.106-0.098-0.223-0.098-0.349
			c0-0.169,0.053-0.312,0.16-0.432s0.254-0.199,0.441-0.24c0.039-0.009,0.137-0.029,0.291-0.061c0.156-0.032,0.289-0.061,0.4-0.087
			c0.109-0.026,0.23-0.059,0.359-0.097c-0.006-0.163-0.039-0.282-0.098-0.358s-0.178-0.114-0.361-0.114
			c-0.156,0-0.273,0.022-0.354,0.065c-0.08,0.044-0.146,0.109-0.203,0.197c-0.057,0.087-0.098,0.145-0.121,0.173
			s-0.072,0.042-0.15,0.042c-0.068,0-0.129-0.022-0.18-0.066c-0.051-0.045-0.076-0.102-0.076-0.171c0-0.109,0.039-0.215,0.117-0.317
			c0.076-0.103,0.195-0.187,0.359-0.253c0.162-0.066,0.365-0.1,0.607-0.1c0.271,0,0.486,0.032,0.641,0.096
			c0.156,0.064,0.266,0.166,0.33,0.305c0.062,0.139,0.096,0.323,0.096,0.552c0,0.145,0,0.268-0.002,0.369
			c0,0.101-0.002,0.213-0.004,0.337c0,0.116,0.02,0.237,0.059,0.363s0.059,0.207,0.059,0.243c0,0.063-0.031,0.121-0.09,0.173
			c-0.061,0.052-0.127,0.078-0.203,0.078c-0.062,0-0.125-0.03-0.188-0.09S29.1,21.371,29.029,21.258z M28.988,20.364
			c-0.09,0.033-0.221,0.068-0.395,0.105c-0.172,0.037-0.291,0.064-0.357,0.081c-0.066,0.018-0.131,0.052-0.191,0.103
			c-0.059,0.05-0.09,0.12-0.09,0.211c0,0.094,0.035,0.173,0.107,0.238c0.07,0.066,0.162,0.099,0.277,0.099
			c0.123,0,0.234-0.026,0.338-0.08s0.18-0.122,0.229-0.207c0.055-0.094,0.082-0.247,0.082-0.461V20.364z"/>
		<path fill="#FFFFFF" d="M32.211,20.799c0,0.17-0.043,0.316-0.125,0.438c-0.084,0.121-0.205,0.214-0.367,0.276
			s-0.359,0.094-0.592,0.094c-0.223,0-0.412-0.034-0.57-0.102c-0.158-0.068-0.275-0.153-0.352-0.255
			c-0.074-0.102-0.111-0.204-0.111-0.307c0-0.067,0.023-0.126,0.072-0.174c0.047-0.049,0.109-0.072,0.182-0.072
			c0.066,0,0.115,0.016,0.15,0.047c0.035,0.032,0.068,0.076,0.1,0.134c0.062,0.11,0.139,0.192,0.227,0.247
			c0.088,0.054,0.209,0.081,0.361,0.081c0.123,0,0.225-0.027,0.305-0.083c0.078-0.055,0.119-0.117,0.119-0.188
			c0-0.108-0.041-0.188-0.125-0.237c-0.082-0.05-0.217-0.098-0.404-0.143c-0.213-0.053-0.387-0.108-0.52-0.167
			c-0.135-0.058-0.24-0.134-0.32-0.229c-0.08-0.095-0.121-0.212-0.121-0.351c0-0.123,0.037-0.24,0.111-0.351
			c0.074-0.109,0.184-0.197,0.328-0.264c0.143-0.065,0.316-0.098,0.521-0.098c0.158,0,0.303,0.017,0.43,0.05
			s0.234,0.077,0.318,0.133c0.086,0.056,0.15,0.118,0.195,0.186c0.045,0.068,0.066,0.135,0.066,0.199
			c0,0.071-0.023,0.129-0.07,0.174c-0.049,0.046-0.115,0.068-0.203,0.068c-0.062,0-0.117-0.019-0.162-0.055
			c-0.043-0.036-0.096-0.09-0.152-0.162c-0.047-0.061-0.102-0.109-0.164-0.146c-0.064-0.036-0.15-0.054-0.258-0.054
			c-0.113,0-0.205,0.023-0.279,0.071c-0.074,0.047-0.111,0.106-0.111,0.178c0,0.064,0.027,0.117,0.082,0.159
			c0.055,0.041,0.127,0.075,0.219,0.103s0.219,0.061,0.381,0.1c0.191,0.047,0.348,0.103,0.469,0.168
			c0.121,0.064,0.215,0.141,0.277,0.229C32.18,20.585,32.211,20.686,32.211,20.799z"/>
		<path fill="#FFFFFF" d="M34.461,18.53v0.942c0.117-0.12,0.234-0.213,0.355-0.276c0.121-0.064,0.27-0.097,0.449-0.097
			c0.205,0,0.385,0.049,0.539,0.146c0.154,0.097,0.273,0.238,0.359,0.423s0.127,0.403,0.127,0.657c0,0.187-0.023,0.358-0.07,0.515
			s-0.117,0.291-0.207,0.406c-0.09,0.114-0.201,0.203-0.33,0.266s-0.27,0.094-0.426,0.094c-0.096,0-0.184-0.012-0.268-0.034
			s-0.154-0.052-0.215-0.089c-0.059-0.037-0.107-0.075-0.15-0.114c-0.041-0.039-0.096-0.099-0.164-0.177v0.062
			c0,0.115-0.027,0.203-0.082,0.263c-0.057,0.06-0.127,0.09-0.213,0.09c-0.088,0-0.158-0.03-0.209-0.09
			c-0.053-0.06-0.078-0.147-0.078-0.263v-2.697c0-0.125,0.025-0.22,0.074-0.283c0.051-0.064,0.121-0.097,0.213-0.097
			c0.094,0,0.168,0.03,0.219,0.092C34.436,18.329,34.461,18.417,34.461,18.53z M34.49,20.364c0,0.246,0.057,0.435,0.17,0.566
			c0.111,0.133,0.26,0.198,0.441,0.198c0.156,0,0.289-0.067,0.402-0.202c0.111-0.135,0.168-0.328,0.168-0.58
			c0-0.163-0.023-0.304-0.07-0.421c-0.047-0.118-0.113-0.209-0.199-0.272c-0.086-0.064-0.186-0.097-0.301-0.097
			c-0.117,0-0.223,0.032-0.314,0.097c-0.092,0.063-0.164,0.156-0.217,0.278C34.518,20.053,34.49,20.197,34.49,20.364z"/>
		<path fill="#FFFFFF" d="M38.512,20.502h-1.209c0.002,0.141,0.029,0.265,0.086,0.371c0.055,0.107,0.127,0.188,0.219,0.242
			c0.092,0.055,0.191,0.082,0.303,0.082c0.072,0,0.141-0.009,0.201-0.026s0.121-0.045,0.178-0.081
			c0.057-0.037,0.109-0.077,0.158-0.119s0.111-0.1,0.188-0.172c0.033-0.027,0.078-0.041,0.137-0.041
			c0.062,0,0.115,0.018,0.154,0.053c0.039,0.034,0.059,0.083,0.059,0.146c0,0.056-0.021,0.121-0.066,0.195
			c-0.043,0.075-0.109,0.146-0.197,0.216c-0.088,0.068-0.199,0.125-0.332,0.17c-0.135,0.046-0.287,0.068-0.461,0.068
			c-0.396,0-0.705-0.113-0.926-0.34c-0.221-0.226-0.33-0.532-0.33-0.92c0-0.183,0.027-0.353,0.082-0.508
			c0.053-0.156,0.133-0.29,0.236-0.402c0.105-0.111,0.232-0.196,0.385-0.257c0.152-0.059,0.322-0.089,0.508-0.089
			c0.24,0,0.447,0.051,0.621,0.152c0.172,0.103,0.301,0.233,0.387,0.396c0.086,0.161,0.129,0.325,0.129,0.493
			c0,0.155-0.045,0.256-0.133,0.302C38.797,20.479,38.672,20.502,38.512,20.502z M37.303,20.151h1.119
			c-0.014-0.211-0.07-0.369-0.17-0.474s-0.229-0.157-0.391-0.157c-0.154,0-0.279,0.054-0.379,0.159
			C37.385,19.786,37.324,19.943,37.303,20.151z"/>
		<path fill="#FFFFFF" d="M41.264,20.502h-1.207c0,0.141,0.029,0.265,0.084,0.371c0.055,0.107,0.129,0.188,0.219,0.242
			c0.092,0.055,0.193,0.082,0.303,0.082c0.074,0,0.141-0.009,0.203-0.026c0.061-0.018,0.119-0.045,0.178-0.081
			c0.057-0.037,0.109-0.077,0.158-0.119c0.047-0.042,0.109-0.1,0.188-0.172c0.031-0.027,0.076-0.041,0.135-0.041
			c0.064,0,0.115,0.018,0.154,0.053c0.039,0.034,0.059,0.083,0.059,0.146c0,0.056-0.021,0.121-0.064,0.195
			c-0.045,0.075-0.111,0.146-0.199,0.216c-0.088,0.068-0.199,0.125-0.332,0.17c-0.133,0.046-0.287,0.068-0.461,0.068
			c-0.396,0-0.705-0.113-0.924-0.34c-0.221-0.226-0.332-0.532-0.332-0.92c0-0.183,0.027-0.353,0.082-0.508
			c0.055-0.156,0.135-0.29,0.238-0.402c0.104-0.111,0.232-0.196,0.385-0.257c0.152-0.059,0.32-0.089,0.506-0.089
			c0.242,0,0.449,0.051,0.621,0.152c0.172,0.103,0.303,0.233,0.389,0.396c0.086,0.161,0.129,0.325,0.129,0.493
			c0,0.155-0.045,0.256-0.135,0.302C41.551,20.479,41.426,20.502,41.264,20.502z M40.057,20.151h1.119
			c-0.016-0.211-0.072-0.369-0.17-0.474c-0.1-0.104-0.23-0.157-0.391-0.157c-0.154,0-0.281,0.054-0.379,0.159
			C40.137,19.786,40.076,19.943,40.057,20.151z"/>
		<path fill="#FFFFFF" d="M42.854,19.437v0.075c0.109-0.144,0.229-0.249,0.357-0.315c0.129-0.067,0.277-0.101,0.443-0.101
			c0.164,0,0.309,0.035,0.438,0.105c0.127,0.071,0.225,0.172,0.287,0.302c0.041,0.075,0.066,0.156,0.078,0.244
			c0.014,0.087,0.02,0.199,0.02,0.335v1.148c0,0.124-0.029,0.218-0.086,0.281c-0.057,0.062-0.129,0.095-0.221,0.095
			s-0.166-0.032-0.223-0.098c-0.059-0.064-0.086-0.157-0.086-0.278v-1.029c0-0.203-0.029-0.359-0.086-0.467
			s-0.168-0.162-0.338-0.162c-0.109,0-0.211,0.033-0.301,0.099s-0.156,0.156-0.199,0.271c-0.029,0.092-0.045,0.264-0.045,0.516
			v0.773c0,0.126-0.029,0.22-0.088,0.282c-0.057,0.062-0.133,0.094-0.225,0.094c-0.088,0-0.162-0.032-0.219-0.098
			c-0.059-0.064-0.086-0.157-0.086-0.278v-1.784c0-0.118,0.025-0.206,0.076-0.264c0.051-0.059,0.121-0.087,0.211-0.087
			c0.055,0,0.104,0.013,0.146,0.038c0.045,0.025,0.08,0.064,0.105,0.115C42.842,19.301,42.854,19.363,42.854,19.437z"/>
		<path fill="#FFFFFF" d="M4.059,24.709h0.146v-0.186c0-0.192,0.023-0.347,0.074-0.46c0.049-0.114,0.131-0.197,0.248-0.249
			s0.277-0.078,0.48-0.078c0.361,0,0.541,0.088,0.541,0.265c0,0.058-0.02,0.106-0.057,0.147c-0.037,0.04-0.082,0.061-0.133,0.061
			c-0.025,0-0.066-0.004-0.125-0.014c-0.059-0.009-0.109-0.014-0.15-0.014c-0.111,0-0.182,0.033-0.215,0.099
			c-0.031,0.065-0.047,0.16-0.047,0.282v0.146h0.152c0.234,0,0.352,0.071,0.352,0.213c0,0.101-0.031,0.165-0.094,0.192
			s-0.148,0.041-0.258,0.041H4.822v1.635c0,0.122-0.029,0.216-0.088,0.279c-0.057,0.064-0.133,0.097-0.225,0.097
			c-0.088,0-0.16-0.032-0.219-0.097c-0.057-0.063-0.086-0.157-0.086-0.279v-1.635h-0.17c-0.092,0-0.162-0.021-0.213-0.062
			c-0.049-0.042-0.074-0.096-0.074-0.162C3.748,24.783,3.852,24.709,4.059,24.709z"/>
		<path fill="#FFFFFF" d="M7.9,25.91c0,0.185-0.027,0.354-0.086,0.509c-0.057,0.156-0.141,0.289-0.248,0.4
			c-0.109,0.112-0.238,0.197-0.389,0.257c-0.152,0.06-0.32,0.09-0.51,0.09c-0.188,0-0.355-0.03-0.504-0.091
			c-0.15-0.06-0.279-0.146-0.389-0.259s-0.191-0.245-0.248-0.398c-0.057-0.152-0.086-0.322-0.086-0.508
			c0-0.187,0.029-0.357,0.086-0.514c0.059-0.155,0.141-0.288,0.248-0.397c0.105-0.11,0.236-0.195,0.389-0.255
			s0.32-0.089,0.504-0.089c0.188,0,0.357,0.03,0.51,0.09c0.152,0.061,0.281,0.146,0.391,0.258c0.109,0.112,0.191,0.245,0.248,0.398
			C7.873,25.556,7.9,25.725,7.9,25.91z M7.281,25.91c0-0.252-0.055-0.447-0.166-0.588s-0.26-0.21-0.447-0.21
			c-0.121,0-0.227,0.031-0.318,0.094s-0.164,0.154-0.213,0.276c-0.051,0.123-0.074,0.265-0.074,0.428
			c0,0.162,0.023,0.303,0.072,0.423c0.049,0.121,0.119,0.214,0.211,0.277c0.092,0.064,0.199,0.097,0.322,0.097
			c0.188,0,0.336-0.071,0.447-0.212S7.281,26.159,7.281,25.91z"/>
		<path fill="#FFFFFF" d="M9,26.274v0.516c0,0.126-0.029,0.22-0.088,0.282s-0.133,0.094-0.223,0.094s-0.162-0.032-0.221-0.095
			c-0.057-0.063-0.086-0.157-0.086-0.281v-1.719c0-0.277,0.102-0.416,0.301-0.416c0.104,0,0.178,0.032,0.223,0.097
			c0.045,0.065,0.07,0.161,0.074,0.287c0.074-0.126,0.15-0.222,0.227-0.287c0.078-0.064,0.182-0.097,0.312-0.097
			c0.129,0,0.256,0.032,0.377,0.097c0.123,0.065,0.184,0.151,0.184,0.258c0,0.076-0.025,0.138-0.078,0.187
			c-0.053,0.05-0.107,0.074-0.168,0.074c-0.023,0-0.078-0.015-0.164-0.042c-0.088-0.028-0.164-0.042-0.23-0.042
			c-0.09,0-0.164,0.023-0.221,0.071c-0.059,0.048-0.102,0.118-0.135,0.212c-0.031,0.093-0.053,0.204-0.064,0.333S9,26.089,9,26.274z
			"/>
		<path fill="#FFFFFF" d="M10.801,25.039l0.404,1.38l0.365-1.282c0.039-0.134,0.068-0.226,0.088-0.274
			c0.02-0.05,0.055-0.096,0.105-0.141c0.053-0.045,0.123-0.066,0.215-0.066s0.164,0.021,0.215,0.066
			c0.053,0.045,0.09,0.093,0.111,0.145c0.02,0.052,0.049,0.143,0.088,0.271l0.365,1.282l0.408-1.38
			c0.027-0.099,0.049-0.171,0.064-0.216c0.018-0.044,0.045-0.084,0.084-0.117c0.039-0.034,0.096-0.051,0.17-0.051
			s0.139,0.025,0.193,0.076c0.053,0.052,0.08,0.112,0.08,0.182c0,0.063-0.023,0.159-0.07,0.287l-0.504,1.479
			c-0.043,0.125-0.078,0.216-0.102,0.271s-0.062,0.105-0.115,0.149c-0.051,0.044-0.123,0.065-0.213,0.065
			c-0.094,0-0.168-0.023-0.221-0.07s-0.094-0.104-0.119-0.172c-0.025-0.067-0.053-0.156-0.084-0.265l-0.352-1.203l-0.342,1.203
			c-0.045,0.167-0.094,0.294-0.146,0.379s-0.146,0.128-0.279,0.128c-0.068,0-0.125-0.014-0.174-0.04
			c-0.047-0.026-0.086-0.063-0.117-0.112c-0.033-0.05-0.061-0.107-0.084-0.175c-0.025-0.067-0.043-0.12-0.057-0.159l-0.5-1.479
			c-0.051-0.139-0.074-0.234-0.074-0.287c0-0.066,0.025-0.126,0.078-0.179s0.117-0.079,0.195-0.079c0.102,0,0.172,0.028,0.207,0.087
			C10.723,24.8,10.762,24.899,10.801,25.039z"/>
		<path fill="#FFFFFF" d="M15.684,26.817c-0.15,0.116-0.295,0.203-0.434,0.262c-0.139,0.058-0.297,0.087-0.469,0.087
			c-0.158,0-0.299-0.031-0.418-0.094s-0.213-0.147-0.277-0.255c-0.064-0.106-0.098-0.223-0.098-0.349
			c0-0.169,0.055-0.312,0.16-0.432c0.107-0.119,0.256-0.199,0.441-0.24c0.039-0.009,0.137-0.029,0.293-0.061
			c0.154-0.032,0.287-0.061,0.398-0.087s0.23-0.059,0.361-0.097c-0.008-0.163-0.041-0.282-0.098-0.358
			c-0.059-0.076-0.18-0.114-0.361-0.114c-0.158,0-0.275,0.022-0.354,0.065c-0.08,0.044-0.148,0.109-0.205,0.197
			c-0.057,0.087-0.096,0.145-0.119,0.173s-0.074,0.042-0.15,0.042c-0.07,0-0.129-0.022-0.18-0.066
			C14.125,25.446,14.1,25.39,14.1,25.32c0-0.109,0.039-0.215,0.115-0.317s0.197-0.187,0.359-0.253c0.164-0.066,0.365-0.1,0.609-0.1
			c0.271,0,0.484,0.032,0.641,0.096c0.154,0.064,0.264,0.166,0.328,0.305s0.096,0.323,0.096,0.552c0,0.145,0,0.268,0,0.369
			c-0.002,0.101-0.002,0.213-0.004,0.337c0,0.116,0.02,0.237,0.059,0.363c0.037,0.126,0.057,0.207,0.057,0.243
			c0,0.063-0.029,0.121-0.09,0.173c-0.059,0.052-0.127,0.078-0.201,0.078c-0.064,0-0.127-0.03-0.188-0.09
			C15.818,27.017,15.752,26.931,15.684,26.817z M15.643,25.924c-0.09,0.033-0.223,0.068-0.395,0.105
			c-0.174,0.037-0.293,0.064-0.359,0.081c-0.066,0.018-0.129,0.052-0.189,0.103c-0.061,0.05-0.09,0.12-0.09,0.211
			c0,0.094,0.035,0.173,0.105,0.238c0.07,0.066,0.164,0.099,0.277,0.099c0.123,0,0.236-0.026,0.34-0.08s0.178-0.122,0.227-0.207
			c0.057-0.094,0.084-0.247,0.084-0.461V25.924z"/>
		<path fill="#FFFFFF" d="M17.488,26.274v0.516c0,0.126-0.029,0.22-0.088,0.282s-0.135,0.094-0.225,0.094
			c-0.088,0-0.162-0.032-0.219-0.095c-0.059-0.063-0.086-0.157-0.086-0.281v-1.719c0-0.277,0.1-0.416,0.301-0.416
			c0.102,0,0.176,0.032,0.221,0.097c0.045,0.065,0.07,0.161,0.076,0.287c0.072-0.126,0.148-0.222,0.227-0.287
			c0.078-0.064,0.182-0.097,0.311-0.097c0.131,0,0.256,0.032,0.379,0.097c0.121,0.065,0.182,0.151,0.182,0.258
			c0,0.076-0.025,0.138-0.078,0.187c-0.051,0.05-0.107,0.074-0.168,0.074c-0.021,0-0.076-0.015-0.164-0.042
			c-0.086-0.028-0.162-0.042-0.229-0.042c-0.092,0-0.166,0.023-0.223,0.071s-0.102,0.118-0.133,0.212
			c-0.031,0.093-0.055,0.204-0.066,0.333S17.488,26.089,17.488,26.274z"/>
		<path fill="#FFFFFF" d="M20.477,26.813v-0.062c-0.084,0.095-0.164,0.172-0.246,0.231c-0.08,0.06-0.168,0.105-0.262,0.136
			c-0.094,0.031-0.197,0.047-0.309,0.047c-0.148,0-0.285-0.031-0.41-0.094c-0.127-0.062-0.236-0.152-0.328-0.269
			s-0.162-0.252-0.209-0.409s-0.07-0.326-0.07-0.509c0-0.387,0.094-0.688,0.281-0.902c0.189-0.216,0.438-0.324,0.744-0.324
			c0.18,0,0.328,0.031,0.451,0.092c0.121,0.062,0.24,0.155,0.357,0.281v-0.911c0-0.127,0.025-0.223,0.076-0.287
			c0.051-0.065,0.121-0.098,0.215-0.098s0.166,0.03,0.217,0.09s0.076,0.147,0.076,0.264v2.724c0,0.117-0.027,0.205-0.082,0.265
			c-0.055,0.059-0.125,0.088-0.211,0.088c-0.084,0-0.154-0.03-0.209-0.092C20.504,27.014,20.477,26.926,20.477,26.813z
			 M19.262,25.906c0,0.167,0.025,0.31,0.078,0.427c0.053,0.118,0.123,0.207,0.213,0.267c0.092,0.06,0.189,0.089,0.297,0.089
			c0.109,0,0.207-0.028,0.297-0.085s0.162-0.143,0.215-0.26c0.055-0.117,0.082-0.263,0.082-0.438c0-0.165-0.027-0.306-0.082-0.425
			c-0.053-0.118-0.125-0.209-0.217-0.271c-0.09-0.062-0.191-0.094-0.299-0.094c-0.113,0-0.215,0.032-0.303,0.097
			c-0.09,0.063-0.158,0.155-0.207,0.275C19.285,25.608,19.262,25.747,19.262,25.906z"/>
		<path fill="#FFFFFF" d="M23.404,26.062h-1.209c0.002,0.141,0.029,0.265,0.086,0.371c0.055,0.107,0.127,0.188,0.219,0.242
			c0.092,0.055,0.191,0.082,0.303,0.082c0.072,0,0.141-0.009,0.201-0.026s0.121-0.045,0.178-0.081
			c0.057-0.037,0.109-0.077,0.158-0.119s0.111-0.1,0.188-0.172c0.033-0.027,0.078-0.041,0.137-0.041
			c0.062,0,0.115,0.018,0.154,0.053c0.039,0.034,0.059,0.083,0.059,0.146c0,0.056-0.021,0.121-0.066,0.195
			c-0.043,0.075-0.109,0.146-0.197,0.216c-0.088,0.068-0.199,0.125-0.332,0.17c-0.135,0.046-0.287,0.068-0.461,0.068
			c-0.396,0-0.705-0.113-0.926-0.34c-0.221-0.226-0.33-0.532-0.33-0.92c0-0.183,0.027-0.353,0.082-0.508
			c0.053-0.156,0.133-0.29,0.236-0.402c0.105-0.111,0.232-0.196,0.385-0.257c0.152-0.059,0.322-0.089,0.508-0.089
			c0.24,0,0.447,0.051,0.621,0.152c0.172,0.103,0.301,0.233,0.387,0.396c0.086,0.161,0.129,0.325,0.129,0.493
			c0,0.155-0.045,0.256-0.133,0.302C23.689,26.039,23.564,26.062,23.404,26.062z M22.195,25.711h1.119
			c-0.014-0.211-0.07-0.369-0.17-0.474s-0.229-0.157-0.391-0.157c-0.154,0-0.279,0.054-0.379,0.159
			C22.277,25.346,22.217,25.503,22.195,25.711z"/>
		<path fill="#FFFFFF" d="M26.125,26.813v-0.062c-0.084,0.095-0.164,0.172-0.246,0.231c-0.08,0.06-0.168,0.105-0.262,0.136
			c-0.094,0.031-0.197,0.047-0.309,0.047c-0.148,0-0.285-0.031-0.41-0.094c-0.127-0.062-0.236-0.152-0.328-0.269
			s-0.162-0.252-0.209-0.409s-0.07-0.326-0.07-0.509c0-0.387,0.094-0.688,0.281-0.902c0.189-0.216,0.438-0.324,0.744-0.324
			c0.18,0,0.328,0.031,0.451,0.092c0.121,0.062,0.24,0.155,0.357,0.281v-0.911c0-0.127,0.025-0.223,0.076-0.287
			c0.051-0.065,0.121-0.098,0.215-0.098s0.166,0.03,0.217,0.09s0.076,0.147,0.076,0.264v2.724c0,0.117-0.027,0.205-0.082,0.265
			c-0.055,0.059-0.125,0.088-0.211,0.088c-0.084,0-0.154-0.03-0.209-0.092C26.152,27.014,26.125,26.926,26.125,26.813z
			 M24.91,25.906c0,0.167,0.025,0.31,0.078,0.427c0.053,0.118,0.123,0.207,0.213,0.267c0.092,0.06,0.189,0.089,0.297,0.089
			c0.109,0,0.207-0.028,0.297-0.085s0.162-0.143,0.215-0.26c0.055-0.117,0.082-0.263,0.082-0.438c0-0.165-0.027-0.306-0.082-0.425
			c-0.053-0.118-0.125-0.209-0.217-0.271c-0.09-0.062-0.191-0.094-0.299-0.094c-0.113,0-0.215,0.032-0.303,0.097
			c-0.09,0.063-0.158,0.155-0.207,0.275C24.934,25.608,24.91,25.747,24.91,25.906z"/>
		<path fill="#FFFFFF" d="M28.521,24.709h0.068v-0.371c0-0.1,0.002-0.178,0.008-0.233c0.004-0.057,0.02-0.105,0.043-0.146
			c0.025-0.042,0.059-0.076,0.105-0.103c0.045-0.026,0.096-0.04,0.15-0.04c0.078,0,0.15,0.029,0.213,0.089
			c0.043,0.039,0.068,0.087,0.08,0.144s0.018,0.137,0.018,0.24v0.421h0.227c0.086,0,0.154,0.021,0.199,0.062
			c0.047,0.041,0.07,0.095,0.07,0.159c0,0.083-0.033,0.142-0.1,0.175c-0.064,0.033-0.16,0.05-0.281,0.05h-0.115v1.135
			c0,0.097,0.004,0.171,0.01,0.224c0.008,0.052,0.025,0.094,0.055,0.126c0.029,0.033,0.076,0.049,0.143,0.049
			c0.037,0,0.086-0.006,0.148-0.02c0.061-0.013,0.109-0.019,0.145-0.019c0.049,0,0.094,0.02,0.135,0.06
			c0.039,0.04,0.059,0.09,0.059,0.148c0,0.1-0.053,0.176-0.162,0.229s-0.264,0.079-0.469,0.079c-0.193,0-0.338-0.032-0.438-0.098
			c-0.1-0.064-0.166-0.154-0.197-0.269c-0.029-0.115-0.045-0.268-0.045-0.46v-1.185h-0.082c-0.09,0-0.156-0.021-0.203-0.063
			c-0.047-0.043-0.07-0.096-0.07-0.161c0-0.064,0.023-0.118,0.072-0.159C28.357,24.729,28.428,24.709,28.521,24.709z"/>
		<path fill="#FFFFFF" d="M32.439,25.91c0,0.185-0.029,0.354-0.086,0.509c-0.059,0.156-0.141,0.289-0.25,0.4
			c-0.107,0.112-0.238,0.197-0.389,0.257s-0.32,0.09-0.508,0.09s-0.355-0.03-0.506-0.091c-0.148-0.06-0.277-0.146-0.387-0.259
			s-0.193-0.245-0.25-0.398c-0.057-0.152-0.084-0.322-0.084-0.508c0-0.187,0.027-0.357,0.086-0.514
			c0.057-0.155,0.139-0.288,0.246-0.397c0.107-0.11,0.236-0.195,0.389-0.255s0.32-0.089,0.506-0.089s0.355,0.03,0.508,0.09
			c0.152,0.061,0.283,0.146,0.393,0.258c0.107,0.112,0.189,0.245,0.246,0.398C32.41,25.556,32.439,25.725,32.439,25.91z
			 M31.818,25.91c0-0.252-0.055-0.447-0.166-0.588c-0.109-0.141-0.26-0.21-0.445-0.21c-0.121,0-0.229,0.031-0.32,0.094
			s-0.162,0.154-0.213,0.276c-0.049,0.123-0.074,0.265-0.074,0.428c0,0.162,0.025,0.303,0.074,0.423
			c0.049,0.121,0.119,0.214,0.209,0.277c0.092,0.064,0.199,0.097,0.324,0.097c0.186,0,0.336-0.071,0.445-0.212
			C31.764,26.354,31.818,26.159,31.818,25.91z"/>
		<path fill="#FFFFFF" d="M34.117,24.709h0.068v-0.371c0-0.1,0.004-0.178,0.008-0.233c0.006-0.057,0.02-0.105,0.045-0.146
			c0.023-0.042,0.059-0.076,0.104-0.103s0.096-0.04,0.152-0.04c0.078,0,0.148,0.029,0.213,0.089c0.041,0.039,0.068,0.087,0.08,0.144
			c0.01,0.057,0.016,0.137,0.016,0.24v0.421h0.227c0.088,0,0.154,0.021,0.201,0.062c0.045,0.041,0.068,0.095,0.068,0.159
			c0,0.083-0.033,0.142-0.098,0.175c-0.066,0.033-0.16,0.05-0.283,0.05h-0.115v1.135c0,0.097,0.004,0.171,0.012,0.224
			c0.006,0.052,0.023,0.094,0.053,0.126c0.029,0.033,0.078,0.049,0.145,0.049c0.035,0,0.086-0.006,0.146-0.02
			c0.062-0.013,0.111-0.019,0.145-0.019c0.051,0,0.096,0.02,0.135,0.06c0.041,0.04,0.061,0.09,0.061,0.148
			c0,0.1-0.055,0.176-0.162,0.229c-0.109,0.053-0.266,0.079-0.469,0.079c-0.193,0-0.34-0.032-0.439-0.098
			c-0.1-0.064-0.164-0.154-0.195-0.269c-0.031-0.115-0.047-0.268-0.047-0.46v-1.185h-0.082c-0.088,0-0.156-0.021-0.203-0.063
			c-0.047-0.043-0.07-0.096-0.07-0.161c0-0.064,0.025-0.118,0.074-0.159C33.953,24.729,34.025,24.709,34.117,24.709z"/>
		<path fill="#FFFFFF" d="M36.328,24.112v0.916c0.078-0.091,0.154-0.162,0.229-0.215c0.076-0.053,0.158-0.093,0.248-0.119
			c0.092-0.026,0.188-0.039,0.293-0.039c0.156,0,0.295,0.033,0.416,0.1s0.217,0.162,0.287,0.289
			c0.043,0.074,0.072,0.156,0.088,0.248c0.016,0.091,0.023,0.196,0.023,0.315v1.183c0,0.124-0.029,0.218-0.086,0.281
			c-0.057,0.062-0.131,0.095-0.225,0.095c-0.203,0-0.305-0.125-0.305-0.376v-1.043c0-0.197-0.031-0.349-0.09-0.455
			s-0.17-0.16-0.334-0.16c-0.109,0-0.209,0.031-0.297,0.095c-0.09,0.062-0.154,0.147-0.199,0.256
			c-0.033,0.093-0.049,0.256-0.049,0.491v0.816c0,0.122-0.027,0.216-0.082,0.279c-0.057,0.064-0.133,0.097-0.23,0.097
			c-0.203,0-0.305-0.125-0.305-0.376v-2.678c0-0.125,0.025-0.22,0.08-0.282c0.053-0.062,0.129-0.094,0.225-0.094
			c0.098,0,0.174,0.032,0.23,0.095C36.301,23.895,36.328,23.988,36.328,24.112z"/>
		<path fill="#FFFFFF" d="M40.246,26.062h-1.209c0.002,0.141,0.029,0.265,0.086,0.371c0.055,0.107,0.127,0.188,0.219,0.242
			c0.092,0.055,0.191,0.082,0.303,0.082c0.072,0,0.141-0.009,0.201-0.026s0.121-0.045,0.178-0.081
			c0.057-0.037,0.109-0.077,0.158-0.119s0.111-0.1,0.188-0.172c0.033-0.027,0.078-0.041,0.137-0.041
			c0.062,0,0.115,0.018,0.154,0.053c0.039,0.034,0.059,0.083,0.059,0.146c0,0.056-0.021,0.121-0.066,0.195
			c-0.043,0.075-0.109,0.146-0.197,0.216c-0.088,0.068-0.199,0.125-0.332,0.17c-0.135,0.046-0.287,0.068-0.461,0.068
			c-0.396,0-0.705-0.113-0.926-0.34c-0.221-0.226-0.33-0.532-0.33-0.92c0-0.183,0.027-0.353,0.082-0.508
			c0.053-0.156,0.133-0.29,0.236-0.402c0.105-0.111,0.232-0.196,0.385-0.257c0.152-0.059,0.322-0.089,0.508-0.089
			c0.24,0,0.447,0.051,0.621,0.152c0.172,0.103,0.301,0.233,0.387,0.396c0.086,0.161,0.129,0.325,0.129,0.493
			c0,0.155-0.045,0.256-0.133,0.302C40.531,26.039,40.406,26.062,40.246,26.062z M39.037,25.711h1.119
			c-0.014-0.211-0.07-0.369-0.17-0.474s-0.229-0.157-0.391-0.157c-0.154,0-0.279,0.054-0.379,0.159
			C39.119,25.346,39.059,25.503,39.037,25.711z"/>
		<path fill="#FFFFFF" d="M42.871,25.039l0.5,1.403l0.537-1.464c0.043-0.118,0.084-0.201,0.125-0.25s0.102-0.073,0.186-0.073
			c0.078,0,0.145,0.026,0.199,0.079c0.057,0.053,0.084,0.113,0.084,0.183c0,0.027-0.006,0.06-0.016,0.096s-0.021,0.069-0.033,0.102
			c-0.014,0.031-0.027,0.067-0.045,0.108l-0.592,1.471c-0.018,0.042-0.039,0.096-0.064,0.16c-0.027,0.065-0.057,0.12-0.088,0.166
			c-0.033,0.047-0.074,0.082-0.121,0.108c-0.047,0.025-0.105,0.038-0.172,0.038c-0.088,0-0.158-0.021-0.211-0.06
			c-0.051-0.04-0.09-0.084-0.115-0.132c-0.023-0.047-0.066-0.142-0.125-0.281l-0.588-1.455c-0.014-0.036-0.027-0.072-0.041-0.108
			c-0.016-0.036-0.027-0.073-0.037-0.11c-0.01-0.038-0.016-0.07-0.016-0.098c0-0.042,0.014-0.084,0.039-0.126
			c0.025-0.041,0.061-0.075,0.107-0.102c0.045-0.026,0.094-0.039,0.146-0.039c0.102,0,0.172,0.029,0.211,0.088
			S42.824,24.9,42.871,25.039z"/>
		<path fill="#FFFFFF" d="M47.195,25.91c0,0.185-0.029,0.354-0.086,0.509c-0.059,0.156-0.141,0.289-0.25,0.4
			c-0.107,0.112-0.238,0.197-0.389,0.257s-0.32,0.09-0.508,0.09s-0.355-0.03-0.506-0.091c-0.148-0.06-0.277-0.146-0.387-0.259
			s-0.193-0.245-0.25-0.398c-0.057-0.152-0.084-0.322-0.084-0.508c0-0.187,0.027-0.357,0.086-0.514
			c0.057-0.155,0.139-0.288,0.246-0.397c0.107-0.11,0.236-0.195,0.389-0.255s0.32-0.089,0.506-0.089s0.355,0.03,0.508,0.09
			c0.152,0.061,0.283,0.146,0.393,0.258c0.107,0.112,0.189,0.245,0.246,0.398C47.166,25.556,47.195,25.725,47.195,25.91z
			 M46.574,25.91c0-0.252-0.055-0.447-0.166-0.588c-0.109-0.141-0.26-0.21-0.445-0.21c-0.121,0-0.229,0.031-0.32,0.094
			s-0.162,0.154-0.213,0.276c-0.049,0.123-0.074,0.265-0.074,0.428c0,0.162,0.025,0.303,0.074,0.423
			c0.049,0.121,0.119,0.214,0.209,0.277c0.092,0.064,0.199,0.097,0.324,0.097c0.186,0,0.336-0.071,0.445-0.212
			C46.52,26.354,46.574,26.159,46.574,25.91z"/>
		<path fill="#FFFFFF" d="M47.994,24.367c-0.086,0-0.16-0.026-0.221-0.079s-0.092-0.127-0.092-0.224
			c0-0.088,0.031-0.159,0.094-0.216s0.135-0.085,0.219-0.085c0.08,0,0.15,0.025,0.213,0.077c0.061,0.051,0.092,0.126,0.092,0.224
			c0,0.095-0.029,0.169-0.09,0.223S48.076,24.367,47.994,24.367z M48.299,25.006v1.784c0,0.124-0.029,0.218-0.088,0.281
			c-0.059,0.062-0.133,0.095-0.225,0.095c-0.09,0-0.164-0.032-0.221-0.098c-0.055-0.064-0.084-0.157-0.084-0.278v-1.767
			c0-0.122,0.029-0.214,0.084-0.275c0.057-0.062,0.131-0.093,0.221-0.093c0.092,0,0.166,0.03,0.225,0.093
			C48.27,24.81,48.299,24.896,48.299,25.006z"/>
		<path fill="#FFFFFF" d="M51.15,26.401c0,0.077-0.021,0.159-0.068,0.246c-0.045,0.088-0.115,0.171-0.211,0.25
			c-0.094,0.079-0.213,0.144-0.355,0.191c-0.143,0.049-0.305,0.072-0.484,0.072c-0.381,0-0.68-0.111-0.893-0.333
			c-0.215-0.223-0.322-0.521-0.322-0.896c0-0.253,0.049-0.477,0.146-0.672c0.1-0.194,0.24-0.345,0.426-0.451
			s0.408-0.159,0.666-0.159c0.16,0,0.307,0.023,0.439,0.07s0.246,0.106,0.34,0.181c0.092,0.074,0.164,0.152,0.213,0.236
			s0.072,0.162,0.072,0.234c0,0.074-0.027,0.137-0.082,0.188c-0.055,0.052-0.121,0.077-0.201,0.077c-0.051,0-0.094-0.014-0.127-0.04
			s-0.072-0.068-0.113-0.127c-0.076-0.115-0.154-0.201-0.236-0.259c-0.084-0.057-0.188-0.086-0.314-0.086
			c-0.182,0-0.33,0.071-0.441,0.214s-0.166,0.338-0.166,0.585c0,0.116,0.014,0.223,0.043,0.32c0.027,0.098,0.068,0.181,0.123,0.249
			s0.121,0.12,0.197,0.156c0.076,0.035,0.162,0.053,0.254,0.053c0.123,0,0.229-0.028,0.316-0.086
			c0.09-0.058,0.168-0.145,0.234-0.263c0.039-0.069,0.078-0.123,0.123-0.162c0.043-0.04,0.098-0.06,0.16-0.06
			c0.076,0,0.139,0.029,0.188,0.086C51.127,26.275,51.15,26.337,51.15,26.401z"/>
		<path fill="#FFFFFF" d="M53.414,26.062h-1.207c0,0.141,0.029,0.265,0.084,0.371c0.055,0.107,0.129,0.188,0.219,0.242
			c0.092,0.055,0.193,0.082,0.303,0.082c0.074,0,0.141-0.009,0.203-0.026c0.061-0.018,0.119-0.045,0.178-0.081
			c0.057-0.037,0.109-0.077,0.158-0.119c0.047-0.042,0.109-0.1,0.188-0.172c0.031-0.027,0.076-0.041,0.135-0.041
			c0.064,0,0.115,0.018,0.154,0.053c0.039,0.034,0.059,0.083,0.059,0.146c0,0.056-0.021,0.121-0.064,0.195
			c-0.045,0.075-0.111,0.146-0.199,0.216c-0.088,0.068-0.199,0.125-0.332,0.17c-0.133,0.046-0.287,0.068-0.461,0.068
			c-0.396,0-0.705-0.113-0.924-0.34c-0.221-0.226-0.332-0.532-0.332-0.92c0-0.183,0.027-0.353,0.082-0.508
			c0.055-0.156,0.135-0.29,0.238-0.402c0.104-0.111,0.232-0.196,0.385-0.257c0.152-0.059,0.32-0.089,0.506-0.089
			c0.242,0,0.449,0.051,0.621,0.152c0.172,0.103,0.303,0.233,0.389,0.396c0.086,0.161,0.129,0.325,0.129,0.493
			c0,0.155-0.045,0.256-0.135,0.302C53.701,26.039,53.576,26.062,53.414,26.062z M52.207,25.711h1.119
			c-0.016-0.211-0.072-0.369-0.17-0.474c-0.1-0.104-0.23-0.157-0.391-0.157c-0.154,0-0.281,0.054-0.379,0.159
			C52.287,25.346,52.227,25.503,52.207,25.711z"/>
		<path fill="#FFFFFF" d="M56.498,25.956v0.82c0,0.13-0.029,0.228-0.088,0.292c-0.061,0.065-0.137,0.098-0.234,0.098
			c-0.094,0-0.168-0.032-0.227-0.098c-0.059-0.064-0.088-0.162-0.088-0.292v-0.983c0-0.155-0.004-0.276-0.016-0.362
			c-0.01-0.086-0.039-0.156-0.086-0.211c-0.047-0.056-0.121-0.083-0.221-0.083c-0.203,0-0.336,0.069-0.4,0.208
			s-0.096,0.338-0.096,0.598v0.834c0,0.129-0.029,0.226-0.088,0.291c-0.057,0.065-0.135,0.099-0.229,0.099s-0.17-0.033-0.23-0.099
			c-0.059-0.065-0.088-0.162-0.088-0.291V25.01c0-0.116,0.025-0.204,0.08-0.265c0.053-0.06,0.123-0.09,0.211-0.09
			c0.084,0,0.154,0.028,0.211,0.084c0.057,0.057,0.086,0.135,0.086,0.234v0.059c0.105-0.128,0.221-0.222,0.344-0.282
			c0.121-0.061,0.258-0.091,0.406-0.091c0.156,0,0.289,0.031,0.4,0.093c0.111,0.062,0.203,0.155,0.277,0.28
			c0.104-0.126,0.215-0.22,0.334-0.281c0.119-0.061,0.252-0.092,0.396-0.092c0.168,0,0.314,0.033,0.436,0.1
			c0.123,0.066,0.213,0.161,0.273,0.285c0.053,0.111,0.08,0.287,0.08,0.527v1.205c0,0.13-0.029,0.228-0.088,0.292
			c-0.059,0.065-0.137,0.098-0.234,0.098c-0.094,0-0.17-0.033-0.229-0.099c-0.061-0.065-0.09-0.162-0.09-0.291v-1.038
			c0-0.133-0.006-0.239-0.018-0.318c-0.01-0.08-0.041-0.147-0.092-0.202c-0.049-0.054-0.125-0.081-0.225-0.081
			c-0.082,0-0.16,0.024-0.232,0.072c-0.074,0.049-0.131,0.113-0.172,0.194C56.52,25.508,56.498,25.691,56.498,25.956z"/>
		<path fill="#FFFFFF" d="M60.104,26.817c-0.15,0.116-0.295,0.203-0.434,0.262c-0.139,0.058-0.297,0.087-0.469,0.087
			c-0.158,0-0.299-0.031-0.418-0.094s-0.213-0.147-0.277-0.255c-0.064-0.106-0.098-0.223-0.098-0.349
			c0-0.169,0.055-0.312,0.16-0.432c0.107-0.119,0.256-0.199,0.441-0.24c0.039-0.009,0.137-0.029,0.293-0.061
			c0.154-0.032,0.287-0.061,0.398-0.087s0.23-0.059,0.361-0.097c-0.008-0.163-0.041-0.282-0.098-0.358
			c-0.059-0.076-0.18-0.114-0.361-0.114c-0.158,0-0.275,0.022-0.354,0.065c-0.08,0.044-0.148,0.109-0.205,0.197
			c-0.057,0.087-0.096,0.145-0.119,0.173s-0.074,0.042-0.15,0.042c-0.07,0-0.129-0.022-0.18-0.066
			c-0.051-0.045-0.076-0.102-0.076-0.171c0-0.109,0.039-0.215,0.115-0.317s0.197-0.187,0.359-0.253c0.164-0.066,0.365-0.1,0.609-0.1
			c0.271,0,0.484,0.032,0.641,0.096c0.154,0.064,0.264,0.166,0.328,0.305s0.096,0.323,0.096,0.552c0,0.145,0,0.268,0,0.369
			c-0.002,0.101-0.002,0.213-0.004,0.337c0,0.116,0.02,0.237,0.059,0.363c0.037,0.126,0.057,0.207,0.057,0.243
			c0,0.063-0.029,0.121-0.09,0.173c-0.059,0.052-0.127,0.078-0.201,0.078c-0.064,0-0.127-0.03-0.188-0.09
			C60.238,27.017,60.172,26.931,60.104,26.817z M60.062,25.924c-0.09,0.033-0.223,0.068-0.395,0.105
			c-0.174,0.037-0.293,0.064-0.359,0.081c-0.066,0.018-0.129,0.052-0.189,0.103c-0.061,0.05-0.09,0.12-0.09,0.211
			c0,0.094,0.035,0.173,0.105,0.238c0.07,0.066,0.164,0.099,0.277,0.099c0.123,0,0.236-0.026,0.34-0.08s0.178-0.122,0.227-0.207
			c0.057-0.094,0.084-0.247,0.084-0.461V25.924z"/>
		<path fill="#FFFFFF" d="M61.607,24.367c-0.086,0-0.16-0.026-0.221-0.079s-0.092-0.127-0.092-0.224
			c0-0.088,0.031-0.159,0.094-0.216s0.135-0.085,0.219-0.085c0.08,0,0.15,0.025,0.213,0.077c0.061,0.051,0.092,0.126,0.092,0.224
			c0,0.095-0.029,0.169-0.09,0.223S61.689,24.367,61.607,24.367z M61.912,25.006v1.784c0,0.124-0.029,0.218-0.088,0.281
			c-0.059,0.062-0.133,0.095-0.225,0.095c-0.09,0-0.164-0.032-0.221-0.098c-0.055-0.064-0.084-0.157-0.084-0.278v-1.767
			c0-0.122,0.029-0.214,0.084-0.275c0.057-0.062,0.131-0.093,0.221-0.093c0.092,0,0.166,0.03,0.225,0.093
			C61.883,24.81,61.912,24.896,61.912,25.006z"/>
		<path fill="#FFFFFF" d="M62.551,26.79v-2.678c0-0.124,0.027-0.218,0.082-0.281c0.057-0.062,0.131-0.095,0.223-0.095
			c0.094,0,0.17,0.031,0.227,0.094c0.059,0.062,0.086,0.157,0.086,0.282v2.678c0,0.126-0.029,0.22-0.086,0.282
			c-0.059,0.062-0.133,0.094-0.227,0.094c-0.09,0-0.164-0.032-0.221-0.098C62.58,27.004,62.551,26.911,62.551,26.79z"/>
		<path fill="#FFFFFF" d="M4.059,30.269h0.146v-0.186c0-0.192,0.023-0.347,0.074-0.46c0.049-0.114,0.131-0.197,0.248-0.249
			s0.277-0.078,0.48-0.078c0.361,0,0.541,0.088,0.541,0.265c0,0.058-0.02,0.106-0.057,0.147c-0.037,0.04-0.082,0.061-0.133,0.061
			c-0.025,0-0.066-0.004-0.125-0.014c-0.059-0.009-0.109-0.014-0.15-0.014c-0.111,0-0.182,0.033-0.215,0.099
			C4.838,29.905,4.822,30,4.822,30.122v0.146h0.152c0.234,0,0.352,0.071,0.352,0.213c0,0.101-0.031,0.165-0.094,0.192
			s-0.148,0.041-0.258,0.041H4.822v1.635c0,0.122-0.029,0.216-0.088,0.279c-0.057,0.064-0.133,0.097-0.225,0.097
			c-0.088,0-0.16-0.032-0.219-0.097c-0.057-0.063-0.086-0.157-0.086-0.279v-1.635h-0.17c-0.092,0-0.162-0.021-0.213-0.062
			c-0.049-0.042-0.074-0.096-0.074-0.162C3.748,30.343,3.852,30.269,4.059,30.269z"/>
		<path fill="#FFFFFF" d="M7.9,31.47c0,0.185-0.027,0.354-0.086,0.509c-0.057,0.156-0.141,0.289-0.248,0.4
			c-0.109,0.112-0.238,0.197-0.389,0.257c-0.152,0.06-0.32,0.09-0.51,0.09c-0.188,0-0.355-0.03-0.504-0.091
			c-0.15-0.06-0.279-0.146-0.389-0.259s-0.191-0.245-0.248-0.398c-0.057-0.152-0.086-0.322-0.086-0.508
			c0-0.187,0.029-0.357,0.086-0.514c0.059-0.155,0.141-0.288,0.248-0.397c0.105-0.11,0.236-0.195,0.389-0.255
			s0.32-0.089,0.504-0.089c0.188,0,0.357,0.03,0.51,0.09c0.152,0.061,0.281,0.146,0.391,0.258c0.109,0.112,0.191,0.245,0.248,0.398
			C7.873,31.115,7.9,31.284,7.9,31.47z M7.281,31.47c0-0.252-0.055-0.447-0.166-0.588s-0.26-0.21-0.447-0.21
			c-0.121,0-0.227,0.031-0.318,0.094s-0.164,0.154-0.213,0.276c-0.051,0.123-0.074,0.265-0.074,0.428
			c0,0.162,0.023,0.303,0.072,0.423c0.049,0.121,0.119,0.214,0.211,0.277c0.092,0.064,0.199,0.097,0.322,0.097
			c0.188,0,0.336-0.071,0.447-0.212S7.281,31.719,7.281,31.47z"/>
		<path fill="#FFFFFF" d="M9,31.834v0.516c0,0.126-0.029,0.22-0.088,0.282s-0.133,0.094-0.223,0.094s-0.162-0.032-0.221-0.095
			c-0.057-0.063-0.086-0.157-0.086-0.281v-1.719c0-0.277,0.102-0.416,0.301-0.416c0.104,0,0.178,0.032,0.223,0.097
			c0.045,0.065,0.07,0.161,0.074,0.287c0.074-0.126,0.15-0.222,0.227-0.287c0.078-0.064,0.182-0.097,0.312-0.097
			c0.129,0,0.256,0.032,0.377,0.097c0.123,0.065,0.184,0.151,0.184,0.258c0,0.076-0.025,0.138-0.078,0.187
			c-0.053,0.05-0.107,0.074-0.168,0.074c-0.023,0-0.078-0.015-0.164-0.042c-0.088-0.028-0.164-0.042-0.23-0.042
			c-0.09,0-0.164,0.023-0.221,0.071c-0.059,0.048-0.102,0.118-0.135,0.212c-0.031,0.093-0.053,0.204-0.064,0.333S9,31.648,9,31.834z
			"/>
		<path fill="#FFFFFF" d="M12.109,29.737l0.75,2.224l0.754-2.239c0.039-0.118,0.068-0.2,0.088-0.246s0.053-0.087,0.098-0.124
			s0.107-0.056,0.186-0.056c0.057,0,0.111,0.015,0.16,0.043c0.049,0.029,0.088,0.066,0.115,0.114s0.041,0.096,0.041,0.144
			c0,0.033-0.004,0.069-0.014,0.107c-0.008,0.039-0.02,0.076-0.033,0.113s-0.027,0.075-0.041,0.114l-0.803,2.167
			c-0.029,0.083-0.057,0.162-0.086,0.236c-0.029,0.075-0.062,0.141-0.1,0.197s-0.088,0.103-0.15,0.139s-0.139,0.055-0.23,0.055
			c-0.09,0-0.166-0.018-0.229-0.054c-0.062-0.035-0.113-0.082-0.152-0.14c-0.039-0.059-0.072-0.124-0.1-0.198
			c-0.029-0.073-0.059-0.152-0.086-0.235l-0.791-2.148c-0.014-0.04-0.027-0.078-0.041-0.116c-0.014-0.037-0.027-0.078-0.037-0.122
			c-0.01-0.043-0.014-0.08-0.014-0.11c0-0.077,0.031-0.147,0.092-0.211c0.062-0.062,0.141-0.095,0.234-0.095
			c0.113,0,0.195,0.035,0.242,0.105C12.012,29.472,12.059,29.583,12.109,29.737z"/>
		<path fill="#FFFFFF" d="M14.764,32.35v-2.678c0-0.124,0.027-0.218,0.082-0.281c0.055-0.062,0.129-0.095,0.223-0.095
			s0.168,0.031,0.227,0.094c0.057,0.062,0.086,0.157,0.086,0.282v2.678c0,0.126-0.029,0.22-0.088,0.282s-0.133,0.094-0.225,0.094
			c-0.09,0-0.164-0.032-0.221-0.098C14.791,32.563,14.764,32.471,14.764,32.35z"/>
		<path fill="#FFFFFF" d="M17.578,32.377c-0.148,0.116-0.293,0.203-0.434,0.262c-0.139,0.058-0.295,0.087-0.469,0.087
			c-0.158,0-0.297-0.031-0.418-0.094c-0.119-0.062-0.211-0.147-0.275-0.255c-0.066-0.106-0.098-0.223-0.098-0.349
			c0-0.169,0.053-0.312,0.16-0.432s0.254-0.199,0.441-0.24c0.039-0.009,0.137-0.029,0.291-0.061c0.156-0.032,0.289-0.061,0.4-0.087
			c0.109-0.026,0.23-0.059,0.359-0.097c-0.006-0.163-0.039-0.282-0.098-0.358s-0.178-0.114-0.361-0.114
			c-0.156,0-0.273,0.022-0.354,0.065c-0.08,0.044-0.146,0.109-0.203,0.197c-0.057,0.087-0.098,0.145-0.121,0.173
			s-0.072,0.042-0.15,0.042c-0.068,0-0.129-0.022-0.18-0.066c-0.051-0.045-0.076-0.102-0.076-0.171c0-0.109,0.039-0.215,0.117-0.317
			c0.076-0.103,0.195-0.187,0.359-0.253c0.162-0.066,0.365-0.1,0.607-0.1c0.271,0,0.486,0.032,0.641,0.096
			c0.156,0.064,0.266,0.166,0.33,0.305c0.062,0.139,0.096,0.323,0.096,0.552c0,0.145,0,0.268-0.002,0.369
			c0,0.101-0.002,0.213-0.004,0.337c0,0.116,0.02,0.237,0.059,0.363s0.059,0.207,0.059,0.243c0,0.063-0.031,0.121-0.09,0.173
			c-0.061,0.052-0.127,0.078-0.203,0.078c-0.062,0-0.125-0.03-0.188-0.09S17.648,32.49,17.578,32.377z M17.537,31.483
			c-0.09,0.033-0.221,0.068-0.395,0.105c-0.172,0.037-0.291,0.064-0.357,0.081c-0.066,0.018-0.131,0.052-0.191,0.103
			c-0.059,0.05-0.09,0.12-0.09,0.211c0,0.094,0.035,0.173,0.107,0.238c0.07,0.066,0.162,0.099,0.277,0.099
			c0.123,0,0.234-0.026,0.338-0.08s0.18-0.122,0.229-0.207c0.055-0.094,0.082-0.247,0.082-0.461V31.483z"/>
		<path fill="#FFFFFF" d="M20.463,32.373v-0.062c-0.084,0.095-0.164,0.172-0.246,0.231c-0.08,0.06-0.168,0.105-0.262,0.136
			c-0.094,0.031-0.197,0.047-0.309,0.047c-0.148,0-0.285-0.031-0.41-0.094c-0.127-0.062-0.236-0.152-0.328-0.269
			s-0.162-0.252-0.209-0.409s-0.07-0.326-0.07-0.509c0-0.387,0.094-0.688,0.281-0.902c0.189-0.216,0.438-0.324,0.744-0.324
			c0.18,0,0.328,0.031,0.451,0.092c0.121,0.062,0.24,0.155,0.357,0.281v-0.911c0-0.127,0.025-0.223,0.076-0.287
			c0.051-0.065,0.121-0.098,0.215-0.098s0.166,0.03,0.217,0.09s0.076,0.147,0.076,0.264v2.724c0,0.117-0.027,0.205-0.082,0.265
			c-0.055,0.059-0.125,0.088-0.211,0.088c-0.084,0-0.154-0.03-0.209-0.092C20.49,32.573,20.463,32.485,20.463,32.373z
			 M19.248,31.466c0,0.167,0.025,0.31,0.078,0.427c0.053,0.118,0.123,0.207,0.213,0.267c0.092,0.06,0.189,0.089,0.297,0.089
			c0.109,0,0.207-0.028,0.297-0.085s0.162-0.143,0.215-0.26c0.055-0.117,0.082-0.263,0.082-0.438c0-0.165-0.027-0.306-0.082-0.425
			c-0.053-0.118-0.125-0.209-0.217-0.271c-0.09-0.062-0.191-0.094-0.299-0.094c-0.113,0-0.215,0.032-0.303,0.097
			c-0.09,0.063-0.158,0.155-0.207,0.275C19.271,31.168,19.248,31.307,19.248,31.466z"/>
		<path fill="#FFFFFF" d="M23.357,29.737l0.752,2.224l0.754-2.239c0.039-0.118,0.068-0.2,0.088-0.246s0.051-0.087,0.098-0.124
			c0.045-0.037,0.105-0.056,0.186-0.056c0.057,0,0.109,0.015,0.158,0.043c0.049,0.029,0.088,0.066,0.115,0.114
			c0.029,0.048,0.043,0.096,0.043,0.144c0,0.033-0.006,0.069-0.014,0.107c-0.01,0.039-0.021,0.076-0.035,0.113
			s-0.025,0.075-0.039,0.114l-0.805,2.167c-0.027,0.083-0.057,0.162-0.086,0.236c-0.027,0.075-0.061,0.141-0.1,0.197
			c-0.037,0.057-0.088,0.103-0.15,0.139s-0.139,0.055-0.229,0.055s-0.168-0.018-0.23-0.054c-0.062-0.035-0.113-0.082-0.15-0.14
			c-0.039-0.059-0.072-0.124-0.102-0.198c-0.029-0.073-0.057-0.152-0.086-0.235l-0.789-2.148c-0.014-0.04-0.027-0.078-0.043-0.116
			c-0.014-0.037-0.025-0.078-0.035-0.122c-0.01-0.043-0.016-0.08-0.016-0.11c0-0.077,0.031-0.147,0.094-0.211
			c0.062-0.062,0.139-0.095,0.232-0.095c0.115,0,0.195,0.035,0.244,0.105C23.26,29.472,23.309,29.583,23.357,29.737z"/>
		<path fill="#FFFFFF" d="M27.506,31.621h-1.209c0.002,0.141,0.029,0.265,0.086,0.371c0.055,0.107,0.127,0.188,0.219,0.242
			c0.092,0.055,0.191,0.082,0.303,0.082c0.072,0,0.141-0.009,0.201-0.026s0.121-0.045,0.178-0.081
			c0.057-0.037,0.109-0.077,0.158-0.119s0.111-0.1,0.188-0.172c0.033-0.027,0.078-0.041,0.137-0.041
			c0.062,0,0.115,0.018,0.154,0.053c0.039,0.034,0.059,0.083,0.059,0.146c0,0.056-0.021,0.121-0.066,0.195
			c-0.043,0.075-0.109,0.146-0.197,0.216c-0.088,0.068-0.199,0.125-0.332,0.17c-0.135,0.046-0.287,0.068-0.461,0.068
			c-0.396,0-0.705-0.113-0.926-0.34c-0.221-0.226-0.33-0.532-0.33-0.92c0-0.183,0.027-0.353,0.082-0.508
			c0.053-0.156,0.133-0.29,0.236-0.402c0.105-0.111,0.232-0.196,0.385-0.257c0.152-0.059,0.322-0.089,0.508-0.089
			c0.24,0,0.447,0.051,0.621,0.152c0.172,0.103,0.301,0.233,0.387,0.396c0.086,0.161,0.129,0.325,0.129,0.493
			c0,0.155-0.045,0.256-0.133,0.302C27.791,31.599,27.666,31.621,27.506,31.621z M26.297,31.271h1.119
			c-0.014-0.211-0.07-0.369-0.17-0.474s-0.229-0.157-0.391-0.157c-0.154,0-0.279,0.054-0.379,0.159
			C26.379,30.905,26.318,31.062,26.297,31.271z"/>
		<path fill="#FFFFFF" d="M29.096,30.556v0.075c0.107-0.144,0.227-0.249,0.355-0.315c0.129-0.067,0.277-0.101,0.445-0.101
			c0.162,0,0.309,0.035,0.436,0.105c0.129,0.071,0.225,0.172,0.287,0.302c0.041,0.075,0.068,0.156,0.08,0.244
			c0.012,0.087,0.018,0.199,0.018,0.335v1.148c0,0.124-0.027,0.218-0.084,0.281c-0.057,0.062-0.131,0.095-0.221,0.095
			c-0.092,0-0.166-0.032-0.225-0.098c-0.057-0.064-0.086-0.157-0.086-0.278V31.32c0-0.203-0.027-0.359-0.084-0.467
			s-0.17-0.162-0.338-0.162c-0.111,0-0.211,0.033-0.301,0.099c-0.092,0.065-0.158,0.156-0.199,0.271
			c-0.031,0.092-0.047,0.264-0.047,0.516v0.773c0,0.126-0.027,0.22-0.086,0.282s-0.133,0.094-0.225,0.094
			c-0.09,0-0.162-0.032-0.221-0.098c-0.057-0.064-0.086-0.157-0.086-0.278v-1.784c0-0.118,0.025-0.206,0.078-0.264
			c0.051-0.059,0.121-0.087,0.209-0.087c0.055,0,0.104,0.013,0.148,0.038c0.043,0.025,0.078,0.064,0.105,0.115
			C29.082,30.42,29.096,30.482,29.096,30.556z"/>
		<path fill="#FFFFFF" d="M33.025,32.373v-0.062c-0.084,0.095-0.164,0.172-0.246,0.231c-0.08,0.06-0.168,0.105-0.262,0.136
			c-0.094,0.031-0.197,0.047-0.309,0.047c-0.148,0-0.285-0.031-0.41-0.094c-0.127-0.062-0.236-0.152-0.328-0.269
			s-0.162-0.252-0.209-0.409s-0.07-0.326-0.07-0.509c0-0.387,0.094-0.688,0.281-0.902c0.189-0.216,0.438-0.324,0.744-0.324
			c0.18,0,0.328,0.031,0.451,0.092c0.121,0.062,0.24,0.155,0.357,0.281v-0.911c0-0.127,0.025-0.223,0.076-0.287
			c0.051-0.065,0.121-0.098,0.215-0.098s0.166,0.03,0.217,0.09s0.076,0.147,0.076,0.264v2.724c0,0.117-0.027,0.205-0.082,0.265
			c-0.055,0.059-0.125,0.088-0.211,0.088c-0.084,0-0.154-0.03-0.209-0.092C33.053,32.573,33.025,32.485,33.025,32.373z
			 M31.811,31.466c0,0.167,0.025,0.31,0.078,0.427c0.053,0.118,0.123,0.207,0.213,0.267c0.092,0.06,0.189,0.089,0.297,0.089
			c0.109,0,0.207-0.028,0.297-0.085s0.162-0.143,0.215-0.26c0.055-0.117,0.082-0.263,0.082-0.438c0-0.165-0.027-0.306-0.082-0.425
			c-0.053-0.118-0.125-0.209-0.217-0.271c-0.09-0.062-0.191-0.094-0.299-0.094c-0.113,0-0.215,0.032-0.303,0.097
			c-0.09,0.063-0.158,0.155-0.207,0.275C31.834,31.168,31.811,31.307,31.811,31.466z"/>
		<path fill="#FFFFFF" d="M34.842,31.834v0.516c0,0.126-0.029,0.22-0.088,0.282s-0.135,0.094-0.225,0.094
			c-0.088,0-0.162-0.032-0.219-0.095c-0.059-0.063-0.086-0.157-0.086-0.281v-1.719c0-0.277,0.1-0.416,0.301-0.416
			c0.102,0,0.176,0.032,0.221,0.097c0.045,0.065,0.07,0.161,0.076,0.287c0.072-0.126,0.148-0.222,0.227-0.287
			c0.078-0.064,0.182-0.097,0.311-0.097c0.131,0,0.256,0.032,0.379,0.097c0.121,0.065,0.182,0.151,0.182,0.258
			c0,0.076-0.025,0.138-0.078,0.187c-0.051,0.05-0.107,0.074-0.168,0.074c-0.021,0-0.076-0.015-0.164-0.042
			c-0.086-0.028-0.162-0.042-0.229-0.042c-0.092,0-0.166,0.023-0.223,0.071s-0.102,0.118-0.133,0.212
			c-0.031,0.093-0.055,0.204-0.066,0.333S34.842,31.648,34.842,31.834z"/>
		<path fill="#FFFFFF" d="M38.393,31.47c0,0.185-0.027,0.354-0.086,0.509c-0.057,0.156-0.141,0.289-0.248,0.4
			c-0.109,0.112-0.238,0.197-0.389,0.257c-0.152,0.06-0.32,0.09-0.51,0.09c-0.188,0-0.355-0.03-0.504-0.091
			c-0.15-0.06-0.279-0.146-0.389-0.259s-0.191-0.245-0.248-0.398c-0.057-0.152-0.086-0.322-0.086-0.508
			c0-0.187,0.029-0.357,0.086-0.514c0.059-0.155,0.141-0.288,0.248-0.397c0.105-0.11,0.236-0.195,0.389-0.255
			s0.32-0.089,0.504-0.089c0.188,0,0.357,0.03,0.51,0.09c0.152,0.061,0.281,0.146,0.391,0.258c0.109,0.112,0.191,0.245,0.248,0.398
			C38.365,31.115,38.393,31.284,38.393,31.47z M37.773,31.47c0-0.252-0.055-0.447-0.166-0.588s-0.26-0.21-0.447-0.21
			c-0.121,0-0.227,0.031-0.318,0.094s-0.164,0.154-0.213,0.276c-0.051,0.123-0.074,0.265-0.074,0.428
			c0,0.162,0.023,0.303,0.072,0.423c0.049,0.121,0.119,0.214,0.211,0.277c0.092,0.064,0.199,0.097,0.322,0.097
			c0.188,0,0.336-0.071,0.447-0.212S37.773,31.719,37.773,31.47z"/>
		<path fill="#FFFFFF" d="M39.264,30.599l0.402,1.38l0.367-1.282c0.039-0.134,0.068-0.226,0.086-0.274
			c0.02-0.05,0.055-0.096,0.107-0.141c0.051-0.045,0.123-0.066,0.213-0.066c0.092,0,0.164,0.021,0.217,0.066
			c0.051,0.045,0.088,0.093,0.109,0.145s0.051,0.143,0.088,0.271l0.367,1.282l0.406-1.38c0.027-0.099,0.049-0.171,0.066-0.216
			c0.016-0.044,0.045-0.084,0.084-0.117c0.039-0.034,0.096-0.051,0.17-0.051c0.072,0,0.137,0.025,0.191,0.076
			c0.055,0.052,0.082,0.112,0.082,0.182c0,0.063-0.023,0.159-0.07,0.287l-0.504,1.479c-0.045,0.125-0.078,0.216-0.104,0.271
			c-0.023,0.056-0.061,0.105-0.113,0.149s-0.123,0.065-0.213,0.065c-0.094,0-0.168-0.023-0.221-0.07
			c-0.055-0.047-0.094-0.104-0.119-0.172c-0.025-0.067-0.055-0.156-0.084-0.265l-0.354-1.203l-0.342,1.203
			c-0.045,0.167-0.094,0.294-0.146,0.379s-0.145,0.128-0.277,0.128c-0.068,0-0.127-0.014-0.174-0.04s-0.088-0.063-0.119-0.112
			c-0.031-0.05-0.059-0.107-0.084-0.175c-0.023-0.067-0.043-0.12-0.057-0.159l-0.5-1.479c-0.049-0.139-0.074-0.234-0.074-0.287
			c0-0.066,0.027-0.126,0.08-0.179s0.117-0.079,0.193-0.079c0.104,0,0.172,0.028,0.209,0.087
			C39.184,30.359,39.223,30.459,39.264,30.599z"/>
	</g>
</g>
</svg>
