<?xml version="1.0" encoding="utf-8"?>
<!-- Generator: Adobe Illustrator 15.0.2, SVG Export Plug-In . SVG Version: 6.00 Build 0)  -->
<!DOCTYPE svg PUBLIC "-//W3C//DTD SVG 1.1//EN" "http://www.w3.org/Graphics/SVG/1.1/DTD/svg11.dtd">
<svg version="1.1" id="Layer_1" xmlns="http://www.w3.org/2000/svg" xmlns:xlink="http://www.w3.org/1999/xlink" x="0px" y="0px"
	 width="24.027px" height="18.509px" viewBox="14.771 6.665 24.027 18.509" enable-background="new 14.771 6.665 24.027 18.509"
	 xml:space="preserve">
<g>
	
		<radialGradient id="SVGID_1_" cx="-1193.0361" cy="-462.8711" r="23.4625" gradientTransform="matrix(0.4097 0 0 0.0996 517.8171 68.6756)" gradientUnits="userSpaceOnUse">
		<stop  offset="0" style="stop-color:#5F564A"/>
		<stop  offset="0.04" style="stop-color:#78766A"/>
		<stop  offset="0.0973" style="stop-color:#989E90"/>
		<stop  offset="0.1537" style="stop-color:#B0BEAF"/>
		<stop  offset="0.2083" style="stop-color:#C2D4C4"/>
		<stop  offset="0.2603" style="stop-color:#CCE1D2"/>
		<stop  offset="0.3067" style="stop-color:#D0E6D6"/>
		<stop  offset="0.3469" style="stop-color:#D4E8DB"/>
		<stop  offset="0.5579" style="stop-color:#E3F1EE"/>
		<stop  offset="0.7737" style="stop-color:#EDF6F9"/>
		<stop  offset="1" style="stop-color:#F0F8FD"/>
	</radialGradient>
	<ellipse fill="url(#SVGID_1_)" cx="29.03" cy="22.591" rx="9.769" ry="2.583"/>
	<g>
		<g>
			<g>
				<path fill="#1D1E1C" d="M22.535,20.605H17.67v-3.488h4.865V20.605z M17.826,20.449h4.553v-3.176h-4.553V20.449z"/>
				<path fill="#1D1E1C" d="M17.143,21.882h-2.371v-4.867h2.371V21.882z M14.928,21.726h2.059v-4.555h-2.059V21.726z"/>
				<path fill="#1D1E1C" d="M20.467,21.277H19.74v-0.828h0.727V21.277z M19.896,21.121h0.414v-0.516h-0.414V21.121z"/>
				<path fill="#1D1E1C" d="M21.047,21.57h-1.889v-0.449h1.889V21.57z M19.314,21.414h1.576v-0.137h-1.576V21.414z"/>
				<path fill="#1D1E1C" d="M22.225,20.261h-4.25v-2.853h4.25V20.261z M18.131,20.104h3.938v-2.54h-3.938V20.104z"/>
				<rect x="15.123" y="17.404" fill="#1D1E1C" width="1.631" height="0.484"/>
				<rect x="15.123" y="18.083" fill="#1D1E1C" width="1.631" height="0.437"/>
				<circle fill="#1D1E1C" cx="16.585" cy="18.892" r="0.151"/>
			</g>
			<g>
				<g>
					<circle fill="#FFFFFF" cx="29.031" cy="9.547" r="2.732"/>
					<path fill="#1D1E1C" d="M29.031,12.428c-1.137,0-2.17-0.671-2.632-1.71c-0.313-0.703-0.335-1.486-0.059-2.205
						c0.276-0.718,0.815-1.285,1.519-1.598c0.372-0.166,0.766-0.25,1.17-0.25c1.137,0,2.17,0.672,2.634,1.712
						c0.645,1.453-0.012,3.158-1.462,3.801C29.829,12.344,29.436,12.428,29.031,12.428z M29.029,6.963
						c-0.362,0-0.715,0.075-1.049,0.224c-0.631,0.28-1.114,0.789-1.362,1.434c-0.247,0.644-0.229,1.346,0.053,1.977
						c0.415,0.932,1.341,1.533,2.36,1.533c0.362,0,0.715-0.075,1.049-0.224c1.301-0.577,1.889-2.105,1.312-3.408
						C30.976,7.565,30.048,6.963,29.029,6.963z"/>
				</g>
				<path fill="#1D1E1C" d="M26.453,8.64c0.312-0.835,0.941-1.356,1.467-1.589c1.379-0.613,2.992,0.007,3.607,1.387
					c0.049,0.106,0.086,0.216,0.119,0.326c-0.811,0.172-1.881,0.457-3.221,0.056C27.295,8.479,26.912,8.594,26.453,8.64z"/>
				
					<ellipse transform="matrix(-0.9145 0.4047 -0.4047 -0.9145 55.9656 8.1349)" fill="#1D1E1C" cx="27.123" cy="9.982" rx="0.186" ry="0.309"/>
				
					<ellipse transform="matrix(-0.9132 0.4076 -0.4076 -0.9132 58.4119 8.0119)" fill="#1D1E1C" cx="28.353" cy="10.228" rx="0.219" ry="0.317"/>
				<path fill="#1D1E1C" d="M27.357,11.231c0,0,0.68,0.803,1.068,0.239"/>
				<g>
					<polygon fill="#FFFFFF" points="24.363,13.145 25.805,13.49 24.887,11.279 23.445,10.936 					"/>
					<path fill="#1D1E1C" d="M25.805,13.639c-0.012,0-0.023-0.001-0.035-0.004l-1.441-0.346c-0.046-0.011-0.084-0.044-0.103-0.088
						l-0.918-2.209c-0.021-0.051-0.012-0.11,0.024-0.153c0.036-0.042,0.098-0.062,0.147-0.048l1.441,0.344
						c0.047,0.011,0.085,0.044,0.104,0.088l0.918,2.211c0.021,0.052,0.012,0.11-0.024,0.153
						C25.89,13.62,25.848,13.639,25.805,13.639z M24.472,13.018l1.084,0.26l-0.777-1.871l-1.084-0.259L24.472,13.018z"/>
				</g>
				<path fill="#1D1E1C" d="M26.145,15.31c-0.004,0-0.008,0-0.012,0c-0.051-0.004-0.097-0.034-0.12-0.08l-1.24-2.383
					c-0.038-0.072-0.01-0.162,0.063-0.2c0.07-0.038,0.162-0.009,0.2,0.063l1.13,2.17l1.196-1.63
					c0.049-0.066,0.143-0.081,0.208-0.032c0.066,0.049,0.081,0.142,0.032,0.208l-1.338,1.823
					C26.236,15.287,26.191,15.31,26.145,15.31z"/>
				<polygon fill="#39A935" points="27.938,13.097 28.713,12.956 29.184,14.498 29.631,12.956 30.414,13.046 29.98,16.926 
					28.062,16.926 				"/>
				<polygon fill="#1D1E1C" points="30.641,22.591 29.441,22.591 29.029,18.817 28.717,22.591 27.42,22.591 28.242,22.183 
					28.078,17.301 29.998,17.301 29.945,22.196 				"/>
				<path fill="#1D1E1C" d="M28.502,14.765c-0.032,0-0.065-0.011-0.092-0.031l-2.33-1.838c-0.064-0.052-0.076-0.145-0.025-0.209
					s0.144-0.076,0.209-0.025l2.236,1.764l1.454-1.201c0.062-0.055,0.157-0.043,0.209,0.02c0.053,0.063,0.044,0.157-0.02,0.209
					l-1.547,1.278C28.569,14.754,28.535,14.765,28.502,14.765z"/>
			</g>
			<circle fill="#39A935" cx="18.889" cy="11.504" r="2.5"/>
			<g>
				<path fill="#FFFFFF" d="M20.277,10.723h-2.779c-0.076,0-0.135,0.06-0.135,0.138v1.444c0,0.075,0.059,0.137,0.135,0.137h2.779
					c0.076,0,0.139-0.062,0.139-0.137V10.86C20.416,10.782,20.354,10.723,20.277,10.723z M20.244,12.207
					c0,0.036-0.027,0.063-0.061,0.063h-2.59c-0.033,0-0.061-0.027-0.061-0.063v-1.251c0-0.033,0.027-0.062,0.061-0.062h2.59
					c0.033,0,0.061,0.029,0.061,0.062V12.207z"/>
				<path fill="#FFFFFF" d="M19.467,11.146c-0.238,0-0.432,0.192-0.432,0.43c0,0.112,0.043,0.212,0.111,0.29h-0.516
					c0.066-0.078,0.109-0.178,0.109-0.29c0-0.237-0.191-0.43-0.43-0.43s-0.432,0.192-0.432,0.43c0,0.235,0.186,0.426,0.418,0.432
					l0,0h1.195v-0.001c0.227-0.014,0.406-0.2,0.406-0.431C19.898,11.339,19.703,11.146,19.467,11.146z M18.311,11.835
					c-0.143,0-0.258-0.115-0.258-0.259c0-0.142,0.115-0.257,0.258-0.257s0.258,0.115,0.258,0.257
					C18.568,11.72,18.453,11.835,18.311,11.835z M19.467,11.835c-0.141,0-0.258-0.115-0.258-0.259c0-0.142,0.117-0.257,0.258-0.257
					c0.143,0,0.26,0.115,0.26,0.257C19.727,11.72,19.609,11.835,19.467,11.835z"/>
			</g>
			<circle fill="#39A935" cx="22.301" cy="12.441" r="0.402"/>
			<circle fill="#39A935" cx="23.227" cy="12.504" r="0.225"/>
			<circle fill="#39A935" cx="18.889" cy="15.139" r="0.607"/>
			<circle fill="#39A935" cx="18.889" cy="16.414" r="0.328"/>
		</g>
	</g>
</g>
</svg>
