<?xml version="1.0" encoding="utf-8"?>
<!-- Generator: Adobe Illustrator 15.0.2, SVG Export Plug-In . SVG Version: 6.00 Build 0)  -->
<!DOCTYPE svg PUBLIC "-//W3C//DTD SVG 1.1//EN" "http://www.w3.org/Graphics/SVG/1.1/DTD/svg11.dtd">
<svg version="1.1" id="Layer_1" xmlns="http://www.w3.org/2000/svg" xmlns:xlink="http://www.w3.org/1999/xlink" x="0px" y="0px"
	 width="74.18px" height="35.453px" viewBox="0 0 74.18 35.453" enable-background="new 0 0 74.18 35.453" xml:space="preserve">
<g>
	<g>
		<g>
			
				<radialGradient id="SVGID_1_" cx="-59.2205" cy="4935.2153" r="41.5283" gradientTransform="matrix(0.4097 0 0 0.0996 81.1536 -460.7066)" gradientUnits="userSpaceOnUse">
				<stop  offset="0" style="stop-color:#5F564A"/>
				<stop  offset="0.0287" style="stop-color:#75695A"/>
				<stop  offset="0.0884" style="stop-color:#A1917C"/>
				<stop  offset="0.1473" style="stop-color:#C7B59B"/>
				<stop  offset="0.2042" style="stop-color:#E5D1B3"/>
				<stop  offset="0.2583" style="stop-color:#F8E3C2"/>
				<stop  offset="0.3067" style="stop-color:#FFE9C7"/>
				<stop  offset="0.3343" style="stop-color:#FFEBCC"/>
				<stop  offset="0.4949" style="stop-color:#FFF4E3"/>
				<stop  offset="0.6584" style="stop-color:#FFFAF3"/>
				<stop  offset="0.8252" style="stop-color:#FFFEFC"/>
				<stop  offset="1" style="stop-color:#FFFFFF"/>
			</radialGradient>
			<path fill="url(#SVGID_1_)" d="M74.18,30.853c0,2.525-7.737,4.574-17.286,4.574c-9.552,0-17.291-2.049-17.291-4.574
				c0-2.521,7.739-4.568,17.291-4.568C66.443,26.285,74.18,28.333,74.18,30.853z"/>
			
				<polygon fill="#FFFFFF" stroke="#1E1E1C" stroke-width="0.4909" stroke-linecap="round" stroke-linejoin="round" stroke-miterlimit="10" points="
				56.4,19.347 51.782,16.908 52.025,10.369 57.296,12.152 			"/>
			<polygon fill="#1E1E1C" points="53.827,13.896 52.857,13.439 53.139,13.133 53.844,13.488 			"/>
			<polygon fill="#1E1E1C" points="55.751,14.626 54.868,14.219 54.781,13.75 55.616,14.107 			"/>
			<polygon fill="#1E1E1C" points="54.609,16.576 53.437,16.007 53.18,15.164 55.003,16.007 			"/>
			
				<polygon fill="#FFFFFF" stroke="#1E1E1C" stroke-width="0.4909" stroke-linecap="round" stroke-linejoin="round" stroke-miterlimit="10" points="
				57.296,12.152 52.025,10.369 56.846,10.583 61.036,12.152 			"/>
			
				<polygon fill="#FFFFFF" stroke="#1E1E1C" stroke-width="0.4909" stroke-linecap="round" stroke-linejoin="round" stroke-miterlimit="10" points="
				60.098,18.42 56.4,19.347 57.258,12.152 61.036,12.152 			"/>
			
				<path fill="none" stroke="#1E1E1C" stroke-width="0.4909" stroke-linecap="round" stroke-linejoin="round" stroke-miterlimit="10" d="
				M43.764,20.881c0,0,5.746,1.629,9.199,0.104"/>
			
				<path fill="none" stroke="#1E1E1C" stroke-width="0.4909" stroke-linecap="round" stroke-linejoin="round" stroke-miterlimit="10" d="
				M60.863,21.625c0,0,1.022,1.598,0.817,3.196"/>
			<path fill="#1E1E1C" d="M59.846,16.66c-0.353,0.857-1.146,1.344-1.771,1.082c-0.625-0.256-0.844-1.156-0.488-2.014
				c0.352-0.854,1.145-1.343,1.77-1.082C59.982,14.904,60.197,15.803,59.846,16.66z"/>
			
				<path fill="none" stroke="#1E1E1C" stroke-width="0.2455" stroke-linecap="round" stroke-linejoin="round" stroke-miterlimit="10" d="
				M54.091,10.348c0.571-1.266,1.515-2.087,2.576-2.087c1.741,0,3.153,2.212,3.153,4.938c0,1.283-0.311,2.453-0.824,3.33"/>
			
				<path fill="none" stroke="#1E1E1C" stroke-width="0.4909" stroke-linecap="round" stroke-linejoin="round" stroke-miterlimit="10" d="
				M58.999,16.531"/>
			
				<path fill="none" stroke="#1E1E1C" stroke-width="0.9818" stroke-linecap="round" stroke-linejoin="round" stroke-miterlimit="10" d="
				M55.329,8.728c1.117-0.646,2.459-0.467,3.389,0.713"/>
			<path fill="#1E1E1C" d="M52.508,19.025c-0.248,0.297-0.773,0.271-1.176-0.062c-0.4-0.33-0.523-0.848-0.275-1.146
				c0.25-0.3,0.777-0.271,1.178,0.065C52.637,18.213,52.758,18.722,52.508,19.025z"/>
			
				<ellipse transform="matrix(-0.9239 -0.3826 0.3826 -0.9239 107.2175 54.0512)" fill="#FFFFFF" cx="58.983" cy="16.366" rx="0.541" ry="0.828"/>
			
				<path fill="none" stroke="#1E1E1C" stroke-width="0.2455" stroke-linecap="round" stroke-linejoin="round" stroke-miterlimit="10" d="
				M59.089,16.404c-1.154,1.66-3.943,4.389-7.307,2.018"/>
			<text transform="matrix(1 0 0 1 54.8127 23.4136)" fill="#1E1E1C" font-family="'ArialRoundedMTBold'" font-size="1.8378">AR-1</text>
			<g>
				<path fill="none" stroke="#1E1E1C" stroke-width="0.5411" stroke-miterlimit="10" d="M59.486,25.759
					c-0.077,0.585-0.624,1.062-1.214,1.062h-2.596c-0.59,0-1.154-0.477-1.256-1.059l-0.757-4.42
					c-0.101-0.582,0.304-1.061,0.894-1.061h4.58c0.59,0,1.01,0.479,0.933,1.064L59.486,25.759z"/>
			</g>
			<g>
				<path fill="#FFFFFF" d="M59.116,29.893c-0.185-0.474-0.816-0.86-1.406-0.86h-1.524c-0.591,0-1.269,0.389-1.507,0.86
					c-0.237,0.474,0.052,0.86,0.642,0.86h3.061C58.967,30.754,59.3,30.367,59.116,29.893z"/>
				<path fill="none" stroke="#1E1E1C" stroke-width="0.5411" stroke-miterlimit="10" d="M59.116,29.893
					c-0.185-0.474-0.816-0.86-1.406-0.86h-1.524c-0.591,0-1.269,0.389-1.507,0.86c-0.237,0.474,0.052,0.86,0.642,0.86h3.061
					C58.967,30.754,59.3,30.367,59.116,29.893z"/>
			</g>
			
				<rect x="56.4" y="26.824" fill="#FFFFFF" stroke="#1E1E1C" stroke-width="0.5411" stroke-miterlimit="10" width="0.896" height="2.209"/>
			
				<path fill="none" stroke="#1E1E1C" stroke-width="0.4909" stroke-linecap="round" stroke-linejoin="round" stroke-miterlimit="10" d="
				M60.863,25.593c0.082-0.479,0.416-0.824,0.758-0.768c0.342,0.055,0.555,0.484,0.477,0.967"/>
			
				<path fill="none" stroke="#1E1E1C" stroke-width="0.4909" stroke-linecap="round" stroke-linejoin="round" stroke-miterlimit="10" d="
				M43.32,20.23c0.271,0.191,0.408,0.471,0.328,0.717c-0.105,0.328-0.572,0.471-1.033,0.312"/>
		</g>
		<g>
			
				<line fill="none" stroke="#1E1E1C" stroke-width="0.9818" stroke-linecap="round" stroke-linejoin="round" stroke-miterlimit="10" x1="42.559" y1="13.703" x2="42.559" y2="30.306"/>
			<g>
				<polygon fill="#E8501D" points="35.767,11.82 35.718,3.948 42.514,-0.028 49.353,3.869 49.4,11.74 42.607,15.715 				"/>
				<polygon fill="none" stroke="#FFFFFF" stroke-width="0.5199" stroke-miterlimit="10" points="36.413,11.439 36.375,4.322 
					42.519,0.72 48.708,4.25 48.749,11.369 42.605,14.965 				"/>
				<text transform="matrix(0.7176 0 0 1 37.4636 10.0503)" fill="#FFFFFF" font-family="'ArialNarrow-Bold'" font-size="6.3972">STOP</text>
			</g>
		</g>
	</g>
	<g>
		
			<radialGradient id="SVGID_2_" cx="11227.832" cy="4935.2925" r="41.522" gradientTransform="matrix(-0.4097 0 0 0.0996 4617.332 -460.6636)" gradientUnits="userSpaceOnUse">
			<stop  offset="0" style="stop-color:#729954"/>
			<stop  offset="0.1851" style="stop-color:#B7CA97"/>
			<stop  offset="0.3067" style="stop-color:#DDEAC3"/>
			<stop  offset="0.3863" style="stop-color:#E5EFD2"/>
			<stop  offset="0.5343" style="stop-color:#F1F6E6"/>
			<stop  offset="0.6851" style="stop-color:#F9FBF5"/>
			<stop  offset="0.8388" style="stop-color:#FEFEFD"/>
			<stop  offset="1" style="stop-color:#FFFFFF"/>
		</radialGradient>
		<ellipse fill="url(#SVGID_2_)" cx="17.29" cy="30.908" rx="17.289" ry="4.572"/>
		<g>
			<path fill="#699E2F" d="M21.166,11.135c-0.738,2.269-3.179,3.511-5.443,2.771c-2.271-0.737-3.512-3.176-2.773-5.441
				c0.738-2.271,3.177-3.512,5.447-2.771C20.663,6.428,21.902,8.865,21.166,11.135z"/>
			
				<rect x="14.016" y="5.206" transform="matrix(0.5798 0.8148 -0.8148 0.5798 10.8057 -9.3345)" fill="#1E1E1C" width="0.873" height="1.205"/>
			<path fill="#54551D" d="M10.808,10.553c1.109-3.237-0.521-4.872,0.457-6.823c0.967-1.93,4.094-0.705,3.424,1.373
				c-0.561,0.397-0.979,0.7-0.979,0.7S12.711,5,12.484,6.203C12.207,7.664,11.92,8.707,10.808,10.553z"/>
			<path fill="#FFFFFF" d="M20.407,10.26c-0.082,0.261-0.276,0.424-0.432,0.375c-0.156-0.051-0.213-0.298-0.127-0.555
				c0.082-0.257,0.271-0.425,0.43-0.373C20.433,9.758,20.488,10.007,20.407,10.26z"/>
			<path fill="#FFFFFF" d="M18.562,10.869c-0.086,0.263-0.303,0.43-0.486,0.367c-0.182-0.06-0.26-0.319-0.174-0.582
				c0.086-0.267,0.301-0.431,0.484-0.369C18.572,10.341,18.648,10.603,18.562,10.869z"/>
			<path fill="#1E1E1C" d="M18.314,12.908c0,0,0.818-1.443,1.59-0.683"/>
			
				<rect x="13.679" y="10.098" transform="matrix(0.9232 -0.3843 0.3843 0.9232 -3.4624 6.6524)" fill="#FFFFFF" stroke="#1E1E1C" stroke-width="0.4689" stroke-linecap="round" stroke-linejoin="round" stroke-miterlimit="10" width="2.47" height="3.783"/>
			<g>
				<polyline fill="none" stroke="#1E1E1C" stroke-width="0.4689" stroke-linecap="round" stroke-linejoin="round" points="
					14.541,11.99 12.906,18.275 15.252,15.797 				"/>
			</g>
			
				<polyline fill="none" stroke="#1E1E1C" stroke-width="0.4689" stroke-linecap="round" stroke-linejoin="round" stroke-miterlimit="10" points="
				23.361,10.428 23.625,15.135 19.517,15.429 			"/>
			
				<path fill="none" stroke="#1E1E1C" stroke-width="0.4689" stroke-linecap="round" stroke-linejoin="round" stroke-miterlimit="10" d="
				M16.152,25.759c0,0.154-0.727,5.201-0.727,5.201"/>
			
				<path fill="none" stroke="#1E1E1C" stroke-width="0.4689" stroke-linecap="round" stroke-linejoin="round" stroke-miterlimit="10" d="
				M18.998,25.759c0,0.154,0.223,5.201,0.223,5.201"/>
			<polygon fill="#1C99CE" points="20.57,24.857 14.638,24.857 16.189,15.066 18.599,15.066 			"/>
			<path fill="#54551D" d="M19.554,6.609c0,0,0.404,0.659,1.697,0.969c-2.168-3.363-7.521-3.381-8.693,1.859
				c0.197,0.991,2.068,0.133,2.158-0.308c-0.09-0.222-0.047-0.418-0.047-0.418s0.34,0.493,0.662,0.55
				c-0.199-0.902,0.262-1.102,0.262-1.102s0.221,0.66,1.08,0.572c0.176-1.343,1.043-1.688,1.043-1.688s-0.043,0.571,0.067,1.164
				c0.459-0.985,0.83-1.351,0.83-1.351s0.547,0.949,1.146,1.104C19.23,7.174,19.554,6.609,19.554,6.609z"/>
			<polygon fill="#1E1E1C" points="18.034,19.314 16.832,21.749 16.123,20.59 16.258,24.886 17.187,22.713 17.646,23.049 			"/>
			<polygon fill="#1E1E1C" points="17.64,18.146 17.2,15.13 18.234,15.191 			"/>
		</g>
	</g>
</g>
</svg>
