<?xml version="1.0" encoding="utf-8"?>
<!-- Generator: Adobe Illustrator 15.0.2, SVG Export Plug-In . SVG Version: 6.00 Build 0)  -->
<!DOCTYPE svg PUBLIC "-//W3C//DTD SVG 1.1//EN" "http://www.w3.org/Graphics/SVG/1.1/DTD/svg11.dtd">
<svg version="1.1" id="Layer_1" xmlns="http://www.w3.org/2000/svg" xmlns:xlink="http://www.w3.org/1999/xlink" x="0px" y="0px"
	 width="74.182px" height="35.508px" viewBox="0 0 74.182 35.508" enable-background="new 0 0 74.182 35.508" xml:space="preserve">
<g>
	<g>
		<g>
			
				<radialGradient id="SVGID_1_" cx="-59.219" cy="4935.2251" r="41.526" gradientTransform="matrix(0.4097 0 0 0.0996 81.1539 -460.6811)" gradientUnits="userSpaceOnUse">
				<stop  offset="0" style="stop-color:#9C9C9C"/>
				<stop  offset="0.019" style="stop-color:#A2A1A1"/>
				<stop  offset="0.2086" style="stop-color:#D4D4D4"/>
				<stop  offset="0.3423" style="stop-color:#E2E1E2"/>
				<stop  offset="0.5547" style="stop-color:#F2F2F2"/>
				<stop  offset="0.7721" style="stop-color:#FCFCFC"/>
				<stop  offset="1" style="stop-color:#FFFFFF"/>
			</radialGradient>
			<path fill="url(#SVGID_1_)" d="M74.18,30.881c0,2.525-7.736,4.574-17.287,4.574s-17.289-2.049-17.289-4.574
				c0-2.521,7.738-4.568,17.289-4.568S74.18,28.361,74.18,30.881z"/>
			
				<polygon fill="#FFFFFF" stroke="#1E1E1C" stroke-width="0.4909" stroke-linecap="round" stroke-linejoin="round" stroke-miterlimit="10" points="
				56.403,19.375 51.786,16.936 52.028,10.397 57.296,12.18 			"/>
			<polygon fill="#1E1E1C" points="53.831,13.924 52.86,13.467 53.141,13.161 53.844,13.516 			"/>
			<polygon fill="#1E1E1C" points="55.751,14.654 54.87,14.247 54.782,13.777 55.618,14.133 			"/>
			<polygon fill="#1E1E1C" points="54.61,16.604 53.44,16.035 53.18,15.191 55.005,16.035 			"/>
			
				<polygon fill="#FFFFFF" stroke="#1E1E1C" stroke-width="0.4909" stroke-linecap="round" stroke-linejoin="round" stroke-miterlimit="10" points="
				57.296,12.18 52.028,10.397 56.848,10.611 61.04,12.18 			"/>
			
				<polygon fill="#FFFFFF" stroke="#1E1E1C" stroke-width="0.4909" stroke-linecap="round" stroke-linejoin="round" stroke-miterlimit="10" points="
				60.098,18.448 56.403,19.375 57.26,12.18 61.04,12.18 			"/>
			
				<path fill="none" stroke="#1E1E1C" stroke-width="0.4909" stroke-linecap="round" stroke-linejoin="round" stroke-miterlimit="10" d="
				M43.764,20.91c0,0,5.746,1.629,9.199,0.104"/>
			
				<path fill="none" stroke="#1E1E1C" stroke-width="0.4909" stroke-linecap="round" stroke-linejoin="round" stroke-miterlimit="10" d="
				M60.864,21.654c0,0,1.021,1.598,0.816,3.196"/>
			<path fill="#1E1E1C" d="M59.846,16.686c-0.352,0.858-1.145,1.345-1.77,1.084c-0.623-0.256-0.844-1.157-0.49-2.016
				c0.354-0.854,1.146-1.342,1.771-1.08C59.983,14.93,60.2,15.831,59.846,16.686z"/>
			
				<path fill="none" stroke="#1E1E1C" stroke-width="0.2455" stroke-linecap="round" stroke-linejoin="round" stroke-miterlimit="10" d="
				M54.093,10.375c0.57-1.266,1.514-2.087,2.574-2.087c1.742,0,3.154,2.212,3.154,4.938c0,1.281-0.311,2.453-0.824,3.328"/>
			
				<path fill="none" stroke="#1E1E1C" stroke-width="0.4909" stroke-linecap="round" stroke-linejoin="round" stroke-miterlimit="10" d="
				M58.999,16.557"/>
			
				<path fill="none" stroke="#1E1E1C" stroke-width="0.9818" stroke-linecap="round" stroke-linejoin="round" stroke-miterlimit="10" d="
				M55.331,8.754c1.119-0.646,2.461-0.466,3.389,0.715"/>
			<path fill="#1E1E1C" d="M52.509,19.053c-0.25,0.297-0.771,0.271-1.178-0.063c-0.4-0.33-0.521-0.847-0.275-1.146
				c0.25-0.301,0.777-0.271,1.182,0.064C52.637,18.241,52.759,18.75,52.509,19.053z"/>
			<path fill="#FFFFFF" d="M59.485,16.596c-0.176,0.422-0.539,0.672-0.814,0.559c-0.277-0.112-0.359-0.546-0.184-0.973
				c0.172-0.422,0.537-0.672,0.814-0.559C59.575,15.74,59.659,16.174,59.485,16.596z"/>
			
				<path fill="none" stroke="#1E1E1C" stroke-width="0.2455" stroke-linecap="round" stroke-linejoin="round" stroke-miterlimit="10" d="
				M59.089,16.43c-1.15,1.662-3.941,4.391-7.303,2.019"/>
			<text transform="matrix(1 0 0 1 54.8152 23.4409)" fill="#1E1E1C" font-family="'ArialRoundedMTBold'" font-size="1.8378">AR-1</text>
			<g>
				<path fill="none" stroke="#1E1E1C" stroke-width="0.5411" stroke-miterlimit="10" d="M59.487,25.788
					c-0.078,0.586-0.625,1.062-1.215,1.062h-2.598c-0.59,0-1.152-0.477-1.254-1.059l-0.756-4.42c-0.1-0.582,0.301-1.061,0.891-1.061
					h4.58c0.59,0,1.012,0.479,0.936,1.064L59.487,25.788z"/>
			</g>
			<g>
				<path fill="#FFFFFF" d="M59.118,29.922c-0.186-0.475-0.816-0.861-1.406-0.861h-1.525c-0.59,0-1.268,0.389-1.506,0.861
					c-0.236,0.473,0.053,0.859,0.643,0.859h3.057C58.968,30.783,59.302,30.395,59.118,29.922z"/>
				<path fill="none" stroke="#1E1E1C" stroke-width="0.5411" stroke-miterlimit="10" d="M59.118,29.922
					c-0.186-0.475-0.816-0.861-1.406-0.861h-1.525c-0.59,0-1.268,0.389-1.506,0.861c-0.236,0.473,0.053,0.859,0.643,0.859h3.057
					C58.968,30.783,59.302,30.395,59.118,29.922z"/>
			</g>
			
				<rect x="56.403" y="26.852" fill="#FFFFFF" stroke="#1E1E1C" stroke-width="0.5411" stroke-miterlimit="10" width="0.893" height="2.209"/>
			
				<path fill="none" stroke="#1E1E1C" stroke-width="0.4909" stroke-linecap="round" stroke-linejoin="round" stroke-miterlimit="10" d="
				M60.864,25.622c0.082-0.479,0.418-0.824,0.758-0.768c0.342,0.055,0.553,0.484,0.475,0.967"/>
			
				<path fill="none" stroke="#1E1E1C" stroke-width="0.4909" stroke-linecap="round" stroke-linejoin="round" stroke-miterlimit="10" d="
				M43.323,20.258c0.27,0.191,0.408,0.471,0.328,0.717c-0.109,0.328-0.572,0.471-1.033,0.312"/>
		</g>
		<g>
			
				<line fill="none" stroke="#1E1E1C" stroke-width="0.9818" stroke-linecap="round" stroke-linejoin="round" stroke-miterlimit="10" x1="42.563" y1="13.729" x2="42.563" y2="30.334"/>
			<g>
				<polygon fill="#9E9D9C" points="35.768,11.846 35.721,3.975 42.514,0 49.356,3.896 49.403,11.766 42.608,15.743 				"/>
				<polygon fill="none" stroke="#FFFFFF" stroke-width="0.5199" stroke-miterlimit="10" points="36.416,11.467 36.377,4.349 
					42.518,0.748 48.708,4.278 48.749,11.397 42.606,14.993 				"/>
				<text transform="matrix(0.7176 0 0 1 37.4661 10.0776)" fill="#FFFFFF" font-family="'ArialNarrow-Bold'" font-size="6.3972">STOP</text>
			</g>
		</g>
	</g>
	<g>
		
			<radialGradient id="SVGID_2_" cx="11227.8311" cy="4935.3062" r="41.5257" gradientTransform="matrix(-0.4097 0 0 0.0996 4617.332 -460.6362)" gradientUnits="userSpaceOnUse">
			<stop  offset="0" style="stop-color:#9C9C9C"/>
			<stop  offset="0.019" style="stop-color:#A2A1A1"/>
			<stop  offset="0.2086" style="stop-color:#D4D4D4"/>
			<stop  offset="0.3423" style="stop-color:#E2E1E2"/>
			<stop  offset="0.5547" style="stop-color:#F2F2F2"/>
			<stop  offset="0.7721" style="stop-color:#FCFCFC"/>
			<stop  offset="1" style="stop-color:#FFFFFF"/>
		</radialGradient>
		<ellipse fill="url(#SVGID_2_)" cx="17.29" cy="30.937" rx="17.29" ry="4.572"/>
		<g>
			<path fill="#9E9D9C" d="M21.168,11.163c-0.74,2.27-3.178,3.51-5.445,2.77c-2.27-0.736-3.512-3.174-2.771-5.44
				c0.738-2.271,3.174-3.512,5.447-2.771C20.664,6.456,21.906,8.893,21.168,11.163z"/>
			
				<rect x="14.018" y="5.231" transform="matrix(0.5805 0.8143 -0.8143 0.5805 10.8148 -9.3218)" fill="#1E1E1C" width="0.873" height="1.207"/>
			<path fill="#1E1E1C" d="M10.809,10.581c1.111-3.236-0.521-4.872,0.459-6.823c0.966-1.93,4.095-0.705,3.425,1.373
				c-0.562,0.397-0.982,0.7-0.982,0.7s-0.998-0.803-1.225,0.399C12.207,7.691,11.922,8.734,10.809,10.581z"/>
			<path fill="#FFFFFF" d="M20.408,10.288c-0.082,0.26-0.277,0.424-0.433,0.375c-0.153-0.051-0.213-0.298-0.127-0.555
				c0.084-0.258,0.273-0.424,0.431-0.373C20.434,9.786,20.49,10.035,20.408,10.288z"/>
			<path fill="#FFFFFF" d="M18.564,10.895c-0.087,0.264-0.304,0.431-0.486,0.369c-0.182-0.061-0.258-0.32-0.174-0.584
				c0.086-0.266,0.303-0.43,0.483-0.369C18.573,10.369,18.652,10.631,18.564,10.895z"/>
			<path fill="#1E1E1C" d="M18.318,12.936c0,0,0.817-1.444,1.588-0.684"/>
			
				<rect x="13.686" y="10.125" transform="matrix(0.9231 -0.3844 0.3844 0.9231 -3.4729 6.6597)" fill="#FFFFFF" stroke="#1E1E1C" stroke-width="0.4689" stroke-linecap="round" stroke-linejoin="round" stroke-miterlimit="10" width="2.469" height="3.782"/>
			<g>
				<polyline fill="none" stroke="#1E1E1C" stroke-width="0.4689" stroke-linecap="round" stroke-linejoin="round" points="
					14.541,12.018 12.906,18.303 15.254,15.825 				"/>
			</g>
			
				<polyline fill="none" stroke="#1E1E1C" stroke-width="0.4689" stroke-linecap="round" stroke-linejoin="round" stroke-miterlimit="10" points="
				23.363,10.456 23.625,15.163 19.518,15.457 			"/>
			
				<path fill="none" stroke="#1E1E1C" stroke-width="0.4689" stroke-linecap="round" stroke-linejoin="round" stroke-miterlimit="10" d="
				M16.154,25.788c0,0.154-0.726,5.201-0.726,5.201"/>
			
				<path fill="none" stroke="#1E1E1C" stroke-width="0.4689" stroke-linecap="round" stroke-linejoin="round" stroke-miterlimit="10" d="
				M18.998,25.788c0,0.154,0.225,5.201,0.225,5.201"/>
			<polygon fill="#9D9D9C" points="20.572,24.885 14.639,24.885 16.191,15.094 18.602,15.094 			"/>
			<path fill="#1E1E1C" d="M19.555,6.637c0,0,0.404,0.658,1.697,0.969c-2.168-3.364-7.52-3.382-8.693,1.859
				c0.199,0.99,2.068,0.131,2.158-0.309c-0.09-0.221-0.045-0.418-0.045-0.418s0.338,0.493,0.66,0.55
				c-0.199-0.903,0.264-1.103,0.264-1.103s0.22,0.66,1.078,0.574c0.176-1.344,1.045-1.689,1.045-1.689s-0.043,0.57,0.066,1.164
				c0.459-0.985,0.832-1.352,0.832-1.352s0.545,0.95,1.143,1.105C19.234,7.202,19.555,6.637,19.555,6.637z"/>
			<polygon fill="#1E1E1C" points="18.037,19.342 16.832,21.777 16.123,20.618 16.258,24.915 17.189,22.742 17.648,23.077 			"/>
			<polygon fill="#1E1E1C" points="17.641,18.172 17.201,15.158 18.236,15.217 			"/>
		</g>
	</g>
</g>
</svg>
