<?xml version="1.0" encoding="utf-8"?>
<!-- Generator: Adobe Illustrator 15.0.2, SVG Export Plug-In . SVG Version: 6.00 Build 0)  -->
<!DOCTYPE svg PUBLIC "-//W3C//DTD SVG 1.1//EN" "http://www.w3.org/Graphics/SVG/1.1/DTD/svg11.dtd">
<svg version="1.1" id="Layer_1" xmlns="http://www.w3.org/2000/svg" xmlns:xlink="http://www.w3.org/1999/xlink" x="0px" y="0px"
	 width="91.021px" height="19.354px" viewBox="-2.592 17.126 91.021 19.354" enable-background="new -2.592 17.126 91.021 19.354"
	 xml:space="preserve">
<g>
	<g>
		<path fill="#F19106" d="M68.272,32.627c0,1.648-1.351,3-3,3H0.408c-1.65,0-3-1.352-3-3v-12.5c0-1.649,1.35-3,3-3h64.864
			c1.649,0,3,1.351,3,3V32.627z"/>
	</g>
	<path fill="#F19106" d="M67.97,27.239v-5.866c0,0,2.755-0.044,3.406,1.003C68.689,23.575,67.97,27.239,67.97,27.239z"/>
	<g>
		<path fill="#FFFFFF" d="M3.354,23.773H2.683v1.025c0,0.146-0.035,0.257-0.104,0.333c-0.068,0.075-0.156,0.113-0.262,0.113
			c-0.11,0-0.199-0.037-0.267-0.112S1.95,24.948,1.95,24.803v-2.791c0-0.161,0.037-0.276,0.11-0.346
			c0.074-0.069,0.192-0.104,0.354-0.104h0.94c0.278,0,0.493,0.021,0.643,0.064c0.148,0.041,0.276,0.109,0.384,0.204
			c0.108,0.096,0.189,0.213,0.246,0.352c0.056,0.138,0.084,0.293,0.084,0.467c0,0.368-0.114,0.647-0.341,0.838
			C4.142,23.678,3.804,23.773,3.354,23.773z M3.177,22.114H2.683v1.106h0.493c0.173,0,0.317-0.019,0.434-0.055
			s0.205-0.096,0.266-0.178s0.092-0.19,0.092-0.323c0-0.16-0.047-0.29-0.142-0.391C3.721,22.167,3.505,22.114,3.177,22.114z"/>
		<path fill="#FFFFFF" d="M5.276,24.834v-2.924c0-0.135,0.029-0.236,0.09-0.306c0.06-0.069,0.141-0.104,0.243-0.104
			c0.102,0,0.185,0.034,0.247,0.103s0.094,0.17,0.094,0.307v2.924c0,0.137-0.032,0.239-0.095,0.308
			c-0.063,0.068-0.146,0.103-0.246,0.103c-0.099,0-0.179-0.035-0.241-0.106C5.306,25.068,5.276,24.966,5.276,24.834z"/>
		<path fill="#FFFFFF" d="M8.528,24.04H7.21c0.002,0.153,0.032,0.288,0.093,0.405c0.06,0.117,0.14,0.205,0.239,0.264
			c0.1,0.06,0.21,0.09,0.33,0.09c0.08,0,0.154-0.01,0.221-0.029c0.066-0.019,0.132-0.048,0.194-0.089
			c0.062-0.04,0.12-0.083,0.173-0.129c0.053-0.047,0.121-0.109,0.205-0.188c0.034-0.029,0.084-0.044,0.147-0.044
			c0.069,0,0.125,0.019,0.168,0.057s0.064,0.092,0.064,0.16c0,0.062-0.023,0.133-0.071,0.214c-0.048,0.082-0.12,0.16-0.217,0.234
			c-0.096,0.075-0.217,0.138-0.362,0.187c-0.146,0.05-0.313,0.074-0.503,0.074c-0.433,0-0.77-0.123-1.01-0.37
			s-0.36-0.582-0.36-1.005c0-0.199,0.029-0.385,0.089-0.555c0.059-0.17,0.146-0.316,0.259-0.438s0.254-0.215,0.42-0.28
			c0.166-0.064,0.351-0.098,0.553-0.098c0.264,0,0.49,0.056,0.679,0.167s0.329,0.255,0.423,0.431
			c0.094,0.177,0.141,0.355,0.141,0.538c0,0.17-0.048,0.28-0.146,0.33C8.842,24.015,8.705,24.04,8.528,24.04z M7.21,23.657h1.223
			c-0.017-0.23-0.079-0.402-0.187-0.518c-0.108-0.114-0.25-0.171-0.426-0.171c-0.168,0-0.306,0.058-0.414,0.174
			C7.299,23.258,7.233,23.43,7.21,23.657z"/>
		<path fill="#FFFFFF" d="M11.355,24.865c-0.163,0.127-0.32,0.222-0.473,0.285s-0.323,0.095-0.513,0.095
			c-0.173,0-0.324-0.034-0.455-0.103s-0.231-0.16-0.303-0.277c-0.07-0.117-0.106-0.244-0.106-0.381c0-0.184,0.059-0.341,0.176-0.472
			c0.117-0.13,0.277-0.217,0.481-0.262c0.043-0.01,0.149-0.032,0.318-0.066c0.17-0.034,0.315-0.066,0.437-0.095
			c0.12-0.029,0.252-0.064,0.394-0.105c-0.009-0.178-0.044-0.308-0.107-0.392c-0.063-0.083-0.195-0.124-0.394-0.124
			c-0.172,0-0.301,0.023-0.387,0.071c-0.087,0.048-0.161,0.119-0.223,0.215s-0.105,0.158-0.131,0.188
			c-0.025,0.031-0.08,0.046-0.164,0.046c-0.076,0-0.142-0.024-0.196-0.072c-0.056-0.049-0.083-0.111-0.083-0.187
			c0-0.119,0.042-0.234,0.126-0.346c0.084-0.112,0.215-0.204,0.393-0.276c0.178-0.073,0.399-0.109,0.665-0.109
			c0.296,0,0.529,0.035,0.698,0.105c0.17,0.069,0.289,0.181,0.359,0.332s0.105,0.353,0.105,0.603c0,0.158-0.001,0.292-0.002,0.402
			s-0.002,0.233-0.003,0.368c0,0.127,0.021,0.259,0.062,0.396c0.042,0.137,0.062,0.226,0.062,0.266c0,0.068-0.032,0.132-0.097,0.188
			c-0.065,0.057-0.139,0.085-0.222,0.085c-0.069,0-0.138-0.032-0.205-0.098C11.503,25.083,11.431,24.988,11.355,24.865z
			 M11.311,23.889c-0.099,0.036-0.242,0.074-0.431,0.115c-0.188,0.04-0.319,0.069-0.392,0.089c-0.072,0.019-0.142,0.056-0.208,0.11
			c-0.065,0.056-0.099,0.133-0.099,0.231c0,0.102,0.039,0.188,0.116,0.261c0.077,0.071,0.179,0.107,0.304,0.107
			c0.134,0,0.257-0.029,0.369-0.088c0.113-0.059,0.195-0.134,0.248-0.227c0.062-0.102,0.092-0.27,0.092-0.503V23.889z"/>
		<path fill="#FFFFFF" d="M14.828,24.363c0,0.187-0.045,0.346-0.136,0.479c-0.09,0.132-0.224,0.232-0.401,0.301
			c-0.177,0.068-0.392,0.103-0.646,0.103c-0.242,0-0.449-0.037-0.622-0.111c-0.173-0.073-0.301-0.166-0.383-0.277
			s-0.124-0.223-0.124-0.335c0-0.074,0.026-0.137,0.079-0.189s0.12-0.079,0.2-0.079c0.071,0,0.125,0.017,0.163,0.052
			c0.038,0.034,0.074,0.083,0.108,0.146c0.069,0.12,0.152,0.21,0.248,0.27c0.097,0.059,0.229,0.089,0.395,0.089
			c0.135,0,0.245-0.03,0.332-0.091c0.086-0.06,0.13-0.129,0.13-0.206c0-0.118-0.045-0.205-0.135-0.259
			c-0.09-0.055-0.237-0.106-0.443-0.156c-0.232-0.058-0.421-0.118-0.566-0.182c-0.146-0.062-0.263-0.146-0.35-0.25
			c-0.088-0.104-0.131-0.231-0.131-0.383c0-0.135,0.04-0.263,0.121-0.383c0.08-0.12,0.199-0.216,0.356-0.288
			c0.157-0.071,0.347-0.107,0.569-0.107c0.175,0,0.331,0.019,0.471,0.055c0.139,0.036,0.255,0.085,0.348,0.146
			c0.093,0.062,0.164,0.129,0.213,0.202c0.048,0.074,0.072,0.147,0.072,0.218c0,0.077-0.025,0.141-0.077,0.19
			c-0.052,0.049-0.126,0.074-0.222,0.074c-0.068,0-0.128-0.021-0.176-0.06c-0.049-0.04-0.104-0.099-0.167-0.178
			c-0.051-0.066-0.111-0.119-0.181-0.158s-0.163-0.06-0.281-0.06c-0.122,0-0.224,0.026-0.304,0.078
			c-0.081,0.052-0.121,0.116-0.121,0.193c0,0.071,0.029,0.129,0.089,0.175c0.06,0.045,0.139,0.082,0.239,0.112
			c0.101,0.029,0.239,0.065,0.415,0.108c0.209,0.051,0.38,0.112,0.513,0.183c0.133,0.071,0.232,0.154,0.301,0.251
			C14.794,24.129,14.828,24.24,14.828,24.363z"/>
		<path fill="#FFFFFF" d="M17.28,24.04h-1.318c0.002,0.153,0.032,0.288,0.093,0.405c0.06,0.117,0.14,0.205,0.239,0.264
			c0.1,0.06,0.21,0.09,0.33,0.09c0.08,0,0.154-0.01,0.221-0.029c0.066-0.019,0.132-0.048,0.194-0.089
			c0.062-0.04,0.12-0.083,0.173-0.129c0.053-0.047,0.121-0.109,0.205-0.188c0.034-0.029,0.084-0.044,0.147-0.044
			c0.069,0,0.125,0.019,0.168,0.057s0.064,0.092,0.064,0.16c0,0.062-0.023,0.133-0.071,0.214c-0.048,0.082-0.12,0.16-0.217,0.234
			c-0.096,0.075-0.217,0.138-0.362,0.187c-0.146,0.05-0.313,0.074-0.503,0.074c-0.433,0-0.77-0.123-1.01-0.37
			s-0.36-0.582-0.36-1.005c0-0.199,0.029-0.385,0.089-0.555c0.059-0.17,0.146-0.316,0.259-0.438s0.254-0.215,0.42-0.28
			c0.166-0.064,0.351-0.098,0.553-0.098c0.264,0,0.49,0.056,0.679,0.167s0.329,0.255,0.423,0.431
			c0.094,0.177,0.141,0.355,0.141,0.538c0,0.17-0.048,0.28-0.146,0.33C17.594,24.015,17.457,24.04,17.28,24.04z M15.962,23.657
			h1.223c-0.017-0.23-0.079-0.402-0.187-0.518c-0.108-0.114-0.25-0.171-0.426-0.171c-0.168,0-0.306,0.058-0.414,0.174
			C16.051,23.258,15.985,23.43,15.962,23.657z"/>
		<path fill="#FFFFFF" d="M20.328,21.911v1.001c0.085-0.1,0.169-0.178,0.25-0.235c0.082-0.058,0.172-0.101,0.271-0.129
			c0.099-0.029,0.205-0.044,0.319-0.044c0.171,0,0.322,0.036,0.455,0.109c0.133,0.072,0.236,0.178,0.312,0.315
			c0.048,0.081,0.08,0.171,0.097,0.271c0.016,0.1,0.024,0.215,0.024,0.345v1.291c0,0.136-0.031,0.237-0.093,0.307
			s-0.144,0.104-0.246,0.104c-0.222,0-0.333-0.137-0.333-0.41v-1.138c0-0.216-0.032-0.382-0.097-0.498
			c-0.063-0.116-0.186-0.174-0.365-0.174c-0.12,0-0.229,0.034-0.324,0.103c-0.097,0.068-0.169,0.161-0.217,0.28
			c-0.036,0.101-0.054,0.279-0.054,0.536v0.891c0,0.134-0.03,0.235-0.091,0.306c-0.06,0.069-0.144,0.104-0.25,0.104
			c-0.223,0-0.334-0.137-0.334-0.41v-2.924c0-0.137,0.029-0.238,0.088-0.307s0.141-0.103,0.246-0.103c0.106,0,0.19,0.034,0.25,0.104
			C20.298,21.674,20.328,21.776,20.328,21.911z"/>
		<path fill="#FFFFFF" d="M25.247,23.875c0,0.2-0.031,0.386-0.094,0.556c-0.062,0.169-0.153,0.315-0.271,0.437
			c-0.119,0.122-0.261,0.216-0.425,0.28c-0.165,0.065-0.351,0.098-0.556,0.098c-0.204,0-0.388-0.033-0.551-0.099
			s-0.305-0.16-0.424-0.282c-0.119-0.123-0.21-0.268-0.271-0.436c-0.062-0.167-0.093-0.352-0.093-0.554
			c0-0.204,0.031-0.392,0.094-0.561c0.062-0.17,0.152-0.314,0.27-0.435s0.259-0.213,0.425-0.278c0.166-0.064,0.35-0.098,0.551-0.098
			c0.204,0,0.389,0.033,0.556,0.099c0.166,0.066,0.309,0.16,0.427,0.282c0.119,0.122,0.209,0.267,0.271,0.435
			S25.247,23.671,25.247,23.875z M24.57,23.875c0-0.275-0.061-0.489-0.182-0.643c-0.121-0.152-0.283-0.229-0.487-0.229
			c-0.132,0-0.248,0.034-0.349,0.103s-0.178,0.169-0.231,0.303c-0.055,0.133-0.082,0.289-0.082,0.467c0,0.176,0.026,0.33,0.08,0.462
			s0.13,0.232,0.229,0.302c0.1,0.07,0.218,0.105,0.353,0.105c0.204,0,0.366-0.077,0.487-0.231
			C24.51,24.359,24.57,24.146,24.57,23.875z"/>
		<path fill="#FFFFFF" d="M25.778,24.834v-2.924c0-0.135,0.029-0.236,0.09-0.306c0.06-0.069,0.141-0.104,0.243-0.104
			c0.102,0,0.185,0.034,0.247,0.103s0.094,0.17,0.094,0.307v2.924c0,0.137-0.032,0.239-0.095,0.308
			c-0.063,0.068-0.146,0.103-0.246,0.103c-0.099,0-0.179-0.035-0.241-0.106C25.808,25.068,25.778,24.966,25.778,24.834z"/>
		<path fill="#FFFFFF" d="M28.995,24.86v-0.067c-0.091,0.104-0.18,0.188-0.268,0.254c-0.089,0.064-0.184,0.114-0.287,0.147
			c-0.103,0.034-0.215,0.051-0.337,0.051c-0.161,0-0.311-0.034-0.448-0.103s-0.256-0.166-0.356-0.292
			c-0.101-0.127-0.177-0.276-0.229-0.447s-0.078-0.356-0.078-0.556c0-0.422,0.104-0.75,0.309-0.985
			c0.206-0.235,0.477-0.354,0.812-0.354c0.194,0,0.358,0.034,0.492,0.101c0.133,0.066,0.263,0.169,0.39,0.308v-0.995
			c0-0.139,0.027-0.243,0.083-0.314c0.055-0.07,0.134-0.105,0.235-0.105c0.103,0,0.181,0.032,0.236,0.098
			c0.055,0.064,0.082,0.16,0.082,0.287v2.974c0,0.128-0.029,0.225-0.089,0.289c-0.059,0.063-0.136,0.096-0.229,0.096
			c-0.092,0-0.168-0.033-0.229-0.1C29.025,25.079,28.995,24.983,28.995,24.86z M27.669,23.87c0,0.183,0.028,0.338,0.085,0.467
			c0.058,0.128,0.135,0.225,0.233,0.29c0.099,0.064,0.207,0.098,0.324,0.098c0.118,0,0.227-0.031,0.324-0.093
			s0.176-0.156,0.234-0.284s0.088-0.287,0.088-0.478c0-0.18-0.029-0.334-0.088-0.463c-0.059-0.13-0.137-0.229-0.236-0.297
			s-0.209-0.103-0.327-0.103c-0.124,0-0.234,0.035-0.331,0.105c-0.098,0.069-0.173,0.17-0.227,0.301
			C27.696,23.544,27.669,23.697,27.669,23.87z"/>
		<path fill="#FFFFFF" d="M31.993,22.923l0.44,1.507l0.399-1.4c0.043-0.146,0.074-0.247,0.096-0.3
			c0.021-0.054,0.059-0.104,0.115-0.153c0.058-0.049,0.135-0.073,0.233-0.073c0.101,0,0.18,0.024,0.236,0.073
			s0.097,0.102,0.12,0.158c0.022,0.057,0.055,0.155,0.096,0.295l0.4,1.4l0.444-1.507c0.029-0.108,0.054-0.188,0.071-0.235
			c0.019-0.049,0.049-0.092,0.092-0.129s0.104-0.056,0.186-0.056c0.08,0,0.15,0.028,0.209,0.084c0.06,0.057,0.09,0.122,0.09,0.198
			c0,0.068-0.026,0.173-0.077,0.313l-0.551,1.615c-0.048,0.136-0.085,0.235-0.111,0.296s-0.067,0.115-0.124,0.163
			s-0.135,0.071-0.233,0.071c-0.103,0-0.183-0.025-0.241-0.076s-0.102-0.113-0.13-0.188c-0.027-0.074-0.058-0.171-0.091-0.289
			l-0.386-1.314l-0.372,1.314c-0.05,0.183-0.104,0.32-0.161,0.413c-0.058,0.094-0.159,0.14-0.304,0.14
			c-0.074,0-0.137-0.015-0.188-0.043c-0.052-0.029-0.096-0.07-0.13-0.123c-0.034-0.054-0.065-0.117-0.092-0.19
			s-0.047-0.132-0.062-0.174l-0.546-1.615c-0.054-0.151-0.081-0.256-0.081-0.313c0-0.073,0.028-0.138,0.086-0.195
			s0.129-0.087,0.213-0.087c0.111,0,0.188,0.032,0.227,0.096C31.907,22.663,31.949,22.77,31.993,22.923z"/>
		<path fill="#FFFFFF" d="M36.344,21.911v1.001c0.085-0.1,0.169-0.178,0.25-0.235c0.082-0.058,0.172-0.101,0.271-0.129
			c0.099-0.029,0.205-0.044,0.319-0.044c0.171,0,0.322,0.036,0.455,0.109c0.133,0.072,0.236,0.178,0.312,0.315
			c0.048,0.081,0.08,0.171,0.097,0.271c0.016,0.1,0.024,0.215,0.024,0.345v1.291c0,0.136-0.031,0.237-0.093,0.307
			s-0.144,0.104-0.246,0.104c-0.222,0-0.333-0.137-0.333-0.41v-1.138c0-0.216-0.032-0.382-0.097-0.498
			c-0.063-0.116-0.186-0.174-0.365-0.174c-0.12,0-0.229,0.034-0.324,0.103c-0.097,0.068-0.169,0.161-0.217,0.28
			c-0.036,0.101-0.054,0.279-0.054,0.536v0.891c0,0.134-0.03,0.235-0.091,0.306c-0.06,0.069-0.144,0.104-0.25,0.104
			c-0.223,0-0.334-0.137-0.334-0.41v-2.924c0-0.137,0.029-0.238,0.088-0.307s0.141-0.103,0.246-0.103c0.106,0,0.19,0.034,0.25,0.104
			C36.314,21.674,36.344,21.776,36.344,21.911z"/>
		<path fill="#FFFFFF" d="M39.081,22.19c-0.095,0-0.175-0.028-0.241-0.086s-0.1-0.14-0.1-0.245c0-0.095,0.034-0.174,0.102-0.235
			c0.068-0.062,0.148-0.093,0.239-0.093c0.087,0,0.164,0.028,0.231,0.084s0.102,0.138,0.102,0.244c0,0.104-0.033,0.186-0.099,0.243
			C39.249,22.161,39.171,22.19,39.081,22.19z M39.414,22.886v1.948c0,0.136-0.032,0.237-0.097,0.307
			c-0.063,0.069-0.146,0.104-0.244,0.104s-0.179-0.035-0.241-0.106c-0.062-0.07-0.092-0.172-0.092-0.304v-1.929
			c0-0.133,0.03-0.233,0.092-0.301c0.062-0.067,0.143-0.102,0.241-0.102s0.181,0.034,0.244,0.102
			C39.382,22.672,39.414,22.766,39.414,22.886z"/>
		<path fill="#FFFFFF" d="M40.111,24.834v-2.924c0-0.135,0.029-0.236,0.09-0.306c0.06-0.069,0.141-0.104,0.243-0.104
			c0.102,0,0.185,0.034,0.247,0.103s0.094,0.17,0.094,0.307v2.924c0,0.137-0.032,0.239-0.095,0.308
			c-0.063,0.068-0.146,0.103-0.246,0.103c-0.099,0-0.179-0.035-0.241-0.106C40.141,25.068,40.111,24.966,40.111,24.834z"/>
		<path fill="#FFFFFF" d="M43.362,24.04h-1.318c0.002,0.153,0.032,0.288,0.093,0.405c0.06,0.117,0.14,0.205,0.239,0.264
			c0.1,0.06,0.21,0.09,0.33,0.09c0.08,0,0.154-0.01,0.221-0.029c0.066-0.019,0.132-0.048,0.194-0.089
			c0.062-0.04,0.12-0.083,0.173-0.129c0.053-0.047,0.121-0.109,0.205-0.188c0.034-0.029,0.084-0.044,0.147-0.044
			c0.069,0,0.125,0.019,0.168,0.057s0.064,0.092,0.064,0.16c0,0.062-0.023,0.133-0.071,0.214c-0.048,0.082-0.12,0.16-0.217,0.234
			c-0.096,0.075-0.217,0.138-0.362,0.187c-0.146,0.05-0.313,0.074-0.503,0.074c-0.433,0-0.77-0.123-1.01-0.37
			s-0.36-0.582-0.36-1.005c0-0.199,0.029-0.385,0.089-0.555c0.059-0.17,0.146-0.316,0.259-0.438s0.254-0.215,0.42-0.28
			c0.166-0.064,0.351-0.098,0.553-0.098c0.264,0,0.49,0.056,0.679,0.167s0.329,0.255,0.423,0.431
			c0.094,0.177,0.141,0.355,0.141,0.538c0,0.17-0.048,0.28-0.146,0.33C43.676,24.015,43.539,24.04,43.362,24.04z M42.044,23.657
			h1.223c-0.017-0.23-0.079-0.402-0.187-0.518c-0.108-0.114-0.25-0.171-0.426-0.171c-0.168,0-0.306,0.058-0.414,0.174
			C42.133,23.258,42.067,23.43,42.044,23.657z"/>
		<path fill="#FFFFFF" d="M1.979,30.867v-2.852c0-0.148,0.033-0.26,0.102-0.334c0.067-0.074,0.154-0.111,0.262-0.111
			c0.11,0,0.199,0.036,0.268,0.109c0.068,0.074,0.103,0.186,0.103,0.336v2.852c0,0.15-0.034,0.262-0.103,0.336
			s-0.157,0.111-0.268,0.111c-0.105,0-0.192-0.037-0.261-0.113C2.013,31.127,1.979,31.016,1.979,30.867z"/>
		<path fill="#FFFFFF" d="M4.787,28.633h0.074v-0.406c0-0.107,0.003-0.193,0.009-0.254c0.006-0.062,0.022-0.115,0.049-0.16
			c0.025-0.047,0.063-0.084,0.113-0.113c0.049-0.027,0.104-0.042,0.165-0.042c0.086,0,0.163,0.033,0.232,0.097
			c0.046,0.043,0.075,0.094,0.088,0.156c0.012,0.062,0.019,0.148,0.019,0.264v0.459h0.247c0.095,0,0.168,0.021,0.218,0.068
			c0.051,0.045,0.075,0.102,0.075,0.174c0,0.09-0.035,0.152-0.107,0.189c-0.071,0.037-0.174,0.055-0.307,0.055H5.536v1.24
			c0,0.104,0.003,0.186,0.011,0.242s0.027,0.104,0.06,0.139s0.084,0.053,0.156,0.053c0.04,0,0.094-0.006,0.161-0.021
			c0.067-0.014,0.12-0.02,0.158-0.02c0.054,0,0.103,0.021,0.146,0.064s0.065,0.098,0.065,0.162c0,0.109-0.06,0.191-0.178,0.25
			c-0.118,0.057-0.289,0.086-0.511,0.086c-0.211,0-0.371-0.035-0.479-0.107c-0.108-0.07-0.18-0.168-0.214-0.293
			c-0.033-0.125-0.051-0.293-0.051-0.502v-1.293H4.772c-0.097,0-0.171-0.023-0.222-0.07c-0.052-0.045-0.077-0.104-0.077-0.174
			c0-0.072,0.027-0.129,0.081-0.174C4.607,28.654,4.685,28.633,4.787,28.633z"/>
		<path fill="#FFFFFF" d="M7.21,30.342v0.562c0,0.137-0.032,0.238-0.097,0.307s-0.146,0.104-0.244,0.104
			c-0.098,0-0.177-0.035-0.239-0.104c-0.062-0.07-0.095-0.172-0.095-0.307v-1.877c0-0.303,0.11-0.455,0.329-0.455
			c0.111,0,0.192,0.037,0.242,0.107c0.049,0.07,0.076,0.176,0.081,0.312c0.081-0.137,0.163-0.242,0.248-0.312
			s0.198-0.107,0.34-0.107s0.279,0.037,0.412,0.107c0.134,0.07,0.2,0.164,0.2,0.281c0,0.082-0.028,0.15-0.085,0.203
			c-0.057,0.055-0.118,0.08-0.185,0.08c-0.024,0-0.084-0.014-0.179-0.045s-0.178-0.045-0.251-0.045
			c-0.099,0-0.179,0.025-0.241,0.076c-0.062,0.053-0.111,0.129-0.146,0.232c-0.034,0.102-0.058,0.223-0.071,0.363
			C7.217,29.967,7.21,30.139,7.21,30.342z"/>
		<path fill="#FFFFFF" d="M9.378,31.398l0.062-0.15l-0.83-2.09c-0.051-0.119-0.076-0.207-0.076-0.262
			c0-0.057,0.015-0.111,0.044-0.16c0.03-0.049,0.071-0.09,0.123-0.119s0.105-0.045,0.161-0.045c0.098,0,0.171,0.031,0.22,0.094
			c0.05,0.061,0.094,0.15,0.131,0.266l0.571,1.658l0.54-1.543c0.043-0.125,0.082-0.223,0.116-0.293
			c0.035-0.072,0.071-0.119,0.11-0.145c0.038-0.023,0.093-0.037,0.164-0.037c0.051,0,0.1,0.014,0.146,0.041s0.083,0.064,0.109,0.111
			c0.025,0.045,0.038,0.094,0.038,0.145c-0.007,0.031-0.018,0.076-0.032,0.133c-0.015,0.059-0.033,0.117-0.055,0.176l-0.879,2.303
			c-0.076,0.201-0.149,0.361-0.223,0.477c-0.072,0.115-0.168,0.203-0.287,0.266c-0.119,0.061-0.28,0.092-0.483,0.092
			c-0.197,0-0.346-0.021-0.444-0.064s-0.147-0.121-0.147-0.234c0-0.078,0.023-0.137,0.07-0.18c0.047-0.041,0.116-0.062,0.208-0.062
			c0.036,0,0.072,0.006,0.106,0.016c0.043,0.01,0.08,0.014,0.111,0.014c0.077,0,0.138-0.012,0.183-0.033
			c0.044-0.023,0.084-0.064,0.12-0.121C9.291,31.592,9.332,31.508,9.378,31.398z"/>
		<path fill="#FFFFFF" d="M12.798,28.633h0.074v-0.406c0-0.107,0.003-0.193,0.009-0.254c0.006-0.062,0.022-0.115,0.049-0.16
			c0.025-0.047,0.063-0.084,0.113-0.113c0.049-0.027,0.104-0.042,0.165-0.042c0.086,0,0.163,0.033,0.232,0.097
			c0.046,0.043,0.075,0.094,0.088,0.156c0.012,0.062,0.019,0.148,0.019,0.264v0.459h0.247c0.095,0,0.168,0.021,0.218,0.068
			c0.051,0.045,0.075,0.102,0.075,0.174c0,0.09-0.035,0.152-0.107,0.189c-0.071,0.037-0.174,0.055-0.307,0.055h-0.126v1.24
			c0,0.104,0.003,0.186,0.011,0.242s0.027,0.104,0.06,0.139s0.084,0.053,0.156,0.053c0.04,0,0.094-0.006,0.161-0.021
			c0.067-0.014,0.12-0.02,0.158-0.02c0.054,0,0.103,0.021,0.146,0.064s0.065,0.098,0.065,0.162c0,0.109-0.06,0.191-0.178,0.25
			c-0.118,0.057-0.289,0.086-0.511,0.086c-0.211,0-0.371-0.035-0.479-0.107c-0.108-0.07-0.18-0.168-0.214-0.293
			c-0.033-0.125-0.051-0.293-0.051-0.502v-1.293h-0.089c-0.097,0-0.171-0.023-0.222-0.07c-0.052-0.045-0.077-0.104-0.077-0.174
			c0-0.072,0.027-0.129,0.081-0.174C12.618,28.654,12.696,28.633,12.798,28.633z"/>
		<path fill="#FFFFFF" d="M17.075,29.943c0,0.201-0.031,0.387-0.094,0.557c-0.062,0.168-0.153,0.314-0.271,0.436
			c-0.119,0.123-0.261,0.217-0.425,0.281c-0.165,0.064-0.351,0.098-0.556,0.098c-0.204,0-0.388-0.033-0.551-0.1
			c-0.163-0.064-0.305-0.16-0.424-0.281c-0.119-0.123-0.21-0.268-0.271-0.436s-0.093-0.352-0.093-0.555s0.031-0.391,0.094-0.561
			s0.152-0.314,0.27-0.434c0.117-0.121,0.259-0.213,0.425-0.279c0.166-0.064,0.35-0.098,0.551-0.098c0.204,0,0.389,0.033,0.556,0.1
			c0.166,0.066,0.309,0.16,0.427,0.281c0.119,0.123,0.209,0.268,0.271,0.436S17.075,29.74,17.075,29.943z M16.398,29.943
			c0-0.275-0.061-0.488-0.182-0.643c-0.121-0.152-0.283-0.229-0.487-0.229c-0.132,0-0.248,0.033-0.349,0.102
			s-0.178,0.17-0.231,0.303c-0.055,0.133-0.082,0.289-0.082,0.467c0,0.176,0.026,0.33,0.08,0.463
			c0.054,0.131,0.13,0.232,0.229,0.301c0.1,0.07,0.218,0.105,0.353,0.105c0.204,0,0.366-0.076,0.487-0.23
			S16.398,30.215,16.398,29.943z"/>
		<path fill="#FFFFFF" d="M21.288,30.48c0,0.082-0.025,0.172-0.075,0.268s-0.127,0.188-0.229,0.273s-0.232,0.156-0.389,0.209
			c-0.157,0.053-0.333,0.078-0.529,0.078c-0.416,0-0.741-0.121-0.975-0.363c-0.234-0.242-0.351-0.568-0.351-0.977
			c0-0.277,0.053-0.521,0.16-0.734c0.106-0.211,0.262-0.377,0.464-0.492c0.203-0.115,0.444-0.174,0.727-0.174
			c0.174,0,0.334,0.025,0.48,0.076c0.146,0.051,0.269,0.117,0.37,0.197c0.102,0.082,0.179,0.168,0.232,0.258
			c0.053,0.092,0.08,0.178,0.08,0.256c0,0.082-0.03,0.15-0.091,0.205c-0.06,0.057-0.133,0.084-0.218,0.084
			c-0.057,0-0.103-0.014-0.14-0.043s-0.079-0.076-0.125-0.139c-0.082-0.125-0.168-0.221-0.258-0.283s-0.204-0.094-0.342-0.094
			c-0.199,0-0.36,0.078-0.481,0.234c-0.122,0.156-0.184,0.367-0.184,0.639c0,0.127,0.016,0.242,0.047,0.35
			c0.031,0.105,0.077,0.195,0.137,0.271c0.059,0.074,0.131,0.131,0.215,0.17s0.176,0.059,0.276,0.059
			c0.135,0,0.25-0.031,0.347-0.094s0.182-0.158,0.256-0.287c0.041-0.076,0.085-0.135,0.133-0.178s0.106-0.064,0.176-0.064
			c0.082,0,0.15,0.031,0.205,0.094C21.26,30.342,21.288,30.408,21.288,30.48z"/>
		<path fill="#FFFFFF" d="M24.399,29.943c0,0.201-0.031,0.387-0.094,0.557c-0.062,0.168-0.153,0.314-0.271,0.436
			c-0.119,0.123-0.261,0.217-0.425,0.281c-0.165,0.064-0.351,0.098-0.556,0.098c-0.204,0-0.388-0.033-0.551-0.1
			c-0.163-0.064-0.305-0.16-0.424-0.281c-0.119-0.123-0.21-0.268-0.271-0.436s-0.093-0.352-0.093-0.555s0.031-0.391,0.094-0.561
			s0.152-0.314,0.27-0.434c0.117-0.121,0.259-0.213,0.425-0.279c0.166-0.064,0.35-0.098,0.551-0.098c0.204,0,0.389,0.033,0.556,0.1
			c0.166,0.066,0.309,0.16,0.427,0.281c0.119,0.123,0.209,0.268,0.271,0.436S24.399,29.74,24.399,29.943z M23.722,29.943
			c0-0.275-0.061-0.488-0.182-0.643c-0.121-0.152-0.283-0.229-0.487-0.229c-0.132,0-0.248,0.033-0.349,0.102
			s-0.178,0.17-0.231,0.303c-0.055,0.133-0.082,0.289-0.082,0.467c0,0.176,0.026,0.33,0.08,0.463
			c0.054,0.131,0.13,0.232,0.229,0.301c0.1,0.07,0.218,0.105,0.353,0.105c0.204,0,0.366-0.076,0.487-0.23
			S23.722,30.215,23.722,29.943z"/>
		<path fill="#FFFFFF" d="M25.543,28.945v0.082c0.118-0.156,0.248-0.271,0.389-0.344c0.141-0.074,0.303-0.111,0.485-0.111
			c0.178,0,0.337,0.039,0.477,0.117c0.14,0.076,0.244,0.188,0.313,0.328c0.045,0.082,0.073,0.172,0.087,0.268
			c0.013,0.094,0.02,0.217,0.02,0.365v1.254c0,0.135-0.031,0.236-0.093,0.307c-0.062,0.068-0.142,0.104-0.241,0.104
			s-0.182-0.035-0.244-0.107c-0.062-0.07-0.094-0.172-0.094-0.303v-1.123c0-0.223-0.031-0.393-0.093-0.51
			c-0.062-0.119-0.185-0.178-0.369-0.178c-0.12,0-0.229,0.037-0.328,0.107c-0.099,0.072-0.172,0.17-0.218,0.295
			c-0.032,0.102-0.049,0.289-0.049,0.564v0.844c0,0.137-0.032,0.238-0.096,0.307s-0.145,0.104-0.245,0.104
			c-0.098,0-0.178-0.035-0.24-0.107c-0.062-0.07-0.094-0.172-0.094-0.303v-1.949c0-0.127,0.028-0.223,0.084-0.287
			c0.057-0.062,0.133-0.096,0.229-0.096c0.06,0,0.113,0.016,0.161,0.043s0.086,0.07,0.114,0.125
			C25.528,28.797,25.543,28.865,25.543,28.945z"/>
		<path fill="#FFFFFF" d="M28.598,28.945v0.082c0.118-0.156,0.248-0.271,0.389-0.344c0.141-0.074,0.303-0.111,0.485-0.111
			c0.178,0,0.337,0.039,0.477,0.117c0.14,0.076,0.244,0.188,0.313,0.328c0.045,0.082,0.073,0.172,0.087,0.268
			c0.013,0.094,0.02,0.217,0.02,0.365v1.254c0,0.135-0.031,0.236-0.093,0.307c-0.062,0.068-0.142,0.104-0.241,0.104
			s-0.182-0.035-0.244-0.107c-0.062-0.07-0.094-0.172-0.094-0.303v-1.123c0-0.223-0.031-0.393-0.093-0.51
			c-0.062-0.119-0.185-0.178-0.369-0.178c-0.12,0-0.229,0.037-0.328,0.107c-0.099,0.072-0.172,0.17-0.218,0.295
			c-0.032,0.102-0.049,0.289-0.049,0.564v0.844c0,0.137-0.032,0.238-0.096,0.307S28.4,31.314,28.3,31.314
			c-0.098,0-0.178-0.035-0.24-0.107c-0.062-0.07-0.094-0.172-0.094-0.303v-1.949c0-0.127,0.028-0.223,0.084-0.287
			c0.057-0.062,0.133-0.096,0.229-0.096c0.06,0,0.113,0.016,0.161,0.043s0.086,0.07,0.114,0.125
			C28.584,28.797,28.598,28.865,28.598,28.945z"/>
		<path fill="#FFFFFF" d="M32.922,30.109h-1.318c0.002,0.152,0.032,0.287,0.093,0.404c0.06,0.117,0.14,0.205,0.239,0.264
			c0.1,0.061,0.21,0.09,0.33,0.09c0.08,0,0.154-0.01,0.221-0.029c0.066-0.018,0.132-0.047,0.194-0.088s0.12-0.084,0.173-0.129
			c0.053-0.047,0.121-0.109,0.205-0.189c0.034-0.029,0.084-0.043,0.147-0.043c0.069,0,0.125,0.018,0.168,0.057
			c0.043,0.037,0.064,0.092,0.064,0.16c0,0.061-0.023,0.133-0.071,0.213c-0.048,0.082-0.12,0.16-0.217,0.234
			c-0.096,0.076-0.217,0.139-0.362,0.188c-0.146,0.049-0.313,0.074-0.503,0.074c-0.433,0-0.77-0.123-1.01-0.371
			c-0.24-0.246-0.36-0.582-0.36-1.004c0-0.199,0.029-0.385,0.089-0.555c0.059-0.17,0.146-0.316,0.259-0.439
			c0.113-0.121,0.254-0.215,0.42-0.279s0.351-0.098,0.553-0.098c0.264,0,0.49,0.055,0.679,0.166s0.329,0.256,0.423,0.432
			s0.141,0.355,0.141,0.537c0,0.17-0.048,0.281-0.146,0.33C33.235,30.084,33.098,30.109,32.922,30.109z M31.603,29.727h1.223
			c-0.017-0.23-0.079-0.402-0.187-0.518c-0.108-0.115-0.25-0.172-0.426-0.172c-0.168,0-0.306,0.059-0.414,0.174
			C31.692,29.328,31.627,29.5,31.603,29.727z"/>
		<path fill="#FFFFFF" d="M36.463,30.48c0,0.082-0.025,0.172-0.075,0.268s-0.127,0.188-0.229,0.273s-0.232,0.156-0.389,0.209
			c-0.157,0.053-0.333,0.078-0.529,0.078c-0.416,0-0.741-0.121-0.975-0.363c-0.234-0.242-0.351-0.568-0.351-0.977
			c0-0.277,0.053-0.521,0.16-0.734c0.106-0.211,0.262-0.377,0.464-0.492c0.203-0.115,0.444-0.174,0.727-0.174
			c0.174,0,0.334,0.025,0.48,0.076c0.146,0.051,0.269,0.117,0.37,0.197c0.102,0.082,0.179,0.168,0.232,0.258
			c0.053,0.092,0.08,0.178,0.08,0.256c0,0.082-0.03,0.15-0.091,0.205c-0.06,0.057-0.133,0.084-0.218,0.084
			c-0.057,0-0.103-0.014-0.14-0.043s-0.079-0.076-0.125-0.139c-0.082-0.125-0.168-0.221-0.258-0.283s-0.204-0.094-0.342-0.094
			c-0.199,0-0.36,0.078-0.481,0.234c-0.122,0.156-0.184,0.367-0.184,0.639c0,0.127,0.016,0.242,0.047,0.35
			c0.031,0.105,0.077,0.195,0.137,0.271c0.059,0.074,0.131,0.131,0.215,0.17s0.176,0.059,0.276,0.059
			c0.135,0,0.25-0.031,0.347-0.094s0.182-0.158,0.256-0.287c0.041-0.076,0.085-0.135,0.133-0.178s0.106-0.064,0.176-0.064
			c0.082,0,0.15,0.031,0.205,0.094C36.435,30.342,36.463,30.408,36.463,30.48z"/>
		<path fill="#FFFFFF" d="M37.088,28.633h0.074v-0.406c0-0.107,0.003-0.193,0.009-0.254c0.006-0.062,0.022-0.115,0.049-0.16
			c0.025-0.047,0.063-0.084,0.113-0.113c0.049-0.027,0.104-0.042,0.165-0.042c0.086,0,0.163,0.033,0.232,0.097
			c0.046,0.043,0.075,0.094,0.088,0.156c0.012,0.062,0.019,0.148,0.019,0.264v0.459h0.247c0.095,0,0.168,0.021,0.218,0.068
			c0.051,0.045,0.075,0.102,0.075,0.174c0,0.09-0.035,0.152-0.107,0.189c-0.071,0.037-0.174,0.055-0.307,0.055h-0.126v1.24
			c0,0.104,0.003,0.186,0.011,0.242s0.027,0.104,0.06,0.139s0.084,0.053,0.156,0.053c0.04,0,0.094-0.006,0.161-0.021
			c0.067-0.014,0.12-0.02,0.158-0.02c0.054,0,0.103,0.021,0.146,0.064s0.065,0.098,0.065,0.162c0,0.109-0.06,0.191-0.178,0.25
			c-0.118,0.057-0.289,0.086-0.511,0.086c-0.211,0-0.371-0.035-0.479-0.107c-0.108-0.07-0.18-0.168-0.214-0.293
			c-0.033-0.125-0.051-0.293-0.051-0.502v-1.293h-0.089c-0.097,0-0.171-0.023-0.222-0.07c-0.052-0.045-0.077-0.104-0.077-0.174
			c0-0.072,0.027-0.129,0.081-0.174C36.908,28.654,36.986,28.633,37.088,28.633z"/>
		<path fill="#FFFFFF" d="M40.728,31.398l0.062-0.15l-0.83-2.09c-0.051-0.119-0.076-0.207-0.076-0.262
			c0-0.057,0.015-0.111,0.044-0.16c0.03-0.049,0.071-0.09,0.123-0.119s0.105-0.045,0.161-0.045c0.098,0,0.171,0.031,0.22,0.094
			c0.05,0.061,0.094,0.15,0.131,0.266l0.571,1.658l0.54-1.543c0.043-0.125,0.082-0.223,0.116-0.293
			c0.035-0.072,0.071-0.119,0.11-0.145c0.038-0.023,0.093-0.037,0.164-0.037c0.051,0,0.1,0.014,0.146,0.041s0.083,0.064,0.109,0.111
			c0.025,0.045,0.038,0.094,0.038,0.145c-0.007,0.031-0.018,0.076-0.032,0.133c-0.015,0.059-0.033,0.117-0.055,0.176l-0.879,2.303
			c-0.076,0.201-0.149,0.361-0.223,0.477c-0.072,0.115-0.168,0.203-0.287,0.266c-0.119,0.061-0.28,0.092-0.483,0.092
			c-0.197,0-0.346-0.021-0.444-0.064s-0.147-0.121-0.147-0.234c0-0.078,0.023-0.137,0.07-0.18c0.047-0.041,0.116-0.062,0.208-0.062
			c0.036,0,0.072,0.006,0.106,0.016c0.043,0.01,0.08,0.014,0.111,0.014c0.077,0,0.138-0.012,0.183-0.033
			c0.044-0.023,0.084-0.064,0.12-0.121C40.641,31.592,40.682,31.508,40.728,31.398z"/>
		<path fill="#FFFFFF" d="M45.303,29.943c0,0.201-0.031,0.387-0.094,0.557c-0.062,0.168-0.153,0.314-0.271,0.436
			c-0.119,0.123-0.261,0.217-0.425,0.281c-0.165,0.064-0.351,0.098-0.556,0.098c-0.204,0-0.388-0.033-0.551-0.1
			c-0.163-0.064-0.305-0.16-0.424-0.281c-0.119-0.123-0.21-0.268-0.271-0.436s-0.093-0.352-0.093-0.555s0.031-0.391,0.094-0.561
			s0.152-0.314,0.27-0.434c0.117-0.121,0.259-0.213,0.425-0.279c0.166-0.064,0.35-0.098,0.551-0.098c0.204,0,0.389,0.033,0.556,0.1
			c0.166,0.066,0.309,0.16,0.427,0.281c0.119,0.123,0.209,0.268,0.271,0.436S45.303,29.74,45.303,29.943z M44.627,29.943
			c0-0.275-0.061-0.488-0.182-0.643c-0.121-0.152-0.283-0.229-0.487-0.229c-0.132,0-0.248,0.033-0.349,0.102
			s-0.178,0.17-0.231,0.303c-0.055,0.133-0.082,0.289-0.082,0.467c0,0.176,0.026,0.33,0.08,0.463
			c0.054,0.131,0.13,0.232,0.229,0.301c0.1,0.07,0.218,0.105,0.353,0.105c0.204,0,0.366-0.076,0.487-0.23
			S44.627,30.215,44.627,29.943z"/>
		<path fill="#FFFFFF" d="M47.585,30.934v-0.086c-0.08,0.102-0.165,0.188-0.254,0.256c-0.089,0.07-0.187,0.121-0.291,0.154
			c-0.105,0.035-0.226,0.051-0.361,0.051c-0.163,0-0.309-0.033-0.438-0.102c-0.13-0.066-0.229-0.16-0.301-0.277
			c-0.084-0.145-0.126-0.35-0.126-0.617v-1.338c0-0.135,0.03-0.234,0.092-0.301c0.061-0.068,0.142-0.102,0.242-0.102
			c0.102,0,0.184,0.035,0.247,0.102c0.062,0.068,0.094,0.168,0.094,0.301v1.08c0,0.156,0.013,0.287,0.039,0.395
			c0.026,0.105,0.074,0.189,0.143,0.248c0.067,0.061,0.16,0.092,0.277,0.092c0.113,0,0.221-0.035,0.321-0.102
			c0.101-0.068,0.174-0.156,0.22-0.266c0.038-0.094,0.057-0.305,0.057-0.627v-0.82c0-0.133,0.031-0.232,0.094-0.301
			c0.062-0.066,0.145-0.102,0.244-0.102c0.101,0,0.182,0.033,0.242,0.102c0.062,0.066,0.092,0.166,0.092,0.301v1.955
			c0,0.127-0.029,0.225-0.088,0.289c-0.059,0.062-0.134,0.096-0.226,0.096c-0.093,0-0.169-0.033-0.229-0.1
			C47.615,31.148,47.585,31.055,47.585,30.934z"/>
	</g>
	<g>
		
			<radialGradient id="SVGID_1_" cx="1603.7078" cy="-452.1387" r="26.7307" gradientTransform="matrix(0.2564 0 0 0.0996 -329.7969 78.5539)" gradientUnits="userSpaceOnUse">
			<stop  offset="0" style="stop-color:#5F564A"/>
			<stop  offset="0.0545" style="stop-color:#8F826F"/>
			<stop  offset="0.109" style="stop-color:#B7A78E"/>
			<stop  offset="0.1623" style="stop-color:#D7C3A7"/>
			<stop  offset="0.2138" style="stop-color:#EDD8B8"/>
			<stop  offset="0.2629" style="stop-color:#FAE4C2"/>
			<stop  offset="0.3067" style="stop-color:#FFE8C6"/>
			<stop  offset="0.4558" style="stop-color:#FFF1DD"/>
			<stop  offset="0.6315" style="stop-color:#FFF9F0"/>
			<stop  offset="0.8114" style="stop-color:#FFFDFB"/>
			<stop  offset="1" style="stop-color:#FFFFFF"/>
		</radialGradient>
		<ellipse fill="url(#SVGID_1_)" cx="81.463" cy="33.537" rx="6.966" ry="2.943"/>
		<g>
			<g>
				<polygon fill="#FFFFFF" points="81.146,26.131 78.174,24.559 78.33,20.352 81.722,21.499 				"/>
				<path fill="#1D1E1C" d="M81.146,26.29c-0.025,0-0.051-0.006-0.074-0.019l-2.973-1.572c-0.054-0.028-0.086-0.085-0.084-0.146
					l0.156-4.207c0.002-0.05,0.027-0.096,0.068-0.124s0.093-0.035,0.141-0.02l3.393,1.146c0.071,0.024,0.115,0.095,0.106,0.169
					l-0.576,4.633c-0.007,0.051-0.038,0.097-0.084,0.121C81.196,26.283,81.172,26.29,81.146,26.29z M78.335,24.466l2.683,1.419
					l0.532-4.278l-3.069-1.038L78.335,24.466z"/>
			</g>
			<polygon fill="#1D1E1C" points="79.49,22.622 78.865,22.328 79.049,22.129 79.502,22.36 			"/>
			<polygon fill="#1D1E1C" points="80.726,23.09 80.16,22.831 80.105,22.527 80.64,22.756 			"/>
			<polygon fill="#1D1E1C" points="79.992,24.346 79.24,23.98 79.074,23.436 80.246,23.98 			"/>
			<g>
				<polygon fill="#FFFFFF" points="81.722,21.499 78.33,20.352 81.433,20.487 84.131,21.499 				"/>
				<path fill="#1D1E1C" d="M84.138,21.657c-0.002,0-0.006,0-0.008,0h-2.408c-0.018,0-0.034-0.003-0.051-0.008l-3.393-1.146
					c-0.074-0.025-0.119-0.102-0.104-0.179c0.014-0.078,0.086-0.131,0.162-0.129l3.104,0.135c0.017,0,0.033,0.004,0.049,0.01
					l2.676,1.004c0.075,0.013,0.132,0.078,0.132,0.156C84.297,21.586,84.225,21.657,84.138,21.657z M81.749,21.34h1.511
					l-1.858-0.697l-1.968-0.085L81.749,21.34z"/>
			</g>
			<g>
				<polygon fill="#FFFFFF" points="83.527,25.533 81.146,26.131 81.699,21.499 84.131,21.499 				"/>
				<path fill="#1D1E1C" d="M81.146,26.29c-0.038,0-0.075-0.014-0.104-0.04c-0.039-0.034-0.059-0.086-0.053-0.137l0.553-4.633
					c0.01-0.08,0.077-0.14,0.157-0.14h2.432c0.046,0,0.09,0.02,0.12,0.055c0.029,0.035,0.043,0.081,0.036,0.126l-0.604,4.034
					c-0.01,0.063-0.056,0.114-0.118,0.13l-2.381,0.599C81.172,26.288,81.159,26.29,81.146,26.29z M81.84,21.657l-0.51,4.266
					l2.057-0.517l0.561-3.749H81.84z"/>
			</g>
			<path fill="#1D1E1C" d="M77.646,29.034c-0.895,0-1.575-0.944-1.604-0.985c-0.051-0.07-0.033-0.17,0.037-0.221
				c0.072-0.049,0.169-0.033,0.221,0.037c0.006,0.01,0.616,0.853,1.347,0.853c0.008,0,0.015,0,0.021,0
				c0.406-0.009,0.788-0.284,1.135-0.819c0.048-0.074,0.146-0.096,0.219-0.047c0.073,0.047,0.094,0.145,0.047,0.219
				c-0.407,0.628-0.877,0.953-1.395,0.963C77.665,29.033,77.655,29.034,77.646,29.034z"/>
			<path fill="#1D1E1C" d="M82.734,29.83c-0.05,0-0.099-0.023-0.129-0.066c-0.051-0.072-0.033-0.17,0.038-0.221
				c1.448-1.018,1.541-1.473,1.514-1.621c-0.024-0.129-0.176-0.17-0.177-0.17c-0.085-0.021-0.137-0.108-0.115-0.192
				c0.022-0.084,0.108-0.134,0.191-0.115c0.13,0.033,0.362,0.158,0.411,0.419c0.086,0.466-0.451,1.1-1.643,1.938
				C82.798,29.82,82.765,29.83,82.734,29.83z"/>
			
				<ellipse transform="matrix(0.9243 0.3816 -0.3816 0.9243 15.4512 -29.712)" fill="#1D1E1C" cx="82.636" cy="24.1" rx="0.788" ry="1.079"/>
			<path fill="#1D1E1C" d="M82.819,24.396c-0.014,0-0.027-0.003-0.04-0.011c-0.037-0.022-0.05-0.07-0.028-0.108
				c0.335-0.575,0.52-1.322,0.52-2.105c0-1.71-0.875-3.101-1.951-3.101c-0.628,0-1.221,0.485-1.587,1.298
				c-0.019,0.039-0.063,0.056-0.104,0.04c-0.04-0.018-0.058-0.065-0.04-0.104c0.393-0.872,1.04-1.392,1.731-1.392
				c1.163,0,2.109,1.462,2.109,3.259c0,0.81-0.192,1.586-0.541,2.184C82.873,24.382,82.846,24.396,82.819,24.396z"/>
			
				<path fill="none" stroke="#1D1E1C" stroke-width="0.316" stroke-linecap="round" stroke-linejoin="round" stroke-miterlimit="10" d="
				M82.819,24.317"/>
			<path fill="#1D1E1C" d="M82.636,20.069c-0.094,0-0.187-0.042-0.248-0.121c-0.471-0.598-1.153-0.742-1.773-0.382
				c-0.152,0.087-0.345,0.035-0.432-0.115c-0.088-0.151-0.036-0.345,0.115-0.432c0.905-0.523,1.919-0.31,2.586,0.538
				c0.108,0.137,0.084,0.336-0.053,0.444C82.774,20.047,82.705,20.069,82.636,20.069z"/>
			
				<ellipse transform="matrix(0.7691 0.6392 -0.6392 0.7691 34.3721 -44.0694)" fill="#1D1E1C" cx="78.174" cy="25.533" rx="0.609" ry="0.454"/>
			
				<ellipse transform="matrix(0.9239 0.3825 -0.3825 0.9239 15.5576 -29.8352)" fill="#FFFFFF" cx="82.81" cy="24.208" rx="0.347" ry="0.532"/>
			<path fill="#1D1E1C" d="M79.889,26.209c-0.594,0-1.185-0.205-1.762-0.612c-0.035-0.025-0.044-0.074-0.019-0.11
				c0.025-0.037,0.073-0.044,0.11-0.019c0.688,0.485,1.396,0.67,2.096,0.546c1.261-0.221,2.165-1.348,2.496-1.823
				c0.023-0.036,0.074-0.043,0.109-0.02c0.036,0.025,0.045,0.074,0.02,0.11c-0.342,0.49-1.278,1.656-2.598,1.888
				C80.192,26.196,80.041,26.209,79.889,26.209z"/>
			<path fill="#1D1E1C" d="M76.409,29.102c-0.002,0-0.006,0.001-0.008,0c-0.019,0-0.037-0.003-0.055-0.01l-1.453-0.538
				c-0.049-0.018-0.085-0.058-0.099-0.108l-0.937-3.618c-0.015-0.057,0.004-0.117,0.047-0.156c0.043-0.039,0.105-0.051,0.159-0.032
				l1.547,0.55c0.051,0.018,0.089,0.061,0.102,0.113l0.832,3.561c0.014,0.023,0.022,0.052,0.022,0.081
				C76.567,29.031,76.496,29.102,76.409,29.102z M75.08,28.286l1.101,0.407l-0.756-3.236l-1.186-0.421L75.08,28.286z"/>
			<g>
				<path fill="#1E1E1C" d="M80.756,28.65l-0.04-0.107h-0.345l-0.04,0.109c-0.016,0.043-0.029,0.07-0.041,0.086
					c-0.011,0.014-0.029,0.021-0.055,0.021c-0.021,0-0.04-0.008-0.057-0.023s-0.025-0.033-0.025-0.053
					c0-0.012,0.002-0.025,0.006-0.037s0.011-0.029,0.02-0.051l0.217-0.551c0.006-0.016,0.013-0.033,0.021-0.057
					c0.009-0.021,0.019-0.041,0.028-0.055c0.01-0.016,0.022-0.027,0.038-0.035c0.017-0.01,0.036-0.014,0.06-0.014
					s0.044,0.004,0.06,0.014c0.017,0.008,0.029,0.02,0.039,0.035c0.01,0.014,0.018,0.029,0.024,0.045
					c0.007,0.018,0.016,0.039,0.026,0.066l0.221,0.545c0.018,0.043,0.026,0.072,0.026,0.092s-0.009,0.037-0.024,0.055
					c-0.017,0.016-0.036,0.023-0.06,0.023c-0.014,0-0.025-0.002-0.035-0.008c-0.009-0.004-0.018-0.01-0.023-0.02
					c-0.007-0.008-0.014-0.02-0.021-0.037S80.761,28.662,80.756,28.65z M80.416,28.414h0.253l-0.127-0.35L80.416,28.414z"/>
				<path fill="#1E1E1C" d="M81.296,28.383h-0.061v0.273c0,0.035-0.008,0.061-0.023,0.078s-0.036,0.025-0.062,0.025
					c-0.027,0-0.049-0.008-0.063-0.025c-0.016-0.02-0.022-0.045-0.022-0.078v-0.652c0-0.037,0.008-0.064,0.024-0.08
					c0.017-0.018,0.044-0.025,0.08-0.025h0.279c0.038,0,0.071,0.002,0.099,0.006c0.027,0.002,0.052,0.01,0.074,0.02
					c0.026,0.012,0.05,0.027,0.07,0.047c0.021,0.021,0.036,0.045,0.047,0.074c0.011,0.027,0.016,0.057,0.016,0.086
					c0,0.064-0.018,0.115-0.054,0.152c-0.035,0.037-0.09,0.064-0.162,0.08c0.03,0.016,0.06,0.039,0.088,0.072
					c0.027,0.031,0.052,0.064,0.074,0.1c0.021,0.035,0.038,0.068,0.051,0.098c0.012,0.027,0.018,0.047,0.018,0.059
					s-0.003,0.021-0.011,0.033c-0.007,0.012-0.017,0.02-0.028,0.025c-0.013,0.008-0.027,0.01-0.043,0.01
					c-0.02,0-0.036-0.004-0.049-0.014c-0.013-0.008-0.024-0.02-0.034-0.033c-0.009-0.016-0.021-0.035-0.038-0.062l-0.068-0.113
					c-0.025-0.043-0.047-0.074-0.066-0.096c-0.02-0.023-0.039-0.037-0.06-0.045C81.351,28.387,81.326,28.383,81.296,28.383z
					 M81.393,28.027h-0.158v0.232h0.154c0.041,0,0.075-0.002,0.104-0.01s0.05-0.02,0.064-0.037s0.022-0.041,0.022-0.07
					c0-0.023-0.006-0.045-0.018-0.062c-0.013-0.018-0.029-0.031-0.05-0.039C81.492,28.031,81.453,28.027,81.393,28.027z"/>
				<path fill="#1E1E1C" d="M82.112,28.508h-0.183c-0.027,0-0.049-0.006-0.063-0.02c-0.014-0.014-0.021-0.029-0.021-0.051
					c0-0.02,0.007-0.037,0.021-0.049c0.014-0.014,0.035-0.02,0.063-0.02h0.183c0.028,0,0.05,0.006,0.063,0.02
					c0.015,0.012,0.021,0.029,0.021,0.049c0,0.021-0.007,0.037-0.021,0.051C82.162,28.502,82.141,28.508,82.112,28.508z"/>
				<path fill="#1E1E1C" d="M82.552,28.666v-0.525c-0.099,0.076-0.164,0.113-0.198,0.113c-0.016,0-0.03-0.008-0.043-0.02
					c-0.013-0.014-0.019-0.027-0.019-0.045c0-0.02,0.006-0.035,0.019-0.043c0.013-0.01,0.034-0.021,0.065-0.037
					c0.047-0.021,0.084-0.045,0.111-0.068c0.028-0.023,0.053-0.051,0.074-0.082c0.021-0.029,0.036-0.049,0.042-0.055
					c0.007-0.008,0.02-0.01,0.037-0.01c0.021,0,0.037,0.008,0.05,0.023c0.012,0.016,0.019,0.037,0.019,0.064v0.662
					c0,0.076-0.026,0.115-0.08,0.115c-0.023,0-0.042-0.008-0.056-0.023C82.558,28.721,82.552,28.697,82.552,28.666z"/>
			</g>
			<path fill="#1D1E1C" d="M82.351,31.118h-1.67c-0.463,0-0.902-0.37-0.979-0.826l-0.488-2.847c-0.039-0.233,0.018-0.454,0.16-0.623
				c0.143-0.168,0.351-0.262,0.587-0.262h2.947c0.235,0,0.445,0.093,0.593,0.261s0.211,0.389,0.181,0.622l-0.375,2.838
				C83.245,30.742,82.817,31.118,82.351,31.118z M79.961,26.909c-0.132,0-0.246,0.049-0.321,0.138
				c-0.075,0.089-0.104,0.21-0.082,0.34l0.488,2.847c0.049,0.291,0.34,0.536,0.636,0.536h1.67c0.292,0,0.571-0.244,0.609-0.533
				l0.375-2.839c0.018-0.132-0.017-0.255-0.097-0.346s-0.198-0.142-0.331-0.142H79.961z"/>
			<g>
				<g>
					<path fill="#FFFFFF" d="M82.894,32.92c-0.119-0.305-0.527-0.555-0.907-0.555h-0.979c-0.381,0-0.816,0.25-0.97,0.555
						s0.032,0.553,0.413,0.553h1.967C82.799,33.473,83.012,33.225,82.894,32.92z"/>
				</g>
				<path fill="#1D1E1C" d="M82.418,33.647h-1.967c-0.258,0-0.466-0.098-0.57-0.268c-0.096-0.155-0.095-0.347,0.002-0.538
					c0.183-0.365,0.678-0.65,1.125-0.65h0.979c0.454,0,0.924,0.292,1.069,0.664c0.073,0.188,0.057,0.373-0.046,0.522
					C82.893,33.549,82.677,33.647,82.418,33.647z M81.008,32.54c-0.316,0-0.689,0.21-0.814,0.458
					c-0.023,0.046-0.056,0.134-0.016,0.199c0.039,0.063,0.142,0.102,0.273,0.102h1.967c0.141,0,0.255-0.044,0.306-0.117
					c0.045-0.066,0.029-0.145,0.009-0.199c-0.093-0.235-0.44-0.442-0.745-0.442H81.008z"/>
			</g>
			<g>
				<rect x="81.146" y="30.943" fill="#FFFFFF" width="0.576" height="1.422"/>
				<path fill="#1D1E1C" d="M81.896,32.54h-0.924V30.77h0.924V32.54z M81.32,32.191h0.229v-1.073H81.32V32.191z"/>
			</g>
			<path fill="#1D1E1C" d="M82.342,30.402c-0.064,0-0.125-0.039-0.148-0.104c-0.03-0.082,0.013-0.173,0.094-0.203
				c0.135-0.049,0.242-0.137,0.287-0.236c0.022-0.049,0.026-0.093,0.012-0.132c-0.018-0.049-0.06-0.077-0.093-0.093
				c-0.099-0.046-0.24-0.044-0.374,0.004c-0.081,0.031-0.172-0.014-0.202-0.096s0.013-0.172,0.095-0.201
				c0.216-0.078,0.44-0.074,0.615,0.008c0.125,0.059,0.214,0.151,0.256,0.27c0.043,0.115,0.036,0.248-0.021,0.373
				c-0.081,0.176-0.251,0.322-0.465,0.4C82.378,30.399,82.359,30.402,82.342,30.402z"/>
		</g>
	</g>
	<g>
		<polygon fill="#FFFFFF" points="57.68,23.575 57.68,28.758 62.264,26.167 		"/>
		<path fill="#FFFFFF" d="M59.183,21.486c2.639,0,4.775,2.143,4.775,4.774c0,2.638-2.137,4.773-4.775,4.773
			c-2.631,0-4.769-2.135-4.769-4.773C54.415,23.628,56.552,21.486,59.183,21.486 M59.183,20.986c-2.905,0-5.269,2.366-5.269,5.274
			c0,2.908,2.363,5.273,5.269,5.273c2.909,0,5.275-2.365,5.275-5.273C64.459,23.352,62.093,20.986,59.183,20.986L59.183,20.986z"/>
	</g>
</g>
</svg>
