<?xml version="1.0" encoding="utf-8"?>
<!-- Generator: Adobe Illustrator 15.0.2, SVG Export Plug-In . SVG Version: 6.00 Build 0)  -->
<!DOCTYPE svg PUBLIC "-//W3C//DTD SVG 1.1//EN" "http://www.w3.org/Graphics/SVG/1.1/DTD/svg11.dtd">
<svg version="1.1" id="Layer_1" xmlns="http://www.w3.org/2000/svg" xmlns:xlink="http://www.w3.org/1999/xlink" x="0px" y="0px"
	 width="90.206px" height="19.354px" viewBox="-2.258 17.802 90.206 19.354" enable-background="new -2.258 17.802 90.206 19.354"
	 xml:space="preserve">
<g>
	<g>
		<path fill="#39A935" d="M68.606,33.302c0,1.649-1.35,3-3,3H0.743c-1.65,0-3-1.351-3-3v-12.5c0-1.65,1.35-3,3-3h64.863
			c1.65,0,3,1.35,3,3V33.302z"/>
	</g>
	<path fill="#39A935" d="M68.305,27.914v-5.866c0,0,2.754-0.044,3.406,1.003C69.024,24.25,68.305,27.914,68.305,27.914z"/>
	<g>
		<path fill="#FFFFFF" d="M4.604,22.878H3.813v2.6c0,0.149-0.033,0.261-0.1,0.333c-0.068,0.072-0.154,0.108-0.26,0.108
			c-0.107,0-0.195-0.036-0.262-0.109c-0.068-0.073-0.102-0.184-0.102-0.332v-2.6H2.3c-0.125,0-0.217-0.027-0.275-0.082
			c-0.061-0.055-0.092-0.127-0.092-0.217c0-0.092,0.031-0.166,0.094-0.219c0.062-0.055,0.154-0.081,0.273-0.081h2.305
			c0.125,0,0.219,0.027,0.279,0.083s0.092,0.128,0.092,0.217c0,0.09-0.031,0.162-0.094,0.217
			C4.821,22.851,4.727,22.878,4.604,22.878z"/>
		<path fill="#FFFFFF" d="M5.944,22.624v0.988c0.084-0.098,0.166-0.175,0.248-0.232c0.08-0.057,0.17-0.1,0.268-0.128
			s0.201-0.042,0.314-0.042c0.168,0,0.318,0.035,0.449,0.107c0.131,0.071,0.234,0.176,0.311,0.312
			c0.047,0.079,0.078,0.168,0.094,0.267c0.018,0.099,0.025,0.212,0.025,0.341v1.277c0,0.133-0.031,0.234-0.092,0.303
			s-0.143,0.102-0.242,0.102c-0.221,0-0.33-0.135-0.33-0.404v-1.126c0-0.213-0.031-0.377-0.096-0.492
			c-0.062-0.114-0.184-0.172-0.361-0.172c-0.119,0-0.227,0.034-0.32,0.102c-0.096,0.067-0.168,0.159-0.215,0.276
			c-0.035,0.1-0.053,0.276-0.053,0.53v0.882c0,0.131-0.029,0.231-0.09,0.301c-0.059,0.069-0.143,0.104-0.248,0.104
			c-0.219,0-0.328-0.135-0.328-0.404v-2.891c0-0.136,0.027-0.237,0.086-0.305c0.057-0.067,0.139-0.102,0.242-0.102
			c0.105,0,0.189,0.035,0.248,0.104C5.915,22.39,5.944,22.49,5.944,22.624z"/>
		<path fill="#FFFFFF" d="M9.997,25.544c-0.162,0.125-0.316,0.219-0.467,0.281s-0.32,0.094-0.508,0.094
			c-0.17,0-0.32-0.033-0.449-0.101c-0.131-0.067-0.23-0.159-0.301-0.274c-0.068-0.116-0.104-0.241-0.104-0.377
			c0-0.182,0.057-0.337,0.172-0.466c0.117-0.129,0.275-0.215,0.477-0.259c0.043-0.01,0.148-0.031,0.314-0.066
			c0.168-0.033,0.312-0.065,0.432-0.094s0.25-0.062,0.389-0.104c-0.008-0.176-0.043-0.305-0.105-0.387s-0.191-0.123-0.389-0.123
			c-0.17,0-0.297,0.023-0.383,0.07s-0.158,0.118-0.219,0.213c-0.062,0.094-0.105,0.156-0.131,0.187s-0.078,0.045-0.162,0.045
			c-0.074,0-0.139-0.024-0.193-0.072s-0.082-0.109-0.082-0.185c0-0.117,0.041-0.23,0.125-0.342c0.082-0.11,0.211-0.201,0.387-0.273
			c0.176-0.071,0.396-0.107,0.658-0.107c0.293,0,0.523,0.035,0.689,0.104c0.168,0.069,0.287,0.179,0.355,0.328
			c0.07,0.149,0.104,0.349,0.104,0.596c0,0.156,0,0.289,0,0.397c-0.002,0.109-0.002,0.23-0.004,0.364
			c0,0.125,0.021,0.256,0.062,0.392s0.062,0.224,0.062,0.263c0,0.068-0.033,0.131-0.098,0.187c-0.064,0.057-0.137,0.084-0.219,0.084
			c-0.068,0-0.135-0.031-0.201-0.096S10.071,25.665,9.997,25.544z M9.952,24.579c-0.098,0.036-0.238,0.073-0.426,0.113
			c-0.186,0.04-0.314,0.069-0.387,0.088c-0.07,0.019-0.139,0.056-0.205,0.11c-0.064,0.055-0.098,0.13-0.098,0.228
			c0,0.102,0.039,0.188,0.115,0.258c0.076,0.071,0.176,0.106,0.301,0.106c0.131,0,0.254-0.029,0.365-0.087s0.193-0.132,0.244-0.223
			c0.061-0.102,0.09-0.268,0.09-0.498V24.579z"/>
		<path fill="#FFFFFF" d="M11.889,23.578v0.081c0.117-0.155,0.246-0.269,0.385-0.341s0.299-0.108,0.48-0.108
			c0.176,0,0.332,0.038,0.471,0.114s0.242,0.185,0.311,0.325c0.043,0.081,0.072,0.169,0.084,0.264
			c0.014,0.094,0.02,0.215,0.02,0.361v1.24c0,0.133-0.029,0.234-0.092,0.303c-0.061,0.068-0.139,0.102-0.236,0.102
			c-0.1,0-0.182-0.034-0.242-0.104c-0.062-0.07-0.094-0.17-0.094-0.3v-1.111c0-0.22-0.029-0.388-0.092-0.504
			c-0.061-0.116-0.182-0.175-0.363-0.175c-0.119,0-0.229,0.035-0.326,0.106c-0.098,0.07-0.168,0.168-0.215,0.291
			c-0.031,0.1-0.049,0.285-0.049,0.557v0.836c0,0.135-0.031,0.236-0.094,0.304s-0.143,0.101-0.242,0.101
			c-0.096,0-0.176-0.034-0.236-0.104c-0.062-0.07-0.094-0.17-0.094-0.3v-1.927c0-0.127,0.027-0.222,0.084-0.284
			c0.055-0.062,0.131-0.094,0.227-0.094c0.059,0,0.111,0.014,0.158,0.041s0.086,0.069,0.113,0.125
			C11.876,23.431,11.889,23.498,11.889,23.578z"/>
		<path fill="#FFFFFF" d="M15.964,25.614l-0.588-0.967l-0.361,0.342v0.529c0,0.129-0.035,0.228-0.102,0.297
			c-0.068,0.069-0.145,0.104-0.232,0.104c-0.104,0-0.184-0.033-0.242-0.102s-0.088-0.17-0.088-0.303v-2.842
			c0-0.148,0.027-0.262,0.086-0.339c0.057-0.077,0.137-0.116,0.244-0.116c0.102,0,0.184,0.035,0.244,0.105
			c0.059,0.07,0.09,0.174,0.09,0.311v1.615l0.75-0.785c0.092-0.098,0.162-0.165,0.211-0.201c0.049-0.035,0.109-0.053,0.18-0.053
			c0.082,0,0.15,0.026,0.207,0.079c0.055,0.053,0.082,0.119,0.082,0.198c0,0.098-0.09,0.229-0.27,0.391l-0.355,0.325l0.684,1.074
			c0.051,0.08,0.088,0.141,0.109,0.182c0.021,0.042,0.033,0.081,0.033,0.118c0,0.106-0.029,0.189-0.088,0.251
			c-0.057,0.061-0.133,0.091-0.227,0.091c-0.082,0-0.145-0.021-0.189-0.065C16.098,25.81,16.038,25.729,15.964,25.614z"/>
		<path fill="#FFFFFF" d="M19.034,26.003l0.062-0.149l-0.82-2.065c-0.051-0.119-0.076-0.205-0.076-0.259
			c0-0.057,0.014-0.11,0.043-0.159s0.07-0.088,0.121-0.117c0.053-0.029,0.105-0.043,0.16-0.043c0.096,0,0.168,0.03,0.217,0.091
			c0.049,0.062,0.094,0.148,0.131,0.263l0.562,1.641l0.535-1.525c0.043-0.124,0.08-0.221,0.115-0.291
			c0.033-0.07,0.07-0.117,0.109-0.142c0.037-0.024,0.092-0.036,0.162-0.036c0.051,0,0.098,0.013,0.145,0.04
			c0.047,0.026,0.082,0.062,0.107,0.108s0.037,0.094,0.037,0.145c-0.006,0.03-0.016,0.074-0.031,0.131
			c-0.014,0.058-0.031,0.115-0.053,0.174l-0.869,2.275c-0.076,0.2-0.148,0.357-0.221,0.471c-0.07,0.114-0.166,0.202-0.283,0.263
			c-0.119,0.062-0.277,0.092-0.479,0.092c-0.195,0-0.342-0.021-0.439-0.063s-0.146-0.119-0.146-0.232
			c0-0.076,0.023-0.135,0.07-0.177c0.047-0.041,0.115-0.062,0.205-0.062c0.037,0,0.072,0.004,0.105,0.014
			c0.043,0.01,0.08,0.016,0.109,0.016c0.078,0,0.137-0.012,0.182-0.035c0.043-0.022,0.084-0.062,0.119-0.118
			C18.95,26.194,18.989,26.111,19.034,26.003z"/>
		<path fill="#FFFFFF" d="M23.559,24.564c0,0.198-0.031,0.382-0.094,0.55c-0.062,0.167-0.15,0.312-0.268,0.432
			s-0.258,0.213-0.42,0.277c-0.164,0.064-0.348,0.096-0.551,0.096c-0.201,0-0.383-0.032-0.543-0.098
			c-0.162-0.064-0.301-0.158-0.42-0.279c-0.117-0.121-0.207-0.265-0.268-0.43c-0.062-0.165-0.092-0.348-0.092-0.548
			c0-0.202,0.031-0.387,0.092-0.554c0.062-0.168,0.15-0.312,0.268-0.43c0.115-0.119,0.254-0.211,0.42-0.275
			c0.164-0.064,0.346-0.096,0.543-0.096c0.203,0,0.385,0.032,0.551,0.098c0.164,0.064,0.305,0.157,0.422,0.277
			c0.117,0.121,0.205,0.264,0.268,0.43C23.528,24.181,23.559,24.364,23.559,24.564z M22.889,24.564c0-0.271-0.061-0.483-0.18-0.635
			s-0.279-0.228-0.482-0.228c-0.129,0-0.244,0.034-0.344,0.102s-0.176,0.168-0.229,0.299c-0.055,0.133-0.082,0.286-0.082,0.462
			c0,0.174,0.027,0.326,0.08,0.456c0.053,0.131,0.129,0.23,0.227,0.3c0.1,0.069,0.215,0.104,0.348,0.104
			c0.203,0,0.363-0.076,0.482-0.229S22.889,24.833,22.889,24.564z"/>
		<path fill="#FFFFFF" d="M25.815,25.544v-0.086c-0.08,0.101-0.164,0.186-0.252,0.254s-0.184,0.119-0.289,0.152
			c-0.104,0.033-0.223,0.051-0.355,0.051c-0.162,0-0.305-0.034-0.434-0.101c-0.127-0.066-0.227-0.159-0.297-0.276
			c-0.082-0.141-0.125-0.345-0.125-0.609v-1.321c0-0.134,0.031-0.233,0.092-0.299c0.061-0.066,0.139-0.099,0.238-0.099
			c0.102,0,0.184,0.033,0.244,0.1c0.062,0.066,0.094,0.166,0.094,0.298v1.067c0,0.154,0.012,0.284,0.039,0.389
			c0.025,0.105,0.072,0.188,0.141,0.247c0.066,0.06,0.158,0.089,0.273,0.089c0.113,0,0.219-0.033,0.318-0.1
			c0.1-0.067,0.172-0.154,0.217-0.262c0.037-0.095,0.057-0.301,0.057-0.62v-0.811c0-0.132,0.031-0.231,0.092-0.298
			c0.062-0.066,0.143-0.1,0.242-0.1s0.18,0.032,0.238,0.099c0.061,0.065,0.092,0.165,0.092,0.299v1.931
			c0,0.127-0.029,0.223-0.088,0.286c-0.057,0.063-0.131,0.095-0.223,0.095s-0.166-0.032-0.227-0.099
			C25.844,25.755,25.815,25.662,25.815,25.544z"/>
		<path fill="#FFFFFF" d="M28.302,23.269h0.158v-0.201c0-0.208,0.025-0.373,0.078-0.496s0.143-0.213,0.27-0.269
			c0.125-0.057,0.299-0.085,0.52-0.085c0.389,0,0.582,0.096,0.582,0.286c0,0.062-0.02,0.114-0.061,0.159
			c-0.041,0.043-0.088,0.065-0.145,0.065c-0.025,0-0.07-0.005-0.133-0.015c-0.064-0.01-0.117-0.015-0.162-0.015
			c-0.121,0-0.197,0.035-0.232,0.106c-0.033,0.07-0.051,0.172-0.051,0.304v0.159h0.164c0.254,0,0.381,0.076,0.381,0.229
			c0,0.109-0.035,0.179-0.102,0.208c-0.068,0.029-0.16,0.044-0.279,0.044h-0.164v1.766c0,0.131-0.031,0.231-0.094,0.301
			s-0.145,0.104-0.242,0.104c-0.096,0-0.174-0.034-0.236-0.104s-0.094-0.17-0.094-0.301v-1.766h-0.184
			c-0.1,0-0.176-0.022-0.229-0.067c-0.055-0.045-0.082-0.103-0.082-0.175C27.966,23.348,28.077,23.269,28.302,23.269z"/>
		<path fill="#FFFFFF" d="M32.448,24.564c0,0.198-0.031,0.382-0.094,0.55c-0.061,0.167-0.15,0.312-0.268,0.432
			s-0.258,0.213-0.42,0.277s-0.346,0.096-0.549,0.096s-0.385-0.032-0.545-0.098c-0.162-0.064-0.301-0.158-0.418-0.279
			c-0.119-0.121-0.209-0.265-0.27-0.43s-0.092-0.348-0.092-0.548c0-0.202,0.031-0.387,0.094-0.554
			c0.061-0.168,0.15-0.312,0.266-0.43c0.115-0.119,0.256-0.211,0.42-0.275s0.346-0.096,0.545-0.096c0.201,0,0.385,0.032,0.549,0.098
			c0.164,0.064,0.305,0.157,0.422,0.277c0.117,0.121,0.207,0.264,0.268,0.43S32.448,24.364,32.448,24.564z M31.778,24.564
			c0-0.271-0.059-0.483-0.178-0.635c-0.121-0.151-0.281-0.228-0.482-0.228c-0.131,0-0.246,0.034-0.346,0.102
			c-0.098,0.067-0.176,0.168-0.229,0.299c-0.055,0.133-0.08,0.286-0.08,0.462c0,0.174,0.025,0.326,0.078,0.456
			c0.053,0.131,0.129,0.23,0.229,0.3c0.098,0.069,0.213,0.104,0.348,0.104c0.201,0,0.361-0.076,0.482-0.229
			C31.719,25.043,31.778,24.833,31.778,24.564z"/>
		<path fill="#FFFFFF" d="M33.635,24.958v0.557c0,0.135-0.031,0.236-0.096,0.304c-0.062,0.067-0.145,0.101-0.242,0.101
			c-0.096,0-0.174-0.033-0.236-0.102s-0.092-0.17-0.092-0.303v-1.855c0-0.3,0.107-0.449,0.324-0.449
			c0.109,0,0.189,0.034,0.238,0.104s0.076,0.173,0.082,0.31c0.078-0.137,0.16-0.239,0.244-0.31s0.195-0.104,0.336-0.104
			s0.275,0.034,0.408,0.104c0.131,0.07,0.197,0.163,0.197,0.278c0,0.081-0.027,0.148-0.084,0.201s-0.117,0.08-0.182,0.08
			c-0.025,0-0.084-0.016-0.178-0.046s-0.176-0.045-0.248-0.045c-0.098,0-0.178,0.025-0.238,0.077
			c-0.062,0.051-0.109,0.127-0.145,0.229c-0.033,0.101-0.059,0.221-0.07,0.359C33.641,24.588,33.635,24.757,33.635,24.958z"/>
		<path fill="#FFFFFF" d="M38.803,25.095c0,0.082-0.025,0.171-0.074,0.266c-0.051,0.095-0.127,0.185-0.229,0.27
			c-0.102,0.086-0.229,0.154-0.383,0.207c-0.156,0.052-0.33,0.078-0.523,0.078c-0.412,0-0.732-0.12-0.965-0.36
			c-0.23-0.24-0.346-0.562-0.346-0.966c0-0.273,0.053-0.516,0.158-0.725c0.105-0.211,0.26-0.373,0.459-0.487
			c0.201-0.115,0.439-0.173,0.719-0.173c0.172,0,0.33,0.025,0.475,0.076c0.143,0.051,0.266,0.115,0.365,0.195
			s0.178,0.165,0.23,0.255c0.053,0.091,0.078,0.175,0.078,0.253c0,0.08-0.029,0.147-0.088,0.203
			c-0.061,0.055-0.133,0.082-0.217,0.082c-0.055,0-0.102-0.014-0.139-0.042c-0.035-0.028-0.076-0.075-0.123-0.138
			c-0.08-0.124-0.166-0.217-0.254-0.279c-0.09-0.062-0.201-0.092-0.338-0.092c-0.197,0-0.357,0.076-0.477,0.23
			c-0.121,0.153-0.182,0.364-0.182,0.631c0,0.125,0.016,0.24,0.047,0.346c0.031,0.104,0.076,0.194,0.135,0.269
			s0.129,0.13,0.213,0.168c0.082,0.038,0.174,0.058,0.273,0.058c0.133,0,0.246-0.031,0.342-0.093s0.18-0.156,0.254-0.283
			c0.039-0.075,0.084-0.134,0.131-0.176s0.105-0.063,0.174-0.063c0.08,0,0.148,0.031,0.203,0.093
			C38.776,24.958,38.803,25.024,38.803,25.095z"/>
		<path fill="#FFFFFF" d="M41.069,25.544c-0.162,0.125-0.318,0.219-0.469,0.281s-0.318,0.094-0.506,0.094
			c-0.172,0-0.322-0.033-0.451-0.101s-0.229-0.159-0.299-0.274c-0.07-0.116-0.105-0.241-0.105-0.377
			c0-0.182,0.059-0.337,0.174-0.466s0.273-0.215,0.477-0.259c0.041-0.01,0.146-0.031,0.314-0.066
			c0.168-0.033,0.311-0.065,0.432-0.094c0.119-0.028,0.248-0.062,0.389-0.104c-0.008-0.176-0.043-0.305-0.105-0.387
			s-0.193-0.123-0.391-0.123c-0.168,0-0.297,0.023-0.381,0.07c-0.086,0.047-0.16,0.118-0.221,0.213
			c-0.061,0.094-0.104,0.156-0.129,0.187s-0.08,0.045-0.162,0.045c-0.076,0-0.141-0.024-0.195-0.072s-0.08-0.109-0.08-0.185
			c0-0.117,0.041-0.23,0.123-0.342c0.084-0.11,0.213-0.201,0.389-0.273c0.176-0.071,0.395-0.107,0.656-0.107
			c0.293,0,0.523,0.035,0.691,0.104s0.285,0.179,0.355,0.328c0.068,0.149,0.104,0.349,0.104,0.596c0,0.156,0,0.289-0.002,0.397
			c0,0.109-0.002,0.23-0.002,0.364c0,0.125,0.02,0.256,0.061,0.392c0.043,0.136,0.062,0.224,0.062,0.263
			c0,0.068-0.031,0.131-0.096,0.187c-0.064,0.057-0.137,0.084-0.219,0.084c-0.068,0-0.137-0.031-0.203-0.096
			S41.143,25.665,41.069,25.544z M41.024,24.579c-0.098,0.036-0.24,0.073-0.426,0.113c-0.188,0.04-0.316,0.069-0.387,0.088
			c-0.072,0.019-0.141,0.056-0.205,0.11c-0.066,0.055-0.098,0.13-0.098,0.228c0,0.102,0.037,0.188,0.115,0.258
			c0.076,0.071,0.176,0.106,0.299,0.106c0.133,0,0.254-0.029,0.365-0.087s0.193-0.132,0.246-0.223
			c0.061-0.102,0.09-0.268,0.09-0.498V24.579z"/>
		<path fill="#FFFFFF" d="M42.354,25.515v-2.891c0-0.134,0.031-0.234,0.09-0.303c0.061-0.068,0.141-0.104,0.24-0.104
			c0.102,0,0.184,0.034,0.244,0.102c0.062,0.067,0.094,0.169,0.094,0.305v2.891c0,0.135-0.031,0.236-0.094,0.304
			s-0.145,0.101-0.244,0.101c-0.098,0-0.176-0.034-0.238-0.104C42.385,25.744,42.354,25.645,42.354,25.515z"/>
		<path fill="#FFFFFF" d="M43.71,25.515v-2.891c0-0.134,0.029-0.234,0.09-0.303c0.059-0.068,0.139-0.104,0.24-0.104
			c0.1,0,0.182,0.034,0.244,0.102c0.061,0.067,0.092,0.169,0.092,0.305v2.891c0,0.135-0.031,0.236-0.094,0.304
			s-0.143,0.101-0.242,0.101c-0.098,0-0.178-0.034-0.238-0.104S43.71,25.645,43.71,25.515z"/>
		<path fill="#FFFFFF" d="M45.403,22.899c-0.094,0-0.174-0.028-0.238-0.086c-0.066-0.057-0.1-0.137-0.1-0.241
			c0-0.095,0.033-0.172,0.102-0.233c0.066-0.061,0.146-0.092,0.236-0.092c0.086,0,0.162,0.028,0.229,0.084
			c0.066,0.055,0.1,0.136,0.1,0.241c0,0.103-0.031,0.183-0.098,0.24C45.569,22.87,45.491,22.899,45.403,22.899z M45.731,23.588
			v1.927c0,0.133-0.031,0.234-0.094,0.303c-0.064,0.068-0.145,0.102-0.242,0.102s-0.178-0.034-0.238-0.104s-0.092-0.17-0.092-0.3
			v-1.907c0-0.132,0.031-0.231,0.092-0.298s0.141-0.1,0.238-0.1s0.178,0.033,0.242,0.1C45.7,23.376,45.731,23.469,45.731,23.588z"/>
		<path fill="#FFFFFF" d="M47.026,23.578v0.081c0.117-0.155,0.246-0.269,0.385-0.341s0.299-0.108,0.48-0.108
			c0.176,0,0.332,0.038,0.471,0.114s0.242,0.185,0.311,0.325c0.043,0.081,0.072,0.169,0.084,0.264
			c0.014,0.094,0.02,0.215,0.02,0.361v1.24c0,0.133-0.029,0.234-0.092,0.303c-0.061,0.068-0.139,0.102-0.236,0.102
			c-0.1,0-0.182-0.034-0.242-0.104c-0.062-0.07-0.094-0.17-0.094-0.3v-1.111c0-0.22-0.029-0.388-0.092-0.504
			c-0.061-0.116-0.182-0.175-0.363-0.175c-0.119,0-0.229,0.035-0.326,0.106c-0.098,0.07-0.168,0.168-0.215,0.291
			c-0.031,0.1-0.049,0.285-0.049,0.557v0.836c0,0.135-0.031,0.236-0.094,0.304s-0.143,0.101-0.242,0.101
			c-0.096,0-0.176-0.034-0.236-0.104c-0.062-0.07-0.094-0.17-0.094-0.3v-1.927c0-0.127,0.027-0.222,0.084-0.284
			c0.055-0.062,0.131-0.094,0.227-0.094c0.059,0,0.111,0.014,0.158,0.041s0.086,0.069,0.113,0.125
			C47.012,23.431,47.026,23.498,47.026,23.578z"/>
		<path fill="#FFFFFF" d="M51.891,23.698v1.936c0,0.222-0.023,0.412-0.07,0.571s-0.123,0.291-0.227,0.396
			c-0.105,0.104-0.242,0.182-0.41,0.232c-0.168,0.05-0.377,0.075-0.629,0.075c-0.229,0-0.434-0.032-0.615-0.097
			c-0.18-0.064-0.318-0.147-0.416-0.249s-0.146-0.206-0.146-0.313c0-0.081,0.027-0.147,0.082-0.199
			c0.055-0.051,0.123-0.076,0.201-0.076c0.098,0,0.182,0.043,0.256,0.129c0.035,0.044,0.072,0.088,0.111,0.133
			c0.037,0.045,0.08,0.083,0.127,0.115c0.045,0.031,0.102,0.055,0.166,0.07c0.066,0.016,0.141,0.023,0.225,0.023
			c0.174,0,0.307-0.024,0.402-0.072s0.162-0.115,0.199-0.201c0.039-0.086,0.061-0.179,0.068-0.277
			c0.006-0.099,0.012-0.257,0.014-0.475c-0.102,0.144-0.221,0.252-0.355,0.327c-0.133,0.075-0.293,0.112-0.479,0.112
			c-0.223,0-0.418-0.057-0.586-0.171c-0.166-0.114-0.295-0.273-0.383-0.479c-0.09-0.205-0.135-0.442-0.135-0.71
			c0-0.201,0.027-0.381,0.082-0.543c0.055-0.16,0.131-0.297,0.232-0.407s0.217-0.194,0.35-0.25c0.131-0.057,0.275-0.085,0.434-0.085
			c0.189,0,0.354,0.037,0.492,0.109c0.137,0.072,0.266,0.186,0.385,0.34v-0.09c0-0.115,0.029-0.205,0.086-0.269
			s0.129-0.095,0.219-0.095c0.129,0,0.215,0.041,0.258,0.125C51.87,23.419,51.891,23.54,51.891,23.698z M49.96,24.542
			c0,0.271,0.059,0.475,0.178,0.613c0.117,0.139,0.27,0.207,0.457,0.207c0.111,0,0.215-0.029,0.314-0.089
			c0.098-0.06,0.178-0.148,0.24-0.269c0.062-0.119,0.094-0.265,0.094-0.436c0-0.271-0.061-0.483-0.18-0.635
			c-0.121-0.151-0.277-0.227-0.473-0.227c-0.191,0-0.344,0.072-0.459,0.217C50.018,24.069,49.96,24.275,49.96,24.542z"/>
		<path fill="#FFFFFF" d="M2.809,28.694l0.811,2.4l0.812-2.418c0.043-0.127,0.074-0.215,0.096-0.265s0.057-0.094,0.105-0.134
			s0.115-0.061,0.199-0.061c0.062,0,0.119,0.016,0.172,0.047S5.1,28.337,5.13,28.388c0.031,0.052,0.045,0.104,0.045,0.155
			c0,0.036-0.004,0.074-0.014,0.116c-0.01,0.041-0.021,0.082-0.037,0.122c-0.014,0.04-0.029,0.081-0.043,0.123l-0.867,2.339
			c-0.031,0.09-0.062,0.175-0.094,0.255c-0.031,0.081-0.066,0.151-0.107,0.213c-0.041,0.061-0.094,0.11-0.162,0.149
			c-0.066,0.039-0.15,0.059-0.248,0.059s-0.18-0.019-0.248-0.057c-0.066-0.038-0.121-0.089-0.162-0.151
			c-0.043-0.062-0.078-0.134-0.109-0.214s-0.062-0.164-0.092-0.254l-0.854-2.319C2.124,28.882,2.108,28.84,2.093,28.8
			c-0.016-0.041-0.027-0.085-0.039-0.133c-0.01-0.047-0.016-0.087-0.016-0.119c0-0.083,0.033-0.158,0.1-0.227
			s0.15-0.104,0.252-0.104c0.123,0,0.211,0.038,0.262,0.114C2.704,28.407,2.757,28.528,2.809,28.694z"/>
		<path fill="#FFFFFF" d="M5.673,31.515v-2.891c0-0.134,0.029-0.234,0.09-0.303c0.059-0.068,0.139-0.104,0.24-0.104
			c0.1,0,0.182,0.034,0.244,0.102c0.061,0.067,0.092,0.169,0.092,0.305v2.891c0,0.135-0.031,0.236-0.094,0.304
			s-0.143,0.101-0.242,0.101c-0.098,0-0.178-0.034-0.238-0.104S5.673,31.645,5.673,31.515z"/>
		<path fill="#FFFFFF" d="M8.714,31.544c-0.162,0.125-0.318,0.219-0.469,0.281s-0.318,0.094-0.506,0.094
			c-0.172,0-0.322-0.033-0.451-0.101s-0.229-0.159-0.299-0.274c-0.07-0.116-0.105-0.241-0.105-0.377
			c0-0.182,0.059-0.337,0.174-0.466s0.273-0.215,0.477-0.259c0.041-0.01,0.146-0.031,0.314-0.066
			c0.168-0.033,0.311-0.065,0.432-0.094c0.119-0.028,0.248-0.062,0.389-0.104c-0.008-0.176-0.043-0.305-0.105-0.387
			s-0.193-0.123-0.391-0.123c-0.168,0-0.297,0.023-0.381,0.07c-0.086,0.047-0.16,0.118-0.221,0.213
			c-0.061,0.094-0.104,0.156-0.129,0.187s-0.08,0.045-0.162,0.045c-0.076,0-0.141-0.024-0.195-0.072s-0.08-0.109-0.08-0.185
			c0-0.117,0.041-0.23,0.123-0.342c0.084-0.11,0.213-0.201,0.389-0.273c0.176-0.071,0.395-0.107,0.656-0.107
			c0.293,0,0.523,0.035,0.691,0.104s0.285,0.179,0.355,0.328c0.068,0.149,0.104,0.349,0.104,0.596c0,0.156,0,0.289-0.002,0.397
			c0,0.109-0.002,0.23-0.002,0.364c0,0.125,0.02,0.256,0.061,0.392c0.043,0.136,0.062,0.224,0.062,0.263
			c0,0.068-0.031,0.131-0.096,0.187c-0.064,0.057-0.137,0.084-0.219,0.084c-0.068,0-0.137-0.031-0.203-0.096
			S8.788,31.665,8.714,31.544z M8.669,30.579c-0.098,0.036-0.24,0.073-0.426,0.113c-0.188,0.04-0.316,0.069-0.387,0.088
			c-0.072,0.019-0.141,0.056-0.205,0.11c-0.066,0.055-0.098,0.13-0.098,0.228c0,0.102,0.037,0.188,0.115,0.258
			c0.076,0.071,0.176,0.106,0.299,0.106c0.133,0,0.254-0.029,0.365-0.087s0.193-0.132,0.246-0.223
			c0.061-0.102,0.09-0.268,0.09-0.498V30.579z"/>
		<path fill="#FFFFFF" d="M11.825,31.538v-0.065c-0.09,0.103-0.178,0.186-0.266,0.25c-0.086,0.064-0.182,0.113-0.283,0.146
			s-0.213,0.05-0.332,0.05c-0.16,0-0.309-0.033-0.443-0.101c-0.137-0.067-0.254-0.164-0.354-0.29
			c-0.1-0.125-0.174-0.272-0.225-0.441c-0.053-0.169-0.078-0.353-0.078-0.549c0-0.417,0.102-0.742,0.307-0.975
			c0.203-0.232,0.471-0.35,0.803-0.35c0.191,0,0.354,0.033,0.486,0.1c0.131,0.065,0.26,0.167,0.385,0.304v-0.983
			c0-0.137,0.027-0.24,0.082-0.311s0.133-0.105,0.232-0.105c0.102,0,0.18,0.032,0.234,0.097s0.082,0.159,0.082,0.284v2.939
			c0,0.127-0.029,0.223-0.088,0.286s-0.135,0.095-0.229,0.095c-0.09,0-0.166-0.032-0.225-0.099
			C11.854,31.755,11.825,31.661,11.825,31.538z M10.514,30.56c0,0.181,0.027,0.334,0.084,0.461s0.133,0.223,0.23,0.287
			s0.205,0.097,0.32,0.097c0.117,0,0.225-0.03,0.32-0.092c0.098-0.061,0.174-0.154,0.232-0.28c0.057-0.126,0.086-0.284,0.086-0.473
			c0-0.178-0.029-0.33-0.086-0.458c-0.059-0.128-0.137-0.226-0.234-0.293c-0.1-0.067-0.207-0.101-0.324-0.101
			c-0.121,0-0.23,0.034-0.326,0.104s-0.172,0.168-0.225,0.298C10.54,30.238,10.514,30.389,10.514,30.56z"/>
		<path fill="#FFFFFF" d="M14.95,28.694l0.811,2.4l0.812-2.418c0.043-0.127,0.074-0.215,0.096-0.265s0.057-0.094,0.105-0.134
			s0.115-0.061,0.199-0.061c0.062,0,0.119,0.016,0.172,0.047s0.096,0.072,0.125,0.123c0.031,0.052,0.045,0.104,0.045,0.155
			c0,0.036-0.004,0.074-0.014,0.116c-0.01,0.041-0.021,0.082-0.037,0.122c-0.014,0.04-0.029,0.081-0.043,0.123l-0.867,2.339
			c-0.031,0.09-0.062,0.175-0.094,0.255c-0.031,0.081-0.066,0.151-0.107,0.213c-0.041,0.061-0.094,0.11-0.162,0.149
			c-0.066,0.039-0.15,0.059-0.248,0.059s-0.18-0.019-0.248-0.057c-0.066-0.038-0.121-0.089-0.162-0.151
			c-0.043-0.062-0.078-0.134-0.109-0.214s-0.062-0.164-0.092-0.254l-0.854-2.319c-0.014-0.042-0.029-0.084-0.045-0.124
			c-0.016-0.041-0.027-0.085-0.039-0.133c-0.01-0.047-0.016-0.087-0.016-0.119c0-0.083,0.033-0.158,0.1-0.227
			s0.15-0.104,0.252-0.104c0.123,0,0.211,0.038,0.262,0.114C14.844,28.407,14.897,28.528,14.95,28.694z"/>
		<path fill="#FFFFFF" d="M19.427,30.728h-1.305c0.002,0.152,0.031,0.285,0.092,0.4c0.059,0.116,0.139,0.203,0.236,0.262
			c0.1,0.059,0.207,0.088,0.326,0.088c0.08,0,0.152-0.01,0.219-0.028s0.129-0.048,0.191-0.088s0.119-0.082,0.172-0.128
			c0.051-0.046,0.119-0.107,0.201-0.186c0.035-0.029,0.084-0.044,0.146-0.044c0.068,0,0.125,0.019,0.166,0.056
			c0.043,0.038,0.064,0.091,0.064,0.159c0,0.061-0.023,0.131-0.07,0.211c-0.049,0.081-0.119,0.158-0.215,0.232
			s-0.215,0.136-0.359,0.185c-0.143,0.049-0.309,0.072-0.496,0.072c-0.428,0-0.762-0.121-0.998-0.365
			c-0.238-0.244-0.357-0.576-0.357-0.994c0-0.197,0.029-0.38,0.088-0.548c0.059-0.169,0.145-0.313,0.258-0.434
			c0.111-0.12,0.25-0.213,0.414-0.277s0.348-0.097,0.547-0.097c0.26,0,0.484,0.056,0.67,0.165c0.188,0.11,0.326,0.252,0.42,0.427
			c0.092,0.174,0.139,0.352,0.139,0.531c0,0.168-0.049,0.276-0.145,0.326S19.6,30.728,19.427,30.728z M18.122,30.35h1.209
			c-0.018-0.228-0.078-0.398-0.186-0.512c-0.105-0.113-0.246-0.169-0.42-0.169c-0.166,0-0.303,0.057-0.41,0.172
			C18.21,29.955,18.145,30.125,18.122,30.35z"/>
		<path fill="#FFFFFF" d="M21.141,29.578v0.081c0.117-0.155,0.246-0.269,0.385-0.341s0.299-0.108,0.48-0.108
			c0.176,0,0.332,0.038,0.471,0.114s0.242,0.185,0.311,0.325c0.043,0.081,0.072,0.169,0.084,0.264
			c0.014,0.094,0.02,0.215,0.02,0.361v1.24c0,0.133-0.029,0.234-0.092,0.303c-0.061,0.068-0.139,0.102-0.236,0.102
			c-0.1,0-0.182-0.034-0.242-0.104c-0.062-0.07-0.094-0.17-0.094-0.3v-1.111c0-0.22-0.029-0.388-0.092-0.504
			c-0.061-0.116-0.182-0.175-0.363-0.175c-0.119,0-0.229,0.035-0.326,0.106c-0.098,0.07-0.168,0.168-0.215,0.291
			c-0.031,0.1-0.049,0.285-0.049,0.557v0.836c0,0.135-0.031,0.236-0.094,0.304s-0.143,0.101-0.242,0.101
			c-0.096,0-0.176-0.034-0.236-0.104c-0.062-0.07-0.094-0.17-0.094-0.3v-1.927c0-0.127,0.027-0.222,0.084-0.284
			c0.055-0.062,0.131-0.094,0.227-0.094c0.059,0,0.111,0.014,0.158,0.041s0.086,0.069,0.113,0.125
			C21.128,29.431,21.141,29.498,21.141,29.578z"/>
		<path fill="#FFFFFF" d="M25.382,31.538v-0.065c-0.088,0.103-0.178,0.186-0.264,0.25c-0.088,0.064-0.182,0.113-0.283,0.146
			s-0.213,0.05-0.334,0.05c-0.158,0-0.307-0.033-0.443-0.101c-0.135-0.067-0.252-0.164-0.352-0.29
			c-0.1-0.125-0.176-0.272-0.227-0.441s-0.076-0.353-0.076-0.549c0-0.417,0.102-0.742,0.305-0.975s0.471-0.35,0.803-0.35
			c0.193,0,0.354,0.033,0.486,0.1c0.131,0.065,0.26,0.167,0.385,0.304v-0.983c0-0.137,0.027-0.24,0.082-0.311
			s0.133-0.105,0.234-0.105c0.1,0,0.178,0.032,0.232,0.097s0.082,0.159,0.082,0.284v2.939c0,0.127-0.029,0.223-0.088,0.286
			s-0.135,0.095-0.227,0.095s-0.166-0.032-0.227-0.099C25.413,31.755,25.382,31.661,25.382,31.538z M24.071,30.56
			c0,0.181,0.029,0.334,0.084,0.461c0.057,0.127,0.133,0.223,0.23,0.287s0.205,0.097,0.32,0.097c0.117,0,0.225-0.03,0.322-0.092
			c0.096-0.061,0.174-0.154,0.23-0.28c0.059-0.126,0.088-0.284,0.088-0.473c0-0.178-0.029-0.33-0.088-0.458
			c-0.057-0.128-0.135-0.226-0.234-0.293c-0.098-0.067-0.205-0.101-0.322-0.101c-0.123,0-0.232,0.034-0.328,0.104
			s-0.17,0.168-0.223,0.298C24.098,30.238,24.071,30.389,24.071,30.56z"/>
		<path fill="#FFFFFF" d="M27.343,30.958v0.557c0,0.135-0.031,0.236-0.096,0.304c-0.062,0.067-0.143,0.101-0.24,0.101
			c-0.096,0-0.176-0.033-0.238-0.102c-0.061-0.068-0.092-0.17-0.092-0.303v-1.855c0-0.3,0.107-0.449,0.324-0.449
			c0.111,0,0.191,0.034,0.24,0.104s0.074,0.173,0.08,0.31c0.08-0.137,0.162-0.239,0.246-0.31s0.195-0.104,0.334-0.104
			c0.141,0,0.277,0.034,0.408,0.104c0.133,0.07,0.197,0.163,0.197,0.278c0,0.081-0.027,0.148-0.084,0.201
			c-0.055,0.053-0.115,0.08-0.182,0.08c-0.023,0-0.082-0.016-0.176-0.046s-0.178-0.045-0.248-0.045c-0.098,0-0.178,0.025-0.24,0.077
			c-0.061,0.051-0.109,0.127-0.145,0.229c-0.033,0.101-0.057,0.221-0.07,0.359C27.35,30.588,27.343,30.757,27.343,30.958z"/>
		<path fill="#FFFFFF" d="M31.177,30.564c0,0.198-0.031,0.382-0.094,0.55c-0.062,0.167-0.15,0.312-0.268,0.432
			s-0.258,0.213-0.42,0.277c-0.164,0.064-0.348,0.096-0.551,0.096c-0.201,0-0.383-0.032-0.543-0.098
			c-0.162-0.064-0.301-0.158-0.42-0.279c-0.117-0.121-0.207-0.265-0.268-0.43c-0.062-0.165-0.092-0.348-0.092-0.548
			c0-0.202,0.031-0.387,0.092-0.554c0.062-0.168,0.15-0.312,0.268-0.43c0.115-0.119,0.254-0.211,0.42-0.275
			c0.164-0.064,0.346-0.096,0.543-0.096c0.203,0,0.385,0.032,0.551,0.098c0.164,0.064,0.305,0.157,0.422,0.277
			c0.117,0.121,0.205,0.264,0.268,0.43C31.145,30.181,31.177,30.364,31.177,30.564z M30.507,30.564c0-0.271-0.061-0.483-0.18-0.635
			s-0.279-0.228-0.482-0.228c-0.129,0-0.244,0.034-0.344,0.102s-0.176,0.168-0.229,0.299c-0.055,0.133-0.082,0.286-0.082,0.462
			c0,0.174,0.027,0.326,0.08,0.456c0.053,0.131,0.129,0.23,0.227,0.3c0.1,0.069,0.215,0.104,0.348,0.104
			c0.203,0,0.363-0.076,0.482-0.229S30.507,30.833,30.507,30.564z"/>
		<path fill="#FFFFFF" d="M32.116,29.624l0.434,1.49l0.396-1.385c0.043-0.145,0.074-0.244,0.094-0.297
			c0.021-0.053,0.059-0.104,0.115-0.151s0.133-0.071,0.23-0.071c0.1,0,0.178,0.023,0.232,0.071c0.057,0.048,0.096,0.101,0.119,0.156
			c0.023,0.057,0.055,0.153,0.096,0.292l0.395,1.385l0.439-1.49c0.029-0.107,0.053-0.185,0.07-0.232
			c0.02-0.048,0.049-0.091,0.092-0.127c0.041-0.037,0.104-0.055,0.182-0.055c0.08,0,0.15,0.027,0.209,0.082
			c0.059,0.056,0.088,0.121,0.088,0.195c0,0.068-0.025,0.172-0.076,0.311l-0.545,1.597c-0.047,0.135-0.084,0.232-0.109,0.293
			s-0.066,0.114-0.123,0.161s-0.133,0.07-0.23,0.07c-0.102,0-0.182-0.024-0.238-0.075c-0.059-0.051-0.102-0.112-0.129-0.186
			s-0.057-0.169-0.09-0.286l-0.381-1.299l-0.369,1.299c-0.049,0.182-0.102,0.317-0.158,0.409s-0.156,0.138-0.301,0.138
			c-0.072,0-0.135-0.014-0.186-0.042c-0.053-0.028-0.096-0.069-0.129-0.122c-0.035-0.053-0.064-0.116-0.09-0.188
			c-0.027-0.072-0.047-0.13-0.062-0.172l-0.539-1.597c-0.053-0.149-0.08-0.253-0.08-0.311c0-0.071,0.029-0.136,0.086-0.192
			s0.127-0.085,0.209-0.085c0.111,0,0.186,0.031,0.225,0.094S32.071,29.474,32.116,29.624z"/>
	</g>
	<g>
		
			<radialGradient id="SVGID_1_" cx="-120.2844" cy="-451.1255" r="26.7317" gradientTransform="matrix(0.3368 0 0 0.0996 119.3127 79.1287)" gradientUnits="userSpaceOnUse">
			<stop  offset="0" style="stop-color:#A9A9AA"/>
			<stop  offset="0.0541" style="stop-color:#B6BAB4"/>
			<stop  offset="0.2086" style="stop-color:#D9E9CF"/>
			<stop  offset="0.3252" style="stop-color:#E4EFDD"/>
			<stop  offset="0.5432" style="stop-color:#F3F8F0"/>
			<stop  offset="0.7662" style="stop-color:#FCFDFB"/>
			<stop  offset="1" style="stop-color:#FFFFFF"/>
		</radialGradient>
		<ellipse fill="url(#SVGID_1_)" cx="78.798" cy="34.213" rx="9.15" ry="2.943"/>
		<g>
			<g>
				<polygon fill="#FFFFFF" points="78.481,26.807 75.509,25.234 75.665,21.027 79.057,22.174 				"/>
				<path fill="#1D1E1C" d="M78.481,26.965c-0.025,0-0.051-0.006-0.074-0.019l-2.973-1.572c-0.054-0.028-0.086-0.085-0.084-0.146
					l0.156-4.207c0.002-0.05,0.027-0.096,0.068-0.124c0.041-0.029,0.094-0.034,0.141-0.02l3.393,1.146
					c0.071,0.024,0.115,0.095,0.106,0.169l-0.576,4.633c-0.007,0.051-0.038,0.097-0.084,0.121
					C78.531,26.958,78.507,26.965,78.481,26.965z M75.67,25.141l2.683,1.419l0.532-4.278l-3.069-1.038L75.67,25.141z"/>
			</g>
			<polygon fill="#1D1E1C" points="76.825,23.297 76.2,23.003 76.384,22.805 76.837,23.035 			"/>
			<polygon fill="#1D1E1C" points="78.061,23.766 77.495,23.506 77.44,23.202 77.975,23.432 			"/>
			<polygon fill="#1D1E1C" points="77.327,25.021 76.575,24.655 76.409,24.111 77.581,24.655 			"/>
			<g>
				<polygon fill="#FFFFFF" points="79.057,22.174 75.665,21.027 78.768,21.162 81.466,22.174 				"/>
				<path fill="#1D1E1C" d="M81.473,22.332c-0.002,0-0.006,0-0.008,0h-2.408c-0.018,0-0.034-0.003-0.051-0.008l-3.393-1.146
					c-0.074-0.025-0.119-0.102-0.104-0.179c0.014-0.078,0.096-0.127,0.162-0.129l3.104,0.135c0.017,0,0.033,0.004,0.049,0.01
					l2.676,1.004c0.075,0.013,0.132,0.078,0.132,0.156C81.632,22.261,81.56,22.332,81.473,22.332z M79.084,22.016h1.511
					l-1.858-0.697l-1.968-0.085L79.084,22.016z"/>
			</g>
			<g>
				<polygon fill="#FFFFFF" points="80.862,26.208 78.481,26.807 79.034,22.174 81.466,22.174 				"/>
				<path fill="#1D1E1C" d="M78.481,26.965c-0.038,0-0.075-0.014-0.104-0.04c-0.039-0.034-0.059-0.086-0.053-0.137l0.553-4.633
					c0.01-0.08,0.077-0.14,0.157-0.14h2.432c0.046,0,0.09,0.02,0.12,0.055c0.029,0.035,0.043,0.081,0.036,0.126l-0.604,4.034
					c-0.01,0.063-0.056,0.114-0.118,0.13l-2.381,0.599C78.507,26.963,78.494,26.965,78.481,26.965z M79.175,22.332l-0.51,4.266
					l2.057-0.517l0.561-3.749H79.175z"/>
			</g>
			<path fill="#1D1E1C" d="M74.981,29.709c-0.896,0-1.576-0.943-1.605-0.984c-0.051-0.071-0.034-0.17,0.037-0.221
				c0.071-0.05,0.168-0.035,0.221,0.037c0.006,0.009,0.616,0.852,1.348,0.852c0.007,0,0.015,0,0.021,0
				c0.406-0.009,0.788-0.285,1.135-0.819c0.047-0.073,0.146-0.094,0.219-0.047c0.073,0.048,0.094,0.146,0.047,0.219
				c-0.407,0.628-0.877,0.952-1.395,0.964C75,29.709,74.99,29.709,74.981,29.709z"/>
			<path fill="#1D1E1C" d="M80.069,30.506c-0.05,0-0.099-0.023-0.129-0.067c-0.051-0.071-0.033-0.17,0.038-0.22
				c1.443-1.016,1.539-1.471,1.514-1.619c-0.023-0.129-0.173-0.172-0.18-0.174c-0.084-0.022-0.134-0.108-0.112-0.192
				c0.021-0.083,0.106-0.132,0.19-0.113c0.13,0.032,0.363,0.157,0.411,0.42c0.087,0.466-0.45,1.1-1.642,1.937
				C80.133,30.496,80.1,30.506,80.069,30.506z"/>
			
				<ellipse transform="matrix(0.9243 0.3816 -0.3816 0.9243 15.5072 -28.6438)" fill="#1D1E1C" cx="79.971" cy="24.775" rx="0.788" ry="1.079"/>
			<path fill="#1D1E1C" d="M80.153,25.071c-0.014,0-0.027-0.003-0.04-0.011c-0.037-0.022-0.05-0.071-0.028-0.108
				c0.336-0.574,0.521-1.321,0.521-2.104c0-1.71-0.876-3.101-1.952-3.101c-0.627,0-1.22,0.485-1.586,1.298
				c-0.019,0.04-0.064,0.057-0.104,0.04c-0.04-0.018-0.058-0.065-0.04-0.104c0.393-0.872,1.039-1.392,1.73-1.392
				c1.164,0,2.11,1.462,2.11,3.259c0,0.811-0.192,1.586-0.542,2.185C80.207,25.057,80.18,25.071,80.153,25.071z"/>
			
				<path fill="none" stroke="#1D1E1C" stroke-width="0.316" stroke-linecap="round" stroke-linejoin="round" stroke-miterlimit="10" d="
				M80.153,24.992"/>
			<path fill="#1D1E1C" d="M79.971,20.745c-0.094,0-0.187-0.042-0.248-0.121c-0.471-0.598-1.152-0.742-1.773-0.382
				c-0.151,0.087-0.345,0.035-0.432-0.115c-0.088-0.151-0.036-0.345,0.115-0.432c0.905-0.522,1.92-0.311,2.586,0.538
				c0.108,0.137,0.084,0.336-0.053,0.444C80.109,20.723,80.04,20.745,79.971,20.745z"/>
			<path fill="#1D1E1C" d="M75.977,26.598c-0.162,0.192-0.5,0.176-0.76-0.041c-0.256-0.213-0.338-0.544-0.178-0.737
				c0.162-0.193,0.502-0.175,0.76,0.041C76.059,26.074,76.137,26.404,75.977,26.598z"/>
			
				<ellipse transform="matrix(0.9242 0.382 -0.382 0.9242 15.5844 -28.7295)" fill="#FFFFFF" cx="80.144" cy="24.883" rx="0.348" ry="0.532"/>
			<path fill="#1D1E1C" d="M77.224,26.885c-0.594,0-1.185-0.205-1.762-0.612c-0.035-0.025-0.044-0.074-0.019-0.11
				c0.025-0.036,0.073-0.044,0.11-0.019c0.688,0.485,1.393,0.67,2.097,0.546c1.261-0.222,2.164-1.349,2.494-1.822
				c0.023-0.036,0.073-0.044,0.109-0.02c0.036,0.025,0.045,0.074,0.02,0.11c-0.341,0.491-1.277,1.656-2.596,1.888
				C77.527,26.872,77.376,26.885,77.224,26.885z"/>
			<path fill="#1D1E1C" d="M73.743,29.777c-0.001,0-0.006,0-0.008,0c-0.019,0-0.037-0.004-0.055-0.01l-1.453-0.539
				c-0.049-0.018-0.085-0.058-0.099-0.107l-0.936-3.619c-0.015-0.057,0.004-0.117,0.047-0.156c0.042-0.039,0.103-0.051,0.159-0.032
				l1.547,0.55c0.051,0.018,0.089,0.061,0.102,0.113l0.831,3.561c0.014,0.024,0.022,0.053,0.022,0.082
				C73.901,29.707,73.83,29.777,73.743,29.777z M72.414,28.961l1.101,0.408l-0.755-3.236l-1.186-0.421L72.414,28.961z"/>
			<g>
				<path fill="#1E1E1C" d="M78.091,29.325l-0.041-0.106h-0.344l-0.041,0.108c-0.016,0.043-0.029,0.071-0.041,0.086
					c-0.01,0.015-0.029,0.022-0.055,0.022c-0.021,0-0.04-0.008-0.057-0.023c-0.017-0.017-0.025-0.034-0.025-0.054
					c0-0.012,0.002-0.024,0.006-0.036c0.004-0.013,0.011-0.029,0.02-0.052l0.217-0.55c0.006-0.016,0.014-0.034,0.021-0.057
					c0.01-0.022,0.019-0.041,0.028-0.056s0.022-0.026,0.038-0.035c0.017-0.009,0.036-0.014,0.06-0.014
					c0.024,0,0.044,0.005,0.06,0.014c0.017,0.009,0.029,0.021,0.039,0.035c0.01,0.014,0.018,0.029,0.025,0.046
					c0.006,0.017,0.015,0.038,0.025,0.065l0.221,0.546c0.018,0.042,0.026,0.072,0.026,0.091c0,0.02-0.009,0.038-0.024,0.055
					c-0.017,0.016-0.036,0.024-0.06,0.024c-0.013,0-0.024-0.003-0.034-0.008s-0.018-0.011-0.024-0.02
					c-0.007-0.008-0.014-0.021-0.021-0.038C78.102,29.354,78.095,29.338,78.091,29.325z M77.751,29.09h0.252l-0.127-0.35
					L77.751,29.09z"/>
				<path fill="#1E1E1C" d="M78.63,29.059h-0.061v0.272c0,0.035-0.008,0.062-0.023,0.079c-0.016,0.017-0.036,0.025-0.062,0.025
					c-0.027,0-0.048-0.009-0.063-0.026c-0.016-0.019-0.022-0.044-0.022-0.078V28.68c0-0.037,0.009-0.064,0.024-0.081
					c0.018-0.017,0.044-0.024,0.08-0.024h0.279c0.039,0,0.072,0.002,0.1,0.005s0.051,0.01,0.073,0.02
					c0.026,0.012,0.05,0.027,0.071,0.048c0.02,0.021,0.035,0.045,0.046,0.073c0.011,0.027,0.016,0.057,0.016,0.087
					c0,0.063-0.018,0.114-0.054,0.151c-0.035,0.038-0.09,0.064-0.162,0.08c0.031,0.017,0.061,0.04,0.088,0.072
					c0.027,0.031,0.053,0.065,0.074,0.101s0.039,0.067,0.051,0.097c0.012,0.028,0.018,0.048,0.018,0.059
					c0,0.012-0.003,0.022-0.01,0.033c-0.008,0.012-0.018,0.021-0.029,0.026c-0.013,0.007-0.027,0.01-0.043,0.01
					c-0.02,0-0.035-0.005-0.049-0.014c-0.013-0.009-0.023-0.021-0.033-0.034c-0.01-0.015-0.022-0.034-0.039-0.062l-0.068-0.114
					c-0.025-0.042-0.047-0.074-0.066-0.096c-0.02-0.022-0.039-0.037-0.059-0.045C78.685,29.062,78.661,29.059,78.63,29.059z
					 M78.727,28.703h-0.158v0.232h0.154c0.041,0,0.076-0.003,0.104-0.011c0.028-0.007,0.05-0.02,0.064-0.036
					c0.016-0.018,0.022-0.041,0.022-0.071c0-0.023-0.006-0.044-0.018-0.062c-0.013-0.018-0.028-0.031-0.05-0.04
					C78.827,28.707,78.787,28.703,78.727,28.703z"/>
				<path fill="#1E1E1C" d="M79.446,29.183h-0.182c-0.028,0-0.049-0.006-0.064-0.02c-0.014-0.013-0.021-0.029-0.021-0.05
					s0.008-0.037,0.021-0.05c0.014-0.014,0.035-0.02,0.064-0.02h0.182c0.029,0,0.05,0.006,0.064,0.02
					c0.014,0.013,0.021,0.029,0.021,0.05s-0.007,0.037-0.021,0.05C79.497,29.177,79.475,29.183,79.446,29.183z"/>
				<path fill="#1E1E1C" d="M79.885,29.342v-0.525c-0.098,0.075-0.164,0.112-0.197,0.112c-0.017,0-0.031-0.007-0.043-0.02
					c-0.014-0.013-0.02-0.027-0.02-0.045c0-0.02,0.006-0.034,0.019-0.043s0.034-0.021,0.065-0.036
					c0.047-0.021,0.084-0.045,0.111-0.069c0.028-0.023,0.053-0.051,0.074-0.081s0.036-0.049,0.043-0.056
					c0.006-0.007,0.019-0.01,0.037-0.01c0.02,0,0.036,0.008,0.049,0.023c0.012,0.016,0.019,0.037,0.019,0.065v0.661
					c0,0.077-0.026,0.116-0.079,0.116c-0.023,0-0.043-0.008-0.057-0.023C79.892,29.396,79.885,29.373,79.885,29.342z"/>
			</g>
			<path fill="#1D1E1C" d="M79.686,31.793h-1.67c-0.463,0-0.902-0.37-0.979-0.826l-0.488-2.846c-0.039-0.233,0.018-0.455,0.16-0.624
				c0.143-0.168,0.351-0.262,0.587-0.262h2.947c0.235,0,0.445,0.093,0.593,0.261s0.211,0.388,0.181,0.622l-0.375,2.839
				C80.58,31.418,80.152,31.793,79.686,31.793z M77.296,27.584c-0.132,0-0.246,0.049-0.321,0.138
				c-0.075,0.089-0.104,0.209-0.082,0.34l0.488,2.846c0.049,0.291,0.34,0.537,0.636,0.537h1.67c0.292,0,0.571-0.244,0.609-0.534
				l0.375-2.839c0.018-0.132-0.017-0.255-0.097-0.346c-0.08-0.092-0.198-0.142-0.331-0.142H77.296z"/>
			<g>
				<g>
					<path fill="#FFFFFF" d="M80.228,33.595c-0.119-0.305-0.526-0.554-0.907-0.554h-0.979c-0.381,0-0.816,0.249-0.97,0.554
						s0.032,0.554,0.413,0.554h1.967C80.134,34.148,80.347,33.899,80.228,33.595z"/>
				</g>
				<path fill="#1D1E1C" d="M79.753,34.322h-1.967c-0.258,0-0.466-0.098-0.57-0.268c-0.096-0.154-0.095-0.346,0.002-0.538
					c0.183-0.364,0.678-0.649,1.125-0.649h0.979c0.454,0,0.924,0.291,1.069,0.664c0.073,0.188,0.058,0.372-0.045,0.521
					C80.228,34.225,80.012,34.322,79.753,34.322z M78.343,33.215c-0.316,0-0.689,0.21-0.814,0.458
					c-0.023,0.046-0.056,0.134-0.016,0.199c0.039,0.063,0.142,0.103,0.273,0.103h1.967c0.141,0,0.255-0.045,0.306-0.118
					c0.045-0.065,0.029-0.144,0.008-0.198c-0.094-0.24-0.436-0.443-0.745-0.443H78.343z"/>
			</g>
			<g>
				<rect x="78.481" y="31.619" fill="#FFFFFF" width="0.576" height="1.422"/>
				<path fill="#1D1E1C" d="M79.231,33.215h-0.924v-1.77h0.924V33.215z M78.655,32.867h0.229v-1.074h-0.229V32.867z"/>
			</g>
			<path fill="#1D1E1C" d="M79.677,31.078c-0.064,0-0.125-0.04-0.148-0.104c-0.03-0.082,0.012-0.173,0.094-0.203
				c0.133-0.049,0.242-0.139,0.287-0.236c0.022-0.049,0.026-0.094,0.012-0.133c-0.017-0.049-0.06-0.076-0.093-0.092
				c-0.098-0.047-0.24-0.045-0.375,0.003c-0.081,0.03-0.172-0.013-0.202-0.095s0.013-0.173,0.095-0.202
				c0.218-0.078,0.44-0.074,0.617,0.008c0.125,0.059,0.213,0.152,0.255,0.271c0.044,0.116,0.037,0.246-0.021,0.371
				c-0.081,0.178-0.251,0.324-0.465,0.402C79.713,31.074,79.695,31.078,79.677,31.078z"/>
		</g>
	</g>
	<g>
		<polygon fill="#FFFFFF" points="58.014,24.25 58.014,29.433 62.598,26.842 		"/>
		<path fill="#FFFFFF" d="M59.518,22.161c2.639,0,4.775,2.143,4.775,4.774c0,2.638-2.137,4.773-4.775,4.773
			c-2.631,0-4.77-2.136-4.77-4.773C54.749,24.304,56.887,22.161,59.518,22.161 M59.518,21.661c-2.905,0-5.27,2.366-5.27,5.274
			s2.364,5.273,5.27,5.273c2.909,0,5.275-2.365,5.275-5.273S62.427,21.661,59.518,21.661L59.518,21.661z"/>
	</g>
</g>
</svg>
