<?xml version="1.0" encoding="utf-8"?>
<!-- Generator: Adobe Illustrator 15.0.2, SVG Export Plug-In . SVG Version: 6.00 Build 0)  -->
<!DOCTYPE svg PUBLIC "-//W3C//DTD SVG 1.1//EN" "http://www.w3.org/Graphics/SVG/1.1/DTD/svg11.dtd">
<svg version="1.1" id="Layer_1" xmlns="http://www.w3.org/2000/svg" xmlns:xlink="http://www.w3.org/1999/xlink" x="0px" y="0px"
	 width="99.625px" height="18.48px" viewBox="0 0 99.625 18.48" enable-background="new 0 0 99.625 18.48" xml:space="preserve">
<path fill="#F29107" d="M70.494,5.109h7.845c0,0-2.513-1.741-2.64-5.109C72.138,1.785,70.494,5.109,70.494,5.109z"/>
<g>
	<path fill="#F39200" d="M99.625,16.48c0,1.101-0.899,2-2,2H2c-1.1,0-2-0.899-2-2V7.013c0-1.1,0.9-2,2-2h95.625c1.101,0,2,0.9,2,2
		V16.48z"/>
</g>
<g>
	<path fill="#FFFFFF" d="M6.239,10.424H5.448v2.599c0,0.15-0.033,0.262-0.1,0.334c-0.067,0.072-0.153,0.107-0.26,0.107
		c-0.107,0-0.194-0.035-0.262-0.109c-0.067-0.072-0.102-0.184-0.102-0.332v-2.599H3.935c-0.124,0-0.216-0.027-0.275-0.082
		c-0.061-0.055-0.091-0.127-0.091-0.217c0-0.092,0.031-0.166,0.094-0.219c0.062-0.055,0.153-0.081,0.272-0.081h2.305
		c0.125,0,0.219,0.027,0.279,0.083C6.58,9.964,6.61,10.037,6.61,10.125c0,0.09-0.031,0.162-0.093,0.217S6.363,10.424,6.239,10.424z"
		/>
	<path fill="#FFFFFF" d="M7.579,10.17v0.988c0.085-0.098,0.167-0.174,0.248-0.232c0.08-0.057,0.17-0.099,0.268-0.127
		s0.202-0.042,0.314-0.042c0.169,0,0.319,0.035,0.45,0.107c0.131,0.072,0.234,0.175,0.31,0.312c0.047,0.08,0.078,0.168,0.095,0.268
		c0.017,0.098,0.024,0.211,0.024,0.34v1.277c0,0.133-0.03,0.234-0.092,0.303c-0.061,0.068-0.142,0.102-0.242,0.102
		c-0.221,0-0.33-0.135-0.33-0.404v-1.125c0-0.213-0.031-0.377-0.096-0.492c-0.062-0.115-0.184-0.172-0.361-0.172
		c-0.118,0-0.226,0.033-0.32,0.102c-0.096,0.066-0.167,0.158-0.214,0.275c-0.036,0.1-0.054,0.277-0.054,0.531v0.881
		c0,0.131-0.029,0.232-0.089,0.301c-0.06,0.07-0.143,0.104-0.248,0.104c-0.22,0-0.329-0.135-0.329-0.404v-2.89
		c0-0.136,0.028-0.237,0.086-0.305s0.139-0.102,0.243-0.102c0.105,0,0.188,0.035,0.248,0.104S7.579,10.037,7.579,10.17z"/>
	<path fill="#FFFFFF" d="M11.633,13.09c-0.162,0.125-0.317,0.219-0.468,0.281s-0.319,0.094-0.507,0.094
		c-0.171,0-0.321-0.033-0.45-0.1c-0.13-0.068-0.229-0.16-0.3-0.275c-0.069-0.115-0.104-0.24-0.104-0.377
		c0-0.182,0.058-0.336,0.173-0.465c0.116-0.129,0.274-0.215,0.477-0.26c0.042-0.01,0.147-0.031,0.314-0.066
		c0.168-0.033,0.312-0.064,0.432-0.094c0.119-0.027,0.249-0.062,0.389-0.104c-0.008-0.176-0.043-0.305-0.105-0.387
		s-0.192-0.123-0.39-0.123c-0.169,0-0.297,0.023-0.382,0.07c-0.086,0.047-0.159,0.119-0.22,0.213
		c-0.062,0.094-0.104,0.156-0.13,0.188c-0.025,0.029-0.079,0.045-0.162,0.045c-0.075,0-0.14-0.025-0.194-0.072
		c-0.055-0.049-0.081-0.109-0.081-0.186c0-0.117,0.041-0.23,0.124-0.342c0.083-0.109,0.212-0.201,0.388-0.273
		c0.176-0.071,0.396-0.107,0.657-0.107c0.293,0,0.523,0.035,0.69,0.104c0.168,0.069,0.286,0.178,0.355,0.329
		c0.069,0.148,0.104,0.348,0.104,0.596c0,0.156,0,0.289-0.001,0.396c-0.001,0.109-0.002,0.23-0.003,0.365
		c0,0.125,0.021,0.256,0.062,0.391c0.042,0.137,0.062,0.225,0.062,0.264c0,0.068-0.032,0.131-0.097,0.186
		c-0.064,0.057-0.137,0.084-0.219,0.084c-0.068,0-0.136-0.031-0.202-0.096S11.707,13.211,11.633,13.09z M11.588,12.125
		c-0.098,0.037-0.239,0.074-0.426,0.113c-0.187,0.041-0.315,0.07-0.387,0.088c-0.071,0.02-0.14,0.057-0.205,0.111
		s-0.098,0.129-0.098,0.227c0,0.102,0.038,0.188,0.115,0.258c0.076,0.072,0.176,0.107,0.3,0.107c0.132,0,0.254-0.029,0.365-0.088
		c0.111-0.057,0.193-0.131,0.245-0.223c0.061-0.102,0.09-0.268,0.09-0.498V12.125z"/>
	<path fill="#FFFFFF" d="M13.524,11.125v0.08c0.117-0.154,0.246-0.268,0.385-0.34c0.14-0.072,0.299-0.108,0.48-0.108
		c0.176,0,0.332,0.038,0.471,0.115c0.139,0.076,0.242,0.184,0.311,0.324c0.043,0.082,0.072,0.17,0.085,0.264s0.02,0.215,0.02,0.361
		v1.24c0,0.133-0.03,0.234-0.092,0.303c-0.061,0.068-0.14,0.102-0.237,0.102c-0.1,0-0.181-0.033-0.242-0.104
		s-0.093-0.17-0.093-0.301v-1.111c0-0.219-0.03-0.387-0.092-0.504c-0.061-0.115-0.183-0.174-0.364-0.174
		c-0.119,0-0.228,0.035-0.325,0.105s-0.169,0.168-0.215,0.291c-0.032,0.1-0.049,0.285-0.049,0.557v0.836
		c0,0.135-0.031,0.236-0.094,0.305c-0.062,0.066-0.144,0.1-0.243,0.1c-0.096,0-0.175-0.033-0.236-0.104
		c-0.062-0.07-0.094-0.17-0.094-0.301v-1.926c0-0.127,0.028-0.223,0.084-0.285c0.055-0.062,0.131-0.094,0.227-0.094
		c0.059,0,0.111,0.014,0.158,0.041c0.048,0.027,0.086,0.069,0.114,0.125C13.511,10.977,13.524,11.045,13.524,11.125z"/>
	<path fill="#FFFFFF" d="M17.599,13.16l-0.588-0.967l-0.361,0.342v0.529c0,0.129-0.034,0.229-0.102,0.297
		c-0.067,0.07-0.145,0.104-0.232,0.104c-0.104,0-0.184-0.033-0.242-0.102s-0.088-0.17-0.088-0.303v-2.841
		c0-0.148,0.028-0.262,0.086-0.339c0.057-0.077,0.138-0.116,0.244-0.116c0.102,0,0.184,0.035,0.244,0.105
		c0.06,0.07,0.09,0.174,0.09,0.311v1.615l0.75-0.785c0.092-0.098,0.163-0.165,0.212-0.201c0.049-0.035,0.108-0.053,0.179-0.053
		c0.082,0,0.151,0.026,0.207,0.079c0.056,0.053,0.083,0.12,0.083,0.198c0,0.098-0.091,0.229-0.271,0.391l-0.354,0.326l0.684,1.074
		c0.051,0.08,0.087,0.141,0.108,0.182c0.022,0.041,0.033,0.08,0.033,0.117c0,0.107-0.029,0.189-0.087,0.252
		c-0.058,0.061-0.134,0.09-0.228,0.09c-0.082,0-0.145-0.021-0.188-0.064C17.733,13.355,17.674,13.275,17.599,13.16z"/>
	<path fill="#FFFFFF" d="M20.67,13.549l0.062-0.148l-0.82-2.066c-0.051-0.119-0.075-0.205-0.075-0.258
		c0-0.057,0.014-0.111,0.043-0.16s0.07-0.087,0.121-0.117c0.052-0.029,0.104-0.043,0.16-0.043c0.096,0,0.168,0.03,0.217,0.091
		c0.049,0.061,0.093,0.149,0.13,0.262l0.563,1.641l0.535-1.525c0.042-0.123,0.08-0.221,0.115-0.291
		c0.033-0.07,0.07-0.117,0.108-0.141s0.092-0.036,0.162-0.036c0.051,0,0.099,0.013,0.146,0.04c0.046,0.026,0.082,0.062,0.107,0.108
		c0.025,0.047,0.037,0.094,0.037,0.145c-0.006,0.031-0.017,0.074-0.031,0.131c-0.015,0.059-0.032,0.115-0.054,0.174l-0.869,2.275
		c-0.075,0.201-0.148,0.357-0.22,0.471c-0.071,0.115-0.166,0.203-0.284,0.264s-0.277,0.092-0.478,0.092
		c-0.195,0-0.342-0.021-0.439-0.064c-0.098-0.041-0.146-0.119-0.146-0.232c0-0.076,0.023-0.135,0.069-0.176
		c0.047-0.041,0.115-0.062,0.206-0.062c0.036,0,0.071,0.004,0.105,0.014c0.042,0.01,0.079,0.016,0.109,0.016
		c0.077,0,0.137-0.012,0.182-0.035c0.043-0.021,0.083-0.061,0.118-0.117S20.625,13.658,20.67,13.549z"/>
	<path fill="#FFFFFF" d="M25.194,12.111c0,0.197-0.031,0.381-0.094,0.549c-0.062,0.168-0.15,0.312-0.268,0.432
		c-0.117,0.121-0.258,0.213-0.42,0.277c-0.163,0.064-0.347,0.096-0.55,0.096c-0.202,0-0.384-0.031-0.544-0.098
		c-0.162-0.064-0.301-0.158-0.419-0.279s-0.208-0.264-0.269-0.43c-0.062-0.164-0.092-0.348-0.092-0.547
		c0-0.203,0.031-0.387,0.093-0.555s0.15-0.311,0.267-0.43c0.115-0.119,0.255-0.211,0.42-0.275c0.164-0.064,0.346-0.096,0.544-0.096
		c0.202,0,0.385,0.032,0.55,0.098c0.164,0.064,0.305,0.158,0.422,0.277c0.117,0.121,0.206,0.264,0.268,0.43
		C25.163,11.727,25.194,11.91,25.194,12.111z M24.524,12.111c0-0.271-0.06-0.484-0.179-0.635c-0.12-0.152-0.28-0.229-0.482-0.229
		c-0.13,0-0.245,0.035-0.345,0.102c-0.099,0.068-0.176,0.168-0.229,0.299c-0.055,0.133-0.081,0.287-0.081,0.463
		c0,0.174,0.026,0.326,0.079,0.455c0.053,0.131,0.129,0.23,0.228,0.301c0.099,0.068,0.214,0.104,0.348,0.104
		c0.202,0,0.362-0.076,0.482-0.229C24.465,12.59,24.524,12.379,24.524,12.111z"/>
	<path fill="#FFFFFF" d="M27.45,13.09v-0.086c-0.08,0.102-0.163,0.186-0.251,0.254s-0.185,0.119-0.289,0.152
		c-0.104,0.033-0.223,0.051-0.355,0.051c-0.162,0-0.306-0.033-0.434-0.1s-0.227-0.16-0.297-0.277
		c-0.083-0.141-0.125-0.344-0.125-0.609v-1.32c0-0.135,0.03-0.234,0.091-0.299c0.061-0.066,0.14-0.099,0.239-0.099
		c0.101,0,0.183,0.033,0.244,0.1c0.062,0.066,0.093,0.166,0.093,0.298v1.066c0,0.154,0.013,0.285,0.039,0.389
		c0.026,0.105,0.073,0.188,0.141,0.248c0.067,0.059,0.159,0.088,0.274,0.088c0.112,0,0.218-0.033,0.317-0.1s0.172-0.154,0.218-0.262
		c0.037-0.094,0.056-0.301,0.056-0.619v-0.811c0-0.133,0.031-0.232,0.093-0.298c0.062-0.066,0.143-0.1,0.242-0.1
		c0.099,0,0.179,0.032,0.238,0.099c0.061,0.065,0.091,0.165,0.091,0.299v1.93c0,0.127-0.029,0.223-0.087,0.287
		c-0.058,0.062-0.132,0.094-0.223,0.094c-0.092,0-0.167-0.031-0.227-0.098S27.45,13.209,27.45,13.09z"/>
	<path fill="#FFFFFF" d="M29.937,10.815h0.158v-0.201c0-0.208,0.026-0.373,0.079-0.496s0.143-0.213,0.269-0.269
		c0.126-0.057,0.299-0.085,0.52-0.085c0.389,0,0.583,0.096,0.583,0.286c0,0.062-0.021,0.114-0.062,0.159
		c-0.04,0.043-0.088,0.065-0.144,0.065c-0.026,0-0.071-0.005-0.134-0.015c-0.064-0.01-0.117-0.015-0.162-0.015
		c-0.12,0-0.197,0.035-0.231,0.106c-0.034,0.07-0.052,0.172-0.052,0.304v0.159h0.164c0.254,0,0.381,0.076,0.381,0.228
		c0,0.109-0.034,0.18-0.102,0.209s-0.16,0.043-0.279,0.043h-0.164v1.766c0,0.131-0.031,0.232-0.094,0.301
		c-0.062,0.07-0.144,0.104-0.242,0.104c-0.095,0-0.174-0.033-0.236-0.104c-0.062-0.068-0.094-0.17-0.094-0.301v-1.766h-0.184
		c-0.099,0-0.176-0.021-0.229-0.066c-0.055-0.045-0.081-0.104-0.081-0.176C29.602,10.895,29.713,10.815,29.937,10.815z"/>
	<path fill="#FFFFFF" d="M34.084,12.111c0,0.197-0.031,0.381-0.094,0.549c-0.062,0.168-0.15,0.312-0.268,0.432
		c-0.117,0.121-0.258,0.213-0.42,0.277c-0.163,0.064-0.347,0.096-0.55,0.096c-0.202,0-0.384-0.031-0.544-0.098
		c-0.162-0.064-0.301-0.158-0.419-0.279s-0.208-0.264-0.269-0.43c-0.062-0.164-0.092-0.348-0.092-0.547
		c0-0.203,0.031-0.387,0.093-0.555s0.15-0.311,0.267-0.43c0.115-0.119,0.255-0.211,0.42-0.275c0.164-0.064,0.346-0.096,0.544-0.096
		c0.202,0,0.385,0.032,0.55,0.098c0.164,0.064,0.305,0.158,0.422,0.277c0.117,0.121,0.206,0.264,0.268,0.43
		C34.053,11.727,34.084,11.91,34.084,12.111z M33.414,12.111c0-0.271-0.06-0.484-0.179-0.635c-0.12-0.152-0.28-0.229-0.482-0.229
		c-0.13,0-0.245,0.035-0.345,0.102c-0.099,0.068-0.176,0.168-0.229,0.299c-0.055,0.133-0.081,0.287-0.081,0.463
		c0,0.174,0.026,0.326,0.079,0.455c0.053,0.131,0.129,0.23,0.228,0.301c0.099,0.068,0.214,0.104,0.348,0.104
		c0.202,0,0.362-0.076,0.482-0.229C33.354,12.59,33.414,12.379,33.414,12.111z"/>
	<path fill="#FFFFFF" d="M35.271,12.504v0.557c0,0.135-0.031,0.236-0.096,0.305c-0.062,0.066-0.144,0.1-0.241,0.1
		c-0.096,0-0.175-0.033-0.237-0.102c-0.062-0.068-0.092-0.17-0.092-0.303v-1.855c0-0.299,0.107-0.449,0.324-0.449
		c0.11,0,0.19,0.034,0.239,0.104c0.049,0.071,0.075,0.172,0.081,0.309c0.079-0.137,0.161-0.238,0.245-0.309
		c0.084-0.07,0.195-0.104,0.335-0.104c0.141,0,0.276,0.034,0.408,0.104c0.132,0.071,0.197,0.163,0.197,0.278
		c0,0.082-0.027,0.148-0.084,0.201c-0.056,0.053-0.116,0.08-0.182,0.08c-0.024,0-0.083-0.016-0.177-0.045
		c-0.094-0.031-0.177-0.045-0.248-0.045c-0.098,0-0.178,0.025-0.239,0.076s-0.109,0.127-0.145,0.229
		c-0.033,0.102-0.058,0.221-0.07,0.359C35.277,12.135,35.271,12.303,35.271,12.504z"/>
	<path fill="#FFFFFF" d="M40.438,12.641c0,0.082-0.024,0.172-0.074,0.266c-0.05,0.096-0.126,0.186-0.228,0.27
		c-0.102,0.086-0.229,0.154-0.384,0.207c-0.155,0.053-0.329,0.078-0.523,0.078c-0.411,0-0.732-0.119-0.964-0.359
		s-0.347-0.562-0.347-0.967c0-0.273,0.053-0.516,0.158-0.725c0.106-0.211,0.26-0.373,0.459-0.486
		c0.201-0.116,0.439-0.173,0.719-0.173c0.172,0,0.33,0.025,0.475,0.076c0.144,0.05,0.266,0.115,0.366,0.195
		c0.1,0.08,0.177,0.166,0.229,0.256s0.079,0.174,0.079,0.252c0,0.08-0.029,0.148-0.089,0.203s-0.132,0.082-0.217,0.082
		c-0.055,0-0.101-0.014-0.138-0.041c-0.036-0.029-0.077-0.076-0.123-0.139c-0.081-0.123-0.166-0.217-0.255-0.279
		c-0.089-0.061-0.201-0.092-0.338-0.092c-0.197,0-0.356,0.076-0.477,0.23s-0.181,0.365-0.181,0.631c0,0.125,0.016,0.24,0.046,0.346
		c0.031,0.105,0.076,0.195,0.135,0.27s0.129,0.129,0.213,0.168c0.082,0.037,0.174,0.057,0.273,0.057
		c0.133,0,0.247-0.031,0.343-0.092c0.095-0.062,0.179-0.156,0.253-0.283c0.04-0.076,0.084-0.135,0.131-0.176
		c0.048-0.043,0.105-0.064,0.174-0.064c0.081,0,0.148,0.031,0.203,0.094C40.411,12.504,40.438,12.57,40.438,12.641z"/>
	<path fill="#FFFFFF" d="M42.704,13.09c-0.162,0.125-0.317,0.219-0.468,0.281s-0.319,0.094-0.507,0.094
		c-0.171,0-0.321-0.033-0.45-0.1c-0.13-0.068-0.229-0.16-0.3-0.275c-0.069-0.115-0.104-0.24-0.104-0.377
		c0-0.182,0.058-0.336,0.173-0.465c0.116-0.129,0.274-0.215,0.477-0.26c0.042-0.01,0.147-0.031,0.314-0.066
		c0.168-0.033,0.312-0.064,0.432-0.094c0.119-0.027,0.249-0.062,0.389-0.104c-0.008-0.176-0.043-0.305-0.105-0.387
		s-0.192-0.123-0.39-0.123c-0.169,0-0.297,0.023-0.382,0.07c-0.086,0.047-0.159,0.119-0.22,0.213
		c-0.062,0.094-0.104,0.156-0.13,0.188c-0.025,0.029-0.079,0.045-0.162,0.045c-0.075,0-0.14-0.025-0.194-0.072
		c-0.055-0.049-0.081-0.109-0.081-0.186c0-0.117,0.041-0.23,0.124-0.342c0.083-0.109,0.212-0.201,0.388-0.273
		c0.176-0.071,0.396-0.107,0.657-0.107c0.293,0,0.523,0.035,0.69,0.104c0.168,0.069,0.286,0.178,0.355,0.329
		c0.069,0.148,0.104,0.348,0.104,0.596c0,0.156,0,0.289-0.001,0.396c-0.001,0.109-0.002,0.23-0.003,0.365
		c0,0.125,0.021,0.256,0.062,0.391c0.042,0.137,0.062,0.225,0.062,0.264c0,0.068-0.032,0.131-0.097,0.186
		c-0.064,0.057-0.137,0.084-0.219,0.084c-0.068,0-0.136-0.031-0.202-0.096S42.778,13.211,42.704,13.09z M42.659,12.125
		c-0.098,0.037-0.239,0.074-0.426,0.113c-0.187,0.041-0.315,0.07-0.387,0.088c-0.071,0.02-0.14,0.057-0.205,0.111
		s-0.098,0.129-0.098,0.227c0,0.102,0.038,0.188,0.115,0.258c0.076,0.072,0.176,0.107,0.3,0.107c0.132,0,0.254-0.029,0.365-0.088
		c0.111-0.057,0.193-0.131,0.245-0.223c0.061-0.102,0.09-0.268,0.09-0.498V12.125z"/>
	<path fill="#FFFFFF" d="M43.99,13.061v-2.89c0-0.134,0.03-0.234,0.09-0.303s0.14-0.104,0.24-0.104s0.183,0.034,0.244,0.102
		s0.093,0.169,0.093,0.305v2.89c0,0.135-0.031,0.236-0.094,0.305c-0.062,0.066-0.144,0.1-0.243,0.1
		c-0.098,0-0.177-0.033-0.238-0.104C44.021,13.291,43.99,13.191,43.99,13.061z"/>
	<path fill="#FFFFFF" d="M45.345,13.061v-2.89c0-0.134,0.03-0.234,0.09-0.303s0.14-0.104,0.24-0.104s0.183,0.034,0.244,0.102
		s0.093,0.169,0.093,0.305v2.89c0,0.135-0.031,0.236-0.094,0.305c-0.062,0.066-0.144,0.1-0.243,0.1
		c-0.098,0-0.177-0.033-0.238-0.104C45.376,13.291,45.345,13.191,45.345,13.061z"/>
	<path fill="#FFFFFF" d="M47.038,10.446c-0.094,0-0.173-0.028-0.238-0.086c-0.066-0.057-0.1-0.137-0.1-0.241
		c0-0.095,0.034-0.172,0.102-0.233c0.067-0.061,0.146-0.092,0.236-0.092c0.086,0,0.162,0.028,0.229,0.084
		c0.067,0.055,0.101,0.136,0.101,0.241c0,0.103-0.032,0.183-0.098,0.24S47.127,10.446,47.038,10.446z M47.367,11.135v1.926
		c0,0.133-0.032,0.234-0.095,0.303c-0.064,0.068-0.145,0.102-0.242,0.102s-0.177-0.033-0.238-0.104
		c-0.061-0.07-0.092-0.17-0.092-0.301v-1.906c0-0.133,0.031-0.232,0.092-0.298c0.062-0.066,0.141-0.1,0.238-0.1
		s0.178,0.033,0.242,0.1C47.335,10.922,47.367,11.016,47.367,11.135z"/>
	<path fill="#FFFFFF" d="M48.661,11.125v0.08c0.117-0.154,0.246-0.268,0.385-0.34c0.14-0.072,0.299-0.108,0.48-0.108
		c0.176,0,0.332,0.038,0.471,0.115c0.139,0.076,0.242,0.184,0.311,0.324c0.043,0.082,0.072,0.17,0.085,0.264s0.02,0.215,0.02,0.361
		v1.24c0,0.133-0.03,0.234-0.092,0.303c-0.061,0.068-0.14,0.102-0.237,0.102c-0.1,0-0.181-0.033-0.242-0.104
		s-0.093-0.17-0.093-0.301v-1.111c0-0.219-0.03-0.387-0.092-0.504c-0.061-0.115-0.183-0.174-0.364-0.174
		c-0.119,0-0.228,0.035-0.325,0.105s-0.169,0.168-0.215,0.291c-0.032,0.1-0.049,0.285-0.049,0.557v0.836
		c0,0.135-0.031,0.236-0.094,0.305c-0.062,0.066-0.144,0.1-0.243,0.1c-0.096,0-0.175-0.033-0.236-0.104
		c-0.062-0.07-0.094-0.17-0.094-0.301v-1.926c0-0.127,0.028-0.223,0.084-0.285c0.055-0.062,0.131-0.094,0.227-0.094
		c0.059,0,0.111,0.014,0.158,0.041c0.048,0.027,0.086,0.069,0.114,0.125C48.647,10.977,48.661,11.045,48.661,11.125z"/>
	<path fill="#FFFFFF" d="M53.527,11.244v1.936c0,0.223-0.023,0.412-0.07,0.572c-0.047,0.158-0.123,0.291-0.227,0.395
		c-0.105,0.105-0.242,0.182-0.41,0.232s-0.377,0.076-0.629,0.076c-0.229,0-0.434-0.033-0.615-0.098
		c-0.18-0.064-0.318-0.146-0.416-0.248c-0.098-0.102-0.147-0.207-0.147-0.314c0-0.08,0.027-0.146,0.082-0.199
		c0.055-0.051,0.124-0.076,0.202-0.076c0.098,0,0.182,0.043,0.256,0.129c0.035,0.045,0.072,0.088,0.111,0.133
		c0.037,0.045,0.08,0.084,0.127,0.115c0.045,0.031,0.102,0.055,0.166,0.07c0.066,0.016,0.141,0.023,0.225,0.023
		c0.174,0,0.307-0.023,0.402-0.072c0.096-0.047,0.162-0.115,0.199-0.201c0.039-0.086,0.061-0.178,0.068-0.277
		c0.006-0.098,0.012-0.256,0.014-0.475c-0.102,0.145-0.221,0.252-0.355,0.328c-0.133,0.074-0.293,0.111-0.479,0.111
		c-0.223,0-0.418-0.057-0.586-0.17c-0.166-0.115-0.295-0.273-0.383-0.479c-0.09-0.205-0.135-0.443-0.135-0.711
		c0-0.201,0.027-0.381,0.082-0.543c0.055-0.16,0.131-0.297,0.233-0.406c0.102-0.111,0.217-0.195,0.35-0.25
		c0.131-0.057,0.275-0.085,0.434-0.085c0.189,0,0.354,0.037,0.492,0.109c0.137,0.072,0.266,0.186,0.385,0.34v-0.09
		c0-0.115,0.029-0.205,0.086-0.268c0.057-0.063,0.129-0.095,0.219-0.095c0.129,0,0.215,0.041,0.258,0.125
		C53.505,10.965,53.527,11.086,53.527,11.244z M51.595,12.088c0,0.271,0.059,0.475,0.178,0.613c0.117,0.139,0.27,0.207,0.457,0.207
		c0.111,0,0.215-0.029,0.314-0.088c0.098-0.061,0.178-0.148,0.24-0.27c0.062-0.119,0.094-0.264,0.094-0.436
		c0-0.271-0.061-0.482-0.18-0.635c-0.121-0.15-0.277-0.227-0.473-0.227c-0.191,0-0.344,0.072-0.459,0.217
		C51.654,11.615,51.595,11.822,51.595,12.088z"/>
	<path fill="#FFFFFF" d="M56.027,10.241l0.811,2.4l0.812-2.417c0.043-0.127,0.074-0.215,0.096-0.265s0.057-0.094,0.105-0.134
		s0.115-0.061,0.199-0.061c0.062,0,0.119,0.016,0.172,0.047s0.096,0.072,0.125,0.123c0.031,0.052,0.045,0.104,0.045,0.155
		c0,0.036-0.004,0.074-0.014,0.116c-0.01,0.041-0.021,0.082-0.037,0.122c-0.014,0.04-0.029,0.081-0.043,0.123l-0.867,2.338
		c-0.031,0.09-0.062,0.176-0.094,0.256s-0.066,0.15-0.107,0.213c-0.041,0.061-0.094,0.109-0.162,0.148
		c-0.066,0.039-0.15,0.059-0.248,0.059s-0.18-0.018-0.248-0.057c-0.066-0.037-0.121-0.088-0.162-0.15
		c-0.043-0.062-0.078-0.135-0.109-0.215s-0.062-0.164-0.092-0.254l-0.854-2.319c-0.014-0.042-0.029-0.084-0.045-0.124
		c-0.016-0.041-0.027-0.085-0.039-0.133c-0.01-0.047-0.016-0.087-0.016-0.119c0-0.083,0.033-0.158,0.1-0.227s0.15-0.104,0.252-0.104
		c0.123,0,0.211,0.038,0.262,0.114C55.921,9.954,55.974,10.075,56.027,10.241z"/>
	<path fill="#FFFFFF" d="M58.89,13.061v-2.89c0-0.134,0.029-0.234,0.09-0.303c0.059-0.068,0.139-0.104,0.24-0.104
		c0.1,0,0.182,0.034,0.244,0.102c0.061,0.067,0.092,0.169,0.092,0.305v2.89c0,0.135-0.031,0.236-0.094,0.305
		c-0.062,0.066-0.143,0.1-0.242,0.1c-0.098,0-0.178-0.033-0.238-0.104S58.89,13.191,58.89,13.061z"/>
	<path fill="#FFFFFF" d="M61.931,13.09c-0.162,0.125-0.318,0.219-0.469,0.281s-0.318,0.094-0.506,0.094
		c-0.172,0-0.322-0.033-0.451-0.1c-0.129-0.068-0.229-0.16-0.299-0.275s-0.105-0.24-0.105-0.377c0-0.182,0.059-0.336,0.174-0.465
		s0.273-0.215,0.477-0.26c0.041-0.01,0.146-0.031,0.314-0.066c0.168-0.033,0.311-0.064,0.432-0.094
		c0.119-0.027,0.248-0.062,0.389-0.104c-0.008-0.176-0.043-0.305-0.105-0.387s-0.193-0.123-0.391-0.123
		c-0.168,0-0.297,0.023-0.381,0.07c-0.086,0.047-0.16,0.119-0.221,0.213s-0.104,0.156-0.129,0.188
		c-0.025,0.029-0.08,0.045-0.162,0.045c-0.076,0-0.141-0.025-0.195-0.072c-0.055-0.049-0.08-0.109-0.08-0.186
		c0-0.117,0.041-0.23,0.123-0.342c0.084-0.109,0.213-0.201,0.389-0.273c0.176-0.071,0.395-0.107,0.656-0.107
		c0.293,0,0.523,0.035,0.691,0.104c0.168,0.069,0.285,0.178,0.355,0.329c0.068,0.148,0.104,0.348,0.104,0.596
		c0,0.156,0,0.289-0.002,0.396c0,0.109-0.002,0.23-0.002,0.365c0,0.125,0.02,0.256,0.061,0.391c0.043,0.137,0.062,0.225,0.062,0.264
		c0,0.068-0.031,0.131-0.096,0.186c-0.064,0.057-0.137,0.084-0.219,0.084c-0.068,0-0.137-0.031-0.203-0.096
		S62.005,13.211,61.931,13.09z M61.886,12.125c-0.098,0.037-0.24,0.074-0.426,0.113c-0.188,0.041-0.316,0.07-0.387,0.088
		c-0.072,0.02-0.141,0.057-0.205,0.111c-0.066,0.055-0.098,0.129-0.098,0.227c0,0.102,0.037,0.188,0.115,0.258
		c0.076,0.072,0.176,0.107,0.299,0.107c0.133,0,0.254-0.029,0.365-0.088c0.111-0.057,0.193-0.131,0.246-0.223
		c0.061-0.102,0.09-0.268,0.09-0.498V12.125z"/>
	<path fill="#FFFFFF" d="M65.042,13.084V13.02c-0.09,0.102-0.178,0.186-0.266,0.25c-0.086,0.064-0.182,0.113-0.283,0.146
		s-0.213,0.049-0.332,0.049c-0.16,0-0.309-0.033-0.443-0.1c-0.137-0.068-0.254-0.164-0.354-0.291
		c-0.1-0.125-0.174-0.271-0.225-0.441c-0.053-0.168-0.078-0.352-0.078-0.549c0-0.416,0.102-0.742,0.307-0.975
		c0.203-0.232,0.471-0.349,0.803-0.349c0.191,0,0.354,0.033,0.486,0.1c0.131,0.066,0.26,0.167,0.385,0.304V10.18
		c0-0.137,0.027-0.24,0.082-0.311s0.133-0.105,0.232-0.105c0.102,0,0.18,0.032,0.234,0.097s0.082,0.159,0.082,0.284v2.939
		c0,0.127-0.029,0.223-0.088,0.287c-0.059,0.062-0.135,0.094-0.229,0.094c-0.09,0-0.166-0.031-0.225-0.098
		C65.072,13.301,65.042,13.207,65.042,13.084z M63.732,12.105c0,0.182,0.027,0.334,0.084,0.461s0.133,0.223,0.23,0.287
		s0.205,0.098,0.32,0.098c0.117,0,0.225-0.031,0.32-0.092c0.098-0.061,0.174-0.154,0.232-0.281c0.057-0.125,0.086-0.283,0.086-0.473
		c0-0.178-0.029-0.33-0.086-0.457c-0.059-0.129-0.137-0.227-0.234-0.293c-0.1-0.068-0.207-0.102-0.324-0.102
		c-0.121,0-0.23,0.035-0.326,0.104c-0.096,0.07-0.172,0.168-0.225,0.299C63.757,11.785,63.732,11.936,63.732,12.105z"/>
	<path fill="#FFFFFF" d="M68.167,10.241l0.811,2.4l0.812-2.417c0.043-0.127,0.074-0.215,0.096-0.265s0.057-0.094,0.105-0.134
		s0.115-0.061,0.199-0.061c0.062,0,0.119,0.016,0.172,0.047s0.096,0.072,0.125,0.123c0.031,0.052,0.045,0.104,0.045,0.155
		c0,0.036-0.004,0.074-0.014,0.116c-0.01,0.041-0.021,0.082-0.037,0.122c-0.014,0.04-0.029,0.081-0.043,0.123l-0.867,2.338
		c-0.031,0.09-0.062,0.176-0.094,0.256s-0.066,0.15-0.107,0.213c-0.041,0.061-0.094,0.109-0.162,0.148
		c-0.066,0.039-0.15,0.059-0.248,0.059s-0.18-0.018-0.248-0.057c-0.066-0.037-0.121-0.088-0.162-0.15
		c-0.043-0.062-0.078-0.135-0.109-0.215s-0.062-0.164-0.092-0.254l-0.854-2.319c-0.014-0.042-0.029-0.084-0.045-0.124
		c-0.016-0.041-0.027-0.085-0.039-0.133c-0.01-0.047-0.016-0.087-0.016-0.119c0-0.083,0.033-0.158,0.1-0.227s0.15-0.104,0.252-0.104
		c0.123,0,0.211,0.038,0.262,0.114C68.062,9.954,68.115,10.075,68.167,10.241z"/>
	<path fill="#FFFFFF" d="M72.644,12.273h-1.305c0.002,0.152,0.031,0.285,0.092,0.4c0.059,0.117,0.139,0.203,0.236,0.262
		c0.1,0.059,0.207,0.088,0.326,0.088c0.08,0,0.152-0.01,0.219-0.027c0.066-0.02,0.129-0.049,0.191-0.088
		c0.062-0.041,0.119-0.082,0.172-0.129c0.051-0.045,0.119-0.107,0.201-0.186c0.035-0.029,0.084-0.043,0.146-0.043
		c0.068,0,0.125,0.018,0.166,0.055c0.043,0.039,0.064,0.092,0.064,0.16c0,0.061-0.023,0.131-0.07,0.211
		c-0.049,0.08-0.119,0.158-0.215,0.232s-0.215,0.135-0.359,0.184c-0.143,0.049-0.309,0.072-0.496,0.072
		c-0.428,0-0.762-0.121-0.998-0.365c-0.238-0.244-0.357-0.576-0.357-0.994c0-0.197,0.029-0.379,0.088-0.547
		c0.059-0.17,0.145-0.314,0.258-0.434c0.111-0.121,0.25-0.213,0.414-0.278c0.164-0.064,0.348-0.097,0.547-0.097
		c0.26,0,0.484,0.056,0.67,0.166c0.188,0.109,0.326,0.252,0.42,0.426c0.092,0.174,0.139,0.352,0.139,0.531
		c0,0.168-0.049,0.277-0.145,0.326C72.953,12.25,72.818,12.273,72.644,12.273z M71.339,11.896h1.209
		c-0.018-0.229-0.078-0.398-0.186-0.512c-0.105-0.113-0.246-0.17-0.42-0.17c-0.166,0-0.303,0.057-0.41,0.172
		C71.427,11.502,71.363,11.672,71.339,11.896z"/>
	<path fill="#FFFFFF" d="M74.359,11.125v0.08c0.117-0.154,0.246-0.268,0.385-0.34c0.139-0.072,0.299-0.108,0.48-0.108
		c0.176,0,0.332,0.038,0.471,0.115c0.139,0.076,0.242,0.184,0.311,0.324c0.043,0.082,0.072,0.17,0.084,0.264
		c0.014,0.094,0.02,0.215,0.02,0.361v1.24c0,0.133-0.029,0.234-0.092,0.303c-0.061,0.068-0.139,0.102-0.236,0.102
		c-0.1,0-0.182-0.033-0.242-0.104c-0.062-0.07-0.094-0.17-0.094-0.301v-1.111c0-0.219-0.029-0.387-0.092-0.504
		c-0.061-0.115-0.182-0.174-0.363-0.174c-0.119,0-0.229,0.035-0.326,0.105s-0.168,0.168-0.215,0.291
		c-0.031,0.1-0.049,0.285-0.049,0.557v0.836c0,0.135-0.031,0.236-0.094,0.305c-0.062,0.066-0.143,0.1-0.242,0.1
		c-0.096,0-0.176-0.033-0.236-0.104c-0.062-0.07-0.094-0.17-0.094-0.301v-1.926c0-0.127,0.027-0.223,0.084-0.285
		c0.055-0.062,0.131-0.094,0.227-0.094c0.059,0,0.111,0.014,0.158,0.041s0.086,0.069,0.113,0.125
		C74.345,10.977,74.359,11.045,74.359,11.125z"/>
	<path fill="#FFFFFF" d="M78.599,13.084V13.02c-0.088,0.102-0.178,0.186-0.264,0.25c-0.088,0.064-0.182,0.113-0.283,0.146
		s-0.213,0.049-0.334,0.049c-0.158,0-0.307-0.033-0.443-0.1c-0.135-0.068-0.252-0.164-0.352-0.291
		c-0.1-0.125-0.176-0.271-0.227-0.441c-0.051-0.168-0.076-0.352-0.076-0.549c0-0.416,0.102-0.742,0.305-0.975
		s0.471-0.349,0.803-0.349c0.193,0,0.354,0.033,0.486,0.1c0.131,0.066,0.26,0.167,0.385,0.304V10.18c0-0.137,0.027-0.24,0.082-0.311
		s0.133-0.105,0.234-0.105c0.1,0,0.178,0.032,0.232,0.097s0.082,0.159,0.082,0.284v2.939c0,0.127-0.029,0.223-0.088,0.287
		c-0.059,0.062-0.135,0.094-0.227,0.094s-0.166-0.031-0.227-0.098C78.63,13.301,78.599,13.207,78.599,13.084z M77.289,12.105
		c0,0.182,0.029,0.334,0.084,0.461c0.057,0.127,0.133,0.223,0.23,0.287s0.205,0.098,0.32,0.098c0.117,0,0.225-0.031,0.322-0.092
		c0.096-0.061,0.174-0.154,0.23-0.281c0.059-0.125,0.088-0.283,0.088-0.473c0-0.178-0.029-0.33-0.088-0.457
		c-0.057-0.129-0.135-0.227-0.234-0.293c-0.098-0.068-0.205-0.102-0.322-0.102c-0.123,0-0.232,0.035-0.328,0.104
		c-0.096,0.07-0.17,0.168-0.223,0.299C77.316,11.785,77.289,11.936,77.289,12.105z"/>
	<path fill="#FFFFFF" d="M80.56,12.504v0.557c0,0.135-0.031,0.236-0.096,0.305c-0.062,0.066-0.143,0.1-0.24,0.1
		c-0.096,0-0.176-0.033-0.238-0.102c-0.061-0.068-0.092-0.17-0.092-0.303v-1.855c0-0.299,0.107-0.449,0.324-0.449
		c0.111,0,0.191,0.034,0.24,0.104c0.049,0.071,0.074,0.172,0.08,0.309c0.08-0.137,0.162-0.238,0.246-0.309
		c0.084-0.07,0.195-0.104,0.334-0.104c0.141,0,0.277,0.034,0.408,0.104c0.133,0.071,0.197,0.163,0.197,0.278
		c0,0.082-0.027,0.148-0.084,0.201c-0.055,0.053-0.115,0.08-0.182,0.08c-0.023,0-0.082-0.016-0.176-0.045
		c-0.094-0.031-0.178-0.045-0.248-0.045c-0.098,0-0.178,0.025-0.24,0.076c-0.061,0.051-0.109,0.127-0.145,0.229
		c-0.033,0.102-0.057,0.221-0.07,0.359C80.568,12.135,80.56,12.303,80.56,12.504z"/>
	<path fill="#FFFFFF" d="M84.394,12.111c0,0.197-0.031,0.381-0.094,0.549s-0.15,0.312-0.268,0.432
		c-0.117,0.121-0.258,0.213-0.42,0.277c-0.164,0.064-0.348,0.096-0.551,0.096c-0.201,0-0.383-0.031-0.543-0.098
		c-0.162-0.064-0.301-0.158-0.42-0.279c-0.117-0.121-0.207-0.264-0.268-0.43c-0.062-0.164-0.092-0.348-0.092-0.547
		c0-0.203,0.031-0.387,0.092-0.555c0.062-0.168,0.15-0.311,0.268-0.43c0.115-0.119,0.254-0.211,0.42-0.275
		c0.164-0.064,0.346-0.096,0.543-0.096c0.203,0,0.385,0.032,0.551,0.098c0.164,0.064,0.305,0.158,0.422,0.277
		c0.117,0.121,0.205,0.264,0.268,0.43C84.363,11.727,84.394,11.91,84.394,12.111z M83.724,12.111c0-0.271-0.061-0.484-0.18-0.635
		c-0.119-0.152-0.279-0.229-0.482-0.229c-0.129,0-0.244,0.035-0.344,0.102c-0.1,0.068-0.176,0.168-0.229,0.299
		c-0.055,0.133-0.082,0.287-0.082,0.463c0,0.174,0.027,0.326,0.08,0.455c0.053,0.131,0.129,0.23,0.227,0.301
		c0.1,0.068,0.215,0.104,0.348,0.104c0.203,0,0.363-0.076,0.482-0.229S83.724,12.379,83.724,12.111z"/>
	<path fill="#FFFFFF" d="M85.333,11.17l0.434,1.49l0.396-1.385c0.043-0.145,0.074-0.244,0.094-0.297
		c0.021-0.053,0.059-0.104,0.115-0.151c0.057-0.048,0.133-0.071,0.23-0.071c0.1,0,0.178,0.023,0.232,0.071
		c0.057,0.047,0.096,0.1,0.119,0.157s0.055,0.152,0.096,0.291l0.395,1.385l0.439-1.49c0.029-0.107,0.053-0.184,0.07-0.232
		c0.02-0.047,0.049-0.09,0.092-0.126c0.041-0.037,0.104-0.055,0.182-0.055c0.08,0,0.15,0.027,0.209,0.082
		c0.059,0.056,0.088,0.121,0.088,0.195c0,0.068-0.025,0.172-0.076,0.311l-0.545,1.598c-0.047,0.135-0.084,0.232-0.109,0.293
		s-0.066,0.113-0.123,0.16s-0.133,0.07-0.23,0.07c-0.102,0-0.182-0.023-0.238-0.074c-0.059-0.051-0.102-0.113-0.129-0.186
		c-0.027-0.074-0.057-0.17-0.09-0.287l-0.381-1.299l-0.369,1.299c-0.049,0.182-0.102,0.318-0.158,0.41s-0.156,0.137-0.301,0.137
		c-0.072,0-0.135-0.014-0.186-0.041c-0.053-0.029-0.096-0.07-0.129-0.123c-0.035-0.053-0.064-0.115-0.09-0.188
		c-0.027-0.072-0.047-0.131-0.062-0.172l-0.539-1.598c-0.053-0.148-0.08-0.252-0.08-0.311c0-0.07,0.029-0.135,0.086-0.192
		c0.057-0.057,0.127-0.085,0.209-0.085c0.111,0,0.186,0.031,0.225,0.094C85.248,10.912,85.289,11.02,85.333,11.17z"/>
</g>
</svg>
