<?xml version="1.0" encoding="utf-8"?>
<!-- Generator: Adobe Illustrator 15.0.0, SVG Export Plug-In . SVG Version: 6.00 Build 0)  -->
<!DOCTYPE svg PUBLIC "-//W3C//DTD SVG 1.1//EN" "http://www.w3.org/Graphics/SVG/1.1/DTD/svg11.dtd">
<svg version="1.1" id="Layer_1" xmlns="http://www.w3.org/2000/svg" xmlns:xlink="http://www.w3.org/1999/xlink" x="0px" y="0px"
	 width="90.665px" height="58.73px" viewBox="0 0 90.665 58.73" enable-background="new 0 0 90.665 58.73" xml:space="preserve">
<g>
	<g>
		<g>
			
				<radialGradient id="SVGID_1_" cx="-1132.3384" cy="-440.1992" r="41.5245" gradientTransform="matrix(0.4097 0 0 0.0996 529.0527 86.3234)" gradientUnits="userSpaceOnUse">
				<stop  offset="0" style="stop-color:#9C9C9C"/>
				<stop  offset="0.019" style="stop-color:#A2A1A1"/>
				<stop  offset="0.2086" style="stop-color:#D4D4D4"/>
				<stop  offset="0.3423" style="stop-color:#E2E1E2"/>
				<stop  offset="0.5547" style="stop-color:#F2F2F2"/>
				<stop  offset="0.7721" style="stop-color:#FCFCFC"/>
				<stop  offset="1" style="stop-color:#FFFFFF"/>
			</radialGradient>
			<path fill="url(#SVGID_1_)" d="M82.422,42.493c0,2.525-7.738,4.574-17.287,4.574c-9.551,0-17.291-2.049-17.291-4.574
				c0-2.521,7.74-4.568,17.291-4.568C74.684,37.925,82.422,39.972,82.422,42.493z"/>
			
				<polygon fill="#FFFFFF" stroke="#1E1E1C" stroke-width="0.4909" stroke-linecap="round" stroke-linejoin="round" stroke-miterlimit="10" points="
				64.643,30.987 60.026,28.547 60.268,22.008 65.536,23.791 			"/>
			<polygon fill="#1E1E1C" points="62.071,25.535 61.1,25.078 61.383,24.772 62.086,25.127 			"/>
			<polygon fill="#1E1E1C" points="63.991,26.265 63.11,25.858 63.022,25.388 63.858,25.745 			"/>
			<polygon fill="#1E1E1C" points="62.85,28.215 61.68,27.646 61.422,26.801 63.245,27.646 			"/>
			
				<polygon fill="#FFFFFF" stroke="#1E1E1C" stroke-width="0.4909" stroke-linecap="round" stroke-linejoin="round" stroke-miterlimit="10" points="
				65.536,23.791 60.268,22.008 65.09,22.222 69.28,23.791 			"/>
			
				<polygon fill="#FFFFFF" stroke="#1E1E1C" stroke-width="0.4909" stroke-linecap="round" stroke-linejoin="round" stroke-miterlimit="10" points="
				68.34,30.059 64.643,30.987 65.502,23.791 69.28,23.791 			"/>
			
				<path fill="none" stroke="#1E1E1C" stroke-width="0.4909" stroke-linecap="round" stroke-linejoin="round" stroke-miterlimit="10" d="
				M52.006,32.521c0,0,5.746,1.629,9.199,0.105"/>
			
				<path fill="none" stroke="#1E1E1C" stroke-width="0.4909" stroke-linecap="round" stroke-linejoin="round" stroke-miterlimit="10" d="
				M69.104,33.265c0,0,1.023,1.598,0.818,3.197"/>
			<path fill="#1E1E1C" d="M68.088,28.298c-0.352,0.858-1.145,1.343-1.771,1.083c-0.623-0.256-0.844-1.158-0.49-2.015
				c0.354-0.854,1.145-1.342,1.77-1.081C68.223,26.542,68.44,27.442,68.088,28.298z"/>
			
				<path fill="none" stroke="#1E1E1C" stroke-width="0.2455" stroke-linecap="round" stroke-linejoin="round" stroke-miterlimit="10" d="
				M62.334,21.987c0.57-1.266,1.512-2.087,2.574-2.087c1.742,0,3.154,2.212,3.154,4.939c0,1.282-0.309,2.453-0.824,3.329"/>
			
				<path fill="none" stroke="#1E1E1C" stroke-width="0.4909" stroke-linecap="round" stroke-linejoin="round" stroke-miterlimit="10" d="
				M67.239,28.169"/>
			
				<path fill="none" stroke="#1E1E1C" stroke-width="0.9818" stroke-linecap="round" stroke-linejoin="round" stroke-miterlimit="10" d="
				M63.571,20.366c1.119-0.646,2.461-0.466,3.389,0.714"/>
			<path fill="#1E1E1C" d="M60.75,30.665c-0.25,0.297-0.773,0.271-1.178-0.065c-0.4-0.33-0.521-0.846-0.275-1.146
				c0.25-0.3,0.777-0.272,1.18,0.065C60.879,29.852,61,30.362,60.75,30.665z"/>
			<path fill="#FFFFFF" d="M67.725,28.207c-0.174,0.423-0.539,0.673-0.814,0.558c-0.277-0.112-0.359-0.546-0.184-0.972
				c0.172-0.421,0.537-0.671,0.816-0.558C67.815,27.351,67.899,27.786,67.725,28.207z"/>
			
				<path fill="none" stroke="#1E1E1C" stroke-width="0.2455" stroke-linecap="round" stroke-linejoin="round" stroke-miterlimit="10" d="
				M67.329,28.042c-1.152,1.661-3.943,4.389-7.303,2.017"/>
			<text transform="matrix(1 0 0 1 63.0552 35.0518)" fill="#1E1E1C" font-family="'ArialRoundedMTBold'" font-size="1.8378">AR-1</text>
			<g>
				<path fill="none" stroke="#1E1E1C" stroke-width="0.5411" stroke-miterlimit="10" d="M67.727,37.399
					c-0.077,0.586-0.624,1.064-1.214,1.064h-2.596c-0.59,0-1.155-0.477-1.255-1.059l-0.756-4.42c-0.1-0.582,0.302-1.059,0.892-1.059
					h4.58c0.59,0,1.01,0.479,0.933,1.064L67.727,37.399z"/>
			</g>
			<g>
				<path fill="#FFFFFF" d="M67.358,41.533c-0.184-0.474-0.817-0.86-1.407-0.86h-1.525c-0.59,0-1.268,0.387-1.505,0.86
					s0.052,0.86,0.642,0.86h3.057C67.208,42.394,67.542,42.007,67.358,41.533z"/>
				<path fill="none" stroke="#1E1E1C" stroke-width="0.5411" stroke-miterlimit="10" d="M67.358,41.533
					c-0.184-0.474-0.817-0.86-1.407-0.86h-1.525c-0.59,0-1.268,0.387-1.505,0.86s0.052,0.86,0.642,0.86h3.057
					C67.208,42.394,67.542,42.007,67.358,41.533z"/>
			</g>
			
				<rect x="64.643" y="38.464" fill="#FFFFFF" stroke="#1E1E1C" stroke-width="0.5411" stroke-miterlimit="10" width="0.893" height="2.209"/>
			
				<path fill="none" stroke="#1E1E1C" stroke-width="0.4909" stroke-linecap="round" stroke-linejoin="round" stroke-miterlimit="10" d="
				M69.104,37.233c0.082-0.479,0.418-0.824,0.758-0.766c0.342,0.053,0.553,0.484,0.475,0.965"/>
			
				<path fill="none" stroke="#1E1E1C" stroke-width="0.4909" stroke-linecap="round" stroke-linejoin="round" stroke-miterlimit="10" d="
				M51.563,31.87c0.27,0.191,0.408,0.471,0.328,0.717c-0.109,0.328-0.572,0.469-1.033,0.312"/>
		</g>
		<g>
			
				<line fill="none" stroke="#1E1E1C" stroke-width="0.9818" stroke-linecap="round" stroke-linejoin="round" stroke-miterlimit="10" x1="50.803" y1="25.341" x2="50.803" y2="41.946"/>
			<g>
				<polygon fill="#9E9D9C" points="44.009,23.458 43.962,15.586 50.756,11.611 57.596,15.507 57.643,23.378 50.848,27.354 				"/>
				<polygon fill="none" stroke="#FFFFFF" stroke-width="0.5199" stroke-miterlimit="10" points="44.657,23.078 44.618,15.96 
					50.76,12.359 56.948,15.889 56.989,23.008 50.846,26.604 				"/>
				<text transform="matrix(0.7176 0 0 1 45.7065 21.689)" fill="#FFFFFF" font-family="'ArialNarrow-Bold'" font-size="6.3972">STOP</text>
			</g>
		</g>
	</g>
	<g>
		
			<radialGradient id="SVGID_2_" cx="13818.1016" cy="-440.1216" r="41.5266" gradientTransform="matrix(-0.4097 0 0 0.0996 5686.8081 86.3675)" gradientUnits="userSpaceOnUse">
			<stop  offset="0" style="stop-color:#9C9C9C"/>
			<stop  offset="0.019" style="stop-color:#A2A1A1"/>
			<stop  offset="0.2086" style="stop-color:#D4D4D4"/>
			<stop  offset="0.3423" style="stop-color:#E2E1E2"/>
			<stop  offset="0.5547" style="stop-color:#F2F2F2"/>
			<stop  offset="0.7721" style="stop-color:#FCFCFC"/>
			<stop  offset="1" style="stop-color:#FFFFFF"/>
		</radialGradient>
		<ellipse fill="url(#SVGID_2_)" cx="25.531" cy="42.548" rx="17.29" ry="4.572"/>
		<g>
			<path fill="#9E9D9C" d="M29.409,22.774c-0.74,2.269-3.178,3.51-5.445,2.77c-2.27-0.738-3.512-3.175-2.771-5.442
				c0.738-2.271,3.174-3.511,5.447-2.771C28.905,18.067,30.146,20.504,29.409,22.774z"/>
			
				<rect x="22.258" y="16.843" transform="matrix(0.5803 0.8144 -0.8144 0.5803 23.7341 -11.1599)" fill="#1E1E1C" width="0.872" height="1.207"/>
			<path fill="#1E1E1C" d="M19.05,22.192c1.111-3.237-0.521-4.872,0.459-6.824c0.965-1.929,4.094-0.705,3.424,1.373
				c-0.562,0.398-0.982,0.701-0.982,0.701s-0.998-0.803-1.225,0.4C20.448,19.301,20.163,20.345,19.05,22.192z"/>
			<path fill="#FFFFFF" d="M28.649,21.899c-0.082,0.26-0.277,0.424-0.432,0.375c-0.154-0.051-0.213-0.298-0.127-0.555
				c0.084-0.256,0.273-0.423,0.43-0.373C28.675,21.397,28.731,21.646,28.649,21.899z"/>
			<path fill="#FFFFFF" d="M26.804,22.507c-0.086,0.262-0.303,0.429-0.486,0.368c-0.182-0.06-0.258-0.321-0.174-0.583
				c0.086-0.266,0.303-0.43,0.484-0.369C26.813,21.98,26.892,22.242,26.804,22.507z"/>
			<path fill="#1E1E1C" d="M26.558,24.547c0,0,0.818-1.445,1.588-0.683"/>
			
				<rect x="21.925" y="21.737" transform="matrix(0.9233 -0.3841 0.3841 0.9233 -7.2989 10.7082)" fill="#FFFFFF" stroke="#1E1E1C" stroke-width="0.4689" stroke-linecap="round" stroke-linejoin="round" stroke-miterlimit="10" width="2.469" height="3.782"/>
			<g>
				<polyline fill="none" stroke="#1E1E1C" stroke-width="0.4689" stroke-linecap="round" stroke-linejoin="round" points="
					22.782,23.629 21.147,29.915 23.495,27.436 				"/>
			</g>
			
				<polyline fill="none" stroke="#1E1E1C" stroke-width="0.4689" stroke-linecap="round" stroke-linejoin="round" stroke-miterlimit="10" points="
				31.603,22.067 31.866,26.774 27.759,27.068 			"/>
			
				<path fill="none" stroke="#1E1E1C" stroke-width="0.4689" stroke-linecap="round" stroke-linejoin="round" stroke-miterlimit="10" d="
				M24.394,37.399c0,0.154-0.725,5.201-0.725,5.201"/>
			
				<path fill="none" stroke="#1E1E1C" stroke-width="0.4689" stroke-linecap="round" stroke-linejoin="round" stroke-miterlimit="10" d="
				M27.239,37.399c0,0.154,0.225,5.201,0.225,5.201"/>
			<polygon fill="#9D9D9C" points="28.812,36.497 22.88,36.497 24.431,26.705 26.843,26.705 			"/>
			<path fill="#1E1E1C" d="M27.796,18.248c0,0,0.404,0.659,1.697,0.969c-2.168-3.365-7.52-3.382-8.693,1.859
				c0.199,0.991,2.068,0.132,2.158-0.308c-0.09-0.22-0.045-0.418-0.045-0.418s0.338,0.493,0.66,0.55
				c-0.199-0.903,0.264-1.101,0.264-1.101s0.219,0.66,1.078,0.573c0.176-1.343,1.045-1.69,1.045-1.69s-0.043,0.572,0.066,1.164
				c0.459-0.985,0.832-1.35,0.832-1.35s0.545,0.95,1.143,1.105C27.474,18.813,27.796,18.248,27.796,18.248z"/>
			<polygon fill="#1E1E1C" points="26.278,30.954 25.073,33.388 24.364,32.229 24.499,36.526 25.429,34.353 25.888,34.688 			"/>
			<polygon fill="#1E1E1C" points="25.882,29.784 25.442,26.769 26.476,26.829 			"/>
		</g>
	</g>
</g>
</svg>
