<?xml version="1.0" encoding="utf-8"?>
<!-- Generator: Adobe Illustrator 15.0.2, SVG Export Plug-In . SVG Version: 6.00 Build 0)  -->
<!DOCTYPE svg PUBLIC "-//W3C//DTD SVG 1.1//EN" "http://www.w3.org/Graphics/SVG/1.1/DTD/svg11.dtd">
<svg version="1.1" id="Layer_1" xmlns="http://www.w3.org/2000/svg" xmlns:xlink="http://www.w3.org/1999/xlink" x="0px" y="0px"
	 width="16.967px" height="15.641px" viewBox="96.455 9.054 16.967 15.641" enable-background="new 96.455 9.054 16.967 15.641"
	 xml:space="preserve">
<g>
	<g>
		<g>
			
				<radialGradient id="SVGID_1_" cx="-1019.1248" cy="-463.7056" r="18.3186" gradientTransform="matrix(0.4097 0 0 0.0996 523.3306 68.8466)" gradientUnits="userSpaceOnUse">
				<stop  offset="0" style="stop-color:#5F564A"/>
				<stop  offset="0.0545" style="stop-color:#8F826F"/>
				<stop  offset="0.109" style="stop-color:#B7A78E"/>
				<stop  offset="0.1623" style="stop-color:#D7C3A7"/>
				<stop  offset="0.2138" style="stop-color:#EDD8B8"/>
				<stop  offset="0.2629" style="stop-color:#FAE4C2"/>
				<stop  offset="0.3067" style="stop-color:#FFE8C6"/>
				<stop  offset="0.4558" style="stop-color:#FFF1DD"/>
				<stop  offset="0.6315" style="stop-color:#FFF9F0"/>
				<stop  offset="0.8114" style="stop-color:#FFFDFB"/>
				<stop  offset="1" style="stop-color:#FFFFFF"/>
			</radialGradient>
			<ellipse fill="url(#SVGID_1_)" cx="105.795" cy="22.678" rx="7.627" ry="2.018"/>
			<g>
				<polygon fill="#FFFFFF" points="105.578,17.602 103.541,16.526 103.649,13.641 105.973,14.427 				"/>
				<path fill="#1D1E1C" d="M105.578,17.71c-0.018,0-0.035-0.004-0.051-0.013l-2.037-1.076c-0.036-0.02-0.059-0.058-0.058-0.1
					l0.107-2.885c0.001-0.034,0.019-0.066,0.047-0.085c0.029-0.019,0.064-0.023,0.097-0.013l2.324,0.786
					c0.048,0.017,0.079,0.065,0.072,0.116l-0.395,3.175c-0.004,0.036-0.025,0.066-0.058,0.083
					C105.613,17.706,105.596,17.71,105.578,17.71z M103.652,16.462l1.839,0.971l0.364-2.932l-2.104-0.711L103.652,16.462z"/>
			</g>
			<polygon fill="#1D1E1C" points="104.444,15.197 104.016,14.995 104.141,14.86 104.451,15.016 			"/>
			<polygon fill="#1D1E1C" points="105.291,15.518 104.903,15.339 104.864,15.131 105.233,15.29 			"/>
			<polygon fill="#1D1E1C" points="104.788,16.379 104.272,16.127 104.158,15.755 104.961,16.127 			"/>
			<g>
				<polygon fill="#FFFFFF" points="105.973,14.427 103.649,13.641 105.776,13.735 107.624,14.427 				"/>
				<path fill="#1D1E1C" d="M107.63,14.536c-0.002,0-0.004,0-0.006,0h-1.651c-0.012,0-0.023-0.002-0.035-0.006l-2.324-0.786
					c-0.051-0.017-0.081-0.069-0.071-0.123c0.01-0.054,0.054-0.091,0.111-0.088l2.127,0.094c0.012,0,0.022,0.003,0.033,0.007
					l1.834,0.687c0.052,0.009,0.09,0.053,0.09,0.107C107.738,14.487,107.69,14.536,107.63,14.536z M105.99,14.319h1.036
					l-1.272-0.477l-1.349-0.06L105.99,14.319z"/>
			</g>
			<g>
				<polygon fill="#FFFFFF" points="107.21,17.193 105.578,17.602 105.957,14.427 107.624,14.427 				"/>
				<path fill="#1D1E1C" d="M105.578,17.71c-0.026,0-0.052-0.01-0.071-0.027c-0.027-0.023-0.04-0.059-0.036-0.094l0.379-3.175
					c0.007-0.055,0.053-0.096,0.107-0.096h1.667c0.031,0,0.062,0.014,0.082,0.038s0.029,0.056,0.025,0.087l-0.414,2.766
					c-0.007,0.043-0.039,0.078-0.081,0.089l-1.632,0.409C105.596,17.709,105.587,17.71,105.578,17.71z M106.053,14.536l-0.349,2.923
					l1.409-0.354l0.385-2.57H106.053z"/>
			</g>
			<path fill="#1D1E1C" d="M102.406,18.722c-1.213,0-2.361-0.319-2.432-0.34c-0.058-0.017-0.091-0.076-0.075-0.134
				c0.017-0.057,0.079-0.089,0.134-0.074c0.025,0.008,2.514,0.699,3.985,0.052c0.056-0.025,0.119,0.001,0.143,0.056
				c0.024,0.055,0,0.118-0.055,0.143C103.602,18.646,102.996,18.722,102.406,18.722z"/>
			<path fill="#1D1E1C" d="M107.908,20.125c-0.005,0-0.009,0-0.014,0c-0.06-0.008-0.102-0.062-0.094-0.121
				c0.084-0.658-0.341-1.332-0.345-1.339c-0.032-0.05-0.018-0.117,0.032-0.149c0.05-0.031,0.117-0.019,0.149,0.033
				c0.02,0.029,0.472,0.745,0.378,1.482C108.009,20.086,107.962,20.125,107.908,20.125z"/>
			
				<ellipse transform="matrix(0.9246 0.3809 -0.3809 0.9246 14.2095 -39.3809)" fill="#1D1E1C" cx="106.601" cy="16.21" rx="0.54" ry="0.739"/>
			<path fill="#1D1E1C" d="M106.725,16.413c-0.01,0-0.019-0.002-0.027-0.007c-0.025-0.015-0.034-0.048-0.02-0.074
				c0.229-0.392,0.356-0.904,0.356-1.441c0-1.171-0.601-2.125-1.338-2.125c-0.429,0-0.836,0.332-1.087,0.888
				c-0.013,0.028-0.043,0.04-0.072,0.027c-0.027-0.012-0.039-0.044-0.027-0.072c0.271-0.596,0.714-0.952,1.187-0.952
				c0.797,0,1.445,1.002,1.445,2.233c0,0.557-0.131,1.088-0.37,1.496C106.762,16.403,106.743,16.413,106.725,16.413z"/>
			
				<path fill="none" stroke="#1D1E1C" stroke-width="0.2166" stroke-linecap="round" stroke-linejoin="round" stroke-miterlimit="10" d="
				M106.725,16.359"/>
			<path fill="#1D1E1C" d="M106.601,13.448c-0.063,0-0.127-0.028-0.17-0.083c-0.321-0.408-0.786-0.507-1.217-0.261
				c-0.103,0.058-0.236,0.024-0.296-0.079s-0.024-0.236,0.079-0.296c0.622-0.358,1.316-0.212,1.773,0.368
				c0.074,0.094,0.058,0.23-0.036,0.304C106.696,13.432,106.648,13.448,106.601,13.448z"/>
			
				<ellipse transform="matrix(0.768 0.6404 -0.6404 0.768 35.0288 -62.3212)" fill="#1D1E1C" cx="103.541" cy="17.192" rx="0.417" ry="0.311"/>
			
				<ellipse transform="matrix(0.924 0.3823 -0.3823 0.924 14.3315 -39.5609)" fill="#FFFFFF" cx="106.719" cy="16.284" rx="0.239" ry="0.365"/>
			<path fill="#1D1E1C" d="M104.717,17.656c-0.407,0-0.812-0.14-1.207-0.419c-0.024-0.018-0.03-0.051-0.013-0.076
				c0.017-0.025,0.051-0.029,0.075-0.013c0.472,0.333,0.957,0.458,1.438,0.374c0.865-0.153,1.483-0.925,1.708-1.25
				c0.018-0.024,0.05-0.03,0.076-0.014c0.024,0.017,0.03,0.051,0.014,0.075c-0.233,0.336-0.874,1.136-1.779,1.295
				C104.925,17.647,104.821,17.656,104.717,17.656z"/>
			<g>
				<path fill="#1E1E1C" d="M105.313,19.328l-0.027-0.072h-0.236l-0.027,0.074c-0.011,0.029-0.02,0.049-0.027,0.061
					c-0.008,0.01-0.021,0.014-0.038,0.014c-0.015,0-0.028-0.006-0.04-0.016c-0.01-0.012-0.016-0.023-0.016-0.037
					c0-0.008,0.001-0.016,0.004-0.023c0.002-0.01,0.006-0.021,0.012-0.037l0.149-0.377c0.004-0.01,0.009-0.023,0.015-0.037
					c0.006-0.016,0.014-0.029,0.02-0.039c0.007-0.01,0.016-0.018,0.027-0.023c0.01-0.006,0.023-0.01,0.039-0.01
					c0.018,0,0.031,0.004,0.041,0.01c0.012,0.006,0.021,0.014,0.027,0.023c0.006,0.01,0.012,0.02,0.018,0.031
					c0.004,0.012,0.01,0.027,0.018,0.045l0.15,0.375c0.012,0.027,0.018,0.049,0.018,0.062s-0.005,0.025-0.016,0.037
					c-0.012,0.01-0.025,0.016-0.041,0.016c-0.01,0-0.018-0.002-0.023-0.004c-0.007-0.004-0.012-0.008-0.018-0.014
					c-0.004-0.006-0.008-0.016-0.014-0.025C105.321,19.348,105.317,19.338,105.313,19.328z M105.08,19.168h0.174l-0.088-0.238
					L105.08,19.168z"/>
				<path fill="#1E1E1C" d="M105.684,19.146h-0.042v0.188c0,0.023-0.005,0.041-0.017,0.053c-0.011,0.012-0.024,0.018-0.042,0.018
					c-0.019,0-0.033-0.006-0.044-0.018c-0.01-0.012-0.016-0.029-0.016-0.053v-0.447c0-0.025,0.006-0.043,0.018-0.055
					s0.029-0.018,0.055-0.018h0.191c0.027,0,0.049,0.002,0.068,0.004c0.018,0.002,0.035,0.006,0.051,0.014
					c0.018,0.008,0.033,0.018,0.047,0.033c0.016,0.014,0.025,0.029,0.033,0.049c0.006,0.02,0.01,0.039,0.01,0.061
					c0,0.043-0.012,0.078-0.036,0.104s-0.062,0.045-0.11,0.055c0.02,0.012,0.04,0.027,0.059,0.049
					c0.02,0.021,0.037,0.045,0.051,0.07c0.016,0.023,0.027,0.045,0.035,0.064c0.009,0.02,0.013,0.033,0.013,0.041
					s-0.003,0.016-0.007,0.023c-0.006,0.008-0.012,0.014-0.021,0.018s-0.019,0.006-0.029,0.006c-0.013,0-0.024-0.002-0.032-0.01
					c-0.01-0.006-0.018-0.014-0.023-0.023c-0.008-0.008-0.016-0.023-0.027-0.041l-0.047-0.078c-0.018-0.029-0.031-0.051-0.045-0.066
					s-0.027-0.025-0.041-0.031S105.703,19.146,105.684,19.146z M105.75,18.902h-0.108v0.16h0.105c0.028,0,0.052-0.002,0.071-0.008
					c0.02-0.004,0.033-0.014,0.043-0.025c0.012-0.012,0.016-0.027,0.016-0.047c0-0.018-0.004-0.031-0.012-0.043
					c-0.008-0.014-0.02-0.021-0.034-0.027S105.791,18.902,105.75,18.902z"/>
				<path fill="#1E1E1C" d="M106.242,19.232h-0.125c-0.019,0-0.033-0.006-0.043-0.014c-0.01-0.01-0.016-0.02-0.016-0.035
					c0-0.014,0.006-0.025,0.016-0.033c0.01-0.01,0.023-0.014,0.043-0.014h0.125c0.02,0,0.035,0.004,0.045,0.014
					c0.009,0.008,0.014,0.02,0.014,0.033c0,0.016-0.004,0.025-0.014,0.035C106.278,19.227,106.262,19.232,106.242,19.232z"/>
				<path fill="#1E1E1C" d="M106.543,19.34V18.98c-0.066,0.051-0.111,0.076-0.135,0.076c-0.012,0-0.021-0.004-0.029-0.012
					c-0.01-0.01-0.013-0.02-0.013-0.031c0-0.014,0.003-0.023,0.013-0.029c0.008-0.008,0.023-0.016,0.045-0.025
					c0.031-0.016,0.057-0.029,0.076-0.047s0.035-0.035,0.051-0.057c0.015-0.02,0.023-0.033,0.029-0.037
					c0.004-0.006,0.013-0.008,0.025-0.008c0.014,0,0.025,0.006,0.033,0.016c0.008,0.012,0.013,0.027,0.013,0.045v0.453
					c0,0.055-0.019,0.08-0.054,0.08c-0.017,0-0.029-0.006-0.039-0.016C106.549,19.377,106.543,19.361,106.543,19.34z"/>
			</g>
			<path fill="#1D1E1C" d="M106.404,21.02h-1.145c-0.316,0-0.618-0.254-0.671-0.566l-0.334-1.95
				c-0.027-0.159,0.011-0.311,0.108-0.427s0.24-0.179,0.402-0.179h2.021c0.161,0,0.305,0.063,0.405,0.178
				c0.102,0.115,0.146,0.267,0.124,0.427l-0.258,1.943C107.016,20.762,106.723,21.02,106.404,21.02z M104.765,18.135
				c-0.09,0-0.168,0.034-0.22,0.095c-0.052,0.061-0.071,0.143-0.057,0.232l0.334,1.95c0.034,0.199,0.234,0.368,0.437,0.368h1.145
				c0.2,0,0.392-0.168,0.418-0.367l0.258-1.943c0.012-0.092-0.012-0.176-0.066-0.238c-0.056-0.062-0.136-0.097-0.227-0.097H104.765z
				"/>
			<g>
				<g>
					<path fill="#FFFFFF" d="M106.777,22.254c-0.081-0.209-0.36-0.379-0.621-0.379h-0.672c-0.261,0-0.56,0.17-0.664,0.379
						s0.022,0.379,0.283,0.379h1.348C106.711,22.633,106.858,22.463,106.777,22.254z"/>
				</g>
				<path fill="#1D1E1C" d="M106.45,22.752h-1.348c-0.176,0-0.318-0.066-0.391-0.183c-0.065-0.106-0.065-0.237,0.001-0.369
					c0.125-0.249,0.464-0.444,0.771-0.444h0.672c0.312,0,0.633,0.199,0.732,0.455c0.05,0.128,0.039,0.255-0.031,0.357
					C106.777,22.686,106.628,22.752,106.45,22.752z M105.484,21.994c-0.213,0-0.474,0.146-0.558,0.313
					c-0.016,0.032-0.038,0.091-0.011,0.136s0.098,0.07,0.188,0.07h1.348c0.097,0,0.175-0.029,0.209-0.08
					c0.031-0.046,0.021-0.1,0.006-0.137c-0.062-0.161-0.301-0.303-0.51-0.303H105.484z"/>
			</g>
			<g>
				<rect x="105.578" y="20.9" fill="#FFFFFF" width="0.395" height="0.975"/>
				<path fill="#1D1E1C" d="M106.092,21.994h-0.633v-1.213h0.633V21.994z M105.698,21.756h0.156V21.02h-0.156V21.756z"/>
			</g>
			<path fill="#1D1E1C" d="M108.09,20.555c-0.006,0-0.012-0.001-0.018-0.002c-0.059-0.01-0.099-0.065-0.089-0.125
				c0.016-0.096-0.001-0.189-0.044-0.249c-0.015-0.021-0.04-0.047-0.076-0.053c-0.004-0.001-0.009-0.001-0.014-0.001
				c-0.075,0-0.17,0.098-0.196,0.251c-0.01,0.06-0.058,0.099-0.125,0.089c-0.059-0.01-0.099-0.066-0.088-0.125
				c0.047-0.274,0.256-0.46,0.458-0.428c0.085,0.014,0.162,0.063,0.217,0.141c0.077,0.107,0.106,0.257,0.081,0.41
				C108.188,20.517,108.142,20.555,108.09,20.555z"/>
			<path fill="#1D1E1C" d="M99.663,18.582c-0.065,0-0.133-0.012-0.199-0.033c-0.057-0.02-0.088-0.081-0.068-0.138
				c0.019-0.057,0.083-0.088,0.137-0.067c0.092,0.03,0.188,0.027,0.254-0.004c0.023-0.012,0.053-0.033,0.064-0.066
				c0.019-0.058-0.023-0.136-0.104-0.193c-0.049-0.034-0.061-0.102-0.026-0.151c0.035-0.048,0.102-0.061,0.151-0.026
				c0.161,0.114,0.234,0.286,0.185,0.437c-0.026,0.083-0.088,0.15-0.173,0.193C99.818,18.565,99.742,18.582,99.663,18.582z"/>
		</g>
		<g>
			<path fill="#1D1E1C" d="M99.473,22.652c-0.119,0-0.217-0.097-0.217-0.217v-7.325c0-0.12,0.098-0.217,0.217-0.217
				s0.217,0.097,0.217,0.217v7.325C99.69,22.556,99.592,22.652,99.473,22.652z"/>
			<g>
				<polygon fill="#E84F1D" points="96.477,14.28 96.455,10.807 99.453,9.054 102.47,10.773 102.49,14.245 99.494,15.999 				"/>
				<path fill="#FFFFFF" d="M99.493,15.801l-2.846-1.621v-0.066l-0.019-3.206l2.825-1.656l2.844,1.622v0.066l0.02,3.207
					L99.493,15.801z M96.876,14.046l2.615,1.49l2.596-1.52l-0.018-3.008l-2.613-1.491l-2.597,1.522L96.876,14.046z"/>
				<g>
					<path fill="#FFFFFF" d="M97.285,12.841l0.234-0.038c0.025,0.258,0.113,0.387,0.259,0.387c0.073,0,0.13-0.026,0.171-0.079
						c0.042-0.053,0.062-0.118,0.062-0.196c0-0.047-0.008-0.085-0.021-0.117c-0.015-0.031-0.037-0.059-0.066-0.079
						s-0.102-0.056-0.216-0.104c-0.103-0.043-0.177-0.09-0.224-0.141c-0.049-0.05-0.086-0.116-0.113-0.197
						c-0.029-0.083-0.043-0.171-0.043-0.266c0-0.11,0.019-0.21,0.055-0.298c0.035-0.089,0.086-0.155,0.148-0.199
						c0.062-0.045,0.142-0.067,0.234-0.067c0.14,0,0.248,0.053,0.327,0.158s0.12,0.257,0.124,0.453l-0.24,0.019
						c-0.01-0.108-0.033-0.185-0.068-0.228c-0.034-0.043-0.084-0.064-0.148-0.064s-0.115,0.018-0.149,0.056
						c-0.034,0.037-0.053,0.085-0.053,0.141c0,0.054,0.017,0.101,0.048,0.139c0.031,0.037,0.105,0.078,0.219,0.123
						c0.121,0.049,0.207,0.101,0.262,0.154c0.053,0.054,0.094,0.123,0.123,0.208c0.027,0.085,0.042,0.188,0.042,0.309
						c0,0.176-0.038,0.323-0.116,0.442c-0.078,0.12-0.199,0.179-0.363,0.179C97.481,13.534,97.319,13.303,97.285,12.841z"/>
					<path fill="#FFFFFF" d="M98.721,13.5v-1.679h-0.353V11.48h0.944v0.341H98.96V13.5H98.721z"/>
					<path fill="#FFFFFF" d="M99.391,12.502c0-0.241,0.025-0.439,0.076-0.595s0.117-0.271,0.2-0.349
						c0.083-0.075,0.183-0.113,0.3-0.113c0.17,0,0.309,0.09,0.416,0.271c0.106,0.181,0.16,0.438,0.16,0.772
						c0,0.338-0.057,0.603-0.17,0.793c-0.1,0.168-0.234,0.251-0.405,0.251c-0.172,0-0.308-0.082-0.407-0.248
						C99.448,13.094,99.391,12.833,99.391,12.502z M99.637,12.488c0,0.233,0.033,0.407,0.096,0.523
						c0.063,0.116,0.142,0.175,0.236,0.175c0.094,0,0.172-0.058,0.234-0.173c0.062-0.116,0.093-0.292,0.093-0.532
						c0-0.234-0.03-0.406-0.091-0.52c-0.061-0.111-0.139-0.168-0.236-0.168s-0.178,0.057-0.239,0.17S99.637,12.251,99.637,12.488z"
						/>
					<path fill="#FFFFFF" d="M100.731,13.5v-2.02h0.387c0.143,0,0.237,0.01,0.281,0.028c0.07,0.032,0.129,0.099,0.174,0.2
						c0.047,0.103,0.07,0.233,0.07,0.395c0,0.146-0.021,0.269-0.061,0.367c-0.039,0.099-0.088,0.168-0.148,0.208
						c-0.059,0.04-0.161,0.06-0.307,0.06h-0.156V13.5H100.731z M100.971,11.821v0.575h0.133c0.089,0,0.148-0.009,0.182-0.026
						c0.031-0.018,0.059-0.049,0.078-0.094c0.021-0.046,0.031-0.103,0.031-0.168c0-0.067-0.011-0.125-0.031-0.17
						c-0.021-0.046-0.047-0.077-0.078-0.093c-0.031-0.017-0.098-0.024-0.197-0.024H100.971z"/>
				</g>
			</g>
		</g>
	</g>
</g>
</svg>
