<?xml version="1.0" encoding="utf-8"?>
<!-- Generator: Adobe Illustrator 15.0.2, SVG Export Plug-In . SVG Version: 6.00 Build 0)  -->
<!DOCTYPE svg PUBLIC "-//W3C//DTD SVG 1.1//EN" "http://www.w3.org/Graphics/SVG/1.1/DTD/svg11.dtd">
<svg version="1.1" id="Layer_1" xmlns="http://www.w3.org/2000/svg" xmlns:xlink="http://www.w3.org/1999/xlink" x="0px" y="0px"
	 width="86.691px" height="54.336px" viewBox="0 0 86.691 54.336" enable-background="new 0 0 86.691 54.336" xml:space="preserve">
<g>
	<g>
		<g>
			<path fill="#F29107" d="M86.693,15.5c0,1.65-1.351,3-3,3H3.002c-1.649,0-3-1.35-3-3V3c0-1.649,1.351-3,3-3h80.689
				c1.648,0,3,1.351,3,3L86.693,15.5L86.693,15.5z"/>
		</g>
		<polygon fill="#F29107" points="32.758,17.421 40.715,17.421 43.094,26.838 		"/>
	</g>
	
		<radialGradient id="SVGID_1_" cx="-84.489" cy="4957.2651" r="39.9379" gradientTransform="matrix(0.4097 0 0 0.0996 84.8464 -445.0484)" gradientUnits="userSpaceOnUse">
		<stop  offset="0" style="stop-color:#5F564A"/>
		<stop  offset="0.0287" style="stop-color:#75695A"/>
		<stop  offset="0.0884" style="stop-color:#A1917C"/>
		<stop  offset="0.1473" style="stop-color:#C7B59B"/>
		<stop  offset="0.2042" style="stop-color:#E5D1B3"/>
		<stop  offset="0.2583" style="stop-color:#F8E3C2"/>
		<stop  offset="0.3067" style="stop-color:#FFE9C7"/>
		<stop  offset="0.3343" style="stop-color:#FFEBCC"/>
		<stop  offset="0.4949" style="stop-color:#FFF4E3"/>
		<stop  offset="0.6584" style="stop-color:#FFFAF3"/>
		<stop  offset="0.8252" style="stop-color:#FFFEFC"/>
		<stop  offset="1" style="stop-color:#FFFFFF"/>
	</radialGradient>
	<ellipse fill="url(#SVGID_1_)" cx="50.232" cy="48.712" rx="16.629" ry="4.396"/>
	<g>
		
			<polygon fill="#FFFFFF" stroke="#1E1E1C" stroke-width="0.4721" stroke-linecap="round" stroke-linejoin="round" stroke-miterlimit="10" points="
			49.758,37.643 45.32,35.293 45.551,29.008 50.619,30.721 		"/>
		<polygon fill="#1E1E1C" points="47.285,32.4 46.351,31.961 46.623,31.665 47.301,32.008 		"/>
		<polygon fill="#1E1E1C" points="49.131,33.102 48.285,32.711 48.201,32.258 49.004,32.602 		"/>
		<polygon fill="#1E1E1C" points="48.035,34.977 46.91,34.43 46.662,33.618 48.412,34.43 		"/>
		
			<polygon fill="#FFFFFF" stroke="#1E1E1C" stroke-width="0.4721" stroke-linecap="round" stroke-linejoin="round" stroke-miterlimit="10" points="
			50.619,30.721 45.551,29.008 50.189,29.211 54.217,30.721 		"/>
		
			<polygon fill="#FFFFFF" stroke="#1E1E1C" stroke-width="0.4721" stroke-linecap="round" stroke-linejoin="round" stroke-miterlimit="10" points="
			53.316,36.75 49.758,37.643 50.584,30.721 54.217,30.721 		"/>
		
			<path fill="none" stroke="#1E1E1C" stroke-width="0.4721" stroke-linecap="round" stroke-linejoin="round" stroke-miterlimit="10" d="
			M42.324,40.372c0,0,2.172,3.061,4.129,0.039"/>
		
			<path fill="none" stroke="#1E1E1C" stroke-width="0.4721" stroke-linecap="round" stroke-linejoin="round" stroke-miterlimit="10" d="
			M54.049,39.834c0,0,1.836,0.461-1.918,3.104"/>
		
			<ellipse transform="matrix(-0.9245 -0.3811 0.3811 -0.9245 86.8535 86.4178)" fill="#1E1E1C" cx="51.983" cy="34.61" rx="1.179" ry="1.613"/>
		
			<path fill="none" stroke="#1E1E1C" stroke-width="0.2361" stroke-linecap="round" stroke-linejoin="round" stroke-miterlimit="10" d="
			M47.537,28.988c0.551-1.217,1.455-2.009,2.479-2.009c1.677,0,3.033,2.128,3.033,4.751c0,1.233-0.299,2.358-0.791,3.204"/>
		
			<path fill="none" stroke="#1E1E1C" stroke-width="0.4721" stroke-linecap="round" stroke-linejoin="round" stroke-miterlimit="10" d="
			M52.258,34.934"/>
		
			<path fill="none" stroke="#1E1E1C" stroke-width="0.9443" stroke-linecap="round" stroke-linejoin="round" stroke-miterlimit="10" d="
			M48.728,27.428c1.075-0.621,2.364-0.448,3.258,0.688"/>
		<path fill="#1E1E1C" d="M46.016,37.333c-0.239,0.287-0.745,0.262-1.135-0.061c-0.383-0.32-0.502-0.814-0.264-1.104
			c0.24-0.288,0.748-0.262,1.133,0.062C46.139,36.549,46.258,37.042,46.016,37.333z"/>
		
			<ellipse transform="matrix(-0.9233 -0.384 0.384 -0.9233 87.1281 86.9361)" fill="#FFFFFF" cx="52.243" cy="34.77" rx="0.519" ry="0.797"/>
		
			<path fill="none" stroke="#1E1E1C" stroke-width="0.2361" stroke-linecap="round" stroke-linejoin="round" stroke-miterlimit="10" d="
			M52.342,34.814c-1.11,1.594-3.793,4.219-7.024,1.938"/>
		
			<polygon fill="none" stroke="#1E1E1C" stroke-width="0.4721" stroke-linecap="round" stroke-linejoin="round" stroke-miterlimit="10" points="
			42.669,41.846 40.497,41.042 39.096,35.635 41.409,36.458 		"/>
		<text transform="matrix(1 0 0 1 48.2288 41.5503)" fill="#1E1E1C" font-family="'ArialRoundedMTBold'" font-size="1.7676">AR-1</text>
		<g>
			<path fill="none" stroke="#1E1E1C" stroke-width="0.5204" stroke-miterlimit="10" d="M52.728,43.811
				c-0.074,0.562-0.601,1.023-1.168,1.023h-2.496c-0.568,0-1.111-0.458-1.207-1.018l-0.729-4.253
				c-0.096-0.562,0.291-1.019,0.859-1.019h4.4c0.568,0,0.975,0.461,0.897,1.022L52.728,43.811z"/>
		</g>
		<g>
			<path fill="#FFFFFF" d="M52.369,47.787c-0.178-0.455-0.787-0.827-1.355-0.827h-1.463c-0.567,0-1.221,0.372-1.448,0.827
				c-0.229,0.455,0.049,0.827,0.616,0.827h2.939C52.228,48.615,52.547,48.242,52.369,47.787z"/>
			<path fill="none" stroke="#1E1E1C" stroke-width="0.5204" stroke-miterlimit="10" d="M52.369,47.787
				c-0.178-0.455-0.787-0.827-1.355-0.827h-1.463c-0.567,0-1.221,0.372-1.448,0.827c-0.229,0.455,0.049,0.827,0.616,0.827h2.939
				C52.228,48.615,52.547,48.242,52.369,47.787z"/>
		</g>
		
			<rect x="49.758" y="44.834" fill="#FFFFFF" stroke="#1E1E1C" stroke-width="0.5204" stroke-miterlimit="10" width="0.861" height="2.125"/>
		
			<path fill="none" stroke="#1E1E1C" stroke-width="0.4721" stroke-linecap="round" stroke-linejoin="round" stroke-miterlimit="10" d="
			M51.131,42.663c0.439-0.16,0.89-0.039,1,0.271c0.115,0.312-0.147,0.693-0.586,0.854"/>
	</g>
	<g>
		
			<radialGradient id="SVGID_2_" cx="-166.5085" cy="4959.0991" r="39.9364" gradientTransform="matrix(0.4097 0 0 0.0996 84.8464 -444.0035)" gradientUnits="userSpaceOnUse">
			<stop  offset="0" style="stop-color:#7EABCE"/>
			<stop  offset="0.1505" style="stop-color:#AECDE6"/>
			<stop  offset="0.3067" style="stop-color:#DAEFFD"/>
			<stop  offset="0.3892" style="stop-color:#E3F3FE"/>
			<stop  offset="0.5865" style="stop-color:#F3FAFF"/>
			<stop  offset="0.7883" style="stop-color:#FCFEFF"/>
			<stop  offset="1" style="stop-color:#FFFFFF"/>
		</radialGradient>
		<ellipse fill="url(#SVGID_2_)" cx="16.628" cy="49.938" rx="16.629" ry="4.398"/>
		<g>
			<g>
				
					<circle fill="#FFFFFF" stroke="#1E1E1C" stroke-width="0.4721" stroke-linecap="round" stroke-linejoin="round" stroke-miterlimit="10" cx="15.534" cy="28.455" r="4.349"/>
				<path fill="#1E1E1C" d="M17.997,24.873c-0.701-0.481-1.549-0.769-2.463-0.769c-2.402,0-4.349,1.947-4.349,4.351
					c0,0.187,0.016,0.373,0.038,0.554c1.289-0.273,2.783-0.928,4.24-1.925C16.465,26.4,17.323,25.637,17.997,24.873z"/>
				
					<rect x="11.357" y="24.839" transform="matrix(0.8037 0.595 -0.595 0.8037 17.4557 -2.025)" fill="none" stroke="#1E1E1C" stroke-width="0.4028" stroke-linecap="round" stroke-linejoin="round" stroke-miterlimit="10" width="0.88" height="1.212"/>
				<path fill="#1E1E1C" d="M9.786,31.122c0.053-3.445-2.018-4.5-1.688-6.674c0.324-2.146,3.699-1.952,3.705,0.247
					c-0.412,0.557-0.722,0.976-0.722,0.976s-1.206-0.456-1.048,0.77C10.224,27.917,10.278,29.008,9.786,31.122z"/>
				<ellipse fill="#1E1E1C" cx="18.589" cy="27.855" rx="0.296" ry="0.491"/>
				<path fill="#1E1E1C" d="M17.307,29.008c0,0.279-0.155,0.504-0.35,0.504c-0.191,0-0.35-0.225-0.35-0.504
					c0-0.281,0.157-0.506,0.35-0.506C17.152,28.502,17.307,28.727,17.307,29.008z"/>
				<path fill="#1E1E1C" d="M19.055,29.824c0,0-0.467,1.608-1.397,1.039"/>
				
					<rect x="13.011" y="28.786" transform="matrix(0.9234 -0.3839 0.3839 0.9234 -10.6894 7.8235)" fill="#FFFFFF" stroke="#1E1E1C" stroke-width="0.4721" stroke-linecap="round" stroke-linejoin="round" stroke-miterlimit="10" width="2.485" height="3.808"/>
				<g>
					<polyline fill="none" stroke="#1E1E1C" stroke-width="0.4721" stroke-linecap="round" stroke-linejoin="round" points="
						13.874,30.691 11.804,37.618 14.592,34.525 					"/>
				</g>
				
					<polyline fill="none" stroke="#1E1E1C" stroke-width="0.4721" stroke-linecap="round" stroke-linejoin="round" stroke-miterlimit="10" points="
					24.891,33.156 21.723,36.752 18.885,34.156 				"/>
				
					<path fill="none" stroke="#1E1E1C" stroke-width="0.4721" stroke-linecap="round" stroke-linejoin="round" stroke-miterlimit="10" d="
					M15.497,44.557c0,0.154-0.729,5.234-0.729,5.234"/>
				
					<path fill="none" stroke="#1E1E1C" stroke-width="0.4721" stroke-linecap="round" stroke-linejoin="round" stroke-miterlimit="10" d="
					M18.363,44.557c0,0.154,0.227,5.234,0.227,5.234"/>
				<polygon fill="#1C99CE" points="19.945,43.648 13.973,43.648 15.534,33.788 17.962,33.788 				"/>
			</g>
		</g>
	</g>
	<g>
		<polygon fill="#FFFFFF" points="75.371,6.513 75.371,11.696 79.955,9.105 		"/>
		<g>
			<g>
				<path fill="#FFFFFF" d="M76.873,4.425c2.639,0,4.775,2.144,4.775,4.773c0,2.639-2.139,4.772-4.775,4.772
					c-2.631,0-4.768-2.137-4.768-4.772C72.107,6.567,74.242,4.425,76.873,4.425 M76.873,3.925c-2.904,0-5.268,2.365-5.268,5.273
					s2.361,5.272,5.268,5.272c2.908,0,5.275-2.365,5.275-5.272C82.15,6.291,79.781,3.925,76.873,3.925L76.873,3.925z"/>
			</g>
		</g>
	</g>
</g>
</svg>
