<?xml version="1.0" encoding="utf-8"?>
<!-- Generator: Adobe Illustrator 15.0.0, SVG Export Plug-In . SVG Version: 6.00 Build 0)  -->
<!DOCTYPE svg PUBLIC "-//W3C//DTD SVG 1.1//EN" "http://www.w3.org/Graphics/SVG/1.1/DTD/svg11.dtd">
<svg version="1.1" id="Layer_1" xmlns="http://www.w3.org/2000/svg" xmlns:xlink="http://www.w3.org/1999/xlink" x="0px" y="0px"
	 width="14.208px" height="14.208px" viewBox="0 0 14.208 14.208" enable-background="new 0 0 14.208 14.208" xml:space="preserve">
<g>
	<g>
		<g>
			<g>
				<g>
					<path fill="#F5F4F4" d="M12.176,7.105c0,2.804-2.271,5.074-5.075,5.074c-2.798,0-5.069-2.271-5.069-5.074
						c0-2.798,2.271-5.075,5.069-5.075C9.905,2.03,12.176,4.307,12.176,7.105z"/>
					<g>
						<path fill="#9C9B9B" d="M7.101,2.03c2.804,0,5.075,2.277,5.075,5.075c0,2.804-2.271,5.074-5.075,5.074
							c-2.798,0-5.069-2.271-5.069-5.074C2.032,4.307,4.303,2.03,7.101,2.03 M7.101,0.03c-3.898,0-7.069,3.174-7.069,7.075
							c0,3.9,3.171,7.074,7.069,7.074c3.901,0,7.075-3.174,7.075-7.074C14.176,3.204,11.002,0.03,7.101,0.03L7.101,0.03z"/>
					</g>
				</g>
			</g>
		</g>
	</g>
	<g id="CoyhyV_2_">
		<g>
			<path fill-rule="evenodd" clip-rule="evenodd" fill="#9C9B9B" d="M9.02,10.622c-1.307,0-2.615,0-3.922,0
				c-0.159-0.034-0.254-0.131-0.289-0.289c0-0.03,0-0.062,0-0.092c0.047-0.198,0.179-0.308,0.456-0.273
				c-0.12-1.206,0.307-1.943,0.868-2.354c0.166-0.124,0.464-0.231,0.472-0.411C6.609,7,6.329,6.934,6.164,6.821
				C6.005,6.714,5.826,6.532,5.721,6.396C5.415,5.988,5.174,5.354,5.265,4.434c-0.29,0.047-0.423-0.106-0.456-0.271
				c0-0.032,0-0.062,0-0.094c0.038-0.153,0.13-0.255,0.289-0.288c1.312,0,2.623,0,3.936,0c0,0.005,0,0.011,0,0.016
				c0.187,0.003,0.239,0.138,0.29,0.272c0,0.031,0,0.062,0,0.094H9.309C9.293,4.384,9.127,4.456,8.868,4.434
				c0.086,1.239-0.229,1.887-0.927,2.387C7.775,6.94,7.48,7.06,7.5,7.232C7.514,7.36,7.838,7.504,7.97,7.596
				c0.66,0.456,0.983,1.156,0.897,2.356c0.252-0.003,0.424,0.073,0.456,0.288c0,0.03,0,0.062,0,0.092H9.309
				C9.296,10.511,9.179,10.587,9.02,10.622z M5.721,4.89C5.688,5.412,5.833,5.75,6.026,6.045c0.635,0,1.396,0,2.082,0
				C8.301,5.75,8.452,5.417,8.412,4.844C7.645,4.856,6.581,4.825,5.737,4.86C5.732,4.834,5.715,4.862,5.721,4.89z M7.758,7.976
				C7.759,7.959,7.751,7.938,7.743,7.96C7.5,7.839,7.147,7.697,7.059,7.369c-0.051,0.205-0.195,0.389-0.381,0.41
				C6.116,8.114,5.661,8.691,5.708,9.542C5.833,9.575,5.913,9.509,6.056,9.42c0.071-0.045,0.149-0.084,0.212-0.121
				c0.176-0.107,0.398-0.322,0.624-0.396c0.29-0.096,0.478,0.073,0.654,0.183C7.644,9.147,7.743,9.21,7.834,9.268
				c0.191,0.119,0.371,0.253,0.577,0.289C8.49,8.862,8.141,8.299,7.758,7.976z"/>
		</g>
	</g>
</g>
</svg>
