<?xml version="1.0" encoding="utf-8"?>
<!-- Generator: Adobe Illustrator 15.0.0, SVG Export Plug-In . SVG Version: 6.00 Build 0)  -->
<!DOCTYPE svg PUBLIC "-//W3C//DTD SVG 1.1//EN" "http://www.w3.org/Graphics/SVG/1.1/DTD/svg11.dtd">
<svg version="1.1" id="Layer_1" xmlns="http://www.w3.org/2000/svg" xmlns:xlink="http://www.w3.org/1999/xlink" x="0px" y="0px"
	 width="14.208px" height="14.208px" viewBox="0 0 14.208 14.208" enable-background="new 0 0 14.208 14.208" xml:space="preserve">
<g>
	<path fill="#F5F4F4" d="M7.101,12.178c-2.795,0-5.069-2.275-5.069-5.073c0-2.799,2.274-5.075,5.069-5.075
		c2.798,0,5.075,2.276,5.075,5.075C12.176,9.903,9.899,12.178,7.101,12.178z"/>
	<g>
		<path fill="#9C9B9B" d="M7.101,2.03c2.804,0,5.075,2.277,5.075,5.075c0,2.804-2.271,5.074-5.075,5.074
			c-2.798,0-5.069-2.271-5.069-5.074C2.032,4.307,4.303,2.03,7.101,2.03 M7.101,0.03c-3.898,0-7.069,3.174-7.069,7.075
			s3.171,7.074,7.069,7.074c3.901,0,7.075-3.173,7.075-7.074S11.002,0.03,7.101,0.03L7.101,0.03z"/>
	</g>
	<g>
		<path fill="#9C9B9B" d="M4.686,8.473l-0.31,1.324c0,0,1.07-0.246,1.325-0.311C4.968,9.255,4.686,8.473,4.686,8.473z"/>
		<g>
			<path fill="#9C9B9B" d="M8.891,5.935l-3.05,3.052C6.119,8.96,6.336,9.032,6.46,9.264l2.879-2.88L8.891,5.935z"/>
			<path fill="#9C9B9B" d="M7.76,4.803L4.91,7.653C5.088,7.832,5.214,8.121,5.22,8.345l3.04-3.04L7.76,4.803z"/>
			<path fill="#9C9B9B" d="M9.576,6.149l0.712-0.713c0.19-0.189,0.19-0.499,0-0.688L9.395,3.857c-0.189-0.191-0.499-0.191-0.688,0
				L7.995,4.569L9.576,6.149z"/>
			<path fill="#9C9B9B" d="M8.391,5.434L5.33,8.497c0.233,0.03,0.349,0.207,0.381,0.361l3.051-3.052L8.391,5.434z"/>
		</g>
	</g>
</g>
</svg>
