<?xml version="1.0" encoding="utf-8"?>
<!-- Generator: Adobe Illustrator 15.0.2, SVG Export Plug-In . SVG Version: 6.00 Build 0)  -->
<!DOCTYPE svg PUBLIC "-//W3C//DTD SVG 1.1//EN" "http://www.w3.org/Graphics/SVG/1.1/DTD/svg11.dtd" [
	<!ENTITY ns_extend "http://ns.adobe.com/Extensibility/1.0/">
	<!ENTITY ns_ai "http://ns.adobe.com/AdobeIllustrator/10.0/">
	<!ENTITY ns_graphs "http://ns.adobe.com/Graphs/1.0/">
	<!ENTITY ns_vars "http://ns.adobe.com/Variables/1.0/">
	<!ENTITY ns_imrep "http://ns.adobe.com/ImageReplacement/1.0/">
	<!ENTITY ns_sfw "http://ns.adobe.com/SaveForWeb/1.0/">
	<!ENTITY ns_custom "http://ns.adobe.com/GenericCustomNamespace/1.0/">
	<!ENTITY ns_adobe_xpath "http://ns.adobe.com/XPath/1.0/">
]>
<svg version="1.1" id="Layer_1" xmlns:x="&ns_extend;" xmlns:i="&ns_ai;" xmlns:graph="&ns_graphs;"
	 xmlns="http://www.w3.org/2000/svg" xmlns:xlink="http://www.w3.org/1999/xlink" x="0px" y="0px" width="42.566px"
	 height="9.358px" viewBox="0 0 42.566 9.358" style="enable-background:new 0 0 42.566 9.358;" xml:space="preserve">
<style type="text/css">
<![CDATA[
	.st0{fill:#C8D3D9;}
]]>
</style>
<metadata>
	<sfw  xmlns="&ns_sfw;">
		<slices></slices>
		<sliceSourceBounds  x="399.343" y="-302.013" width="42.566" height="9.358" bottomLeftOrigin="true"></sliceSourceBounds>
	</sfw>
</metadata>
<g>
	<g>
		<g>
			<path d="M1.038,9.028H0.727L0.85,8.438L0.431,7.509h0.333l0.188,0.43c0.045,0.104,0.074,0.178,0.09,0.223
				c0.025-0.045,0.056-0.092,0.089-0.143l0.145-0.201l0.214-0.309h0.362L1.156,8.466L1.038,9.028z"/>
			<path d="M2.097,8.427c0,0.104,0.031,0.191,0.095,0.262C2.255,8.76,2.339,8.795,2.442,8.795c0.085,0,0.165-0.028,0.243-0.083
				c0.078-0.057,0.142-0.141,0.192-0.254c0.051-0.112,0.075-0.223,0.075-0.33c0-0.119-0.031-0.213-0.095-0.281
				C2.794,7.779,2.713,7.745,2.612,7.745c-0.153,0-0.276,0.071-0.373,0.213C2.144,8.101,2.097,8.257,2.097,8.427 M1.787,8.433
				c0-0.09,0.014-0.184,0.041-0.283C1.862,8.016,1.917,7.9,1.989,7.802c0.072-0.098,0.162-0.176,0.273-0.232
				c0.109-0.057,0.233-0.086,0.374-0.086c0.188,0,0.34,0.06,0.456,0.176c0.115,0.116,0.172,0.271,0.172,0.464
				c0,0.161-0.036,0.315-0.111,0.465c-0.076,0.15-0.178,0.266-0.307,0.347c-0.13,0.081-0.275,0.121-0.439,0.121
				c-0.141,0-0.26-0.032-0.355-0.097C1.955,8.896,1.888,8.815,1.848,8.72C1.808,8.626,1.787,8.53,1.787,8.433"/>
			<path d="M3.656,7.511H3.97L3.797,8.335L3.755,8.537c-0.003,0.019-0.004,0.034-0.004,0.05c0,0.059,0.022,0.109,0.065,0.148
				c0.043,0.038,0.108,0.059,0.191,0.059c0.075,0,0.138-0.014,0.186-0.043c0.05-0.028,0.088-0.07,0.114-0.126
				C4.335,8.568,4.362,8.474,4.39,8.339l0.174-0.828h0.312l-0.173,0.83c-0.037,0.176-0.078,0.309-0.126,0.4
				C4.528,8.834,4.457,8.909,4.359,8.968C4.263,9.025,4.141,9.055,3.993,9.055c-0.177,0-0.312-0.044-0.406-0.13
				C3.494,8.838,3.446,8.727,3.446,8.591c0-0.028,0.003-0.06,0.007-0.092C3.456,8.476,3.468,8.413,3.489,8.31L3.656,7.511z"/>
			<path d="M5.37,8.172h0.165c0.168,0,0.279-0.011,0.334-0.03c0.056-0.02,0.099-0.051,0.129-0.094S6.045,7.96,6.045,7.913
				c0-0.055-0.022-0.097-0.067-0.125C5.949,7.772,5.891,7.765,5.799,7.765H5.454L5.37,8.172z M5.189,9.028H4.878l0.317-1.52H5.87
				c0.116,0,0.207,0.013,0.271,0.037c0.064,0.023,0.117,0.067,0.157,0.131c0.039,0.062,0.06,0.141,0.06,0.23
				c0,0.13-0.039,0.236-0.116,0.32S6.046,8.363,5.891,8.384C5.93,8.419,5.968,8.467,6.003,8.525
				c0.069,0.118,0.146,0.286,0.233,0.503H5.899C5.873,8.942,5.82,8.81,5.742,8.628C5.699,8.53,5.652,8.464,5.604,8.431
				C5.575,8.409,5.523,8.399,5.449,8.399H5.322L5.189,9.028z"/>
			<path d="M7.478,8.198h0.097c0.165,0,0.275-0.011,0.33-0.031c0.055-0.021,0.099-0.054,0.131-0.1
				c0.031-0.046,0.048-0.096,0.048-0.15c0-0.037-0.008-0.066-0.024-0.09C8.041,7.804,8.02,7.786,7.99,7.775
				C7.961,7.766,7.895,7.76,7.794,7.76H7.569L7.478,8.198z M7.306,9.028H6.991l0.317-1.52h0.619c0.109,0,0.196,0.014,0.26,0.041
				C8.251,7.575,8.302,7.618,8.34,7.677c0.037,0.061,0.056,0.132,0.056,0.215c0,0.076-0.015,0.15-0.045,0.224
				c-0.029,0.072-0.065,0.13-0.108,0.173c-0.045,0.044-0.09,0.077-0.14,0.1c-0.05,0.023-0.116,0.039-0.2,0.052
				C7.853,8.446,7.761,8.45,7.627,8.45H7.426L7.306,9.028z"/>
		</g>
		<polygon points="9.456,8.351 8.867,8.351 8.726,9.028 8.413,9.028 8.731,7.509 9.044,7.509 8.92,8.097 9.509,8.097 9.631,7.509 
			9.943,7.509 9.626,9.028 9.312,9.028 		"/>
		<g>
			<path d="M10.348,8.427c0,0.104,0.031,0.191,0.095,0.262c0.063,0.071,0.146,0.106,0.251,0.106c0.084,0,0.166-0.028,0.243-0.083
				c0.077-0.057,0.142-0.141,0.192-0.254c0.051-0.112,0.076-0.223,0.076-0.33c0-0.119-0.032-0.213-0.097-0.281
				c-0.063-0.067-0.146-0.102-0.246-0.102c-0.151,0-0.276,0.071-0.372,0.213C10.396,8.101,10.348,8.257,10.348,8.427 M10.039,8.433
				c0-0.09,0.013-0.184,0.039-0.283c0.035-0.134,0.09-0.249,0.162-0.348c0.072-0.098,0.163-0.176,0.272-0.232
				c0.11-0.057,0.235-0.086,0.375-0.086c0.188,0,0.34,0.06,0.454,0.176c0.117,0.116,0.175,0.271,0.175,0.464
				c0,0.161-0.038,0.315-0.111,0.465c-0.077,0.15-0.179,0.266-0.308,0.347c-0.13,0.081-0.275,0.121-0.439,0.121
				c-0.141,0-0.26-0.032-0.355-0.097c-0.097-0.063-0.164-0.144-0.204-0.239C10.059,8.626,10.039,8.53,10.039,8.433"/>
		</g>
		<polygon points="12.805,9.028 12.513,9.028 12.104,8.009 11.89,9.028 11.599,9.028 11.915,7.509 12.208,7.509 12.618,8.526 
			12.831,7.509 13.121,7.509 		"/>
		<polygon points="13.122,9.028 13.438,7.509 14.564,7.509 14.514,7.765 13.699,7.765 13.626,8.108 14.413,8.108 14.359,8.363 
			13.574,8.363 13.479,8.774 14.361,8.774 14.309,9.028 		"/>
		<g>
			<path d="M15.174,8.536l0.298-0.016c0.004,0.096,0.02,0.158,0.049,0.191c0.046,0.055,0.13,0.082,0.253,0.082
				c0.102,0,0.176-0.02,0.222-0.055c0.045-0.037,0.068-0.082,0.068-0.133c0-0.045-0.019-0.083-0.057-0.115
				c-0.025-0.021-0.098-0.059-0.216-0.11c-0.116-0.051-0.203-0.094-0.258-0.128s-0.097-0.078-0.128-0.133s-0.047-0.118-0.047-0.191
				c0-0.128,0.046-0.234,0.139-0.318s0.228-0.127,0.402-0.127c0.179,0,0.317,0.043,0.414,0.126c0.098,0.084,0.15,0.194,0.161,0.334
				l-0.3,0.014c-0.007-0.073-0.033-0.129-0.078-0.167c-0.046-0.039-0.112-0.059-0.199-0.059c-0.086,0-0.147,0.016-0.186,0.046
				c-0.036,0.03-0.054,0.069-0.054,0.115c0,0.043,0.017,0.079,0.05,0.107c0.034,0.029,0.109,0.069,0.224,0.119
				c0.175,0.075,0.288,0.136,0.334,0.184c0.072,0.069,0.107,0.157,0.107,0.266c0,0.134-0.053,0.249-0.159,0.344
				s-0.253,0.143-0.442,0.143c-0.131,0-0.244-0.022-0.339-0.065c-0.097-0.045-0.165-0.105-0.203-0.184
				C15.189,8.728,15.172,8.638,15.174,8.536"/>
			<path d="M17.305,9.028h-0.312l0.124-0.591l-0.419-0.929h0.333l0.188,0.43c0.045,0.104,0.076,0.178,0.091,0.223
				c0.025-0.045,0.056-0.092,0.089-0.143l0.145-0.201l0.215-0.309h0.362l-0.696,0.957L17.305,9.028z"/>
			<path d="M18.004,8.536l0.299-0.016c0.002,0.096,0.02,0.158,0.048,0.191c0.045,0.055,0.13,0.082,0.253,0.082
				c0.103,0,0.176-0.02,0.222-0.055c0.045-0.037,0.068-0.082,0.068-0.133c0-0.045-0.019-0.083-0.056-0.115
				c-0.027-0.021-0.099-0.059-0.217-0.11c-0.118-0.051-0.203-0.094-0.258-0.128c-0.054-0.034-0.097-0.078-0.127-0.133
				c-0.032-0.055-0.047-0.118-0.047-0.191c0-0.128,0.046-0.234,0.139-0.318c0.092-0.084,0.226-0.127,0.401-0.127
				c0.179,0,0.316,0.043,0.414,0.126c0.099,0.084,0.151,0.194,0.161,0.334l-0.299,0.014c-0.008-0.073-0.035-0.129-0.079-0.167
				c-0.045-0.039-0.11-0.059-0.199-0.059c-0.086,0-0.148,0.016-0.185,0.046c-0.037,0.03-0.056,0.069-0.056,0.115
				c0,0.043,0.017,0.079,0.051,0.107c0.034,0.029,0.108,0.069,0.225,0.119c0.175,0.075,0.286,0.136,0.334,0.184
				c0.07,0.069,0.106,0.157,0.106,0.266c0,0.134-0.053,0.249-0.159,0.344s-0.254,0.143-0.442,0.143
				c-0.131,0-0.245-0.022-0.339-0.065C18.166,8.944,18.1,8.884,18.06,8.806S18.002,8.638,18.004,8.536"/>
		</g>
		<polygon points="20.032,9.028 19.721,9.028 19.985,7.765 19.54,7.765 19.593,7.509 20.789,7.509 20.736,7.765 20.297,7.765 		"/>
		<polygon points="20.668,9.028 20.985,7.509 22.111,7.509 22.059,7.765 21.244,7.765 21.173,8.108 21.959,8.108 21.906,8.363 
			21.12,8.363 21.024,8.774 21.908,8.774 21.854,9.028 		"/>
		<polygon points="22.956,9.028 22.66,9.028 22.604,7.76 22.363,9.028 22.081,9.028 22.398,7.509 22.845,7.509 22.891,8.574 
			23.409,7.509 23.858,7.509 23.541,9.028 23.257,9.028 23.556,7.769 		"/>
		<g>
			<path d="M23.914,8.741h0.299l-0.049,0.238c-0.027,0.136-0.074,0.232-0.138,0.29c-0.062,0.058-0.142,0.086-0.241,0.089
				l0.028-0.138c0.05-0.011,0.09-0.03,0.115-0.06c0.028-0.029,0.048-0.072,0.062-0.133h-0.138L23.914,8.741z"/>
		</g>
		<polygon points="25.029,9.028 25.346,7.509 26.472,7.509 26.419,7.765 25.606,7.765 25.533,8.108 26.319,8.108 26.267,8.363 
			25.48,8.363 25.386,8.774 26.269,8.774 26.215,9.028 		"/>
		<polygon points="27.203,9.028 26.87,9.028 26.597,7.509 26.91,7.509 27.102,8.659 27.73,7.509 28.04,7.509 		"/>
		<polygon points="27.858,9.028 28.176,7.509 29.303,7.509 29.25,7.765 28.436,7.765 28.363,8.108 29.149,8.108 29.098,8.363 
			28.311,8.363 28.215,8.774 29.099,8.774 29.045,9.028 		"/>
		<g>
			<path d="M29.772,8.172h0.165c0.168,0,0.28-0.011,0.335-0.03c0.054-0.02,0.098-0.051,0.128-0.094
				c0.031-0.043,0.047-0.088,0.047-0.135c0-0.055-0.021-0.097-0.066-0.125c-0.028-0.016-0.088-0.023-0.181-0.023h-0.342
				L29.772,8.172z M29.593,9.028H29.28l0.317-1.52h0.676c0.114,0,0.205,0.013,0.27,0.037c0.065,0.023,0.117,0.067,0.157,0.131
				c0.039,0.062,0.059,0.141,0.059,0.23c0,0.13-0.039,0.236-0.115,0.32c-0.077,0.084-0.194,0.136-0.351,0.156
				c0.039,0.035,0.077,0.083,0.112,0.142c0.069,0.118,0.147,0.286,0.232,0.503h-0.335c-0.027-0.086-0.08-0.219-0.159-0.4
				c-0.042-0.098-0.089-0.164-0.136-0.197c-0.03-0.021-0.082-0.031-0.156-0.031h-0.126L29.593,9.028z"/>
			<path d="M31.531,9.028H31.22l0.123-0.591l-0.419-0.929h0.333l0.188,0.43c0.044,0.104,0.075,0.178,0.09,0.223
				c0.024-0.045,0.055-0.092,0.09-0.143l0.144-0.201l0.214-0.309h0.362l-0.696,0.957L31.531,9.028z"/>
		</g>
		<polygon points="33.627,9.028 33.312,9.028 33.276,7.918 32.724,9.028 32.401,9.028 32.344,7.509 32.649,7.509 32.663,8.573 
			33.184,7.509 33.522,7.509 33.559,8.562 34.06,7.509 34.36,7.509 		"/>
		<polygon points="35.231,8.351 34.645,8.351 34.504,9.028 34.189,9.028 34.509,7.509 34.819,7.509 34.697,8.097 35.285,8.097 
			35.408,7.509 35.721,7.509 35.403,9.028 35.091,9.028 		"/>
		<polygon points="35.717,9.028 36.034,7.509 37.159,7.509 37.106,7.765 36.295,7.765 36.222,8.108 37.008,8.108 36.954,8.363 
			36.169,8.363 36.074,8.774 36.957,8.774 36.903,9.028 		"/>
		<g>
			<path d="M37.63,8.172h0.165c0.169,0,0.281-0.011,0.336-0.03c0.054-0.02,0.098-0.051,0.129-0.094
				c0.03-0.043,0.046-0.088,0.046-0.135c0-0.055-0.022-0.097-0.067-0.125c-0.027-0.016-0.088-0.023-0.179-0.023h-0.344L37.63,8.172z
				 M37.451,9.028H37.14l0.316-1.52h0.675c0.116,0,0.206,0.013,0.271,0.037c0.064,0.023,0.116,0.067,0.154,0.131
				c0.041,0.062,0.061,0.141,0.061,0.23c0,0.13-0.038,0.236-0.115,0.32c-0.078,0.084-0.194,0.136-0.352,0.156
				c0.04,0.035,0.078,0.083,0.112,0.142c0.07,0.118,0.148,0.286,0.234,0.503H38.16c-0.027-0.086-0.08-0.219-0.158-0.4
				c-0.043-0.098-0.088-0.164-0.136-0.197c-0.03-0.021-0.082-0.031-0.155-0.031h-0.128L37.451,9.028z"/>
		</g>
		<polygon points="38.663,9.028 38.981,7.509 40.107,7.509 40.055,7.765 39.241,7.765 39.168,8.108 39.955,8.108 39.902,8.363 
			39.115,8.363 39.02,8.774 39.904,8.774 39.851,9.028 		"/>
	</g>
	<g>
		<g>
			<g>
				<path class="st0" d="M1.038,8.72H0.727L0.85,8.128L0.431,7.2h0.333l0.188,0.43c0.045,0.102,0.074,0.177,0.09,0.223
					C1.067,7.808,1.098,7.76,1.131,7.708l0.145-0.2L1.489,7.2h0.362L1.156,8.156L1.038,8.72z"/>
				<path class="st0" d="M2.097,8.116c0,0.105,0.031,0.193,0.095,0.264s0.147,0.105,0.251,0.105c0.085,0,0.165-0.027,0.243-0.084
					c0.078-0.055,0.142-0.14,0.192-0.252c0.051-0.113,0.075-0.224,0.075-0.33c0-0.119-0.031-0.214-0.095-0.281
					C2.794,7.47,2.713,7.437,2.612,7.437c-0.153,0-0.276,0.07-0.373,0.213C2.144,7.791,2.097,7.947,2.097,8.116 M1.787,8.123
					c0-0.089,0.014-0.185,0.041-0.283c0.034-0.134,0.089-0.249,0.161-0.348C2.062,7.395,2.151,7.317,2.263,7.26
					c0.109-0.058,0.233-0.085,0.374-0.085c0.188,0,0.34,0.059,0.456,0.175c0.115,0.116,0.172,0.271,0.172,0.464
					c0,0.16-0.036,0.315-0.111,0.465c-0.076,0.15-0.178,0.266-0.307,0.347c-0.13,0.081-0.275,0.12-0.439,0.12
					c-0.141,0-0.26-0.031-0.355-0.096C1.955,8.585,1.888,8.506,1.848,8.411S1.787,8.221,1.787,8.123"/>
				<path class="st0" d="M3.656,7.2H3.97L3.797,8.025L3.755,8.228C3.752,8.245,3.751,8.263,3.751,8.276
					c0,0.061,0.022,0.11,0.065,0.149c0.043,0.038,0.108,0.058,0.191,0.058c0.075,0,0.138-0.014,0.186-0.042
					c0.05-0.028,0.088-0.07,0.114-0.126C4.335,8.259,4.362,8.164,4.39,8.03L4.563,7.2h0.312L4.702,8.031
					C4.665,8.206,4.624,8.34,4.576,8.433C4.528,8.524,4.457,8.601,4.359,8.658C4.263,8.716,4.141,8.745,3.993,8.745
					c-0.177,0-0.312-0.043-0.406-0.13C3.494,8.528,3.446,8.417,3.446,8.28c0-0.027,0.003-0.059,0.007-0.092
					C3.456,8.167,3.468,8.104,3.489,8L3.656,7.2z"/>
				<path class="st0" d="M5.37,7.862h0.165c0.168,0,0.279-0.01,0.334-0.03c0.056-0.02,0.099-0.052,0.129-0.095
					c0.03-0.042,0.047-0.087,0.047-0.134c0-0.056-0.022-0.097-0.067-0.124C5.949,7.463,5.891,7.454,5.799,7.454H5.454L5.37,7.862z
					 M5.189,8.72H4.878L5.195,7.2H5.87c0.116,0,0.207,0.012,0.271,0.036C6.205,7.26,6.258,7.304,6.298,7.368
					c0.039,0.062,0.06,0.14,0.06,0.23c0,0.129-0.039,0.235-0.116,0.318C6.164,8.001,6.046,8.054,5.891,8.073
					C5.93,8.109,5.968,8.157,6.003,8.216C6.072,8.335,6.149,8.502,6.236,8.72H5.899C5.873,8.634,5.82,8.499,5.742,8.318
					C5.699,8.221,5.652,8.154,5.604,8.12c-0.029-0.02-0.081-0.03-0.155-0.03H5.322L5.189,8.72z"/>
				<path class="st0" d="M7.478,7.888h0.097c0.165,0,0.275-0.01,0.33-0.031c0.055-0.02,0.099-0.053,0.131-0.099
					c0.031-0.046,0.048-0.096,0.048-0.149c0-0.037-0.008-0.067-0.024-0.092C8.041,7.494,8.02,7.477,7.99,7.466
					C7.961,7.456,7.895,7.45,7.794,7.45H7.569L7.478,7.888z M7.306,8.72H6.991L7.309,7.2h0.619c0.109,0,0.196,0.014,0.26,0.039
					S8.302,7.308,8.34,7.368c0.037,0.061,0.056,0.131,0.056,0.214c0,0.076-0.015,0.15-0.045,0.224
					C8.321,7.878,8.285,7.937,8.242,7.979c-0.045,0.043-0.09,0.076-0.14,0.1c-0.05,0.021-0.116,0.039-0.2,0.051
					c-0.05,0.007-0.142,0.01-0.275,0.01H7.426L7.306,8.72z"/>
			</g>
			<polygon class="st0" points="9.456,8.04 8.867,8.04 8.726,8.72 8.413,8.72 8.731,7.2 9.044,7.2 8.92,7.787 9.509,7.787 
				9.631,7.2 9.943,7.2 9.626,8.72 9.312,8.72 			"/>
			<g>
				<path class="st0" d="M10.348,8.116c0,0.105,0.031,0.193,0.095,0.264s0.146,0.105,0.251,0.105c0.084,0,0.166-0.027,0.243-0.084
					c0.077-0.055,0.142-0.14,0.192-0.252c0.051-0.113,0.076-0.224,0.076-0.33c0-0.119-0.032-0.214-0.097-0.281
					c-0.063-0.068-0.146-0.102-0.246-0.102c-0.151,0-0.276,0.07-0.372,0.213C10.396,7.791,10.348,7.947,10.348,8.116 M10.039,8.123
					c0-0.089,0.013-0.185,0.039-0.283c0.035-0.134,0.09-0.249,0.162-0.348c0.072-0.098,0.163-0.175,0.272-0.232
					c0.11-0.058,0.235-0.085,0.375-0.085c0.188,0,0.34,0.059,0.454,0.175c0.117,0.116,0.175,0.271,0.175,0.464
					c0,0.16-0.038,0.315-0.111,0.465c-0.077,0.15-0.179,0.266-0.308,0.347c-0.13,0.081-0.275,0.12-0.439,0.12
					c-0.141,0-0.26-0.031-0.355-0.096c-0.097-0.064-0.164-0.144-0.204-0.238S10.039,8.221,10.039,8.123"/>
			</g>
			<polygon class="st0" points="12.805,8.72 12.513,8.72 12.104,7.698 11.89,8.72 11.599,8.72 11.915,7.2 12.208,7.2 12.618,8.216 
				12.831,7.2 13.121,7.2 			"/>
			<polygon class="st0" points="13.122,8.72 13.438,7.2 14.564,7.2 14.514,7.454 13.699,7.454 13.626,7.799 14.413,7.799 
				14.359,8.054 13.574,8.054 13.479,8.466 14.361,8.466 14.309,8.72 			"/>
			<g>
				<path class="st0" d="M15.174,8.228l0.298-0.016c0.004,0.094,0.02,0.158,0.049,0.191c0.046,0.054,0.13,0.08,0.253,0.08
					c0.102,0,0.176-0.018,0.222-0.055c0.045-0.036,0.068-0.081,0.068-0.133c0-0.045-0.019-0.082-0.057-0.113
					c-0.025-0.022-0.098-0.061-0.216-0.111c-0.116-0.051-0.203-0.094-0.258-0.128s-0.097-0.077-0.128-0.133
					c-0.031-0.055-0.047-0.118-0.047-0.192c0-0.127,0.046-0.232,0.139-0.317c0.093-0.084,0.228-0.126,0.402-0.126
					c0.179,0,0.317,0.042,0.414,0.125c0.098,0.084,0.15,0.195,0.161,0.334l-0.3,0.014c-0.007-0.072-0.033-0.129-0.078-0.167
					c-0.046-0.039-0.112-0.059-0.199-0.059c-0.086,0-0.147,0.016-0.186,0.046c-0.036,0.03-0.054,0.068-0.054,0.115
					c0,0.043,0.017,0.078,0.05,0.107c0.034,0.029,0.109,0.068,0.224,0.119c0.175,0.075,0.288,0.137,0.334,0.184
					c0.072,0.068,0.107,0.158,0.107,0.266c0,0.135-0.053,0.248-0.159,0.344c-0.106,0.095-0.253,0.143-0.442,0.143
					c-0.131,0-0.244-0.022-0.339-0.065c-0.097-0.044-0.165-0.105-0.203-0.183C15.189,8.419,15.172,8.328,15.174,8.228"/>
				<path class="st0" d="M17.305,8.72h-0.312l0.124-0.592L16.698,7.2h0.333l0.188,0.43c0.045,0.102,0.076,0.177,0.091,0.223
					c0.025-0.045,0.056-0.093,0.089-0.145l0.145-0.2L17.758,7.2h0.362l-0.696,0.956L17.305,8.72z"/>
				<path class="st0" d="M18.004,8.228l0.299-0.016c0.002,0.094,0.02,0.158,0.048,0.191c0.045,0.054,0.13,0.08,0.253,0.08
					c0.103,0,0.176-0.018,0.222-0.055c0.045-0.036,0.068-0.081,0.068-0.133c0-0.045-0.019-0.082-0.056-0.113
					c-0.027-0.022-0.099-0.061-0.217-0.111s-0.203-0.094-0.258-0.128c-0.054-0.034-0.097-0.077-0.127-0.133
					c-0.032-0.055-0.047-0.118-0.047-0.192c0-0.127,0.046-0.232,0.139-0.317c0.092-0.084,0.226-0.126,0.401-0.126
					c0.179,0,0.316,0.042,0.414,0.125c0.099,0.084,0.151,0.195,0.161,0.334l-0.299,0.014c-0.008-0.072-0.035-0.129-0.079-0.167
					c-0.045-0.039-0.11-0.059-0.199-0.059c-0.086,0-0.148,0.016-0.185,0.046c-0.037,0.03-0.056,0.068-0.056,0.115
					c0,0.043,0.017,0.078,0.051,0.107s0.108,0.068,0.225,0.119c0.175,0.075,0.286,0.137,0.334,0.184
					c0.07,0.068,0.106,0.158,0.106,0.266c0,0.135-0.053,0.248-0.159,0.344c-0.106,0.095-0.254,0.143-0.442,0.143
					c-0.131,0-0.245-0.022-0.339-0.065C18.166,8.636,18.1,8.574,18.06,8.497C18.02,8.419,18.002,8.328,18.004,8.228"/>
			</g>
			<polygon class="st0" points="20.032,8.72 19.721,8.72 19.985,7.454 19.54,7.454 19.593,7.2 20.789,7.2 20.736,7.454 
				20.297,7.454 			"/>
			<polygon class="st0" points="20.668,8.72 20.985,7.2 22.111,7.2 22.059,7.454 21.244,7.454 21.173,7.799 21.959,7.799 
				21.906,8.054 21.12,8.054 21.024,8.466 21.908,8.466 21.854,8.72 			"/>
			<polygon class="st0" points="22.956,8.72 22.66,8.72 22.604,7.45 22.363,8.72 22.081,8.72 22.398,7.2 22.845,7.2 22.891,8.265 
				23.409,7.2 23.858,7.2 23.541,8.72 23.257,8.72 23.556,7.46 			"/>
			<g>
				<path class="st0" d="M23.914,8.433h0.299l-0.049,0.236c-0.027,0.137-0.074,0.234-0.138,0.291
					c-0.062,0.057-0.142,0.086-0.241,0.088l0.028-0.137c0.05-0.012,0.09-0.031,0.115-0.06c0.028-0.029,0.048-0.073,0.062-0.133
					h-0.138L23.914,8.433z"/>
			</g>
			<polygon class="st0" points="25.029,8.72 25.346,7.2 26.472,7.2 26.419,7.454 25.606,7.454 25.533,7.799 26.319,7.799 
				26.267,8.054 25.48,8.054 25.386,8.466 26.269,8.466 26.215,8.72 			"/>
			<polygon class="st0" points="27.203,8.72 26.87,8.72 26.597,7.2 26.91,7.2 27.102,8.35 27.73,7.2 28.04,7.2 			"/>
			<polygon class="st0" points="27.858,8.72 28.176,7.2 29.303,7.2 29.25,7.454 28.436,7.454 28.363,7.799 29.149,7.799 
				29.098,8.054 28.311,8.054 28.215,8.466 29.099,8.466 29.045,8.72 			"/>
			<g>
				<path class="st0" d="M29.772,7.862h0.165c0.168,0,0.28-0.01,0.335-0.03c0.054-0.02,0.098-0.052,0.128-0.095
					c0.031-0.042,0.047-0.087,0.047-0.134c0-0.056-0.021-0.097-0.066-0.124c-0.028-0.017-0.088-0.025-0.181-0.025h-0.342
					L29.772,7.862z M29.593,8.72H29.28l0.317-1.52h0.676c0.114,0,0.205,0.012,0.27,0.036C30.608,7.26,30.66,7.304,30.7,7.368
					c0.039,0.062,0.059,0.14,0.059,0.23c0,0.129-0.039,0.235-0.115,0.318c-0.077,0.084-0.194,0.137-0.351,0.156
					c0.039,0.036,0.077,0.084,0.112,0.143c0.069,0.119,0.147,0.286,0.232,0.504h-0.335c-0.027-0.086-0.08-0.221-0.159-0.401
					c-0.042-0.098-0.089-0.164-0.136-0.198c-0.03-0.02-0.082-0.03-0.156-0.03h-0.126L29.593,8.72z"/>
				<path class="st0" d="M31.531,8.72H31.22l0.123-0.592L30.924,7.2h0.333l0.188,0.43c0.044,0.102,0.075,0.177,0.09,0.223
					c0.024-0.045,0.055-0.093,0.09-0.145l0.144-0.2L31.982,7.2h0.362l-0.696,0.956L31.531,8.72z"/>
			</g>
			<polygon class="st0" points="33.627,8.72 33.312,8.72 33.276,7.608 32.724,8.72 32.401,8.72 32.344,7.2 32.649,7.2 32.663,8.263 
				33.184,7.2 33.522,7.2 33.559,8.253 34.06,7.2 34.36,7.2 			"/>
			<polygon class="st0" points="35.231,8.04 34.645,8.04 34.504,8.72 34.189,8.72 34.509,7.2 34.819,7.2 34.697,7.787 35.285,7.787 
				35.408,7.2 35.721,7.2 35.403,8.72 35.091,8.72 			"/>
			<polygon class="st0" points="35.717,8.72 36.034,7.2 37.159,7.2 37.106,7.454 36.295,7.454 36.222,7.799 37.008,7.799 
				36.954,8.054 36.169,8.054 36.074,8.466 36.957,8.466 36.903,8.72 			"/>
			<g>
				<path class="st0" d="M37.63,7.862h0.165c0.169,0,0.281-0.01,0.336-0.03c0.054-0.02,0.098-0.052,0.129-0.095
					c0.03-0.042,0.046-0.087,0.046-0.134c0-0.056-0.022-0.097-0.067-0.124c-0.027-0.017-0.088-0.025-0.179-0.025h-0.344L37.63,7.862
					z M37.451,8.72H37.14l0.316-1.52h0.675c0.116,0,0.206,0.012,0.271,0.036c0.064,0.023,0.116,0.067,0.154,0.132
					c0.041,0.062,0.061,0.14,0.061,0.23c0,0.129-0.038,0.235-0.115,0.318c-0.078,0.084-0.194,0.137-0.352,0.156
					c0.04,0.036,0.078,0.084,0.112,0.143c0.07,0.119,0.148,0.286,0.234,0.504H38.16c-0.027-0.086-0.08-0.221-0.158-0.401
					c-0.043-0.098-0.088-0.164-0.136-0.198c-0.03-0.02-0.082-0.03-0.155-0.03h-0.128L37.451,8.72z"/>
			</g>
			<polygon class="st0" points="38.663,8.72 38.981,7.2 40.107,7.2 40.055,7.454 39.241,7.454 39.168,7.799 39.955,7.799 
				39.902,8.054 39.115,8.054 39.02,8.466 39.904,8.466 39.851,8.72 			"/>
		</g>
	</g>
	<g>
		<g>
			<g>
				<path d="M2.156,2.532H2.81c0.257,0,0.459-0.037,0.604-0.106c0.146-0.071,0.232-0.194,0.262-0.373
					C3.678,2.03,3.681,1.995,3.681,1.948c0-0.145-0.054-0.251-0.162-0.32C3.411,1.562,3.271,1.527,3.098,1.527H2.325L2.156,2.532z
					 M1.959,3.641L1.658,5.404H0l0.879-5.056h2.388c0.368,0,0.682,0.022,0.938,0.065c0.255,0.045,0.463,0.113,0.624,0.204
					C4.99,0.709,5.106,0.822,5.179,0.958c0.073,0.136,0.11,0.297,0.11,0.485c0,0.098-0.014,0.213-0.035,0.343
					C5.202,2.077,5.09,2.336,4.913,2.563C4.737,2.79,4.495,2.943,4.187,3.022c0.103,0.038,0.194,0.077,0.276,0.117
					c0.082,0.039,0.152,0.09,0.213,0.151c0.058,0.061,0.103,0.136,0.136,0.225C4.844,3.604,4.86,3.718,4.86,3.858
					c0,0.146-0.017,0.313-0.049,0.505C4.778,4.542,4.754,4.69,4.734,4.807C4.714,4.924,4.705,5.015,4.705,5.082
					c0,0.112,0.043,0.168,0.126,0.168l-0.02,0.154H3.133c-0.01-0.046-0.014-0.1-0.014-0.161c0-0.08,0.005-0.182,0.017-0.306
					c0.012-0.124,0.031-0.263,0.061-0.418c0.026-0.155,0.042-0.285,0.042-0.393c0-0.179-0.057-0.303-0.165-0.376
					c-0.11-0.072-0.312-0.109-0.607-0.109H1.959z"/>
				<path d="M7.614,1.724H8.95L8.852,2.299C9.058,2.075,9.266,1.906,9.477,1.79c0.211-0.114,0.457-0.172,0.739-0.172
					c0.41,0,0.714,0.097,0.905,0.289c0.19,0.191,0.286,0.471,0.286,0.836c0,0.146-0.014,0.296-0.041,0.456l-0.381,2.206h-1.46
					l0.337-1.945c0.016-0.084,0.022-0.166,0.022-0.246c0-0.127-0.03-0.232-0.089-0.316C9.738,2.812,9.628,2.77,9.47,2.77
					c-0.224,0-0.389,0.066-0.492,0.201C8.874,3.104,8.805,3.29,8.768,3.528L8.444,5.404H6.983L7.614,1.724z"/>
				<path d="M13.646,2.568c-0.108,0-0.202,0.021-0.282,0.063c-0.078,0.042-0.146,0.102-0.204,0.177
					c-0.055,0.075-0.101,0.165-0.136,0.268c-0.035,0.104-0.062,0.214-0.081,0.331c-0.005,0.033-0.009,0.064-0.011,0.092
					c-0.003,0.028-0.004,0.057-0.004,0.085c0,0.146,0.037,0.272,0.109,0.377c0.073,0.106,0.19,0.161,0.354,0.166h0.035
					c0.104,0,0.196-0.021,0.278-0.064c0.081-0.041,0.151-0.098,0.211-0.168c0.058-0.07,0.105-0.151,0.143-0.244
					c0.039-0.092,0.066-0.187,0.085-0.286c0.015-0.075,0.021-0.152,0.021-0.233c0-0.156-0.038-0.288-0.113-0.398
					c-0.074-0.11-0.205-0.166-0.393-0.166H13.646z M12.774,5.504v0.021c0,0.051,0.021,0.098,0.063,0.14
					c0.053,0.062,0.152,0.092,0.303,0.092c0.211,0,0.369-0.054,0.478-0.161c0.106-0.108,0.185-0.292,0.231-0.556l0.056-0.302
					c-0.121,0.107-0.271,0.202-0.452,0.281c-0.181,0.079-0.403,0.12-0.67,0.12c-0.221,0-0.415-0.036-0.581-0.105
					c-0.165-0.07-0.306-0.167-0.418-0.288c-0.111-0.121-0.195-0.267-0.252-0.435c-0.057-0.169-0.085-0.349-0.085-0.542
					c0-0.06,0.004-0.121,0.012-0.182c0.006-0.061,0.014-0.124,0.022-0.189c0.039-0.225,0.105-0.45,0.202-0.675
					c0.095-0.224,0.224-0.425,0.386-0.601c0.161-0.175,0.356-0.317,0.583-0.428c0.227-0.11,0.492-0.165,0.797-0.165
					c0.226,0,0.425,0.053,0.6,0.161c0.176,0.106,0.315,0.249,0.419,0.425l0.078-0.48h1.283l-0.512,2.964
					c-0.047,0.276-0.106,0.533-0.179,0.772c-0.073,0.239-0.189,0.448-0.35,0.625c-0.157,0.178-0.375,0.317-0.651,0.419
					c-0.275,0.1-0.642,0.15-1.096,0.15c-0.318,0-0.588-0.029-0.808-0.085c-0.221-0.058-0.399-0.132-0.534-0.225
					c-0.137-0.093-0.235-0.201-0.299-0.323c-0.062-0.122-0.095-0.248-0.095-0.38V5.504H12.774z"/>
				<path d="M19.255,2.323c0-0.018,0.001-0.033,0.003-0.047c0.003-0.012,0.005-0.028,0.005-0.045c0-0.222-0.064-0.393-0.19-0.511
					c-0.127-0.12-0.304-0.18-0.534-0.18c-0.279,0-0.516,0.116-0.711,0.348c-0.193,0.233-0.332,0.581-0.413,1.046
					c-0.017,0.089-0.029,0.174-0.038,0.256c-0.011,0.082-0.015,0.161-0.015,0.236c0,0.115,0.013,0.221,0.038,0.319
					C17.423,3.841,17.465,3.926,17.523,4c0.061,0.072,0.139,0.13,0.237,0.172c0.098,0.042,0.221,0.063,0.372,0.063
					c0.252,0,0.455-0.077,0.606-0.233c0.153-0.154,0.266-0.346,0.337-0.577h1.507c-0.089,0.31-0.215,0.586-0.382,0.831
					C20.036,4.5,19.838,4.707,19.61,4.876c-0.229,0.17-0.483,0.301-0.764,0.392c-0.282,0.09-0.579,0.136-0.894,0.136
					c-0.346,0-0.65-0.043-0.917-0.132c-0.265-0.089-0.49-0.217-0.673-0.386c-0.184-0.168-0.324-0.373-0.419-0.614
					c-0.095-0.242-0.143-0.515-0.143-0.82c0-0.088,0.004-0.181,0.013-0.276c0.008-0.095,0.021-0.193,0.04-0.296
					c0.068-0.384,0.188-0.731,0.365-1.043c0.177-0.31,0.393-0.573,0.645-0.789c0.252-0.217,0.535-0.384,0.847-0.502
					c0.312-0.117,0.635-0.176,0.967-0.176c0.694,0,1.215,0.153,1.558,0.458c0.342,0.305,0.514,0.737,0.514,1.295v0.099
					c0,0.032-0.002,0.064-0.007,0.1H19.255z"/>
				<path d="M23.725,3.043c0.005-0.023,0.007-0.058,0.007-0.104c0-0.15-0.052-0.277-0.154-0.379
					c-0.104-0.103-0.231-0.154-0.386-0.154c-0.221,0-0.397,0.057-0.535,0.171c-0.135,0.116-0.223,0.271-0.259,0.467H23.725z
					 M22.271,3.789c-0.005,0.023-0.008,0.047-0.011,0.07c-0.003,0.023-0.003,0.047-0.003,0.071c0,0.179,0.058,0.319,0.175,0.425
					c0.118,0.105,0.263,0.158,0.437,0.158c0.117,0,0.23-0.027,0.338-0.081c0.106-0.054,0.195-0.134,0.266-0.242h1.398
					c-0.104,0.229-0.237,0.42-0.405,0.576c-0.165,0.154-0.35,0.279-0.551,0.376c-0.202,0.096-0.413,0.164-0.635,0.204
					c-0.225,0.039-0.441,0.059-0.656,0.059c-0.263,0-0.504-0.033-0.724-0.099c-0.221-0.064-0.41-0.164-0.568-0.295
					c-0.161-0.13-0.284-0.291-0.374-0.481c-0.088-0.189-0.133-0.408-0.133-0.656c0-0.062,0.003-0.124,0.01-0.187
					s0.017-0.127,0.025-0.193c0.051-0.299,0.151-0.572,0.302-0.818c0.149-0.246,0.334-0.454,0.551-0.625
					c0.218-0.171,0.462-0.303,0.729-0.397c0.271-0.094,0.553-0.14,0.847-0.14c0.295,0,0.558,0.042,0.785,0.126
					C24.3,1.724,24.49,1.841,24.646,1.99c0.153,0.15,0.271,0.333,0.35,0.549c0.08,0.214,0.119,0.452,0.119,0.709
					c0,0.159-0.018,0.339-0.055,0.541H22.271z"/>
				<path d="M25.588,1.724h1.335l-0.098,0.576c0.205-0.225,0.414-0.394,0.625-0.509c0.21-0.114,0.456-0.172,0.736-0.172
					c0.413,0,0.715,0.097,0.906,0.289c0.192,0.191,0.288,0.471,0.288,0.836c0,0.146-0.014,0.296-0.042,0.456L28.96,5.404h-1.462
					l0.338-1.945c0.014-0.084,0.022-0.166,0.022-0.246c0-0.127-0.03-0.232-0.089-0.316c-0.059-0.084-0.167-0.126-0.326-0.126
					c-0.226,0-0.389,0.066-0.492,0.201c-0.103,0.133-0.174,0.319-0.21,0.558l-0.323,1.875h-1.461L25.588,1.724z"/>
				<path d="M31.661,5.375c-0.164,0.01-0.314,0.018-0.453,0.022c-0.138,0.004-0.265,0.006-0.383,0.006
					c-0.221,0-0.405-0.01-0.555-0.031c-0.149-0.021-0.27-0.059-0.357-0.113c-0.09-0.053-0.153-0.125-0.191-0.214
					c-0.036-0.088-0.057-0.201-0.057-0.336c0-0.084,0.007-0.179,0.019-0.285c0.012-0.106,0.03-0.222,0.054-0.349l0.266-1.537h-0.519
					l0.139-0.844h0.542l0.204-1.144h1.44l-0.205,1.144h0.702L32.166,2.54h-0.702l-0.23,1.339c-0.011,0.042-0.017,0.081-0.021,0.115
					c-0.006,0.035-0.008,0.067-0.008,0.095c0,0.09,0.029,0.153,0.085,0.191c0.057,0.038,0.161,0.057,0.315,0.057h0.231L31.661,5.375
					z"/>
				<path d="M32.608,1.724h1.327L33.81,2.468h0.015c0.294-0.567,0.72-0.851,1.277-0.851c0.033,0,0.065,0.003,0.096,0.007
					c0.03,0.005,0.062,0.01,0.095,0.014L35.03,3.1c-0.046-0.009-0.094-0.019-0.142-0.028c-0.05-0.009-0.101-0.014-0.153-0.014
					c-0.298,0-0.535,0.081-0.711,0.239c-0.177,0.16-0.3,0.439-0.37,0.835l-0.217,1.271h-1.461L32.608,1.724z"/>
				<path d="M36.571,4.575c0.125,0,0.238-0.023,0.334-0.069c0.096-0.047,0.176-0.111,0.241-0.194
					c0.066-0.082,0.116-0.178,0.154-0.288s0.063-0.228,0.078-0.355c-0.132,0.056-0.264,0.097-0.396,0.124
					c-0.134,0.026-0.257,0.054-0.373,0.084c-0.113,0.03-0.214,0.073-0.295,0.13c-0.082,0.056-0.132,0.142-0.15,0.259v0.042
					c0,0.08,0.033,0.144,0.103,0.193C36.333,4.551,36.436,4.575,36.571,4.575 M37.247,5.412l-0.008-0.506
					C37,5.101,36.764,5.234,36.532,5.302c-0.231,0.067-0.486,0.102-0.763,0.102c-0.153,0-0.301-0.017-0.442-0.052
					c-0.14-0.036-0.262-0.091-0.364-0.166c-0.104-0.074-0.186-0.166-0.245-0.277c-0.062-0.109-0.092-0.242-0.092-0.396
					c0-0.066,0.006-0.139,0.021-0.218c0.045-0.275,0.148-0.492,0.305-0.649s0.34-0.274,0.548-0.354
					c0.208-0.081,0.429-0.135,0.661-0.166c0.229-0.03,0.446-0.058,0.646-0.084c0.2-0.025,0.367-0.06,0.504-0.104
					c0.138-0.045,0.218-0.125,0.237-0.243c0-0.008,0-0.017,0.004-0.024c0.002-0.007,0.003-0.015,0.003-0.024
					c0-0.057-0.018-0.101-0.05-0.134c-0.033-0.032-0.072-0.057-0.116-0.075c-0.044-0.016-0.092-0.027-0.144-0.034
					c-0.052-0.008-0.094-0.011-0.126-0.011c-0.052,0-0.107,0.003-0.165,0.011c-0.059,0.007-0.114,0.023-0.166,0.049
					c-0.052,0.025-0.1,0.062-0.143,0.108C36.6,2.606,36.569,2.67,36.55,2.75h-1.405c0.033-0.198,0.1-0.372,0.197-0.523
					c0.099-0.153,0.239-0.282,0.418-0.387c0.181-0.104,0.401-0.186,0.664-0.241c0.262-0.057,0.576-0.085,0.94-0.085
					c0.333,0,0.606,0.022,0.819,0.067c0.212,0.044,0.38,0.109,0.502,0.193c0.121,0.084,0.204,0.184,0.253,0.302
					c0.046,0.117,0.069,0.249,0.069,0.394c0,0.088-0.005,0.18-0.017,0.274c-0.012,0.093-0.028,0.192-0.046,0.295l-0.296,1.721
					c-0.013,0.079-0.021,0.146-0.021,0.196c0,0.052,0.009,0.097,0.028,0.137c0.019,0.04,0.055,0.085,0.105,0.137l-0.005,0.184
					H37.247z"/>
			</g>
			<polygon points="39.008,5.404 39.886,0.348 41.347,0.348 40.471,5.404 			"/>
			<polygon points="5.085,5.404 5.906,2.417 6.966,2.417 6.538,5.404 			"/>
			<g>
				<path d="M7.498,1.084c0,0,0,0-0.004-0.005c-0.002-0.006-0.009-0.018-0.02-0.032C7.453,1.019,7.42,0.979,7.368,0.933
					C7.267,0.844,7.1,0.74,6.831,0.691C6.698,0.667,6.586,0.666,6.486,0.676C6.251,0.7,6.108,0.795,6.057,0.836
					C6.04,0.847,6.037,0.85,6.037,0.85l0,0c-0.067,0.068-0.177,0.067-0.244,0c-0.066-0.067-0.066-0.177,0-0.243
					C5.811,0.59,6.03,0.376,6.451,0.333c0.13-0.013,0.276-0.01,0.44,0.019C7.561,0.47,7.795,0.899,7.807,0.928v0
					c0.042,0.085,0.009,0.19-0.077,0.233C7.711,1.169,7.69,1.176,7.669,1.178C7.601,1.184,7.531,1.149,7.498,1.084"/>
				<path d="M7.069,1.477c-0.001,0,0,0-0.011-0.016C7.046,1.447,7.029,1.424,7.002,1.4C6.946,1.351,6.854,1.293,6.701,1.265
					C6.626,1.251,6.562,1.25,6.51,1.256C6.377,1.27,6.3,1.323,6.274,1.343C6.267,1.349,6.268,1.349,6.268,1.349
					c-0.057,0.057-0.148,0.057-0.205,0c-0.056-0.056-0.056-0.147,0-0.204C6.076,1.131,6.217,0.999,6.479,0.97
					C6.56,0.962,6.651,0.964,6.753,0.981c0.413,0.074,0.564,0.343,0.573,0.366C7.361,1.418,7.333,1.504,7.262,1.54
					C7.247,1.548,7.229,1.553,7.211,1.555C7.155,1.562,7.096,1.531,7.069,1.477"/>
				<path d="M6.946,1.83C6.944,2.007,6.777,2.149,6.571,2.148C6.364,2.147,6.198,2.002,6.199,1.826c0-0.178,0.167-0.32,0.376-0.32
					C6.78,1.508,6.946,1.653,6.946,1.83"/>
				<g>
					<path d="M41.785,1.168v-0.57h0.252c0.052,0,0.091,0.005,0.117,0.015c0.026,0.01,0.046,0.028,0.063,0.055
						c0.016,0.026,0.023,0.055,0.023,0.086c0,0.041-0.013,0.074-0.04,0.102c-0.026,0.028-0.065,0.045-0.12,0.053
						c0.02,0.01,0.034,0.019,0.046,0.029c0.021,0.021,0.042,0.045,0.062,0.076l0.101,0.155h-0.096L42.117,1.05
						c-0.022-0.034-0.04-0.061-0.054-0.079c-0.015-0.018-0.028-0.031-0.04-0.038c-0.01-0.007-0.021-0.012-0.033-0.015
						c-0.009-0.002-0.021-0.003-0.042-0.003h-0.089v0.253H41.785z M41.859,0.85h0.164c0.034,0,0.061-0.003,0.08-0.011
						c0.021-0.007,0.035-0.019,0.044-0.034c0.011-0.016,0.016-0.033,0.016-0.051c0-0.027-0.01-0.049-0.028-0.066
						c-0.021-0.018-0.052-0.026-0.095-0.026h-0.181V0.85z"/>
				</g>
				<path d="M41.542,0.913c0,0.257,0.209,0.466,0.468,0.467c0.257,0,0.467-0.209,0.467-0.467c0-0.259-0.21-0.467-0.467-0.468
					C41.751,0.446,41.542,0.654,41.542,0.913 M41.452,0.913c0-0.308,0.249-0.558,0.558-0.558c0.307,0,0.557,0.25,0.557,0.558
					c0,0.307-0.25,0.557-0.557,0.557C41.701,1.47,41.452,1.22,41.452,0.913"/>
			</g>
		</g>
		<g>
			<g>
				<g>
					<path class="st0" d="M2.156,2.207H2.81c0.257,0,0.459-0.036,0.604-0.106c0.146-0.07,0.232-0.194,0.262-0.372
						C3.678,1.705,3.681,1.67,3.681,1.623c0-0.145-0.054-0.25-0.162-0.319C3.411,1.236,3.271,1.202,3.098,1.202H2.325L2.156,2.207z
						 M1.959,3.315L1.658,5.079H0l0.879-5.057h2.388c0.368,0,0.682,0.022,0.938,0.066c0.255,0.044,0.463,0.113,0.624,0.204
						C4.99,0.384,5.106,0.497,5.179,0.633c0.073,0.135,0.11,0.296,0.11,0.484c0,0.098-0.014,0.213-0.035,0.344
						C5.202,1.752,5.09,2.01,4.913,2.238c-0.176,0.227-0.418,0.38-0.727,0.459c0.103,0.038,0.194,0.077,0.276,0.117
						s0.152,0.089,0.213,0.151C4.733,3.026,4.778,3.1,4.812,3.19C4.844,3.278,4.86,3.394,4.86,3.533
						c0,0.146-0.017,0.313-0.049,0.505C4.778,4.218,4.754,4.365,4.734,4.482C4.714,4.599,4.705,4.69,4.705,4.756
						c0,0.112,0.043,0.169,0.126,0.169l-0.02,0.154H3.133c-0.01-0.047-0.014-0.101-0.014-0.162c0-0.081,0.005-0.182,0.017-0.306
						c0.012-0.124,0.031-0.263,0.061-0.417c0.026-0.155,0.042-0.286,0.042-0.393c0-0.178-0.057-0.303-0.165-0.376
						c-0.11-0.073-0.312-0.109-0.607-0.109H1.959z"/>
					<path class="st0" d="M7.614,1.398H8.95L8.852,1.975C9.058,1.75,9.266,1.581,9.477,1.465c0.211-0.114,0.457-0.172,0.739-0.172
						c0.41,0,0.714,0.096,0.905,0.288c0.19,0.192,0.286,0.471,0.286,0.836c0,0.146-0.014,0.297-0.041,0.456l-0.381,2.206h-1.46
						l0.337-1.946c0.016-0.084,0.022-0.166,0.022-0.246c0-0.127-0.03-0.232-0.089-0.316C9.738,2.487,9.628,2.445,9.47,2.445
						c-0.224,0-0.389,0.066-0.492,0.201c-0.104,0.133-0.173,0.32-0.21,0.558L8.444,5.079H6.983L7.614,1.398z"/>
					<path class="st0" d="M13.646,2.243c-0.108,0-0.202,0.021-0.282,0.063c-0.078,0.043-0.146,0.102-0.204,0.177
						c-0.055,0.074-0.101,0.164-0.136,0.268c-0.035,0.104-0.062,0.215-0.081,0.331c-0.005,0.034-0.009,0.064-0.011,0.092
						c-0.003,0.028-0.004,0.057-0.004,0.085c0,0.146,0.037,0.271,0.109,0.377c0.073,0.107,0.19,0.162,0.354,0.167h0.035
						c0.104,0,0.196-0.022,0.278-0.064c0.081-0.042,0.151-0.099,0.211-0.168c0.058-0.071,0.105-0.152,0.143-0.244
						c0.039-0.092,0.066-0.187,0.085-0.286c0.015-0.074,0.021-0.152,0.021-0.233c0-0.155-0.038-0.287-0.113-0.399
						c-0.074-0.11-0.205-0.166-0.393-0.166H13.646z M12.774,5.178V5.2c0,0.052,0.021,0.098,0.063,0.141
						c0.053,0.061,0.152,0.091,0.303,0.091c0.211,0,0.369-0.054,0.478-0.161c0.106-0.107,0.185-0.292,0.231-0.556l0.056-0.302
						c-0.121,0.107-0.271,0.202-0.452,0.281s-0.403,0.12-0.67,0.12c-0.221,0-0.415-0.035-0.581-0.105
						c-0.165-0.07-0.306-0.166-0.418-0.288c-0.111-0.122-0.195-0.267-0.252-0.436c-0.057-0.168-0.085-0.349-0.085-0.541
						c0-0.061,0.004-0.122,0.012-0.182c0.006-0.062,0.014-0.125,0.022-0.19c0.039-0.225,0.105-0.449,0.202-0.674
						c0.095-0.224,0.224-0.424,0.386-0.6c0.161-0.176,0.356-0.318,0.583-0.429c0.227-0.11,0.492-0.165,0.797-0.165
						c0.226,0,0.425,0.053,0.6,0.161c0.176,0.106,0.315,0.249,0.419,0.425l0.078-0.48h1.283l-0.512,2.963
						c-0.047,0.276-0.106,0.534-0.179,0.773c-0.073,0.239-0.189,0.447-0.35,0.625c-0.157,0.178-0.375,0.318-0.651,0.418
						c-0.275,0.1-0.642,0.151-1.096,0.151c-0.318,0-0.588-0.028-0.808-0.084c-0.221-0.057-0.399-0.131-0.534-0.225
						c-0.137-0.094-0.235-0.201-0.299-0.324c-0.062-0.121-0.095-0.247-0.095-0.379V5.178H12.774z"/>
					<path class="st0" d="M19.255,1.998c0-0.018,0.001-0.034,0.003-0.048c0.003-0.012,0.005-0.027,0.005-0.046
						c0-0.221-0.064-0.392-0.19-0.511c-0.127-0.12-0.304-0.179-0.534-0.179c-0.279,0-0.516,0.116-0.711,0.348
						c-0.193,0.234-0.332,0.582-0.413,1.046c-0.017,0.089-0.029,0.174-0.038,0.256c-0.011,0.083-0.015,0.161-0.015,0.236
						c0,0.115,0.013,0.222,0.038,0.319c0.023,0.097,0.065,0.183,0.124,0.256c0.061,0.073,0.139,0.13,0.237,0.172
						c0.098,0.043,0.221,0.064,0.372,0.064c0.252,0,0.455-0.078,0.606-0.233c0.153-0.155,0.266-0.346,0.337-0.578h1.507
						c-0.089,0.31-0.215,0.587-0.382,0.831c-0.165,0.244-0.363,0.451-0.591,0.621c-0.229,0.17-0.483,0.301-0.764,0.392
						c-0.282,0.09-0.579,0.136-0.894,0.136c-0.346,0-0.65-0.044-0.917-0.133c-0.265-0.088-0.49-0.217-0.673-0.385
						c-0.184-0.168-0.324-0.373-0.419-0.614c-0.095-0.242-0.143-0.514-0.143-0.82c0-0.089,0.004-0.18,0.013-0.276
						c0.008-0.095,0.021-0.193,0.04-0.296c0.068-0.384,0.188-0.732,0.365-1.042c0.177-0.311,0.393-0.574,0.645-0.79
						c0.252-0.217,0.535-0.384,0.847-0.502c0.312-0.117,0.635-0.176,0.967-0.176c0.694,0,1.215,0.153,1.558,0.458
						c0.342,0.306,0.514,0.738,0.514,1.295v0.099c0,0.032-0.002,0.064-0.007,0.101H19.255z"/>
					<path class="st0" d="M23.725,2.719c0.005-0.023,0.007-0.058,0.007-0.105c0-0.149-0.052-0.276-0.154-0.378
						c-0.104-0.104-0.231-0.155-0.386-0.155c-0.221,0-0.397,0.058-0.535,0.172c-0.135,0.116-0.223,0.27-0.259,0.467H23.725z
						 M22.271,3.463c-0.005,0.024-0.008,0.047-0.011,0.07c-0.003,0.023-0.003,0.047-0.003,0.071c0,0.179,0.058,0.319,0.175,0.425
						c0.118,0.105,0.263,0.158,0.437,0.158c0.117,0,0.23-0.028,0.338-0.081c0.106-0.054,0.195-0.134,0.266-0.243h1.398
						c-0.104,0.229-0.237,0.421-0.405,0.576c-0.165,0.154-0.35,0.279-0.551,0.376c-0.202,0.096-0.413,0.164-0.635,0.204
						c-0.225,0.04-0.441,0.06-0.656,0.06c-0.263,0-0.504-0.034-0.724-0.099c-0.221-0.065-0.41-0.163-0.568-0.295
						c-0.161-0.13-0.284-0.291-0.374-0.481c-0.088-0.189-0.133-0.407-0.133-0.656c0-0.06,0.003-0.123,0.01-0.186
						s0.017-0.127,0.025-0.193c0.051-0.299,0.151-0.573,0.302-0.818c0.149-0.246,0.334-0.454,0.551-0.625
						c0.218-0.171,0.462-0.303,0.729-0.397c0.271-0.093,0.553-0.141,0.847-0.141c0.295,0,0.558,0.043,0.785,0.127
						c0.227,0.083,0.417,0.201,0.572,0.351c0.153,0.15,0.271,0.333,0.35,0.548c0.08,0.215,0.119,0.452,0.119,0.709
						c0,0.16-0.018,0.34-0.055,0.541H22.271z"/>
					<path class="st0" d="M25.588,1.398h1.335l-0.098,0.576c0.205-0.225,0.414-0.394,0.625-0.509
						c0.21-0.114,0.456-0.172,0.736-0.172c0.413,0,0.715,0.096,0.906,0.288c0.192,0.192,0.288,0.471,0.288,0.836
						c0,0.146-0.014,0.297-0.042,0.456L28.96,5.079h-1.462l0.338-1.946c0.014-0.084,0.022-0.166,0.022-0.246
						c0-0.127-0.03-0.232-0.089-0.316c-0.059-0.084-0.167-0.127-0.326-0.127c-0.226,0-0.389,0.066-0.492,0.201
						c-0.103,0.133-0.174,0.32-0.21,0.558l-0.323,1.875h-1.461L25.588,1.398z"/>
					<path class="st0" d="M31.661,5.051c-0.164,0.009-0.314,0.017-0.453,0.021c-0.138,0.004-0.265,0.007-0.383,0.007
						c-0.221,0-0.405-0.011-0.555-0.032c-0.149-0.021-0.27-0.059-0.357-0.112c-0.09-0.054-0.153-0.126-0.191-0.215
						c-0.036-0.088-0.057-0.201-0.057-0.336c0-0.084,0.007-0.179,0.019-0.285c0.012-0.105,0.03-0.221,0.054-0.349l0.266-1.536
						h-0.519l0.139-0.844h0.542l0.204-1.145h1.44l-0.205,1.145h0.702l-0.141,0.844h-0.702l-0.23,1.339
						c-0.011,0.042-0.017,0.08-0.021,0.115c-0.006,0.036-0.008,0.068-0.008,0.096c0,0.089,0.029,0.152,0.085,0.19
						c0.057,0.038,0.161,0.056,0.315,0.056h0.231L31.661,5.051z"/>
					<path class="st0" d="M32.608,1.398h1.327L33.81,2.143h0.015c0.294-0.566,0.72-0.85,1.277-0.85c0.033,0,0.065,0.003,0.096,0.007
						c0.03,0.004,0.062,0.01,0.095,0.015L35.03,2.775c-0.046-0.01-0.094-0.019-0.142-0.028c-0.05-0.009-0.101-0.014-0.153-0.014
						c-0.298,0-0.535,0.08-0.711,0.239c-0.177,0.159-0.3,0.438-0.37,0.835l-0.217,1.272h-1.461L32.608,1.398z"/>
					<path class="st0" d="M36.571,4.25c0.125,0,0.238-0.022,0.334-0.069c0.096-0.047,0.176-0.111,0.241-0.195
						c0.066-0.081,0.116-0.177,0.154-0.288c0.038-0.11,0.063-0.228,0.078-0.354c-0.132,0.056-0.264,0.097-0.396,0.123
						c-0.134,0.025-0.257,0.054-0.373,0.084c-0.113,0.031-0.214,0.074-0.295,0.13c-0.082,0.056-0.132,0.142-0.15,0.26v0.042
						c0,0.081,0.033,0.145,0.103,0.193C36.333,4.226,36.436,4.25,36.571,4.25 M37.247,5.086l-0.008-0.506
						C37,4.776,36.764,4.909,36.532,4.976c-0.231,0.068-0.486,0.103-0.763,0.103c-0.153,0-0.301-0.018-0.442-0.052
						c-0.14-0.035-0.262-0.091-0.364-0.166c-0.104-0.074-0.186-0.166-0.245-0.277c-0.062-0.109-0.092-0.242-0.092-0.397
						c0-0.065,0.006-0.138,0.021-0.217c0.045-0.276,0.148-0.493,0.305-0.65c0.156-0.157,0.34-0.274,0.548-0.353
						c0.208-0.081,0.429-0.135,0.661-0.167c0.229-0.03,0.446-0.058,0.646-0.084c0.2-0.025,0.367-0.06,0.504-0.105
						c0.138-0.044,0.218-0.125,0.237-0.242c0-0.009,0-0.018,0.004-0.024c0.002-0.007,0.003-0.015,0.003-0.024
						c0-0.057-0.018-0.102-0.05-0.134c-0.033-0.032-0.072-0.057-0.116-0.074c-0.044-0.016-0.092-0.027-0.144-0.035
						c-0.052-0.007-0.094-0.01-0.126-0.01c-0.052,0-0.107,0.003-0.165,0.01c-0.059,0.008-0.114,0.024-0.166,0.05
						s-0.1,0.062-0.143,0.109c-0.046,0.047-0.076,0.11-0.096,0.189h-1.405c0.033-0.198,0.1-0.372,0.197-0.524
						c0.099-0.152,0.239-0.281,0.418-0.386c0.181-0.105,0.401-0.187,0.664-0.242c0.262-0.057,0.576-0.085,0.94-0.085
						c0.333,0,0.606,0.023,0.819,0.068c0.212,0.044,0.38,0.109,0.502,0.193c0.121,0.084,0.204,0.185,0.253,0.302
						c0.046,0.116,0.069,0.248,0.069,0.393c0,0.088-0.005,0.18-0.017,0.274s-0.028,0.191-0.046,0.295l-0.296,1.721
						c-0.013,0.08-0.021,0.146-0.021,0.196c0,0.052,0.009,0.097,0.028,0.137c0.019,0.04,0.055,0.086,0.105,0.138l-0.005,0.183
						H37.247z"/>
				</g>
				<polygon class="st0" points="39.008,5.079 39.886,0.022 41.347,0.022 40.471,5.079 				"/>
				<polygon class="st0" points="5.085,5.079 5.906,2.092 6.966,2.092 6.538,5.079 				"/>
				<g>
					<path class="st0" d="M7.498,0.758c0,0,0,0-0.004-0.004c-0.002-0.006-0.009-0.019-0.02-0.032
						C7.453,0.694,7.42,0.653,7.368,0.608C7.267,0.519,7.1,0.415,6.831,0.365C6.698,0.342,6.586,0.34,6.486,0.351
						C6.251,0.375,6.108,0.47,6.057,0.51c-0.017,0.012-0.02,0.015-0.02,0.015l0,0c-0.067,0.068-0.177,0.067-0.244,0
						c-0.066-0.067-0.066-0.177,0-0.243c0.018-0.017,0.237-0.23,0.658-0.274c0.13-0.014,0.276-0.011,0.44,0.019
						c0.669,0.119,0.903,0.548,0.915,0.576v0c0.042,0.086,0.009,0.189-0.077,0.233C7.711,0.844,7.69,0.85,7.669,0.852
						C7.601,0.859,7.531,0.824,7.498,0.758"/>
					<path class="st0" d="M7.069,1.152c-0.001,0,0-0.001-0.011-0.017C7.046,1.122,7.029,1.099,7.002,1.075
						C6.946,1.026,6.854,0.968,6.701,0.94C6.626,0.926,6.562,0.926,6.51,0.931C6.377,0.945,6.3,0.998,6.274,1.018
						C6.267,1.023,6.268,1.024,6.268,1.024c-0.057,0.056-0.148,0.057-0.205,0c-0.056-0.056-0.056-0.147,0-0.204
						c0.014-0.014,0.154-0.147,0.416-0.176C6.56,0.637,6.651,0.64,6.753,0.657C7.166,0.73,7.317,0.999,7.326,1.022
						C7.361,1.093,7.333,1.18,7.262,1.214C7.247,1.223,7.229,1.228,7.211,1.23C7.155,1.236,7.096,1.206,7.069,1.152"/>
					<path class="st0" d="M6.946,1.504c-0.002,0.178-0.169,0.32-0.375,0.319C6.364,1.822,6.198,1.677,6.199,1.5
						c0-0.177,0.167-0.319,0.376-0.319C6.78,1.183,6.946,1.328,6.946,1.504"/>
					<g>
						<path class="st0" d="M41.785,0.843v-0.57h0.252c0.052,0,0.091,0.005,0.117,0.016s0.046,0.028,0.063,0.054
							c0.016,0.026,0.023,0.055,0.023,0.087c0,0.041-0.013,0.074-0.04,0.102c-0.026,0.028-0.065,0.045-0.12,0.053
							c0.02,0.01,0.034,0.02,0.046,0.029c0.021,0.021,0.042,0.045,0.062,0.076l0.101,0.155h-0.096l-0.076-0.118
							c-0.022-0.035-0.04-0.061-0.054-0.079c-0.015-0.018-0.028-0.031-0.04-0.038c-0.01-0.007-0.021-0.012-0.033-0.015
							c-0.009-0.002-0.021-0.003-0.042-0.003h-0.089v0.253H41.785z M41.859,0.525h0.164c0.034,0,0.061-0.003,0.08-0.011
							c0.021-0.007,0.035-0.019,0.044-0.034c0.011-0.016,0.016-0.033,0.016-0.051c0-0.027-0.01-0.05-0.028-0.067
							c-0.021-0.017-0.052-0.026-0.095-0.026h-0.181V0.525z"/>
					</g>
					<path class="st0" d="M41.542,0.588c0,0.257,0.209,0.466,0.468,0.467c0.257-0.001,0.467-0.21,0.467-0.467
						c0-0.259-0.21-0.467-0.467-0.468C41.751,0.121,41.542,0.329,41.542,0.588 M41.452,0.588c0-0.308,0.249-0.557,0.558-0.557
						c0.307,0,0.557,0.249,0.557,0.557c0,0.308-0.25,0.557-0.557,0.557C41.701,1.145,41.452,0.896,41.452,0.588"/>
				</g>
			</g>
		</g>
	</g>
</g>
</svg>
