<?xml version="1.0" encoding="utf-8"?>
<!-- Generator: Adobe Illustrator 15.0.2, SVG Export Plug-In . SVG Version: 6.00 Build 0)  -->
<!DOCTYPE svg PUBLIC "-//W3C//DTD SVG 1.1//EN" "http://www.w3.org/Graphics/SVG/1.1/DTD/svg11.dtd" [
	<!ENTITY ns_extend "http://ns.adobe.com/Extensibility/1.0/">
	<!ENTITY ns_ai "http://ns.adobe.com/AdobeIllustrator/10.0/">
	<!ENTITY ns_graphs "http://ns.adobe.com/Graphs/1.0/">
	<!ENTITY ns_vars "http://ns.adobe.com/Variables/1.0/">
	<!ENTITY ns_imrep "http://ns.adobe.com/ImageReplacement/1.0/">
	<!ENTITY ns_sfw "http://ns.adobe.com/SaveForWeb/1.0/">
	<!ENTITY ns_custom "http://ns.adobe.com/GenericCustomNamespace/1.0/">
	<!ENTITY ns_adobe_xpath "http://ns.adobe.com/XPath/1.0/">
]>
<svg version="1.1" id="Layer_1" xmlns:x="&ns_extend;" xmlns:i="&ns_ai;" xmlns:graph="&ns_graphs;"
	 xmlns="http://www.w3.org/2000/svg" xmlns:xlink="http://www.w3.org/1999/xlink" x="0px" y="0px" width="42.543px"
	 height="6.236px" viewBox="0 1.821 42.543 6.236" enable-background="new 0 1.821 42.543 6.236" xml:space="preserve">
<metadata>
	<sfw  xmlns="&ns_sfw;">
		<slices></slices>
		<sliceSourceBounds  height="6.237" width="42.543" y="294.122" x="399.217" bottomLeftOrigin="true"></sliceSourceBounds>
	</sfw>
</metadata>
<g>
	<g>
		<path fill="#0073AD" d="M2.155,4.026h0.653c0.257,0,0.458-0.036,0.603-0.105c0.146-0.07,0.232-0.194,0.26-0.372
			C3.676,3.525,3.678,3.49,3.678,3.443c0-0.145-0.054-0.251-0.162-0.319C3.409,3.056,3.268,3.022,3.095,3.022H2.323L2.155,4.026z
			 M1.958,5.135L1.656,6.896H0l0.878-5.053h2.386c0.37,0,0.682,0.022,0.937,0.066c0.255,0.045,0.463,0.113,0.625,0.204
			c0.162,0.091,0.278,0.205,0.351,0.34C5.249,2.589,5.286,2.75,5.286,2.937c0,0.098-0.012,0.213-0.036,0.344
			C5.199,3.572,5.086,3.83,4.91,4.058c-0.175,0.227-0.417,0.38-0.727,0.458c0.103,0.039,0.196,0.077,0.277,0.117
			c0.082,0.039,0.152,0.089,0.211,0.15C4.73,4.844,4.776,4.919,4.808,5.008c0.034,0.09,0.05,0.203,0.05,0.344
			c0,0.146-0.016,0.313-0.05,0.505C4.776,6.035,4.75,6.183,4.731,6.3C4.712,6.417,4.703,6.508,4.703,6.574
			c0,0.111,0.042,0.168,0.126,0.168L4.808,6.896H3.131c-0.01-0.046-0.014-0.1-0.014-0.16c0-0.08,0.006-0.182,0.017-0.306
			c0.012-0.124,0.032-0.264,0.06-0.417C3.222,5.857,3.236,5.727,3.236,5.62c0-0.18-0.055-0.305-0.166-0.378
			C2.961,5.17,2.759,5.135,2.464,5.135H1.958z"/>
		<path fill="#0073AD" d="M7.611,3.218h1.334L8.846,3.794C9.052,3.57,9.26,3.4,9.471,3.285c0.211-0.115,0.457-0.172,0.737-0.172
			c0.411,0,0.713,0.096,0.905,0.288c0.192,0.191,0.288,0.47,0.288,0.835c0,0.145-0.014,0.296-0.042,0.456l-0.379,2.203H9.52
			l0.337-1.943c0.013-0.085,0.021-0.167,0.021-0.246c0-0.127-0.029-0.232-0.088-0.315C9.732,4.306,9.623,4.264,9.464,4.264
			c-0.224,0-0.389,0.067-0.491,0.201C8.87,4.597,8.8,4.784,8.762,5.022L8.439,6.896h-1.46L7.611,3.218z"/>
		<path fill="#0073AD" d="M13.638,4.062c-0.107,0-0.202,0.021-0.281,0.064c-0.079,0.042-0.147,0.102-0.203,0.176
			c-0.056,0.075-0.102,0.164-0.137,0.268c-0.035,0.103-0.063,0.214-0.081,0.331c-0.004,0.034-0.008,0.064-0.01,0.091
			c-0.002,0.029-0.003,0.058-0.003,0.085c0,0.145,0.036,0.272,0.108,0.377c0.073,0.106,0.19,0.161,0.354,0.166h0.035
			c0.104,0,0.195-0.022,0.277-0.064c0.082-0.041,0.152-0.098,0.21-0.169c0.059-0.07,0.106-0.152,0.144-0.243
			c0.038-0.092,0.066-0.187,0.085-0.286c0.013-0.075,0.021-0.152,0.021-0.233c0-0.155-0.038-0.287-0.113-0.398
			c-0.075-0.109-0.206-0.166-0.393-0.166H13.638z M12.767,6.996v0.021c0,0.052,0.021,0.099,0.064,0.141
			c0.051,0.062,0.152,0.092,0.302,0.092c0.21,0,0.369-0.055,0.478-0.161c0.107-0.107,0.184-0.292,0.231-0.556l0.056-0.301
			c-0.122,0.106-0.272,0.201-0.453,0.28s-0.404,0.12-0.671,0.12c-0.22,0-0.413-0.036-0.58-0.105
			C12.03,6.457,11.89,6.361,11.778,6.24c-0.112-0.122-0.196-0.268-0.252-0.437c-0.056-0.169-0.084-0.348-0.084-0.54
			c0-0.061,0.004-0.122,0.011-0.183c0.006-0.061,0.014-0.124,0.024-0.189c0.038-0.225,0.104-0.449,0.2-0.673
			c0.095-0.225,0.225-0.425,0.386-0.601c0.161-0.176,0.355-0.317,0.583-0.428c0.227-0.109,0.492-0.165,0.796-0.165
			c0.225,0,0.425,0.053,0.6,0.16c0.176,0.106,0.315,0.249,0.418,0.426l0.077-0.481h1.285l-0.512,2.962
			c-0.047,0.275-0.107,0.533-0.179,0.771c-0.073,0.239-0.189,0.447-0.348,0.625c-0.159,0.179-0.377,0.317-0.653,0.418
			c-0.276,0.101-0.642,0.151-1.095,0.151c-0.318,0-0.587-0.028-0.808-0.084c-0.22-0.057-0.398-0.132-0.534-0.225
			c-0.136-0.094-0.235-0.202-0.298-0.324c-0.063-0.121-0.095-0.247-0.095-0.379V6.996H12.767z"/>
		<path fill="#F7971D" d="M19.244,3.817c0-0.017,0.001-0.033,0.004-0.047c0.002-0.012,0.003-0.027,0.003-0.045
			c0-0.222-0.063-0.393-0.189-0.511c-0.126-0.12-0.305-0.179-0.534-0.179c-0.279,0-0.516,0.116-0.71,0.348
			c-0.194,0.233-0.332,0.582-0.412,1.046c-0.018,0.089-0.031,0.174-0.039,0.255c-0.01,0.083-0.014,0.161-0.014,0.237
			c0,0.115,0.012,0.222,0.036,0.318c0.024,0.097,0.066,0.183,0.126,0.255c0.059,0.073,0.138,0.131,0.235,0.173
			s0.222,0.062,0.372,0.062c0.252,0,0.455-0.077,0.608-0.231c0.152-0.154,0.264-0.347,0.335-0.577h1.507
			c-0.089,0.31-0.216,0.586-0.382,0.829c-0.166,0.244-0.363,0.451-0.591,0.621c-0.228,0.17-0.482,0.302-0.763,0.392
			c-0.282,0.09-0.579,0.135-0.894,0.135c-0.344,0-0.65-0.043-0.916-0.132c-0.265-0.088-0.49-0.217-0.674-0.386
			c-0.183-0.167-0.323-0.372-0.417-0.612c-0.096-0.242-0.143-0.515-0.143-0.821c0-0.087,0.004-0.18,0.013-0.276
			c0.009-0.094,0.022-0.193,0.04-0.295c0.067-0.384,0.188-0.731,0.365-1.042c0.177-0.31,0.392-0.573,0.645-0.789
			c0.251-0.217,0.534-0.384,0.846-0.502c0.312-0.117,0.633-0.175,0.966-0.175c0.695,0,1.214,0.152,1.556,0.458
			c0.343,0.305,0.514,0.737,0.514,1.294v0.1c0,0.032-0.003,0.064-0.007,0.1H19.244z"/>
		<path fill="#F7971D" d="M23.712,4.538c0.005-0.023,0.007-0.058,0.007-0.106c0-0.149-0.052-0.275-0.154-0.378
			c-0.104-0.103-0.231-0.155-0.387-0.155c-0.219,0-0.396,0.058-0.533,0.173c-0.136,0.114-0.223,0.269-0.259,0.466H23.712z
			 M22.259,5.282c-0.005,0.023-0.008,0.046-0.011,0.069c-0.002,0.023-0.003,0.048-0.003,0.071c0,0.179,0.058,0.319,0.175,0.425
			s0.263,0.157,0.435,0.157c0.117,0,0.23-0.027,0.338-0.08c0.107-0.054,0.196-0.134,0.267-0.242h1.397
			c-0.104,0.229-0.237,0.42-0.404,0.576c-0.167,0.153-0.35,0.277-0.551,0.376c-0.202,0.095-0.413,0.162-0.635,0.202
			c-0.224,0.04-0.441,0.059-0.657,0.059c-0.262,0-0.503-0.032-0.723-0.098s-0.41-0.163-0.568-0.295
			c-0.16-0.13-0.283-0.291-0.372-0.48c-0.089-0.19-0.134-0.408-0.134-0.656c0-0.061,0.004-0.124,0.011-0.188
			c0.006-0.062,0.016-0.126,0.024-0.191c0.052-0.3,0.152-0.573,0.302-0.818c0.149-0.246,0.333-0.454,0.55-0.625
			s0.461-0.303,0.73-0.397c0.27-0.093,0.551-0.14,0.846-0.14s0.556,0.042,0.782,0.126c0.227,0.083,0.419,0.201,0.573,0.35
			c0.153,0.151,0.271,0.333,0.351,0.549c0.08,0.215,0.12,0.451,0.12,0.708c0,0.16-0.02,0.339-0.058,0.541H22.259z"/>
		<path fill="#F7971D" d="M25.575,3.218h1.334l-0.1,0.576c0.206-0.224,0.415-0.394,0.626-0.509c0.21-0.115,0.456-0.172,0.736-0.172
			c0.411,0,0.715,0.096,0.905,0.288c0.193,0.191,0.288,0.47,0.288,0.835c0,0.145-0.016,0.296-0.041,0.456l-0.379,2.203h-1.462
			l0.337-1.943c0.015-0.085,0.022-0.167,0.022-0.246c0-0.127-0.029-0.232-0.089-0.315c-0.058-0.085-0.166-0.127-0.324-0.127
			c-0.226,0-0.391,0.067-0.494,0.201c-0.102,0.133-0.172,0.319-0.209,0.558l-0.324,1.874h-1.459L25.575,3.218z"/>
		<path fill="#F7971D" d="M31.644,6.869c-0.164,0.009-0.316,0.017-0.453,0.021c-0.139,0.005-0.265,0.006-0.384,0.006
			c-0.219,0-0.404-0.01-0.554-0.03s-0.268-0.059-0.357-0.112c-0.091-0.054-0.152-0.126-0.191-0.215
			c-0.035-0.088-0.054-0.201-0.054-0.336c0-0.084,0.005-0.18,0.019-0.285c0.01-0.104,0.028-0.222,0.051-0.348l0.266-1.536h-0.518
			l0.139-0.843h0.541l0.203-1.144h1.44L31.588,3.19h0.701l-0.14,0.843h-0.703l-0.231,1.339c-0.008,0.043-0.016,0.08-0.021,0.115
			c-0.005,0.036-0.008,0.066-0.008,0.095c0,0.091,0.028,0.153,0.085,0.19c0.057,0.039,0.162,0.057,0.316,0.057h0.232L31.644,6.869z"
			/>
		<path fill="#F7971D" d="M32.59,3.218h1.327l-0.126,0.744h0.015c0.294-0.566,0.719-0.849,1.278-0.849
			c0.03,0,0.064,0.002,0.095,0.007c0.028,0.004,0.062,0.009,0.093,0.013l-0.26,1.461c-0.047-0.011-0.093-0.02-0.142-0.028
			c-0.052-0.009-0.101-0.015-0.152-0.015c-0.299,0-0.536,0.08-0.714,0.238c-0.175,0.16-0.299,0.439-0.368,0.836l-0.216,1.27h-1.461
			L32.59,3.218z"/>
		<path fill="#F7971D" d="M36.552,6.068c0.126,0,0.237-0.022,0.332-0.069c0.098-0.046,0.178-0.11,0.242-0.194
			c0.067-0.081,0.116-0.177,0.154-0.287c0.039-0.109,0.064-0.228,0.077-0.354c-0.131,0.055-0.262,0.096-0.396,0.124
			c-0.131,0.025-0.257,0.053-0.37,0.084c-0.116,0.03-0.214,0.073-0.297,0.13c-0.082,0.056-0.131,0.142-0.149,0.26v0.041
			c0,0.08,0.033,0.145,0.101,0.193S36.415,6.068,36.552,6.068 M37.226,6.906l-0.008-0.507c-0.239,0.196-0.474,0.329-0.706,0.396
			c-0.231,0.068-0.486,0.102-0.762,0.102c-0.155,0-0.302-0.017-0.443-0.051c-0.139-0.035-0.26-0.091-0.363-0.166
			c-0.103-0.075-0.186-0.167-0.247-0.277c-0.06-0.109-0.09-0.242-0.09-0.396c0-0.065,0.005-0.138,0.021-0.218
			c0.046-0.275,0.149-0.492,0.307-0.649c0.154-0.157,0.337-0.274,0.546-0.354c0.208-0.08,0.428-0.135,0.659-0.165
			c0.231-0.031,0.448-0.06,0.646-0.085c0.198-0.026,0.368-0.061,0.505-0.106c0.139-0.043,0.217-0.125,0.237-0.242
			c0-0.009,0-0.017,0.002-0.024c0.003-0.006,0.003-0.014,0.003-0.024c0-0.057-0.016-0.1-0.049-0.132
			c-0.034-0.033-0.072-0.058-0.116-0.075c-0.044-0.016-0.09-0.027-0.145-0.035c-0.051-0.007-0.093-0.01-0.126-0.01
			c-0.052,0-0.105,0.003-0.165,0.01c-0.057,0.008-0.113,0.024-0.165,0.05c-0.051,0.026-0.098,0.062-0.144,0.109
			c-0.044,0.047-0.075,0.111-0.093,0.189h-1.404c0.031-0.197,0.099-0.371,0.196-0.523c0.098-0.152,0.237-0.282,0.417-0.387
			c0.181-0.105,0.402-0.186,0.665-0.242c0.26-0.057,0.574-0.084,0.939-0.084c0.333,0,0.605,0.022,0.816,0.067
			c0.214,0.044,0.382,0.108,0.503,0.193c0.121,0.083,0.206,0.185,0.252,0.302c0.047,0.117,0.072,0.248,0.072,0.394
			c0,0.088-0.008,0.18-0.018,0.272c-0.014,0.094-0.028,0.192-0.047,0.296l-0.296,1.72c-0.013,0.079-0.021,0.146-0.021,0.195
			c0,0.053,0.01,0.098,0.028,0.138c0.021,0.04,0.054,0.085,0.105,0.137l-0.005,0.185H37.226z"/>
	</g>
	<polygon fill="#F7971D" points="38.988,6.896 39.864,1.843 41.324,1.843 40.449,6.896 	"/>
	<polygon fill="#0073AD" points="5.082,6.896 5.904,3.911 6.962,3.911 6.535,6.896 	"/>
	<g>
		<path fill="#F7971D" d="M7.494,2.578c0,0,0,0-0.003-0.005C7.487,2.568,7.48,2.556,7.47,2.542C7.449,2.513,7.415,2.474,7.365,2.428
			C7.262,2.34,7.096,2.236,6.827,2.186C6.695,2.162,6.581,2.161,6.483,2.171c-0.236,0.024-0.379,0.12-0.431,0.16
			C6.036,2.343,6.034,2.345,6.034,2.345l0,0c-0.067,0.068-0.176,0.067-0.244,0c-0.067-0.067-0.067-0.177,0-0.244
			c0.018-0.017,0.237-0.229,0.658-0.273c0.129-0.014,0.277-0.011,0.441,0.018C7.556,1.965,7.79,2.395,7.802,2.423l0,0
			C7.844,2.508,7.81,2.612,7.725,2.655C7.706,2.664,7.686,2.67,7.666,2.673C7.597,2.679,7.527,2.644,7.494,2.578"/>
		<path fill="#F7971D" d="M7.065,2.971c-0.001,0,0,0-0.01-0.016C7.043,2.941,7.026,2.919,6.997,2.895
			C6.943,2.846,6.85,2.788,6.698,2.76C6.622,2.747,6.559,2.745,6.505,2.751C6.374,2.765,6.297,2.818,6.27,2.838
			C6.262,2.844,6.262,2.844,6.262,2.844c-0.056,0.056-0.147,0.057-0.203,0c-0.056-0.056-0.056-0.147,0-0.204
			c0.014-0.014,0.153-0.147,0.416-0.175C6.555,2.457,6.647,2.46,6.748,2.477C7.162,2.551,7.312,2.82,7.322,2.842
			c0.035,0.071,0.007,0.157-0.064,0.192c-0.016,0.008-0.034,0.014-0.05,0.015C7.151,3.056,7.092,3.026,7.065,2.971"/>
		<path fill="#F7971D" d="M6.943,3.324C6.941,3.501,6.774,3.643,6.568,3.642c-0.207,0-0.374-0.146-0.373-0.321
			c0-0.178,0.168-0.32,0.375-0.319C6.777,3.003,6.943,3.148,6.943,3.324"/>
		<g>
			<path fill="#0073AD" d="M41.762,2.664v-0.57h0.255c0.049,0,0.087,0.005,0.115,0.015c0.026,0.01,0.047,0.028,0.062,0.054
				s0.023,0.055,0.023,0.086c0,0.04-0.014,0.074-0.039,0.102c-0.025,0.028-0.067,0.046-0.121,0.053
				c0.021,0.01,0.036,0.019,0.046,0.028c0.021,0.02,0.042,0.045,0.062,0.076l0.101,0.155h-0.096l-0.077-0.119
				c-0.021-0.034-0.039-0.061-0.054-0.079c-0.014-0.018-0.026-0.031-0.039-0.038c-0.011-0.007-0.021-0.012-0.033-0.015
				c-0.008-0.001-0.023-0.003-0.042-0.003H41.84v0.253H41.762z M41.84,2.345h0.162c0.033,0,0.062-0.004,0.08-0.011
				c0.021-0.007,0.033-0.019,0.044-0.034c0.01-0.016,0.015-0.033,0.015-0.051c0-0.027-0.01-0.05-0.028-0.067
				c-0.021-0.018-0.051-0.026-0.093-0.026h-0.18V2.345z"/>
		</g>
		<path fill="#0073AD" d="M41.52,2.408c0,0.258,0.208,0.466,0.466,0.467c0.258,0,0.467-0.209,0.467-0.467
			c0-0.258-0.209-0.467-0.467-0.467C41.728,1.941,41.52,2.15,41.52,2.408 M41.429,2.408c0-0.308,0.25-0.557,0.557-0.557
			s0.557,0.25,0.557,0.557c0,0.307-0.25,0.556-0.557,0.556S41.429,2.715,41.429,2.408"/>
	</g>
</g>
</svg>
