<?xml version="1.0" encoding="utf-8"?>
<!-- Generator: Adobe Illustrator 15.0.2, SVG Export Plug-In . SVG Version: 6.00 Build 0)  -->
<!DOCTYPE svg PUBLIC "-//W3C//DTD SVG 1.1//EN" "http://www.w3.org/Graphics/SVG/1.1/DTD/svg11.dtd">
<svg version="1.1" id="Layer_1" xmlns="http://www.w3.org/2000/svg" xmlns:xlink="http://www.w3.org/1999/xlink" x="0px" y="0px"
	 width="110.345px" height="5.743px" viewBox="0 0 110.345 5.743" enable-background="new 0 0 110.345 5.743" xml:space="preserve">
<g>
	<polygon fill="#FFD207" points="5.553,5.743 0,5.743 0.055,0 8.112,0 	"/>
	<polygon fill="#010202" points="13.605,5.743 5.553,5.743 8.112,0 16.175,0 	"/>
	<polygon fill="#FFD207" points="21.668,5.743 13.605,5.743 16.175,0 24.227,0 	"/>
	<polygon fill="#010202" points="29.721,5.743 21.668,5.743 24.227,0 32.285,0 	"/>
	<polygon fill="#FFD207" points="37.784,5.743 29.721,5.743 32.285,0 40.342,0 	"/>
	<polygon fill="#010202" points="45.841,5.743 37.784,5.743 40.342,0 48.399,0 	"/>
	<polygon fill="#FFD207" points="53.899,5.743 45.841,5.743 48.399,0 56.458,0 	"/>
	<polygon fill="#010202" points="61.951,5.743 53.899,5.743 56.458,0 64.515,0 	"/>
	<polygon fill="#FFD207" points="70.009,5.743 61.951,5.743 64.515,0 72.578,0 	"/>
	<polygon fill="#010202" points="78.071,5.743 70.009,5.743 72.578,0 80.63,0 	"/>
	<polygon fill="#FFD207" points="86.129,5.743 78.071,5.743 80.63,0 88.688,0 	"/>
	<polygon fill="#010202" points="94.187,5.743 86.129,5.743 88.688,0 96.746,0 	"/>
	<polygon fill="#FFD207" points="102.239,5.743 94.187,5.743 96.746,0 104.804,0 	"/>
	<polygon fill="#010202" points="110.302,5.743 102.239,5.743 104.804,0 110.345,0 	"/>
</g>
</svg>
