<?xml version="1.0" encoding="utf-8"?>
<!-- Generator: Adobe Illustrator 15.0.0, SVG Export Plug-In . SVG Version: 6.00 Build 0)  -->
<!DOCTYPE svg PUBLIC "-//W3C//DTD SVG 1.1//EN" "http://www.w3.org/Graphics/SVG/1.1/DTD/svg11.dtd">
<svg version="1.1" id="Layer_1" xmlns="http://www.w3.org/2000/svg" xmlns:xlink="http://www.w3.org/1999/xlink" x="0px" y="0px"
	 width="90.665px" height="58.73px" viewBox="0 0 90.665 58.73" enable-background="new 0 0 90.665 58.73" xml:space="preserve">
<g>
	<g>
		<g>
			<path fill="#F29107" d="M90.665,17.697c0,1.65-1.35,3-3,3H6.975c-1.65,0-3-1.35-3-3v-12.5c0-1.65,1.35-3,3-3h80.689
				c1.65,0,3,1.35,3,3V17.697z"/>
		</g>
		<polygon fill="#F29107" points="36.731,19.618 44.688,19.618 47.067,29.035 		"/>
	</g>
	
		<radialGradient id="SVGID_1_" cx="-1159.0161" cy="-427.5854" r="39.9392" gradientTransform="matrix(0.4097 0 0 0.0996 529.0527 93.4797)" gradientUnits="userSpaceOnUse">
		<stop  offset="0" style="stop-color:#5F564A"/>
		<stop  offset="0.0287" style="stop-color:#75695A"/>
		<stop  offset="0.0884" style="stop-color:#A1917C"/>
		<stop  offset="0.1473" style="stop-color:#C7B59B"/>
		<stop  offset="0.2042" style="stop-color:#E5D1B3"/>
		<stop  offset="0.2583" style="stop-color:#F8E3C2"/>
		<stop  offset="0.3067" style="stop-color:#FFE9C7"/>
		<stop  offset="0.3343" style="stop-color:#FFEBCC"/>
		<stop  offset="0.4949" style="stop-color:#FFF4E3"/>
		<stop  offset="0.6584" style="stop-color:#FFFAF3"/>
		<stop  offset="0.8252" style="stop-color:#FFFEFC"/>
		<stop  offset="1" style="stop-color:#FFFFFF"/>
	</radialGradient>
	<ellipse fill="url(#SVGID_1_)" cx="54.204" cy="50.909" rx="16.629" ry="4.396"/>
	<g>
		
			<polygon fill="#FFFFFF" stroke="#1E1E1C" stroke-width="0.4721" stroke-linecap="round" stroke-linejoin="round" stroke-miterlimit="10" points="
			53.731,39.841 49.292,37.491 49.524,31.206 54.592,32.919 		"/>
		<polygon fill="#1E1E1C" points="51.258,34.597 50.323,34.159 50.596,33.862 51.274,34.206 		"/>
		<polygon fill="#1E1E1C" points="53.104,35.3 52.258,34.909 52.174,34.456 52.977,34.8 		"/>
		<polygon fill="#1E1E1C" points="52.008,37.175 50.883,36.628 50.635,35.815 52.385,36.628 		"/>
		
			<polygon fill="#FFFFFF" stroke="#1E1E1C" stroke-width="0.4721" stroke-linecap="round" stroke-linejoin="round" stroke-miterlimit="10" points="
			54.592,32.919 49.524,31.206 54.161,31.409 58.19,32.919 		"/>
		
			<polygon fill="#FFFFFF" stroke="#1E1E1C" stroke-width="0.4721" stroke-linecap="round" stroke-linejoin="round" stroke-miterlimit="10" points="
			57.288,38.948 53.731,39.841 54.557,32.919 58.19,32.919 		"/>
		
			<path fill="none" stroke="#1E1E1C" stroke-width="0.4721" stroke-linecap="round" stroke-linejoin="round" stroke-miterlimit="10" d="
			M46.298,42.569c0,0,2.171,3.061,4.128,0.039"/>
		
			<path fill="none" stroke="#1E1E1C" stroke-width="0.4721" stroke-linecap="round" stroke-linejoin="round" stroke-miterlimit="10" d="
			M58.022,42.032c0,0,1.836,0.461-1.918,3.102"/>
		
			<ellipse transform="matrix(0.9244 0.3814 -0.3814 0.9244 18.2661 -18.5594)" fill="#1E1E1C" cx="55.958" cy="36.806" rx="1.178" ry="1.613"/>
		
			<path fill="none" stroke="#1E1E1C" stroke-width="0.2361" stroke-linecap="round" stroke-linejoin="round" stroke-miterlimit="10" d="
			M51.51,31.185c0.551-1.217,1.455-2.009,2.479-2.009c1.676,0,3.033,2.128,3.033,4.751c0,1.234-0.299,2.359-0.791,3.205"/>
		
			<path fill="none" stroke="#1E1E1C" stroke-width="0.4721" stroke-linecap="round" stroke-linejoin="round" stroke-miterlimit="10" d="
			M56.231,37.132"/>
		
			<path fill="none" stroke="#1E1E1C" stroke-width="0.9443" stroke-linecap="round" stroke-linejoin="round" stroke-miterlimit="10" d="
			M52.7,29.625c1.076-0.62,2.365-0.449,3.258,0.688"/>
		<path fill="#1E1E1C" d="M49.989,39.53c-0.24,0.287-0.746,0.262-1.135-0.061c-0.383-0.32-0.502-0.814-0.264-1.104
			c0.24-0.289,0.748-0.262,1.133,0.061C50.112,38.747,50.231,39.239,49.989,39.53z"/>
		
			<ellipse transform="matrix(0.9235 0.3837 -0.3837 0.9235 18.4863 -18.7398)" fill="#FFFFFF" cx="56.216" cy="36.968" rx="0.519" ry="0.797"/>
		
			<path fill="none" stroke="#1E1E1C" stroke-width="0.2361" stroke-linecap="round" stroke-linejoin="round" stroke-miterlimit="10" d="
			M56.315,37.011c-1.111,1.594-3.793,4.219-7.025,1.938"/>
		
			<polygon fill="none" stroke="#1E1E1C" stroke-width="0.4721" stroke-linecap="round" stroke-linejoin="round" stroke-miterlimit="10" points="
			46.642,44.044 44.47,43.239 43.069,37.833 45.382,38.655 		"/>
		<text transform="matrix(1 0 0 1 52.2017 43.7471)" fill="#1E1E1C" font-family="'ArialRoundedMTBold'" font-size="1.7676">AR-1</text>
		<g>
			<path fill="none" stroke="#1E1E1C" stroke-width="0.5204" stroke-miterlimit="10" d="M56.7,46.009
				c-0.074,0.562-0.6,1.023-1.168,1.023h-2.496c-0.568,0-1.111-0.458-1.207-1.018L51.1,41.761c-0.096-0.56,0.291-1.018,0.859-1.018
				h4.402c0.568,0,0.973,0.461,0.898,1.023L56.7,46.009z"/>
		</g>
		<g>
			<path fill="#FFFFFF" d="M56.342,49.984c-0.178-0.455-0.787-0.827-1.355-0.827h-1.463c-0.568,0-1.221,0.372-1.449,0.827
				s0.049,0.827,0.617,0.827h2.939C56.2,50.812,56.52,50.439,56.342,49.984z"/>
			<path fill="none" stroke="#1E1E1C" stroke-width="0.5204" stroke-miterlimit="10" d="M56.342,49.984
				c-0.178-0.455-0.787-0.827-1.355-0.827h-1.463c-0.568,0-1.221,0.372-1.449,0.827s0.049,0.827,0.617,0.827h2.939
				C56.2,50.812,56.52,50.439,56.342,49.984z"/>
		</g>
		
			<rect x="53.731" y="47.032" fill="#FFFFFF" stroke="#1E1E1C" stroke-width="0.5204" stroke-miterlimit="10" width="0.861" height="2.125"/>
		
			<path fill="none" stroke="#1E1E1C" stroke-width="0.4721" stroke-linecap="round" stroke-linejoin="round" stroke-miterlimit="10" d="
			M55.104,44.86c0.439-0.16,0.889-0.039,1,0.273c0.115,0.311-0.148,0.693-0.586,0.854"/>
	</g>
	<g>
		
			<radialGradient id="SVGID_2_" cx="-1241.0347" cy="-425.7432" r="39.9382" gradientTransform="matrix(0.4097 0 0 0.0996 529.0527 94.5249)" gradientUnits="userSpaceOnUse">
			<stop  offset="0" style="stop-color:#7EABCE"/>
			<stop  offset="0.1505" style="stop-color:#AECDE6"/>
			<stop  offset="0.3067" style="stop-color:#DAEFFD"/>
			<stop  offset="0.3892" style="stop-color:#E3F3FE"/>
			<stop  offset="0.5865" style="stop-color:#F3FAFF"/>
			<stop  offset="0.7883" style="stop-color:#FCFEFF"/>
			<stop  offset="1" style="stop-color:#FFFFFF"/>
		</radialGradient>
		<ellipse fill="url(#SVGID_2_)" cx="20.601" cy="52.136" rx="16.629" ry="4.398"/>
		<g>
			<g>
				
					<circle fill="#FFFFFF" stroke="#1E1E1C" stroke-width="0.4721" stroke-linecap="round" stroke-linejoin="round" stroke-miterlimit="10" cx="19.507" cy="30.652" r="4.349"/>
				<path fill="#1E1E1C" d="M21.97,27.07c-0.701-0.482-1.549-0.769-2.463-0.769c-2.402,0-4.349,1.948-4.349,4.351
					c0,0.187,0.016,0.373,0.039,0.554c1.289-0.275,2.783-0.928,4.24-1.925C20.438,28.597,21.296,27.835,21.97,27.07z"/>
				
					<rect x="15.33" y="27.035" transform="matrix(0.8041 0.5945 -0.5945 0.8041 19.5215 -3.9603)" fill="none" stroke="#1E1E1C" stroke-width="0.4028" stroke-linecap="round" stroke-linejoin="round" stroke-miterlimit="10" width="0.88" height="1.213"/>
				<path fill="#1E1E1C" d="M13.759,33.319c0.053-3.445-2.018-4.5-1.688-6.674c0.324-2.147,3.699-1.952,3.705,0.247
					c-0.412,0.557-0.722,0.975-0.722,0.975s-1.206-0.456-1.048,0.769C14.197,30.115,14.25,31.206,13.759,33.319z"/>
				<ellipse fill="#1E1E1C" cx="22.562" cy="30.052" rx="0.296" ry="0.491"/>
				<path fill="#1E1E1C" d="M21.28,31.206c0,0.279-0.156,0.504-0.35,0.504c-0.191,0-0.35-0.225-0.35-0.504
					c0-0.281,0.158-0.506,0.35-0.506C21.124,30.7,21.28,30.925,21.28,31.206z"/>
				<path fill="#1E1E1C" d="M23.028,32.021c0,0-0.467,1.609-1.398,1.039"/>
				
					<rect x="16.984" y="30.984" transform="matrix(0.9235 -0.3836 0.3836 0.9235 -11.2202 9.5063)" fill="#FFFFFF" stroke="#1E1E1C" stroke-width="0.4721" stroke-linecap="round" stroke-linejoin="round" stroke-miterlimit="10" width="2.485" height="3.807"/>
				<g>
					<polyline fill="none" stroke="#1E1E1C" stroke-width="0.4721" stroke-linecap="round" stroke-linejoin="round" points="
						17.847,32.888 15.777,39.815 18.565,36.722 					"/>
				</g>
				
					<polyline fill="none" stroke="#1E1E1C" stroke-width="0.4721" stroke-linecap="round" stroke-linejoin="round" stroke-miterlimit="10" points="
					28.864,35.353 25.696,38.95 22.858,36.353 				"/>
				
					<path fill="none" stroke="#1E1E1C" stroke-width="0.4721" stroke-linecap="round" stroke-linejoin="round" stroke-miterlimit="10" d="
					M19.47,46.755c0,0.154-0.73,5.234-0.73,5.234"/>
				
					<path fill="none" stroke="#1E1E1C" stroke-width="0.4721" stroke-linecap="round" stroke-linejoin="round" stroke-miterlimit="10" d="
					M22.335,46.755c0,0.154,0.227,5.234,0.227,5.234"/>
				<polygon fill="#1C99CE" points="23.917,45.845 17.946,45.845 19.507,35.985 21.935,35.985 				"/>
			</g>
		</g>
	</g>
	<g>
		<polygon fill="#FFFFFF" points="79.344,8.71 79.344,13.893 83.928,11.302 		"/>
		<g>
			<g>
				<path fill="#FFFFFF" d="M80.846,6.622c2.639,0,4.775,2.143,4.775,4.774c0,2.638-2.137,4.773-4.775,4.773
					c-2.631,0-4.768-2.136-4.768-4.773C76.079,8.764,78.215,6.622,80.846,6.622 M80.846,6.122c-2.904,0-5.268,2.366-5.268,5.274
					c0,2.908,2.363,5.273,5.268,5.273c2.909,0,5.275-2.366,5.275-5.273C86.122,8.488,83.755,6.122,80.846,6.122L80.846,6.122z"/>
			</g>
		</g>
	</g>
</g>
</svg>
