<?xml version="1.0" encoding="utf-8"?>
<!-- Generator: Adobe Illustrator 15.0.0, SVG Export Plug-In . SVG Version: 6.00 Build 0)  -->
<!DOCTYPE svg PUBLIC "-//W3C//DTD SVG 1.1//EN" "http://www.w3.org/Graphics/SVG/1.1/DTD/svg11.dtd">
<svg version="1.1" id="Layer_1" xmlns="http://www.w3.org/2000/svg" xmlns:xlink="http://www.w3.org/1999/xlink" x="0px" y="0px"
	 width="90.665px" height="58.73px" viewBox="0 0 90.665 58.73" enable-background="new 0 0 90.665 58.73" xml:space="preserve">
<g>
	
		<radialGradient id="SVGID_1_" cx="-1135.4702" cy="-437.0991" r="39.9382" gradientTransform="matrix(0.4097 0 0 0.0996 529.0527 88.0822)" gradientUnits="userSpaceOnUse">
		<stop  offset="0" style="stop-color:#9C9C9C"/>
		<stop  offset="0.019" style="stop-color:#A2A1A1"/>
		<stop  offset="0.2086" style="stop-color:#D4D4D4"/>
		<stop  offset="0.3423" style="stop-color:#E2E1E2"/>
		<stop  offset="0.5547" style="stop-color:#F2F2F2"/>
		<stop  offset="0.7721" style="stop-color:#FCFCFC"/>
		<stop  offset="1" style="stop-color:#FFFFFF"/>
	</radialGradient>
	<ellipse fill="url(#SVGID_1_)" cx="63.85" cy="44.563" rx="16.629" ry="4.397"/>
	
		<radialGradient id="SVGID_2_" cx="-1250.729" cy="-424.4429" r="39.9392" gradientTransform="matrix(0.4097 0 0 0.0996 529.0527 95.2626)" gradientUnits="userSpaceOnUse">
		<stop  offset="0" style="stop-color:#9C9C9C"/>
		<stop  offset="0.019" style="stop-color:#A2A1A1"/>
		<stop  offset="0.2086" style="stop-color:#D4D4D4"/>
		<stop  offset="0.3423" style="stop-color:#E2E1E2"/>
		<stop  offset="0.5547" style="stop-color:#F2F2F2"/>
		<stop  offset="0.7721" style="stop-color:#FCFCFC"/>
		<stop  offset="1" style="stop-color:#FFFFFF"/>
	</radialGradient>
	<ellipse fill="url(#SVGID_2_)" cx="16.629" cy="53.004" rx="16.629" ry="4.397"/>
	<g>
		<g>
			<path fill="#9E9D9C" d="M90.665,16.536c0,1.65-1.35,3-3,3H7.357c-1.65,0-3-1.35-3-3V3c0-1.65,1.35-3,3-3h80.307
				c1.65,0,3,1.35,3,3V16.536z"/>
		</g>
		<polygon fill="#9E9D9C" points="44.635,18.457 53.51,18.457 55.43,27.874 		"/>
	</g>
	<g>
		<g>
			<path fill="#9E9D9C" d="M75.667,55.73c0,1.65-1.351,3-3,3H30.766c-1.65,0-3-1.35-3-3v-5.157c0-1.65,1.35-3,3-3h41.901
				c1.649,0,3,1.35,3,3V55.73z"/>
		</g>
		<polygon fill="#9E9D9C" points="39.963,48.266 32.005,48.266 29.552,41.471 		"/>
	</g>
	<g>
		<g>
			
				<polygon fill="#FFFFFF" stroke="#1E1E1C" stroke-width="0.4721" stroke-linecap="round" stroke-linejoin="round" stroke-miterlimit="10" points="
				63.245,33.624 58.805,31.275 59.038,24.989 64.106,26.702 			"/>
			<polygon fill="#1E1E1C" points="60.772,28.38 60.209,28.161 60.11,27.646 60.788,27.989 			"/>
			<polygon fill="#1E1E1C" points="62.1,28.927 61.522,28.646 61.438,28.192 62.241,28.536 			"/>
			<polygon fill="#1E1E1C" points="61.25,30.876 60.397,30.411 60.043,29.521 61.875,30.334 			"/>
			
				<polygon fill="#FFFFFF" stroke="#1E1E1C" stroke-width="0.4721" stroke-linecap="round" stroke-linejoin="round" stroke-miterlimit="10" points="
				64.106,26.702 59.038,24.989 63.674,25.192 67.704,26.702 			"/>
			
				<polygon fill="#FFFFFF" stroke="#1E1E1C" stroke-width="0.4721" stroke-linecap="round" stroke-linejoin="round" stroke-miterlimit="10" points="
				66.801,32.731 63.245,33.624 64.071,26.702 67.704,26.702 			"/>
			
				<path fill="none" stroke="#1E1E1C" stroke-width="0.4721" stroke-linecap="round" stroke-linejoin="round" stroke-miterlimit="10" d="
				M55.811,36.353c0,0,2.172,3.062,4.129,0.04"/>
			
				<path fill="none" stroke="#1E1E1C" stroke-width="0.4721" stroke-linecap="round" stroke-linejoin="round" stroke-miterlimit="10" d="
				M67.536,35.815c0,0,1.836,0.462-1.918,3.102"/>
			
				<ellipse transform="matrix(0.9244 0.3814 -0.3814 0.9244 16.6146 -22.6575)" fill="#1E1E1C" cx="65.472" cy="30.59" rx="1.178" ry="1.613"/>
			
				<path fill="none" stroke="#1E1E1C" stroke-width="0.2361" stroke-linecap="round" stroke-linejoin="round" stroke-miterlimit="10" d="
				M61.024,24.968c0.551-1.217,1.455-2.009,2.479-2.009c1.676,0,3.033,2.128,3.033,4.752c0,1.234-0.299,2.359-0.791,3.204"/>
			
				<path fill="none" stroke="#1E1E1C" stroke-width="0.4721" stroke-linecap="round" stroke-linejoin="round" stroke-miterlimit="10" d="
				M65.745,30.915"/>
			
				<path fill="none" stroke="#1E1E1C" stroke-width="0.9443" stroke-linecap="round" stroke-linejoin="round" stroke-miterlimit="10" d="
				M62.213,23.408c1.076-0.62,2.365-0.449,3.258,0.688"/>
			<path fill="#1E1E1C" d="M59.502,33.314c-0.24,0.287-0.746,0.261-1.135-0.062c-0.383-0.319-0.502-0.814-0.264-1.103
				c0.24-0.289,0.748-0.263,1.133,0.061C59.625,32.531,59.745,33.023,59.502,33.314z"/>
			
				<ellipse transform="matrix(0.9238 0.3829 -0.3829 0.9238 16.7828 -22.8233)" fill="#FFFFFF" cx="65.73" cy="30.751" rx="0.519" ry="0.796"/>
			
				<path fill="none" stroke="#1E1E1C" stroke-width="0.2361" stroke-linecap="round" stroke-linejoin="round" stroke-miterlimit="10" d="
				M65.829,30.794c-1.111,1.594-3.793,4.22-7.025,1.938"/>
			
				<polygon fill="none" stroke="#1E1E1C" stroke-width="0.4721" stroke-linecap="round" stroke-linejoin="round" stroke-miterlimit="10" points="
				56.155,37.827 53.983,37.023 52.583,31.617 54.895,32.439 			"/>
			<text transform="matrix(1 0 0 1 61.7144 37.5322)" fill="#1E1E1C" font-family="'ArialRoundedMTBold'" font-size="1.7676">AR-1</text>
			<g>
				<path fill="none" stroke="#1E1E1C" stroke-width="0.5204" stroke-miterlimit="10" d="M66.215,39.792
					c-0.074,0.562-0.602,1.023-1.168,1.023h-2.498c-0.568,0-1.111-0.458-1.207-1.018l-0.727-4.253
					c-0.096-0.56,0.289-1.018,0.857-1.018h4.404c0.566,0,0.971,0.461,0.896,1.023L66.215,39.792z"/>
			</g>
			<g>
				<path fill="#FFFFFF" d="M65.856,43.769c-0.176-0.455-0.787-0.827-1.354-0.827h-1.465c-0.568,0-1.221,0.372-1.449,0.827
					c-0.229,0.454,0.049,0.826,0.617,0.826h2.941C65.713,44.595,66.034,44.223,65.856,43.769z"/>
				<path fill="none" stroke="#1E1E1C" stroke-width="0.5204" stroke-miterlimit="10" d="M65.856,43.769
					c-0.176-0.455-0.787-0.827-1.354-0.827h-1.465c-0.568,0-1.221,0.372-1.449,0.827c-0.229,0.454,0.049,0.826,0.617,0.826h2.941
					C65.713,44.595,66.034,44.223,65.856,43.769z"/>
			</g>
			
				<rect x="63.245" y="40.815" fill="#FFFFFF" stroke="#1E1E1C" stroke-width="0.5204" stroke-miterlimit="10" width="0.861" height="2.126"/>
			
				<path fill="none" stroke="#1E1E1C" stroke-width="0.4721" stroke-linecap="round" stroke-linejoin="round" stroke-miterlimit="10" d="
				M64.618,38.644c0.439-0.159,0.889-0.038,1,0.273c0.115,0.312-0.148,0.694-0.586,0.854"/>
		</g>
	</g>
	<g>
		
			<circle fill="#FFFFFF" stroke="#1E1E1C" stroke-width="0.4721" stroke-linecap="round" stroke-linejoin="round" stroke-miterlimit="10" cx="15.092" cy="31.381" r="4.349"/>
		<path fill="#1E1E1C" d="M17.555,27.799c-0.701-0.482-1.548-0.769-2.463-0.769c-2.402,0-4.349,1.948-4.349,4.351
			c0,0.188,0.016,0.372,0.039,0.554c1.288-0.274,2.783-0.928,4.24-1.925C16.023,29.326,16.881,28.564,17.555,27.799z"/>
		
			<rect x="10.915" y="27.763" transform="matrix(0.8041 0.5945 -0.5945 0.8041 19.09 -1.1929)" fill="none" stroke="#1E1E1C" stroke-width="0.4028" stroke-linecap="round" stroke-linejoin="round" stroke-miterlimit="10" width="0.88" height="1.213"/>
		<path fill="#1E1E1C" d="M9.344,34.049c0.053-3.445-2.017-4.5-1.688-6.675c0.324-2.147,3.699-1.952,3.706,0.247
			c-0.413,0.557-0.723,0.975-0.723,0.975s-1.205-0.456-1.048,0.769C9.782,30.844,9.835,31.935,9.344,34.049z"/>
		<ellipse fill="#1E1E1C" cx="18.147" cy="30.781" rx="0.296" ry="0.491"/>
		<ellipse fill="#1E1E1C" cx="16.517" cy="31.935" rx="0.35" ry="0.505"/>
		<path fill="#1E1E1C" d="M18.612,32.75c0,0-0.466,1.608-1.396,1.039"/>
		
			<rect x="12.569" y="31.713" transform="matrix(0.9234 -0.3839 0.3839 0.9234 -11.8468 7.878)" fill="#FFFFFF" stroke="#1E1E1C" stroke-width="0.4721" stroke-linecap="round" stroke-linejoin="round" stroke-miterlimit="10" width="2.485" height="3.807"/>
		<g>
			<polyline fill="none" stroke="#1E1E1C" stroke-width="0.4721" stroke-linecap="round" stroke-linejoin="round" points="
				13.432,33.617 11.362,40.545 14.149,37.45 			"/>
		</g>
		
			<polyline fill="none" stroke="#1E1E1C" stroke-width="0.4721" stroke-linecap="round" stroke-linejoin="round" stroke-miterlimit="10" points="
			24.449,36.082 21.282,39.68 18.443,37.081 		"/>
		
			<path fill="none" stroke="#1E1E1C" stroke-width="0.4721" stroke-linecap="round" stroke-linejoin="round" stroke-miterlimit="10" d="
			M15.055,47.483c0,0.155-0.729,5.234-0.729,5.234"/>
		
			<path fill="none" stroke="#1E1E1C" stroke-width="0.4721" stroke-linecap="round" stroke-linejoin="round" stroke-miterlimit="10" d="
			M17.921,47.483c0,0.155,0.226,5.234,0.226,5.234"/>
		<polygon fill="#9D9D9C" points="19.502,46.574 13.531,46.574 15.092,36.714 17.521,36.714 		"/>
	</g>
	<g>
		<polygon fill="#FFFFFF" points="79.344,7.083 79.344,12.266 83.928,9.675 		"/>
		<g>
			<g>
				<path fill="#FFFFFF" d="M80.846,4.994c2.639,0,4.775,2.143,4.775,4.774c0,2.638-2.137,4.773-4.775,4.773
					c-2.631,0-4.768-2.136-4.768-4.773C76.079,7.137,78.215,4.994,80.846,4.994 M80.846,4.494c-2.904,0-5.268,2.366-5.268,5.274
					c0,2.908,2.363,5.273,5.268,5.273c2.909,0,5.275-2.366,5.275-5.273C86.122,6.86,83.755,4.494,80.846,4.494L80.846,4.494z"/>
			</g>
		</g>
	</g>
</g>
</svg>
