<?xml version="1.0" encoding="utf-8"?>
<!-- Generator: Adobe Illustrator 15.0.2, SVG Export Plug-In . SVG Version: 6.00 Build 0)  -->
<!DOCTYPE svg PUBLIC "-//W3C//DTD SVG 1.1//EN" "http://www.w3.org/Graphics/SVG/1.1/DTD/svg11.dtd">
<svg version="1.1" id="Layer_1" xmlns="http://www.w3.org/2000/svg" xmlns:xlink="http://www.w3.org/1999/xlink" x="0px" y="0px"
	 width="90.489px" height="39.708px" viewBox="-0.221 9.941 90.489 39.708" enable-background="new -0.221 9.941 90.489 39.708"
	 xml:space="preserve">
<g>
	<path fill="#F19106" d="M69.958,19.663v-5.866c0,0,2.755-0.044,3.406,1.003C70.676,15.999,69.958,19.663,69.958,19.663z"/>
	<path fill="#F19106" d="M17.225,39.943v3.855c0,0-2.662-0.562-3.406-3.68C15.813,40.972,17.225,39.943,17.225,39.943z"/>
	<g>
		
			<radialGradient id="SVGID_1_" cx="-1267.4185" cy="-432.7107" r="21.9906" gradientTransform="matrix(0.4097 0 0 0.0996 528.1961 90.308)" gradientUnits="userSpaceOnUse">
			<stop  offset="0" style="stop-color:#7EABCE"/>
			<stop  offset="0.1438" style="stop-color:#AACCE4"/>
			<stop  offset="0.3067" style="stop-color:#D9EFFC"/>
			<stop  offset="0.3387" style="stop-color:#DDF0FC"/>
			<stop  offset="0.5524" style="stop-color:#F0F9FE"/>
			<stop  offset="0.7709" style="stop-color:#FBFDFF"/>
			<stop  offset="1" style="stop-color:#FFFFFF"/>
		</radialGradient>
		<ellipse fill="url(#SVGID_1_)" cx="8.935" cy="47.226" rx="9.156" ry="2.422"/>
		<g>
			<path fill="#1D1D1B" d="M8.088,37.845c-1.392,0-2.524-1.133-2.524-2.525s1.133-2.525,2.524-2.525s2.524,1.133,2.524,2.525
				S9.48,37.845,8.088,37.845z M8.088,33.054c-1.249,0-2.265,1.018-2.265,2.266c0,1.249,1.016,2.266,2.265,2.266
				s2.265-1.017,2.265-2.266C10.353,34.072,9.337,33.054,8.088,33.054z"/>
			<path fill="#1D1D1B" d="M9.444,33.349c-0.386-0.266-0.852-0.424-1.355-0.424c-1.322,0-2.395,1.072-2.395,2.395
				c0,0.104,0.008,0.205,0.021,0.305c0.709-0.15,1.533-0.512,2.334-1.059C8.6,34.189,9.073,33.771,9.444,33.349z"/>
			<path fill="#1D1D1B" d="M6.028,34.205c-0.027,0-0.054-0.008-0.077-0.025L5.56,33.892c-0.027-0.021-0.046-0.052-0.052-0.086
				c-0.005-0.033,0.004-0.068,0.024-0.096l0.397-0.537c0.021-0.028,0.051-0.047,0.085-0.052s0.068,0.003,0.097,0.024l0.39,0.289
				c0.058,0.043,0.07,0.123,0.027,0.182l-0.396,0.535C6.107,34.187,6.068,34.205,6.028,34.205z"/>
			<path fill="#1D1D1B" d="M4.924,36.789c0.028-1.896-1.111-2.477-0.93-3.674c0.178-1.184,2.036-1.076,2.04,0.135
				c-0.228,0.309-0.397,0.537-0.397,0.537s-0.664-0.25-0.577,0.424C5.165,35.025,5.194,35.625,4.924,36.789z"/>
			<ellipse fill="#1D1D1B" cx="9.771" cy="34.99" rx="0.163" ry="0.271"/>
			<ellipse fill="#1D1D1B" cx="8.873" cy="35.625" rx="0.192" ry="0.277"/>
			<path fill="#1D1D1B" d="M10.026,36.074c0,0-0.256,0.885-0.769,0.572"/>
			<path fill="#1D1D1B" d="M7.155,37.912c-0.017,0-0.034-0.004-0.05-0.01c-0.031-0.014-0.057-0.039-0.07-0.07L6.23,35.896
				c-0.027-0.065,0.004-0.142,0.07-0.17l1.262-0.525c0.031-0.014,0.066-0.014,0.1,0c0.031,0.013,0.057,0.037,0.07,0.07l0.806,1.936
				c0.013,0.031,0.014,0.066,0,0.099c-0.013,0.032-0.038,0.058-0.07,0.071l-1.263,0.525C7.189,37.908,7.171,37.912,7.155,37.912z
				 M6.52,35.917l0.705,1.694l1.022-0.425L7.542,35.49L6.52,35.917z"/>
			<path fill="#1D1D1B" d="M6.035,40.496c-0.021,0-0.044-0.005-0.063-0.016c-0.053-0.03-0.078-0.093-0.062-0.15l1.14-3.814
				c0.021-0.07,0.093-0.108,0.162-0.088S7.32,36.52,7.299,36.59L6.325,39.85l1.148-1.276c0.048-0.053,0.132-0.057,0.184-0.01
				c0.054,0.049,0.058,0.131,0.01,0.184l-1.535,1.705C6.106,40.482,6.071,40.496,6.035,40.496z"/>
			<path fill="#1D1D1B" d="M11.497,40.019c-0.032,0-0.063-0.012-0.088-0.033l-1.562-1.432c-0.053-0.049-0.057-0.131-0.008-0.184
				c0.049-0.052,0.131-0.057,0.184-0.008l1.465,1.342l1.656-1.881c0.047-0.053,0.131-0.059,0.184-0.012
				c0.054,0.047,0.059,0.129,0.012,0.184l-1.744,1.98c-0.023,0.025-0.056,0.041-0.091,0.043
				C11.501,40.019,11.499,40.019,11.497,40.019z"/>
			<path fill="#1D1D1B" d="M7.667,47.197c-0.006,0-0.012,0-0.019,0c-0.071-0.011-0.12-0.076-0.11-0.148
				c0.157-1.098,0.394-2.768,0.399-2.867c0.004-0.068,0.062-0.123,0.13-0.123c0.001,0,0.003,0,0.004,0
				c0.07,0.002,0.126,0.057,0.126,0.127c0,0.089-0.308,2.242-0.401,2.9C7.786,47.15,7.73,47.197,7.667,47.197z"/>
			<path fill="#1D1D1B" d="M9.77,47.197c-0.069,0-0.127-0.054-0.13-0.123c-0.013-0.287-0.125-2.802-0.125-2.889
				c0-0.071,0.058-0.129,0.13-0.129l0,0c0.071,0,0.13,0.058,0.13,0.129c0.001,0.078,0.091,2.104,0.125,2.877
				c0.003,0.071-0.053,0.132-0.124,0.135C9.774,47.197,9.772,47.197,9.77,47.197z"/>
			<polygon fill="#1898CD" points="10.516,43.685 7.229,43.685 8.088,38.258 9.426,38.258 			"/>
		</g>
	</g>
	<g>
		
			<radialGradient id="SVGID_2_" cx="226.4897" cy="-464.0378" r="31.9836" gradientTransform="matrix(0.3167 0 0 0.0996 8.2543 72.5349)" gradientUnits="userSpaceOnUse">
			<stop  offset="0" style="stop-color:#5F564A"/>
			<stop  offset="0.0545" style="stop-color:#8F826F"/>
			<stop  offset="0.109" style="stop-color:#B7A78E"/>
			<stop  offset="0.1623" style="stop-color:#D7C3A7"/>
			<stop  offset="0.2138" style="stop-color:#EDD8B8"/>
			<stop  offset="0.2629" style="stop-color:#FAE4C2"/>
			<stop  offset="0.3067" style="stop-color:#FFE8C6"/>
			<stop  offset="0.4558" style="stop-color:#FFF1DD"/>
			<stop  offset="0.6315" style="stop-color:#FFF9F0"/>
			<stop  offset="0.8114" style="stop-color:#FFFDFB"/>
			<stop  offset="1" style="stop-color:#FFFFFF"/>
		</radialGradient>
		<ellipse fill="url(#SVGID_2_)" cx="79.976" cy="26.334" rx="10.292" ry="3.522"/>
		<g>
			<g>
				<polygon fill="#FFFFFF" points="79.619,19.158 76.653,17.591 76.807,13.391 80.194,14.536 				"/>
				<path fill="#1D1E1C" d="M79.619,19.316c-0.025,0-0.051-0.006-0.073-0.019L76.58,17.73c-0.054-0.028-0.087-0.084-0.084-0.145
					l0.154-4.2c0.002-0.05,0.026-0.096,0.067-0.124c0.042-0.027,0.094-0.035,0.141-0.02l3.387,1.146
					c0.07,0.024,0.115,0.095,0.105,0.169l-0.575,4.622c-0.006,0.051-0.037,0.096-0.083,0.12
					C79.668,19.31,79.644,19.316,79.619,19.316z M76.814,17.498l2.677,1.415l0.531-4.268l-3.065-1.036L76.814,17.498z"/>
			</g>
			<polygon fill="#1D1E1C" points="77.965,15.657 77.342,15.364 77.526,15.165 77.977,15.396 			"/>
			<polygon fill="#1D1E1C" points="79.2,16.124 78.633,15.865 78.579,15.563 79.114,15.791 			"/>
			<polygon fill="#1D1E1C" points="78.467,17.378 77.715,17.013 77.551,16.47 78.719,17.013 			"/>
			<g>
				<polygon fill="#FFFFFF" points="80.194,14.536 76.807,13.391 79.905,13.525 82.596,14.536 				"/>
				<path fill="#1D1E1C" d="M82.604,14.694c-0.002,0-0.006,0-0.008,0h-2.402c-0.018,0-0.034-0.003-0.051-0.008l-3.387-1.146
					c-0.074-0.025-0.118-0.101-0.104-0.178c0.015-0.078,0.082-0.132,0.162-0.129l3.098,0.134c0.017,0.001,0.033,0.004,0.049,0.01
					l2.671,1.004c0.074,0.013,0.131,0.077,0.131,0.155C82.762,14.623,82.691,14.694,82.604,14.694z M80.22,14.379h1.509
					l-1.856-0.698l-1.967-0.085L80.22,14.379z"/>
			</g>
			<g>
				<polygon fill="#FFFFFF" points="81.994,18.562 79.619,19.158 80.17,14.536 82.596,14.536 				"/>
				<path fill="#1D1E1C" d="M79.619,19.316c-0.038,0-0.075-0.014-0.104-0.04c-0.039-0.034-0.059-0.085-0.052-0.137l0.552-4.622
					c0.009-0.08,0.076-0.139,0.156-0.139h2.426c0.046,0,0.09,0.02,0.119,0.055c0.03,0.035,0.044,0.081,0.037,0.126l-0.603,4.025
					c-0.01,0.063-0.056,0.114-0.118,0.129l-2.375,0.597C79.644,19.315,79.631,19.316,79.619,19.316z M80.31,14.694l-0.508,4.256
					l2.051-0.516l0.561-3.74H80.31z"/>
			</g>
			<path fill="#1D1E1C" d="M76.125,22.056c-0.893,0-1.572-0.942-1.602-0.983c-0.05-0.071-0.033-0.169,0.037-0.22
				c0.073-0.05,0.17-0.035,0.221,0.037c0.006,0.008,0.614,0.85,1.344,0.85c0.008,0,0.015,0,0.021,0
				c0.405-0.009,0.786-0.284,1.132-0.817c0.046-0.073,0.145-0.093,0.218-0.046c0.073,0.047,0.094,0.145,0.046,0.218
				c-0.405,0.626-0.873,0.95-1.39,0.96C76.144,22.056,76.134,22.056,76.125,22.056z"/>
			<path fill="#1D1E1C" d="M81.204,22.849c-0.05,0-0.099-0.023-0.129-0.067c-0.05-0.071-0.033-0.17,0.038-0.22
				c1.44-1.012,1.536-1.467,1.511-1.615c-0.022-0.128-0.172-0.171-0.179-0.173c-0.083-0.022-0.134-0.108-0.111-0.192
				c0.022-0.083,0.106-0.137,0.189-0.113c0.13,0.033,0.361,0.157,0.41,0.419c0.086,0.465-0.45,1.097-1.639,1.932
				C81.267,22.84,81.235,22.849,81.204,22.849z"/>
			<path fill="#1D1E1C" d="M81.833,17.433c-0.229,0.548-0.737,0.859-1.139,0.693c-0.4-0.164-0.541-0.743-0.314-1.295
				c0.227-0.547,0.736-0.861,1.136-0.692C81.918,16.302,82.059,16.882,81.833,17.433z"/>
			<path fill="#1D1E1C" d="M81.288,17.427c-0.014,0-0.027-0.003-0.04-0.01c-0.037-0.022-0.05-0.07-0.028-0.108
				c0.333-0.572,0.517-1.318,0.517-2.101c0-1.706-0.872-3.094-1.944-3.094c-0.627,0-1.22,0.485-1.584,1.296
				c-0.02,0.039-0.064,0.057-0.104,0.04s-0.058-0.064-0.04-0.104c0.392-0.87,1.037-1.389,1.729-1.389
				c1.159,0,2.103,1.458,2.103,3.251c0,0.81-0.191,1.584-0.538,2.18C81.341,17.414,81.315,17.427,81.288,17.427z"/>
			
				<path fill="none" stroke="#1D1E1C" stroke-width="0.3153" stroke-linecap="round" stroke-linejoin="round" stroke-miterlimit="10" d="
				M81.288,17.349"/>
			<path fill="#1D1E1C" d="M81.106,13.11c-0.093,0-0.186-0.042-0.248-0.121c-0.468-0.595-1.145-0.741-1.771-0.381
				c-0.147,0.087-0.343,0.036-0.431-0.115c-0.087-0.151-0.035-0.344,0.116-0.431c0.9-0.522,1.914-0.31,2.581,0.537
				c0.107,0.137,0.084,0.335-0.053,0.443C81.243,13.088,81.174,13.11,81.106,13.11z"/>
			<path fill="#1D1E1C" d="M77.12,18.949c-0.161,0.192-0.498,0.175-0.758-0.04c-0.256-0.213-0.336-0.542-0.177-0.735
				c0.161-0.193,0.499-0.175,0.757,0.042C77.201,18.427,77.28,18.758,77.12,18.949z"/>
			<path fill="#FFFFFF" d="M81.598,17.372c-0.111,0.272-0.346,0.433-0.523,0.359c-0.177-0.074-0.23-0.352-0.117-0.625
				c0.111-0.271,0.344-0.431,0.523-0.359C81.657,16.823,81.711,17.101,81.598,17.372z"/>
			<path fill="#1D1E1C" d="M78.364,19.237c-0.592,0-1.181-0.205-1.757-0.611c-0.035-0.025-0.044-0.074-0.019-0.11
				c0.025-0.036,0.072-0.044,0.11-0.019c0.686,0.484,1.39,0.67,2.089,0.545c1.257-0.22,2.161-1.345,2.492-1.818
				c0.025-0.036,0.074-0.045,0.109-0.02c0.036,0.025,0.045,0.074,0.02,0.109c-0.342,0.49-1.278,1.654-2.594,1.884
				C78.665,19.224,78.514,19.237,78.364,19.237z"/>
			<path fill="#1D1E1C" d="M74.883,22.123c-0.019,0-0.037-0.003-0.055-0.01l-1.45-0.536c-0.049-0.018-0.085-0.059-0.098-0.108
				l-0.935-3.611c-0.015-0.057,0.003-0.117,0.046-0.156s0.106-0.053,0.159-0.032l1.543,0.55c0.051,0.018,0.089,0.061,0.101,0.112
				l0.831,3.552c0.015,0.024,0.023,0.052,0.023,0.082c0,0.087-0.071,0.158-0.158,0.158C74.889,22.123,74.885,22.123,74.883,22.123z
				 M73.565,21.31l1.098,0.406l-0.755-3.229l-1.182-0.421L73.565,21.31z"/>
			<g>
				<path fill="#1E1E1C" d="M79.228,21.674l-0.04-0.106h-0.344l-0.041,0.108c-0.016,0.043-0.028,0.071-0.039,0.086
					c-0.012,0.015-0.03,0.022-0.055,0.022c-0.022,0-0.041-0.008-0.058-0.023c-0.017-0.017-0.024-0.034-0.024-0.054
					c0-0.012,0.002-0.023,0.006-0.036s0.01-0.029,0.019-0.051l0.216-0.549c0.006-0.016,0.014-0.035,0.022-0.057
					c0.009-0.022,0.018-0.041,0.027-0.056c0.011-0.015,0.022-0.026,0.039-0.035c0.016-0.009,0.036-0.014,0.06-0.014
					s0.043,0.005,0.059,0.014s0.029,0.021,0.039,0.035c0.01,0.014,0.018,0.029,0.025,0.045c0.006,0.017,0.015,0.039,0.025,0.065
					l0.221,0.546c0.018,0.041,0.025,0.071,0.025,0.09c0,0.021-0.008,0.038-0.024,0.055c-0.017,0.016-0.036,0.024-0.06,0.024
					c-0.013,0-0.024-0.003-0.034-0.008c-0.009-0.005-0.018-0.011-0.024-0.02c-0.006-0.008-0.014-0.021-0.021-0.038
					C79.24,21.702,79.233,21.687,79.228,21.674z M78.889,21.44h0.252l-0.127-0.349L78.889,21.44z"/>
				<path fill="#1E1E1C" d="M79.766,21.408h-0.06v0.271c0,0.036-0.008,0.062-0.023,0.079c-0.017,0.017-0.036,0.025-0.062,0.025
					c-0.027,0-0.049-0.009-0.063-0.026s-0.022-0.044-0.022-0.078v-0.65c0-0.037,0.008-0.063,0.024-0.08s0.044-0.024,0.08-0.024
					h0.278c0.039,0,0.071,0.001,0.099,0.005c0.027,0.003,0.052,0.01,0.073,0.02c0.027,0.012,0.051,0.027,0.07,0.048
					c0.021,0.021,0.037,0.045,0.047,0.072c0.011,0.027,0.016,0.057,0.016,0.088c0,0.062-0.018,0.113-0.053,0.15
					c-0.035,0.038-0.09,0.064-0.162,0.08c0.031,0.017,0.06,0.04,0.088,0.071c0.027,0.032,0.052,0.065,0.074,0.101
					c0.021,0.036,0.038,0.068,0.05,0.097c0.013,0.028,0.019,0.049,0.019,0.06s-0.004,0.021-0.011,0.032
					c-0.007,0.012-0.017,0.021-0.029,0.026c-0.013,0.007-0.026,0.01-0.042,0.01c-0.02,0-0.036-0.005-0.049-0.014
					c-0.014-0.009-0.024-0.021-0.033-0.034c-0.01-0.014-0.023-0.034-0.039-0.062l-0.068-0.114c-0.025-0.042-0.047-0.073-0.066-0.096
					c-0.02-0.021-0.039-0.036-0.059-0.045C79.823,21.412,79.797,21.408,79.766,21.408z M79.865,21.053h-0.158v0.232h0.153
					c0.041,0,0.076-0.003,0.104-0.011c0.028-0.007,0.05-0.019,0.064-0.036c0.016-0.017,0.022-0.041,0.022-0.07
					c0-0.023-0.007-0.044-0.019-0.062c-0.012-0.018-0.027-0.031-0.049-0.04C79.963,21.058,79.923,21.053,79.865,21.053z"/>
				<path fill="#1E1E1C" d="M80.582,21.532h-0.183c-0.027,0-0.049-0.007-0.062-0.02c-0.015-0.013-0.021-0.029-0.021-0.05
					s0.007-0.037,0.021-0.051c0.014-0.013,0.035-0.019,0.062-0.019h0.183c0.028,0,0.05,0.006,0.063,0.019
					c0.014,0.014,0.021,0.03,0.021,0.051s-0.007,0.037-0.021,0.05C80.631,21.526,80.61,21.532,80.582,21.532z"/>
				<path fill="#1E1E1C" d="M81.02,21.691v-0.524c-0.098,0.075-0.164,0.112-0.197,0.112c-0.016,0-0.031-0.006-0.043-0.02
					c-0.013-0.013-0.02-0.027-0.02-0.044c0-0.02,0.007-0.034,0.02-0.044c0.012-0.009,0.033-0.021,0.064-0.035
					c0.047-0.022,0.084-0.045,0.111-0.069c0.028-0.024,0.053-0.052,0.074-0.081c0.021-0.03,0.035-0.049,0.043-0.056
					c0.006-0.007,0.018-0.011,0.036-0.011c0.021,0,0.036,0.008,0.05,0.024c0.012,0.016,0.018,0.037,0.018,0.064v0.66
					c0,0.077-0.026,0.116-0.078,0.116c-0.023,0-0.043-0.008-0.057-0.023C81.027,21.744,81.02,21.722,81.02,21.691z"/>
			</g>
			<path fill="#1D1E1C" d="M80.822,24.136h-1.669c-0.462,0-0.899-0.37-0.977-0.824l-0.485-2.842
				c-0.04-0.232,0.017-0.453,0.159-0.622s0.35-0.261,0.585-0.261h2.941c0.233,0,0.443,0.092,0.591,0.26
				c0.146,0.167,0.211,0.388,0.181,0.62l-0.375,2.834C81.713,23.761,81.287,24.136,80.822,24.136z M78.435,19.935
				c-0.131,0-0.244,0.049-0.319,0.138s-0.104,0.209-0.083,0.339l0.485,2.842c0.05,0.29,0.34,0.535,0.635,0.535h1.669
				c0.292,0,0.569-0.244,0.607-0.532l0.375-2.834c0.017-0.131-0.019-0.254-0.099-0.346c-0.08-0.091-0.197-0.141-0.329-0.141H78.435z
				"/>
			<g>
				<g>
					<path fill="#FFFFFF" d="M81.362,25.932c-0.118-0.304-0.525-0.552-0.904-0.552h-0.979c-0.379,0-0.814,0.249-0.967,0.552
						s0.033,0.552,0.412,0.552h1.963C81.266,26.485,81.48,26.236,81.362,25.932z"/>
				</g>
				<path fill="#1D1E1C" d="M80.887,26.658h-1.963c-0.257,0-0.464-0.097-0.568-0.267c-0.096-0.155-0.095-0.345,0.001-0.537
					c0.183-0.363,0.675-0.648,1.122-0.648h0.979c0.453,0,0.922,0.292,1.066,0.663c0.072,0.187,0.057,0.371-0.046,0.52
					C81.361,26.56,81.146,26.658,80.887,26.658z M79.479,25.554c-0.311,0-0.689,0.213-0.812,0.457
					c-0.023,0.046-0.056,0.133-0.016,0.198c0.039,0.064,0.142,0.102,0.272,0.102h1.963c0.14,0,0.254-0.044,0.304-0.118
					c0.046-0.066,0.03-0.144,0.009-0.198c-0.092-0.235-0.438-0.441-0.742-0.441H79.479z"/>
			</g>
			<g>
				<rect x="79.619" y="23.962" fill="#FFFFFF" width="0.575" height="1.418"/>
				<path fill="#1D1E1C" d="M80.368,25.554h-0.923v-1.766h0.923V25.554z M79.792,25.206h0.228v-1.07h-0.228V25.206z"/>
			</g>
			<path fill="#1D1E1C" d="M80.811,23.422c-0.064,0-0.124-0.04-0.147-0.103c-0.03-0.082,0.011-0.172,0.093-0.203
				c0.203-0.075,0.344-0.249,0.299-0.371c-0.039-0.106-0.242-0.169-0.466-0.088c-0.082,0.034-0.173-0.013-0.202-0.094
				s0.013-0.172,0.095-0.202c0.377-0.138,0.762-0.017,0.869,0.276c0.107,0.294-0.106,0.635-0.485,0.775
				C80.848,23.418,80.83,23.422,80.811,23.422z"/>
		</g>
	</g>
	<g>
		<g>
			<path fill="#F19106" d="M69.988,26.477c0,1.65-1.351,3-3,3H2.779c-1.649,0-3-1.35-3-3V12.941c0-1.65,1.351-3,3-3h64.209
				c1.649,0,3,1.35,3,3V26.477z"/>
		</g>
	</g>
	<g>
		<g>
			<path fill="#F19106" d="M70.259,44.865c0,1.65-1.351,3-3,3H20.038c-1.65,0-3-1.35-3-3v-5.156c0-1.65,1.35-3,3-3h47.222
				c1.649,0,3,1.35,3,3V44.865z"/>
		</g>
	</g>
	<g>
		<g>
			<path fill="#FFFFFF" d="M24.993,42.713c0,0.219-0.057,0.416-0.17,0.59s-0.277,0.311-0.496,0.41
				c-0.217,0.1-0.475,0.148-0.771,0.148c-0.357,0-0.652-0.068-0.885-0.203c-0.164-0.098-0.299-0.227-0.4-0.389
				c-0.104-0.162-0.154-0.32-0.154-0.473c0-0.09,0.029-0.166,0.092-0.229s0.141-0.096,0.236-0.096c0.076,0,0.143,0.025,0.195,0.074
				c0.055,0.049,0.1,0.123,0.137,0.221c0.047,0.115,0.098,0.211,0.15,0.289c0.053,0.076,0.129,0.141,0.227,0.191
				c0.096,0.049,0.225,0.074,0.383,0.074c0.217,0,0.393-0.051,0.529-0.152c0.135-0.1,0.203-0.227,0.203-0.379
				c0-0.119-0.037-0.217-0.109-0.291c-0.074-0.076-0.168-0.133-0.285-0.172c-0.115-0.041-0.27-0.082-0.465-0.127
				c-0.26-0.061-0.479-0.131-0.652-0.213c-0.176-0.082-0.314-0.193-0.418-0.334s-0.154-0.314-0.154-0.525
				c0-0.199,0.055-0.375,0.162-0.529c0.109-0.156,0.268-0.275,0.473-0.357c0.205-0.084,0.447-0.125,0.727-0.125
				c0.221,0,0.414,0.027,0.576,0.082c0.162,0.057,0.297,0.129,0.404,0.221c0.105,0.092,0.184,0.188,0.234,0.287
				c0.049,0.102,0.074,0.199,0.074,0.295c0,0.086-0.031,0.166-0.094,0.234c-0.061,0.07-0.139,0.105-0.23,0.105
				c-0.084,0-0.148-0.021-0.191-0.062c-0.043-0.043-0.092-0.111-0.143-0.207c-0.064-0.137-0.145-0.242-0.236-0.318
				c-0.092-0.078-0.24-0.115-0.445-0.115c-0.189,0-0.342,0.041-0.457,0.125c-0.117,0.082-0.174,0.182-0.174,0.299
				c0,0.072,0.02,0.135,0.059,0.188s0.094,0.1,0.162,0.137c0.07,0.037,0.141,0.068,0.211,0.088c0.07,0.021,0.188,0.053,0.35,0.096
				c0.205,0.047,0.391,0.1,0.555,0.156c0.166,0.059,0.307,0.129,0.424,0.211c0.115,0.082,0.205,0.186,0.271,0.312
				C24.959,42.375,24.993,42.529,24.993,42.713z"/>
			<path fill="#FFFFFF" d="M27.27,43.48c-0.162,0.127-0.32,0.223-0.473,0.285c-0.152,0.064-0.322,0.096-0.512,0.096
				c-0.174,0-0.324-0.035-0.455-0.104s-0.232-0.16-0.303-0.277s-0.107-0.244-0.107-0.381c0-0.184,0.059-0.34,0.176-0.471
				s0.277-0.217,0.482-0.262c0.043-0.01,0.148-0.033,0.318-0.066c0.17-0.035,0.314-0.066,0.436-0.096s0.252-0.064,0.395-0.105
				c-0.01-0.178-0.045-0.307-0.107-0.391c-0.064-0.084-0.195-0.125-0.395-0.125c-0.172,0-0.301,0.023-0.387,0.072
				c-0.086,0.047-0.16,0.119-0.223,0.215c-0.061,0.096-0.105,0.158-0.131,0.188c-0.025,0.031-0.08,0.047-0.164,0.047
				c-0.076,0-0.141-0.025-0.195-0.072c-0.057-0.049-0.084-0.111-0.084-0.188c0-0.119,0.043-0.234,0.127-0.346
				s0.215-0.203,0.393-0.275c0.178-0.074,0.398-0.109,0.664-0.109c0.297,0,0.529,0.035,0.699,0.105
				c0.17,0.068,0.289,0.18,0.359,0.332c0.07,0.15,0.105,0.352,0.105,0.602c0,0.158-0.002,0.293-0.002,0.402
				c-0.002,0.111-0.002,0.234-0.004,0.369c0,0.127,0.021,0.258,0.062,0.396c0.043,0.137,0.062,0.225,0.062,0.266
				c0,0.068-0.031,0.131-0.096,0.188c-0.066,0.057-0.139,0.086-0.223,0.086c-0.068,0-0.137-0.033-0.205-0.098
				C27.418,43.699,27.346,43.603,27.27,43.48z M27.227,42.506c-0.1,0.035-0.242,0.074-0.432,0.115
				c-0.188,0.039-0.318,0.068-0.391,0.088s-0.143,0.057-0.209,0.111c-0.064,0.055-0.098,0.133-0.098,0.23
				c0,0.102,0.039,0.189,0.115,0.262c0.078,0.07,0.18,0.107,0.305,0.107c0.133,0,0.256-0.029,0.369-0.088s0.195-0.135,0.248-0.227
				c0.061-0.102,0.092-0.27,0.092-0.504V42.506z"/>
			<path fill="#FFFFFF" d="M29.243,42.888v0.562c0,0.137-0.033,0.238-0.098,0.307S29,43.861,28.901,43.861
				c-0.098,0-0.176-0.035-0.238-0.104c-0.062-0.07-0.096-0.172-0.096-0.307v-1.877c0-0.303,0.111-0.455,0.33-0.455
				c0.111,0,0.191,0.037,0.242,0.107c0.049,0.07,0.076,0.176,0.08,0.312c0.082-0.137,0.164-0.242,0.248-0.312
				c0.086-0.07,0.199-0.107,0.34-0.107c0.143,0,0.279,0.037,0.412,0.107c0.135,0.07,0.201,0.164,0.201,0.281
				c0,0.082-0.029,0.15-0.086,0.203c-0.057,0.055-0.117,0.08-0.184,0.08c-0.025,0-0.084-0.014-0.18-0.045
				c-0.094-0.031-0.178-0.045-0.25-0.045c-0.1,0-0.18,0.025-0.242,0.076c-0.062,0.053-0.111,0.129-0.146,0.232
				c-0.033,0.102-0.057,0.223-0.07,0.363S29.243,42.685,29.243,42.888z"/>
			<path fill="#FFFFFF" d="M32.366,43.48c-0.164,0.127-0.32,0.223-0.473,0.285c-0.152,0.064-0.324,0.096-0.514,0.096
				c-0.172,0-0.324-0.035-0.455-0.104s-0.23-0.16-0.303-0.277c-0.07-0.117-0.105-0.244-0.105-0.381c0-0.184,0.059-0.34,0.176-0.471
				s0.277-0.217,0.48-0.262c0.043-0.01,0.15-0.033,0.318-0.066c0.17-0.035,0.316-0.066,0.438-0.096
				c0.119-0.029,0.252-0.064,0.393-0.105c-0.008-0.178-0.043-0.307-0.107-0.391c-0.062-0.084-0.195-0.125-0.393-0.125
				c-0.172,0-0.301,0.023-0.387,0.072c-0.088,0.047-0.162,0.119-0.223,0.215c-0.062,0.096-0.105,0.158-0.131,0.188
				c-0.025,0.031-0.08,0.047-0.164,0.047c-0.076,0-0.143-0.025-0.197-0.072c-0.055-0.049-0.082-0.111-0.082-0.188
				c0-0.119,0.041-0.234,0.125-0.346s0.215-0.203,0.393-0.275c0.178-0.074,0.4-0.109,0.666-0.109c0.295,0,0.529,0.035,0.697,0.105
				c0.17,0.068,0.289,0.18,0.359,0.332c0.07,0.15,0.105,0.352,0.105,0.602c0,0.158,0,0.293-0.002,0.402
				c0,0.111-0.002,0.234-0.002,0.369c0,0.127,0.02,0.258,0.062,0.396c0.041,0.137,0.062,0.225,0.062,0.266
				c0,0.068-0.033,0.131-0.098,0.188s-0.139,0.086-0.221,0.086c-0.07,0-0.139-0.033-0.205-0.098
				C32.512,43.699,32.442,43.603,32.366,43.48z M32.321,42.506c-0.098,0.035-0.242,0.074-0.43,0.115
				c-0.189,0.039-0.32,0.068-0.393,0.088s-0.141,0.057-0.207,0.111s-0.1,0.133-0.1,0.23c0,0.102,0.039,0.189,0.117,0.262
				c0.076,0.07,0.178,0.107,0.303,0.107c0.135,0,0.258-0.029,0.369-0.088c0.113-0.059,0.195-0.135,0.248-0.227
				c0.062-0.102,0.092-0.27,0.092-0.504V42.506z"/>
			<path fill="#FFFFFF" d="M34.327,40.527v1c0.086-0.1,0.17-0.178,0.25-0.234c0.082-0.059,0.172-0.102,0.271-0.129
				c0.098-0.029,0.205-0.045,0.318-0.045c0.172,0,0.322,0.037,0.455,0.109s0.236,0.178,0.312,0.316c0.049,0.08,0.08,0.17,0.098,0.27
				c0.016,0.1,0.023,0.215,0.023,0.346v1.291c0,0.135-0.031,0.236-0.092,0.307c-0.062,0.068-0.145,0.104-0.246,0.104
				c-0.223,0-0.334-0.137-0.334-0.41v-1.139c0-0.215-0.031-0.381-0.096-0.498c-0.064-0.115-0.186-0.174-0.365-0.174
				c-0.121,0-0.229,0.035-0.324,0.104c-0.098,0.068-0.17,0.16-0.217,0.279c-0.037,0.102-0.055,0.279-0.055,0.537v0.891
				c0,0.133-0.029,0.234-0.09,0.305s-0.145,0.105-0.25,0.105c-0.223,0-0.334-0.137-0.334-0.41v-2.924
				c0-0.137,0.029-0.238,0.088-0.307s0.141-0.104,0.246-0.104s0.189,0.035,0.25,0.104C34.297,40.291,34.327,40.392,34.327,40.527z"
				/>
			<path fill="#FFFFFF" d="M39.625,40.117c0.375,0,0.697,0.076,0.967,0.229s0.473,0.369,0.611,0.65
				c0.139,0.279,0.207,0.609,0.207,0.988c0,0.279-0.037,0.533-0.113,0.764c-0.076,0.229-0.189,0.426-0.34,0.594
				c-0.152,0.168-0.338,0.297-0.559,0.387c-0.221,0.088-0.475,0.133-0.758,0.133s-0.537-0.047-0.762-0.137
				c-0.223-0.092-0.41-0.221-0.561-0.387c-0.148-0.166-0.262-0.367-0.34-0.6c-0.076-0.234-0.113-0.488-0.113-0.76
				c0-0.277,0.039-0.533,0.119-0.766c0.08-0.23,0.195-0.43,0.348-0.592c0.15-0.162,0.334-0.287,0.553-0.375
				C39.102,40.16,39.348,40.117,39.625,40.117z M40.668,41.978c0-0.264-0.043-0.494-0.129-0.688
				c-0.086-0.195-0.209-0.342-0.367-0.441s-0.342-0.15-0.547-0.15c-0.146,0-0.281,0.029-0.406,0.084s-0.23,0.135-0.32,0.24
				s-0.16,0.24-0.213,0.404s-0.078,0.348-0.078,0.551c0,0.207,0.025,0.393,0.078,0.559s0.125,0.305,0.221,0.414
				c0.094,0.109,0.203,0.191,0.324,0.246c0.123,0.055,0.258,0.08,0.404,0.08c0.188,0,0.361-0.047,0.518-0.141
				c0.158-0.094,0.283-0.238,0.375-0.434C40.622,42.508,40.668,42.265,40.668,41.978z"/>
			<path fill="#FFFFFF" d="M42.512,41.469h-0.51l-0.131-0.68v-0.609h0.758v0.609L42.512,41.469z"/>
			<path fill="#FFFFFF" d="M46.338,42.656c0,0.115-0.029,0.24-0.086,0.373c-0.057,0.135-0.146,0.268-0.268,0.396
				s-0.277,0.234-0.467,0.314s-0.41,0.121-0.662,0.121c-0.191,0-0.365-0.018-0.521-0.055c-0.156-0.035-0.297-0.092-0.426-0.17
				c-0.127-0.076-0.244-0.176-0.352-0.301c-0.096-0.115-0.178-0.242-0.244-0.383c-0.068-0.141-0.119-0.291-0.152-0.451
				c-0.033-0.158-0.051-0.328-0.051-0.508c0-0.291,0.043-0.553,0.127-0.783c0.086-0.23,0.207-0.428,0.365-0.592
				c0.158-0.162,0.344-0.287,0.555-0.373c0.213-0.086,0.439-0.129,0.68-0.129c0.293,0,0.555,0.059,0.783,0.176
				s0.404,0.262,0.525,0.434c0.123,0.172,0.184,0.334,0.184,0.486c0,0.084-0.029,0.158-0.09,0.223
				c-0.059,0.064-0.131,0.098-0.215,0.098c-0.094,0-0.164-0.023-0.211-0.068c-0.047-0.043-0.1-0.121-0.156-0.229
				c-0.096-0.18-0.209-0.314-0.338-0.402c-0.129-0.09-0.289-0.135-0.477-0.135c-0.303,0-0.543,0.115-0.721,0.344
				s-0.268,0.555-0.268,0.977c0,0.281,0.039,0.516,0.117,0.701c0.08,0.188,0.191,0.326,0.336,0.42
				c0.146,0.092,0.314,0.137,0.51,0.137c0.211,0,0.389-0.051,0.535-0.156c0.145-0.104,0.254-0.258,0.328-0.461
				c0.031-0.096,0.07-0.172,0.117-0.232c0.045-0.061,0.119-0.09,0.223-0.09c0.086,0,0.162,0.029,0.225,0.092
				C46.307,42.49,46.338,42.564,46.338,42.656z"/>
			<path fill="#FFFFFF" d="M49.475,42.49c0,0.201-0.031,0.387-0.094,0.557c-0.062,0.168-0.154,0.314-0.271,0.436
				c-0.119,0.123-0.262,0.217-0.426,0.281s-0.35,0.098-0.555,0.098s-0.389-0.033-0.551-0.1c-0.164-0.064-0.305-0.16-0.424-0.281
				c-0.119-0.123-0.211-0.268-0.271-0.436c-0.062-0.168-0.094-0.352-0.094-0.555s0.031-0.391,0.094-0.561s0.152-0.314,0.27-0.434
				c0.117-0.121,0.26-0.213,0.426-0.279c0.166-0.064,0.35-0.098,0.551-0.098c0.203,0,0.389,0.033,0.555,0.1s0.309,0.16,0.428,0.281
				c0.119,0.123,0.209,0.268,0.27,0.436C49.444,42.103,49.475,42.287,49.475,42.49z M48.797,42.49c0-0.275-0.061-0.488-0.182-0.643
				c-0.121-0.152-0.283-0.229-0.486-0.229c-0.133,0-0.248,0.033-0.35,0.102c-0.1,0.068-0.178,0.17-0.23,0.303
				c-0.055,0.133-0.082,0.289-0.082,0.467c0,0.176,0.025,0.33,0.08,0.463c0.053,0.131,0.129,0.232,0.229,0.301
				c0.1,0.07,0.219,0.105,0.354,0.105c0.203,0,0.365-0.076,0.486-0.23S48.797,42.761,48.797,42.49z"/>
			<path fill="#FFFFFF" d="M50.618,41.492v0.082c0.119-0.156,0.248-0.271,0.389-0.344c0.141-0.074,0.303-0.111,0.486-0.111
				c0.178,0,0.336,0.039,0.477,0.117c0.139,0.076,0.244,0.188,0.312,0.328c0.045,0.082,0.074,0.172,0.088,0.268
				c0.012,0.094,0.02,0.217,0.02,0.365v1.254c0,0.135-0.031,0.236-0.094,0.307c-0.061,0.068-0.141,0.104-0.24,0.104
				s-0.182-0.035-0.244-0.107c-0.062-0.07-0.094-0.172-0.094-0.303v-1.123c0-0.223-0.031-0.393-0.094-0.51
				c-0.061-0.119-0.184-0.178-0.369-0.178c-0.119,0-0.229,0.037-0.328,0.107c-0.098,0.072-0.172,0.17-0.217,0.295
				c-0.033,0.102-0.049,0.289-0.049,0.564v0.844c0,0.137-0.033,0.238-0.096,0.307c-0.064,0.068-0.145,0.104-0.246,0.104
				c-0.098,0-0.178-0.035-0.24-0.107c-0.062-0.07-0.094-0.172-0.094-0.303v-1.949c0-0.127,0.029-0.223,0.084-0.287
				c0.057-0.062,0.133-0.096,0.23-0.096c0.059,0,0.113,0.016,0.16,0.043c0.049,0.027,0.086,0.07,0.115,0.125
				C50.604,41.344,50.618,41.412,50.618,41.492z"/>
			<path fill="#FFFFFF" d="M53.672,41.492v0.082c0.119-0.156,0.248-0.271,0.389-0.344c0.141-0.074,0.303-0.111,0.486-0.111
				c0.178,0,0.336,0.039,0.477,0.117c0.139,0.076,0.244,0.188,0.312,0.328c0.045,0.082,0.074,0.172,0.088,0.268
				c0.012,0.094,0.02,0.217,0.02,0.365v1.254c0,0.135-0.031,0.236-0.094,0.307c-0.061,0.068-0.141,0.104-0.24,0.104
				s-0.182-0.035-0.244-0.107c-0.062-0.07-0.094-0.172-0.094-0.303v-1.123c0-0.223-0.031-0.393-0.094-0.51
				c-0.061-0.119-0.184-0.178-0.369-0.178c-0.119,0-0.229,0.037-0.328,0.107c-0.098,0.072-0.172,0.17-0.217,0.295
				c-0.033,0.102-0.049,0.289-0.049,0.564v0.844c0,0.137-0.033,0.238-0.096,0.307c-0.064,0.068-0.145,0.104-0.246,0.104
				c-0.098,0-0.178-0.035-0.24-0.107c-0.062-0.07-0.094-0.172-0.094-0.303v-1.949c0-0.127,0.029-0.223,0.084-0.287
				c0.057-0.062,0.133-0.096,0.23-0.096c0.059,0,0.113,0.016,0.16,0.043c0.049,0.027,0.086,0.07,0.115,0.125
				C53.659,41.344,53.672,41.412,53.672,41.492z"/>
			<path fill="#FFFFFF" d="M58.639,42.49c0,0.201-0.031,0.387-0.094,0.557c-0.062,0.168-0.154,0.314-0.271,0.436
				c-0.119,0.123-0.262,0.217-0.426,0.281s-0.35,0.098-0.555,0.098s-0.389-0.033-0.551-0.1c-0.164-0.064-0.305-0.16-0.424-0.281
				c-0.119-0.123-0.211-0.268-0.271-0.436c-0.062-0.168-0.094-0.352-0.094-0.555s0.031-0.391,0.094-0.561s0.152-0.314,0.27-0.434
				c0.117-0.121,0.26-0.213,0.426-0.279c0.166-0.064,0.35-0.098,0.551-0.098c0.203,0,0.389,0.033,0.555,0.1s0.309,0.16,0.428,0.281
				c0.119,0.123,0.209,0.268,0.27,0.436C58.608,42.103,58.639,42.287,58.639,42.49z M57.961,42.49c0-0.275-0.061-0.488-0.182-0.643
				c-0.121-0.152-0.283-0.229-0.486-0.229c-0.133,0-0.248,0.033-0.35,0.102c-0.1,0.068-0.178,0.17-0.23,0.303
				c-0.055,0.133-0.082,0.289-0.082,0.467c0,0.176,0.025,0.33,0.08,0.463c0.053,0.131,0.129,0.232,0.229,0.301
				c0.1,0.07,0.219,0.105,0.354,0.105c0.203,0,0.365-0.076,0.486-0.23S57.961,42.761,57.961,42.49z"/>
			<path fill="#FFFFFF" d="M59.838,42.888v0.562c0,0.137-0.031,0.238-0.096,0.307s-0.146,0.104-0.244,0.104s-0.178-0.035-0.24-0.104
				c-0.062-0.07-0.094-0.172-0.094-0.307v-1.877c0-0.303,0.109-0.455,0.328-0.455c0.111,0,0.193,0.037,0.242,0.107
				s0.076,0.176,0.082,0.312c0.08-0.137,0.162-0.242,0.248-0.312c0.084-0.07,0.197-0.107,0.34-0.107
				c0.141,0,0.279,0.037,0.412,0.107s0.199,0.164,0.199,0.281c0,0.082-0.027,0.15-0.084,0.203c-0.057,0.055-0.119,0.08-0.186,0.08
				c-0.023,0-0.084-0.014-0.178-0.045c-0.096-0.031-0.178-0.045-0.252-0.045c-0.098,0-0.178,0.025-0.24,0.076
				c-0.062,0.053-0.111,0.129-0.146,0.232c-0.035,0.102-0.059,0.223-0.072,0.363C59.846,42.513,59.838,42.685,59.838,42.888z"/>
		</g>
	</g>
	<g>
		<g>
			<path fill="#FFFFFF" d="M6.587,16.54H5.917v1.025c0,0.146-0.035,0.257-0.104,0.333c-0.068,0.075-0.156,0.113-0.262,0.113
				c-0.11,0-0.199-0.037-0.267-0.112s-0.101-0.185-0.101-0.329V14.78c0-0.161,0.037-0.276,0.11-0.346
				c0.074-0.069,0.192-0.104,0.354-0.104h0.94c0.278,0,0.493,0.021,0.643,0.064c0.148,0.041,0.276,0.109,0.384,0.204
				c0.108,0.096,0.189,0.213,0.246,0.352c0.056,0.138,0.084,0.293,0.084,0.467c0,0.368-0.114,0.647-0.341,0.838
				C7.375,16.446,7.038,16.54,6.587,16.54z M6.41,14.881H5.917v1.106H6.41c0.173,0,0.317-0.019,0.434-0.055s0.205-0.096,0.266-0.178
				s0.092-0.19,0.092-0.323c0-0.16-0.047-0.29-0.142-0.391C6.955,14.935,6.738,14.881,6.41,14.881z"/>
			<path fill="#FFFFFF" d="M8.509,17.602v-2.924c0-0.135,0.029-0.236,0.09-0.306c0.06-0.069,0.141-0.104,0.243-0.104
				c0.102,0,0.185,0.034,0.247,0.103s0.094,0.17,0.094,0.307v2.924c0,0.137-0.032,0.239-0.095,0.308
				c-0.063,0.068-0.146,0.103-0.246,0.103c-0.099,0-0.179-0.035-0.241-0.106C8.54,17.835,8.509,17.734,8.509,17.602z"/>
			<path fill="#FFFFFF" d="M11.761,16.807h-1.318c0.002,0.153,0.032,0.288,0.093,0.405c0.06,0.117,0.14,0.205,0.239,0.264
				c0.1,0.06,0.21,0.09,0.33,0.09c0.08,0,0.154-0.01,0.221-0.029c0.066-0.019,0.132-0.048,0.194-0.089
				c0.062-0.04,0.12-0.083,0.173-0.129c0.053-0.047,0.121-0.109,0.205-0.188c0.034-0.029,0.084-0.044,0.147-0.044
				c0.069,0,0.125,0.019,0.168,0.057s0.064,0.092,0.064,0.16c0,0.062-0.023,0.133-0.071,0.214c-0.048,0.082-0.12,0.16-0.217,0.234
				c-0.096,0.075-0.217,0.138-0.362,0.187c-0.146,0.05-0.313,0.074-0.503,0.074c-0.433,0-0.77-0.123-1.01-0.37
				s-0.36-0.582-0.36-1.005c0-0.199,0.029-0.385,0.089-0.555c0.059-0.17,0.146-0.316,0.259-0.438s0.254-0.215,0.42-0.28
				c0.166-0.064,0.351-0.098,0.553-0.098c0.264,0,0.49,0.056,0.679,0.167s0.329,0.255,0.423,0.431
				c0.094,0.177,0.141,0.355,0.141,0.538c0,0.17-0.048,0.28-0.146,0.33C12.075,16.782,11.938,16.807,11.761,16.807z M10.443,16.424
				h1.223c-0.017-0.23-0.079-0.402-0.187-0.518c-0.108-0.114-0.25-0.171-0.426-0.171c-0.168,0-0.306,0.058-0.414,0.174
				C10.532,16.026,10.466,16.198,10.443,16.424z"/>
			<path fill="#FFFFFF" d="M14.588,17.632c-0.163,0.127-0.32,0.222-0.473,0.285s-0.323,0.095-0.513,0.095
				c-0.173,0-0.324-0.034-0.455-0.103s-0.231-0.16-0.303-0.277c-0.07-0.117-0.106-0.244-0.106-0.381
				c0-0.184,0.059-0.341,0.176-0.472c0.117-0.13,0.277-0.217,0.481-0.262c0.043-0.01,0.149-0.032,0.318-0.066
				c0.17-0.034,0.315-0.066,0.437-0.095c0.12-0.029,0.252-0.064,0.394-0.105c-0.009-0.178-0.044-0.308-0.107-0.392
				c-0.063-0.083-0.195-0.124-0.394-0.124c-0.172,0-0.301,0.023-0.387,0.071c-0.087,0.048-0.161,0.119-0.223,0.215
				s-0.105,0.158-0.131,0.188c-0.025,0.031-0.08,0.046-0.164,0.046c-0.076,0-0.142-0.024-0.196-0.072
				c-0.056-0.049-0.083-0.111-0.083-0.187c0-0.119,0.042-0.234,0.126-0.346c0.084-0.112,0.215-0.204,0.393-0.276
				c0.178-0.073,0.399-0.109,0.665-0.109c0.296,0,0.529,0.035,0.698,0.105c0.17,0.069,0.289,0.181,0.359,0.332
				s0.105,0.353,0.105,0.603c0,0.158-0.001,0.292-0.002,0.402s-0.002,0.233-0.003,0.368c0,0.127,0.021,0.259,0.062,0.396
				c0.042,0.137,0.062,0.226,0.062,0.266c0,0.068-0.032,0.132-0.097,0.188c-0.065,0.057-0.139,0.085-0.222,0.085
				c-0.069,0-0.138-0.032-0.205-0.098C14.736,17.85,14.665,17.755,14.588,17.632z M14.544,16.656
				c-0.099,0.036-0.242,0.074-0.431,0.115c-0.188,0.04-0.319,0.069-0.392,0.089c-0.072,0.019-0.142,0.056-0.208,0.11
				c-0.065,0.056-0.099,0.133-0.099,0.231c0,0.102,0.039,0.188,0.116,0.261c0.077,0.071,0.179,0.107,0.304,0.107
				c0.134,0,0.257-0.029,0.369-0.088c0.113-0.059,0.195-0.134,0.248-0.227c0.062-0.102,0.092-0.27,0.092-0.503V16.656z"/>
			<path fill="#FFFFFF" d="M18.061,17.13c0,0.187-0.045,0.346-0.136,0.479c-0.09,0.132-0.224,0.232-0.401,0.301
				c-0.177,0.068-0.392,0.103-0.646,0.103c-0.242,0-0.449-0.037-0.622-0.111c-0.173-0.073-0.301-0.166-0.383-0.277
				s-0.124-0.223-0.124-0.335c0-0.074,0.026-0.137,0.079-0.189s0.12-0.079,0.2-0.079c0.071,0,0.125,0.017,0.163,0.052
				c0.038,0.034,0.074,0.083,0.108,0.146c0.069,0.12,0.152,0.21,0.248,0.27c0.097,0.059,0.229,0.089,0.395,0.089
				c0.135,0,0.245-0.03,0.332-0.091c0.086-0.06,0.13-0.129,0.13-0.206c0-0.118-0.045-0.205-0.135-0.259
				c-0.09-0.055-0.237-0.106-0.443-0.156c-0.232-0.058-0.421-0.118-0.566-0.182c-0.146-0.062-0.263-0.146-0.35-0.25
				c-0.088-0.104-0.131-0.231-0.131-0.383c0-0.135,0.04-0.263,0.121-0.383c0.08-0.12,0.199-0.216,0.356-0.288
				c0.157-0.071,0.347-0.107,0.569-0.107c0.175,0,0.331,0.019,0.471,0.055c0.139,0.036,0.255,0.085,0.348,0.146
				c0.093,0.062,0.164,0.129,0.213,0.202c0.048,0.074,0.072,0.147,0.072,0.218c0,0.077-0.025,0.141-0.077,0.19
				c-0.052,0.049-0.126,0.074-0.222,0.074c-0.068,0-0.128-0.021-0.176-0.06c-0.049-0.04-0.104-0.099-0.167-0.178
				c-0.051-0.066-0.111-0.119-0.181-0.158s-0.163-0.06-0.281-0.06c-0.122,0-0.224,0.026-0.304,0.078
				c-0.081,0.052-0.121,0.116-0.121,0.193c0,0.071,0.029,0.129,0.089,0.175c0.06,0.045,0.139,0.082,0.239,0.112
				c0.101,0.029,0.239,0.065,0.415,0.108c0.209,0.051,0.38,0.112,0.513,0.183c0.133,0.071,0.232,0.154,0.301,0.251
				C18.027,16.897,18.061,17.007,18.061,17.13z"/>
			<path fill="#FFFFFF" d="M20.513,16.807h-1.318c0.002,0.153,0.032,0.288,0.093,0.405c0.06,0.117,0.14,0.205,0.239,0.264
				c0.1,0.06,0.21,0.09,0.33,0.09c0.08,0,0.154-0.01,0.221-0.029c0.066-0.019,0.132-0.048,0.194-0.089
				c0.062-0.04,0.12-0.083,0.173-0.129c0.053-0.047,0.121-0.109,0.205-0.188c0.034-0.029,0.084-0.044,0.147-0.044
				c0.069,0,0.125,0.019,0.168,0.057s0.064,0.092,0.064,0.16c0,0.062-0.023,0.133-0.071,0.214c-0.048,0.082-0.12,0.16-0.217,0.234
				c-0.096,0.075-0.217,0.138-0.362,0.187c-0.146,0.05-0.313,0.074-0.503,0.074c-0.433,0-0.77-0.123-1.01-0.37
				s-0.36-0.582-0.36-1.005c0-0.199,0.029-0.385,0.089-0.555c0.059-0.17,0.146-0.316,0.259-0.438s0.254-0.215,0.42-0.28
				c0.166-0.064,0.351-0.098,0.553-0.098c0.264,0,0.49,0.056,0.679,0.167s0.329,0.255,0.423,0.431
				c0.094,0.177,0.141,0.355,0.141,0.538c0,0.17-0.048,0.28-0.146,0.33C20.827,16.782,20.69,16.807,20.513,16.807z M19.195,16.424
				h1.223c-0.017-0.23-0.079-0.402-0.187-0.518c-0.108-0.114-0.25-0.171-0.426-0.171c-0.168,0-0.306,0.058-0.414,0.174
				C19.284,16.026,19.218,16.198,19.195,16.424z"/>
			<path fill="#FFFFFF" d="M25.072,17.13c0,0.187-0.045,0.346-0.136,0.479c-0.09,0.132-0.224,0.232-0.401,0.301
				c-0.177,0.068-0.392,0.103-0.646,0.103c-0.242,0-0.449-0.037-0.622-0.111c-0.173-0.073-0.301-0.166-0.383-0.277
				s-0.124-0.223-0.124-0.335c0-0.074,0.026-0.137,0.079-0.189s0.12-0.079,0.2-0.079c0.071,0,0.125,0.017,0.163,0.052
				c0.038,0.034,0.074,0.083,0.108,0.146c0.069,0.12,0.152,0.21,0.248,0.27c0.097,0.059,0.229,0.089,0.395,0.089
				c0.135,0,0.245-0.03,0.332-0.091c0.086-0.06,0.13-0.129,0.13-0.206c0-0.118-0.045-0.205-0.135-0.259
				c-0.09-0.055-0.237-0.106-0.443-0.156c-0.232-0.058-0.421-0.118-0.566-0.182c-0.146-0.062-0.263-0.146-0.35-0.25
				c-0.088-0.104-0.131-0.231-0.131-0.383c0-0.135,0.04-0.263,0.121-0.383c0.08-0.12,0.199-0.216,0.356-0.288
				c0.157-0.071,0.347-0.107,0.569-0.107c0.175,0,0.331,0.019,0.471,0.055c0.139,0.036,0.255,0.085,0.348,0.146
				c0.093,0.062,0.164,0.129,0.213,0.202c0.048,0.074,0.072,0.147,0.072,0.218c0,0.077-0.025,0.141-0.077,0.19
				c-0.052,0.049-0.126,0.074-0.222,0.074c-0.068,0-0.128-0.021-0.176-0.06c-0.049-0.04-0.104-0.099-0.167-0.178
				c-0.051-0.066-0.111-0.119-0.181-0.158s-0.163-0.06-0.281-0.06c-0.122,0-0.224,0.026-0.304,0.078
				c-0.081,0.052-0.121,0.116-0.121,0.193c0,0.071,0.029,0.129,0.089,0.175c0.06,0.045,0.139,0.082,0.239,0.112
				c0.101,0.029,0.239,0.065,0.415,0.108c0.209,0.051,0.38,0.112,0.513,0.183c0.133,0.071,0.232,0.154,0.301,0.251
				C25.038,16.897,25.072,17.007,25.072,17.13z"/>
			<path fill="#FFFFFF" d="M27.346,17.632c-0.163,0.127-0.32,0.222-0.473,0.285s-0.323,0.095-0.513,0.095
				c-0.173,0-0.324-0.034-0.455-0.103s-0.231-0.16-0.303-0.277c-0.07-0.117-0.106-0.244-0.106-0.381
				c0-0.184,0.059-0.341,0.176-0.472c0.117-0.13,0.277-0.217,0.481-0.262c0.043-0.01,0.149-0.032,0.318-0.066
				c0.17-0.034,0.315-0.066,0.437-0.095c0.12-0.029,0.252-0.064,0.394-0.105c-0.009-0.178-0.044-0.308-0.107-0.392
				c-0.063-0.083-0.195-0.124-0.394-0.124c-0.172,0-0.301,0.023-0.387,0.071c-0.087,0.048-0.161,0.119-0.223,0.215
				s-0.105,0.158-0.131,0.188c-0.025,0.031-0.08,0.046-0.164,0.046c-0.076,0-0.142-0.024-0.196-0.072
				c-0.056-0.049-0.083-0.111-0.083-0.187c0-0.119,0.042-0.234,0.126-0.346c0.084-0.112,0.215-0.204,0.393-0.276
				c0.178-0.073,0.399-0.109,0.665-0.109c0.296,0,0.529,0.035,0.698,0.105c0.17,0.069,0.289,0.181,0.359,0.332
				s0.105,0.353,0.105,0.603c0,0.158-0.001,0.292-0.002,0.402s-0.002,0.233-0.003,0.368c0,0.127,0.021,0.259,0.062,0.396
				c0.042,0.137,0.062,0.226,0.062,0.266c0,0.068-0.032,0.132-0.097,0.188c-0.065,0.057-0.139,0.085-0.222,0.085
				c-0.069,0-0.138-0.032-0.205-0.098C27.494,17.85,27.422,17.755,27.346,17.632z M27.302,16.656
				c-0.099,0.036-0.242,0.074-0.431,0.115c-0.188,0.04-0.319,0.069-0.392,0.089c-0.072,0.019-0.142,0.056-0.208,0.11
				c-0.065,0.056-0.099,0.133-0.099,0.231c0,0.102,0.039,0.188,0.116,0.261c0.077,0.071,0.179,0.107,0.304,0.107
				c0.134,0,0.257-0.029,0.369-0.088c0.113-0.059,0.195-0.134,0.248-0.227c0.062-0.102,0.092-0.27,0.092-0.503V16.656z"/>
			<path fill="#FFFFFF" d="M29.204,18.096l0.062-0.15l-0.83-2.089c-0.051-0.12-0.076-0.208-0.076-0.262
				c0-0.058,0.015-0.111,0.044-0.161c0.03-0.049,0.071-0.089,0.123-0.118c0.052-0.03,0.105-0.045,0.161-0.045
				c0.098,0,0.171,0.031,0.22,0.093c0.05,0.062,0.094,0.15,0.131,0.266l0.571,1.659l0.54-1.543c0.043-0.125,0.082-0.224,0.116-0.294
				c0.035-0.071,0.071-0.118,0.11-0.144c0.038-0.024,0.093-0.037,0.164-0.037c0.051,0,0.1,0.014,0.146,0.041s0.083,0.063,0.109,0.11
				c0.025,0.046,0.038,0.095,0.038,0.146c-0.007,0.031-0.018,0.075-0.032,0.133s-0.033,0.116-0.055,0.176l-0.879,2.302
				c-0.076,0.202-0.149,0.361-0.223,0.477c-0.072,0.115-0.168,0.203-0.287,0.266c-0.119,0.062-0.28,0.092-0.483,0.092
				c-0.197,0-0.346-0.021-0.444-0.063c-0.099-0.043-0.147-0.121-0.147-0.235c0-0.077,0.023-0.137,0.07-0.179
				s0.116-0.062,0.208-0.062c0.036,0,0.072,0.005,0.106,0.015c0.043,0.01,0.08,0.015,0.111,0.015c0.077,0,0.138-0.012,0.183-0.034
				c0.044-0.023,0.084-0.063,0.12-0.12C29.117,18.29,29.158,18.206,29.204,18.096z"/>
			<path fill="#FFFFFF" d="M5.555,21.76l0.44,1.507l0.399-1.4c0.043-0.146,0.074-0.247,0.096-0.3
				c0.021-0.054,0.059-0.104,0.115-0.153c0.058-0.049,0.135-0.073,0.233-0.073c0.101,0,0.18,0.024,0.236,0.073
				s0.097,0.102,0.12,0.158c0.022,0.057,0.055,0.155,0.096,0.295l0.4,1.4l0.444-1.507c0.029-0.108,0.054-0.188,0.071-0.235
				c0.019-0.049,0.049-0.092,0.092-0.129s0.104-0.056,0.186-0.056c0.08,0,0.15,0.028,0.209,0.084c0.06,0.057,0.09,0.122,0.09,0.198
				c0,0.068-0.026,0.173-0.077,0.313l-0.551,1.615c-0.048,0.136-0.085,0.235-0.111,0.296S7.977,23.962,7.92,24.01
				s-0.135,0.071-0.233,0.071c-0.103,0-0.183-0.025-0.241-0.076s-0.102-0.113-0.13-0.188c-0.027-0.074-0.058-0.171-0.091-0.289
				l-0.386-1.314l-0.372,1.314c-0.05,0.183-0.104,0.32-0.161,0.413c-0.058,0.094-0.159,0.14-0.304,0.14
				c-0.074,0-0.137-0.015-0.188-0.043c-0.052-0.029-0.096-0.07-0.13-0.123c-0.034-0.054-0.065-0.117-0.092-0.19
				s-0.047-0.132-0.062-0.174l-0.546-1.615c-0.054-0.151-0.081-0.256-0.081-0.313c0-0.073,0.028-0.138,0.086-0.195
				s0.129-0.087,0.213-0.087c0.111,0,0.188,0.032,0.227,0.096C5.469,21.499,5.511,21.607,5.555,21.76z"/>
			<path fill="#FFFFFF" d="M9.907,20.747v1.001c0.085-0.1,0.169-0.178,0.25-0.235c0.082-0.058,0.172-0.101,0.271-0.129
				c0.099-0.029,0.205-0.044,0.319-0.044c0.171,0,0.322,0.036,0.455,0.109c0.133,0.072,0.236,0.178,0.312,0.315
				c0.048,0.081,0.08,0.171,0.097,0.271c0.016,0.1,0.024,0.215,0.024,0.345v1.291c0,0.136-0.031,0.237-0.093,0.307
				s-0.144,0.104-0.246,0.104c-0.222,0-0.333-0.137-0.333-0.41v-1.138c0-0.216-0.032-0.382-0.097-0.498
				c-0.063-0.116-0.186-0.174-0.365-0.174c-0.12,0-0.229,0.034-0.324,0.103c-0.097,0.068-0.169,0.161-0.217,0.28
				c-0.036,0.101-0.054,0.279-0.054,0.536v0.891c0,0.134-0.03,0.235-0.091,0.306c-0.06,0.069-0.144,0.104-0.25,0.104
				c-0.223,0-0.334-0.137-0.334-0.41v-2.924c0-0.137,0.029-0.238,0.088-0.307s0.141-0.103,0.246-0.103
				c0.106,0,0.19,0.034,0.25,0.104C9.876,20.511,9.907,20.613,9.907,20.747z"/>
			<path fill="#FFFFFF" d="M14.826,22.711c0,0.2-0.031,0.386-0.094,0.556c-0.062,0.169-0.153,0.315-0.271,0.437
				c-0.119,0.122-0.261,0.216-0.425,0.28c-0.165,0.065-0.351,0.098-0.556,0.098c-0.204,0-0.388-0.033-0.551-0.099
				s-0.305-0.16-0.424-0.282c-0.119-0.123-0.21-0.268-0.271-0.436c-0.062-0.167-0.093-0.352-0.093-0.554
				c0-0.204,0.031-0.392,0.094-0.561c0.062-0.17,0.152-0.314,0.27-0.435s0.259-0.213,0.425-0.278
				c0.166-0.064,0.35-0.098,0.551-0.098c0.204,0,0.389,0.033,0.556,0.099c0.166,0.066,0.309,0.16,0.427,0.282
				c0.119,0.122,0.209,0.267,0.271,0.435S14.826,22.508,14.826,22.711z M14.149,22.711c0-0.275-0.061-0.489-0.182-0.643
				c-0.121-0.152-0.283-0.229-0.487-0.229c-0.132,0-0.248,0.034-0.349,0.103s-0.178,0.169-0.231,0.303
				c-0.055,0.133-0.082,0.289-0.082,0.467c0,0.176,0.026,0.33,0.08,0.462s0.13,0.232,0.229,0.302c0.1,0.07,0.218,0.105,0.353,0.105
				c0.204,0,0.366-0.077,0.487-0.231C14.088,23.196,14.149,22.983,14.149,22.711z"/>
			<path fill="#FFFFFF" d="M16.962,21.027c-0.095,0-0.175-0.028-0.241-0.086s-0.1-0.14-0.1-0.245c0-0.095,0.034-0.174,0.102-0.235
				c0.068-0.062,0.148-0.093,0.239-0.093c0.087,0,0.164,0.028,0.231,0.084s0.102,0.138,0.102,0.244c0,0.104-0.033,0.186-0.099,0.243
				C17.13,20.997,17.052,21.027,16.962,21.027z M17.295,21.723v1.948c0,0.136-0.032,0.237-0.097,0.307
				c-0.063,0.069-0.146,0.104-0.244,0.104s-0.179-0.035-0.241-0.106c-0.062-0.07-0.092-0.172-0.092-0.304v-1.929
				c0-0.133,0.03-0.233,0.092-0.301c0.062-0.067,0.143-0.102,0.241-0.102s0.181,0.034,0.244,0.102
				C17.263,21.509,17.295,21.603,17.295,21.723z"/>
			<path fill="#FFFFFF" d="M20.163,23.199c0,0.187-0.045,0.346-0.136,0.479c-0.09,0.132-0.224,0.232-0.401,0.301
				c-0.177,0.068-0.392,0.103-0.646,0.103c-0.242,0-0.449-0.037-0.622-0.111c-0.173-0.073-0.301-0.166-0.383-0.277
				s-0.124-0.223-0.124-0.335c0-0.074,0.026-0.137,0.079-0.189s0.12-0.079,0.2-0.079c0.071,0,0.125,0.017,0.163,0.052
				c0.038,0.034,0.074,0.083,0.108,0.146c0.069,0.12,0.152,0.21,0.248,0.27c0.097,0.059,0.229,0.089,0.395,0.089
				c0.135,0,0.245-0.03,0.332-0.091c0.086-0.06,0.13-0.129,0.13-0.206c0-0.118-0.045-0.205-0.135-0.259
				c-0.09-0.055-0.237-0.106-0.443-0.156c-0.232-0.058-0.421-0.118-0.566-0.182c-0.146-0.062-0.263-0.146-0.35-0.25
				c-0.088-0.104-0.131-0.231-0.131-0.383c0-0.135,0.04-0.263,0.121-0.383c0.08-0.12,0.199-0.216,0.356-0.288
				c0.157-0.071,0.347-0.107,0.569-0.107c0.175,0,0.331,0.019,0.471,0.055c0.139,0.036,0.255,0.085,0.348,0.146
				c0.093,0.062,0.164,0.129,0.213,0.202c0.048,0.074,0.072,0.147,0.072,0.218c0,0.077-0.025,0.141-0.077,0.19
				c-0.052,0.049-0.126,0.074-0.222,0.074c-0.068,0-0.128-0.021-0.176-0.06c-0.049-0.04-0.104-0.099-0.167-0.178
				c-0.051-0.066-0.111-0.119-0.181-0.158s-0.163-0.06-0.281-0.06c-0.122,0-0.224,0.026-0.304,0.078
				c-0.081,0.052-0.121,0.116-0.121,0.193c0,0.071,0.029,0.129,0.089,0.175c0.06,0.045,0.139,0.082,0.239,0.112
				c0.101,0.029,0.239,0.065,0.415,0.108c0.209,0.051,0.38,0.112,0.513,0.183c0.133,0.071,0.232,0.154,0.301,0.251
				C20.128,22.966,20.163,23.076,20.163,23.199z"/>
			<path fill="#FFFFFF" d="M24.415,23.247c0,0.083-0.025,0.173-0.075,0.269s-0.127,0.187-0.229,0.273
				c-0.103,0.086-0.232,0.155-0.389,0.208c-0.157,0.053-0.333,0.079-0.529,0.079c-0.416,0-0.741-0.121-0.975-0.364
				c-0.234-0.242-0.351-0.568-0.351-0.977c0-0.276,0.053-0.521,0.16-0.733c0.106-0.212,0.262-0.377,0.464-0.492
				c0.203-0.116,0.444-0.175,0.727-0.175c0.174,0,0.334,0.025,0.48,0.077c0.146,0.051,0.269,0.116,0.37,0.197
				s0.179,0.167,0.232,0.258c0.053,0.092,0.08,0.177,0.08,0.256c0,0.081-0.03,0.149-0.091,0.205
				c-0.06,0.056-0.133,0.084-0.218,0.084c-0.057,0-0.103-0.015-0.14-0.043c-0.037-0.029-0.079-0.076-0.125-0.14
				c-0.082-0.125-0.168-0.22-0.258-0.282s-0.204-0.094-0.342-0.094c-0.199,0-0.36,0.078-0.481,0.233
				c-0.122,0.156-0.184,0.368-0.184,0.639c0,0.127,0.016,0.243,0.047,0.35c0.031,0.105,0.077,0.196,0.137,0.271
				c0.059,0.075,0.131,0.132,0.215,0.17c0.084,0.039,0.176,0.059,0.276,0.059c0.135,0,0.25-0.031,0.347-0.094
				s0.182-0.158,0.256-0.287c0.041-0.075,0.085-0.135,0.133-0.178c0.048-0.042,0.106-0.063,0.176-0.063
				c0.082,0,0.15,0.031,0.205,0.094C24.387,23.11,24.415,23.176,24.415,23.247z"/>
			<path fill="#FFFFFF" d="M26.707,23.701c-0.163,0.127-0.32,0.222-0.473,0.285s-0.323,0.095-0.513,0.095
				c-0.173,0-0.324-0.034-0.455-0.103s-0.231-0.16-0.303-0.277c-0.07-0.117-0.106-0.244-0.106-0.381
				c0-0.184,0.059-0.341,0.176-0.472c0.117-0.13,0.277-0.217,0.481-0.262c0.043-0.01,0.149-0.032,0.318-0.066
				c0.17-0.034,0.315-0.066,0.437-0.095c0.12-0.029,0.252-0.064,0.394-0.105c-0.009-0.178-0.044-0.308-0.107-0.392
				c-0.063-0.083-0.195-0.124-0.394-0.124c-0.172,0-0.301,0.023-0.387,0.071c-0.087,0.048-0.161,0.119-0.223,0.215
				s-0.105,0.158-0.131,0.188c-0.025,0.031-0.08,0.046-0.164,0.046c-0.076,0-0.142-0.024-0.196-0.072
				c-0.056-0.049-0.083-0.111-0.083-0.187c0-0.119,0.042-0.234,0.126-0.346c0.084-0.112,0.215-0.204,0.393-0.276
				c0.178-0.073,0.399-0.109,0.665-0.109c0.296,0,0.529,0.035,0.698,0.105c0.17,0.069,0.289,0.181,0.359,0.332
				s0.105,0.353,0.105,0.603c0,0.158-0.001,0.292-0.002,0.402s-0.002,0.233-0.003,0.368c0,0.127,0.021,0.259,0.062,0.396
				c0.042,0.137,0.062,0.226,0.062,0.266c0,0.068-0.032,0.132-0.097,0.188c-0.065,0.057-0.139,0.085-0.222,0.085
				c-0.069,0-0.138-0.032-0.205-0.098C26.854,23.919,26.783,23.824,26.707,23.701z M26.663,22.726
				c-0.099,0.036-0.242,0.074-0.431,0.115c-0.188,0.04-0.319,0.069-0.392,0.089c-0.072,0.019-0.142,0.056-0.208,0.11
				c-0.065,0.056-0.099,0.133-0.099,0.231c0,0.102,0.039,0.188,0.116,0.261c0.077,0.071,0.179,0.107,0.304,0.107
				c0.134,0,0.257-0.029,0.369-0.088c0.113-0.059,0.195-0.134,0.248-0.227c0.062-0.102,0.092-0.27,0.092-0.503V22.726z"/>
			<path fill="#FFFFFF" d="M28.008,23.671v-2.924c0-0.135,0.029-0.236,0.09-0.306c0.06-0.069,0.141-0.104,0.243-0.104
				c0.102,0,0.185,0.034,0.247,0.103s0.094,0.17,0.094,0.307v2.924c0,0.137-0.032,0.239-0.095,0.308
				c-0.063,0.068-0.146,0.103-0.246,0.103c-0.099,0-0.179-0.035-0.241-0.106C28.039,23.905,28.008,23.803,28.008,23.671z"/>
			<path fill="#FFFFFF" d="M29.379,23.671v-2.924c0-0.135,0.029-0.236,0.09-0.306c0.06-0.069,0.141-0.104,0.243-0.104
				c0.102,0,0.185,0.034,0.247,0.103s0.094,0.17,0.094,0.307v2.924c0,0.137-0.032,0.239-0.095,0.308
				c-0.063,0.068-0.146,0.103-0.246,0.103c-0.099,0-0.179-0.035-0.241-0.106C29.41,23.905,29.379,23.803,29.379,23.671z"/>
			<path fill="#FFFFFF" d="M31.09,21.027c-0.095,0-0.175-0.028-0.241-0.086s-0.1-0.14-0.1-0.245c0-0.095,0.034-0.174,0.102-0.235
				c0.068-0.062,0.148-0.093,0.239-0.093c0.087,0,0.164,0.028,0.231,0.084s0.102,0.138,0.102,0.244c0,0.104-0.033,0.186-0.099,0.243
				C31.258,20.997,31.18,21.027,31.09,21.027z M31.423,21.723v1.948c0,0.136-0.032,0.237-0.097,0.307
				c-0.063,0.069-0.146,0.104-0.244,0.104s-0.179-0.035-0.241-0.106c-0.062-0.07-0.092-0.172-0.092-0.304v-1.929
				c0-0.133,0.03-0.233,0.092-0.301c0.062-0.067,0.143-0.102,0.241-0.102s0.181,0.034,0.244,0.102
				C31.391,21.509,31.423,21.603,31.423,21.723z"/>
			<path fill="#FFFFFF" d="M32.733,21.713v0.082c0.118-0.157,0.248-0.271,0.389-0.345s0.303-0.11,0.485-0.11
				c0.178,0,0.337,0.039,0.477,0.116s0.244,0.188,0.313,0.328c0.045,0.083,0.073,0.172,0.087,0.268
				c0.013,0.095,0.02,0.217,0.02,0.365v1.254c0,0.136-0.031,0.237-0.093,0.307s-0.142,0.104-0.241,0.104s-0.182-0.035-0.244-0.106
				c-0.062-0.07-0.094-0.172-0.094-0.304v-1.123c0-0.223-0.031-0.393-0.093-0.51c-0.062-0.118-0.185-0.177-0.369-0.177
				c-0.12,0-0.229,0.036-0.328,0.107s-0.172,0.17-0.218,0.295c-0.032,0.101-0.049,0.288-0.049,0.563v0.844
				c0,0.137-0.032,0.239-0.096,0.308s-0.145,0.103-0.245,0.103c-0.098,0-0.178-0.035-0.24-0.106
				c-0.062-0.07-0.094-0.172-0.094-0.304v-1.948c0-0.128,0.028-0.224,0.084-0.287c0.057-0.063,0.133-0.096,0.229-0.096
				c0.06,0,0.113,0.015,0.161,0.042c0.048,0.028,0.086,0.07,0.114,0.126C32.718,21.565,32.733,21.633,32.733,21.713z"/>
			<path fill="#FFFFFF" d="M37.654,21.834v1.958c0,0.225-0.023,0.417-0.071,0.578s-0.124,0.295-0.229,0.4s-0.243,0.184-0.414,0.234
				c-0.17,0.051-0.382,0.076-0.636,0.076c-0.232,0-0.439-0.032-0.622-0.098c-0.183-0.064-0.323-0.148-0.422-0.251
				c-0.1-0.104-0.148-0.209-0.148-0.317c0-0.083,0.027-0.149,0.084-0.201c0.056-0.053,0.123-0.078,0.202-0.078
				c0.099,0,0.186,0.043,0.26,0.131c0.036,0.044,0.073,0.089,0.112,0.135c0.038,0.045,0.081,0.084,0.128,0.116
				c0.047,0.031,0.104,0.056,0.169,0.071c0.066,0.016,0.142,0.023,0.228,0.023c0.175,0,0.31-0.024,0.406-0.073
				c0.097-0.048,0.164-0.116,0.202-0.203c0.039-0.088,0.062-0.181,0.068-0.28s0.012-0.26,0.015-0.48
				c-0.104,0.145-0.224,0.255-0.359,0.331c-0.136,0.075-0.298,0.113-0.485,0.113c-0.226,0-0.423-0.058-0.591-0.173
				c-0.169-0.115-0.299-0.276-0.39-0.484c-0.09-0.207-0.136-0.446-0.136-0.719c0-0.202,0.028-0.385,0.083-0.548
				s0.134-0.301,0.236-0.412c0.102-0.112,0.22-0.196,0.353-0.253c0.134-0.058,0.28-0.086,0.439-0.086
				c0.191,0,0.356,0.037,0.497,0.11c0.14,0.073,0.27,0.188,0.39,0.345v-0.092c0-0.117,0.029-0.207,0.087-0.271
				s0.131-0.097,0.222-0.097c0.13,0,0.217,0.043,0.26,0.128C37.632,21.552,37.654,21.675,37.654,21.834z M35.701,22.689
				c0,0.273,0.06,0.479,0.18,0.62c0.119,0.14,0.273,0.21,0.463,0.21c0.111,0,0.218-0.03,0.317-0.091
				c0.1-0.06,0.181-0.15,0.243-0.271s0.094-0.268,0.094-0.44c0-0.275-0.061-0.489-0.182-0.643c-0.121-0.152-0.28-0.229-0.478-0.229
				c-0.193,0-0.348,0.073-0.464,0.22C35.759,22.21,35.701,22.419,35.701,22.689z"/>
		</g>
	</g>
	<g>
		<polygon fill="#FFFFFF" points="59.396,16.958 59.396,22.141 63.98,19.55 		"/>
		<path fill="#FFFFFF" d="M60.899,14.869c2.639,0,4.775,2.143,4.775,4.774c0,2.638-2.137,4.773-4.775,4.773
			c-2.631,0-4.769-2.136-4.769-4.773C56.13,17.012,58.268,14.869,60.899,14.869 M60.899,14.369c-2.905,0-5.269,2.366-5.269,5.274
			c0,2.908,2.363,5.273,5.269,5.273c2.909,0,5.275-2.366,5.275-5.273C66.174,16.736,63.808,14.369,60.899,14.369L60.899,14.369z"/>
	</g>
</g>
</svg>
