<?xml version="1.0" encoding="utf-8"?>
<!-- Generator: Adobe Illustrator 15.0.2, SVG Export Plug-In . SVG Version: 6.00 Build 0)  -->
<!DOCTYPE svg PUBLIC "-//W3C//DTD SVG 1.1//EN" "http://www.w3.org/Graphics/SVG/1.1/DTD/svg11.dtd">
<svg version="1.1" id="Layer_1" xmlns="http://www.w3.org/2000/svg" xmlns:xlink="http://www.w3.org/1999/xlink" x="0px" y="0px"
	 width="91.022px" height="19.354px" viewBox="-2.258 17.126 91.022 19.354" enable-background="new -2.258 17.126 91.022 19.354"
	 xml:space="preserve">
<g>
	<g>
		<path fill="#39A935" d="M68.606,32.627c0,1.649-1.35,3-3,3H0.743c-1.65,0-3-1.351-3-3v-12.5c0-1.65,1.35-3,3-3h64.863
			c1.65,0,3,1.35,3,3V32.627z"/>
	</g>
	<path fill="#39A935" d="M68.305,27.239v-5.866c0,0,2.754-0.044,3.406,1.003C69.024,23.575,68.305,27.239,68.305,27.239z"/>
	<g>
		<path fill="#FFFFFF" d="M3.688,23.773h-0.67v1.025c0,0.146-0.035,0.257-0.105,0.333c-0.068,0.075-0.156,0.113-0.262,0.113
			c-0.109,0-0.199-0.037-0.266-0.112c-0.068-0.075-0.102-0.185-0.102-0.329v-2.791c0-0.161,0.037-0.276,0.111-0.346
			s0.191-0.104,0.354-0.104h0.939c0.279,0,0.494,0.021,0.643,0.064c0.148,0.041,0.277,0.109,0.385,0.204
			c0.107,0.096,0.189,0.213,0.246,0.352c0.055,0.138,0.084,0.293,0.084,0.467c0,0.368-0.115,0.647-0.342,0.838
			S4.139,23.773,3.688,23.773z M3.51,22.114H3.018v1.106H3.51c0.174,0,0.318-0.019,0.434-0.055c0.117-0.036,0.205-0.096,0.266-0.178
			s0.092-0.19,0.092-0.323c0-0.16-0.047-0.29-0.141-0.391C4.055,22.167,3.839,22.114,3.51,22.114z"/>
		<path fill="#FFFFFF" d="M5.61,24.834v-2.924c0-0.135,0.029-0.236,0.09-0.306s0.141-0.104,0.244-0.104
			c0.102,0,0.184,0.034,0.246,0.103s0.094,0.17,0.094,0.307v2.924c0,0.137-0.031,0.239-0.094,0.308
			c-0.064,0.068-0.146,0.103-0.246,0.103s-0.18-0.035-0.242-0.106C5.641,25.068,5.61,24.966,5.61,24.834z"/>
		<path fill="#FFFFFF" d="M8.862,24.04H7.544c0.002,0.153,0.033,0.288,0.094,0.405c0.059,0.117,0.139,0.205,0.238,0.264
			c0.1,0.06,0.211,0.09,0.33,0.09c0.08,0,0.154-0.01,0.221-0.029c0.066-0.019,0.133-0.048,0.195-0.089
			c0.062-0.04,0.119-0.083,0.172-0.129c0.053-0.047,0.121-0.109,0.205-0.188c0.035-0.029,0.084-0.044,0.148-0.044
			c0.068,0,0.125,0.019,0.168,0.057s0.064,0.092,0.064,0.16c0,0.062-0.023,0.133-0.072,0.214c-0.047,0.082-0.119,0.16-0.217,0.234
			c-0.096,0.075-0.217,0.138-0.361,0.187c-0.146,0.05-0.314,0.074-0.504,0.074c-0.432,0-0.77-0.123-1.01-0.37
			s-0.359-0.582-0.359-1.005c0-0.199,0.029-0.385,0.088-0.555s0.146-0.316,0.26-0.438s0.254-0.215,0.42-0.28
			c0.166-0.064,0.35-0.098,0.553-0.098c0.264,0,0.49,0.056,0.678,0.167c0.189,0.111,0.33,0.255,0.424,0.431
			c0.094,0.177,0.141,0.355,0.141,0.538c0,0.17-0.049,0.28-0.146,0.33C9.177,24.015,9.04,24.04,8.862,24.04z M7.544,23.657h1.223
			c-0.016-0.23-0.078-0.402-0.186-0.518c-0.109-0.114-0.25-0.171-0.426-0.171c-0.168,0-0.307,0.058-0.414,0.174
			S7.567,23.43,7.544,23.657z"/>
		<path fill="#FFFFFF" d="M11.69,24.865c-0.164,0.127-0.32,0.222-0.473,0.285s-0.324,0.095-0.514,0.095
			c-0.172,0-0.324-0.034-0.455-0.103s-0.23-0.16-0.303-0.277c-0.07-0.117-0.105-0.244-0.105-0.381c0-0.184,0.059-0.341,0.176-0.472
			c0.117-0.13,0.277-0.217,0.48-0.262c0.043-0.01,0.15-0.032,0.318-0.066c0.17-0.034,0.316-0.066,0.438-0.095
			c0.119-0.029,0.252-0.064,0.393-0.105c-0.008-0.178-0.043-0.308-0.107-0.392c-0.062-0.083-0.195-0.124-0.393-0.124
			c-0.172,0-0.301,0.023-0.387,0.071c-0.088,0.048-0.162,0.119-0.223,0.215c-0.062,0.096-0.105,0.158-0.131,0.188
			c-0.025,0.031-0.08,0.046-0.164,0.046c-0.076,0-0.143-0.024-0.197-0.072c-0.055-0.049-0.082-0.111-0.082-0.187
			c0-0.119,0.041-0.234,0.125-0.346c0.084-0.112,0.215-0.204,0.393-0.276c0.178-0.073,0.4-0.109,0.666-0.109
			c0.295,0,0.529,0.035,0.697,0.105c0.17,0.069,0.289,0.181,0.359,0.332s0.105,0.353,0.105,0.603c0,0.158,0,0.292-0.002,0.402
			c0,0.11-0.002,0.233-0.002,0.368c0,0.127,0.02,0.259,0.062,0.396c0.041,0.137,0.062,0.226,0.062,0.266
			c0,0.068-0.033,0.132-0.098,0.188s-0.139,0.085-0.221,0.085c-0.07,0-0.139-0.032-0.205-0.098
			C11.837,25.083,11.766,24.988,11.69,24.865z M11.645,23.889c-0.098,0.036-0.242,0.074-0.43,0.115
			c-0.189,0.04-0.32,0.069-0.393,0.089c-0.072,0.019-0.141,0.056-0.207,0.11c-0.066,0.056-0.1,0.133-0.1,0.231
			c0,0.102,0.039,0.188,0.117,0.261c0.076,0.071,0.178,0.107,0.303,0.107c0.135,0,0.258-0.029,0.369-0.088
			c0.113-0.059,0.195-0.134,0.248-0.227c0.062-0.102,0.092-0.27,0.092-0.503V23.889z"/>
		<path fill="#FFFFFF" d="M15.163,24.363c0,0.187-0.045,0.346-0.137,0.479c-0.09,0.132-0.223,0.232-0.4,0.301
			s-0.393,0.103-0.646,0.103c-0.242,0-0.449-0.037-0.621-0.111c-0.174-0.073-0.301-0.166-0.383-0.277s-0.125-0.223-0.125-0.335
			c0-0.074,0.027-0.137,0.08-0.189s0.119-0.079,0.199-0.079c0.072,0,0.125,0.017,0.164,0.052c0.037,0.034,0.074,0.083,0.107,0.146
			c0.07,0.12,0.152,0.21,0.248,0.27c0.098,0.059,0.229,0.089,0.395,0.089c0.135,0,0.246-0.03,0.332-0.091
			c0.086-0.06,0.131-0.129,0.131-0.206c0-0.118-0.045-0.205-0.135-0.259c-0.09-0.055-0.238-0.106-0.443-0.156
			c-0.232-0.058-0.422-0.118-0.566-0.182c-0.146-0.062-0.264-0.146-0.35-0.25c-0.088-0.104-0.131-0.231-0.131-0.383
			c0-0.135,0.039-0.263,0.121-0.383c0.08-0.12,0.199-0.216,0.355-0.288c0.158-0.071,0.348-0.107,0.57-0.107
			c0.174,0,0.33,0.019,0.471,0.055c0.139,0.036,0.254,0.085,0.348,0.146c0.092,0.062,0.164,0.129,0.213,0.202
			c0.047,0.074,0.072,0.147,0.072,0.218c0,0.077-0.025,0.141-0.078,0.19c-0.051,0.049-0.125,0.074-0.221,0.074
			c-0.068,0-0.129-0.021-0.176-0.06c-0.049-0.04-0.105-0.099-0.168-0.178c-0.051-0.066-0.111-0.119-0.18-0.158
			c-0.07-0.039-0.164-0.06-0.281-0.06c-0.123,0-0.225,0.026-0.305,0.078s-0.121,0.116-0.121,0.193c0,0.071,0.029,0.129,0.09,0.175
			c0.059,0.045,0.139,0.082,0.238,0.112c0.102,0.029,0.24,0.065,0.416,0.108c0.209,0.051,0.379,0.112,0.512,0.183
			c0.133,0.071,0.232,0.154,0.301,0.251C15.128,24.129,15.163,24.24,15.163,24.363z"/>
		<path fill="#FFFFFF" d="M17.614,24.04h-1.318c0.002,0.153,0.033,0.288,0.094,0.405c0.059,0.117,0.139,0.205,0.238,0.264
			c0.1,0.06,0.211,0.09,0.33,0.09c0.08,0,0.154-0.01,0.221-0.029c0.066-0.019,0.133-0.048,0.195-0.089
			c0.062-0.04,0.119-0.083,0.172-0.129c0.053-0.047,0.121-0.109,0.205-0.188c0.035-0.029,0.084-0.044,0.148-0.044
			c0.068,0,0.125,0.019,0.168,0.057s0.064,0.092,0.064,0.16c0,0.062-0.023,0.133-0.072,0.214c-0.047,0.082-0.119,0.16-0.217,0.234
			c-0.096,0.075-0.217,0.138-0.361,0.187c-0.146,0.05-0.314,0.074-0.504,0.074c-0.432,0-0.77-0.123-1.01-0.37
			s-0.359-0.582-0.359-1.005c0-0.199,0.029-0.385,0.088-0.555s0.146-0.316,0.26-0.438s0.254-0.215,0.42-0.28
			c0.166-0.064,0.35-0.098,0.553-0.098c0.264,0,0.49,0.056,0.678,0.167c0.189,0.111,0.33,0.255,0.424,0.431
			c0.094,0.177,0.141,0.355,0.141,0.538c0,0.17-0.049,0.28-0.146,0.33C17.928,24.015,17.792,24.04,17.614,24.04z M16.296,23.657
			h1.223c-0.016-0.23-0.078-0.402-0.186-0.518c-0.109-0.114-0.25-0.171-0.426-0.171c-0.168,0-0.307,0.058-0.414,0.174
			S16.319,23.43,16.296,23.657z"/>
		<path fill="#FFFFFF" d="M20.663,21.911v1.001c0.084-0.1,0.168-0.178,0.25-0.235s0.172-0.101,0.27-0.129
			c0.1-0.029,0.205-0.044,0.32-0.044c0.17,0,0.322,0.036,0.455,0.109c0.133,0.072,0.236,0.178,0.312,0.315
			c0.047,0.081,0.08,0.171,0.096,0.271s0.025,0.215,0.025,0.345v1.291c0,0.136-0.031,0.237-0.094,0.307
			c-0.061,0.069-0.143,0.104-0.246,0.104c-0.221,0-0.332-0.137-0.332-0.41v-1.138c0-0.216-0.033-0.382-0.098-0.498
			c-0.062-0.116-0.186-0.174-0.365-0.174c-0.119,0-0.229,0.034-0.324,0.103s-0.168,0.161-0.217,0.28
			c-0.035,0.101-0.053,0.279-0.053,0.536v0.891c0,0.134-0.031,0.235-0.092,0.306c-0.059,0.069-0.143,0.104-0.25,0.104
			c-0.223,0-0.334-0.137-0.334-0.41v-2.924c0-0.137,0.029-0.238,0.088-0.307s0.141-0.103,0.246-0.103
			c0.107,0,0.191,0.034,0.25,0.104C20.632,21.674,20.663,21.776,20.663,21.911z"/>
		<path fill="#FFFFFF" d="M25.581,23.875c0,0.2-0.031,0.386-0.094,0.556c-0.062,0.169-0.152,0.315-0.271,0.437
			c-0.119,0.122-0.26,0.216-0.424,0.28c-0.166,0.065-0.352,0.098-0.557,0.098c-0.203,0-0.387-0.033-0.551-0.099
			c-0.162-0.065-0.305-0.16-0.424-0.282c-0.119-0.123-0.209-0.268-0.271-0.436c-0.061-0.167-0.092-0.352-0.092-0.554
			c0-0.204,0.031-0.392,0.094-0.561c0.062-0.17,0.152-0.314,0.27-0.435s0.258-0.213,0.424-0.278c0.166-0.064,0.35-0.098,0.551-0.098
			c0.205,0,0.389,0.033,0.557,0.099c0.166,0.066,0.309,0.16,0.426,0.282c0.119,0.122,0.209,0.267,0.271,0.435
			C25.55,23.487,25.581,23.671,25.581,23.875z M24.905,23.875c0-0.275-0.061-0.489-0.182-0.643
			c-0.121-0.152-0.283-0.229-0.488-0.229c-0.131,0-0.248,0.034-0.348,0.103c-0.102,0.068-0.178,0.169-0.232,0.303
			c-0.055,0.133-0.082,0.289-0.082,0.467c0,0.176,0.027,0.33,0.08,0.462c0.055,0.132,0.131,0.232,0.23,0.302
			c0.1,0.07,0.217,0.105,0.352,0.105c0.205,0,0.367-0.077,0.488-0.231C24.844,24.359,24.905,24.146,24.905,23.875z"/>
		<path fill="#FFFFFF" d="M26.112,24.834v-2.924c0-0.135,0.029-0.236,0.09-0.306s0.141-0.104,0.244-0.104
			c0.102,0,0.184,0.034,0.246,0.103s0.094,0.17,0.094,0.307v2.924c0,0.137-0.031,0.239-0.094,0.308
			c-0.064,0.068-0.146,0.103-0.246,0.103s-0.18-0.035-0.242-0.106C26.143,25.068,26.112,24.966,26.112,24.834z"/>
		<path fill="#FFFFFF" d="M29.329,24.86v-0.067c-0.09,0.104-0.18,0.188-0.268,0.254c-0.088,0.064-0.184,0.114-0.287,0.147
			c-0.102,0.034-0.215,0.051-0.336,0.051c-0.162,0-0.311-0.034-0.449-0.103c-0.137-0.068-0.256-0.166-0.355-0.292
			c-0.102-0.127-0.178-0.276-0.229-0.447c-0.053-0.171-0.078-0.356-0.078-0.556c0-0.422,0.104-0.75,0.309-0.985
			s0.477-0.354,0.812-0.354c0.193,0,0.357,0.034,0.492,0.101c0.133,0.066,0.262,0.169,0.389,0.308v-0.995
			c0-0.139,0.027-0.243,0.084-0.314c0.055-0.07,0.133-0.105,0.234-0.105c0.104,0,0.182,0.032,0.236,0.098
			c0.055,0.064,0.082,0.16,0.082,0.287v2.974c0,0.128-0.029,0.225-0.088,0.289c-0.059,0.063-0.137,0.096-0.23,0.096
			c-0.092,0-0.168-0.033-0.229-0.1C29.36,25.079,29.329,24.983,29.329,24.86z M28.003,23.87c0,0.183,0.029,0.338,0.086,0.467
			c0.057,0.128,0.135,0.225,0.232,0.29c0.1,0.064,0.207,0.098,0.324,0.098c0.119,0,0.227-0.031,0.324-0.093s0.176-0.156,0.234-0.284
			s0.088-0.287,0.088-0.478c0-0.18-0.029-0.334-0.088-0.463c-0.059-0.13-0.137-0.229-0.236-0.297s-0.209-0.103-0.326-0.103
			c-0.125,0-0.234,0.035-0.332,0.105c-0.098,0.069-0.172,0.17-0.227,0.301C28.03,23.544,28.003,23.697,28.003,23.87z"/>
		<path fill="#FFFFFF" d="M32.327,22.923l0.441,1.507l0.398-1.4c0.043-0.146,0.074-0.247,0.096-0.3
			c0.021-0.054,0.059-0.104,0.115-0.153c0.059-0.049,0.135-0.073,0.234-0.073s0.18,0.024,0.236,0.073s0.096,0.102,0.119,0.158
			s0.055,0.155,0.096,0.295l0.4,1.4l0.445-1.507c0.029-0.108,0.053-0.188,0.07-0.235c0.02-0.049,0.049-0.092,0.092-0.129
			s0.105-0.056,0.186-0.056s0.15,0.028,0.209,0.084c0.061,0.057,0.09,0.122,0.09,0.198c0,0.068-0.025,0.173-0.076,0.313
			l-0.551,1.615c-0.049,0.136-0.086,0.235-0.111,0.296c-0.027,0.061-0.068,0.115-0.125,0.163s-0.135,0.071-0.232,0.071
			c-0.104,0-0.184-0.025-0.242-0.076s-0.102-0.113-0.129-0.188s-0.059-0.171-0.092-0.289l-0.385-1.314l-0.373,1.314
			c-0.049,0.183-0.104,0.32-0.16,0.413c-0.059,0.094-0.16,0.14-0.305,0.14c-0.074,0-0.137-0.015-0.188-0.043
			c-0.053-0.029-0.096-0.07-0.131-0.123c-0.033-0.054-0.064-0.117-0.092-0.19c-0.025-0.073-0.047-0.132-0.061-0.174l-0.547-1.615
			c-0.053-0.151-0.08-0.256-0.08-0.313c0-0.073,0.027-0.138,0.086-0.195c0.057-0.058,0.129-0.087,0.213-0.087
			c0.111,0,0.188,0.032,0.227,0.096S32.284,22.77,32.327,22.923z"/>
		<path fill="#FFFFFF" d="M36.678,21.911v1.001c0.086-0.1,0.17-0.178,0.25-0.235c0.082-0.058,0.172-0.101,0.271-0.129
			c0.098-0.029,0.205-0.044,0.318-0.044c0.172,0,0.322,0.036,0.455,0.109c0.133,0.072,0.236,0.178,0.312,0.315
			c0.049,0.081,0.08,0.171,0.098,0.271c0.016,0.1,0.023,0.215,0.023,0.345v1.291c0,0.136-0.031,0.237-0.092,0.307
			c-0.062,0.069-0.145,0.104-0.246,0.104c-0.223,0-0.334-0.137-0.334-0.41v-1.138c0-0.216-0.031-0.382-0.096-0.498
			s-0.186-0.174-0.365-0.174c-0.121,0-0.229,0.034-0.324,0.103c-0.098,0.068-0.17,0.161-0.217,0.28
			c-0.037,0.101-0.055,0.279-0.055,0.536v0.891c0,0.134-0.029,0.235-0.09,0.306c-0.061,0.069-0.145,0.104-0.25,0.104
			c-0.223,0-0.334-0.137-0.334-0.41v-2.924c0-0.137,0.029-0.238,0.088-0.307s0.141-0.103,0.246-0.103s0.189,0.034,0.25,0.104
			S36.678,21.776,36.678,21.911z"/>
		<path fill="#FFFFFF" d="M39.415,22.19c-0.094,0-0.174-0.028-0.24-0.086s-0.1-0.14-0.1-0.245c0-0.095,0.033-0.174,0.102-0.235
			s0.148-0.093,0.238-0.093c0.088,0,0.164,0.028,0.232,0.084c0.066,0.056,0.102,0.138,0.102,0.244c0,0.104-0.033,0.186-0.1,0.243
			C39.583,22.161,39.505,22.19,39.415,22.19z M39.749,22.886v1.948c0,0.136-0.033,0.237-0.098,0.307
			c-0.062,0.069-0.145,0.104-0.244,0.104c-0.098,0-0.178-0.035-0.24-0.106c-0.062-0.07-0.092-0.172-0.092-0.304v-1.929
			c0-0.133,0.029-0.233,0.092-0.301s0.143-0.102,0.24-0.102c0.1,0,0.182,0.034,0.244,0.102
			C39.716,22.672,39.749,22.766,39.749,22.886z"/>
		<path fill="#FFFFFF" d="M40.446,24.834v-2.924c0-0.135,0.029-0.236,0.09-0.306c0.059-0.069,0.141-0.104,0.242-0.104
			s0.186,0.034,0.248,0.103s0.094,0.17,0.094,0.307v2.924c0,0.137-0.033,0.239-0.096,0.308s-0.145,0.103-0.246,0.103
			c-0.098,0-0.178-0.035-0.24-0.106C40.475,25.068,40.446,24.966,40.446,24.834z"/>
		<path fill="#FFFFFF" d="M43.696,24.04h-1.318c0.002,0.153,0.033,0.288,0.094,0.405c0.059,0.117,0.139,0.205,0.238,0.264
			c0.1,0.06,0.211,0.09,0.33,0.09c0.08,0,0.154-0.01,0.221-0.029c0.066-0.019,0.133-0.048,0.195-0.089
			c0.062-0.04,0.119-0.083,0.172-0.129c0.053-0.047,0.121-0.109,0.205-0.188c0.035-0.029,0.084-0.044,0.148-0.044
			c0.068,0,0.125,0.019,0.168,0.057s0.064,0.092,0.064,0.16c0,0.062-0.023,0.133-0.072,0.214c-0.047,0.082-0.119,0.16-0.217,0.234
			c-0.096,0.075-0.217,0.138-0.361,0.187c-0.146,0.05-0.314,0.074-0.504,0.074c-0.432,0-0.77-0.123-1.01-0.37
			s-0.359-0.582-0.359-1.005c0-0.199,0.029-0.385,0.088-0.555s0.146-0.316,0.26-0.438s0.254-0.215,0.42-0.28
			c0.166-0.064,0.35-0.098,0.553-0.098c0.264,0,0.49,0.056,0.678,0.167c0.189,0.111,0.33,0.255,0.424,0.431
			c0.094,0.177,0.141,0.355,0.141,0.538c0,0.17-0.049,0.28-0.146,0.33C44.01,24.015,43.874,24.04,43.696,24.04z M42.378,23.657H43.6
			c-0.016-0.23-0.078-0.402-0.186-0.518c-0.109-0.114-0.25-0.171-0.426-0.171c-0.168,0-0.307,0.058-0.414,0.174
			S42.401,23.43,42.378,23.657z"/>
		<path fill="#FFFFFF" d="M2.313,30.867v-2.852c0-0.148,0.033-0.26,0.102-0.334c0.068-0.074,0.154-0.111,0.262-0.111
			c0.111,0,0.199,0.036,0.268,0.109c0.068,0.074,0.104,0.186,0.104,0.336v2.852c0,0.15-0.035,0.262-0.104,0.336
			s-0.156,0.111-0.268,0.111c-0.105,0-0.191-0.037-0.26-0.113C2.348,31.127,2.313,31.016,2.313,30.867z"/>
		<path fill="#FFFFFF" d="M5.122,28.633h0.074v-0.406c0-0.107,0.002-0.193,0.008-0.254c0.006-0.062,0.023-0.115,0.049-0.16
			c0.025-0.047,0.064-0.084,0.113-0.113c0.049-0.027,0.105-0.042,0.166-0.042c0.086,0,0.162,0.033,0.232,0.097
			c0.045,0.043,0.074,0.094,0.088,0.156c0.012,0.062,0.018,0.148,0.018,0.264v0.459h0.248c0.094,0,0.168,0.021,0.217,0.068
			c0.051,0.045,0.076,0.102,0.076,0.174c0,0.09-0.035,0.152-0.107,0.189s-0.174,0.055-0.307,0.055H5.87v1.24
			c0,0.104,0.004,0.186,0.012,0.242s0.027,0.104,0.059,0.139c0.033,0.035,0.084,0.053,0.156,0.053c0.041,0,0.094-0.006,0.162-0.021
			c0.066-0.014,0.119-0.02,0.158-0.02c0.053,0,0.102,0.021,0.146,0.064c0.043,0.043,0.064,0.098,0.064,0.162
			c0,0.109-0.059,0.191-0.178,0.25c-0.117,0.057-0.289,0.086-0.51,0.086c-0.211,0-0.371-0.035-0.48-0.107
			c-0.107-0.07-0.18-0.168-0.213-0.293s-0.051-0.293-0.051-0.502v-1.293h-0.09c-0.096,0-0.17-0.023-0.221-0.07
			c-0.053-0.045-0.078-0.104-0.078-0.174c0-0.072,0.027-0.129,0.082-0.174C4.942,28.654,5.02,28.633,5.122,28.633z"/>
		<path fill="#FFFFFF" d="M7.544,30.342v0.562c0,0.137-0.031,0.238-0.096,0.307s-0.146,0.104-0.244,0.104s-0.178-0.035-0.24-0.104
			c-0.062-0.07-0.094-0.172-0.094-0.307v-1.877c0-0.303,0.109-0.455,0.328-0.455c0.111,0,0.193,0.037,0.242,0.107
			s0.076,0.176,0.082,0.312c0.08-0.137,0.162-0.242,0.248-0.312c0.084-0.07,0.197-0.107,0.34-0.107c0.141,0,0.279,0.037,0.412,0.107
			s0.199,0.164,0.199,0.281c0,0.082-0.027,0.15-0.084,0.203c-0.057,0.055-0.119,0.08-0.186,0.08c-0.023,0-0.084-0.014-0.178-0.045
			c-0.096-0.031-0.178-0.045-0.252-0.045c-0.098,0-0.178,0.025-0.24,0.076c-0.062,0.053-0.111,0.129-0.146,0.232
			c-0.035,0.102-0.059,0.223-0.072,0.363C7.552,29.967,7.544,30.139,7.544,30.342z"/>
		<path fill="#FFFFFF" d="M9.712,31.398l0.062-0.15l-0.83-2.09c-0.051-0.119-0.076-0.207-0.076-0.262
			c0-0.057,0.014-0.111,0.043-0.16c0.031-0.049,0.072-0.09,0.123-0.119c0.053-0.029,0.105-0.045,0.162-0.045
			c0.098,0,0.17,0.031,0.219,0.094c0.051,0.061,0.094,0.15,0.131,0.266l0.572,1.658l0.539-1.543
			c0.043-0.125,0.082-0.223,0.117-0.293c0.035-0.072,0.07-0.119,0.109-0.145c0.039-0.023,0.094-0.037,0.164-0.037
			c0.051,0,0.1,0.014,0.146,0.041s0.084,0.064,0.109,0.111c0.025,0.045,0.039,0.094,0.039,0.145
			c-0.008,0.031-0.018,0.076-0.033,0.133c-0.014,0.059-0.033,0.117-0.055,0.176l-0.879,2.303c-0.076,0.201-0.148,0.361-0.223,0.477
			c-0.072,0.115-0.168,0.203-0.287,0.266c-0.119,0.061-0.279,0.092-0.482,0.092c-0.197,0-0.346-0.021-0.445-0.064
			c-0.098-0.043-0.146-0.121-0.146-0.234c0-0.078,0.023-0.137,0.07-0.18c0.047-0.041,0.115-0.062,0.207-0.062
			c0.037,0,0.072,0.006,0.107,0.016c0.043,0.01,0.08,0.014,0.111,0.014c0.076,0,0.137-0.012,0.182-0.033
			c0.045-0.023,0.084-0.064,0.121-0.121C9.626,31.592,9.667,31.508,9.712,31.398z"/>
		<path fill="#FFFFFF" d="M13.132,28.633h0.074v-0.406c0-0.107,0.004-0.193,0.01-0.254c0.006-0.062,0.021-0.115,0.049-0.16
			c0.025-0.047,0.062-0.084,0.113-0.113c0.049-0.027,0.104-0.042,0.164-0.042c0.086,0,0.164,0.033,0.232,0.097
			c0.047,0.043,0.076,0.094,0.088,0.156s0.02,0.148,0.02,0.264v0.459h0.246c0.096,0,0.168,0.021,0.219,0.068
			c0.051,0.045,0.074,0.102,0.074,0.174c0,0.09-0.035,0.152-0.107,0.189c-0.07,0.037-0.174,0.055-0.307,0.055h-0.125v1.24
			c0,0.104,0.002,0.186,0.01,0.242s0.027,0.104,0.061,0.139c0.031,0.035,0.084,0.053,0.156,0.053c0.039,0,0.094-0.006,0.16-0.021
			c0.068-0.014,0.121-0.02,0.158-0.02c0.055,0,0.104,0.021,0.146,0.064c0.045,0.043,0.066,0.098,0.066,0.162
			c0,0.109-0.061,0.191-0.178,0.25c-0.119,0.057-0.289,0.086-0.512,0.086c-0.211,0-0.371-0.035-0.479-0.107
			c-0.109-0.07-0.18-0.168-0.215-0.293c-0.033-0.125-0.051-0.293-0.051-0.502v-1.293h-0.088c-0.098,0-0.172-0.023-0.223-0.07
			c-0.051-0.045-0.076-0.104-0.076-0.174c0-0.072,0.027-0.129,0.08-0.174C12.952,28.654,13.03,28.633,13.132,28.633z"/>
		<path fill="#FFFFFF" d="M17.409,29.943c0,0.201-0.031,0.387-0.094,0.557c-0.062,0.168-0.152,0.314-0.271,0.436
			c-0.119,0.123-0.26,0.217-0.424,0.281c-0.166,0.064-0.352,0.098-0.557,0.098c-0.203,0-0.387-0.033-0.551-0.1
			c-0.162-0.064-0.305-0.16-0.424-0.281c-0.119-0.123-0.209-0.268-0.271-0.436c-0.061-0.168-0.092-0.352-0.092-0.555
			s0.031-0.391,0.094-0.561s0.152-0.314,0.27-0.434c0.117-0.121,0.258-0.213,0.424-0.279c0.166-0.064,0.35-0.098,0.551-0.098
			c0.205,0,0.389,0.033,0.557,0.1c0.166,0.066,0.309,0.16,0.426,0.281c0.119,0.123,0.209,0.268,0.271,0.436
			C17.378,29.557,17.409,29.74,17.409,29.943z M16.733,29.943c0-0.275-0.061-0.488-0.182-0.643
			c-0.121-0.152-0.283-0.229-0.488-0.229c-0.131,0-0.248,0.033-0.348,0.102c-0.102,0.068-0.178,0.17-0.232,0.303
			s-0.082,0.289-0.082,0.467c0,0.176,0.027,0.33,0.08,0.463c0.055,0.131,0.131,0.232,0.23,0.301c0.1,0.07,0.217,0.105,0.352,0.105
			c0.205,0,0.367-0.076,0.488-0.23S16.733,30.215,16.733,29.943z"/>
		<path fill="#FFFFFF" d="M21.622,30.48c0,0.082-0.025,0.172-0.074,0.268c-0.051,0.096-0.127,0.188-0.23,0.273
			c-0.102,0.086-0.232,0.156-0.389,0.209s-0.332,0.078-0.529,0.078c-0.416,0-0.74-0.121-0.975-0.363s-0.35-0.568-0.35-0.977
			c0-0.277,0.053-0.521,0.16-0.734c0.105-0.211,0.262-0.377,0.463-0.492c0.203-0.115,0.445-0.174,0.727-0.174
			c0.174,0,0.334,0.025,0.48,0.076s0.27,0.117,0.371,0.197c0.102,0.082,0.178,0.168,0.232,0.258c0.053,0.092,0.08,0.178,0.08,0.256
			c0,0.082-0.031,0.15-0.092,0.205c-0.059,0.057-0.133,0.084-0.217,0.084c-0.057,0-0.104-0.014-0.141-0.043
			s-0.078-0.076-0.125-0.139c-0.082-0.125-0.168-0.221-0.258-0.283s-0.203-0.094-0.342-0.094c-0.199,0-0.359,0.078-0.48,0.234
			c-0.123,0.156-0.184,0.367-0.184,0.639c0,0.127,0.016,0.242,0.047,0.35c0.031,0.105,0.076,0.195,0.137,0.271
			c0.059,0.074,0.131,0.131,0.215,0.17s0.176,0.059,0.275,0.059c0.135,0,0.25-0.031,0.348-0.094
			c0.096-0.062,0.182-0.158,0.256-0.287c0.041-0.076,0.084-0.135,0.133-0.178c0.047-0.043,0.105-0.064,0.176-0.064
			c0.082,0,0.15,0.031,0.205,0.094C21.594,30.342,21.622,30.408,21.622,30.48z"/>
		<path fill="#FFFFFF" d="M24.733,29.943c0,0.201-0.031,0.387-0.094,0.557c-0.062,0.168-0.152,0.314-0.271,0.436
			c-0.119,0.123-0.26,0.217-0.424,0.281c-0.166,0.064-0.352,0.098-0.557,0.098c-0.203,0-0.387-0.033-0.551-0.1
			c-0.162-0.064-0.305-0.16-0.424-0.281c-0.119-0.123-0.209-0.268-0.271-0.436c-0.061-0.168-0.092-0.352-0.092-0.555
			s0.031-0.391,0.094-0.561s0.152-0.314,0.27-0.434c0.117-0.121,0.258-0.213,0.424-0.279c0.166-0.064,0.35-0.098,0.551-0.098
			c0.205,0,0.389,0.033,0.557,0.1c0.166,0.066,0.309,0.16,0.426,0.281c0.119,0.123,0.209,0.268,0.271,0.436
			C24.702,29.557,24.733,29.74,24.733,29.943z M24.057,29.943c0-0.275-0.061-0.488-0.182-0.643
			c-0.121-0.152-0.283-0.229-0.488-0.229c-0.131,0-0.248,0.033-0.348,0.102c-0.102,0.068-0.178,0.17-0.232,0.303
			s-0.082,0.289-0.082,0.467c0,0.176,0.027,0.33,0.08,0.463c0.055,0.131,0.131,0.232,0.23,0.301c0.1,0.07,0.217,0.105,0.352,0.105
			c0.205,0,0.367-0.076,0.488-0.23S24.057,30.215,24.057,29.943z"/>
		<path fill="#FFFFFF" d="M25.878,28.945v0.082c0.117-0.156,0.248-0.271,0.389-0.344c0.141-0.074,0.303-0.111,0.484-0.111
			c0.178,0,0.338,0.039,0.477,0.117c0.141,0.076,0.244,0.188,0.314,0.328c0.045,0.082,0.072,0.172,0.086,0.268
			c0.014,0.094,0.02,0.217,0.02,0.365v1.254c0,0.135-0.031,0.236-0.092,0.307c-0.062,0.068-0.143,0.104-0.242,0.104
			s-0.182-0.035-0.244-0.107c-0.062-0.07-0.094-0.172-0.094-0.303v-1.123c0-0.223-0.031-0.393-0.092-0.51
			c-0.062-0.119-0.186-0.178-0.369-0.178c-0.121,0-0.23,0.037-0.328,0.107c-0.1,0.072-0.172,0.17-0.219,0.295
			c-0.031,0.102-0.049,0.289-0.049,0.564v0.844c0,0.137-0.031,0.238-0.096,0.307c-0.062,0.068-0.145,0.104-0.244,0.104
			c-0.098,0-0.178-0.035-0.24-0.107c-0.062-0.07-0.094-0.172-0.094-0.303v-1.949c0-0.127,0.027-0.223,0.084-0.287
			c0.057-0.062,0.133-0.096,0.229-0.096c0.061,0,0.113,0.016,0.162,0.043c0.047,0.027,0.086,0.07,0.113,0.125
			C25.862,28.797,25.878,28.865,25.878,28.945z"/>
		<path fill="#FFFFFF" d="M28.932,28.945v0.082c0.119-0.156,0.248-0.271,0.389-0.344c0.141-0.074,0.303-0.111,0.486-0.111
			c0.178,0,0.336,0.039,0.477,0.117c0.139,0.076,0.244,0.188,0.312,0.328c0.045,0.082,0.074,0.172,0.088,0.268
			c0.012,0.094,0.02,0.217,0.02,0.365v1.254c0,0.135-0.031,0.236-0.094,0.307c-0.061,0.068-0.141,0.104-0.24,0.104
			s-0.182-0.035-0.244-0.107c-0.062-0.07-0.094-0.172-0.094-0.303v-1.123c0-0.223-0.031-0.393-0.094-0.51
			c-0.061-0.119-0.184-0.178-0.369-0.178c-0.119,0-0.229,0.037-0.328,0.107c-0.098,0.072-0.172,0.17-0.217,0.295
			c-0.033,0.102-0.049,0.289-0.049,0.564v0.844c0,0.137-0.033,0.238-0.096,0.307c-0.064,0.068-0.145,0.104-0.246,0.104
			c-0.098,0-0.178-0.035-0.24-0.107c-0.062-0.07-0.094-0.172-0.094-0.303v-1.949c0-0.127,0.029-0.223,0.084-0.287
			c0.057-0.062,0.133-0.096,0.23-0.096c0.059,0,0.113,0.016,0.16,0.043c0.049,0.027,0.086,0.07,0.115,0.125
			C28.919,28.797,28.932,28.865,28.932,28.945z"/>
		<path fill="#FFFFFF" d="M33.257,30.109h-1.318c0.002,0.152,0.031,0.287,0.092,0.404s0.141,0.205,0.24,0.264
			c0.1,0.061,0.209,0.09,0.33,0.09c0.08,0,0.154-0.01,0.221-0.029c0.066-0.018,0.131-0.047,0.193-0.088s0.121-0.084,0.174-0.129
			c0.053-0.047,0.121-0.109,0.205-0.189c0.033-0.029,0.084-0.043,0.146-0.043c0.07,0,0.125,0.018,0.168,0.057
			c0.043,0.037,0.064,0.092,0.064,0.16c0,0.061-0.023,0.133-0.07,0.213c-0.049,0.082-0.121,0.16-0.217,0.234
			c-0.096,0.076-0.217,0.139-0.363,0.188s-0.312,0.074-0.502,0.074c-0.434,0-0.77-0.123-1.01-0.371
			c-0.24-0.246-0.361-0.582-0.361-1.004c0-0.199,0.029-0.385,0.09-0.555c0.059-0.17,0.145-0.316,0.258-0.439
			c0.113-0.121,0.254-0.215,0.42-0.279s0.352-0.098,0.553-0.098c0.264,0,0.49,0.055,0.68,0.166c0.188,0.111,0.328,0.256,0.422,0.432
			s0.141,0.355,0.141,0.537c0,0.17-0.047,0.281-0.145,0.33C33.569,30.084,33.432,30.109,33.257,30.109z M31.938,29.727h1.223
			c-0.018-0.23-0.08-0.402-0.188-0.518s-0.25-0.172-0.426-0.172c-0.168,0-0.305,0.059-0.414,0.174
			C32.026,29.328,31.962,29.5,31.938,29.727z"/>
		<path fill="#FFFFFF" d="M36.798,30.48c0,0.082-0.025,0.172-0.076,0.268c-0.049,0.096-0.127,0.188-0.229,0.273
			c-0.104,0.086-0.232,0.156-0.389,0.209c-0.158,0.053-0.334,0.078-0.529,0.078c-0.416,0-0.742-0.121-0.975-0.363
			c-0.234-0.242-0.352-0.568-0.352-0.977c0-0.277,0.053-0.521,0.16-0.734c0.107-0.211,0.262-0.377,0.465-0.492
			s0.443-0.174,0.727-0.174c0.174,0,0.334,0.025,0.48,0.076c0.145,0.051,0.268,0.117,0.369,0.197
			c0.102,0.082,0.18,0.168,0.232,0.258c0.053,0.092,0.08,0.178,0.08,0.256c0,0.082-0.029,0.15-0.09,0.205
			c-0.061,0.057-0.133,0.084-0.219,0.084c-0.057,0-0.102-0.014-0.139-0.043s-0.08-0.076-0.125-0.139
			c-0.082-0.125-0.168-0.221-0.258-0.283s-0.205-0.094-0.342-0.094c-0.199,0-0.361,0.078-0.482,0.234s-0.184,0.367-0.184,0.639
			c0,0.127,0.016,0.242,0.047,0.35c0.031,0.105,0.078,0.195,0.137,0.271c0.059,0.074,0.131,0.131,0.215,0.17
			s0.176,0.059,0.277,0.059c0.135,0,0.25-0.031,0.346-0.094c0.098-0.062,0.182-0.158,0.256-0.287
			c0.041-0.076,0.086-0.135,0.133-0.178c0.049-0.043,0.107-0.064,0.176-0.064c0.082,0,0.15,0.031,0.205,0.094
			S36.798,30.408,36.798,30.48z"/>
		<path fill="#FFFFFF" d="M37.423,28.633h0.074v-0.406c0-0.107,0.002-0.193,0.008-0.254c0.006-0.062,0.023-0.115,0.049-0.16
			c0.025-0.047,0.064-0.084,0.113-0.113c0.049-0.027,0.105-0.042,0.166-0.042c0.086,0,0.162,0.033,0.232,0.097
			c0.045,0.043,0.074,0.094,0.088,0.156c0.012,0.062,0.018,0.148,0.018,0.264v0.459h0.248c0.094,0,0.168,0.021,0.217,0.068
			c0.051,0.045,0.076,0.102,0.076,0.174c0,0.09-0.035,0.152-0.107,0.189s-0.174,0.055-0.307,0.055h-0.127v1.24
			c0,0.104,0.004,0.186,0.012,0.242s0.027,0.104,0.059,0.139c0.033,0.035,0.084,0.053,0.156,0.053c0.041,0,0.094-0.006,0.162-0.021
			c0.066-0.014,0.119-0.02,0.158-0.02c0.053,0,0.102,0.021,0.146,0.064c0.043,0.043,0.064,0.098,0.064,0.162
			c0,0.109-0.059,0.191-0.178,0.25c-0.117,0.057-0.289,0.086-0.51,0.086c-0.211,0-0.371-0.035-0.48-0.107
			c-0.107-0.07-0.18-0.168-0.213-0.293s-0.051-0.293-0.051-0.502v-1.293h-0.09c-0.096,0-0.17-0.023-0.221-0.07
			c-0.053-0.045-0.078-0.104-0.078-0.174c0-0.072,0.027-0.129,0.082-0.174C37.243,28.654,37.321,28.633,37.423,28.633z"/>
		<path fill="#FFFFFF" d="M41.063,31.398l0.061-0.15l-0.83-2.09c-0.051-0.119-0.076-0.207-0.076-0.262
			c0-0.057,0.016-0.111,0.045-0.16s0.07-0.09,0.123-0.119c0.051-0.029,0.105-0.045,0.16-0.045c0.098,0,0.172,0.031,0.221,0.094
			c0.049,0.061,0.094,0.15,0.131,0.266l0.57,1.658l0.541-1.543c0.043-0.125,0.082-0.223,0.115-0.293
			c0.035-0.072,0.072-0.119,0.111-0.145c0.037-0.023,0.092-0.037,0.164-0.037c0.051,0,0.1,0.014,0.146,0.041
			s0.082,0.064,0.109,0.111c0.025,0.045,0.037,0.094,0.037,0.145c-0.006,0.031-0.018,0.076-0.031,0.133
			c-0.016,0.059-0.033,0.117-0.055,0.176l-0.879,2.303c-0.076,0.201-0.15,0.361-0.223,0.477s-0.168,0.203-0.287,0.266
			c-0.119,0.061-0.281,0.092-0.484,0.092c-0.197,0-0.346-0.021-0.443-0.064c-0.1-0.043-0.148-0.121-0.148-0.234
			c0-0.078,0.023-0.137,0.07-0.18c0.047-0.041,0.117-0.062,0.209-0.062c0.035,0,0.072,0.006,0.105,0.016
			c0.043,0.01,0.08,0.014,0.111,0.014c0.078,0,0.139-0.012,0.184-0.033c0.043-0.023,0.084-0.064,0.119-0.121
			S41.016,31.508,41.063,31.398z"/>
		<path fill="#FFFFFF" d="M45.637,29.943c0,0.201-0.031,0.387-0.094,0.557c-0.062,0.168-0.152,0.314-0.271,0.436
			c-0.119,0.123-0.26,0.217-0.424,0.281c-0.166,0.064-0.352,0.098-0.557,0.098c-0.203,0-0.387-0.033-0.551-0.1
			c-0.162-0.064-0.305-0.16-0.424-0.281c-0.119-0.123-0.209-0.268-0.271-0.436c-0.061-0.168-0.092-0.352-0.092-0.555
			s0.031-0.391,0.094-0.561s0.152-0.314,0.27-0.434c0.117-0.121,0.258-0.213,0.424-0.279c0.166-0.064,0.35-0.098,0.551-0.098
			c0.205,0,0.389,0.033,0.557,0.1c0.166,0.066,0.309,0.16,0.426,0.281c0.119,0.123,0.209,0.268,0.271,0.436
			C45.606,29.557,45.637,29.74,45.637,29.943z M44.962,29.943c0-0.275-0.061-0.488-0.182-0.643
			c-0.121-0.152-0.283-0.229-0.488-0.229c-0.131,0-0.248,0.033-0.348,0.102c-0.102,0.068-0.178,0.17-0.232,0.303
			s-0.082,0.289-0.082,0.467c0,0.176,0.027,0.33,0.08,0.463c0.055,0.131,0.131,0.232,0.23,0.301c0.1,0.07,0.217,0.105,0.352,0.105
			c0.205,0,0.367-0.076,0.488-0.23S44.962,30.215,44.962,29.943z"/>
		<path fill="#FFFFFF" d="M47.919,30.934v-0.086c-0.08,0.102-0.164,0.188-0.254,0.256c-0.088,0.07-0.186,0.121-0.291,0.154
			c-0.105,0.035-0.225,0.051-0.361,0.051c-0.162,0-0.309-0.033-0.438-0.102c-0.129-0.066-0.229-0.16-0.301-0.277
			c-0.084-0.145-0.125-0.35-0.125-0.617v-1.338c0-0.135,0.029-0.234,0.092-0.301c0.061-0.068,0.141-0.102,0.242-0.102
			s0.184,0.035,0.246,0.102c0.062,0.068,0.094,0.168,0.094,0.301v1.08c0,0.156,0.014,0.287,0.039,0.395
			c0.027,0.105,0.074,0.189,0.143,0.248c0.068,0.061,0.16,0.092,0.277,0.092c0.113,0,0.221-0.035,0.322-0.102
			c0.1-0.068,0.174-0.156,0.219-0.266c0.039-0.094,0.057-0.305,0.057-0.627v-0.82c0-0.133,0.031-0.232,0.094-0.301
			c0.062-0.066,0.145-0.102,0.244-0.102c0.102,0,0.182,0.033,0.242,0.102c0.062,0.066,0.092,0.166,0.092,0.301v1.955
			c0,0.127-0.029,0.225-0.088,0.289c-0.059,0.062-0.133,0.096-0.225,0.096c-0.094,0-0.17-0.033-0.229-0.1
			C47.95,31.148,47.919,31.055,47.919,30.934z"/>
	</g>
	<g>
		
			<radialGradient id="SVGID_1_" cx="1605.0095" cy="-452.1387" r="26.7325" gradientTransform="matrix(0.2564 0 0 0.0996 -329.7961 78.5539)" gradientUnits="userSpaceOnUse">
			<stop  offset="0" style="stop-color:#A9A9AA"/>
			<stop  offset="0.0541" style="stop-color:#B6BAB4"/>
			<stop  offset="0.2086" style="stop-color:#D9E9CF"/>
			<stop  offset="0.3252" style="stop-color:#E4EFDD"/>
			<stop  offset="0.5432" style="stop-color:#F3F8F0"/>
			<stop  offset="0.7662" style="stop-color:#FCFDFB"/>
			<stop  offset="1" style="stop-color:#FFFFFF"/>
		</radialGradient>
		<ellipse fill="url(#SVGID_1_)" cx="81.798" cy="33.537" rx="6.967" ry="2.943"/>
		<g>
			<g>
				<polygon fill="#FFFFFF" points="81.481,26.131 78.509,24.559 78.665,20.352 82.057,21.499 				"/>
				<path fill="#1D1E1C" d="M81.481,26.29c-0.025,0-0.051-0.006-0.074-0.019l-2.973-1.572c-0.054-0.028-0.086-0.085-0.084-0.146
					l0.156-4.207c0.002-0.05,0.027-0.096,0.068-0.124s0.093-0.035,0.141-0.02l3.393,1.146c0.071,0.024,0.115,0.095,0.106,0.169
					l-0.576,4.633c-0.007,0.051-0.038,0.097-0.084,0.121C81.531,26.283,81.507,26.29,81.481,26.29z M78.67,24.466l2.683,1.419
					l0.532-4.278l-3.069-1.038L78.67,24.466z"/>
			</g>
			<polygon fill="#1D1E1C" points="79.825,22.622 79.2,22.328 79.384,22.129 79.837,22.36 			"/>
			<polygon fill="#1D1E1C" points="81.061,23.09 80.495,22.831 80.44,22.527 80.975,22.756 			"/>
			<polygon fill="#1D1E1C" points="80.327,24.346 79.575,23.98 79.409,23.436 80.581,23.98 			"/>
			<g>
				<polygon fill="#FFFFFF" points="82.057,21.499 78.665,20.352 81.768,20.487 84.466,21.499 				"/>
				<path fill="#1D1E1C" d="M84.473,21.657c-0.002,0-0.005,0-0.008,0h-2.408c-0.018,0-0.034-0.003-0.051-0.008l-3.393-1.146
					c-0.074-0.025-0.119-0.102-0.104-0.179c0.015-0.078,0.064-0.131,0.162-0.129l3.104,0.135c0.017,0,0.033,0.004,0.049,0.01
					l2.676,1.004c0.075,0.013,0.132,0.078,0.132,0.156C84.632,21.586,84.56,21.657,84.473,21.657z M82.084,21.34h1.511l-1.858-0.697
					l-1.968-0.085L82.084,21.34z"/>
			</g>
			<g>
				<polygon fill="#FFFFFF" points="83.862,25.533 81.481,26.131 82.034,21.499 84.466,21.499 				"/>
				<path fill="#1D1E1C" d="M81.481,26.29c-0.038,0-0.075-0.014-0.104-0.04c-0.039-0.034-0.059-0.086-0.053-0.137l0.553-4.633
					c0.01-0.08,0.077-0.14,0.157-0.14h2.432c0.046,0,0.09,0.02,0.12,0.055c0.029,0.035,0.043,0.081,0.036,0.126l-0.604,4.034
					c-0.01,0.063-0.056,0.114-0.118,0.13l-2.381,0.599C81.507,26.288,81.494,26.29,81.481,26.29z M82.175,21.657l-0.51,4.266
					l2.057-0.517l0.561-3.749H82.175z"/>
			</g>
			<path fill="#1D1E1C" d="M77.981,29.034c-0.896,0-1.576-0.944-1.605-0.985c-0.051-0.07-0.034-0.17,0.037-0.22
				c0.07-0.05,0.169-0.034,0.221,0.036c0.006,0.01,0.614,0.856,1.369,0.853c0.406-0.009,0.788-0.285,1.135-0.819
				c0.048-0.074,0.146-0.096,0.219-0.047c0.073,0.047,0.094,0.145,0.047,0.219c-0.407,0.628-0.877,0.952-1.395,0.963
				C78,29.033,77.99,29.034,77.981,29.034z"/>
			<path fill="#1D1E1C" d="M83.069,29.83c-0.05,0-0.099-0.023-0.129-0.066c-0.051-0.072-0.033-0.17,0.038-0.221
				c1.443-1.015,1.539-1.471,1.514-1.619c-0.023-0.129-0.173-0.171-0.18-0.173c-0.084-0.022-0.134-0.109-0.112-0.193
				s0.107-0.132,0.19-0.113c0.13,0.033,0.363,0.158,0.411,0.42c0.087,0.465-0.45,1.1-1.642,1.937
				C83.133,29.82,83.1,29.83,83.069,29.83z"/>
			
				<ellipse transform="matrix(0.9243 0.3816 -0.3816 0.9243 15.4765 -29.8398)" fill="#1D1E1C" cx="82.971" cy="24.1" rx="0.788" ry="1.079"/>
			<path fill="#1D1E1C" d="M83.153,24.396c-0.014,0-0.027-0.003-0.04-0.011c-0.037-0.022-0.05-0.071-0.028-0.108
				c0.336-0.574,0.521-1.321,0.521-2.104c0-1.71-0.876-3.101-1.952-3.101c-0.627,0-1.22,0.485-1.586,1.298
				c-0.02,0.039-0.064,0.056-0.104,0.04c-0.04-0.018-0.058-0.065-0.04-0.104c0.393-0.872,1.039-1.392,1.73-1.392
				c1.164,0,2.11,1.462,2.11,3.259c0,0.811-0.192,1.586-0.542,2.185C83.207,24.382,83.18,24.396,83.153,24.396z"/>
			
				<path fill="none" stroke="#1D1E1C" stroke-width="0.316" stroke-linecap="round" stroke-linejoin="round" stroke-miterlimit="10" d="
				M83.153,24.317"/>
			<path fill="#1D1E1C" d="M82.971,20.069c-0.094,0-0.187-0.042-0.248-0.121c-0.471-0.598-1.152-0.742-1.773-0.382
				c-0.152,0.087-0.345,0.035-0.432-0.115c-0.088-0.151-0.036-0.345,0.115-0.432c0.906-0.523,1.919-0.31,2.586,0.538
				c0.108,0.137,0.084,0.336-0.053,0.444C83.109,20.047,83.04,20.069,82.971,20.069z"/>
			<path fill="#1D1E1C" d="M78.977,25.922c-0.162,0.192-0.5,0.176-0.76-0.041c-0.256-0.213-0.338-0.544-0.178-0.737
				c0.162-0.193,0.502-0.175,0.76,0.041C79.059,25.399,79.137,25.729,78.977,25.922z"/>
			
				<ellipse transform="matrix(0.9242 0.382 -0.382 0.9242 15.554 -29.9268)" fill="#FFFFFF" cx="83.144" cy="24.208" rx="0.348" ry="0.532"/>
			<path fill="#1D1E1C" d="M80.224,26.209c-0.594,0-1.185-0.205-1.762-0.612c-0.035-0.025-0.044-0.074-0.019-0.11
				c0.025-0.037,0.072-0.044,0.11-0.019c0.688,0.485,1.394,0.67,2.097,0.546c1.261-0.222,2.164-1.349,2.494-1.822
				c0.023-0.037,0.072-0.045,0.109-0.02c0.036,0.025,0.045,0.074,0.02,0.11c-0.341,0.491-1.277,1.656-2.596,1.888
				C80.527,26.196,80.376,26.209,80.224,26.209z"/>
			<path fill="#1D1E1C" d="M76.743,29.102c-0.002,0-0.006,0.001-0.008,0c-0.019,0-0.037-0.003-0.055-0.01l-1.453-0.538
				c-0.049-0.018-0.085-0.058-0.099-0.108l-0.936-3.618c-0.015-0.057,0.004-0.117,0.047-0.156c0.042-0.039,0.104-0.051,0.159-0.032
				l1.547,0.55c0.051,0.018,0.089,0.061,0.102,0.113l0.831,3.561c0.014,0.024,0.022,0.052,0.022,0.081
				C76.901,29.031,76.83,29.102,76.743,29.102z M75.414,28.286l1.101,0.407l-0.755-3.236l-1.186-0.421L75.414,28.286z"/>
			<g>
				<path fill="#1E1E1C" d="M81.091,28.65l-0.041-0.107h-0.344l-0.041,0.109c-0.016,0.043-0.029,0.07-0.04,0.086
					c-0.011,0.014-0.029,0.021-0.055,0.021c-0.021,0-0.041-0.008-0.058-0.023s-0.024-0.033-0.024-0.053
					c0-0.012,0.002-0.025,0.006-0.037s0.01-0.029,0.019-0.051l0.217-0.551c0.006-0.016,0.014-0.033,0.022-0.057
					c0.009-0.021,0.018-0.041,0.027-0.055c0.01-0.016,0.022-0.027,0.039-0.035c0.016-0.01,0.035-0.014,0.059-0.014
					c0.024,0,0.044,0.004,0.061,0.014c0.016,0.008,0.028,0.02,0.038,0.035c0.01,0.014,0.019,0.029,0.025,0.045
					c0.007,0.018,0.015,0.039,0.025,0.066l0.222,0.545c0.017,0.043,0.025,0.072,0.025,0.092s-0.008,0.037-0.024,0.055
					c-0.017,0.016-0.036,0.023-0.06,0.023c-0.013,0-0.024-0.002-0.034-0.008c-0.01-0.004-0.018-0.01-0.024-0.02
					c-0.007-0.008-0.014-0.02-0.021-0.037C81.102,28.678,81.095,28.662,81.091,28.65z M80.751,28.414h0.253l-0.128-0.35
					L80.751,28.414z"/>
				<path fill="#1E1E1C" d="M81.63,28.383h-0.06v0.273c0,0.035-0.008,0.061-0.023,0.078c-0.017,0.018-0.037,0.025-0.062,0.025
					c-0.027,0-0.048-0.008-0.063-0.025c-0.015-0.02-0.022-0.045-0.022-0.078v-0.652c0-0.037,0.009-0.064,0.025-0.08
					c0.017-0.018,0.043-0.025,0.08-0.025h0.279c0.038,0,0.071,0.002,0.099,0.006c0.027,0.002,0.052,0.01,0.073,0.02
					c0.027,0.012,0.051,0.027,0.071,0.047c0.02,0.021,0.035,0.045,0.046,0.074c0.011,0.027,0.016,0.057,0.016,0.086
					c0,0.064-0.018,0.115-0.053,0.152c-0.036,0.037-0.09,0.064-0.162,0.08c0.03,0.016,0.06,0.039,0.087,0.072
					c0.028,0.031,0.053,0.064,0.074,0.1s0.039,0.068,0.051,0.098c0.013,0.027,0.019,0.047,0.019,0.059s-0.004,0.021-0.011,0.033
					s-0.017,0.02-0.029,0.025c-0.013,0.008-0.026,0.01-0.043,0.01c-0.019,0-0.035-0.004-0.048-0.014
					c-0.014-0.008-0.024-0.02-0.034-0.033c-0.01-0.016-0.022-0.035-0.038-0.062l-0.069-0.113c-0.024-0.043-0.047-0.074-0.065-0.096
					c-0.02-0.023-0.04-0.037-0.06-0.045C81.685,28.387,81.661,28.383,81.63,28.383z M81.728,28.027H81.57v0.232h0.153
					c0.041,0,0.076-0.002,0.104-0.01c0.027-0.008,0.049-0.02,0.064-0.037c0.015-0.018,0.021-0.041,0.021-0.07
					c0-0.023-0.006-0.045-0.018-0.062s-0.028-0.031-0.05-0.039C81.827,28.031,81.787,28.027,81.728,28.027z"/>
				<path fill="#1E1E1C" d="M82.446,28.508h-0.182c-0.028,0-0.049-0.006-0.063-0.02s-0.021-0.029-0.021-0.051
					c0-0.02,0.007-0.037,0.021-0.049c0.015-0.014,0.035-0.02,0.064-0.02h0.182c0.029,0,0.05,0.006,0.064,0.02
					c0.014,0.012,0.021,0.029,0.021,0.049c0,0.021-0.007,0.037-0.021,0.051S82.475,28.508,82.446,28.508z"/>
				<path fill="#1E1E1C" d="M82.885,28.666v-0.525c-0.098,0.076-0.163,0.113-0.197,0.113c-0.017,0-0.03-0.008-0.043-0.02
					c-0.013-0.014-0.019-0.027-0.019-0.045c0-0.02,0.006-0.035,0.018-0.043c0.013-0.01,0.034-0.021,0.065-0.037
					c0.047-0.021,0.084-0.045,0.112-0.068c0.027-0.023,0.053-0.051,0.074-0.082c0.021-0.029,0.035-0.049,0.042-0.055
					c0.007-0.008,0.019-0.01,0.037-0.01c0.021,0,0.036,0.008,0.049,0.023s0.019,0.037,0.019,0.064v0.662
					c0,0.076-0.026,0.115-0.079,0.115c-0.023,0-0.042-0.008-0.057-0.023S82.885,28.697,82.885,28.666z"/>
			</g>
			<path fill="#1D1E1C" d="M82.686,31.118h-1.67c-0.463,0-0.902-0.37-0.979-0.826l-0.488-2.847c-0.039-0.233,0.018-0.454,0.16-0.623
				c0.143-0.168,0.351-0.262,0.587-0.262h2.947c0.235,0,0.445,0.093,0.593,0.261s0.211,0.389,0.181,0.622l-0.375,2.838
				C83.58,30.742,83.152,31.118,82.686,31.118z M80.296,26.909c-0.132,0-0.246,0.049-0.321,0.138
				c-0.075,0.089-0.104,0.21-0.082,0.34l0.488,2.847c0.049,0.291,0.34,0.536,0.636,0.536h1.67c0.292,0,0.571-0.244,0.609-0.533
				l0.375-2.839c0.018-0.132-0.017-0.255-0.097-0.346s-0.198-0.142-0.331-0.142H80.296z"/>
			<g>
				<g>
					<path fill="#FFFFFF" d="M83.228,32.92c-0.119-0.305-0.526-0.555-0.907-0.555h-0.979c-0.381,0-0.816,0.25-0.97,0.555
						s0.032,0.553,0.413,0.553h1.967C83.134,33.473,83.347,33.225,83.228,32.92z"/>
				</g>
				<path fill="#1D1E1C" d="M82.753,33.647h-1.967c-0.258,0-0.466-0.098-0.57-0.268c-0.096-0.155-0.095-0.347,0.002-0.538
					c0.183-0.365,0.678-0.65,1.125-0.65h0.979c0.454,0,0.924,0.292,1.069,0.664c0.073,0.188,0.058,0.373-0.045,0.521
					C83.228,33.549,83.012,33.647,82.753,33.647z M81.343,32.54c-0.316,0-0.689,0.21-0.814,0.458
					c-0.023,0.046-0.056,0.134-0.016,0.199c0.039,0.063,0.142,0.102,0.273,0.102h1.967c0.141,0,0.255-0.044,0.306-0.117
					c0.045-0.066,0.029-0.145,0.008-0.199c-0.094-0.24-0.436-0.442-0.745-0.442H81.343z"/>
			</g>
			<g>
				<rect x="81.481" y="30.943" fill="#FFFFFF" width="0.576" height="1.422"/>
				<path fill="#1D1E1C" d="M82.231,32.54h-0.924V30.77h0.924V32.54z M81.655,32.191h0.229v-1.073h-0.229V32.191z"/>
			</g>
			<path fill="#1D1E1C" d="M82.677,30.402c-0.064,0-0.125-0.039-0.148-0.104c-0.03-0.082,0.012-0.172,0.094-0.203
				c0.133-0.048,0.242-0.139,0.287-0.236c0.022-0.049,0.026-0.094,0.012-0.132c-0.017-0.049-0.06-0.077-0.093-0.093
				c-0.097-0.047-0.24-0.045-0.375,0.004c-0.08,0.031-0.172-0.014-0.202-0.096s0.013-0.172,0.095-0.201
				c0.218-0.078,0.44-0.074,0.617,0.008c0.125,0.059,0.213,0.152,0.255,0.27c0.044,0.117,0.037,0.246-0.021,0.372
				c-0.081,0.177-0.251,0.323-0.465,0.401C82.713,30.399,82.695,30.402,82.677,30.402z"/>
		</g>
	</g>
	<g>
		<polygon fill="#FFFFFF" points="58.014,23.575 58.014,28.758 62.598,26.167 		"/>
		<path fill="#FFFFFF" d="M59.518,21.486c2.639,0,4.775,2.143,4.775,4.774c0,2.638-2.137,4.773-4.775,4.773
			c-2.631,0-4.77-2.135-4.77-4.773C54.749,23.628,56.887,21.486,59.518,21.486 M59.518,20.986c-2.905,0-5.27,2.366-5.27,5.274
			c0,2.908,2.364,5.273,5.27,5.273c2.909,0,5.275-2.365,5.275-5.273C64.794,23.352,62.427,20.986,59.518,20.986L59.518,20.986z"/>
	</g>
</g>
</svg>
