<?xml version="1.0" encoding="utf-8"?>
<!-- Generator: Adobe Illustrator 15.0.2, SVG Export Plug-In . SVG Version: 6.00 Build 0)  -->
<!DOCTYPE svg PUBLIC "-//W3C//DTD SVG 1.1//EN" "http://www.w3.org/Graphics/SVG/1.1/DTD/svg11.dtd">
<svg version="1.1" id="Layer_1" xmlns="http://www.w3.org/2000/svg" xmlns:xlink="http://www.w3.org/1999/xlink" x="0px" y="0px"
	 width="83.378px" height="18.619px" viewBox="0 0 83.378 18.619" enable-background="new 0 0 83.378 18.619" xml:space="preserve">
<polygon fill="#FFFFFF" stroke="#39A8E0" stroke-width="0.307" stroke-miterlimit="10" points="26.977,18.466 26.999,0.838 
	14.386,0.838 14.385,18.466 "/>
<rect x="14.385" y="0.201" fill="#1C99CE" stroke="#1C99CE" stroke-width="0.4012" stroke-linejoin="round" stroke-miterlimit="10" width="12.613" height="1.9"/>
<rect x="14.385" y="2.346" fill="#ECF3DD" stroke="#779E56" stroke-width="0.25" stroke-miterlimit="10" width="12.613" height="1.636"/>
<polygon fill="#FFFFFF" stroke="#39A8E0" stroke-width="0.307" stroke-miterlimit="10" points="48.267,18.466 48.288,0.838 
	35.675,0.838 35.674,18.466 "/>
<rect x="35.674" y="0.201" fill="#1C99CE" stroke="#1C99CE" stroke-width="0.4012" stroke-linejoin="round" stroke-miterlimit="10" width="12.614" height="1.9"/>
<rect x="35.674" y="2.346" fill="#ECF3DD" stroke="#779E56" stroke-width="0.25" stroke-miterlimit="10" width="12.614" height="1.636"/>
<polygon fill="#FFFFFF" stroke="#39A8E0" stroke-width="0.307" stroke-miterlimit="10" points="69.556,18.466 69.577,0.838 
	56.964,0.838 56.964,18.466 "/>
<rect x="56.964" y="0.201" fill="#1C99CE" stroke="#1C99CE" stroke-width="0.4012" stroke-linejoin="round" stroke-miterlimit="10" width="12.613" height="1.9"/>
<rect x="56.964" y="2.346" fill="#ECF3DD" stroke="#779E56" stroke-width="0.25" stroke-miterlimit="10" width="12.613" height="1.636"/>
<g>
	<polygon points="8.099,10.271 10.327,10.271 10.327,10.935 12.542,9.652 10.327,8.368 10.327,9.033 8.099,9.033 	"/>
</g>
<g>
	<polygon points="29.388,10.271 31.616,10.271 31.616,10.935 33.831,9.652 31.616,8.368 31.616,9.033 29.388,9.033 	"/>
</g>
<g>
	<polygon points="50.677,10.271 52.905,10.271 52.905,10.935 55.119,9.652 52.905,8.368 52.905,9.033 50.677,9.033 	"/>
</g>
<g>
	<polygon points="71.298,10.271 73.525,10.271 73.525,10.935 75.739,9.652 73.525,8.368 73.525,9.033 71.298,9.033 	"/>
</g>
<g>
	<text transform="matrix(0.9787 0 0 1 19.2119 12.3979)" fill="#1E1E1C" font-family="'Calibri-Bold'" font-size="5.9647">1</text>
</g>
<g>
	<text transform="matrix(0.9787 0 0 1 40.501 12.3979)" fill="#1E1E1C" font-family="'Calibri-Bold'" font-size="5.9647">2</text>
</g>
<g>
	<text transform="matrix(0.9787 0 0 1 61.79 12.3979)" fill="#1E1E1C" font-family="'Calibri-Bold'" font-size="5.9647">3</text>
</g>
<ellipse fill="none" stroke="#000000" stroke-miterlimit="10" cx="3.188" cy="9.652" rx="2.688" ry="2.746"/>
<ellipse cx="80.69" cy="9.652" rx="2.688" ry="2.746"/>
</svg>
