<?xml version="1.0" encoding="utf-8"?>
<!-- Generator: Adobe Illustrator 15.0.0, SVG Export Plug-In . SVG Version: 6.00 Build 0)  -->
<!DOCTYPE svg PUBLIC "-//W3C//DTD SVG 1.1//EN" "http://www.w3.org/Graphics/SVG/1.1/DTD/svg11.dtd">
<svg version="1.1" id="Layer_1" xmlns="http://www.w3.org/2000/svg" xmlns:xlink="http://www.w3.org/1999/xlink" x="0px" y="0px"
	 width="17px" height="17px" viewBox="0 0 17 17" enable-background="new 0 0 17 17" xml:space="preserve">
<g>
	<g>
		<g>
			<path fill="#B8E2F9" d="M17,17H0V0h17V17z M0.25,16.75h16.5V0.25H0.25V16.75z"/>
		</g>
		<g>
			<path fill="#B8E2F9" d="M8.077,11.4C8.077,11.4,8.077,11.4,8.077,11.4c0.591,0,1.167-0.123,1.711-0.365
				c2.124-0.944,3.085-3.44,2.142-5.564c-0.678-1.521-2.191-2.506-3.856-2.506c-0.592,0-1.167,0.123-1.712,0.365
				C5.333,3.787,4.543,4.618,4.139,5.67C3.734,6.721,3.764,7.867,4.222,8.896C4.898,10.417,6.411,11.4,8.077,11.4z M4.117,7.603
				c0.677-0.148,1.387-2.012,3.049-1.514c1.947,0.584,3.515,0.203,4.716-0.056c0.572,1.898-0.326,3.975-2.185,4.801
				c-0.516,0.229-1.061,0.346-1.621,0.346c0,0,0,0,0,0c-1.578,0-3.012-0.932-3.653-2.373C4.251,8.419,4.161,8.013,4.117,7.603z"/>
			<path fill="#B8E2F9" d="M9.113,9.892L7.471,9.822C7.471,9.822,8.688,10.83,9.113,9.892z"/>
			<path fill="#B8E2F9" d="M5.788,12.663c-0.12-0.022-0.236,0.058-0.259,0.18l-0.539,3.01c-0.006,0.035-0.004,0.071,0.006,0.104
				l0.286,0.942c0,0,0.495,0.095,0.459-0.023l-0.302-0.997l0.53-2.957C5.99,12.801,5.909,12.685,5.788,12.663z"/>
			<polygon fill="#B8E2F9" points="8.305,14.625 7.599,12.308 6.432,12.519 6.757,16.94 9.642,16.94 10.154,12.441 8.979,12.308 			
				"/>
			<path fill="#B8E2F9" d="M10.597,12.663c-0.121,0.022-0.201,0.139-0.178,0.261l0.504,2.677l-0.479,1.261
				c-0.043,0.115,0.418,0.158,0.451,0.069l0.465-1.229c0.016-0.039,0.02-0.08,0.012-0.121l-0.516-2.739
				C10.834,12.72,10.72,12.64,10.597,12.663z"/>
			<circle fill="#B8E2F9" cx="9.617" cy="7.839" r="0.441"/>
			<circle fill="#B8E2F9" cx="7.167" cy="7.839" r="0.441"/>
		</g>
	</g>
</g>
</svg>
